<?xml version="1.0" encoding="UTF-8" standalone="no"?>
<!-- Created with Inkscape (http://www.inkscape.org/) -->

<svg
   version="1.1"
   id="svg1"
   width="340.41016"
   height="29.409466"
   viewBox="0 0 340.41015 29.409466"
   sodipodi:docname="Tikz (20).pdf"
   xmlns:inkscape="http://www.inkscape.org/namespaces/inkscape"
   xmlns:sodipodi="http://sodipodi.sourceforge.net/DTD/sodipodi-0.dtd"
   xmlns="http://www.w3.org/2000/svg"
   xmlns:svg="http://www.w3.org/2000/svg">
  <defs
     id="defs1" />
  <sodipodi:namedview
     id="namedview1"
     pagecolor="#ffffff"
     bordercolor="#000000"
     borderopacity="0.25"
     inkscape:showpageshadow="2"
     inkscape:pageopacity="0.0"
     inkscape:pagecheckerboard="0"
     inkscape:deskcolor="#d1d1d1">
    <inkscape:page
       x="5.3686144e-06"
       y="-6.5308484e-08"
       width="340.41016"
       height="29.409466"
       id="page2"
       margin="0"
       bleed="0" />
  </sodipodi:namedview>
  <g
     id="g90"
     inkscape:groupmode="layer"
     inkscape:label="4"
     transform="translate(-762.30687,-13.28326)">
    <path
       id="path91"
       d="m 20.31804,-10.63004 h 86.92458 V 10.63005 H 20.31804 Z"
       style="fill:none;stroke:#000000;stroke-width:0.79701;stroke-linecap:butt;stroke-linejoin:miter;stroke-miterlimit:10;stroke-dasharray:none;stroke-opacity:1"
       transform="matrix(1.3333333,0,0,-1.3333333,809.37467,27.988)" />
    <path
       id="path92"
       d="m 1.36,-0.77399219 c 0,0.3515625 -0.023437,0.46875 -0.796875,0.46875 H 0.32875 V -5.546875e-4 H 6.0826562 L 6.4928125,-2.5669609 H 6.2467187 C 6.000625,-1.0318047 5.76625,-0.30524219 4.0553125,-0.30524219 H 2.7310937 c -0.46875,0 -0.4921875,-0.0703125 -0.4921875,-0.3984375 V -3.3638359 H 3.14125 c 0.9609375,0 1.078125,0.3164062 1.078125,1.1601562 H 4.4654687 V -4.8403984 H 4.219375 c 0,0.8554687 -0.1171875,1.1601562 -1.078125,1.1601562 H 2.2389062 v -2.390625 c 0,-0.328125 0.023437,-0.3984375 0.4921875,-0.3984375 h 1.2890625 c 1.5234375,0 1.7929688,0.5507813 1.9453125,1.9335938 H 6.2115625 L 5.9420312,-6.7739922 H 0.32875 v 0.3046875 h 0.234375 c 0.7734375,0 0.796875,0.1171875 0.796875,0.46875 z M 7.8814844,-3.4224297 v 2.66015626 c 0,0.45703125 -0.1171875,0.45703125 -0.7851563,0.45703125 v 0.3046875025 c 0.3515625,-0.0117187525 0.8554688,-0.0351562525 1.125,-0.0351562525 0.2578125,0 0.7851563,0.0234375 1.1132813,0.0351562525 V -0.30524219 c -0.65625,0 -0.7734375,0 -0.7734375,-0.45703125 V -2.5903984 c 0,-1.03125 0.7148437,-1.59375 1.3476562,-1.59375 0.6210939,0 0.7382809,0.5390625 0.7382809,1.1015625 v 2.32031246 c 0,0.45703125 -0.117187,0.45703125 -0.7734371,0.45703125 V -5.546875e-4 C 10.213516,-0.01227344 10.729141,-0.03571094 10.998672,-0.03571094 c 0.257812,0 0.773437,0.0234375 1.113281,0.0351562525 V -0.30524219 c -0.515625,0 -0.773437,0 -0.785156,-0.3046875 V -2.5083672 c 0,-0.8554687 0,-1.171875 -0.304688,-1.5234375 -0.140625,-0.1757812 -0.46875,-0.375 -1.0429684,-0.375 -0.7265625,0 -1.1953125,0.4335938 -1.4765625,1.0546875 v -1.0546875 l -1.40625,0.1171875 v 0.3046875 c 0.703125,0 0.7851563,0.070312 0.7851563,0.5625 z m 8.3027346,0.1054688 c 0.08203,-0.234375 0.257812,-0.65625 0.914062,-0.6679688 v -0.3046875 c -0.234375,0.011719 -0.515625,0.023437 -0.75,0.023437 -0.234375,0 -0.691406,-0.023437 -0.867187,-0.023437 v 0.3046875 c 0.375,0.011719 0.480468,0.234375 0.480468,0.4335938 0,0.082031 -0.02344,0.1289062 -0.05859,0.234375 L 14.88344,-0.77399219 13.770159,-3.5513359 c -0.05859,-0.140625 -0.05859,-0.1523438 -0.05859,-0.1757813 0,-0.2578125 0.386719,-0.2578125 0.5625,-0.2578125 v -0.3046875 c -0.292968,0 -0.855468,0.023437 -1.078125,0.023437 -0.269531,0 -0.667968,-0.011719 -0.972656,-0.023437 v 0.3046875 c 0.632813,0 0.667969,0.058594 0.796875,0.3632813 l 1.441406,3.53906246 c 0.05859,0.140625 0.07031,0.1875 0.199219,0.1875 0.128906,0 0.175781,-0.08203125 0.210938,-0.1875 z m 1.945312,0.8085937 c 0.05859,-1.4882812 0.902344,-1.734375 1.242188,-1.734375 1.019531,0 1.125,1.3476563 1.125,1.734375 z m -0.01172,0.2109375 h 2.789063 c 0.210937,0 0.246094,0 0.246094,-0.2109375 0,-0.984375 -0.539063,-1.9570312 -1.78125,-1.9570312 -1.160157,0 -2.074219,1.03125 -2.074219,2.2734375 0,1.33593746 1.042969,2.29687496 2.191406,2.29687496 1.21875,0 1.664063,-1.1015625 1.664063,-1.28906246 0,-0.1054688 -0.08203,-0.1171875 -0.128907,-0.1171875 -0.09375,0 -0.117187,0.058594 -0.128906,0.140625 -0.351562,1.01953121 -1.253906,1.01953121 -1.347656,1.01953121 -0.503906,0 -0.902344,-0.29296875 -1.125,-0.66796875 C 18.117812,-1.2896172 18.117812,-1.9458672 18.117812,-2.2974297 Z m 5.083008,-4.6171875 -1.429687,0.1054688 v 0.3164062 c 0.703125,0 0.773437,0.070312 0.773437,0.5507813 v 5.17968746 c 0,0.45703125 -0.105468,0.45703125 -0.773437,0.45703125 v 0.3046875025 c 0.328126,-0.0117187525 0.85547,-0.0351562525 1.101563,-0.0351562525 0.257813,0 0.738282,0.0234375 1.113282,0.0351562525 V -0.30524219 c -0.667969,0 -0.785157,0 -0.785157,-0.45703125 z m 5.698242,4.78125 c 0,-1.2773437 -0.996093,-2.3320312 -2.191406,-2.3320312 -1.253906,0 -2.214844,1.0898437 -2.214844,2.3320312 0,1.28906251 1.03125,2.23828126 2.203125,2.23828126 1.207032,0 2.203125,-0.97265625 2.203125,-2.23828126 z m -2.191406,1.99218751 c -0.433594,0 -0.867187,-0.2109375 -1.136719,-0.66796875 -0.257812,-0.43359376 -0.257812,-1.04296876 -0.257812,-1.40624996 0,-0.3867188 0,-0.9257813 0.246094,-1.359375 0.269531,-0.4570313 0.738281,-0.6679688 1.136718,-0.6679688 0.433594,0 0.867188,0.2226563 1.125,0.6445313 0.257813,0.4335937 0.257813,1.0078125 0.257813,1.3828125 0,0.3632812 0,0.9023437 -0.222656,1.33593746 -0.222657,0.4453125 -0.65625,0.73828125 -1.148438,0.73828125 z m 4.195313,-3.60937501 v -0.65625 l -1.429688,0.1171875 v 0.3046875 c 0.703125,0 0.773438,0.058594 0.773438,0.4921875 v 4.6640625 c 0,0.4570313 -0.105469,0.4570313 -0.773438,0.4570313 v 0.3046875 c 0.339844,-0.011719 0.855469,-0.035156 1.113281,-0.035156 0.269532,0 0.773438,0.023437 1.125,0.035156 V 1.6283516 c -0.667968,0 -0.773437,0 -0.773437,-0.4570313 v -1.75781249 c 0.04687,0.15234375 0.46875,0.69140625 1.21875,0.69140625 1.183594,0 2.226562,-0.97265625 2.226562,-2.26171876 0,-1.265625 -0.972656,-2.25 -2.085937,-2.25 -0.773438,0 -1.195313,0.4453125 -1.394531,0.65625 z m 0.03516,2.6132813 v -2.2148438 c 0.28125,-0.515625 0.773437,-0.796875 1.277344,-0.796875 0.726562,0 1.335937,0.8671875 1.335937,1.9921875 0,1.20703126 -0.691406,2.05078126 -1.429687,2.05078126 -0.398438,0 -0.773438,-0.19921875 -1.042969,-0.609375 -0.140625,-0.2109375 -0.140625,-0.22265625 -0.140625,-0.42187496 z m 5.182617,-1.3710938 c 0.05859,-1.4882812 0.902344,-1.734375 1.242188,-1.734375 1.019531,0 1.125,1.3476563 1.125,1.734375 z m -0.01172,0.2109375 h 2.789063 c 0.210937,0 0.246094,0 0.246094,-0.2109375 0,-0.984375 -0.539063,-1.9570312 -1.78125,-1.9570312 -1.160157,0 -2.074219,1.03125 -2.074219,2.2734375 0,1.33593746 1.042969,2.29687496 2.191406,2.29687496 1.21875,0 1.664063,-1.1015625 1.664063,-1.28906246 0,-0.1054688 -0.08203,-0.1171875 -0.128907,-0.1171875 -0.09375,0 -0.117187,0.058594 -0.128906,0.140625 -0.351562,1.01953121 -1.253906,1.01953121 -1.347656,1.01953121 -0.503906,0 -0.902344,-0.29296875 -1.125,-0.66796875 -0.30469,-0.48046876 -0.30469,-1.13671876 -0.30469,-1.48828126 z m 7.004883,-4.5117187 v 0.3164062 h 0.234375 c 0.773438,0 0.785156,0.1054688 0.785156,0.46875 v 5.25000001 c 0,0.3515625 -0.01172,0.46875 -0.785156,0.46875 h -0.234375 v 0.3046875025 h 3.644531 c 1.675782,0 3.046875,-1.4765625125 3.046875,-3.3515625125 0,-1.8867187 -1.347656,-3.4570312 -3.046875,-3.4570312 z m 2.367188,6.50390621 c -0.46875,0 -0.492188,-0.0703125 -0.492188,-0.3984375 V -6.0943047 c 0,-0.328125 0.02344,-0.3984375 0.492188,-0.3984375 h 0.996093 c 0.621094,0 1.300782,0.2109375 1.816407,0.9257813 0.421875,0.5859375 0.515625,1.4414062 0.515625,2.2148437 0,1.1132813 -0.1875,1.7109375 -0.550782,2.1914063 -0.199218,0.26953121 -0.761718,0.85546871 -1.769531,0.85546871 z m 6.002929,-2.20312501 c 0.05859,-1.4882812 0.902344,-1.734375 1.242188,-1.734375 1.019531,0 1.125,1.3476563 1.125,1.734375 z m -0.01172,0.2109375 h 2.789062 c 0.210938,0 0.246094,0 0.246094,-0.2109375 0,-0.984375 -0.539063,-1.9570312 -1.78125,-1.9570312 -1.160156,0 -2.074219,1.03125 -2.074219,2.2734375 0,1.33593746 1.042969,2.29687496 2.191406,2.29687496 1.21875,0 1.664063,-1.1015625 1.664063,-1.28906246 0,-0.1054688 -0.08203,-0.1171875 -0.128906,-0.1171875 -0.09375,0 -0.117188,0.058594 -0.128907,0.140625 -0.351562,1.01953121 -1.253906,1.01953121 -1.347656,1.01953121 -0.503906,0 -0.902344,-0.29296875 -1.125,-0.66796875 C 51.472305,-1.2896172 51.472305,-1.9458672 51.472305,-2.2974297 Z m 5.050781,-1.6875 h 1.429687 v -0.3046875 h -1.429687 v -1.8398437 h -0.246094 c -0.01172,0.8203125 -0.316406,1.8867187 -1.289062,1.921875 v 0.2226562 h 0.84375 v 2.7539063 c 0,1.21874996 0.925781,1.33593746 1.289062,1.33593746 0.703125,0 0.984375,-0.703125 0.984375,-1.33593746 v -0.5742188 h -0.246094 v 0.5507813 c 0,0.73828121 -0.304687,1.11328121 -0.667968,1.11328121 -0.667969,0 -0.667969,-0.90234371 -0.667969,-1.07812501 z m 3.263672,1.4765625 c 0.05859,-1.4882812 0.902344,-1.734375 1.242187,-1.734375 1.019532,0 1.125,1.3476563 1.125,1.734375 z m -0.01172,0.2109375 h 2.789063 c 0.210937,0 0.246093,0 0.246093,-0.2109375 0,-0.984375 -0.539062,-1.9570312 -1.78125,-1.9570312 -1.160156,0 -2.074218,1.03125 -2.074218,2.2734375 0,1.33593746 1.042968,2.29687496 2.191406,2.29687496 1.21875,0 1.664062,-1.1015625 1.664062,-1.28906246 0,-0.1054688 -0.08203,-0.1171875 -0.128906,-0.1171875 -0.09375,0 -0.117187,0.058594 -0.128906,0.140625 -0.351563,1.01953121 -1.253906,1.01953121 -1.347656,1.01953121 -0.503907,0 -0.902344,-0.29296875 -1.125,-0.66796875 C 59.775039,-1.2896172 59.775039,-1.9458672 59.775038,-2.2974297 Z m 4.485352,0.1289063 c 0,-1.6289063 0.820312,-2.0507813 1.347656,-2.0507813 0.09375,0 0.714844,0.011719 1.066406,0.375 -0.410156,0.023437 -0.46875,0.328125 -0.46875,0.4570313 0,0.2578125 0.1875,0.4570312 0.457031,0.4570312 0.257813,0 0.457032,-0.1640625 0.457032,-0.46875 0,-0.6796875 -0.75,-1.0664062 -1.523438,-1.0664062 -1.242187,0 -2.15625,1.078125 -2.15625,2.3085937 0,1.27734376 0.984375,2.26171876 2.144531,2.26171876 1.335938,0 1.652344,-1.19531246 1.652344,-1.28906246 0,-0.1054688 -0.105469,-0.1054688 -0.128906,-0.1054688 -0.09375,0 -0.117188,0.046875 -0.128906,0.1054688 -0.292969,0.92578121 -0.9375,1.04296871 -1.3125,1.04296871 -0.527344,0 -1.40625,-0.421875 -1.40625,-2.02734371 z m 4.992187,-1.8164063 h 1.429688 v -0.3046875 h -1.429688 v -1.8398437 h -0.246094 c -0.01172,0.8203125 -0.316406,1.8867187 -1.289062,1.921875 v 0.2226562 h 0.84375 v 2.7539063 c 0,1.21874996 0.925781,1.33593746 1.289062,1.33593746 0.703125,0 0.984375,-0.703125 0.984375,-1.33593746 v -0.5742188 h -0.246093 v 0.5507813 c 0,0.73828121 -0.304688,1.11328121 -0.667969,1.11328121 -0.667969,0 -0.667969,-0.90234371 -0.667969,-1.07812501 z m 6.837891,1.8515625 c 0,-1.2773437 -0.996094,-2.3320312 -2.191407,-2.3320312 -1.253906,0 -2.214843,1.0898437 -2.214843,2.3320312 0,1.28906251 1.03125,2.23828126 2.203125,2.23828126 1.207031,0 2.203125,-0.97265625 2.203125,-2.23828126 z m -2.191407,1.99218751 c -0.433593,0 -0.867187,-0.2109375 -1.136718,-0.66796875 C 72.50453,-1.2427422 72.50453,-1.8521172 72.50453,-2.2153984 c 0,-0.3867188 0,-0.9257813 0.246094,-1.359375 0.269531,-0.4570313 0.738281,-0.6679688 1.136719,-0.6679688 0.433593,0 0.867187,0.2226563 1.125,0.6445313 0.257812,0.4335937 0.257812,1.0078125 0.257812,1.3828125 0,0.3632812 0,0.9023437 -0.222656,1.33593746 -0.222656,0.4453125 -0.65625,0.73828125 -1.148438,0.73828125 z M 78.0475,-3.3052422 v -1.1015625 l -1.382813,0.1171875 v 0.3046875 c 0.691407,0 0.773438,0.070312 0.773438,0.5625 v 2.66015626 c 0,0.45703125 -0.105469,0.45703125 -0.773438,0.45703125 V -5.546875e-4 C 77.051406,-0.01227344 77.520156,-0.03571094 77.801406,-0.03571094 c 0.398438,0 0.867188,0 1.265625,0.0351562525 V -0.30524219 h -0.210937 c -0.738282,0 -0.761719,-0.1171875 -0.761719,-0.46875 V -2.3091484 c 0,-0.984375 0.421875,-1.875 1.183594,-1.875 0.05859,0 0.08203,0 0.105468,0.011719 -0.03516,0.011719 -0.234375,0.1289063 -0.234375,0.3867188 0,0.28125 0.210938,0.4335937 0.433594,0.4335937 0.175781,0 0.421875,-0.1289062 0.421875,-0.4453125 0,-0.3164062 -0.304687,-0.609375 -0.726562,-0.609375 -0.738282,0 -1.089844,0.6679688 -1.230469,1.1015622 z m 0,0"
       style="fill:#000000;fill-opacity:1;fill-rule:nonzero;stroke:none"
       aria-label="EnvelopeDetector"
       transform="matrix(1.3333333,0,0,1.3333333,840.892,31.309333)" />
    <path
       id="path93"
       d="m 128.6583,-10.63004 h 26.1516 v 21.26009 h -26.1516 z"
       style="fill:none;stroke:#000000;stroke-width:0.79701;stroke-linecap:butt;stroke-linejoin:miter;stroke-miterlimit:10;stroke-dasharray:none;stroke-opacity:1"
       transform="matrix(1.3333333,0,0,-1.3333333,809.37467,27.988)" />
    <path
       id="path94"
       d="M 5.7993203,-2.5658984 H 5.5415078 C 5.4360391,-1.5580859 5.2954141,-0.30417969 3.5493203,-0.30417969 H 2.7290078 c -0.46875,0 -0.4921875,-0.0703125 -0.4921875,-0.3984375 V -6.0112109 c 0,-0.3398438 0,-0.4804688 0.9492188,-0.4804688 h 0.328125 v -0.3164062 c -0.3632813,0.035156 -1.265625,0.035156 -1.6757813,0.035156 -0.3867187,0 -1.16015624,0 -1.51171874,-0.035156 v 0.3164062 h 0.234375 c 0.77343754,0 0.79687504,0.1054688 0.79687504,0.46875 v 5.25000001 c 0,0.3515625 -0.023437,0.46875 -0.79687504,0.46875 h -0.234375 V 5.078125e-4 H 5.5180703 Z m 2.6894531,-0.5859375 h 1.6874996 c 1.195313,0 2.261719,-0.796875 2.261719,-1.7929688 0,-0.984375 -0.984375,-1.8632812 -2.34375,-1.8632812 H 6.5786172 v 0.3164062 h 0.234375 c 0.7734375,0 0.7851562,0.1054688 0.7851562,0.46875 v 5.25000001 c 0,0.3515625 -0.011719,0.46875 -0.7851562,0.46875 H 6.5786172 V 5.078125e-4 C 6.9301797,-0.03464844 7.6567422,-0.03464844 8.0434609,-0.03464844 c 0.375,0 1.125,0 1.4765625,0.0351562525 V -0.30417969 H 9.2739297 c -0.7617188,0 -0.7851563,-0.1171875 -0.7851563,-0.46875 z m -0.035156,-0.2578125 v -2.6835938 c 0,-0.328125 0.023437,-0.3984375 0.4921875,-0.3984375 h 0.890625 c 1.5820311,0 1.5820311,1.0546875 1.5820311,1.546875 0,0.4570313 0,1.5351563 -1.5820311,1.5351563 z M 18.807133,-6.7729297 h -5.472656 v 0.3046875 h 0.234375 c 0.773437,0 0.796875,0.1171875 0.796875,0.46875 v 5.22656251 c 0,0.3515625 -0.02344,0.46875 -0.796875,0.46875 H 13.334477 V 5.078125e-4 c 0.351562,-0.0351562525 1.125,-0.0351562525 1.511718,-0.0351562525 0.410157,0 1.3125,0 1.675782,0.0351562525 V -0.30417969 h -0.328125 c -0.949219,0 -0.949219,-0.12890625 -0.949219,-0.48046875 V -3.2338672 h 0.855469 c 0.960937,0 1.054687,0.3164063 1.054687,1.1601563 h 0.257813 v -2.6367188 h -0.257813 c 0,0.8320313 -0.09375,1.1601563 -1.054687,1.1601563 h -0.855469 v -2.5195313 c 0,-0.328125 0.02344,-0.3984375 0.492187,-0.3984375 h 1.195313 c 1.488281,0 1.746094,0.5625 1.898437,1.9335938 h 0.257813 z m 0,0"
       style="fill:#000000;fill-opacity:1;fill-rule:nonzero;stroke:none"
       aria-label="LPF"
       transform="matrix(1.3333333,0,0,1.3333333,985.344,32.526667)" />
    <path
       id="path95"
       d="M 0,0 H 15.25706"
       style="fill:none;stroke:#000000;stroke-width:0.79701;stroke-linecap:butt;stroke-linejoin:miter;stroke-miterlimit:10;stroke-dasharray:none;stroke-opacity:1"
       transform="matrix(1.3333333,0,0,-1.3333333,809.37467,27.988)" />
    <path
       id="path96"
       d="M 4.66248,0 C 3.28098,0.25902 1.0361,1.0361 -0.51805,1.94269 V -1.94269 C 1.0361,-1.0361 3.28098,-0.25902 4.66248,0"
       style="fill:#000000;fill-opacity:1;fill-rule:nonzero;stroke:none"
       transform="matrix(1.3333333,0,0,-1.3333333,829.71741,27.988)" />
    <g
       id="g96"
       aria-label="x&#10;AM&#10;(t)"
       transform="matrix(1.3333333,0,0,1.3333333,761.916,31.309333)">
      <path
         id="path97"
         d="m 3.3283281,-3.0122734 c 0.058594,-0.2578125 0.2929688,-1.171875 0.984375,-1.171875 0.046875,0 0.2929688,0 0.5039063,0.1289062 -0.28125,0.046875 -0.4804688,0.3046875 -0.4804688,0.5390625 0,0.1640625 0.1054688,0.3515625 0.375,0.3515625 0.2226563,0 0.5390625,-0.1875 0.5390625,-0.5859375 0,-0.515625 -0.5859375,-0.65625 -0.9257812,-0.65625 -0.5742188,0 -0.9257813,0.5273438 -1.0429688,0.7617188 -0.2578125,-0.65625 -0.7851562,-0.7617188 -1.078125,-0.7617188 -1.0429687,0 -1.60546872,1.2890625 -1.60546872,1.5351563 0,0.1054687 0.10546875,0.1054687 0.1171875,0.1054687 0.0820313,0 0.1171875,-0.023437 0.12890625,-0.1171875 0.33984377,-1.0546875 0.99609377,-1.3007812 1.33593747,-1.3007812 0.1875,0 0.5390625,0.09375 0.5390625,0.6679687 0,0.3046875 -0.1640625,0.9726563 -0.5390625,2.3671875 -0.1523437,0.62109376 -0.5039062,1.04296876 -0.9492187,1.04296876 -0.058594,0 -0.28125002,0 -0.49218752,-0.12890625 0.24609375,-0.0585938 0.46875002,-0.26953125 0.46875002,-0.5390625 0,-0.26953121 -0.22265627,-0.35156251 -0.37500002,-0.35156251 -0.29296875,0 -0.5390625,0.25781251 -0.5390625,0.57421876 0,0.45703125 0.4921875,0.65625 0.93750002,0.65625 0.65625,0 1.0078125,-0.69140625 1.0429687,-0.75 0.1171875,0.36328125 0.4804688,0.75 1.078125,0.75 1.0195313,0 1.59375,-1.27734376 1.59375,-1.53515626 0,-0.09375 -0.09375,-0.09375 -0.1289062,-0.09375 -0.082031,0 -0.1054688,0.035156 -0.1289063,0.1054688 -0.328125,1.06640621 -0.9960937,1.31249996 -1.3242187,1.31249996 -0.3867188,0 -0.5390625,-0.328125 -0.5390625,-0.65625 0,-0.22265625 0.058594,-0.44531246 0.1640625,-0.87890626 z m 0,0"
         style="fill:#000000;fill-opacity:1;fill-rule:nonzero;stroke:none" />
      <path
         id="path98"
         d="M 7.1339922,0.66155469 C 6.8878984,1.0365547 6.6652422,1.2123359 6.2550859,1.2474922 c -0.070312,0 -0.1640625,0 -0.1640625,0.140625 0,0.082031 0.058594,0.1054687 0.09375,0.1054687 0.1875,0 0.4101563,-0.023437 0.5976563,-0.023437 0.2226562,0 0.515625,0.023437 0.7265625,0.023437 0.035156,0 0.140625,0 0.140625,-0.1523437 0,-0.09375 -0.09375,-0.09375 -0.1289063,-0.09375 -0.046875,-0.011719 -0.3046875,-0.023437 -0.3046875,-0.2109375 0,-0.0820313 0.070312,-0.21093751 0.1054688,-0.26953126 l 0.5625,-0.8671875 H 9.8761797 L 10.040242,1.0599922 c -0.02344,0.070312 -0.070312,0.1875 -0.4804686,0.1875 -0.082031,0 -0.1757812,0 -0.1757812,0.1523437 0,0.023437 0.023437,0.09375 0.1054687,0.09375 0.2109375,0 0.7031251,-0.023437 0.9023441,-0.023437 0.128906,0 0.28125,0 0.410156,0 0.128906,0.011719 0.269531,0.023437 0.398437,0.023437 0.09375,0 0.140625,-0.058594 0.140625,-0.140625 0,-0.1054687 -0.08203,-0.1054687 -0.199218,-0.1054687 -0.398438,0 -0.410157,-0.058594 -0.433594,-0.2226563 l -0.621094,-4.3125 c -0.01172,-0.140625 -0.03516,-0.1875 -0.1640623,-0.1875 -0.1289063,0 -0.1757813,0.058594 -0.234375,0.1523438 z m 0.9140625,-1.0078125 1.4648437,-2.28515629 0.328125,2.28515629 z M 18.797078,-2.7017266 c 0.07031,-0.2578125 0.08203,-0.3164062 0.597656,-0.3164062 0.152344,0 0.234375,0 0.234375,-0.140625 0,-0.1054688 -0.08203,-0.1054688 -0.210937,-0.1054688 h -0.9375 c -0.210938,0 -0.210938,0 -0.304688,0.140625 L 15.480672,0.84905469 14.789266,-3.0767266 c -0.03516,-0.1875 -0.03516,-0.1875 -0.234375,-0.1875 h -1.007813 c -0.128906,0 -0.222656,0 -0.222656,0.1523438 0,0.09375 0.08203,0.09375 0.234375,0.09375 0.117187,0 0.140625,0 0.269531,0.011719 0.140625,0.011719 0.152344,0.035156 0.152344,0.1054688 0,0 0,0.046875 -0.03516,0.1523437 l -0.878907,3.49218754 c -0.05859,0.24609375 -0.164062,0.48046876 -0.714843,0.50390626 -0.05859,0 -0.152344,0 -0.152344,0.1523437 0,0 0.01172,0.09375 0.105469,0.09375 0.210937,0 0.503906,-0.023437 0.726562,-0.023437 0.164063,0 0.574219,0.023437 0.738281,0.023437 0.03516,0 0.140625,0 0.140625,-0.1523437 0,-0.09375 -0.09375,-0.09375 -0.152343,-0.09375 -0.445313,-0.023437 -0.445313,-0.1992188 -0.445313,-0.29296876 0,-0.0351563 0,-0.0703125 0.02344,-0.17578125 L 14.26192,-2.9361013 h 0.01172 l 0.738281,4.2421875 c 0.02344,0.1289063 0.03516,0.1875 0.140625,0.1875 0.105469,0 0.152344,-0.082031 0.210937,-0.1523437 l 2.917969,-4.3476563 0.01172,0.011719 -0.984375,3.94921874 c -0.05859,0.23437496 -0.07031,0.29296876 -0.609375,0.29296876 -0.128906,0 -0.210938,0 -0.210938,0.1523437 0,0 0,0.09375 0.105469,0.09375 0.140625,0 0.292969,-0.023437 0.433594,-0.023437 0.140625,0 0.304687,0 0.445312,0 0.199219,0 0.691407,0.023437 0.878907,0.023437 0.04687,0 0.152343,0 0.152343,-0.1523437 0,-0.09375 -0.08203,-0.09375 -0.222656,-0.09375 -0.01172,0 -0.140625,0 -0.269531,-0.023437 -0.152344,-0.011719 -0.152344,-0.035156 -0.152344,-0.1054688 0,-0.035156 0.01172,-0.1054687 0.02344,-0.15234371 z m 0,0"
         style="fill:#000000;fill-opacity:1;fill-rule:nonzero;stroke:none" />
      <path
         id="path99"
         d="m 23.821492,2.3900703 c 0,-0.035156 0,-0.046875 -0.164062,-0.2226562 -1.242188,-1.25390629 -1.570313,-3.12890629 -1.570313,-4.6640625 0,-1.7226563 0.386719,-3.4570313 1.605469,-4.7109375 0.128906,-0.1171875 0.128906,-0.1289063 0.128906,-0.1640625 0,-0.070312 -0.03516,-0.1054688 -0.09375,-0.1054688 -0.105469,0 -0.996094,0.6796875 -1.582031,1.9453125 -0.515625,1.1015625 -0.632813,2.203125 -0.632813,3.0351563 0,0.7851562 0.117188,1.99218746 0.65625,3.11718746 0.597657,1.21875004 1.453125,1.87500004 1.558594,1.87500004 0.05859,0 0.09375,-0.035156 0.09375,-0.1054688 z m 0,0"
         style="fill:#000000;fill-opacity:1;fill-rule:nonzero;stroke:none" />
      <path
         id="path100"
         d="m 26.452352,-3.9849297 h 0.9375 c 0.199218,0 0.304687,0 0.304687,-0.1992187 0,-0.1054688 -0.105469,-0.1054688 -0.28125,-0.1054688 h -0.878906 c 0.363281,-1.4179687 0.410156,-1.6171875 0.410156,-1.6757812 0,-0.1757813 -0.117187,-0.2695313 -0.292969,-0.2695313 -0.02344,0 -0.304687,0.011719 -0.398437,0.3515625 l -0.386719,1.59375 h -0.9375 c -0.199219,0 -0.292969,0 -0.292969,0.1875 0,0.1171875 0.07031,0.1171875 0.269532,0.1171875 h 0.878906 c -0.714844,2.8242188 -0.75,3.00000001 -0.75,3.17578126 0,0.5390625 0.375,0.9140625 0.914062,0.9140625 1.007813,0 1.582032,-1.45312496 1.582032,-1.53515626 0,-0.09375 -0.08203,-0.09375 -0.117188,-0.09375 -0.09375,0 -0.105469,0.023437 -0.152344,0.140625 -0.433593,1.03125001 -0.960937,1.27734376 -1.300781,1.27734376 -0.199219,0 -0.304687,-0.12890625 -0.304687,-0.45703125 0,-0.24609375 0.02344,-0.31640625 0.05859,-0.48046871 z m 0,0"
         style="fill:#000000;fill-opacity:1;fill-rule:nonzero;stroke:none" />
      <path
         id="path101"
         d="m 30.884969,-2.4966484 c 0,-0.7734375 -0.117188,-1.9804688 -0.65625,-3.1054688 -0.597656,-1.21875 -1.464844,-1.875 -1.558594,-1.875 -0.05859,0 -0.105469,0.046875 -0.105469,0.1054688 0,0.035156 0,0.046875 0.199219,0.234375 0.972656,0.984375 1.535156,2.5664062 1.535156,4.640625 0,1.71093746 -0.363281,3.45703121 -1.59375,4.7226562 -0.140625,0.1171875 -0.140625,0.1289063 -0.140625,0.1640625 0,0.058594 0.04687,0.1054688 0.105469,0.1054688 0.09375,0 0.996094,-0.6796875 1.582031,-1.94531254 0.503907,-1.1015625 0.632813,-2.20312496 0.632813,-3.04687496 z m 0,0"
         style="fill:#000000;fill-opacity:1;fill-rule:nonzero;stroke:none" />
    </g>
    <path
       id="path102"
       d="m 155.20839,0 h 17.29674"
       style="fill:none;stroke:#000000;stroke-width:0.79701;stroke-linecap:butt;stroke-linejoin:miter;stroke-miterlimit:10;stroke-dasharray:none;stroke-opacity:1"
       transform="matrix(1.3333333,0,0,-1.3333333,809.37467,27.988)" />
    <path
       id="path103"
       d="M 4.66248,0 C 3.28098,0.25902 1.0361,1.0361 -0.51805,1.94269 V -1.94269 C 1.0361,-1.0361 3.28098,-0.25902 4.66248,0"
       style="fill:#000000;fill-opacity:1;fill-rule:nonzero;stroke:none"
       transform="matrix(1.3333333,0,0,-1.3333333,1039.3815,27.988)" />
    <g
       id="g103"
       aria-label="s(t)+A&#10;c"
       transform="matrix(1.3333333,0,0,1.3333333,1050.5533,31.309333)">
      <path
         id="path104"
         d="m 3.8903672,-3.7271172 c -0.2695313,0.011719 -0.46875,0.234375 -0.46875,0.4453125 0,0.140625 0.082031,0.2929688 0.3046875,0.2929688 0.2226562,0 0.4570312,-0.1640625 0.4570312,-0.5625 0,-0.4453125 -0.4335937,-0.8554688 -1.1835937,-0.8554688 -1.3125,0 -1.6875,1.0195313 -1.6875,1.453125 0,0.7851563 0.7382812,0.9257813 1.03125,0.9960938 0.515625,0.09375 1.03125,0.1992187 1.03125,0.75 0,0.25781246 -0.2226563,1.10156246 -1.4179688,1.10156246 -0.140625,0 -0.9140625,0 -1.13671871,-0.52734375 0.37500001,0.046875 0.62109371,-0.2578125 0.62109371,-0.52734371 0,-0.234375 -0.1523437,-0.3515625 -0.3632812,-0.3515625 -0.25781251,0 -0.56250001,0.2109375 -0.56250001,0.65624996 0,0.5625 0.57421871,0.9609375 1.42968751,0.9609375 1.6054687,0 2.0039062,-1.20703126 2.0039062,-1.65234376 0,-0.3515625 -0.1992187,-0.609375 -0.3164062,-0.7265625 -0.2695313,-0.28125 -0.5507813,-0.328125 -0.9960938,-0.421875 -0.3515625,-0.070312 -0.75,-0.140625 -0.75,-0.5976562 0,-0.28125 0.234375,-0.890625 1.1132813,-0.890625 0.2460937,0 0.75,0.070312 0.890625,0.4570312 z m 0,0"
         style="fill:#000000;fill-opacity:1;fill-rule:nonzero;stroke:none" />
      <path
         id="path105"
         d="m 7.9626328,2.3900703 c 0,-0.035156 0,-0.046875 -0.1640625,-0.2226562 -1.2421875,-1.25390629 -1.5703125,-3.12890629 -1.5703125,-4.6640625 0,-1.7226563 0.3867188,-3.4570313 1.6054688,-4.7109375 0.1289062,-0.1171875 0.1289062,-0.1289063 0.1289062,-0.1640625 0,-0.070312 -0.035156,-0.1054688 -0.09375,-0.1054688 -0.1054687,0 -0.9960937,0.6796875 -1.5820312,1.9453125 -0.515625,1.1015625 -0.6328125,2.203125 -0.6328125,3.0351563 0,0.7851562 0.1171875,1.99218746 0.65625,3.11718746 0.5976562,1.21875004 1.453125,1.87500004 1.5585937,1.87500004 0.058594,0 0.09375,-0.035156 0.09375,-0.1054688 z m 0,0"
         style="fill:#000000;fill-opacity:1;fill-rule:nonzero;stroke:none" />
      <path
         id="path106"
         d="m 10.596422,-3.9849297 h 0.9375 c 0.199219,0 0.304687,0 0.304687,-0.1992187 0,-0.1054688 -0.105468,-0.1054688 -0.28125,-0.1054688 h -0.878906 c 0.363281,-1.4179687 0.410156,-1.6171875 0.410156,-1.6757812 0,-0.1757813 -0.117187,-0.2695313 -0.292968,-0.2695313 -0.02344,0 -0.304688,0.011719 -0.398438,0.3515625 l -0.386719,1.59375 H 9.0729844 c -0.1992188,0 -0.2929688,0 -0.2929688,0.1875 0,0.1171875 0.070312,0.1171875 0.2695313,0.1171875 h 0.8789062 c -0.7148437,2.8242188 -0.75,3.00000001 -0.75,3.17578126 0,0.5390625 0.375,0.9140625 0.9140629,0.9140625 1.007812,0 1.582031,-1.45312496 1.582031,-1.53515626 0,-0.09375 -0.08203,-0.09375 -0.117188,-0.09375 -0.09375,0 -0.105468,0.023437 -0.152343,0.140625 -0.433594,1.03125001 -0.960938,1.27734376 -1.300782,1.27734376 -0.1992184,0 -0.3046871,-0.12890625 -0.3046871,-0.45703125 0,-0.24609375 0.023437,-0.31640625 0.058594,-0.48046871 z m 0,0"
         style="fill:#000000;fill-opacity:1;fill-rule:nonzero;stroke:none" />
      <path
         id="path107"
         d="m 15.026109,-2.4966484 c 0,-0.7734375 -0.117187,-1.9804688 -0.65625,-3.1054688 -0.597656,-1.21875 -1.464843,-1.875 -1.558593,-1.875 -0.05859,0 -0.105469,0.046875 -0.105469,0.1054688 0,0.035156 0,0.046875 0.199219,0.234375 0.972656,0.984375 1.535156,2.5664062 1.535156,4.640625 0,1.71093746 -0.363281,3.45703121 -1.59375,4.7226562 -0.140625,0.1171875 -0.140625,0.1289063 -0.140625,0.1640625 0,0.058594 0.04687,0.1054688 0.105469,0.1054688 0.09375,0 0.996093,-0.6796875 1.582031,-1.94531254 0.503906,-1.1015625 0.632812,-2.20312496 0.632812,-3.04687496 z m 7.280274,0.1992187 h 2.777344 c 0.140625,0 0.328125,0 0.328125,-0.1992187 0,-0.1992188 -0.1875,-0.1992188 -0.328125,-0.1992188 h -2.777344 v -2.7890625 c 0,-0.1289062 0,-0.328125 -0.199219,-0.328125 -0.199219,0 -0.199219,0.1992188 -0.199219,0.328125 v 2.7890625 h -2.789062 c -0.140625,0 -0.328125,0 -0.328125,0.1992188 0,0.1992187 0.1875,0.1992187 0.328125,0.1992187 h 2.789062 v 2.80078126 c 0,0.12890625 0,0.328125 0.199219,0.328125 0.199219,0 0.199219,-0.19921875 0.199219,-0.328125 z m 0,0"
         style="fill:#000000;fill-opacity:1;fill-rule:nonzero;stroke:none" />
      <path
         id="path108"
         d="m 29.973375,-1.1489922 c -0.398438,0.66796876 -0.785156,0.80859376 -1.21875,0.84375001 -0.128906,0 -0.210938,0 -0.210938,0.19921875 0,0.05859375 0.04687,0.1054687525 0.128907,0.1054687525 0.269531,0 0.574218,-0.0351562525 0.855468,-0.0351562525 0.328125,0 0.679688,0.0351562525 0.996094,0.0351562525 0.05859,0 0.1875,0 0.1875,-0.1875000025 0,-0.1171875 -0.09375,-0.1171875 -0.164062,-0.1171875 -0.222657,-0.0234375 -0.457032,-0.10546875 -0.457032,-0.3515625 0,-0.1171875 0.05859,-0.234375 0.128907,-0.37500001 l 0.761718,-1.265625 h 2.496094 c 0.02344,0.1992188 0.164063,1.55859376 0.164063,1.66406251 0,0.29296875 -0.515625,0.328125 -0.714844,0.328125 -0.140625,0 -0.246094,0 -0.246094,0.19921875 0,0.1054687525 0.128906,0.1054687525 0.140625,0.1054687525 0.410156,0 0.84375,-0.0351562525 1.253906,-0.0351562525 0.246094,0 0.867188,0.0351562525 1.125,0.0351562525 0.05859,0 0.175782,0 0.175782,-0.1992187525 0,-0.10546875 -0.105469,-0.10546875 -0.234375,-0.10546875 -0.609375,0 -0.609375,-0.0703125 -0.644532,-0.36328125 L 33.887437,-6.8911797 c -0.01172,-0.1992187 -0.01172,-0.2460937 -0.1875,-0.2460937 -0.164062,0 -0.199218,0.070312 -0.257812,0.1757812 z m 1.195312,-1.4648437 1.96875,-3.28125 0.316407,3.28125 z m 0,0"
         style="fill:#000000;fill-opacity:1;fill-rule:nonzero;stroke:none" />
      <path
         id="path109"
         d="m 38.724352,-1.1782891 c -0.257813,0.046875 -0.363282,0.23437504 -0.363282,0.38671879 0,0.1875 0.152344,0.2578125 0.269532,0.2578125 0.164062,0 0.398437,-0.10546875 0.398437,-0.4453125 0,-0.46874999 -0.539062,-0.59765629 -0.914062,-0.59765629 -1.042969,0 -2.015625,0.96093754 -2.015625,1.92187504 0,0.609375 0.421875,1.21874996 1.289062,1.21874996 1.183594,0 1.734375,-0.69140621 1.734375,-0.78515621 0,-0.046875 -0.07031,-0.1171875 -0.128906,-0.1171875 -0.03516,0 -0.04687,0.0117188 -0.105469,0.0703125 -0.550781,0.63281251 -1.359375,0.63281251 -1.488281,0.63281251 -0.503906,0 -0.726563,-0.3398438 -0.726563,-0.77343751 0,-0.19921875 0.105469,-0.9609375 0.46875,-1.44140625 0.257813,-0.33984374 0.621094,-0.53906254 0.972657,-0.53906254 0.09375,0 0.433593,0.011719 0.609375,0.2109375 z m 0,0"
         style="fill:#000000;fill-opacity:1;fill-rule:nonzero;stroke:none" />
    </g>
    <path
       id="path110"
       d="M 107.64113,0 H 123.5973"
       style="fill:none;stroke:#000000;stroke-width:0.79701;stroke-linecap:butt;stroke-linejoin:miter;stroke-miterlimit:10;stroke-dasharray:none;stroke-opacity:1"
       transform="matrix(1.3333333,0,0,-1.3333333,809.37467,27.988)" />
    <path
       id="path111"
       d="M 4.66248,0 C 3.28098,0.25902 1.0361,1.0361 -0.51805,1.94269 V -1.94269 C 1.0361,-1.0361 3.28098,-0.25902 4.66248,0"
       style="fill:#000000;fill-opacity:1;fill-rule:nonzero;stroke:none"
       transform="matrix(1.3333333,0,0,-1.3333333,974.17107,27.988)" />
  </g>
</svg>
