<?xml version="1.0" encoding="UTF-8" standalone="no"?>
<!-- Created with Inkscape (http://www.inkscape.org/) -->

<svg
   version="1.1"
   id="svg1"
   width="194.59769"
   height="71.041908"
   viewBox="0 0 194.59769 71.041908"
   sodipodi:docname="Tikz (18).pdf"
   xmlns:inkscape="http://www.inkscape.org/namespaces/inkscape"
   xmlns:sodipodi="http://sodipodi.sourceforge.net/DTD/sodipodi-0.dtd"
   xmlns="http://www.w3.org/2000/svg"
   xmlns:svg="http://www.w3.org/2000/svg">
  <defs
     id="defs1" />
  <sodipodi:namedview
     id="namedview1"
     pagecolor="#ffffff"
     bordercolor="#000000"
     borderopacity="0.25"
     inkscape:showpageshadow="2"
     inkscape:pageopacity="0.0"
     inkscape:pagecheckerboard="0"
     inkscape:deskcolor="#d1d1d1"
     showgrid="false">
    <inkscape:page
       x="-7.4102795e-06"
       y="1.0534446e-07"
       width="194.59769"
       height="71.041908"
       id="page2"
       margin="0"
       bleed="0" />
  </sodipodi:namedview>
  <g
     id="g54"
     inkscape:groupmode="layer"
     inkscape:label="3"
     transform="translate(-510.57444,-17.707031)">
    <path
       id="path55"
       d="m 35.43349,0 c 0,3.91391 -3.17278,7.08669 -7.08669,7.08669 -3.91391,0 -7.08668,-3.17278 -7.08668,-7.08669 0,-3.91391 3.17277,-7.08669 7.08668,-7.08669 3.91391,0 7.08669,3.17278 7.08669,7.08669 z"
       style="fill:none;stroke:#000000;stroke-width:0.79701;stroke-linecap:butt;stroke-linejoin:miter;stroke-miterlimit:10;stroke-dasharray:none;stroke-opacity:1"
       transform="matrix(1.3333333,0,0,-1.3333333,536.20133,31.524)"
       inkscape:export-filename="..\OneDrive - The University of Western Australia\eng-summary\circuit_diagrams\am_mod.svg"
       inkscape:export-xdpi="96"
       inkscape:export-ydpi="96" />
    <path
       id="path56"
       d="m 3.7037031,-3.2462187 c 0.09375,-0.1054688 0.09375,-0.140625 0.09375,-0.1640625 0,-0.046875 -0.046875,-0.09375 -0.070312,-0.140625 l -2.039063,-2.9414063 h 2.296875 c 1.6875,0 2.1796875,0.3515625 2.390625,1.9335938 h 0.2460938 l -0.28125,-2.25 H 0.82089063 c -0.24609375,0 -0.2578125,0 -0.2578125,0.234375 l 2.47265627,3.609375 -2.36718752,2.69531245 C 0.56307813,-0.1641875 0.56307813,-0.14075 0.56307813,-0.10559375 c 0,0.10546875 0.10546875,0.10546875 0.2578125,0.10546875 H 6.3404219 l 0.28125,-2.3554687 H 6.3755781 C 6.1997969,-0.69153125 5.5201094,-0.422 3.9497969,-0.422 H 1.2076094 Z m 0,0"
       style="fill:#000000;fill-opacity:1;fill-rule:nonzero;stroke:none"
       aria-label="Σ"
       transform="matrix(1.3333333,0,0,1.3333333,569.19867,36.062667)" />
    <path
       id="path57"
       d="m 70.867,0 c 0,3.91391 -3.17277,7.08669 -7.08668,7.08669 -3.91391,0 -7.08669,-3.17278 -7.08669,-7.08669 0,-3.91391 3.17278,-7.08669 7.08669,-7.08669 3.91391,0 7.08668,3.17278 7.08668,7.08669 z"
       style="fill:none;stroke:#000000;stroke-width:0.79701;stroke-linecap:butt;stroke-linejoin:miter;stroke-miterlimit:10;stroke-dasharray:none;stroke-opacity:1"
       transform="matrix(1.3333333,0,0,-1.3333333,536.20133,31.524)" />
    <path
       id="path58"
       d="M 3.8787344,-2.7668125 1.8865469,-4.7472812 c -0.1289063,-0.1289063 -0.140625,-0.140625 -0.2226563,-0.140625 -0.1054687,0 -0.1992187,0.082031 -0.1992187,0.1992187 0,0.070312 0.023437,0.082031 0.1289062,0.1992188 l 1.9921875,1.9921875 -1.9921875,2.0039062 c -0.1054687,0.1171875 -0.1289062,0.12890625 -0.1289062,0.19921875 0,0.1171875 0.09375,0.19921875 0.1992187,0.19921875 0.082031,0 0.09375,-0.01171875 0.2226563,-0.140625 l 1.9804687,-1.9804687 2.0625,2.06249995 c 0.011719,0.0117188 0.082031,0.05859375 0.1523438,0.05859375 0.1171875,0 0.1992187,-0.08203125 0.1992187,-0.19921875 0,-0.0117188 0,-0.0585938 -0.035156,-0.10546875 -0.011719,-0.0234375 -1.59375,-1.5820312 -2.0976563,-2.0976562 l 1.828125,-1.8164063 c 0.046875,-0.058594 0.1992188,-0.1875 0.2460938,-0.2460937 0.011719,-0.023437 0.058594,-0.058594 0.058594,-0.1289063 0,-0.1171875 -0.082031,-0.1992187 -0.1992187,-0.1992187 -0.082031,0 -0.1289063,0.035156 -0.234375,0.140625 z m 0,0"
       style="fill:#000000;fill-opacity:1;fill-rule:nonzero;stroke:none"
       aria-label="×"
       transform="matrix(1.3333333,0,0,1.3333333,616.07467,34.845333)" />
    <path
       id="path59"
       d="m 70.867,-35.4335 c 0,3.91391 -3.17277,7.08668 -7.08668,7.08668 -3.91391,0 -7.08669,-3.17277 -7.08669,-7.08668 0,-3.91393 3.17278,-7.0867 7.08669,-7.0867 3.91391,0 7.08668,3.17277 7.08668,7.0867 z"
       style="fill:none;stroke:#000000;stroke-width:0.79701;stroke-linecap:butt;stroke-linejoin:miter;stroke-miterlimit:10;stroke-dasharray:none;stroke-opacity:1"
       transform="matrix(1.3333333,0,0,-1.3333333,536.20133,31.524)" />
    <path
       id="path60"
       d="m 7.1951406,-3.3268516 c 0,-0.2226562 -0.058594,-0.3164062 -0.140625,-0.3164062 -0.046875,0 -0.1289062,0.070312 -0.140625,0.2578125 -0.035156,0.9609375 -0.703125,1.5 -1.3945312,1.5 -0.6328125,0 -1.1015625,-0.421875 -1.59375,-0.8554688 -0.5039063,-0.4570312 -1.03125,-0.9140625 -1.6992188,-0.9140625 -1.0898437,0 -1.67578122,1.1015625 -1.67578122,2.0039063 0,0.3164062 0.12890625,0.3164062 0.140625,0.3164062 0.10546875,0 0.140625,-0.1992187 0.140625,-0.2226562 0.0351563,-1.1015625 0.78515622,-1.5351563 1.39453122,-1.5351563 0.6210938,0 1.1015625,0.421875 1.59375,0.8554688 0.5039063,0.4570312 1.0195313,0.9140625 1.6992188,0.9140625 1.0898437,0 1.6757812,-1.1015625 1.6757812,-2.0039063 z m 0,0"
       style="fill:#000000;fill-opacity:1;fill-rule:nonzero;stroke:none"
       aria-label="∼"
       transform="matrix(1.3333333,0,0,1.3333333,616.07467,81.205333)" />
    <path
       id="path61"
       d="M 0,0 H 16.19913"
       style="fill:none;stroke:#000000;stroke-width:0.79701;stroke-linecap:butt;stroke-linejoin:miter;stroke-miterlimit:10;stroke-dasharray:none;stroke-opacity:1"
       transform="matrix(1.3333333,0,0,-1.3333333,536.20133,31.524)" />
    <path
       id="path62"
       d="M 4.66248,0 C 3.28098,0.25902 1.0361,1.0361 -0.51805,1.94269 V -1.94269 C 1.0361,-1.0361 3.28098,-0.25902 4.66248,0"
       style="fill:#000000;fill-opacity:1;fill-rule:nonzero;stroke:none"
       transform="matrix(1.3333333,0,0,-1.3333333,557.80017,31.524)" />
    <g
       id="g62"
       aria-label="s(t)"
       transform="matrix(1.3333333,0,0,1.3333333,509.88667,34.845333)">
      <path
         id="path63"
         d="m 3.8908281,-3.72775 c -0.2695312,0.011719 -0.46875,0.234375 -0.46875,0.4453125 0,0.140625 0.082031,0.2929688 0.3046875,0.2929688 0.2226563,0 0.4570313,-0.1640625 0.4570313,-0.5625 0,-0.4453125 -0.4335938,-0.8554688 -1.1835938,-0.8554688 -1.3125,0 -1.6875,1.0195313 -1.6875,1.453125 0,0.7851563 0.7382813,0.9257813 1.03125,0.9960938 0.515625,0.09375 1.03125,0.1992187 1.03125,0.75 0,0.25781245 -0.2226562,1.10156245 -1.4179687,1.10156245 -0.140625,0 -0.9140625,0 -1.13671877,-0.52734375 0.37499997,0.046875 0.62109377,-0.2578125 0.62109377,-0.5273437 0,-0.234375 -0.1523438,-0.3515625 -0.3632813,-0.3515625 -0.25781247,0 -0.56249997,0.2109375 -0.56249997,0.65624995 0,0.5625 0.57421877,0.9609375 1.42968747,0.9609375 1.6054688,0 2.0039063,-1.20703125 2.0039063,-1.65234375 0,-0.3515625 -0.1992188,-0.609375 -0.3164063,-0.7265625 C 3.3634844,-2.555875 3.0822344,-2.60275 2.6369219,-2.6965 c -0.3515625,-0.070312 -0.75,-0.140625 -0.75,-0.5976562 0,-0.28125 0.234375,-0.890625 1.1132812,-0.890625 0.2460938,0 0.75,0.070312 0.890625,0.4570312 z m 0,0"
         style="fill:#000000;fill-opacity:1;fill-rule:nonzero;stroke:none" />
      <path
         id="path64"
         d="m 7.9630938,2.3894375 c 0,-0.035156 0,-0.046875 -0.1640625,-0.2226562 C 6.5568438,0.912875 6.2287188,-0.962125 6.2287188,-2.4972812 c 0,-1.7226563 0.3867187,-3.4570313 1.6054687,-4.7109375 0.1289063,-0.1171875 0.1289063,-0.1289063 0.1289063,-0.1640625 0,-0.070312 -0.035156,-0.1054688 -0.09375,-0.1054688 -0.1054688,0 -0.9960938,0.6796875 -1.5820313,1.9453125 C 5.7716875,-4.430875 5.6545,-3.3293125 5.6545,-2.4972812 c 0,0.7851562 0.1171875,1.99218745 0.65625,3.11718745 0.5976563,1.21875005 1.453125,1.87500005 1.5585938,1.87500005 0.058594,0 0.09375,-0.035156 0.09375,-0.1054688 z m 0,0"
         style="fill:#000000;fill-opacity:1;fill-rule:nonzero;stroke:none" />
      <path
         id="path65"
         d="m 10.596883,-3.9855625 h 0.9375 c 0.199219,0 0.304687,0 0.304687,-0.1992187 0,-0.1054688 -0.105468,-0.1054688 -0.28125,-0.1054688 h -0.878906 c 0.363281,-1.4179687 0.410156,-1.6171875 0.410156,-1.6757812 0,-0.1757813 -0.117187,-0.2695313 -0.292968,-0.2695313 -0.02344,0 -0.304688,0.011719 -0.398438,0.3515625 l -0.386719,1.59375 H 9.0734453 c -0.1992187,0 -0.2929687,0 -0.2929687,0.1875 0,0.1171875 0.070312,0.1171875 0.2695312,0.1171875 h 0.8789063 c -0.7148438,2.8242188 -0.75,3 -0.75,3.17578125 0,0.5390625 0.375,0.9140625 0.9140629,0.9140625 1.007812,0 1.582031,-1.45312495 1.582031,-1.53515625 0,-0.09375 -0.08203,-0.09375 -0.117188,-0.09375 -0.09375,0 -0.105468,0.023437 -0.152343,0.140625 -0.433594,1.03125 -0.960938,1.27734375 -1.300782,1.27734375 -0.1992184,0 -0.3046872,-0.12890625 -0.3046872,-0.45703125 0,-0.24609375 0.023437,-0.31640625 0.058594,-0.4804687 z m 0,0"
         style="fill:#000000;fill-opacity:1;fill-rule:nonzero;stroke:none" />
      <path
         id="path66"
         d="m 15.023641,-2.4972812 c 0,-0.7734375 -0.117188,-1.9804688 -0.65625,-3.1054688 -0.597657,-1.21875 -1.464844,-1.875 -1.558594,-1.875 -0.05859,0 -0.105469,0.046875 -0.105469,0.1054688 0,0.035156 0,0.046875 0.199219,0.234375 0.972656,0.984375 1.535156,2.5664062 1.535156,4.640625 0,1.71093745 -0.363281,3.4570312 -1.59375,4.7226562 -0.140625,0.1171875 -0.140625,0.1289063 -0.140625,0.1640625 0,0.058594 0.04687,0.1054688 0.105469,0.1054688 0.09375,0 0.996094,-0.6796875 1.582031,-1.94531255 0.503906,-1.1015625 0.632813,-2.20312495 0.632813,-3.04687495 z m 0,0"
         style="fill:#000000;fill-opacity:1;fill-rule:nonzero;stroke:none" />
    </g>
    <path
       id="path67"
       d="m 4.0771875,-2.2981016 h 2.7773438 c 0.140625,0 0.328125,0 0.328125,-0.1992187 0,-0.1992188 -0.1875,-0.1992188 -0.328125,-0.1992188 H 4.0771875 v -2.7890625 c 0,-0.1289062 0,-0.328125 -0.1992187,-0.328125 -0.1992188,0 -0.1992188,0.1992188 -0.1992188,0.328125 v 2.7890625 H 0.8896875 c -0.140625,0 -0.328125,0 -0.328125,0.1992188 0,0.1992187 0.1875,0.1992187 0.328125,0.1992187 H 3.67875 v 2.80078129 c 0,0.12890625 0,0.328125 0.1992188,0.328125 0.1992187,0 0.1992187,-0.19921875 0.1992187,-0.328125 z m 0,0"
       style="fill:#000000;fill-opacity:1;fill-rule:nonzero;stroke:none"
       aria-label="+"
       transform="matrix(1.3333333,0,0,1.3333333,551.896,25.458667)" />
    <path
       id="path68"
       d="M 71.26552,0 H 87.46465"
       style="fill:none;stroke:#000000;stroke-width:0.79701;stroke-linecap:butt;stroke-linejoin:miter;stroke-miterlimit:10;stroke-dasharray:none;stroke-opacity:1"
       transform="matrix(1.3333333,0,0,-1.3333333,536.20133,31.524)" />
    <path
       id="path69"
       d="M 4.66248,0 C 3.28098,0.25902 1.0361,1.0361 -0.51805,1.94269 V -1.94269 C 1.0361,-1.0361 3.28098,-0.25902 4.66248,0"
       style="fill:#000000;fill-opacity:1;fill-rule:nonzero;stroke:none"
       transform="matrix(1.3333333,0,0,-1.3333333,652.82087,31.524)" />
    <g
       id="g69"
       aria-label="x&#10;AM&#10;(t)"
       transform="matrix(1.3333333,0,0,1.3333333,663.99467,34.845333)">
      <path
         id="path70"
         d="m 3.3293594,-3.0129062 c 0.058594,-0.2578125 0.2929687,-1.171875 0.984375,-1.171875 0.046875,0 0.2929687,0 0.5039062,0.1289062 -0.28125,0.046875 -0.4804687,0.3046875 -0.4804687,0.5390625 0,0.1640625 0.1054687,0.3515625 0.375,0.3515625 0.2226562,0 0.5390625,-0.1875 0.5390625,-0.5859375 0,-0.515625 -0.5859375,-0.65625 -0.9257813,-0.65625 -0.5742187,0 -0.9257812,0.5273438 -1.0429687,0.7617188 -0.2578125,-0.65625 -0.7851563,-0.7617188 -1.078125,-0.7617188 -1.0429688,0 -1.60546877,1.2890625 -1.60546877,1.5351563 0,0.1054687 0.10546875,0.1054687 0.1171875,0.1054687 0.0820313,0 0.1171875,-0.023437 0.12890625,-0.1171875 0.33984372,-1.0546875 0.99609372,-1.3007812 1.33593752,-1.3007812 0.1875,0 0.5390625,0.09375 0.5390625,0.6679687 0,0.3046875 -0.1640625,0.9726563 -0.5390625,2.3671875 -0.1523438,0.62109375 -0.5039063,1.04296875 -0.9492188,1.04296875 -0.058594,0 -0.28124997,0 -0.49218747,-0.12890625 0.24609375,-0.0585938 0.46874997,-0.26953125 0.46874997,-0.5390625 0,-0.2695312 -0.22265622,-0.3515625 -0.37499997,-0.3515625 -0.29296875,0 -0.5390625,0.2578125 -0.5390625,0.57421875 0,0.45703125 0.4921875,0.65625 0.93749997,0.65625 0.65625,0 1.0078125,-0.69140625 1.0429688,-0.75 0.1171875,0.36328125 0.4804687,0.75 1.078125,0.75 1.0195312,0 1.59375,-1.27734375 1.59375,-1.53515625 0,-0.09375 -0.09375,-0.09375 -0.1289063,-0.09375 -0.082031,0 -0.1054687,0.035156 -0.1289062,0.1054688 -0.328125,1.0664062 -0.9960938,1.31249995 -1.3242188,1.31249995 -0.3867187,0 -0.5390625,-0.328125 -0.5390625,-0.65625 0,-0.22265625 0.058594,-0.44531245 0.1640625,-0.87890625 z m 0,0"
         style="fill:#000000;fill-opacity:1;fill-rule:nonzero;stroke:none" />
      <path
         id="path71"
         d="M 7.1350234,0.66092188 C 6.8889297,1.0359219 6.6662734,1.2117031 6.2561172,1.2468594 c -0.070312,0 -0.1640625,0 -0.1640625,0.140625 0,0.082031 0.058594,0.1054687 0.09375,0.1054687 0.1875,0 0.4101562,-0.023437 0.5976562,-0.023437 0.2226563,0 0.515625,0.023437 0.7265625,0.023437 0.035156,0 0.140625,0 0.140625,-0.1523437 0,-0.09375 -0.09375,-0.09375 -0.1289062,-0.09375 -0.046875,-0.011719 -0.3046875,-0.023437 -0.3046875,-0.2109375 0,-0.0820313 0.070312,-0.21093752 0.1054687,-0.26953127 l 0.5625,-0.8671875 H 9.8772109 L 10.041273,1.0593594 c -0.02344,0.070312 -0.070312,0.1875 -0.4804683,0.1875 -0.082031,0 -0.1757813,0 -0.1757813,0.1523437 0,0.023437 0.023437,0.09375 0.1054688,0.09375 0.2109375,0 0.7031248,-0.023437 0.9023438,-0.023437 0.128906,0 0.28125,0 0.410156,0 0.128906,0.011719 0.269531,0.023437 0.398438,0.023437 0.09375,0 0.140625,-0.058594 0.140625,-0.140625 0,-0.1054687 -0.08203,-0.1054687 -0.199219,-0.1054687 -0.398438,0 -0.410156,-0.058594 -0.433594,-0.2226563 l -0.621094,-4.3125 c -0.01172,-0.140625 -0.03516,-0.1875 -0.1640621,-0.1875 -0.1289062,0 -0.1757812,0.058594 -0.234375,0.1523438 z m 0.9140625,-1.0078125 1.4648438,-2.28515628 0.328125,2.28515628 z M 18.798109,-2.7023594 c 0.07031,-0.2578125 0.08203,-0.3164062 0.597657,-0.3164062 0.152343,0 0.234375,0 0.234375,-0.140625 0,-0.1054688 -0.08203,-0.1054688 -0.210938,-0.1054688 h -0.9375 c -0.210937,0 -0.210937,0 -0.304687,0.140625 L 15.481703,0.84842188 14.790297,-3.0773594 c -0.03516,-0.1875 -0.03516,-0.1875 -0.234375,-0.1875 h -1.007813 c -0.128906,0 -0.222656,0 -0.222656,0.1523438 0,0.09375 0.08203,0.09375 0.234375,0.09375 0.117188,0 0.140625,0 0.269531,0.011719 0.140625,0.011719 0.152344,0.035156 0.152344,0.1054688 0,0 0,0.046875 -0.03516,0.1523437 l -0.878906,3.49218753 c -0.05859,0.24609375 -0.164063,0.48046877 -0.714844,0.50390627 -0.05859,0 -0.152344,0 -0.152344,0.1523437 0,0 0.01172,0.09375 0.105469,0.09375 0.210937,0 0.503906,-0.023437 0.726562,-0.023437 0.164063,0 0.574219,0.023437 0.738282,0.023437 0.03516,0 0.140625,0 0.140625,-0.1523437 0,-0.09375 -0.09375,-0.09375 -0.152344,-0.09375 C 13.31373,1.2234227 13.31373,1.0476409 13.31373,0.95389093 c 0,-0.0351563 0,-0.0703125 0.02344,-0.17578125 l 0.925781,-3.71484378 h 0.01172 l 0.738281,4.2421875 c 0.02344,0.1289063 0.03516,0.1875 0.140625,0.1875 0.105469,0 0.152344,-0.082031 0.210938,-0.1523437 l 2.917968,-4.3476563 0.01172,0.011719 -0.984375,3.94921873 c -0.05859,0.23437497 -0.07031,0.29296877 -0.609375,0.29296877 -0.128906,0 -0.210937,0 -0.210937,0.1523437 0,0 0,0.09375 0.105468,0.09375 0.140625,0 0.292969,-0.023437 0.433594,-0.023437 0.140625,0 0.304688,0 0.445313,0 0.199218,0 0.691406,0.023437 0.878906,0.023437 0.04687,0 0.152344,0 0.152344,-0.1523437 0,-0.09375 -0.08203,-0.09375 -0.222657,-0.09375 -0.01172,0 -0.140625,0 -0.269531,-0.023437 -0.152344,-0.011719 -0.152344,-0.035156 -0.152344,-0.1054688 0,-0.035156 0.01172,-0.1054687 0.02344,-0.15234372 z m 0,0"
         style="fill:#000000;fill-opacity:1;fill-rule:nonzero;stroke:none" />
      <path
         id="path72"
         d="m 23.819594,2.3894375 c 0,-0.035156 0,-0.046875 -0.164063,-0.2226562 -1.242187,-1.2539063 -1.570312,-3.1289063 -1.570312,-4.6640625 0,-1.7226563 0.386719,-3.4570313 1.605469,-4.7109375 0.128906,-0.1171875 0.128906,-0.1289063 0.128906,-0.1640625 0,-0.070312 -0.03516,-0.1054688 -0.09375,-0.1054688 -0.105469,0 -0.996094,0.6796875 -1.582031,1.9453125 -0.515625,1.1015625 -0.632813,2.203125 -0.632813,3.0351563 0,0.7851562 0.117188,1.99218745 0.65625,3.11718745 0.597656,1.21875005 1.453125,1.87500005 1.558594,1.87500005 0.05859,0 0.09375,-0.035156 0.09375,-0.1054688 z m 0,0"
         style="fill:#000000;fill-opacity:1;fill-rule:nonzero;stroke:none" />
      <path
         id="path73"
         d="m 26.453383,-3.9855625 h 0.9375 c 0.199219,0 0.304687,0 0.304687,-0.1992187 0,-0.1054688 -0.105468,-0.1054688 -0.28125,-0.1054688 h -0.878906 c 0.363281,-1.4179687 0.410156,-1.6171875 0.410156,-1.6757812 0,-0.1757813 -0.117187,-0.2695313 -0.292968,-0.2695313 -0.02344,0 -0.304688,0.011719 -0.398438,0.3515625 l -0.386719,1.59375 h -0.9375 c -0.199218,0 -0.292968,0 -0.292968,0.1875 0,0.1171875 0.07031,0.1171875 0.269531,0.1171875 h 0.878906 c -0.714844,2.8242188 -0.75,3 -0.75,3.17578125 0,0.5390625 0.375,0.9140625 0.914063,0.9140625 1.007812,0 1.582031,-1.45312495 1.582031,-1.53515625 0,-0.09375 -0.08203,-0.09375 -0.117188,-0.09375 -0.09375,0 -0.105468,0.023437 -0.152343,0.140625 -0.433594,1.03125 -0.960938,1.27734375 -1.300782,1.27734375 -0.199218,0 -0.304687,-0.12890625 -0.304687,-0.45703125 0,-0.24609375 0.02344,-0.31640625 0.05859,-0.4804687 z m 0,0"
         style="fill:#000000;fill-opacity:1;fill-rule:nonzero;stroke:none" />
      <path
         id="path74"
         d="m 30.88307,-2.4972812 c 0,-0.7734375 -0.117187,-1.9804688 -0.65625,-3.1054688 -0.597656,-1.21875 -1.464843,-1.875 -1.558593,-1.875 -0.05859,0 -0.105469,0.046875 -0.105469,0.1054688 0,0.035156 0,0.046875 0.199219,0.234375 0.972656,0.984375 1.535156,2.5664062 1.535156,4.640625 0,1.71093745 -0.363281,3.4570312 -1.59375,4.7226562 -0.140625,0.1171875 -0.140625,0.1289063 -0.140625,0.1640625 0,0.058594 0.04687,0.1054688 0.105469,0.1054688 0.09375,0 0.996093,-0.6796875 1.582031,-1.94531255 0.503906,-1.1015625 0.632812,-2.20312495 0.632812,-3.04687495 z m 0,0"
         style="fill:#000000;fill-opacity:1;fill-rule:nonzero;stroke:none" />
    </g>
    <g
       id="g74"
       aria-label="cos(2πf&#10;c&#10;t)"
       transform="matrix(1.3333333,0,0,1.3333333,637.61733,82.089333)">
      <path
         id="path75"
         d="m 1.1602109,-2.1675859 c 0,-1.6289063 0.8203125,-2.0507813 1.3476563,-2.0507813 0.09375,0 0.7148437,0.011719 1.0664062,0.375 -0.4101562,0.023437 -0.46875,0.328125 -0.46875,0.4570313 0,0.2578125 0.1875,0.4570312 0.4570313,0.4570312 0.2578125,0 0.4570312,-0.1640625 0.4570312,-0.46875 0,-0.6796875 -0.75,-1.0664062 -1.5234375,-1.0664062 -1.2421875,0 -2.15624996,1.078125 -2.15624996,2.3085937 0,1.27734376 0.98437496,2.26171876 2.14453126,2.26171876 1.3359375,0 1.6523437,-1.19531246 1.6523437,-1.28906246 0,-0.1054688 -0.1054687,-0.1054688 -0.1289062,-0.1054688 -0.09375,0 -0.1171875,0.046875 -0.1289063,0.1054688 -0.2929687,0.92578121 -0.9375,1.04296871 -1.3125,1.04296871 -0.5273437,0 -1.40625,-0.421875 -1.40625,-2.02734371 z m 7.9541016,0.035156 c 0,-1.2773437 -0.9960937,-2.3320312 -2.1914062,-2.3320312 -1.2539063,0 -2.2148438,1.0898437 -2.2148438,2.3320312 0,1.28906251 1.03125,2.23828126 2.203125,2.23828126 1.2070313,0 2.203125,-0.97265625 2.203125,-2.23828126 z m -2.1914062,1.99218751 c -0.4335938,0 -0.8671875,-0.2109375 -1.1367188,-0.66796875 C 5.528375,-1.2418047 5.528375,-1.8511797 5.528375,-2.2144609 c 0,-0.3867188 0,-0.9257813 0.2460938,-1.359375 C 6.044,-4.0308672 6.51275,-4.2418047 6.9111875,-4.2418047 c 0.4335938,0 0.8671875,0.2226563 1.125,0.6445313 C 8.294,-3.1636797 8.294,-2.5894609 8.294,-2.2144609 c 0,0.3632812 0,0.9023437 -0.2226562,1.33593746 -0.2226563,0.4453125 -0.65625,0.73828125 -1.1484375,0.73828105 z M 11.4815,-1.9332109 c 0.222656,0.035156 1.03125,0.1992187 1.03125,0.9140625 0,0.51562496 -0.351562,0.91406246 -1.125,0.91406246 -0.832031,0 -1.195312,-0.57421875 -1.382812,-1.41796876 -0.035157,-0.1289062 -0.035157,-0.1757812 -0.1406255,-0.1757812 -0.1289062,0 -0.1289062,0.070312 -0.1289062,0.2578125 v 1.31249996 c 0,0.1640625 0,0.234375 0.1054687,0.234375 0.058594,0 0.070312,0 0.257813,-0.19921875 0.01172,-0.01171875 0.01172,-0.03515625 0.199218,-0.22265625 0.433594,0.421875 0.878907,0.421875 1.089844,0.421875 1.148438,0 1.605469,-0.66796875 1.605469,-1.38281246 0,-0.5273438 -0.292969,-0.8203125 -0.421875,-0.9492188 -0.328125,-0.3164062 -0.714844,-0.3984375 -1.136719,-0.46875 -0.550781,-0.1171875 -1.21875,-0.2460937 -1.21875,-0.8203125 0,-0.3515625 0.257813,-0.7617187 1.113281,-0.7617187 1.101563,0 1.148438,0.9023437 1.171875,1.2070312 0,0.09375 0.09375,0.09375 0.117188,0.09375 0.128906,0 0.128906,-0.046875 0.128906,-0.2460937 v -0.9960938 c 0,-0.1757812 0,-0.2460937 -0.117187,-0.2460937 -0.04687,0 -0.07031,0 -0.199219,0.1171875 -0.02344,0.046875 -0.128906,0.1289062 -0.164063,0.1640625 -0.375,-0.28125 -0.785156,-0.28125 -0.9375,-0.28125 -1.21875,0 -1.5937497,0.6679687 -1.5937497,1.2304687 0,0.3398438 0.1640625,0.6210938 0.4335937,0.84375 0.316406,0.2578125 0.597656,0.3164063 1.3125,0.4570313 z m 6.814453,4.3242187 c 0,-0.035156 0,-0.046875 -0.164062,-0.2226562 -1.242188,-1.25390629 -1.570313,-3.12890629 -1.570313,-4.6640625 0,-1.7226563 0.386719,-3.4570313 1.605469,-4.7109375 0.128906,-0.1171875 0.128906,-0.1289063 0.128906,-0.1640625 0,-0.070312 -0.03516,-0.1054688 -0.09375,-0.1054688 -0.105469,0 -0.996094,0.6796875 -1.582031,1.9453125 -0.515625,1.1015625 -0.632813,2.203125 -0.632813,3.0351563 0,0.7851562 0.117188,1.99218746 0.65625,3.11718746 0.597657,1.21875004 1.453125,1.87500004 1.558594,1.87500004 0.05859,0 0.09375,-0.035156 0.09375,-0.1054688 z m 1.845703,-3.15234374 1.054688,-1.03124996 c 1.558594,-1.3710938 2.15625,-1.9101563 2.15625,-2.90625 0,-1.1367188 -0.902344,-1.9335938 -2.121094,-1.9335938 -1.125,0 -1.851562,0.9140625 -1.851562,1.8046875 0,0.5507813 0.492187,0.5507813 0.527343,0.5507813 0.164063,0 0.515625,-0.1171875 0.515625,-0.5273438 0,-0.2578125 -0.1875,-0.515625 -0.527343,-0.515625 -0.08203,0 -0.105469,0 -0.128907,0.011719 0.222657,-0.6445313 0.761719,-1.0195313 1.335938,-1.0195313 0.914062,0 1.335937,0.8085938 1.335937,1.6289063 0,0.796875 -0.492187,1.5820312 -1.042968,2.203125 l -1.910157,2.13281246 c -0.105468,0.10546875 -0.105468,0.12890625 -0.105468,0.3632812525 h 3.691406 L 23.352594,-1.7339922 h -0.257813 c -0.04687,0.3046875 -0.117187,0.73828126 -0.210937,0.89062501 -0.07031,0.0820313 -0.726563,0.0820313 -0.949219,0.0820313 z m 0,0"
         style="fill:#000000;fill-opacity:1;fill-rule:nonzero;stroke:none" />
      <path
         id="path76"
         d="m 26.490289,-3.7144609 h 1.125 c -0.328125,1.4765625 -0.410156,1.8984375 -0.410156,2.5664062 0,0.15234376 0,0.42187501 0.07031,0.76171876 0.105469,0.43359375 0.210938,0.4921875 0.363282,0.4921875 0.199218,0 0.410156,-0.17578125 0.410156,-0.375 0,-0.0585938 0,-0.0820313 -0.05859,-0.22265625 C 27.69732,-1.2066484 27.69732,-1.8511797 27.69732,-2.1324297 c 0,-0.5273437 0.07031,-1.0664062 0.175782,-1.5820312 h 1.136718 c 0.128907,0 0.492188,0 0.492188,-0.3398438 0,-0.234375 -0.210938,-0.234375 -0.398438,-0.234375 h -3.339843 c -0.210938,0 -0.597657,0 -1.03125,0.46875 -0.351563,0.3867188 -0.609375,0.84375 -0.609375,0.890625 0,0.011719 0,0.1054688 0.117187,0.1054688 0.08203,0 0.105469,-0.046875 0.164063,-0.1289063 0.480468,-0.7617187 1.066406,-0.7617187 1.265625,-0.7617187 h 0.5625 c -0.316407,1.2070312 -0.855469,2.4140625 -1.277344,3.31640621 -0.07031,0.15234375 -0.07031,0.1640625 -0.07031,0.234375 0,0.19921875 0.152344,0.26953125 0.28125,0.26953125 0.304688,0 0.386719,-0.26953125 0.503907,-0.64453125 0.140625,-0.45703125 0.140625,-0.48046871 0.269531,-0.97265621 z m 7.057617,-0.2695313 h 0.855469 c 0.199219,0 0.304688,0 0.304688,-0.1992187 0,-0.1054688 -0.105469,-0.1054688 -0.269532,-0.1054688 H 33.6065 l 0.210938,-1.1367187 c 0.03516,-0.2109375 0.175781,-0.9140625 0.234375,-1.0429688 0.09375,-0.1875 0.257812,-0.3398437 0.46875,-0.3398437 0.04687,0 0.304687,0 0.492187,0.1875 -0.433594,0.035156 -0.539062,0.3867187 -0.539062,0.5390625 0,0.2226562 0.175781,0.3398437 0.363281,0.3398437 0.269531,0 0.550781,-0.2109375 0.550781,-0.5976562 0,-0.4570313 -0.457031,-0.6796875 -0.867187,-0.6796875 -0.339844,0 -0.960938,0.1757812 -1.265625,1.1601562 -0.05859,0.2109375 -0.08203,0.3164063 -0.328125,1.5703125 h -0.679688 c -0.199219,0 -0.304687,0 -0.304687,0.1875 0,0.1171875 0.09375,0.1171875 0.28125,0.1171875 h 0.65625 l -0.75,3.93750001 c -0.175782,0.9609375 -0.339844,1.87499999 -0.867188,1.87499999 -0.03516,0 -0.28125,0 -0.46875,-0.1875 0.457031,-0.023437 0.539063,-0.3867187 0.539063,-0.5390625 0,-0.22265624 -0.175782,-0.33984374 -0.363282,-0.33984374 -0.257812,0 -0.550781,0.2109375 -0.550781,0.59765624 0,0.4453125 0.433594,0.6796875 0.84375,0.6796875 0.550781,0 0.949219,-0.5859375 1.125,-0.9609375 0.328125,-0.63281249 0.550781,-1.83984374 0.5625,-1.91015624 z m 0,0"
         style="fill:#000000;fill-opacity:1;fill-rule:nonzero;stroke:none" />
      <path
         id="path77"
         d="m 37.82818,-1.1773516 c -0.257813,0.046875 -0.363282,0.23437504 -0.363282,0.38671879 0,0.1875 0.152344,0.2578125 0.269532,0.2578125 0.164062,0 0.398437,-0.10546875 0.398437,-0.4453125 0,-0.46874999 -0.539062,-0.59765629 -0.914062,-0.59765629 -1.042969,0 -2.015625,0.96093754 -2.015625,1.92187504 0,0.609375 0.421875,1.21874996 1.289062,1.21874996 1.183594,0 1.734375,-0.69140621 1.734375,-0.78515621 0,-0.046875 -0.07031,-0.1171875 -0.128906,-0.1171875 -0.03516,0 -0.04687,0.0117188 -0.105469,0.0703125 -0.550781,0.63281251 -1.359375,0.63281251 -1.488281,0.63281251 -0.503906,0 -0.726563,-0.3398438 -0.726563,-0.77343751 0,-0.19921875 0.105469,-0.9609375 0.46875,-1.44140625 0.257813,-0.33984374 0.621094,-0.53906254 0.972657,-0.53906254 0.09375,0 0.433593,0.011719 0.609375,0.2109375 z m 0,0"
         style="fill:#000000;fill-opacity:1;fill-rule:nonzero;stroke:none" />
      <path
         id="path78"
         d="m 40.877984,-3.9839922 h 0.9375 c 0.199219,0 0.304688,0 0.304688,-0.1992187 0,-0.1054688 -0.105469,-0.1054688 -0.28125,-0.1054688 h -0.878906 c 0.363281,-1.4179687 0.410156,-1.6171875 0.410156,-1.6757812 0,-0.1757813 -0.117188,-0.2695313 -0.292969,-0.2695313 -0.02344,0 -0.304687,0.011719 -0.398437,0.3515625 l -0.386719,1.59375 h -0.9375 c -0.199219,0 -0.292969,0 -0.292969,0.1875 0,0.1171875 0.07031,0.1171875 0.269531,0.1171875 h 0.878907 c -0.714844,2.8242188 -0.75,3.00000001 -0.75,3.17578126 0,0.5390625 0.375,0.9140625 0.914062,0.9140625 1.007813,0 1.582031,-1.45312496 1.582031,-1.53515626 0,-0.09375 -0.08203,-0.09375 -0.117187,-0.09375 -0.09375,0 -0.105469,0.023437 -0.152344,0.140625 -0.433594,1.03125001 -0.960937,1.27734376 -1.300781,1.27734376 -0.199219,0 -0.304688,-0.12890625 -0.304688,-0.45703125 0,-0.24609375 0.02344,-0.31640625 0.05859,-0.48046871 z m 0,0"
         style="fill:#000000;fill-opacity:1;fill-rule:nonzero;stroke:none" />
      <path
         id="path79"
         d="m 45.307672,-2.4957109 c 0,-0.7734375 -0.117188,-1.9804688 -0.65625,-3.1054688 -0.597656,-1.21875 -1.464844,-1.875 -1.558594,-1.875 -0.05859,0 -0.105469,0.046875 -0.105469,0.1054688 0,0.035156 0,0.046875 0.199219,0.234375 0.972656,0.984375 1.535156,2.5664062 1.535156,4.640625 0,1.71093746 -0.363281,3.45703121 -1.59375,4.7226562 -0.140625,0.1171875 -0.140625,0.1289063 -0.140625,0.1640625 0,0.058594 0.04687,0.1054688 0.105469,0.1054688 0.09375,0 0.996094,-0.6796875 1.582031,-1.94531254 0.503907,-1.1015625 0.632813,-2.20312496 0.632813,-3.04687496 z m 0,0"
         style="fill:#000000;fill-opacity:1;fill-rule:nonzero;stroke:none" />
    </g>
    <path
       id="path80"
       d="m 28.3468,-28.3468 v 16.19914"
       style="fill:none;stroke:#000000;stroke-width:0.79701;stroke-linecap:butt;stroke-linejoin:miter;stroke-miterlimit:10;stroke-dasharray:none;stroke-opacity:1"
       transform="matrix(1.3333333,0,0,-1.3333333,536.20133,31.524)" />
    <path
       id="path81"
       d="M 4.66248,0 C 3.28098,0.25902 1.0361,1.0361 -0.51805,1.94269 V -1.94269 C 1.0361,-1.0361 3.28098,-0.25902 4.66248,0"
       style="fill:#000000;fill-opacity:1;fill-rule:nonzero;stroke:none"
       transform="matrix(0,-1.3333333,-1.3333333,0,573.99707,47.72088)" />
    <g
       id="g81"
       aria-label="A&#10;c"
       transform="matrix(1.3333333,0,0,1.3333333,566.30933,83.356)">
      <path
         id="path82"
         d="m 1.7808594,-1.1488359 c -0.3984375,0.66796871 -0.78515627,0.80859371 -1.21875002,0.84374996 -0.12890625,0 -0.2109375,0 -0.2109375,0.19921875 0,0.05859375 0.046875,0.1054687525 0.12890625,0.1054687525 0.26953125,0 0.57421877,-0.0351562525 0.85546877,-0.0351562525 0.328125,0 0.6796875,0.0351562525 0.9960937,0.0351562525 0.058594,0 0.1875,0 0.1875,-0.1875000025 0,-0.1171875 -0.09375,-0.1171875 -0.1640625,-0.1171875 -0.2226562,-0.0234375 -0.4570312,-0.10546875 -0.4570312,-0.3515625 0,-0.1171875 0.058594,-0.234375 0.1289062,-0.37499996 l 0.7617188,-1.265625 h 2.4960937 c 0.023437,0.1992187 0.1640625,1.55859371 0.1640625,1.66406246 0,0.29296875 -0.515625,0.328125 -0.7148437,0.328125 -0.140625,0 -0.2460938,0 -0.2460938,0.19921875 0,0.1054687525 0.1289063,0.1054687525 0.140625,0.1054687525 0.4101563,0 0.84375,-0.0351562525 1.2539063,-0.0351562525 0.2460937,0 0.8671875,0.0351562525 1.125,0.0351562525 0.058594,0 0.1757812,0 0.1757812,-0.1992187525 0,-0.10546875 -0.1054687,-0.10546875 -0.234375,-0.10546875 -0.609375,0 -0.609375,-0.0703125 -0.6445312,-0.36328125 L 5.6949219,-6.8910234 c -0.011719,-0.1992188 -0.011719,-0.2460938 -0.1875,-0.2460938 -0.1640625,0 -0.1992188,0.070312 -0.2578125,0.1757813 z m 1.1953125,-1.4648438 1.96875,-3.28125 0.3164062,3.28125 z m 0,0"
         style="fill:#000000;fill-opacity:1;fill-rule:nonzero;stroke:none" />
      <path
         id="path83"
         d="m 10.531836,-1.1781328 c -0.257813,0.046875 -0.363281,0.23437499 -0.363281,0.38671874 0,0.1875 0.152343,0.2578125 0.269531,0.2578125 0.164062,0 0.398437,-0.10546875 0.398437,-0.4453125 0,-0.46875004 -0.539062,-0.59765624 -0.9140621,-0.59765624 -1.0429687,0 -2.015625,0.96093749 -2.015625,1.92187499 0,0.609375 0.421875,1.21875001 1.2890625,1.21875001 1.1835936,0 1.7343746,-0.69140626 1.7343746,-0.78515626 0,-0.046875 -0.07031,-0.1171875 -0.128906,-0.1171875 -0.03516,0 -0.04687,0.0117188 -0.105469,0.0703125 C 10.145117,1.3648359 9.3365234,1.3648359 9.2076172,1.3648359 c -0.5039063,0 -0.7265625,-0.3398437 -0.7265625,-0.77343746 0,-0.19921875 0.1054687,-0.9609375 0.46875,-1.44140625 0.2578125,-0.33984379 0.6210937,-0.53906249 0.9726562,-0.53906249 0.09375,0 0.4335941,0.011719 0.6093751,0.2109375 z m 0,0"
         style="fill:#000000;fill-opacity:1;fill-rule:nonzero;stroke:none" />
    </g>
    <path
       id="path84"
       d="m 4.0795625,-2.2978672 h 2.7773438 c 0.140625,0 0.328125,0 0.328125,-0.1992187 0,-0.1992188 -0.1875,-0.1992188 -0.328125,-0.1992188 H 4.0795625 v -2.7890625 c 0,-0.1289062 0,-0.328125 -0.1992187,-0.328125 -0.1992188,0 -0.1992188,0.1992188 -0.1992188,0.328125 v 2.7890625 H 0.8920625 c -0.140625,0 -0.328125,0 -0.328125,0.1992188 0,0.1992187 0.1875,0.1992187 0.328125,0.1992187 H 3.681125 v 2.80078126 c 0,0.12890625 0,0.328125 0.1992188,0.328125 0.1992187,0 0.1992187,-0.19921875 0.1992187,-0.328125 z m 0,0"
       style="fill:#000000;fill-opacity:1;fill-rule:nonzero;stroke:none"
       aria-label="+"
       transform="matrix(1.3333333,0,0,1.3333333,558.70533,51.778667)" />
    <path
       id="path85"
       d="m 63.78032,-27.94832 v 15.80066"
       style="fill:none;stroke:#000000;stroke-width:0.79701;stroke-linecap:butt;stroke-linejoin:miter;stroke-miterlimit:10;stroke-dasharray:none;stroke-opacity:1"
       transform="matrix(1.3333333,0,0,-1.3333333,536.20133,31.524)" />
    <path
       id="path86"
       d="M 4.66248,0 C 3.28098,0.25902 1.0361,1.0361 -0.51805,1.94269 V -1.94269 C 1.0361,-1.0361 3.28098,-0.25902 4.66248,0"
       style="fill:#000000;fill-opacity:1;fill-rule:nonzero;stroke:none"
       transform="matrix(0,-1.3333333,-1.3333333,0,621.24176,47.72088)" />
    <path
       id="path87"
       d="m 28.3468,-28.3468 v 16.19914"
       style="fill:none;stroke:#000000;stroke-width:0.79701;stroke-linecap:butt;stroke-linejoin:miter;stroke-miterlimit:10;stroke-dasharray:none;stroke-opacity:1"
       transform="matrix(1.3333333,0,0,-1.3333333,536.20133,31.524)" />
    <path
       id="path88"
       d="M 4.66248,0 C 3.28098,0.25902 1.0361,1.0361 -0.51805,1.94269 V -1.94269 C 1.0361,-1.0361 3.28098,-0.25902 4.66248,0"
       style="fill:#000000;fill-opacity:1;fill-rule:nonzero;stroke:none"
       transform="matrix(0,-1.3333333,-1.3333333,0,573.99707,47.72088)" />
    <path
       id="path89"
       d="M 35.832,0 H 51.63264"
       style="fill:none;stroke:#000000;stroke-width:0.79701;stroke-linecap:butt;stroke-linejoin:miter;stroke-miterlimit:10;stroke-dasharray:none;stroke-opacity:1"
       transform="matrix(1.3333333,0,0,-1.3333333,536.20133,31.524)" />
    <path
       id="path90"
       d="M 4.66248,0 C 3.28098,0.25902 1.0361,1.0361 -0.51805,1.94269 V -1.94269 C 1.0361,-1.0361 3.28098,-0.25902 4.66248,0"
       style="fill:#000000;fill-opacity:1;fill-rule:nonzero;stroke:none"
       transform="matrix(1.3333333,0,0,-1.3333333,605.04485,31.524)" />
  </g>
</svg>
