<?xml version="1.0" encoding="UTF-8" standalone="no"?>
<!-- Created with Inkscape (http://www.inkscape.org/) -->

<svg
   version="1.1"
   id="svg1"
   width="158.45312"
   height="67.2052"
   viewBox="0 0 158.45312 67.2052"
   xmlns="http://www.w3.org/2000/svg"
   xmlns:svg="http://www.w3.org/2000/svg">
  <defs
     id="defs1" />
  <g
     id="g1"
     transform="translate(-18.398438,-14.37174)">
    <path
       id="path1"
       d="m 35.43349,0 c 0,3.91391 -3.17278,7.08669 -7.08669,7.08669 -3.91391,0 -7.08668,-3.17278 -7.08668,-7.08669 0,-3.91391 3.17277,-7.08669 7.08668,-7.08669 3.91391,0 7.08669,3.17278 7.08669,7.08669 z"
       style="fill:none;stroke:#000000;stroke-width:0.79701;stroke-linecap:butt;stroke-linejoin:miter;stroke-miterlimit:10;stroke-dasharray:none;stroke-opacity:1"
       transform="matrix(1.3333333,0,0,-1.3333333,44.025333,24.352)" />
    <path
       id="path2"
       d="M 3.8800938,-2.7667187 1.8879063,-4.7471875 C 1.759,-4.8760937 1.7472813,-4.8878125 1.66525,-4.8878125 c -0.1054687,0 -0.1992187,0.082031 -0.1992187,0.1992188 0,0.070312 0.023437,0.082031 0.1289062,0.1992187 l 1.9921875,1.9921875 -1.9921875,2.00390625 c -0.1054687,0.1171875 -0.1289062,0.12890625 -0.1289062,0.19921875 0,0.1171875 0.09375,0.19921875 0.1992187,0.19921875 0.082031,0 0.09375,-0.01171875 0.2226563,-0.140625 l 1.9804687,-1.98046875 2.0625,2.0625 c 0.011719,0.0117188 0.082031,0.05859375 0.1523438,0.05859375 0.1171875,0 0.1992187,-0.08203125 0.1992187,-0.19921875 0,-0.0117188 0,-0.0585938 -0.035156,-0.10546875 C 6.2355625,-0.42296875 4.6535313,-1.9815625 4.149625,-2.4971875 L 5.97775,-4.3135937 c 0.046875,-0.058594 0.1992188,-0.1875 0.2460938,-0.2460938 0.011719,-0.023437 0.058594,-0.058594 0.058594,-0.1289062 0,-0.1171875 -0.082031,-0.1992188 -0.1992187,-0.1992188 -0.082031,0 -0.1289063,0.035156 -0.234375,0.140625 z m 0,0"
       style="fill:#000000;fill-opacity:1;fill-rule:nonzero;stroke:none"
       aria-label="×"
       transform="matrix(1.3333333,0,0,1.3333333,76.654667,27.673333)" />
    <path
       id="path3"
       d="m 35.43349,-35.4335 c 0,3.91391 -3.17278,7.08668 -7.08669,7.08668 -3.91391,0 -7.08668,-3.17277 -7.08668,-7.08668 0,-3.91393 3.17277,-7.0867 7.08668,-7.0867 3.91391,0 7.08669,3.17277 7.08669,7.0867 z"
       style="fill:none;stroke:#000000;stroke-width:0.79701;stroke-linecap:butt;stroke-linejoin:miter;stroke-miterlimit:10;stroke-dasharray:none;stroke-opacity:1"
       transform="matrix(1.3333333,0,0,-1.3333333,44.025333,24.352)" />
    <path
       id="path4"
       d="m 7.1965,-3.3267578 c 0,-0.2226563 -0.058594,-0.3164063 -0.140625,-0.3164063 -0.046875,0 -0.1289062,0.070312 -0.140625,0.2578125 -0.035156,0.9609375 -0.703125,1.5 -1.3945312,1.5 -0.6328125,0 -1.1015625,-0.421875 -1.59375,-0.8554687 -0.5039063,-0.4570313 -1.03125,-0.9140625 -1.6992188,-0.9140625 -1.0898437,0 -1.67578125,1.1015625 -1.67578125,2.0039062 0,0.3164063 0.12890625,0.3164063 0.140625,0.3164063 0.10546875,0 0.140625,-0.1992188 0.140625,-0.2226563 C 0.868375,-2.6587891 1.618375,-3.0923828 2.22775,-3.0923828 c 0.6210938,0 1.1015625,0.421875 1.59375,0.8554687 0.5039063,0.4570313 1.0195313,0.9140625 1.6992188,0.9140625 1.0898437,0 1.6757812,-1.1015625 1.6757812,-2.0039062 z m 0,0"
       style="fill:#000000;fill-opacity:1;fill-rule:nonzero;stroke:none"
       aria-label="∼"
       transform="matrix(1.3333333,0,0,1.3333333,76.654667,74.033333)" />
    <path
       id="path5"
       d="M 0,0 H 16.19913"
       style="fill:none;stroke:#000000;stroke-width:0.79701;stroke-linecap:butt;stroke-linejoin:miter;stroke-miterlimit:10;stroke-dasharray:none;stroke-opacity:1"
       transform="matrix(1.3333333,0,0,-1.3333333,44.025333,24.352)" />
    <path
       id="path6"
       d="M 4.66248,0 C 3.28098,0.25902 1.0361,1.0361 -0.51805,1.94269 V -1.94269 C 1.0361,-1.0361 3.28098,-0.25902 4.66248,0"
       style="fill:#000000;fill-opacity:1;fill-rule:nonzero;stroke:none"
       transform="matrix(1.3333333,0,0,-1.3333333,65.624173,24.352)" />
    <g
       id="g6"
       aria-label="s(t)"
       transform="matrix(1.3333333,0,0,1.3333333,17.710667,27.673333)">
      <path
         id="path7"
         d="m 3.8908281,-3.7276562 c -0.2695312,0.011719 -0.46875,0.234375 -0.46875,0.4453125 0,0.140625 0.082031,0.2929687 0.3046875,0.2929687 0.2226563,0 0.4570313,-0.1640625 0.4570313,-0.5625 0,-0.4453125 -0.4335938,-0.8554687 -1.1835938,-0.8554687 -1.3125,0 -1.6875,1.0195312 -1.6875,1.453125 0,0.7851562 0.7382813,0.9257812 1.03125,0.9960937 0.515625,0.09375 1.03125,0.1992188 1.03125,0.75 0,0.2578125 -0.2226562,1.1015625 -1.4179687,1.1015625 -0.140625,0 -0.9140625,0 -1.13671877,-0.52734375 0.37499997,0.046875 0.62109377,-0.2578125 0.62109377,-0.52734375 0,-0.234375 -0.1523438,-0.3515625 -0.3632813,-0.3515625 -0.25781247,0 -0.56249997,0.2109375 -0.56249997,0.65625 0,0.5625 0.57421877,0.9609375 1.42968747,0.9609375 1.6054688,0 2.0039063,-1.2070312 2.0039063,-1.6523437 0,-0.3515625 -0.1992188,-0.609375 -0.3164063,-0.7265625 -0.2695312,-0.28125 -0.5507812,-0.328125 -0.9960937,-0.421875 -0.3515625,-0.070312 -0.75,-0.140625 -0.75,-0.5976563 0,-0.28125 0.234375,-0.890625 1.1132812,-0.890625 0.2460938,0 0.75,0.070312 0.890625,0.4570313 z m 0,0"
         style="fill:#000000;fill-opacity:1;fill-rule:nonzero;stroke:none" />
      <path
         id="path8"
         d="m 7.9630938,2.3895313 c 0,-0.035156 0,-0.046875 -0.1640625,-0.2226563 -1.2421875,-1.25390625 -1.5703125,-3.12890625 -1.5703125,-4.6640625 0,-1.7226562 0.3867187,-3.4570312 1.6054687,-4.7109375 0.1289063,-0.1171875 0.1289063,-0.1289062 0.1289063,-0.1640625 0,-0.070312 -0.035156,-0.1054687 -0.09375,-0.1054687 -0.1054688,0 -0.9960938,0.6796875 -1.5820313,1.9453125 C 5.7716875,-4.4307812 5.6545,-3.3292187 5.6545,-2.4971875 5.6545,-1.7120312 5.7716875,-0.505 6.31075,0.62 c 0.5976563,1.21875 1.453125,1.875 1.5585938,1.875 0.058594,0 0.09375,-0.035156 0.09375,-0.1054687 z m 0,0"
         style="fill:#000000;fill-opacity:1;fill-rule:nonzero;stroke:none" />
      <path
         id="path9"
         d="m 10.596883,-3.9854687 h 0.9375 c 0.199219,0 0.304687,0 0.304687,-0.1992188 0,-0.1054687 -0.105468,-0.1054687 -0.28125,-0.1054687 h -0.878906 c 0.363281,-1.4179688 0.410156,-1.6171875 0.410156,-1.6757813 0,-0.1757812 -0.117187,-0.2695312 -0.292968,-0.2695312 -0.02344,0 -0.304688,0.011719 -0.398438,0.3515625 l -0.386719,1.59375 H 9.0734453 c -0.1992187,0 -0.2929687,0 -0.2929687,0.1875 0,0.1171875 0.070312,0.1171875 0.2695312,0.1171875 h 0.8789063 c -0.7148438,2.8242187 -0.75,2.99999995 -0.75,3.1757812 0,0.5390625 0.375,0.9140625 0.9140629,0.9140625 1.007812,0 1.582031,-1.453125 1.582031,-1.5351562 0,-0.09375 -0.08203,-0.09375 -0.117188,-0.09375 -0.09375,0 -0.105468,0.023437 -0.152343,0.140625 -0.433594,1.03124995 -0.960938,1.2773437 -1.300782,1.2773437 -0.1992184,0 -0.3046872,-0.12890625 -0.3046872,-0.45703125 0,-0.24609375 0.023437,-0.31640625 0.058594,-0.48046875 z m 0,0"
         style="fill:#000000;fill-opacity:1;fill-rule:nonzero;stroke:none" />
      <path
         id="path10"
         d="m 15.023641,-2.4971875 c 0,-0.7734375 -0.117188,-1.9804687 -0.65625,-3.1054687 -0.597657,-1.21875 -1.464844,-1.875 -1.558594,-1.875 -0.05859,0 -0.105469,0.046875 -0.105469,0.1054687 0,0.035156 0,0.046875 0.199219,0.234375 0.972656,0.984375 1.535156,2.5664063 1.535156,4.640625 0,1.7109375 -0.363281,3.45703125 -1.59375,4.7226563 -0.140625,0.1171875 -0.140625,0.1289062 -0.140625,0.1640625 0,0.058594 0.04687,0.1054687 0.105469,0.1054687 0.09375,0 0.996094,-0.6796875 1.582031,-1.9453125 0.503906,-1.1015625 0.632813,-2.203125 0.632813,-3.046875 z m 0,0"
         style="fill:#000000;fill-opacity:1;fill-rule:nonzero;stroke:none" />
    </g>
    <path
       id="path11"
       d="M 35.832,0 H 52.03113"
       style="fill:none;stroke:#000000;stroke-width:0.79701;stroke-linecap:butt;stroke-linejoin:miter;stroke-miterlimit:10;stroke-dasharray:none;stroke-opacity:1"
       transform="matrix(1.3333333,0,0,-1.3333333,44.025333,24.352)" />
    <path
       id="path12"
       d="M 4.66248,0 C 3.28098,0.25902 1.0361,1.0361 -0.51805,1.94269 V -1.94269 C 1.0361,-1.0361 3.28098,-0.25902 4.66248,0"
       style="fill:#000000;fill-opacity:1;fill-rule:nonzero;stroke:none"
       transform="matrix(1.3333333,0,0,-1.3333333,113.40017,24.352)" />
    <g
       id="g12"
       aria-label="x&#10;DSB&#10;(t)"
       transform="matrix(1.3333333,0,0,1.3333333,124.57333,27.673333)">
      <path
         id="path13"
         d="m 3.3287891,-3.0128125 c 0.058594,-0.2578125 0.2929687,-1.171875 0.984375,-1.171875 0.046875,0 0.2929687,0 0.5039062,0.1289063 -0.28125,0.046875 -0.4804687,0.3046875 -0.4804687,0.5390625 0,0.1640625 0.1054687,0.3515625 0.375,0.3515625 0.2226562,0 0.5390625,-0.1875 0.5390625,-0.5859375 0,-0.515625 -0.5859375,-0.65625 -0.9257813,-0.65625 -0.5742187,0 -0.9257812,0.5273437 -1.0429687,0.7617187 -0.2578125,-0.65625 -0.7851563,-0.7617187 -1.078125,-0.7617187 -1.0429688,0 -1.60546879,1.2890625 -1.60546879,1.5351562 0,0.1054688 0.10546875,0.1054688 0.1171875,0.1054688 0.0820313,0 0.1171875,-0.023437 0.12890625,-0.1171875 0.33984374,-1.0546875 0.99609374,-1.3007813 1.33593754,-1.3007813 0.1875,0 0.5390625,0.09375 0.5390625,0.6679688 0,0.3046875 -0.1640625,0.9726562 -0.5390625,2.3671875 -0.1523438,0.6210937 -0.5039063,1.0429687 -0.9492188,1.0429687 -0.058594,0 -0.28124999,0 -0.49218749,-0.12890625 C 0.98503906,-0.2940625 1.2076953,-0.505 1.2076953,-0.77453125 c 0,-0.26953125 -0.22265624,-0.35156245 -0.37499999,-0.35156245 -0.29296875,0 -0.5390625,0.25781245 -0.5390625,0.5742187 0,0.45703125 0.4921875,0.65625 0.93749999,0.65625 0.65625,0 1.0078125,-0.69140625 1.0429688,-0.75 0.1171875,0.36328125 0.4804687,0.75 1.078125,0.75 1.0195312,0 1.59375,-1.2773437 1.59375,-1.5351562 0,-0.09375 -0.09375,-0.09375 -0.1289063,-0.09375 -0.082031,0 -0.1054687,0.035156 -0.1289062,0.1054687 -0.328125,1.06640625 -0.9960938,1.3125 -1.3242188,1.3125 -0.3867187,0 -0.5390625,-0.328125 -0.5390625,-0.65625 0,-0.22265625 0.058594,-0.4453125 0.1640625,-0.8789062 z m 0,0"
         style="fill:#000000;fill-opacity:1;fill-rule:nonzero;stroke:none" />
      <path
         id="path14"
         d="M 7.0055469,0.95398438 C 6.9586719,1.1883594 6.9469531,1.2469531 6.3961719,1.2469531 c -0.1289063,0 -0.2109375,0 -0.2109375,0.1523438 0,0.09375 0.082031,0.09375 0.2109375,0.09375 h 2.4960937 c 1.5468754,0 3.0234374,-1.41796877 3.0234374,-2.9414063 0,-1.0195312 -0.703125,-1.8164062 -1.839844,-1.8164062 H 7.5446094 c -0.140625,0 -0.2226563,0 -0.2226563,0.1523437 0,0.09375 0.070312,0.09375 0.2226563,0.09375 0.1171875,0 0.140625,0 0.2695312,0.011719 0.140625,0.011719 0.1523438,0.035156 0.1523438,0.1054687 0,0.011719 0,0.046875 -0.023437,0.1523438 z M 8.5758594,-2.7842969 c 0.046875,-0.2109375 0.058594,-0.234375 0.3515625,-0.234375 h 0.890625 c 0.7851561,0 1.4414061,0.3867188 1.4414061,1.3359375 0,0.1640625 -0.07031,1.37109378 -0.773437,2.16796878 C 10.216484,0.78992188 9.6188281,1.2469531 8.7633594,1.2469531 H 7.8141406 c -0.2226562,0 -0.2226562,-0.011719 -0.2226562,-0.070312 0,-0.011719 0,-0.046875 0.023437,-0.1523437 z m 8.7949216,-0.5390625 c 0,-0.035156 -0.01172,-0.082031 -0.08203,-0.082031 -0.04687,0 -0.04687,0 -0.140625,0.09375 l -0.339844,0.3984375 c -0.269531,-0.375 -0.703125,-0.4921875 -1.136718,-0.4921875 -0.984375,0 -1.851563,0.796875 -1.851563,1.59375 0,0.1054687 0.02344,0.3867187 0.234375,0.6445312 0.234375,0.28125003 0.492188,0.33984378 0.960938,0.44531253 0.140625,0.0351563 0.492187,0.1171875 0.597656,0.140625 0.222656,0.0585938 0.644531,0.2109375 0.644531,0.73828125 0,0.5625 -0.585937,1.21875002 -1.382812,1.21875002 -0.621094,0 -1.359375,-0.2109375 -1.359375,-0.98437502 0,-0.0703125 0.02344,-0.22265625 0.04687,-0.3515625 0.01172,-0.0234375 0.01172,-0.03515625 0.01172,-0.03515625 0,-0.09375 -0.09375,-0.09375 -0.117187,-0.09375 -0.09375,0 -0.105469,0.01171875 -0.128906,0.140625 l -0.36328,1.39453107 c 0,0.023437 -0.01172,0.070312 -0.01172,0.1054687 0,0.035156 0.02344,0.082031 0.09375,0.082031 0.04687,0 0.04687,-0.011719 0.140625,-0.09375 0.07031,-0.09375 0.257812,-0.3164063 0.328125,-0.3984375 0.375,0.4101562 0.914062,0.4921875 1.335937,0.4921875 1.054688,0 1.898438,-0.90234377 1.898438,-1.73437502 0,-0.3046875 -0.117188,-0.5859375 -0.269532,-0.73828125 -0.246093,-0.25781253 -0.351562,-0.28125003 -1.253906,-0.49218753 -0.140625,-0.035156 -0.375,-0.09375 -0.433594,-0.1054687 -0.175781,-0.070312 -0.46875,-0.2460938 -0.46875,-0.6445313 0,-0.5507812 0.621094,-1.1015625 1.347657,-1.1015625 0.75,0 1.113281,0.421875 1.113281,1.0898438 0,0.082031 -0.03516,0.2460937 -0.03516,0.3046875 0,0.1054687 0.09375,0.1054687 0.128906,0.1054687 0.105469,0 0.105469,-0.035156 0.140625,-0.1523437 z m 1.646485,4.27734378 c -0.05859,0.23437502 -0.07031,0.29296872 -0.609375,0.29296872 -0.117188,0 -0.210938,0 -0.210938,0.140625 0,0.1054688 0.08203,0.1054688 0.210938,0.1054688 h 2.695312 c 1.171875,0 2.074219,-0.79687502 2.074219,-1.48828127 0,-0.50390625 -0.457031,-0.92578125 -1.195313,-0.99609375 0.84375,-0.16406248 1.546875,-0.69140628 1.546875,-1.28906248 0,-0.5273438 -0.539062,-0.984375 -1.441406,-0.984375 h -2.542969 c -0.128906,0 -0.222656,0 -0.222656,0.1523437 0,0.09375 0.08203,0.09375 0.222656,0.09375 0.01172,0 0.140625,0 0.269532,0.011719 0.140625,0.011719 0.164062,0.035156 0.164062,0.1054687 0,0.011719 0,0.046875 -0.03516,0.1523438 z m 1.113281,-2.03906248 0.433594,-1.6992188 c 0.04687,-0.2109375 0.05859,-0.234375 0.351562,-0.234375 h 1.054688 c 0.714843,0 0.878906,0.46875 0.878906,0.7382813 0,0.5625 -0.632813,1.1953125 -1.570313,1.1953125 z m -0.328125,2.3320312 c -0.222656,0 -0.222656,-0.011719 -0.222656,-0.070312 0,-0.011719 0,-0.046875 0.02344,-0.1523437 l 0.480469,-1.91015627 h 1.476562 c 0.65625,0 0.914063,0.43359375 0.914063,0.84375 0,0.6796875 -0.714844,1.28906247 -1.558594,1.28906247 z m 0,0"
         style="fill:#000000;fill-opacity:1;fill-rule:nonzero;stroke:none" />
      <path
         id="path15"
         d="m 27.847344,2.3895313 c 0,-0.035156 0,-0.046875 -0.164063,-0.2226563 -1.242187,-1.25390625 -1.570312,-3.12890625 -1.570312,-4.6640625 0,-1.7226562 0.386719,-3.4570312 1.605469,-4.7109375 0.128906,-0.1171875 0.128906,-0.1289062 0.128906,-0.1640625 0,-0.070312 -0.03516,-0.1054687 -0.09375,-0.1054687 -0.105469,0 -0.996094,0.6796875 -1.582031,1.9453125 -0.515625,1.1015625 -0.632813,2.203125 -0.632813,3.0351562 0,0.7851563 0.117188,1.9921875 0.65625,3.1171875 0.597656,1.21875 1.453125,1.875 1.558594,1.875 0.05859,0 0.09375,-0.035156 0.09375,-0.1054687 z m 0,0"
         style="fill:#000000;fill-opacity:1;fill-rule:nonzero;stroke:none" />
      <path
         id="path16"
         d="m 30.478203,-3.9854687 h 0.9375 c 0.199219,0 0.304688,0 0.304688,-0.1992188 0,-0.1054687 -0.105469,-0.1054687 -0.28125,-0.1054687 h -0.878907 c 0.363282,-1.4179688 0.410157,-1.6171875 0.410157,-1.6757813 0,-0.1757812 -0.117188,-0.2695312 -0.292969,-0.2695312 -0.02344,0 -0.304688,0.011719 -0.398438,0.3515625 l -0.386718,1.59375 h -0.9375 c -0.199219,0 -0.292969,0 -0.292969,0.1875 0,0.1171875 0.07031,0.1171875 0.269531,0.1171875 h 0.878906 c -0.714843,2.8242187 -0.75,2.99999995 -0.75,3.1757812 0,0.5390625 0.375,0.9140625 0.914063,0.9140625 1.007812,0 1.582031,-1.453125 1.582031,-1.5351562 0,-0.09375 -0.08203,-0.09375 -0.117187,-0.09375 -0.09375,0 -0.105469,0.023437 -0.152344,0.140625 -0.433594,1.03124995 -0.960938,1.2773437 -1.300781,1.2773437 -0.199219,0 -0.304688,-0.12890625 -0.304688,-0.45703125 0,-0.24609375 0.02344,-0.31640625 0.05859,-0.48046875 z m 0,0"
         style="fill:#000000;fill-opacity:1;fill-rule:nonzero;stroke:none" />
      <path
         id="path17"
         d="m 34.907891,-2.4971875 c 0,-0.7734375 -0.117188,-1.9804687 -0.65625,-3.1054687 -0.597657,-1.21875 -1.464844,-1.875 -1.558594,-1.875 -0.05859,0 -0.105469,0.046875 -0.105469,0.1054687 0,0.035156 0,0.046875 0.199219,0.234375 0.972656,0.984375 1.535156,2.5664063 1.535156,4.640625 0,1.7109375 -0.363281,3.45703125 -1.59375,4.7226563 -0.140625,0.1171875 -0.140625,0.1289062 -0.140625,0.1640625 0,0.058594 0.04687,0.1054687 0.105469,0.1054687 0.09375,0 0.996094,-0.6796875 1.582031,-1.9453125 0.503906,-1.1015625 0.632813,-2.203125 0.632813,-3.046875 z m 0,0"
         style="fill:#000000;fill-opacity:1;fill-rule:nonzero;stroke:none" />
    </g>
    <g
       id="g17"
       aria-label="A&#10;c&#10;cos(2πf&#10;c&#10;t)"
       transform="matrix(1.3333333,0,0,1.3333333,98.852,74.917333)">
      <path
         id="path18"
         d="m 1.7809219,-1.1479609 c -0.3984375,0.66796871 -0.78515628,0.80859371 -1.21875003,0.84374996 -0.12890625,0 -0.2109375,0 -0.2109375,0.19921875 0,0.05859375 0.046875,0.1054687525 0.12890625,0.1054687525 0.26953125,0 0.57421878,-0.0351562525 0.85546878,-0.0351562525 0.328125,0 0.6796875,0.0351562525 0.9960937,0.0351562525 0.058594,0 0.1875,0 0.1875,-0.1875000025 0,-0.1171875 -0.09375,-0.1171875 -0.1640625,-0.1171875 -0.2226562,-0.0234375 -0.4570312,-0.10546875 -0.4570312,-0.3515625 0,-0.1171875 0.058594,-0.234375 0.1289062,-0.37499996 l 0.7617188,-1.265625 h 2.4960937 c 0.023437,0.1992187 0.1640625,1.55859371 0.1640625,1.66406246 0,0.29296875 -0.515625,0.328125 -0.7148437,0.328125 -0.140625,0 -0.2460938,0 -0.2460938,0.19921875 0,0.1054687525 0.1289063,0.1054687525 0.140625,0.1054687525 0.4101563,0 0.84375,-0.0351562525 1.2539063,-0.0351562525 0.2460937,0 0.8671875,0.0351562525 1.125,0.0351562525 0.058594,0 0.1757812,0 0.1757812,-0.1992187525 0,-0.10546875 -0.1054687,-0.10546875 -0.234375,-0.10546875 -0.609375,0 -0.609375,-0.0703125 -0.6445312,-0.36328125 L 5.6949844,-6.8901484 c -0.011719,-0.1992188 -0.011719,-0.2460938 -0.1875,-0.2460938 -0.1640625,0 -0.1992188,0.070312 -0.2578125,0.1757813 z m 1.1953125,-1.4648438 1.96875,-3.28125 0.3164062,3.28125 z m 0,0"
         style="fill:#000000;fill-opacity:1;fill-rule:nonzero;stroke:none" />
      <path
         id="path19"
         d="m 10.531898,-1.1772578 c -0.257812,0.046875 -0.363281,0.23437499 -0.363281,0.38671874 0,0.1875 0.152344,0.2578125 0.269531,0.2578125 0.164063,0 0.398438,-0.10546875 0.398438,-0.4453125 0,-0.46875004 -0.539063,-0.59765624 -0.9140626,-0.59765624 -1.0429687,0 -2.015625,0.96093749 -2.015625,1.92187499 0,0.609375 0.421875,1.21875001 1.2890625,1.21875001 1.1835941,0 1.7343751,-0.69140626 1.7343751,-0.78515626 0,-0.046875 -0.07031,-0.1171875 -0.128906,-0.1171875 -0.03516,0 -0.04687,0.0117188 -0.105469,0.0703125 C 10.14518,1.3657109 9.3365859,1.3657109 9.2076797,1.3657109 c -0.5039063,0 -0.7265625,-0.3398437 -0.7265625,-0.77343746 0,-0.19921875 0.1054687,-0.9609375 0.46875,-1.44140625 0.2578125,-0.33984379 0.6210937,-0.53906249 0.9726562,-0.53906249 0.09375,0 0.4335936,0.011719 0.6093746,0.2109375 z m 0,0"
         style="fill:#000000;fill-opacity:1;fill-rule:nonzero;stroke:none" />
      <path
         id="path20"
         d="m 14.352211,-2.1674922 c 0,-1.6289062 0.820312,-2.0507812 1.347656,-2.0507812 0.09375,0 0.714844,0.011719 1.066406,0.375 -0.410156,0.023437 -0.46875,0.328125 -0.46875,0.4570312 0,0.2578125 0.1875,0.4570313 0.457032,0.4570313 0.257812,0 0.457031,-0.1640625 0.457031,-0.46875 0,-0.6796875 -0.75,-1.0664063 -1.523438,-1.0664063 -1.242187,0 -2.15625,1.078125 -2.15625,2.3085938 0,1.27734371 0.984375,2.26171871 2.144532,2.26171871 1.335937,0 1.652343,-1.19531251 1.652343,-1.28906251 0,-0.1054687 -0.105468,-0.1054687 -0.128906,-0.1054687 -0.09375,0 -0.117187,0.046875 -0.128906,0.1054687 -0.292969,0.92578126 -0.9375,1.04296876 -1.3125,1.04296876 -0.527344,0 -1.40625,-0.421875 -1.40625,-2.02734376 z m 7.954101,0.035156 c 0,-1.2773438 -0.996093,-2.3320313 -2.191406,-2.3320313 -1.253906,0 -2.214844,1.0898438 -2.214844,2.3320313 0,1.28906246 1.03125,2.23828121 2.203125,2.23828121 1.207032,0 2.203125,-0.97265625 2.203125,-2.23828121 z m -2.191406,1.99218746 c -0.433594,0 -0.867187,-0.2109375 -1.136719,-0.66796875 -0.257812,-0.43359371 -0.257812,-1.04296871 -0.257812,-1.40625001 0,-0.3867187 0,-0.9257812 0.246094,-1.359375 0.269531,-0.4570312 0.738281,-0.6679687 1.136718,-0.6679687 0.433594,0 0.867188,0.2226562 1.125,0.6445312 0.257813,0.4335938 0.257813,1.0078125 0.257813,1.3828125 0,0.3632813 0,0.9023438 -0.222656,1.33593751 -0.222657,0.4453125 -0.65625,0.73828125 -1.148438,0.73828125 z M 24.6735,-1.9331172 c 0.222656,0.035156 1.03125,0.1992188 1.03125,0.9140625 0,0.51562501 -0.351563,0.91406251 -1.125,0.91406251 -0.832031,0 -1.195313,-0.57421875 -1.382813,-1.41796871 -0.03516,-0.1289063 -0.03516,-0.1757813 -0.140625,-0.1757813 -0.128906,0 -0.128906,0.070312 -0.128906,0.2578125 v 1.31250001 c 0,0.1640625 0,0.234375 0.105469,0.234375 0.05859,0 0.07031,0 0.257812,-0.19921875 0.01172,-0.01171875 0.01172,-0.03515625 0.199219,-0.22265625 0.433594,0.421875 0.878906,0.421875 1.089844,0.421875 1.148437,0 1.605469,-0.66796875 1.605469,-1.38281251 0,-0.5273437 -0.292969,-0.8203125 -0.421875,-0.9492187 -0.328125,-0.3164063 -0.714844,-0.3984375 -1.136719,-0.46875 -0.550781,-0.1171875 -1.21875,-0.2460938 -1.21875,-0.8203125 0,-0.3515625 0.257812,-0.7617188 1.113281,-0.7617188 1.101563,0 1.148438,0.9023438 1.171875,1.2070313 0,0.09375 0.09375,0.09375 0.117188,0.09375 0.128906,0 0.128906,-0.046875 0.128906,-0.2460938 v -0.9960937 c 0,-0.1757813 0,-0.2460938 -0.117188,-0.2460938 -0.04687,0 -0.07031,0 -0.199218,0.1171875 -0.02344,0.046875 -0.128907,0.1289063 -0.164063,0.1640625 -0.375,-0.28125 -0.785156,-0.28125 -0.9375,-0.28125 -1.21875,0 -1.59375,0.6679688 -1.59375,1.2304688 0,0.3398437 0.164063,0.6210937 0.433594,0.84375 0.316406,0.2578125 0.597656,0.3164062 1.3125,0.4570312 z m 6.811523,4.3242188 c 0,-0.035156 0,-0.046875 -0.164062,-0.2226563 -1.242188,-1.25390624 -1.570313,-3.12890624 -1.570313,-4.6640625 0,-1.7226562 0.386719,-3.4570312 1.605469,-4.7109375 0.128906,-0.1171875 0.128906,-0.1289062 0.128906,-0.1640625 0,-0.070312 -0.03516,-0.1054687 -0.09375,-0.1054687 -0.105468,0 -0.996093,0.6796875 -1.582031,1.9453125 -0.515625,1.1015625 -0.632812,2.203125 -0.632812,3.0351562 0,0.7851563 0.117187,1.99218751 0.65625,3.11718751 0.597656,1.21874999 1.453125,1.87499999 1.558593,1.87499999 0.05859,0 0.09375,-0.035156 0.09375,-0.1054687 z m 1.848633,-3.15234379 1.054688,-1.03125001 c 1.558593,-1.3710937 2.15625,-1.9101562 2.15625,-2.90625 0,-1.1367187 -0.902344,-1.9335937 -2.121094,-1.9335937 -1.125,0 -1.851563,0.9140625 -1.851563,1.8046875 0,0.5507812 0.492188,0.5507812 0.527344,0.5507812 0.164063,0 0.515625,-0.1171875 0.515625,-0.5273437 0,-0.2578125 -0.1875,-0.515625 -0.527344,-0.515625 -0.08203,0 -0.105468,0 -0.128906,0.011719 0.222656,-0.6445312 0.761719,-1.0195312 1.335938,-1.0195312 0.914062,0 1.335937,0.8085937 1.335937,1.6289062 0,0.796875 -0.492187,1.5820313 -1.042969,2.203125 l -1.910156,2.13281251 c -0.105469,0.10546875 -0.105469,0.12890625 -0.105469,0.3632812525 h 3.691407 L 36.544594,-1.7338984 h -0.257813 c -0.04687,0.3046875 -0.117187,0.73828121 -0.210937,0.89062496 -0.07031,0.0820313 -0.726563,0.0820313 -0.949219,0.0820313 z m 0,0"
         style="fill:#000000;fill-opacity:1;fill-rule:nonzero;stroke:none" />
      <path
         id="path21"
         d="m 39.682289,-3.7143672 h 1.125 c -0.328125,1.4765625 -0.410156,1.8984375 -0.410156,2.5664063 0,0.15234371 0,0.42187496 0.07031,0.76171871 0.105469,0.43359375 0.210938,0.4921875 0.363282,0.4921875 0.199218,0 0.410156,-0.17578125 0.410156,-0.375 0,-0.0585938 0,-0.0820313 -0.05859,-0.22265625 C 40.88932,-1.2065547 40.88932,-1.8510859 40.88932,-2.1323359 c 0,-0.5273438 0.07031,-1.0664063 0.175782,-1.5820313 h 1.136718 c 0.128907,0 0.492188,0 0.492188,-0.3398437 0,-0.234375 -0.210938,-0.234375 -0.398438,-0.234375 h -3.339843 c -0.210938,0 -0.597657,0 -1.03125,0.46875 -0.351563,0.3867187 -0.609375,0.84375 -0.609375,0.890625 0,0.011719 0,0.1054687 0.117187,0.1054687 0.08203,0 0.105469,-0.046875 0.164063,-0.1289062 0.480468,-0.7617188 1.066406,-0.7617188 1.265625,-0.7617188 h 0.5625 c -0.316407,1.2070313 -0.855469,2.4140625 -1.277344,3.31640626 -0.07031,0.15234375 -0.07031,0.1640625 -0.07031,0.234375 0,0.19921875 0.152344,0.26953125 0.28125,0.26953125 0.304688,0 0.386719,-0.26953125 0.503907,-0.64453125 0.140625,-0.45703125 0.140625,-0.48046876 0.269531,-0.97265626 z m 7.057617,-0.2695312 h 0.855469 c 0.199219,0 0.304687,0 0.304687,-0.1992188 0,-0.1054687 -0.105468,-0.1054687 -0.269531,-0.1054687 H 46.7985 l 0.210937,-1.1367188 c 0.03516,-0.2109375 0.175782,-0.9140625 0.234375,-1.0429687 0.09375,-0.1875 0.257813,-0.3398438 0.46875,-0.3398438 0.04687,0 0.304688,0 0.492188,0.1875 -0.433594,0.035156 -0.539063,0.3867188 -0.539063,0.5390625 0,0.2226563 0.175782,0.3398438 0.363282,0.3398438 0.269531,0 0.550781,-0.2109375 0.550781,-0.5976563 0,-0.4570312 -0.457031,-0.6796875 -0.867188,-0.6796875 -0.339843,0 -0.960937,0.1757813 -1.265625,1.1601563 -0.05859,0.2109375 -0.08203,0.3164062 -0.328125,1.5703125 h -0.679687 c -0.199219,0 -0.304688,0 -0.304688,0.1875 0,0.1171875 0.09375,0.1171875 0.28125,0.1171875 h 0.65625 l -0.75,3.93749996 c -0.175781,0.9609375 -0.339843,1.87500004 -0.867187,1.87500004 -0.03516,0 -0.28125,0 -0.46875,-0.1875 0.457031,-0.023437 0.539062,-0.3867188 0.539062,-0.5390625 0,-0.22265629 -0.175781,-0.33984379 -0.363281,-0.33984379 -0.257812,0 -0.550781,0.2109375 -0.550781,0.59765629 0,0.4453125 0.433594,0.6796875 0.84375,0.6796875 0.550781,0 0.949219,-0.5859375 1.125,-0.9609375 0.328125,-0.63281254 0.550781,-1.83984379 0.5625,-1.91015629 z m 0,0"
         style="fill:#000000;fill-opacity:1;fill-rule:nonzero;stroke:none" />
      <path
         id="path22"
         d="m 51.01725,-1.1772578 c -0.257813,0.046875 -0.363281,0.23437499 -0.363281,0.38671874 0,0.1875 0.152343,0.2578125 0.269531,0.2578125 0.164062,0 0.398437,-0.10546875 0.398437,-0.4453125 0,-0.46875004 -0.539062,-0.59765624 -0.914062,-0.59765624 -1.042969,0 -2.015625,0.96093749 -2.015625,1.92187499 0,0.609375 0.421875,1.21875001 1.289062,1.21875001 1.183594,0 1.734375,-0.69140626 1.734375,-0.78515626 0,-0.046875 -0.07031,-0.1171875 -0.128906,-0.1171875 -0.03516,0 -0.04687,0.0117188 -0.105469,0.0703125 -0.550781,0.63281246 -1.359375,0.63281246 -1.488281,0.63281246 -0.503906,0 -0.726562,-0.3398437 -0.726562,-0.77343746 0,-0.19921875 0.105468,-0.9609375 0.46875,-1.44140625 0.257812,-0.33984379 0.621093,-0.53906249 0.972656,-0.53906249 0.09375,0 0.433594,0.011719 0.609375,0.2109375 z m 0,0"
         style="fill:#000000;fill-opacity:1;fill-rule:nonzero;stroke:none" />
      <path
         id="path23"
         d="m 54.069984,-3.9838984 h 0.9375 c 0.199219,0 0.304688,0 0.304688,-0.1992188 0,-0.1054687 -0.105469,-0.1054687 -0.28125,-0.1054687 h -0.878906 c 0.363281,-1.4179688 0.410156,-1.6171875 0.410156,-1.6757813 0,-0.1757812 -0.117188,-0.2695312 -0.292969,-0.2695312 -0.02344,0 -0.304687,0.011719 -0.398437,0.3515625 l -0.386719,1.59375 h -0.9375 c -0.199219,0 -0.292969,0 -0.292969,0.1875 0,0.1171875 0.07031,0.1171875 0.269531,0.1171875 h 0.878907 c -0.714844,2.8242187 -0.75,2.99999996 -0.75,3.17578121 0,0.5390625 0.375,0.9140625 0.914062,0.9140625 1.007813,0 1.582031,-1.45312501 1.582031,-1.53515621 0,-0.09375 -0.08203,-0.09375 -0.117187,-0.09375 -0.09375,0 -0.105469,0.023437 -0.152344,0.140625 -0.433594,1.03124996 -0.960937,1.27734371 -1.300781,1.27734371 -0.199219,0 -0.304688,-0.12890625 -0.304688,-0.45703125 0,-0.24609375 0.02344,-0.31640625 0.05859,-0.48046876 z m 0,0"
         style="fill:#000000;fill-opacity:1;fill-rule:nonzero;stroke:none" />
      <path
         id="path24"
         d="m 58.499672,-2.4956172 c 0,-0.7734375 -0.117188,-1.9804687 -0.65625,-3.1054687 -0.597656,-1.21875 -1.464844,-1.875 -1.558594,-1.875 -0.05859,0 -0.105469,0.046875 -0.105469,0.1054687 0,0.035156 0,0.046875 0.199219,0.234375 0.972656,0.984375 1.535156,2.5664063 1.535156,4.640625 0,1.71093751 -0.363281,3.45703126 -1.59375,4.7226563 -0.140625,0.1171875 -0.140625,0.1289062 -0.140625,0.1640625 0,0.058594 0.04687,0.1054687 0.105469,0.1054687 0.09375,0 0.996094,-0.6796875 1.582031,-1.94531249 0.503907,-1.1015625 0.632813,-2.20312501 0.632813,-3.04687501 z m 0,0"
         style="fill:#000000;fill-opacity:1;fill-rule:nonzero;stroke:none" />
    </g>
    <path
       id="path25"
       d="m 28.3468,-27.94832 v 15.80066"
       style="fill:none;stroke:#000000;stroke-width:0.79701;stroke-linecap:butt;stroke-linejoin:miter;stroke-miterlimit:10;stroke-dasharray:none;stroke-opacity:1"
       transform="matrix(1.3333333,0,0,-1.3333333,44.025333,24.352)" />
    <path
       id="path26"
       d="M 4.66248,0 C 3.28098,0.25902 1.0361,1.0361 -0.51805,1.94269 V -1.94269 C 1.0361,-1.0361 3.28098,-0.25902 4.66248,0"
       style="fill:#000000;fill-opacity:1;fill-rule:nonzero;stroke:none"
       transform="matrix(0,-1.3333333,-1.3333333,0,81.821067,40.54888)" />
  </g>
</svg>
