<?xml version="1.0" encoding="UTF-8" standalone="no"?>
<!-- Created with Inkscape (http://www.inkscape.org/) -->

<svg
   version="1.1"
   id="svg1"
   width="219.15625"
   height="71.929672"
   viewBox="0 0 219.15625 71.929672"
   sodipodi:docname="Tikz (17).pdf"
   inkscape:export-filename="..\OneDrive - The University of Western Australia\eng-summary\block_diagrams\dsb-sc-am-demod.svg"
   inkscape:export-xdpi="96"
   inkscape:export-ydpi="96"
   xmlns:inkscape="http://www.inkscape.org/namespaces/inkscape"
   xmlns:sodipodi="http://sodipodi.sourceforge.net/DTD/sodipodi-0.dtd"
   xmlns="http://www.w3.org/2000/svg"
   xmlns:svg="http://www.w3.org/2000/svg">
  <defs
     id="defs1" />
  <sodipodi:namedview
     id="namedview1"
     pagecolor="#ffffff"
     bordercolor="#000000"
     borderopacity="0.25"
     inkscape:showpageshadow="2"
     inkscape:pageopacity="0.0"
     inkscape:pagecheckerboard="0"
     inkscape:deskcolor="#d1d1d1">
    <inkscape:page
       x="-1.545002e-07"
       y="7.417848e-08"
       width="219.15625"
       height="71.929672"
       id="page2"
       margin="0"
       bleed="0" />
  </sodipodi:namedview>
  <g
     id="g26"
     inkscape:groupmode="layer"
     inkscape:label="2"
     transform="translate(-233.98557,-13.28326)">
    <path
       id="path27"
       d="m 35.43349,0 c 0,3.91391 -3.17278,7.08669 -7.08669,7.08669 -3.91391,0 -7.08668,-3.17278 -7.08668,-7.08669 0,-3.91391 3.17277,-7.08669 7.08668,-7.08669 3.91391,0 7.08669,3.17278 7.08669,7.08669 z"
       style="fill:none;stroke:#000000;stroke-width:0.79701;stroke-linecap:butt;stroke-linejoin:miter;stroke-miterlimit:10;stroke-dasharray:none;stroke-opacity:1"
       transform="matrix(1.3333333,0,0,-1.3333333,286.42,27.988)" />
    <path
       id="path28"
       d="M 3.8779531,-2.7661797 1.8857656,-4.7466484 c -0.1289062,-0.1289063 -0.140625,-0.140625 -0.2226562,-0.140625 -0.1054688,0 -0.1992188,0.082031 -0.1992188,0.1992187 0,0.070312 0.023437,0.082031 0.1289063,0.1992188 l 1.9921875,1.9921875 -1.9921875,2.00390621 c -0.1054688,0.1171875 -0.1289063,0.12890625 -0.1289063,0.19921875 0,0.1171875 0.09375,0.19921875 0.1992188,0.19921875 0.082031,0 0.09375,-0.01171875 0.2226562,-0.140625 l 1.9804688,-1.98046871 2.0625,2.06249996 c 0.011719,0.0117188 0.082031,0.05859375 0.1523437,0.05859375 0.1171875,0 0.1992188,-0.08203125 0.1992188,-0.19921875 0,-0.0117188 0,-0.0585938 -0.035156,-0.10546875 -0.011719,-0.0234375 -1.59375,-1.58203121 -2.0976562,-2.09765621 l 1.828125,-1.8164063 c 0.046875,-0.058594 0.1992187,-0.1875 0.2460937,-0.2460937 0.011719,-0.023437 0.058594,-0.058594 0.058594,-0.1289063 0,-0.1171875 -0.082031,-0.1992187 -0.1992188,-0.1992187 -0.082031,0 -0.1289062,0.035156 -0.234375,0.140625 z m 0,0"
       style="fill:#000000;fill-opacity:1;fill-rule:nonzero;stroke:none"
       aria-label="×"
       transform="matrix(1.3333333,0,0,1.3333333,319.04933,31.309333)" />
    <path
       id="path29"
       d="m 35.43349,-35.4335 c 0,3.91391 -3.17278,7.08668 -7.08669,7.08668 -3.91391,0 -7.08668,-3.17277 -7.08668,-7.08668 0,-3.91393 3.17277,-7.0867 7.08668,-7.0867 3.91391,0 7.08669,3.17277 7.08669,7.0867 z"
       style="fill:none;stroke:#000000;stroke-width:0.79701;stroke-linecap:butt;stroke-linejoin:miter;stroke-miterlimit:10;stroke-dasharray:none;stroke-opacity:1"
       transform="matrix(1.3333333,0,0,-1.3333333,286.42,27.988)" />
    <path
       id="path30"
       d="m 7.1943594,-3.3291484 c 0,-0.2226563 -0.058594,-0.3164063 -0.140625,-0.3164063 -0.046875,0 -0.1289063,0.070312 -0.140625,0.2578125 -0.035156,0.9609375 -0.703125,1.5 -1.3945313,1.5 -0.6328125,0 -1.1015625,-0.421875 -1.59375,-0.8554687 -0.5039062,-0.4570313 -1.03125,-0.9140625 -1.6992187,-0.9140625 -1.0898438,0 -1.67578127,1.1015625 -1.67578127,2.0039062 0,0.3164063 0.12890625,0.3164063 0.140625,0.3164063 0.10546875,0 0.140625,-0.1992188 0.140625,-0.2226563 0.0351563,-1.1015625 0.78515627,-1.5351562 1.39453127,-1.5351562 0.6210937,0 1.1015625,0.421875 1.59375,0.8554687 0.5039062,0.4570313 1.0195312,0.9140625 1.6992187,0.9140625 1.0898438,0 1.6757813,-1.1015625 1.6757813,-2.0039062 z m 0,0"
       style="fill:#000000;fill-opacity:1;fill-rule:nonzero;stroke:none"
       aria-label="∼"
       transform="matrix(1.3333333,0,0,1.3333333,319.04933,77.669333)" />
    <path
       id="path31"
       d="M 56.69363,-10.63004 H 85.04042 V 10.63005 H 56.69363 Z"
       style="fill:none;stroke:#000000;stroke-width:0.79701;stroke-linecap:butt;stroke-linejoin:miter;stroke-miterlimit:10;stroke-dasharray:none;stroke-opacity:1"
       transform="matrix(1.3333333,0,0,-1.3333333,286.42,27.988)" />
    <path
       id="path32"
       d="M 5.7995,-2.5658984 H 5.5416875 C 5.4362187,-1.5580859 5.2955937,-0.30417969 3.5495,-0.30417969 H 2.7291875 c -0.46875,0 -0.4921875,-0.0703125 -0.4921875,-0.3984375 V -6.0112109 c 0,-0.3398438 0,-0.4804688 0.9492187,-0.4804688 h 0.328125 v -0.3164062 c -0.3632812,0.035156 -1.265625,0.035156 -1.6757812,0.035156 -0.3867188,0 -1.16015625,0 -1.51171875,-0.035156 v 0.3164062 h 0.234375 c 0.77343745,0 0.79687495,0.1054688 0.79687495,0.46875 v 5.25000001 c 0,0.3515625 -0.023437,0.46875 -0.79687495,0.46875 h -0.234375 V 5.078125e-4 H 5.51825 Z m 2.6894531,-0.5859375 h 1.6874999 c 1.195313,0 2.261719,-0.796875 2.261719,-1.7929688 0,-0.984375 -0.984375,-1.8632812 -2.34375,-1.8632812 H 6.5787969 v 0.3164062 h 0.234375 c 0.7734375,0 0.7851562,0.1054688 0.7851562,0.46875 v 5.25000001 c 0,0.3515625 -0.011719,0.46875 -0.7851562,0.46875 H 6.5787969 V 5.078125e-4 C 6.9303594,-0.03464844 7.6569219,-0.03464844 8.0436406,-0.03464844 c 0.375,0 1.125,0 1.4765625,0.0351562525 V -0.30417969 H 9.2741094 c -0.7617188,0 -0.7851563,-0.1171875 -0.7851563,-0.46875 z m -0.035156,-0.2578125 v -2.6835938 c 0,-0.328125 0.023437,-0.3984375 0.4921875,-0.3984375 h 0.890625 c 1.5820314,0 1.5820314,1.0546875 1.5820314,1.546875 0,0.4570313 0,1.5351563 -1.5820314,1.5351563 z M 18.807312,-6.7729297 h -5.472656 v 0.3046875 h 0.234375 c 0.773438,0 0.796875,0.1171875 0.796875,0.46875 v 5.22656251 c 0,0.3515625 -0.02344,0.46875 -0.796875,0.46875 H 13.334656 V 5.078125e-4 c 0.351563,-0.0351562525 1.125,-0.0351562525 1.511719,-0.0351562525 0.410156,0 1.3125,0 1.675781,0.0351562525 V -0.30417969 h -0.328125 c -0.949219,0 -0.949219,-0.12890625 -0.949219,-0.48046875 V -3.2338672 h 0.855469 c 0.960938,0 1.054688,0.3164063 1.054688,1.1601563 h 0.257812 v -2.6367188 h -0.257812 c 0,0.8320313 -0.09375,1.1601563 -1.054688,1.1601563 h -0.855469 v -2.5195313 c 0,-0.328125 0.02344,-0.3984375 0.492188,-0.3984375 h 1.195312 c 1.488282,0 1.746094,0.5625 1.898438,1.9335938 h 0.257812 z m 0,0"
       style="fill:#000000;fill-opacity:1;fill-rule:nonzero;stroke:none"
       aria-label="LPF"
       transform="matrix(1.3333333,0,0,1.3333333,367.90133,32.526667)" />
    <path
       id="path33"
       d="M 0,0 H 16.19913"
       style="fill:none;stroke:#000000;stroke-width:0.79701;stroke-linecap:butt;stroke-linejoin:miter;stroke-miterlimit:10;stroke-dasharray:none;stroke-opacity:1"
       transform="matrix(1.3333333,0,0,-1.3333333,286.42,27.988)" />
    <path
       id="path34"
       d="M 4.66248,0 C 3.28098,0.25902 1.0361,1.0361 -0.51805,1.94269 V -1.94269 C 1.0361,-1.0361 3.28098,-0.25902 4.66248,0"
       style="fill:#000000;fill-opacity:1;fill-rule:nonzero;stroke:none"
       transform="matrix(1.3333333,0,0,-1.3333333,308.01884,27.988)" />
    <g
       id="g34"
       aria-label="x&#10;DSB&#10;(t)"
       transform="matrix(1.3333333,0,0,1.3333333,233.59467,31.309333)">
      <path
         id="path35"
         d="m 3.3283281,-3.0122734 c 0.058594,-0.2578125 0.2929688,-1.171875 0.984375,-1.171875 0.046875,0 0.2929688,0 0.5039063,0.1289062 -0.28125,0.046875 -0.4804688,0.3046875 -0.4804688,0.5390625 0,0.1640625 0.1054688,0.3515625 0.375,0.3515625 0.2226563,0 0.5390625,-0.1875 0.5390625,-0.5859375 0,-0.515625 -0.5859375,-0.65625 -0.9257812,-0.65625 -0.5742188,0 -0.9257813,0.5273438 -1.0429688,0.7617188 -0.2578125,-0.65625 -0.7851562,-0.7617188 -1.078125,-0.7617188 -1.0429687,0 -1.60546873,1.2890625 -1.60546873,1.5351563 0,0.1054687 0.10546875,0.1054687 0.1171875,0.1054687 0.0820313,0 0.1171875,-0.023437 0.12890625,-0.1171875 0.33984378,-1.0546875 0.99609378,-1.3007812 1.33593748,-1.3007812 0.1875,0 0.5390625,0.09375 0.5390625,0.6679687 0,0.3046875 -0.1640625,0.9726563 -0.5390625,2.3671875 -0.1523437,0.62109376 -0.5039062,1.04296876 -0.9492187,1.04296876 -0.058594,0 -0.28125003,0 -0.49218753,-0.12890625 0.24609375,-0.0585938 0.46875003,-0.26953125 0.46875003,-0.5390625 0,-0.26953121 -0.22265628,-0.35156251 -0.37500003,-0.35156251 -0.29296875,0 -0.5390625,0.25781251 -0.5390625,0.57421876 0,0.45703125 0.4921875,0.65625 0.93750003,0.65625 0.65625,0 1.0078125,-0.69140625 1.0429687,-0.75 0.1171875,0.36328125 0.4804688,0.75 1.078125,0.75 1.0195313,0 1.59375,-1.27734376 1.59375,-1.53515626 0,-0.09375 -0.09375,-0.09375 -0.1289062,-0.09375 -0.082031,0 -0.1054688,0.035156 -0.1289063,0.1054688 -0.328125,1.06640621 -0.9960937,1.31249996 -1.3242187,1.31249996 -0.3867188,0 -0.5390625,-0.328125 -0.5390625,-0.65625 0,-0.22265625 0.058594,-0.44531246 0.1640625,-0.87890626 z m 0,0"
         style="fill:#000000;fill-opacity:1;fill-rule:nonzero;stroke:none" />
      <path
         id="path36"
         d="M 7.0050859,0.95452344 C 6.9582109,1.1888984 6.9464922,1.2474922 6.3957109,1.2474922 c -0.1289062,0 -0.2109375,0 -0.2109375,0.1523437 0,0.09375 0.082031,0.09375 0.2109375,0.09375 h 2.4960938 c 1.5468753,0 3.0234373,-1.41796871 3.0234373,-2.9414062 0,-1.0195313 -0.703125,-1.8164063 -1.839844,-1.8164063 H 7.5441484 c -0.140625,0 -0.2226562,0 -0.2226562,0.1523438 0,0.09375 0.070312,0.09375 0.2226562,0.09375 0.1171875,0 0.140625,0 0.2695313,0.011719 0.140625,0.011719 0.1523437,0.035156 0.1523437,0.1054688 0,0.011719 0,0.046875 -0.023437,0.1523437 z M 8.5753984,-2.7837578 c 0.046875,-0.2109375 0.058594,-0.234375 0.3515625,-0.234375 h 0.890625 c 0.7851561,0 1.4414061,0.3867187 1.4414061,1.3359375 0,0.1640625 -0.07031,1.37109374 -0.773437,2.16796874 C 10.216023,0.79046094 9.6183672,1.2474922 8.7628984,1.2474922 H 7.8136797 c -0.2226563,0 -0.2226563,-0.011719 -0.2226563,-0.070312 0,-0.011719 0,-0.046875 0.023437,-0.1523438 z M 17.37032,-3.3228203 c 0,-0.035156 -0.01172,-0.082031 -0.08203,-0.082031 -0.04687,0 -0.04687,0 -0.140625,0.09375 l -0.339844,0.3984375 c -0.269531,-0.375 -0.703125,-0.4921875 -1.136718,-0.4921875 -0.984375,0 -1.851563,0.796875 -1.851563,1.59375 0,0.1054688 0.02344,0.3867188 0.234375,0.6445313 0.234375,0.28124999 0.492188,0.33984374 0.960938,0.44531249 0.140625,0.0351563 0.492187,0.1171875 0.597656,0.140625 0.222656,0.0585938 0.644531,0.2109375 0.644531,0.73828125 0,0.5625 -0.585937,1.21874996 -1.382812,1.21874996 -0.621094,0 -1.359375,-0.2109375 -1.359375,-0.98437496 0,-0.0703125 0.02344,-0.22265625 0.04687,-0.3515625 0.01172,-0.0234375 0.01172,-0.03515625 0.01172,-0.03515625 0,-0.09375 -0.09375,-0.09375 -0.117187,-0.09375 -0.09375,0 -0.105469,0.01171875 -0.128906,0.140625 L 12.96407,1.4467109 c 0,0.023437 -0.01172,0.070312 -0.01172,0.1054688 0,0.035156 0.02344,0.082031 0.09375,0.082031 0.04687,0 0.04687,-0.011719 0.140625,-0.09375 0.07031,-0.09375 0.257812,-0.3164062 0.328125,-0.3984375 0.375,0.4101563 0.914062,0.4921875 1.335937,0.4921875 1.054688,0 1.898438,-0.90234371 1.898438,-1.73437496 0,-0.3046875 -0.117188,-0.5859375 -0.269532,-0.73828125 C 16.2336,-1.096258 16.128131,-1.1196955 15.225787,-1.330633 c -0.140625,-0.035156 -0.375,-0.09375 -0.433594,-0.1054688 -0.175781,-0.070312 -0.46875,-0.2460937 -0.46875,-0.6445312 0,-0.5507813 0.621094,-1.1015625 1.347657,-1.1015625 0.75,0 1.113281,0.421875 1.113281,1.0898437 0,0.082031 -0.03516,0.2460938 -0.03516,0.3046875 0,0.1054688 0.09375,0.1054688 0.128906,0.1054688 0.105469,0 0.105469,-0.035156 0.140625,-0.1523438 z m 1.646485,4.27734374 c -0.05859,0.23437496 -0.07031,0.29296876 -0.609375,0.29296876 -0.117188,0 -0.210938,0 -0.210938,0.140625 0,0.1054687 0.08203,0.1054687 0.210938,0.1054687 h 2.695312 c 1.171875,0 2.074219,-0.79687496 2.074219,-1.48828121 0,-0.50390625 -0.457031,-0.92578125 -1.195313,-0.99609375 0.84375,-0.16406254 1.546875,-0.69140624 1.546875,-1.28906254 0,-0.5273437 -0.539062,-0.984375 -1.441406,-0.984375 h -2.542969 c -0.128906,0 -0.222656,0 -0.222656,0.1523438 0,0.09375 0.08203,0.09375 0.222656,0.09375 0.01172,0 0.140625,0 0.269532,0.011719 0.140625,0.011719 0.164062,0.035156 0.164062,0.1054688 0,0.011719 0,0.046875 -0.03516,0.1523437 z m 1.113281,-2.03906254 0.433594,-1.6992187 c 0.04687,-0.2109375 0.05859,-0.234375 0.351562,-0.234375 h 1.054688 c 0.714843,0 0.878906,0.46875 0.878906,0.7382812 0,0.5625 -0.632813,1.1953125 -1.570313,1.1953125 z m -0.328125,2.3320313 c -0.222656,0 -0.222656,-0.011719 -0.222656,-0.070312 0,-0.011719 0,-0.046875 0.02344,-0.1523438 l 0.480469,-1.91015621 h 1.476562 c 0.65625,0 0.914063,0.43359375 0.914063,0.84375 0,0.6796875 -0.714844,1.28906251 -1.558594,1.28906251 z m 0,0"
         style="fill:#000000;fill-opacity:1;fill-rule:nonzero;stroke:none" />
      <path
         id="path37"
         d="m 27.846883,2.3900703 c 0,-0.035156 0,-0.046875 -0.164063,-0.2226562 -1.242187,-1.25390629 -1.570312,-3.12890629 -1.570312,-4.6640625 0,-1.7226563 0.386719,-3.4570313 1.605469,-4.7109375 0.128906,-0.1171875 0.128906,-0.1289063 0.128906,-0.1640625 0,-0.070312 -0.03516,-0.1054688 -0.09375,-0.1054688 -0.105469,0 -0.996094,0.6796875 -1.582031,1.9453125 -0.515625,1.1015625 -0.632813,2.203125 -0.632813,3.0351563 0,0.7851562 0.117188,1.99218746 0.65625,3.11718746 0.597656,1.21875004 1.453125,1.87500004 1.558594,1.87500004 0.05859,0 0.09375,-0.035156 0.09375,-0.1054688 z m 0,0"
         style="fill:#000000;fill-opacity:1;fill-rule:nonzero;stroke:none" />
      <path
         id="path38"
         d="m 30.477742,-3.9849297 h 0.9375 c 0.199219,0 0.304688,0 0.304688,-0.1992187 0,-0.1054688 -0.105469,-0.1054688 -0.28125,-0.1054688 h -0.878907 c 0.363282,-1.4179687 0.410157,-1.6171875 0.410157,-1.6757812 0,-0.1757813 -0.117188,-0.2695313 -0.292969,-0.2695313 -0.02344,0 -0.304688,0.011719 -0.398438,0.3515625 l -0.386718,1.59375 h -0.9375 c -0.199219,0 -0.292969,0 -0.292969,0.1875 0,0.1171875 0.07031,0.1171875 0.269531,0.1171875 h 0.878906 c -0.714843,2.8242188 -0.75,3.00000001 -0.75,3.17578126 0,0.5390625 0.375,0.9140625 0.914063,0.9140625 1.007812,0 1.582031,-1.45312496 1.582031,-1.53515626 0,-0.09375 -0.08203,-0.09375 -0.117187,-0.09375 -0.09375,0 -0.105469,0.023437 -0.152344,0.140625 -0.433594,1.03125001 -0.960938,1.27734376 -1.300781,1.27734376 -0.199219,0 -0.304688,-0.12890625 -0.304688,-0.45703125 0,-0.24609375 0.02344,-0.31640625 0.05859,-0.48046871 z m 0,0"
         style="fill:#000000;fill-opacity:1;fill-rule:nonzero;stroke:none" />
      <path
         id="path39"
         d="m 34.90743,-2.4966484 c 0,-0.7734375 -0.117188,-1.9804688 -0.65625,-3.1054688 -0.597657,-1.21875 -1.464844,-1.875 -1.558594,-1.875 -0.05859,0 -0.105469,0.046875 -0.105469,0.1054688 0,0.035156 0,0.046875 0.199219,0.234375 0.972656,0.984375 1.535156,2.5664062 1.535156,4.640625 0,1.71093746 -0.363281,3.45703121 -1.59375,4.7226562 -0.140625,0.1171875 -0.140625,0.1289063 -0.140625,0.1640625 0,0.058594 0.04687,0.1054688 0.105469,0.1054688 0.09375,0 0.996094,-0.6796875 1.582031,-1.94531254 0.503906,-1.1015625 0.632813,-2.20312496 0.632813,-3.04687496 z m 0,0"
         style="fill:#000000;fill-opacity:1;fill-rule:nonzero;stroke:none" />
    </g>
    <path
       id="path40"
       d="m 85.43892,0 h 16.19914"
       style="fill:none;stroke:#000000;stroke-width:0.79701;stroke-linecap:butt;stroke-linejoin:miter;stroke-miterlimit:10;stroke-dasharray:none;stroke-opacity:1"
       transform="matrix(1.3333333,0,0,-1.3333333,286.42,27.988)" />
    <path
       id="path41"
       d="M 4.66248,0 C 3.28098,0.25902 1.0361,1.0361 -0.51805,1.94269 V -1.94269 C 1.0361,-1.0361 3.28098,-0.25902 4.66248,0"
       style="fill:#000000;fill-opacity:1;fill-rule:nonzero;stroke:none"
       transform="matrix(1.3333333,0,0,-1.3333333,421.93741,27.988)" />
    <g
       id="g41"
       aria-label="s(t)"
       transform="matrix(1.3333333,0,0,1.3333333,433.11067,31.309333)">
      <path
         id="path42"
         d="m 3.8905469,-3.7271172 c -0.2695313,0.011719 -0.46875,0.234375 -0.46875,0.4453125 0,0.140625 0.082031,0.2929688 0.3046875,0.2929688 0.2226562,0 0.4570312,-0.1640625 0.4570312,-0.5625 0,-0.4453125 -0.4335937,-0.8554688 -1.1835937,-0.8554688 -1.3125,0 -1.6875,1.0195313 -1.6875,1.453125 0,0.7851563 0.7382812,0.9257813 1.03125,0.9960938 0.515625,0.09375 1.03125,0.1992187 1.03125,0.75 0,0.25781246 -0.2226563,1.10156246 -1.4179688,1.10156246 -0.140625,0 -0.9140625,0 -1.13671872,-0.52734375 0.37500002,0.046875 0.62109372,-0.2578125 0.62109372,-0.52734371 0,-0.234375 -0.1523437,-0.3515625 -0.3632812,-0.3515625 -0.25781252,0 -0.56250002,0.2109375 -0.56250002,0.65624996 0,0.5625 0.57421872,0.9609375 1.42968752,0.9609375 1.6054687,0 2.0039062,-1.20703126 2.0039062,-1.65234376 0,-0.3515625 -0.1992187,-0.609375 -0.3164062,-0.7265625 -0.2695313,-0.28125 -0.5507813,-0.328125 -0.9960938,-0.421875 -0.3515625,-0.070312 -0.75,-0.140625 -0.75,-0.5976562 0,-0.28125 0.234375,-0.890625 1.1132813,-0.890625 0.2460937,0 0.75,0.070312 0.890625,0.4570312 z m 0,0"
         style="fill:#000000;fill-opacity:1;fill-rule:nonzero;stroke:none" />
      <path
         id="path43"
         d="m 7.9628125,2.3900703 c 0,-0.035156 0,-0.046875 -0.1640625,-0.2226562 -1.2421875,-1.25390629 -1.5703125,-3.12890629 -1.5703125,-4.6640625 0,-1.7226563 0.3867188,-3.4570313 1.6054688,-4.7109375 0.1289062,-0.1171875 0.1289062,-0.1289063 0.1289062,-0.1640625 0,-0.070312 -0.035156,-0.1054688 -0.09375,-0.1054688 -0.1054687,0 -0.9960937,0.6796875 -1.5820312,1.9453125 -0.515625,1.1015625 -0.6328125,2.203125 -0.6328125,3.0351563 0,0.7851562 0.1171875,1.99218746 0.65625,3.11718746 0.5976562,1.21875004 1.453125,1.87500004 1.5585937,1.87500004 0.058594,0 0.09375,-0.035156 0.09375,-0.1054688 z m 0,0"
         style="fill:#000000;fill-opacity:1;fill-rule:nonzero;stroke:none" />
      <path
         id="path44"
         d="m 10.593672,-3.9849297 h 0.9375 c 0.199219,0 0.304687,0 0.304687,-0.1992187 0,-0.1054688 -0.105468,-0.1054688 -0.28125,-0.1054688 h -0.878906 c 0.363281,-1.4179687 0.410156,-1.6171875 0.410156,-1.6757812 0,-0.1757813 -0.117187,-0.2695313 -0.292968,-0.2695313 -0.02344,0 -0.304688,0.011719 -0.398438,0.3515625 l -0.386719,1.59375 H 9.0702344 c -0.1992188,0 -0.2929688,0 -0.2929688,0.1875 0,0.1171875 0.070312,0.1171875 0.2695313,0.1171875 h 0.8789062 c -0.7148437,2.8242188 -0.75,3.00000001 -0.75,3.17578126 0,0.5390625 0.375,0.9140625 0.9140629,0.9140625 1.007812,0 1.582031,-1.45312496 1.582031,-1.53515626 0,-0.09375 -0.08203,-0.09375 -0.117188,-0.09375 -0.09375,0 -0.105468,0.023437 -0.152343,0.140625 -0.433594,1.03125001 -0.960938,1.27734376 -1.300782,1.27734376 -0.1992184,0 -0.3046871,-0.12890625 -0.3046871,-0.45703125 0,-0.24609375 0.023437,-0.31640625 0.058594,-0.48046871 z m 0,0"
         style="fill:#000000;fill-opacity:1;fill-rule:nonzero;stroke:none" />
      <path
         id="path45"
         d="m 15.023359,-2.4966484 c 0,-0.7734375 -0.117187,-1.9804688 -0.65625,-3.1054688 -0.597656,-1.21875 -1.464843,-1.875 -1.558593,-1.875 -0.05859,0 -0.105469,0.046875 -0.105469,0.1054688 0,0.035156 0,0.046875 0.199219,0.234375 0.972656,0.984375 1.535156,2.5664062 1.535156,4.640625 0,1.71093746 -0.363281,3.45703121 -1.59375,4.7226562 -0.140625,0.1171875 -0.140625,0.1289063 -0.140625,0.1640625 0,0.058594 0.04687,0.1054688 0.105469,0.1054688 0.09375,0 0.996093,-0.6796875 1.582031,-1.94531254 0.503906,-1.1015625 0.632812,-2.20312496 0.632812,-3.04687496 z m 0,0"
         style="fill:#000000;fill-opacity:1;fill-rule:nonzero;stroke:none" />
    </g>
    <g
       id="g45"
       aria-label="2cos(2πf&#10;c&#10;t)"
       transform="matrix(1.3333333,0,0,1.3333333,345.61333,78.553333)">
      <path
         id="path46"
         d="M 1.2664766,-0.76070312 2.3211641,-1.7919531 c 1.5585937,-1.3710938 2.15625,-1.9101563 2.15625,-2.90625 0,-1.1367188 -0.9023438,-1.9335938 -2.1210938,-1.9335938 -1.125,0 -1.85156249,0.9140625 -1.85156249,1.8046875 0,0.5507813 0.4921875,0.5507813 0.52734379,0.5507813 0.1640625,0 0.515625,-0.1171875 0.515625,-0.5273438 0,-0.2578125 -0.1875,-0.515625 -0.5273438,-0.515625 -0.0820312,0 -0.10546874,0 -0.12890624,0.011719 0.22265624,-0.6445313 0.76171874,-1.0195313 1.33593754,-1.0195313 0.9140625,0 1.3359375,0.8085938 1.3359375,1.6289063 0,0.796875 -0.4921875,1.5820312 -1.0429688,2.203125 L 0.61022656,-0.36226562 C 0.50475781,-0.25679687 0.50475781,-0.23335937 0.50475781,0.00101563 H 4.1961641 l 0.28125,-1.73437503 H 4.2196016 c -0.046875,0.3046875 -0.1171875,0.73828128 -0.2109375,0.89062503 -0.070312,0.0820313 -0.7265625,0.0820313 -0.9492188,0.0820313 z M 7.8055391,-2.1669531 c 0,-1.6289063 0.8203125,-2.0507813 1.3476562,-2.0507813 0.09375,0 0.7148438,0.011719 1.0664067,0.375 -0.4101567,0.023437 -0.4687504,0.328125 -0.4687504,0.4570313 0,0.2578125 0.1875,0.4570312 0.4570314,0.4570312 0.257812,0 0.457031,-0.1640625 0.457031,-0.46875 0,-0.6796875 -0.7499999,-1.0664062 -1.5234374,-1.0664062 -1.2421875,0 -2.15625,1.078125 -2.15625,2.3085937 0,1.27734378 0.984375,2.26171878 2.1445312,2.26171878 1.3359372,0 1.6523442,-1.19531248 1.6523442,-1.28906248 0,-0.1054688 -0.105469,-0.1054688 -0.128907,-0.1054688 -0.09375,0 -0.117187,0.046875 -0.128906,0.1054688 -0.292969,0.92578123 -0.9374999,1.04296873 -1.3124999,1.04296873 -0.5273438,0 -1.40625,-0.421875 -1.40625,-2.02734373 z m 7.9541019,0.035156 c 0,-1.2773437 -0.996094,-2.3320312 -2.191407,-2.3320312 -1.253906,0 -2.214843,1.0898437 -2.214843,2.3320312 0,1.28906253 1.03125,2.23828128 2.203125,2.23828128 1.207031,0 2.203125,-0.97265625 2.203125,-2.23828128 z m -2.191407,1.99218753 c -0.433593,0 -0.867187,-0.2109375 -1.136718,-0.66796875 -0.257813,-0.43359378 -0.257813,-1.04296878 -0.257813,-1.40624998 0,-0.3867188 0,-0.9257813 0.246094,-1.359375 0.269531,-0.4570313 0.738281,-0.6679688 1.136719,-0.6679688 0.433593,0 0.867187,0.2226563 1.125,0.6445313 0.257812,0.4335937 0.257812,1.0078125 0.257812,1.3828125 0,0.3632812 0,0.9023437 -0.222656,1.33593748 -0.222656,0.4453125 -0.65625,0.73828125 -1.148438,0.73828125 z m 4.558594,-1.79296873 c 0.222656,0.035156 1.03125,0.1992187 1.03125,0.9140625 0,0.51562498 -0.351562,0.91406248 -1.125,0.91406248 -0.832031,0 -1.195312,-0.57421875 -1.382812,-1.41796878 -0.03516,-0.1289062 -0.03516,-0.1757812 -0.140625,-0.1757812 -0.128907,0 -0.128907,0.070312 -0.128907,0.2578125 v 1.31249998 c 0,0.1640625 0,0.234375 0.105469,0.234375 0.05859,0 0.07031,0 0.257813,-0.19921875 0.01172,-0.01171875 0.01172,-0.03515625 0.199218,-0.22265625 0.433594,0.421875 0.878907,0.421875 1.089844,0.421875 1.148438,0 1.605469,-0.66796875 1.605469,-1.38281248 0,-0.5273438 -0.292969,-0.8203125 -0.421875,-0.9492188 -0.328125,-0.3164062 -0.714844,-0.3984375 -1.136719,-0.46875 -0.550781,-0.1171875 -1.21875,-0.2460937 -1.21875,-0.8203125 0,-0.3515625 0.257813,-0.7617187 1.113281,-0.7617187 1.101563,0 1.148438,0.9023437 1.171875,1.2070312 0,0.09375 0.09375,0.09375 0.117188,0.09375 0.128906,0 0.128906,-0.046875 0.128906,-0.2460937 v -0.9960938 c 0,-0.1757812 0,-0.2460937 -0.117187,-0.2460937 -0.04687,0 -0.07031,0 -0.199219,0.1171875 -0.02344,0.046875 -0.128906,0.1289062 -0.164063,0.1640625 -0.375,-0.28125 -0.785156,-0.28125 -0.9375,-0.28125 -1.21875,0 -1.59375,0.6679687 -1.59375,1.2304687 0,0.3398438 0.164063,0.6210938 0.433594,0.84375 0.316406,0.2578125 0.597656,0.3164063 1.3125,0.4570313 z m 6.802735,4.3242187 c 0,-0.035156 0,-0.046875 -0.164063,-0.2226562 -1.242187,-1.25390627 -1.570312,-3.12890627 -1.570312,-4.6640625 0,-1.7226563 0.386718,-3.4570313 1.605468,-4.7109375 0.128907,-0.1171875 0.128907,-0.1289063 0.128907,-0.1640625 0,-0.070312 -0.03516,-0.1054688 -0.09375,-0.1054688 -0.105469,0 -0.996094,0.6796875 -1.582032,1.9453125 -0.515625,1.1015625 -0.632812,2.203125 -0.632812,3.0351563 0,0.7851562 0.117187,1.99218748 0.65625,3.11718748 0.597656,1.21875002 1.453125,1.87500002 1.558594,1.87500002 0.05859,0 0.09375,-0.035156 0.09375,-0.1054688 z m 1.848632,-3.15234372 1.054688,-1.03124998 c 1.558594,-1.3710938 2.15625,-1.9101563 2.15625,-2.90625 0,-1.1367188 -0.902344,-1.9335938 -2.121094,-1.9335938 -1.125,0 -1.851562,0.9140625 -1.851562,1.8046875 0,0.5507813 0.492187,0.5507813 0.527343,0.5507813 0.164063,0 0.515625,-0.1171875 0.515625,-0.5273438 0,-0.2578125 -0.1875,-0.515625 -0.527343,-0.515625 -0.08203,0 -0.105469,0 -0.128907,0.011719 0.222657,-0.6445313 0.761719,-1.0195313 1.335938,-1.0195313 0.914062,0 1.335937,0.8085938 1.335937,1.6289063 0,0.796875 -0.492187,1.5820312 -1.042968,2.203125 l -1.910157,2.13281248 c -0.105468,0.10546875 -0.105468,0.12890625 -0.105468,0.36328125 h 3.691406 l 0.28125,-1.73437503 H 29.73132 c -0.04687,0.3046875 -0.117187,0.73828128 -0.210937,0.89062503 -0.07031,0.0820313 -0.726563,0.0820313 -0.949219,0.0820313 z m 0,0"
         style="fill:#000000;fill-opacity:1;fill-rule:nonzero;stroke:none" />
      <path
         id="path47"
         d="m 33.132688,-3.7138281 h 1.125 c -0.328125,1.4765625 -0.410157,1.8984375 -0.410157,2.5664062 0,0.15234378 0,0.42187503 0.07031,0.76171878 0.105469,0.43359375 0.210937,0.4921875 0.363281,0.4921875 0.199219,0 0.410156,-0.17578125 0.410156,-0.375 0,-0.0585938 0,-0.0820313 -0.05859,-0.22265625 -0.292969,-0.71484373 -0.292969,-1.35937503 -0.292969,-1.64062503 0,-0.5273437 0.07031,-1.0664062 0.175781,-1.5820312 h 1.136719 c 0.128906,0 0.492187,0 0.492187,-0.3398438 0,-0.234375 -0.210937,-0.234375 -0.398437,-0.234375 h -3.339844 c -0.210937,0 -0.597656,0 -1.03125,0.46875 -0.351562,0.3867188 -0.609375,0.84375 -0.609375,0.890625 0,0.011719 0,0.1054688 0.117188,0.1054688 0.08203,0 0.105468,-0.046875 0.164062,-0.1289063 0.480469,-0.7617187 1.066406,-0.7617187 1.265625,-0.7617187 h 0.5625 c -0.316406,1.2070312 -0.855469,2.4140625 -1.277344,3.31640623 -0.07031,0.15234375 -0.07031,0.1640625 -0.07031,0.234375 0,0.19921875 0.152344,0.26953125 0.28125,0.26953125 0.304687,0 0.386719,-0.26953125 0.503906,-0.64453125 C 32.453,-0.99507812 32.453,-1.0185156 32.581906,-1.5107031 Z m 7.057617,-0.2695313 h 0.855468 c 0.199219,0 0.304688,0 0.304688,-0.1992187 0,-0.1054688 -0.105469,-0.1054688 -0.269531,-0.1054688 h -0.832032 l 0.210938,-1.1367187 c 0.03516,-0.2109375 0.175781,-0.9140625 0.234375,-1.0429688 0.09375,-0.1875 0.257812,-0.3398437 0.46875,-0.3398437 0.04687,0 0.304687,0 0.492187,0.1875 -0.433593,0.035156 -0.539062,0.3867187 -0.539062,0.5390625 0,0.2226562 0.175781,0.3398437 0.363281,0.3398437 0.269531,0 0.550781,-0.2109375 0.550781,-0.5976562 0,-0.4570313 -0.457031,-0.6796875 -0.867187,-0.6796875 -0.339844,0 -0.960938,0.1757812 -1.265625,1.1601562 -0.05859,0.2109375 -0.08203,0.3164063 -0.328125,1.5703125 h -0.679688 c -0.199218,0 -0.304687,0 -0.304687,0.1875 0,0.1171875 0.09375,0.1171875 0.28125,0.1171875 h 0.65625 l -0.75,3.93750003 c -0.175781,0.9609375 -0.339844,1.87499997 -0.867188,1.87499997 -0.03516,0 -0.28125,0 -0.46875,-0.1875 0.457032,-0.023437 0.539063,-0.3867187 0.539063,-0.5390625 0,-0.22265622 -0.175781,-0.33984372 -0.363281,-0.33984372 -0.257813,0 -0.550782,0.2109375 -0.550782,0.59765622 0,0.4453125 0.433594,0.6796875 0.84375,0.6796875 0.550782,0 0.949219,-0.5859375 1.125,-0.9609375 0.328125,-0.63281247 0.550782,-1.83984372 0.5625,-1.91015622 z m 0,0"
         style="fill:#000000;fill-opacity:1;fill-rule:nonzero;stroke:none" />
      <path
         id="path48"
         d="m 44.470578,-1.1767187 c -0.257812,0.046875 -0.363281,0.23437495 -0.363281,0.3867187 0,0.1875 0.152344,0.2578125 0.269531,0.2578125 0.164063,0 0.398438,-0.10546875 0.398438,-0.4453125 0,-0.46875 -0.539063,-0.5976562 -0.914063,-0.5976562 -1.042969,0 -2.015625,0.96093745 -2.015625,1.92187495 0,0.609375 0.421875,1.21875005 1.289063,1.21875005 1.183593,0 1.734375,-0.6914063 1.734375,-0.7851563 0,-0.046875 -0.07031,-0.1171875 -0.128907,-0.1171875 -0.03516,0 -0.04687,0.0117188 -0.105468,0.0703125 C 44.083859,1.36625 43.275266,1.36625 43.146359,1.36625 c -0.503906,0 -0.726562,-0.3398437 -0.726562,-0.7734375 0,-0.19921875 0.105469,-0.9609375 0.46875,-1.44140625 0.257812,-0.33984375 0.621094,-0.53906245 0.972656,-0.53906245 0.09375,0 0.433594,0.011719 0.609375,0.2109375 z m 0,0"
         style="fill:#000000;fill-opacity:1;fill-rule:nonzero;stroke:none" />
      <path
         id="path49"
         d="m 47.520383,-3.9833594 h 0.9375 c 0.199219,0 0.304687,0 0.304687,-0.1992187 0,-0.1054688 -0.105468,-0.1054688 -0.28125,-0.1054688 h -0.878906 c 0.363281,-1.4179687 0.410156,-1.6171875 0.410156,-1.6757812 0,-0.1757813 -0.117187,-0.2695313 -0.292968,-0.2695313 -0.02344,0 -0.304688,0.011719 -0.398438,0.3515625 l -0.386719,1.59375 h -0.9375 c -0.199218,0 -0.292968,0 -0.292968,0.1875 0,0.1171875 0.07031,0.1171875 0.269531,0.1171875 h 0.878906 c -0.714844,2.8242188 -0.75,3.00000003 -0.75,3.17578128 0,0.5390625 0.375,0.9140625 0.914063,0.9140625 1.007812,0 1.582031,-1.45312498 1.582031,-1.53515628 0,-0.09375 -0.08203,-0.09375 -0.117188,-0.09375 -0.09375,0 -0.105468,0.023437 -0.152343,0.140625 -0.433594,1.03125003 -0.960938,1.27734378 -1.300782,1.27734378 -0.199218,0 -0.304687,-0.12890625 -0.304687,-0.45703125 0,-0.24609375 0.02344,-0.31640625 0.05859,-0.48046873 z m 0,0"
         style="fill:#000000;fill-opacity:1;fill-rule:nonzero;stroke:none" />
      <path
         id="path50"
         d="m 51.95007,-2.4950781 c 0,-0.7734375 -0.117187,-1.9804688 -0.65625,-3.1054688 -0.597656,-1.21875 -1.464843,-1.875 -1.558593,-1.875 -0.05859,0 -0.105469,0.046875 -0.105469,0.1054688 0,0.035156 0,0.046875 0.199219,0.234375 0.972656,0.984375 1.535156,2.5664062 1.535156,4.640625 0,1.71093748 -0.363281,3.45703123 -1.59375,4.7226562 -0.140625,0.1171875 -0.140625,0.1289063 -0.140625,0.1640625 0,0.058594 0.04687,0.1054688 0.105469,0.1054688 0.09375,0 0.996093,-0.6796875 1.582031,-1.94531252 0.503906,-1.1015625 0.632812,-2.20312498 0.632812,-3.04687498 z m 0,0"
         style="fill:#000000;fill-opacity:1;fill-rule:nonzero;stroke:none" />
    </g>
    <path
       id="path51"
       d="m 28.3468,-27.94832 v 15.80066"
       style="fill:none;stroke:#000000;stroke-width:0.79701;stroke-linecap:butt;stroke-linejoin:miter;stroke-miterlimit:10;stroke-dasharray:none;stroke-opacity:1"
       transform="matrix(1.3333333,0,0,-1.3333333,286.42,27.988)" />
    <path
       id="path52"
       d="M 4.66248,0 C 3.28098,0.25902 1.0361,1.0361 -0.51805,1.94269 V -1.94269 C 1.0361,-1.0361 3.28098,-0.25902 4.66248,0"
       style="fill:#000000;fill-opacity:1;fill-rule:nonzero;stroke:none"
       transform="matrix(0,-1.3333333,-1.3333333,0,324.21573,44.18488)" />
    <path
       id="path53"
       d="M 35.832,0 H 51.63264"
       style="fill:none;stroke:#000000;stroke-width:0.79701;stroke-linecap:butt;stroke-linejoin:miter;stroke-miterlimit:10;stroke-dasharray:none;stroke-opacity:1"
       transform="matrix(1.3333333,0,0,-1.3333333,286.42,27.988)" />
    <path
       id="path54"
       d="M 4.66248,0 C 3.28098,0.25902 1.0361,1.0361 -0.51805,1.94269 V -1.94269 C 1.0361,-1.0361 3.28098,-0.25902 4.66248,0"
       style="fill:#000000;fill-opacity:1;fill-rule:nonzero;stroke:none"
       transform="matrix(1.3333333,0,0,-1.3333333,355.26352,27.988)" />
  </g>
</svg>
