<?xml version="1.0" encoding="UTF-8" standalone="no"?>
<!-- Created with Inkscape (http://www.inkscape.org/) -->

<svg
   version="1.1"
   id="svg1"
   width="161.96875"
   height="38.858398"
   viewBox="0 0 161.96875 38.858399"
   xmlns="http://www.w3.org/2000/svg"
   xmlns:svg="http://www.w3.org/2000/svg">
  <defs
     id="defs1" />
  <g
     id="g1"
     transform="translate(-18.257813,-13.284127)">
    <path
       id="path1"
       d="M 14.1734,-14.17339 H 42.52019 V 14.1734 H 14.1734 Z"
       style="fill:none;stroke:#000000;stroke-width:0.79701;stroke-linecap:butt;stroke-linejoin:miter;stroke-miterlimit:10;stroke-dasharray:none;stroke-opacity:1"
       transform="matrix(1.3333333,0,0,-1.3333333,32.858667,32.713333)" />
    <g
       id="g2"
       aria-label="G&#10;1"
       transform="matrix(1.3333333,0,0,1.3333333,62.452,36.254667)">
      <path
         id="path2"
         d="m 7.5711563,-6.9263516 c 0,-0.023437 -0.023437,-0.09375 -0.1054688,-0.09375 -0.035156,0 -0.046875,0.011719 -0.1523437,0.1171875 l -0.703125,0.7617188 c -0.082031,-0.140625 -0.5390625,-0.8789063 -1.6523438,-0.8789063 -2.2148437,0 -4.453125,2.203125 -4.453125,4.5117188 0,1.58203124 1.1015625,2.73046874 2.71875,2.73046874 0.4335938,0 0.8789063,-0.09375 1.2421875,-0.24609375 0.4921875,-0.19921875 0.6796875,-0.41015625 0.8671875,-0.609375 0.082031,0.2578125 0.3515625,0.62109375 0.4453125,0.62109375 0.046875,0 0.070312,-0.0234375 0.070312,-0.03515625 0.023437,-0.0234375 0.1171875,-0.3984375 0.1640625,-0.609375 L 6.2117813,-1.4302578 c 0.035156,-0.1640625 0.082031,-0.328125 0.1289062,-0.5039063 0.1054688,-0.4453125 0.1171875,-0.46875 0.6796875,-0.4804687 0.058594,0 0.1640625,-0.011719 0.1640625,-0.1992188 0,-0.070312 -0.046875,-0.1054687 -0.1289062,-0.1054687 -0.234375,0 -0.8203125,0.023437 -1.0429688,0.023437 -0.3164062,0 -1.0898437,-0.023437 -1.3945312,-0.023437 -0.09375,0 -0.2109375,0 -0.2109375,0.1992187 0,0.1054688 0.082031,0.1054688 0.2929687,0.1054688 0.011719,0 0.3046875,0 0.5273438,0.023437 0.2578125,0.035156 0.3164062,0.058594 0.3164062,0.1875 0,0.09375 -0.1171875,0.5390625 -0.2109375,0.9023437 -0.28125,1.10156254 -1.5820312,1.20703129 -1.921875,1.20703129 -0.9609375,0 -2.0039062,-0.5625 -2.0039062,-2.08593749 0,-0.3164063 0.09375,-1.9570313 1.1484375,-3.2460938 0.5390625,-0.6796875 1.5,-1.2890625 2.484375,-1.2890625 1.0195312,0 1.6054687,0.7734375 1.6054687,1.921875 0,0.3984375 -0.035156,0.4101563 -0.035156,0.5039063 0,0.1054687 0.1171875,0.1054687 0.1523437,0.1054687 0.1289063,0 0.1289063,-0.023437 0.1757813,-0.1992187 z m 0,0"
         style="fill:#000000;fill-opacity:1;fill-rule:nonzero;stroke:none" />
      <path
         id="path3"
         d="m 10.16393,-2.9361172 c 0,-0.1875 -0.01172,-0.1992187 -0.2109378,-0.1992187 -0.4453125,0.4335937 -1.078125,0.4453125 -1.359375,0.4453125 v 0.2460937 c 0.1640625,0 0.6210937,0 1.0078125,-0.1875 v 3.55078126 c 0,0.23437504 0,0.32812504 -0.6914063,0.32812504 H 8.6404922 v 0.2460937 c 0.1289062,-0.011719 0.984375,-0.023437 1.2421875,-0.023437 0.2109373,0 1.0898433,0.011719 1.2421873,0.023437 V 1.2474766 h -0.257812 c -0.703125,0 -0.703125,-0.09375 -0.703125,-0.32812504 z m 0,0"
         style="fill:#000000;fill-opacity:1;fill-rule:nonzero;stroke:none" />
    </g>
    <path
       id="path4"
       d="M 56.69363,-14.17339 H 85.04042 V 14.1734 H 56.69363 Z"
       style="fill:none;stroke:#000000;stroke-width:0.79701;stroke-linecap:butt;stroke-linejoin:miter;stroke-miterlimit:10;stroke-dasharray:none;stroke-opacity:1"
       transform="matrix(1.3333333,0,0,-1.3333333,32.858667,32.713333)" />
    <g
       id="g4"
       aria-label="G&#10;2"
       transform="matrix(1.3333333,0,0,1.3333333,119.14533,36.254667)">
      <path
         id="path5"
         d="m 7.5697109,-6.9263516 c 0,-0.023437 -0.023437,-0.09375 -0.1054687,-0.09375 -0.035156,0 -0.046875,0.011719 -0.1523438,0.1171875 l -0.703125,0.7617188 c -0.082031,-0.140625 -0.5390625,-0.8789063 -1.6523437,-0.8789063 -2.2148438,0 -4.45312501,2.203125 -4.45312501,4.5117188 0,1.58203124 1.10156251,2.73046874 2.71875001,2.73046874 0.4335937,0 0.8789062,-0.09375 1.2421875,-0.24609375 0.4921875,-0.19921875 0.6796875,-0.41015625 0.8671875,-0.609375 0.082031,0.2578125 0.3515625,0.62109375 0.4453125,0.62109375 0.046875,0 0.070312,-0.0234375 0.070312,-0.03515625 0.023437,-0.0234375 0.1171875,-0.3984375 0.1640625,-0.609375 L 6.2103359,-1.4302578 c 0.035156,-0.1640625 0.082031,-0.328125 0.1289063,-0.5039063 0.1054687,-0.4453125 0.1171875,-0.46875 0.6796875,-0.4804687 0.058594,0 0.1640625,-0.011719 0.1640625,-0.1992188 0,-0.070312 -0.046875,-0.1054687 -0.1289063,-0.1054687 -0.234375,0 -0.8203125,0.023437 -1.0429687,0.023437 -0.3164063,0 -1.0898438,-0.023437 -1.3945313,-0.023437 -0.09375,0 -0.2109375,0 -0.2109375,0.1992187 0,0.1054688 0.082031,0.1054688 0.2929688,0.1054688 0.011719,0 0.3046875,0 0.5273437,0.023437 0.2578125,0.035156 0.3164063,0.058594 0.3164063,0.1875 0,0.09375 -0.1171875,0.5390625 -0.2109375,0.9023437 -0.28125,1.10156254 -1.5820313,1.20703129 -1.921875,1.20703129 -0.9609375,0 -2.0039063,-0.5625 -2.0039063,-2.08593749 0,-0.3164063 0.09375,-1.9570313 1.1484375,-3.2460938 0.5390625,-0.6796875 1.5,-1.2890625 2.484375,-1.2890625 1.0195313,0 1.6054688,0.7734375 1.6054688,1.921875 0,0.3984375 -0.035156,0.4101563 -0.035156,0.5039063 0,0.1054687 0.1171875,0.1054687 0.1523438,0.1054687 0.1289062,0 0.1289062,-0.023437 0.1757812,-0.1992187 z m 0,0"
         style="fill:#000000;fill-opacity:1;fill-rule:nonzero;stroke:none" />
      <path
         id="path6"
         d="m 11.349008,0.22794531 h -0.234375 c -0.02344,0.15234375 -0.08203,0.5625 -0.175781,0.6328125 -0.05859,0.0351563 -0.597657,0.0351563 -0.691407,0.0351563 H 8.9583828 c 0.7382813,-0.64453125 0.984375,-0.84375 1.3945312,-1.171875 0.515625,-0.41015625 0.996094,-0.84375001 0.996094,-1.50000001 0,-0.84375 -0.738281,-1.359375 -1.6289064,-1.359375 -0.8671875,0 -1.453125,0.609375 -1.453125,1.2421875 0,0.3632813 0.3046875,0.3984375 0.375,0.3984375 0.1640625,0 0.375,-0.1171875 0.375,-0.375 0,-0.1289062 -0.058594,-0.3632813 -0.421875,-0.3632813 0.2226562,-0.5039062 0.6914062,-0.65625 1.0195312,-0.65625 0.7031252,0 1.0664062,0.5507813 1.0664062,1.1132813 0,0.609375 -0.433594,1.08984376 -0.65625,1.33593751 L 8.3372891,1.2240391 c -0.070312,0.058594 -0.070312,0.070312 -0.070312,0.2695312 H 11.14979 Z m 0,0"
         style="fill:#000000;fill-opacity:1;fill-rule:nonzero;stroke:none" />
    </g>
    <path
       id="path7"
       d="M 0,0 H 9.11243"
       style="fill:none;stroke:#000000;stroke-width:0.79701;stroke-linecap:butt;stroke-linejoin:miter;stroke-miterlimit:10;stroke-dasharray:none;stroke-opacity:1"
       transform="matrix(1.3333333,0,0,-1.3333333,32.858667,32.713333)" />
    <path
       id="path8"
       d="M 4.66248,0 C 3.28098,0.25902 1.0361,1.0361 -0.51805,1.94269 V -1.94269 C 1.0361,-1.0361 3.28098,-0.25902 4.66248,0"
       style="fill:#000000;fill-opacity:1;fill-rule:nonzero;stroke:none"
       transform="matrix(1.3333333,0,0,-1.3333333,45.008573,32.713333)" />
    <path
       id="path9"
       d="m 3.7384844,-6.1157578 c 0.058594,-0.234375 0.082031,-0.3398438 0.28125,-0.3632813 0.082031,-0.011719 0.3984375,-0.011719 0.5976562,-0.011719 0.7148438,0 1.8164063,0 1.8164063,0.984375 0,0.3398437 -0.1523438,1.0195312 -0.5507813,1.4179687 -0.2578125,0.2578125 -0.7851562,0.5742188 -1.6757812,0.5742188 H 3.0939531 Z m 1.4296875,2.7304687 c 1.0078125,-0.2226562 2.1914062,-0.9140625 2.1914062,-1.921875 0,-0.8554687 -0.890625,-1.5 -2.203125,-1.5 H 2.3205156 c -0.1992187,0 -0.2929687,0 -0.2929687,0.1992188 0,0.1171875 0.09375,0.1171875 0.28125,0.1171875 0.023437,0 0.2109375,0 0.3867187,0.011719 0.1757813,0.023437 0.2578125,0.035156 0.2578125,0.1640625 0,0.035156 0,0.070312 -0.035156,0.1875 l -1.3359375,5.35546879 c -0.09375,0.38671875 -0.1171875,0.46875 -0.90234377,0.46875 -0.17578125,0 -0.26953125,0 -0.26953125,0.19921875 0,0.10546875 0.1171875,0.10546875 0.140625,0.10546875 0.28125,0 0.97265622,-0.03515625 1.25390622,-0.03515625 0.28125,0 0.984375,0.03515625 1.265625,0.03515625 0.082031,0 0.1992188,0 0.1992188,-0.19921875 0,-0.10546875 -0.09375,-0.10546875 -0.28125,-0.10546875 -0.3632813,0 -0.6445313,0 -0.6445313,-0.1875 0,-0.0585937 0.011719,-0.10546875 0.023437,-0.1640625 l 0.65625,-2.63671879 h 1.1953125 c 0.9023438,0 1.078125,0.5507813 1.078125,0.9023438 0,0.1523437 -0.082031,0.4570312 -0.140625,0.6914062 -0.070312,0.2695313 -0.1523437,0.6445313 -0.1523437,0.84375004 0,1.078125 1.1953125,1.078125 1.3242187,1.078125 0.84375,0 1.1953125,-1.0078125 1.1953125,-1.1484375 0,-0.11718754 -0.1171875,-0.11718754 -0.1171875,-0.11718754 -0.09375,0 -0.1171875,0.0703125 -0.1289062,0.14062504 -0.2578125,0.73828125 -0.6796875,0.90234375 -0.9140625,0.90234375 -0.328125,0 -0.3984375,-0.22265625 -0.3984375,-0.609375 0,-0.3046875 0.058594,-0.82031249 0.1054687,-1.13671879 0.011719,-0.140625 0.035156,-0.328125 0.035156,-0.46875 0,-0.7617187 -0.6679688,-1.078125 -0.9374994,-1.1718753 z m 0,0"
       style="fill:#000000;fill-opacity:1;fill-rule:nonzero;stroke:none"
       aria-label="R"
       transform="matrix(1.3333333,0,0,1.3333333,17.710667,37.252)" />
    <path
       id="path10"
       d="m 85.43892,0 h 9.11244"
       style="fill:none;stroke:#000000;stroke-width:0.79701;stroke-linecap:butt;stroke-linejoin:miter;stroke-miterlimit:10;stroke-dasharray:none;stroke-opacity:1"
       transform="matrix(1.3333333,0,0,-1.3333333,32.858667,32.713333)" />
    <path
       id="path11"
       d="M 4.66248,0 C 3.28098,0.25902 1.0361,1.0361 -0.51805,1.94269 V -1.94269 C 1.0361,-1.0361 3.28098,-0.25902 4.66248,0"
       style="fill:#000000;fill-opacity:1;fill-rule:nonzero;stroke:none"
       transform="matrix(1.3333333,0,0,-1.3333333,158.92715,32.713333)" />
    <path
       id="path12"
       d="m 5.9425781,-5.6704453 0.140625,-0.140625 c 0.3046875,-0.2929688 0.6328125,-0.6328125 1.3125,-0.6796875 0.1054688,-0.011719 0.1992188,-0.011719 0.1992188,-0.1875 0,-0.082031 -0.058594,-0.1289063 -0.1289063,-0.1289063 -0.2578125,0 -0.5507812,0.035156 -0.8203125,0.035156 -0.328125,0 -0.6796875,-0.035156 -0.9960937,-0.035156 -0.058594,0 -0.1875,0 -0.1875,0.1992188 0,0.1054687 0.09375,0.1171875 0.1523437,0.1171875 0.070312,0 0.3515625,0.011719 0.3515625,0.2226562 0,0.1757813 -0.2226562,0.4335938 -0.2695312,0.4804688 l -2.3085938,2.6601562 -1.0898437,-2.953125 c -0.070312,-0.140625 -0.070312,-0.1640625 -0.070312,-0.1757812 0,-0.234375 0.4921875,-0.234375 0.5976562,-0.234375 0.1289063,0 0.234375,0 0.234375,-0.1992188 0,-0.1171875 -0.1171875,-0.1171875 -0.1523437,-0.1171875 -0.28125,0 -0.9726563,0.035156 -1.2539063,0.035156 -0.2460937,0 -0.86718747,-0.035156 -1.11328122,-0.035156 -0.0585938,0 -0.1875,0 -0.1875,0.1992188 0,0.1171875 0.09375,0.1171875 0.22265625,0.1171875 0.59765627,0 0.64453127,0.082031 0.72656247,0.3398437 l 1.2304688,3.2695313 c 0.011719,0.035156 0.035156,0.140625 0.035156,0.1757812 0,0.023437 -0.3984375,1.6289063 -0.4453125,1.80468754 -0.1289062,0.55078125 -0.140625,0.5859375 -0.9375,0.59765625 -0.18749997,0 -0.26953122,0 -0.26953122,0.19921875 0,0.10546875 0.11718752,0.10546875 0.14062502,0.10546875 0.28125,0 0.9726562,-0.03515625 1.2539062,-0.03515625 0.28125,0 0.9960938,0.03515625 1.2773438,0.03515625 0.070312,0 0.1875,0 0.1875,-0.19921875 0,-0.10546875 -0.082031,-0.10546875 -0.28125,-0.10546875 -0.011719,0 -0.1992188,0 -0.375,-0.0234375 -0.2109375,-0.0234375 -0.2695313,-0.0351563 -0.2695313,-0.1640625 0,-0.0703125 0.09375,-0.41015625 0.140625,-0.62109379 l 0.3515625,-1.40625 c 0.046875,-0.1875 0.058594,-0.2226562 0.140625,-0.3046875 z m 0,0"
       style="fill:#000000;fill-opacity:1;fill-rule:nonzero;stroke:none"
       aria-label="Y"
       transform="matrix(1.3333333,0,0,1.3333333,170.1,37.252)" />
    <path
       id="path13"
       d="m 42.9187,0 h 8.71394"
       style="fill:none;stroke:#000000;stroke-width:0.79701;stroke-linecap:butt;stroke-linejoin:miter;stroke-miterlimit:10;stroke-dasharray:none;stroke-opacity:1"
       transform="matrix(1.3333333,0,0,-1.3333333,32.858667,32.713333)" />
    <path
       id="path14"
       d="M 4.66248,0 C 3.28098,0.25902 1.0361,1.0361 -0.51805,1.94269 V -1.94269 C 1.0361,-1.0361 3.28098,-0.25902 4.66248,0"
       style="fill:#000000;fill-opacity:1;fill-rule:nonzero;stroke:none"
       transform="matrix(1.3333333,0,0,-1.3333333,101.70219,32.713333)" />
  </g>
</svg>
