<?xml version="1.0" encoding="UTF-8" standalone="no"?>
<!-- Created with Inkscape (http://www.inkscape.org/) -->

<svg
   version="1.1"
   id="svg1"
   width="150.9375"
   height="52.611736"
   viewBox="0 0 150.9375 52.611736"
   xmlns="http://www.w3.org/2000/svg"
   xmlns:svg="http://www.w3.org/2000/svg">
  <defs
     id="defs1" />
  <g
     id="g117"
     transform="translate(-1653.5663,-13.282794)">
    <path
       id="path118"
       d="m 33.72012,0 c 0,5.31589 -4.30928,9.62515 -9.62516,9.62515 -5.31589,0 -9.62516,-4.30926 -9.62516,-9.62515 0,-5.31589 4.30927,-9.62515 9.62516,-9.62515 5.31588,0 9.62516,4.30926 9.62516,9.62515 z"
       style="fill:none;stroke:#000000;stroke-width:0.79701;stroke-linecap:butt;stroke-linejoin:miter;stroke-miterlimit:10;stroke-dasharray:none;stroke-opacity:1"
       transform="matrix(1.3333333,0,0,-1.3333333,1668.476,32.712)" />
    <path
       id="path119"
       d="m 3.7025391,-3.2465937 c 0.09375,-0.1054688 0.09375,-0.140625 0.09375,-0.1640625 0,-0.046875 -0.046875,-0.09375 -0.070312,-0.140625 l -2.039063,-2.9414063 h 2.296875 c 1.6875,0 2.1796875,0.3515625 2.390625,1.9335938 h 0.2460937 l -0.28125,-2.25 H 0.81972656 c -0.24609375,0 -0.2578125,0 -0.2578125,0.234375 l 2.47265624,3.609375 -2.36718749,2.69531245 C 0.56191406,-0.1645625 0.56191406,-0.141125 0.56191406,-0.10596875 0.56191406,-5e-4 0.66738281,-5e-4 0.81972656,-5e-4 H 6.3392578 l 0.28125,-2.3554687 H 6.3744141 C 6.1986328,-0.69190625 5.5189453,-0.422375 3.9486328,-0.422375 H 1.2064453 Z m 0,0"
       style="fill:#000000;fill-opacity:1;fill-rule:nonzero;stroke:none"
       aria-label="Σ"
       transform="matrix(1.3333333,0,0,1.3333333,1695.8053,37.250667)" />
    <path
       id="path120"
       d="M 48.18994,-14.17339 H 76.53673 V 14.1734 H 48.18994 Z"
       style="fill:none;stroke:#000000;stroke-width:0.79701;stroke-linecap:butt;stroke-linejoin:miter;stroke-miterlimit:10;stroke-dasharray:none;stroke-opacity:1"
       transform="matrix(1.3333333,0,0,-1.3333333,1668.476,32.712)" />
    <path
       id="path121"
       d="m 7.5689688,-6.9262812 c 0,-0.023437 -0.023437,-0.09375 -0.1054688,-0.09375 -0.035156,0 -0.046875,0.011719 -0.1523437,0.1171875 L 6.6080313,-6.141125 C 6.526,-6.28175 6.0689688,-7.0200312 4.9556875,-7.0200312 c -2.2148437,0 -4.453125,2.203125 -4.453125,4.5117187 0,1.58203125 1.1015625,2.73046875 2.71875,2.73046875 0.4335938,0 0.8789063,-0.09375 1.2421875,-0.24609375 0.4921875,-0.19921875 0.6796875,-0.41015625 0.8671875,-0.609375 C 5.4127188,-0.3755 5.68225,-0.01221875 5.776,-0.01221875 c 0.046875,0 0.070312,-0.0234375 0.070312,-0.03515625 C 5.86975,-0.0708125 5.9635,-0.4458125 6.010375,-0.65675 L 6.2095938,-1.4301875 C 6.24475,-1.59425 6.291625,-1.7583125 6.3385,-1.9340937 c 0.1054688,-0.4453125 0.1171875,-0.46875 0.6796875,-0.4804688 0.058594,0 0.1640625,-0.011719 0.1640625,-0.1992187 0,-0.070312 -0.046875,-0.1054688 -0.1289062,-0.1054688 -0.234375,0 -0.8203125,0.023437 -1.0429688,0.023437 -0.3164062,0 -1.0898437,-0.023437 -1.3945312,-0.023437 -0.09375,0 -0.2109375,0 -0.2109375,0.1992188 0,0.1054687 0.082031,0.1054687 0.2929687,0.1054687 0.011719,0 0.3046875,0 0.5273438,0.023437 0.2578125,0.035156 0.3164062,0.058594 0.3164062,0.1875 0,0.09375 -0.1171875,0.5390625 -0.2109375,0.9023438 -0.28125,1.10156245 -1.5820312,1.2070312 -1.921875,1.2070312 -0.9609375,0 -2.0039062,-0.5625 -2.0039062,-2.0859375 0,-0.3164062 0.09375,-1.9570312 1.1484375,-3.2460937 0.5390625,-0.6796875 1.5,-1.2890625 2.484375,-1.2890625 1.0195312,0 1.6054687,0.7734375 1.6054687,1.921875 0,0.3984375 -0.035156,0.4101562 -0.035156,0.5039062 0,0.1054688 0.1171875,0.1054688 0.1523437,0.1054688 0.1289063,0 0.1289063,-0.023437 0.1757813,-0.1992188 z m 0,0"
       style="fill:#000000;fill-opacity:1;fill-rule:nonzero;stroke:none"
       aria-label="G"
       transform="matrix(1.3333333,0,0,1.3333333,1746.404,37.250667)" />
    <path
       id="path122"
       d="M 0,0 H 9.40881"
       style="fill:none;stroke:#000000;stroke-width:0.79701;stroke-linecap:butt;stroke-linejoin:miter;stroke-miterlimit:10;stroke-dasharray:none;stroke-opacity:1"
       transform="matrix(1.3333333,0,0,-1.3333333,1668.476,32.712)" />
    <path
       id="path123"
       d="M 4.66248,0 C 3.28098,0.25902 1.0361,1.0361 -0.51805,1.94269 V -1.94269 C 1.0361,-1.0361 3.28098,-0.25902 4.66248,0"
       style="fill:#000000;fill-opacity:1;fill-rule:nonzero;stroke:none"
       transform="matrix(1.3333333,0,0,-1.3333333,1681.0211,32.712)" />
    <path
       id="path124"
       d="m 3.7382734,-6.1176875 c 0.058594,-0.234375 0.082031,-0.3398437 0.28125,-0.3632812 0.082031,-0.011719 0.3984375,-0.011719 0.5976563,-0.011719 0.7148437,0 1.8164062,0 1.8164062,0.984375 0,0.3398438 -0.1523437,1.0195313 -0.5507812,1.4179688 C 5.6249922,-3.8325312 5.0976484,-3.516125 4.2070234,-3.516125 H 3.0937422 Z m 1.4296875,2.7304688 c 1.0078125,-0.2226563 2.1914063,-0.9140625 2.1914063,-1.921875 0,-0.8554688 -0.890625,-1.5 -2.203125,-1.5 H 2.3203047 c -0.1992188,0 -0.2929688,0 -0.2929688,0.1992187 0,0.1171875 0.09375,0.1171875 0.28125,0.1171875 0.023437,0 0.2109375,0 0.3867188,0.011719 0.1757812,0.023437 0.2578125,0.035156 0.2578125,0.1640625 0,0.035156 0,0.070312 -0.035156,0.1875 l -1.3359375,5.3554687 c -0.09375,0.38671875 -0.1171875,0.46875 -0.90234371,0.46875 -0.17578125,0 -0.26953125,0 -0.26953125,0.19921875 0,0.10546875 0.1171875,0.10546875 0.140625,0.10546875 0.28125,0 0.97265626,-0.03515625 1.25390626,-0.03515625 0.28125,0 0.984375,0.03515625 1.265625,0.03515625 0.082031,0 0.1992187,0 0.1992187,-0.19921875 0,-0.10546875 -0.09375,-0.10546875 -0.28125,-0.10546875 -0.3632812,0 -0.6445312,0 -0.6445312,-0.1875 0,-0.0585937 0.011719,-0.10546875 0.023437,-0.1640625 l 0.65625,-2.6367187 H 4.218742 c 0.9023437,0 1.078125,0.5507812 1.078125,0.9023437 0,0.1523438 -0.082031,0.4570313 -0.140625,0.6914063 -0.070312,0.2695312 -0.1523438,0.6445312 -0.1523438,0.84374995 0,1.078125 1.1953125,1.078125 1.3242188,1.078125 0.84375,0 1.1953125,-1.0078125 1.1953125,-1.1484375 0,-0.11718745 -0.1171875,-0.11718745 -0.1171875,-0.11718745 -0.09375,0 -0.1171875,0.0703125 -0.1289063,0.14062495 C 7.0195234,-0.1645625 6.5976484,-5e-4 6.3632734,-5e-4 c -0.328125,0 -0.3984375,-0.22265625 -0.3984375,-0.609375 0,-0.3046875 0.058594,-0.8203125 0.1054688,-1.1367187 0.011719,-0.140625 0.035156,-0.328125 0.035156,-0.46875 0,-0.7617188 -0.6679687,-1.078125 -0.9374998,-1.171875 z m 0,0"
       style="fill:#000000;fill-opacity:1;fill-rule:nonzero;stroke:none"
       aria-label="R"
       transform="matrix(1.3333333,0,0,1.3333333,1653.328,37.250667)" />
    <path
       id="path125"
       d="m 4.0779531,-2.2955469 h 2.7773438 c 0.140625,0 0.328125,0 0.328125,-0.1992187 0,-0.1992188 -0.1875,-0.1992188 -0.328125,-0.1992188 H 4.0779531 v -2.7890625 c 0,-0.1289062 0,-0.328125 -0.1992187,-0.328125 -0.1992188,0 -0.1992188,0.1992188 -0.1992188,0.328125 v 2.7890625 H 0.89045313 c -0.140625,0 -0.328125,0 -0.328125,0.1992188 0,0.1992187 0.1875,0.1992187 0.328125,0.1992187 H 3.6795156 v 2.80078128 c 0,0.12890625 0,0.328125 0.1992188,0.328125 0.1992187,0 0.1992187,-0.19921875 0.1992187,-0.328125 z m 0,0"
       style="fill:#000000;fill-opacity:1;fill-rule:nonzero;stroke:none"
       aria-label="+"
       transform="matrix(1.3333333,0,0,1.3333333,1675.504,26.646667)" />
    <path
       id="path126"
       d="m 0,-21.2601 h 24.09496 v 6.57396"
       style="fill:none;stroke:#000000;stroke-width:0.79701;stroke-linecap:butt;stroke-linejoin:miter;stroke-miterlimit:10;stroke-dasharray:none;stroke-opacity:1"
       transform="matrix(1.3333333,0,0,-1.3333333,1668.476,32.712)" />
    <path
       id="path127"
       d="M 4.66248,0 C 3.28098,0.25902 1.0361,1.0361 -0.51805,1.94269 V -1.94269 C 1.0361,-1.0361 3.28098,-0.25902 4.66248,0"
       style="fill:#000000;fill-opacity:1;fill-rule:nonzero;stroke:none"
       transform="matrix(0,-1.3333333,-1.3333333,0,1700.6026,52.29352)" />
    <path
       id="path128"
       d="m 6.2580156,-5.6716328 c 0.4804688,-0.7734375 0.9023438,-0.8085938 1.2773438,-0.8203125 0.1171875,-0.011719 0.1289062,-0.1875 0.1289062,-0.1875 0,-0.082031 -0.058594,-0.1289063 -0.1289062,-0.1289063 -0.2578125,0 -0.5507813,0.035156 -0.8203125,0.035156 -0.328125,0 -0.6679688,-0.035156 -0.984375,-0.035156 -0.058594,0 -0.1875,0 -0.1875,0.1992188 0,0.1054687 0.082031,0.1171875 0.1523437,0.1171875 0.2695313,0.011719 0.4570313,0.1171875 0.4570313,0.328125 0,0.1523437 -0.140625,0.3632812 -0.140625,0.375 L 2.9533281,-0.92553906 2.2736406,-6.1989766 c 0,-0.1640625 0.2226563,-0.2929687 0.6796875,-0.2929687 0.140625,0 0.2578125,0 0.2578125,-0.1992188 0,-0.09375 -0.082031,-0.1171875 -0.140625,-0.1171875 -0.3984375,0 -0.8320312,0.035156 -1.2421875,0.035156 -0.1757812,0 -0.3632812,-0.011719 -0.5390625,-0.011719 -0.1875,0 -0.37499998,-0.023437 -0.53906248,-0.023437 -0.0703125,0 -0.1875,0 -0.1875,0.1992188 0,0.1171875 0.0820313,0.1171875 0.24609375,0.1171875 0.55078123,0 0.56250003,0.082031 0.59765623,0.3398437 l 0.7851563,6.14062504 c 0.035156,0.19921875 0.070312,0.234375 0.1992187,0.234375 0.1640625,0 0.1992188,-0.0585938 0.28125,-0.1875 z m 0,0"
       style="fill:#000000;fill-opacity:1;fill-rule:nonzero;stroke:none"
       aria-label="V"
       transform="matrix(1.3333333,0,0,1.3333333,1652.816,65.597333)" />
    <path
       id="path129"
       d="m 4.0783984,-3.1175625 h 2.765625 c 0.1640625,0 0.3515625,0 0.3515625,-0.1992187 C 7.1955859,-3.516 7.0080859,-3.516 6.8440234,-3.516 h -2.765625 v -2.7539062 c 0,-0.1523438 0,-0.3632813 -0.1992187,-0.3632813 -0.1992188,0 -0.1992188,0.1757813 -0.1992188,0.3398438 V -3.516 H 0.90261719 c -0.17578125,0 -0.3515625,0 -0.3515625,0.1992188 0,0.1992187 0.17578125,0.1992187 0.3515625,0.1992187 H 3.6799609 v 2.71875 H 0.90261719 c -0.17578125,0 -0.3515625,0 -0.3515625,0.19921875 0,0.19921875 0.17578125,0.19921875 0.3515625,0.19921875 H 6.8440234 c 0.1640625,0 0.3515625,0 0.3515625,-0.19921875 0,-0.19921875 -0.1875,-0.19921875 -0.3515625,-0.19921875 h -2.765625 z m 0,0"
       style="fill:#000000;fill-opacity:1;fill-rule:nonzero;stroke:none"
       aria-label="±"
       transform="matrix(1.3333333,0,0,1.3333333,1685.312,57.188)" />
    <path
       id="path130"
       d="m 76.93524,0 h 9.11243"
       style="fill:none;stroke:#000000;stroke-width:0.79701;stroke-linecap:butt;stroke-linejoin:miter;stroke-miterlimit:10;stroke-dasharray:none;stroke-opacity:1"
       transform="matrix(1.3333333,0,0,-1.3333333,1668.476,32.712)" />
    <path
       id="path131"
       d="M 4.66248,0 C 3.28098,0.25902 1.0361,1.0361 -0.51805,1.94269 V -1.94269 C 1.0361,-1.0361 3.28098,-0.25902 4.66248,0"
       style="fill:#000000;fill-opacity:1;fill-rule:nonzero;stroke:none"
       transform="matrix(1.3333333,0,0,-1.3333333,1783.2062,32.712)" />
    <path
       id="path132"
       d="M 5.9404844,-5.672375 6.0811094,-5.813 c 0.3046875,-0.2929687 0.6328125,-0.6328125 1.3125,-0.6796875 0.1054687,-0.011719 0.1992187,-0.011719 0.1992187,-0.1875 0,-0.082031 -0.058594,-0.1289062 -0.1289062,-0.1289062 -0.2578125,0 -0.5507813,0.035156 -0.8203125,0.035156 -0.328125,0 -0.6796875,-0.035156 -0.9960938,-0.035156 -0.058594,0 -0.1875,0 -0.1875,0.1992187 0,0.1054688 0.09375,0.1171875 0.1523438,0.1171875 0.070312,0 0.3515625,0.011719 0.3515625,0.2226563 0,0.1757812 -0.2226563,0.4335937 -0.2695313,0.4804687 l -2.3085937,2.6601563 -1.0898438,-2.953125 c -0.070312,-0.140625 -0.070312,-0.1640625 -0.070312,-0.1757813 0,-0.234375 0.4921875,-0.234375 0.5976563,-0.234375 0.1289062,0 0.234375,0 0.234375,-0.1992187 0,-0.1171875 -0.1171875,-0.1171875 -0.1523438,-0.1171875 -0.28125,0 -0.9726562,0.035156 -1.2539062,0.035156 -0.2460938,0 -0.86718752,-0.035156 -1.11328127,-0.035156 -0.0585938,0 -0.1875,0 -0.1875,0.1992187 0,0.1171875 0.09375,0.1171875 0.22265625,0.1171875 0.59765622,0 0.64453122,0.082031 0.72656252,0.3398438 l 1.2304687,3.2695312 c 0.011719,0.035156 0.035156,0.140625 0.035156,0.1757813 0,0.023437 -0.3984375,1.6289062 -0.4453125,1.80468745 -0.1289063,0.55078125 -0.140625,0.5859375 -0.9375,0.59765625 -0.18750002,0 -0.26953127,0 -0.26953127,0.19921875 C 0.91314063,-5e-4 1.0303281,-5e-4 1.0537656,-5e-4 c 0.28125,0 0.9726563,-0.03515625 1.2539063,-0.03515625 0.28125,0 0.9960937,0.03515625 1.2773437,0.03515625 0.070312,0 0.1875,0 0.1875,-0.19921875 0,-0.10546875 -0.082031,-0.10546875 -0.28125,-0.10546875 -0.011719,0 -0.1992187,0 -0.375,-0.0234375 -0.2109375,-0.0234375 -0.2695312,-0.0351563 -0.2695312,-0.1640625 0,-0.0703125 0.09375,-0.41015625 0.140625,-0.6210937 l 0.3515625,-1.40625 c 0.046875,-0.1875 0.058594,-0.2226563 0.140625,-0.3046875 z m 0,0"
       style="fill:#000000;fill-opacity:1;fill-rule:nonzero;stroke:none"
       aria-label="Y"
       transform="matrix(1.3333333,0,0,1.3333333,1794.38,37.250667)" />
    <path
       id="path133"
       d="m 34.11862,0 h 9.01035"
       style="fill:none;stroke:#000000;stroke-width:0.79701;stroke-linecap:butt;stroke-linejoin:miter;stroke-miterlimit:10;stroke-dasharray:none;stroke-opacity:1"
       transform="matrix(1.3333333,0,0,-1.3333333,1668.476,32.712)" />
    <path
       id="path134"
       d="M 4.66248,0 C 3.28098,0.25902 1.0361,1.0361 -0.51805,1.94269 V -1.94269 C 1.0361,-1.0361 3.28098,-0.25902 4.66248,0"
       style="fill:#000000;fill-opacity:1;fill-rule:nonzero;stroke:none"
       transform="matrix(1.3333333,0,0,-1.3333333,1725.9813,32.712)" />
  </g>
</svg>
