<?xml version="1.0" encoding="UTF-8" standalone="no"?>
<!-- Created with Inkscape (http://www.inkscape.org/) -->

<svg
   version="1.1"
   id="svg1"
   width="194.40234"
   height="67.2052"
   viewBox="0 0 194.40234 67.2052"
   xmlns="http://www.w3.org/2000/svg"
   xmlns:svg="http://www.w3.org/2000/svg">
  <defs
     id="defs1" />
  <g
     id="g134"
     transform="translate(-1861.2156,-13.284127)">
    <path
       id="path135"
       d="M 14.1734,-14.17339 H 42.52019 V 14.1734 H 14.1734 Z"
       style="fill:none;stroke:#000000;stroke-width:0.79701;stroke-linecap:butt;stroke-linejoin:miter;stroke-miterlimit:10;stroke-dasharray:none;stroke-opacity:1"
       transform="matrix(1.3333333,0,0,-1.3333333,1876.1253,32.713333)" />
    <path
       id="path136"
       d="m 7.5712969,-6.9243516 c 0,-0.023437 -0.023437,-0.09375 -0.1054688,-0.09375 -0.035156,0 -0.046875,0.011719 -0.1523437,0.1171875 l -0.703125,0.7617188 c -0.082031,-0.140625 -0.5390625,-0.8789063 -1.6523438,-0.8789063 -2.2148437,0 -4.45312497,2.203125 -4.45312497,4.5117188 0,1.58203124 1.10156247,2.73046874 2.71874997,2.73046874 0.4335938,0 0.8789063,-0.09375 1.2421875,-0.24609375 0.4921875,-0.19921875 0.6796875,-0.41015625 0.8671875,-0.609375 0.082031,0.2578125 0.3515625,0.62109375 0.4453125,0.62109375 0.046875,0 0.070312,-0.0234375 0.070312,-0.03515625 0.023437,-0.0234375 0.1171875,-0.3984375 0.1640625,-0.609375 L 6.2119219,-1.4282578 c 0.035156,-0.1640625 0.082031,-0.328125 0.1289062,-0.5039063 0.1054688,-0.4453125 0.1171875,-0.46875 0.6796875,-0.4804687 0.058594,0 0.1640625,-0.011719 0.1640625,-0.1992188 0,-0.070312 -0.046875,-0.1054687 -0.1289062,-0.1054687 -0.234375,0 -0.8203125,0.023437 -1.0429688,0.023437 -0.3164062,0 -1.0898437,-0.023437 -1.3945312,-0.023437 -0.09375,0 -0.2109375,0 -0.2109375,0.1992187 0,0.1054688 0.082031,0.1054688 0.2929687,0.1054688 0.011719,0 0.3046875,0 0.5273438,0.023437 0.2578125,0.035156 0.3164062,0.058594 0.3164062,0.1875 0,0.09375 -0.1171875,0.5390625 -0.2109375,0.9023437 -0.28125,1.10156254 -1.5820312,1.20703129 -1.921875,1.20703129 -0.9609375,0 -2.0039062,-0.5625 -2.0039062,-2.08593749 0,-0.3164063 0.09375,-1.9570313 1.1484375,-3.2460938 0.5390625,-0.6796875 1.5,-1.2890625 2.484375,-1.2890625 1.0195312,0 1.6054687,0.7734375 1.6054687,1.921875 0,0.3984375 -0.035156,0.4101563 -0.035156,0.5039063 0,0.1054687 0.1171875,0.1054687 0.1523437,0.1054687 0.1289063,0 0.1289063,-0.023437 0.1757813,-0.1992187 z m 0,0"
       style="fill:#000000;fill-opacity:1;fill-rule:nonzero;stroke:none"
       aria-label="G"
       transform="matrix(1.3333333,0,0,1.3333333,1908.6987,37.252)" />
    <path
       id="path137"
       d="M 49.60692,-35.43349 H 77.95371 V -7.0867 H 49.60692 Z"
       style="fill:none;stroke:#000000;stroke-width:0.79701;stroke-linecap:butt;stroke-linejoin:miter;stroke-miterlimit:10;stroke-dasharray:none;stroke-opacity:1"
       transform="matrix(1.3333333,0,0,-1.3333333,1876.1253,32.713333)" />
    <path
       id="path138"
       d="m 7.5699375,-6.9265391 c 0,-0.023437 -0.023437,-0.09375 -0.1054687,-0.09375 -0.035156,0 -0.046875,0.011719 -0.1523438,0.1171875 L 6.609,-6.1413828 c -0.082031,-0.140625 -0.5390625,-0.8789063 -1.6523437,-0.8789063 -2.2148438,0 -4.45312505,2.203125 -4.45312505,4.5117188 0,1.58203124 1.10156255,2.73046874 2.71875005,2.73046874 0.4335937,0 0.8789062,-0.09375 1.2421875,-0.24609375 0.4921875,-0.19921875 0.6796875,-0.41015625 0.8671875,-0.609375 0.082031,0.2578125 0.3515625,0.62109375 0.4453125,0.62109375 0.046875,0 0.070312,-0.0234375 0.070312,-0.03515625 0.023437,-0.0234375 0.1171875,-0.3984375 0.1640625,-0.609375 L 6.2105625,-1.4304453 c 0.035156,-0.1640625 0.082031,-0.328125 0.1289063,-0.5039063 0.1054687,-0.4453125 0.1171875,-0.46875 0.6796875,-0.4804687 0.058594,0 0.1640625,-0.011719 0.1640625,-0.1992188 0,-0.070312 -0.046875,-0.1054687 -0.1289063,-0.1054687 -0.234375,0 -0.8203125,0.023437 -1.0429687,0.023437 -0.3164063,0 -1.0898438,-0.023437 -1.3945313,-0.023437 -0.09375,0 -0.2109375,0 -0.2109375,0.1992187 0,0.1054688 0.082031,0.1054688 0.2929688,0.1054688 0.011719,0 0.3046875,0 0.5273437,0.023437 0.2578125,0.035156 0.3164063,0.058594 0.3164063,0.1875 0,0.09375 -0.1171875,0.5390625 -0.2109375,0.9023437 -0.28125,1.10156254 -1.5820313,1.20703129 -1.921875,1.20703129 -0.9609375,0 -2.0039063,-0.5625 -2.0039063,-2.08593749 0,-0.3164063 0.09375,-1.9570313 1.1484375,-3.2460938 0.5390625,-0.6796875 1.5,-1.2890625 2.484375,-1.2890625 1.0195313,0 1.6054688,0.7734375 1.6054688,1.921875 0,0.3984375 -0.035156,0.4101563 -0.035156,0.5039063 0,0.1054687 0.1171875,0.1054687 0.1523438,0.1054687 0.1289062,0 0.1289062,-0.023437 0.1757812,-0.1992187 z m 0,0"
       style="fill:#000000;fill-opacity:1;fill-rule:nonzero;stroke:none"
       aria-label="G"
       transform="matrix(1.3333333,0,0,1.3333333,1955.9427,65.598667)" />
    <path
       id="path139"
       d="m 108.83902,0 c 0,5.31589 -4.30928,9.62515 -9.62517,9.62515 -5.31589,0 -9.62517,-4.30926 -9.62517,-9.62515 0,-5.31589 4.30928,-9.62515 9.62517,-9.62515 5.31589,0 9.62517,4.30926 9.62517,9.62515 z"
       style="fill:none;stroke:#000000;stroke-width:0.79701;stroke-linecap:butt;stroke-linejoin:miter;stroke-miterlimit:10;stroke-dasharray:none;stroke-opacity:1"
       transform="matrix(1.3333333,0,0,-1.3333333,1876.1253,32.713333)" />
    <path
       id="path140"
       d="m 3.7017266,-3.2446641 c 0.09375,-0.1054687 0.09375,-0.140625 0.09375,-0.1640625 0,-0.046875 -0.046875,-0.09375 -0.070312,-0.140625 l -2.039063,-2.9414062 h 2.296875 c 1.6875,0 2.1796875,0.3515625 2.390625,1.9335937 h 0.2460937 l -0.28125,-2.25 H 0.81891406 c -0.24609375,0 -0.2578125,0 -0.2578125,0.234375 l 2.47265624,3.609375 -2.36718749,2.69531254 c -0.10546875,0.10546875 -0.10546875,0.12890625 -0.10546875,0.1640625 0,0.10546875 0.10546875,0.10546875 0.2578125,0.10546875 H 6.3384453 l 0.28125,-2.35546879 H 6.3736016 C 6.1978203,-0.68997656 5.5181328,-0.42044531 3.9478203,-0.42044531 H 1.2056328 Z m 0,0"
       style="fill:#000000;fill-opacity:1;fill-rule:nonzero;stroke:none"
       aria-label="Σ"
       transform="matrix(1.3333333,0,0,1.3333333,2003.612,37.252)" />
    <path
       id="path141"
       d="M 0,0 H 9.11243"
       style="fill:none;stroke:#000000;stroke-width:0.79701;stroke-linecap:butt;stroke-linejoin:miter;stroke-miterlimit:10;stroke-dasharray:none;stroke-opacity:1"
       transform="matrix(1.3333333,0,0,-1.3333333,1876.1253,32.713333)" />
    <path
       id="path142"
       d="M 4.66248,0 C 3.28098,0.25902 1.0361,1.0361 -0.51805,1.94269 V -1.94269 C 1.0361,-1.0361 3.28098,-0.25902 4.66248,0"
       style="fill:#000000;fill-opacity:1;fill-rule:nonzero;stroke:none"
       transform="matrix(1.3333333,0,0,-1.3333333,1888.2752,32.713333)" />
    <path
       id="path143"
       d="m 3.7382734,-6.1157578 c 0.058594,-0.234375 0.082031,-0.3398438 0.28125,-0.3632813 0.082031,-0.011719 0.3984375,-0.011719 0.5976563,-0.011719 0.7148437,0 1.8164062,0 1.8164062,0.984375 0,0.3398437 -0.1523437,1.0195312 -0.5507812,1.4179687 -0.2578125,0.2578125 -0.7851563,0.5742188 -1.6757813,0.5742188 H 3.0937422 Z m 1.4296875,2.7304687 c 1.0078125,-0.2226562 2.1914063,-0.9140625 2.1914063,-1.921875 0,-0.8554687 -0.890625,-1.5 -2.203125,-1.5 H 2.3203047 c -0.1992188,0 -0.2929688,0 -0.2929688,0.1992188 0,0.1171875 0.09375,0.1171875 0.28125,0.1171875 0.023437,0 0.2109375,0 0.3867188,0.011719 0.1757812,0.023437 0.2578125,0.035156 0.2578125,0.1640625 0,0.035156 0,0.070312 -0.035156,0.1875 l -1.3359375,5.35546879 c -0.09375,0.38671875 -0.1171875,0.46875 -0.90234371,0.46875 -0.17578125,0 -0.26953125,0 -0.26953125,0.19921875 0,0.10546875 0.1171875,0.10546875 0.140625,0.10546875 0.28125,0 0.97265626,-0.03515625 1.25390626,-0.03515625 0.28125,0 0.984375,0.03515625 1.265625,0.03515625 0.082031,0 0.1992187,0 0.1992187,-0.19921875 0,-0.10546875 -0.09375,-0.10546875 -0.28125,-0.10546875 -0.3632812,0 -0.6445312,0 -0.6445312,-0.1875 0,-0.0585937 0.011719,-0.10546875 0.023437,-0.1640625 l 0.65625,-2.63671879 H 4.218742 c 0.9023437,0 1.078125,0.5507813 1.078125,0.9023438 0,0.1523437 -0.082031,0.4570312 -0.140625,0.6914062 -0.070312,0.2695313 -0.1523438,0.6445313 -0.1523438,0.84375004 0,1.078125 1.1953125,1.078125 1.3242188,1.078125 0.84375,0 1.1953125,-1.0078125 1.1953125,-1.1484375 0,-0.11718754 -0.1171875,-0.11718754 -0.1171875,-0.11718754 -0.09375,0 -0.1171875,0.0703125 -0.1289063,0.14062504 -0.2578125,0.73828125 -0.6796875,0.90234375 -0.9140625,0.90234375 -0.328125,0 -0.3984375,-0.22265625 -0.3984375,-0.609375 0,-0.3046875 0.058594,-0.82031249 0.1054688,-1.13671879 0.011719,-0.140625 0.035156,-0.328125 0.035156,-0.46875 0,-0.7617187 -0.6679687,-1.078125 -0.9374996,-1.1718753 z m 0,0"
       style="fill:#000000;fill-opacity:1;fill-rule:nonzero;stroke:none"
       aria-label="R"
       transform="matrix(1.3333333,0,0,1.3333333,1860.9773,37.252)" />
    <path
       id="path144"
       d="M 0,-21.2601 H 44.54594"
       style="fill:none;stroke:#000000;stroke-width:0.79701;stroke-linecap:butt;stroke-linejoin:miter;stroke-miterlimit:10;stroke-dasharray:none;stroke-opacity:1"
       transform="matrix(1.3333333,0,0,-1.3333333,1876.1253,32.713333)" />
    <path
       id="path145"
       d="M 4.66248,0 C 3.28098,0.25902 1.0361,1.0361 -0.51805,1.94269 V -1.94269 C 1.0361,-1.0361 3.28098,-0.25902 4.66248,0"
       style="fill:#000000;fill-opacity:1;fill-rule:nonzero;stroke:none"
       transform="matrix(1.3333333,0,0,-1.3333333,1935.5199,61.060133)" />
    <path
       id="path146"
       d="m 6.2580156,-5.6726328 c 0.4804688,-0.7734375 0.9023438,-0.8085938 1.2773438,-0.8203125 0.1171875,-0.011719 0.1289062,-0.1875 0.1289062,-0.1875 0,-0.082031 -0.058594,-0.1289063 -0.1289062,-0.1289063 -0.2578125,0 -0.5507813,0.035156 -0.8203125,0.035156 -0.328125,0 -0.6679688,-0.035156 -0.984375,-0.035156 -0.058594,0 -0.1875,0 -0.1875,0.1992188 0,0.1054687 0.082031,0.1171875 0.1523437,0.1171875 0.2695313,0.011719 0.4570313,0.1171875 0.4570313,0.328125 0,0.1523437 -0.140625,0.3632812 -0.140625,0.375 L 2.9533281,-0.92653906 2.2736406,-6.1999766 c 0,-0.1640625 0.2226563,-0.2929687 0.6796875,-0.2929687 0.140625,0 0.2578125,0 0.2578125,-0.1992188 0,-0.09375 -0.082031,-0.1171875 -0.140625,-0.1171875 -0.3984375,0 -0.8320312,0.035156 -1.2421875,0.035156 -0.1757812,0 -0.3632812,-0.011719 -0.5390625,-0.011719 -0.1875,0 -0.37499998,-0.023437 -0.53906248,-0.023437 -0.0703125,0 -0.1875,0 -0.1875,0.1992188 0,0.1171875 0.0820313,0.1171875 0.24609375,0.1171875 0.55078123,0 0.56250003,0.082031 0.59765623,0.3398437 l 0.7851563,6.14062504 c 0.035156,0.19921875 0.070312,0.234375 0.1992187,0.234375 0.1640625,0 0.1992188,-0.0585938 0.28125,-0.1875 z m 0,0"
       style="fill:#000000;fill-opacity:1;fill-rule:nonzero;stroke:none"
       aria-label="V"
       transform="matrix(1.3333333,0,0,1.3333333,1860.4653,65.598667)" />
    <path
       id="path147"
       d="m 109.23752,0 h 9.40883"
       style="fill:none;stroke:#000000;stroke-width:0.79701;stroke-linecap:butt;stroke-linejoin:miter;stroke-miterlimit:10;stroke-dasharray:none;stroke-opacity:1"
       transform="matrix(1.3333333,0,0,-1.3333333,1876.1253,32.713333)" />
    <path
       id="path148"
       d="M 4.66248,0 C 3.28098,0.25902 1.0361,1.0361 -0.51805,1.94269 V -1.94269 C 1.0361,-1.0361 3.28098,-0.25902 4.66248,0"
       style="fill:#000000;fill-opacity:1;fill-rule:nonzero;stroke:none"
       transform="matrix(1.3333333,0,0,-1.3333333,2034.3205,32.713333)" />
    <path
       id="path149"
       d="m 5.9411172,-5.6704453 0.140625,-0.140625 c 0.3046875,-0.2929688 0.6328125,-0.6328125 1.3125,-0.6796875 0.1054687,-0.011719 0.1992187,-0.011719 0.1992187,-0.1875 0,-0.082031 -0.058594,-0.1289063 -0.1289062,-0.1289063 -0.2578125,0 -0.5507813,0.035156 -0.8203125,0.035156 -0.328125,0 -0.6796875,-0.035156 -0.9960938,-0.035156 -0.058594,0 -0.1875,0 -0.1875,0.1992188 0,0.1054687 0.09375,0.1171875 0.1523438,0.1171875 0.070312,0 0.3515625,0.011719 0.3515625,0.2226562 0,0.1757813 -0.2226563,0.4335938 -0.2695313,0.4804688 l -2.3085937,2.6601562 -1.0898438,-2.953125 c -0.070312,-0.140625 -0.070312,-0.1640625 -0.070312,-0.1757812 0,-0.234375 0.4921875,-0.234375 0.5976563,-0.234375 0.1289062,0 0.234375,0 0.234375,-0.1992188 0,-0.1171875 -0.1171875,-0.1171875 -0.1523438,-0.1171875 -0.28125,0 -0.9726562,0.035156 -1.2539062,0.035156 -0.2460938,0 -0.86718751,-0.035156 -1.11328126,-0.035156 -0.0585938,0 -0.1875,0 -0.1875,0.1992188 0,0.1171875 0.09375,0.1171875 0.22265625,0.1171875 0.59765621,0 0.64453121,0.082031 0.72656251,0.3398437 l 1.2304687,3.2695313 c 0.011719,0.035156 0.035156,0.140625 0.035156,0.1757812 0,0.023437 -0.3984375,1.6289063 -0.4453125,1.80468754 -0.1289063,0.55078125 -0.140625,0.5859375 -0.9375,0.59765625 -0.18750001,0 -0.26953126,0 -0.26953126,0.19921875 0,0.10546875 0.11718746,0.10546875 0.14062496,0.10546875 0.28125,0 0.9726563,-0.03515625 1.2539063,-0.03515625 0.28125,0 0.9960937,0.03515625 1.2773437,0.03515625 0.070312,0 0.1875,0 0.1875,-0.19921875 0,-0.10546875 -0.082031,-0.10546875 -0.28125,-0.10546875 -0.011719,0 -0.1992187,0 -0.375,-0.0234375 -0.2109375,-0.0234375 -0.2695312,-0.0351563 -0.2695312,-0.1640625 0,-0.0703125 0.09375,-0.41015625 0.140625,-0.62109379 l 0.3515625,-1.40625 c 0.046875,-0.1875 0.058594,-0.2226562 0.140625,-0.3046875 z m 0,0"
       style="fill:#000000;fill-opacity:1;fill-rule:nonzero;stroke:none"
       aria-label="Y"
       transform="matrix(1.3333333,0,0,1.3333333,2045.4933,37.252)" />
    <path
       id="path150"
       d="M 42.9187,0 H 84.52771"
       style="fill:none;stroke:#000000;stroke-width:0.79701;stroke-linecap:butt;stroke-linejoin:miter;stroke-miterlimit:10;stroke-dasharray:none;stroke-opacity:1"
       transform="matrix(1.3333333,0,0,-1.3333333,1876.1253,32.713333)" />
    <path
       id="path151"
       d="M 4.66248,0 C 3.28098,0.25902 1.0361,1.0361 -0.51805,1.94269 V -1.94269 C 1.0361,-1.0361 3.28098,-0.25902 4.66248,0"
       style="fill:#000000;fill-opacity:1;fill-rule:nonzero;stroke:none"
       transform="matrix(1.3333333,0,0,-1.3333333,1988.8289,32.713333)" />
    <path
       id="path152"
       d="m 4.0771875,-2.2965469 h 2.7773438 c 0.140625,0 0.328125,0 0.328125,-0.1992187 0,-0.1992188 -0.1875,-0.1992188 -0.328125,-0.1992188 H 4.0771875 v -2.7890625 c 0,-0.1289062 0,-0.328125 -0.1992187,-0.328125 -0.1992188,0 -0.1992188,0.1992188 -0.1992188,0.328125 v 2.7890625 H 0.8896875 c -0.140625,0 -0.328125,0 -0.328125,0.1992188 0,0.1992187 0.1875,0.1992187 0.328125,0.1992187 H 3.67875 v 2.80078128 c 0,0.12890625 0,0.328125 0.1992188,0.328125 0.1992187,0 0.1992187,-0.19921875 0.1992187,-0.328125 z m 0,0"
       style="fill:#000000;fill-opacity:1;fill-rule:nonzero;stroke:none"
       aria-label="+"
       transform="matrix(1.3333333,0,0,1.3333333,1982.4747,26.648)" />
    <path
       id="path153"
       d="m 78.35222,-21.2601 h 20.86163 v 6.57396"
       style="fill:none;stroke:#000000;stroke-width:0.79701;stroke-linecap:butt;stroke-linejoin:miter;stroke-miterlimit:10;stroke-dasharray:none;stroke-opacity:1"
       transform="matrix(1.3333333,0,0,-1.3333333,1876.1253,32.713333)" />
    <path
       id="path154"
       d="M 4.66248,0 C 3.28098,0.25902 1.0361,1.0361 -0.51805,1.94269 V -1.94269 C 1.0361,-1.0361 3.28098,-0.25902 4.66248,0"
       style="fill:#000000;fill-opacity:1;fill-rule:nonzero;stroke:none"
       transform="matrix(0,-1.3333333,-1.3333333,0,2008.4105,52.294853)" />
    <path
       id="path155"
       d="m 4.0785859,-3.1185625 h 2.765625 c 0.1640625,0 0.3515625,0 0.3515625,-0.1992187 C 7.1957734,-3.517 7.0082734,-3.517 6.8442109,-3.517 h -2.765625 v -2.7539062 c 0,-0.1523438 0,-0.3632813 -0.1992187,-0.3632813 -0.1992188,0 -0.1992188,0.1757813 -0.1992188,0.3398438 V -3.517 H 0.90280469 c -0.17578125,0 -0.3515625,0 -0.3515625,0.1992188 0,0.1992187 0.17578125,0.1992187 0.3515625,0.1992187 H 3.6801484 v 2.71875 H 0.90280469 c -0.17578125,0 -0.3515625,0 -0.3515625,0.19921875 0,0.19921875 0.17578125,0.19921875 0.3515625,0.19921875 H 6.8442109 c 0.1640625,0 0.3515625,0 0.3515625,-0.19921875 0,-0.19921875 -0.1875,-0.19921875 -0.3515625,-0.19921875 h -2.765625 z m 0,0"
       style="fill:#000000;fill-opacity:1;fill-rule:nonzero;stroke:none"
       aria-label="±"
       transform="matrix(1.3333333,0,0,1.3333333,1993.1173,57.189333)" />
  </g>
</svg>
