<?xml version="1.0" encoding="UTF-8" standalone="no"?>
<!-- Created with Inkscape (http://www.inkscape.org/) -->

<svg
   version="1.1"
   id="svg1"
   width="137.40237"
   height="61.96875"
   viewBox="0 0 137.40237 61.96875"
   xmlns="http://www.w3.org/2000/svg"
   xmlns:svg="http://www.w3.org/2000/svg">
  <defs
     id="defs1" />
  <g
     id="g236"
     transform="translate(-3057.3151,-17.710938)">
    <path
       id="path237"
       d="m 33.72012,0 c 0,5.31589 -4.30928,9.62515 -9.62516,9.62515 -5.31589,0 -9.62516,-4.30926 -9.62516,-9.62515 0,-5.31589 4.30927,-9.62515 9.62516,-9.62515 5.31588,0 9.62516,4.30926 9.62516,9.62515 z"
       style="fill:none;stroke:#000000;stroke-width:0.79701;stroke-linecap:butt;stroke-linejoin:miter;stroke-miterlimit:10;stroke-dasharray:none;stroke-opacity:1"
       transform="matrix(1.3333333,0,0,-1.3333333,3071.916,31.525333)" />
    <path
       id="path238"
       d="m 3.70275,-3.2472188 c 0.09375,-0.1054687 0.09375,-0.140625 0.09375,-0.1640625 0,-0.046875 -0.046875,-0.09375 -0.070312,-0.140625 L 1.687125,-6.4933125 H 3.984 c 1.6875,0 2.1796875,0.3515625 2.390625,1.9335937 h 0.2460938 l -0.28125,-2.25 H 0.8199375 c -0.24609375,0 -0.2578125,0 -0.2578125,0.234375 l 2.4726563,3.609375 -2.36718755,2.69531255 C 0.562125,-0.1651875 0.562125,-0.14175 0.562125,-0.10659375 c 0,0.10546875 0.10546875,0.10546875 0.2578125,0.10546875 h 5.5195313 l 0.28125,-2.3554688 H 6.374625 C 6.1988438,-0.69253125 5.5191563,-0.423 3.9488438,-0.423 H 1.2066563 Z m 0,0"
       style="fill:#000000;fill-opacity:1;fill-rule:nonzero;stroke:none"
       aria-label="Σ"
       transform="matrix(1.3333333,0,0,1.3333333,3099.2453,36.064)" />
    <path
       id="path239"
       d="m 66.31879,0 c 0,5.31589 -4.30927,9.62515 -9.62516,9.62515 -5.3159,0 -9.62516,-4.30926 -9.62516,-9.62515 0,-5.31589 4.30926,-9.62515 9.62516,-9.62515 5.31589,0 9.62516,4.30926 9.62516,9.62515 z"
       style="fill:none;stroke:#000000;stroke-width:0.79701;stroke-linecap:butt;stroke-linejoin:miter;stroke-miterlimit:10;stroke-dasharray:none;stroke-opacity:1"
       transform="matrix(1.3333333,0,0,-1.3333333,3071.916,31.525333)" />
    <path
       id="path240"
       d="m 3.7033828,-3.2472188 c 0.09375,-0.1054687 0.09375,-0.140625 0.09375,-0.1640625 0,-0.046875 -0.046875,-0.09375 -0.070312,-0.140625 l -2.039063,-2.9414062 h 2.296875 c 1.6875,0 2.1796875,0.3515625 2.390625,1.9335937 h 0.2460938 l -0.28125,-2.25 H 0.82057031 c -0.24609375,0 -0.2578125,0 -0.2578125,0.234375 l 2.47265629,3.609375 -2.36718754,2.69531255 C 0.56275781,-0.1651875 0.56275781,-0.14175 0.56275781,-0.10659375 c 0,0.10546875 0.10546875,0.10546875 0.2578125,0.10546875 H 6.3401016 l 0.28125,-2.3554688 H 6.3752578 C 6.1994766,-0.69253125 5.5197891,-0.423 3.9494766,-0.423 H 1.2072891 Z m 0,0"
       style="fill:#000000;fill-opacity:1;fill-rule:nonzero;stroke:none"
       aria-label="Σ"
       transform="matrix(1.3333333,0,0,1.3333333,3142.7093,36.064)" />
    <path
       id="path241"
       d="M 0,0 H 9.40881"
       style="fill:none;stroke:#000000;stroke-width:0.79701;stroke-linecap:butt;stroke-linejoin:miter;stroke-miterlimit:10;stroke-dasharray:none;stroke-opacity:1"
       transform="matrix(1.3333333,0,0,-1.3333333,3071.916,31.525333)" />
    <path
       id="path242"
       d="M 4.66248,0 C 3.28098,0.25902 1.0361,1.0361 -0.51805,1.94269 V -1.94269 C 1.0361,-1.0361 3.28098,-0.25902 4.66248,0"
       style="fill:#000000;fill-opacity:1;fill-rule:nonzero;stroke:none"
       transform="matrix(1.3333333,0,0,-1.3333333,3084.4611,31.525333)" />
    <path
       id="path243"
       d="m 3.7384844,-6.1183125 c 0.058594,-0.234375 0.082031,-0.3398438 0.28125,-0.3632813 0.082031,-0.011719 0.3984375,-0.011719 0.5976562,-0.011719 0.7148438,0 1.8164063,0 1.8164063,0.984375 0,0.3398437 -0.1523438,1.0195312 -0.5507813,1.4179687 C 5.6252031,-3.8331563 5.0978594,-3.51675 4.2072344,-3.51675 H 3.0939531 Z m 1.4296875,2.7304687 c 1.0078125,-0.2226562 2.1914062,-0.9140625 2.1914062,-1.921875 0,-0.8554687 -0.890625,-1.5 -2.203125,-1.5 H 2.3205156 c -0.1992187,0 -0.2929687,0 -0.2929687,0.1992188 0,0.1171875 0.09375,0.1171875 0.28125,0.1171875 0.023437,0 0.2109375,0 0.3867187,0.011719 0.1757813,0.023437 0.2578125,0.035156 0.2578125,0.1640625 0,0.035156 0,0.070312 -0.035156,0.1875 l -1.3359375,5.3554688 c -0.09375,0.38671875 -0.1171875,0.46875 -0.90234377,0.46875 -0.17578125,0 -0.26953125,0 -0.26953125,0.19921875 0,0.10546875 0.1171875,0.10546875 0.140625,0.10546875 0.28125,0 0.97265622,-0.03515625 1.25390622,-0.03515625 0.28125,0 0.984375,0.03515625 1.265625,0.03515625 0.082031,0 0.1992188,0 0.1992188,-0.19921875 0,-0.10546875 -0.09375,-0.10546875 -0.28125,-0.10546875 -0.3632813,0 -0.6445313,0 -0.6445313,-0.1875 0,-0.0585938 0.011719,-0.10546875 0.023437,-0.1640625 l 0.65625,-2.6367188 h 1.1953125 c 0.9023438,0 1.078125,0.5507813 1.078125,0.9023438 0,0.1523437 -0.082031,0.4570312 -0.140625,0.6914062 -0.070312,0.2695313 -0.1523437,0.6445313 -0.1523437,0.84375005 0,1.078125 1.1953125,1.078125 1.3242187,1.078125 0.84375,0 1.1953125,-1.0078125 1.1953125,-1.1484375 0,-0.11718755 -0.1171875,-0.11718755 -0.1171875,-0.11718755 -0.09375,0 -0.1171875,0.0703125 -0.1289062,0.14062505 C 7.0197344,-0.1651875 6.5978594,-0.001125 6.3634844,-0.001125 c -0.328125,0 -0.3984375,-0.22265625 -0.3984375,-0.609375 0,-0.3046875 0.058594,-0.8203125 0.1054687,-1.1367188 0.011719,-0.140625 0.035156,-0.328125 0.035156,-0.46875 0,-0.7617187 -0.6679688,-1.078125 -0.9374997,-1.171875 z m 0,0"
       style="fill:#000000;fill-opacity:1;fill-rule:nonzero;stroke:none"
       aria-label="R"
       transform="matrix(1.3333333,0,0,1.3333333,3056.768,36.064)" />
    <path
       id="path244"
       d="m 4.0781641,-2.2961719 h 2.7773437 c 0.140625,0 0.328125,0 0.328125,-0.1992187 0,-0.1992188 -0.1875,-0.1992188 -0.328125,-0.1992188 H 4.0781641 v -2.7890625 c 0,-0.1289062 0,-0.328125 -0.1992188,-0.328125 -0.1992187,0 -0.1992187,0.1992188 -0.1992187,0.328125 v 2.7890625 H 0.89066406 c -0.140625,0 -0.328125,0 -0.328125,0.1992188 0,0.1992187 0.1875,0.1992187 0.328125,0.1992187 H 3.6797266 v 2.80078127 c 0,0.12890625 0,0.328125 0.1992187,0.328125 0.1992188,0 0.1992188,-0.19921875 0.1992188,-0.328125 z m 0,0"
       style="fill:#000000;fill-opacity:1;fill-rule:nonzero;stroke:none"
       aria-label="+"
       transform="matrix(1.3333333,0,0,1.3333333,3078.944,25.46)" />
    <path
       id="path245"
       d="m 24.09496,-24.09496 v 9.40882"
       style="fill:none;stroke:#000000;stroke-width:0.79701;stroke-linecap:butt;stroke-linejoin:miter;stroke-miterlimit:10;stroke-dasharray:none;stroke-opacity:1"
       transform="matrix(1.3333333,0,0,-1.3333333,3071.916,31.525333)" />
    <path
       id="path246"
       d="M 4.66248,0 C 3.28098,0.25902 1.0361,1.0361 -0.51805,1.94269 V -1.94269 C 1.0361,-1.0361 3.28098,-0.25902 4.66248,0"
       style="fill:#000000;fill-opacity:1;fill-rule:nonzero;stroke:none"
       transform="matrix(0,-1.3333333,-1.3333333,0,3104.0426,51.106853)" />
    <g
       id="g246"
       aria-label="V&#10;1"
       transform="matrix(1.3333333,0,0,1.3333333,3097.188,77.686667)">
      <path
         id="path247"
         d="m 6.2564922,-5.67125 c 0.4804687,-0.7734375 0.9023437,-0.8085938 1.2773437,-0.8203125 0.1171875,-0.011719 0.1289063,-0.1875 0.1289063,-0.1875 0,-0.082031 -0.058594,-0.1289063 -0.1289063,-0.1289063 -0.2578125,0 -0.5507812,0.035156 -0.8203125,0.035156 -0.328125,0 -0.6679687,-0.035156 -0.984375,-0.035156 -0.058594,0 -0.1875,0 -0.1875,0.1992188 0,0.1054687 0.082031,0.1171875 0.1523438,0.1171875 0.2695312,0.011719 0.4570312,0.1171875 0.4570312,0.328125 0,0.1523437 -0.140625,0.3632812 -0.140625,0.375 L 2.9518047,-0.92515625 2.2721172,-6.1985938 c 0,-0.1640625 0.2226562,-0.2929687 0.6796875,-0.2929687 0.140625,0 0.2578125,0 0.2578125,-0.1992188 0,-0.09375 -0.082031,-0.1171875 -0.140625,-0.1171875 -0.3984375,0 -0.8320313,0.035156 -1.2421875,0.035156 -0.1757813,0 -0.3632813,-0.011719 -0.5390625,-0.011719 -0.1875,0 -0.37500001,-0.023437 -0.53906251,-0.023437 -0.0703125,0 -0.1875,0 -0.1875,0.1992188 0,0.1171875 0.0820313,0.1171875 0.24609375,0.1171875 0.55078126,0 0.56249996,0.082031 0.59765626,0.3398437 l 0.7851562,6.14062505 c 0.035156,0.19921875 0.070312,0.234375 0.1992188,0.234375 0.1640625,0 0.1992187,-0.0585938 0.28125,-0.1875 z m 0,0"
         style="fill:#000000;fill-opacity:1;fill-rule:nonzero;stroke:none" />
      <path
         id="path248"
         d="m 8.1432109,-2.9349219 c 0,-0.1875 -0.011719,-0.1992187 -0.2109375,-0.1992187 -0.4453125,0.4335937 -1.078125,0.4453125 -1.359375,0.4453125 v 0.2460937 c 0.1640625,0 0.6210938,0 1.0078125,-0.1875 v 3.55078127 c 0,0.23437503 0,0.32812503 -0.6914062,0.32812503 H 6.6197734 v 0.2460937 c 0.1289063,-0.011719 0.984375,-0.023437 1.2421875,-0.023437 0.2109375,0 1.0898438,0.011719 1.2421875,0.023437 V 1.2486719 H 8.8463359 c -0.703125,0 -0.703125,-0.09375 -0.703125,-0.32812503 z m 0,0"
         style="fill:#000000;fill-opacity:1;fill-rule:nonzero;stroke:none" />
    </g>
    <path
       id="path249"
       d="m 4.0786094,-3.1180547 h 2.765625 c 0.1640625,0 0.3515625,0 0.3515625,-0.1992187 0,-0.1992188 -0.1875,-0.1992188 -0.3515625,-0.1992188 h -2.765625 v -2.7539062 c 0,-0.1523438 0,-0.3632813 -0.1992188,-0.3632813 -0.1992187,0 -0.1992187,0.1757813 -0.1992187,0.3398438 v 2.7773437 H 0.90282812 c -0.17578125,0 -0.3515625,0 -0.3515625,0.1992188 0,0.1992187 0.17578125,0.1992187 0.3515625,0.1992187 H 3.6801719 v 2.71875001 H 0.90282812 c -0.17578125,0 -0.3515625,0 -0.3515625,0.19921875 0,0.1992187525 0.17578125,0.1992187525 0.3515625,0.1992187525 H 6.8442344 c 0.1640625,0 0.3515625,0 0.3515625,-0.1992187525 0,-0.19921875 -0.1875,-0.19921875 -0.3515625,-0.19921875 h -2.765625 z m 0,0"
       style="fill:#000000;fill-opacity:1;fill-rule:nonzero;stroke:none"
       aria-label="±"
       transform="matrix(1.3333333,0,0,1.3333333,3088.752,55.716)" />
    <path
       id="path250"
       d="m 56.69363,-24.09496 v 9.40882"
       style="fill:none;stroke:#000000;stroke-width:0.79701;stroke-linecap:butt;stroke-linejoin:miter;stroke-miterlimit:10;stroke-dasharray:none;stroke-opacity:1"
       transform="matrix(1.3333333,0,0,-1.3333333,3071.916,31.525333)" />
    <path
       id="path251"
       d="M 4.66248,0 C 3.28098,0.25902 1.0361,1.0361 -0.51805,1.94269 V -1.94269 C 1.0361,-1.0361 3.28098,-0.25902 4.66248,0"
       style="fill:#000000;fill-opacity:1;fill-rule:nonzero;stroke:none"
       transform="matrix(0,-1.3333333,-1.3333333,0,3147.5075,51.106853)" />
    <g
       id="g251"
       aria-label="V&#10;2"
       transform="matrix(1.3333333,0,0,1.3333333,3140.652,77.686667)">
      <path
         id="path252"
         d="m 6.257125,-5.67125 c 0.4804688,-0.7734375 0.9023438,-0.8085938 1.2773438,-0.8203125 0.1171875,-0.011719 0.1289062,-0.1875 0.1289062,-0.1875 0,-0.082031 -0.058594,-0.1289063 -0.1289062,-0.1289063 -0.2578125,0 -0.5507813,0.035156 -0.8203125,0.035156 -0.328125,0 -0.6679688,-0.035156 -0.984375,-0.035156 -0.058594,0 -0.1875,0 -0.1875,0.1992188 0,0.1054687 0.082031,0.1171875 0.1523437,0.1171875 0.2695313,0.011719 0.4570313,0.1171875 0.4570313,0.328125 0,0.1523437 -0.140625,0.3632812 -0.140625,0.375 L 2.9524375,-0.92515625 2.27275,-6.1985938 c 0,-0.1640625 0.2226563,-0.2929687 0.6796875,-0.2929687 0.140625,0 0.2578125,0 0.2578125,-0.1992188 0,-0.09375 -0.082031,-0.1171875 -0.140625,-0.1171875 -0.3984375,0 -0.8320312,0.035156 -1.2421875,0.035156 -0.1757812,0 -0.3632812,-0.011719 -0.5390625,-0.011719 -0.1875,0 -0.375,-0.023437 -0.5390625,-0.023437 -0.0703125,0 -0.1875,0 -0.1875,0.1992188 0,0.1171875 0.0820313,0.1171875 0.24609375,0.1171875 0.55078125,0 0.56250005,0.082031 0.59765625,0.3398437 l 0.7851563,6.14062505 c 0.035156,0.19921875 0.070312,0.234375 0.1992187,0.234375 0.1640625,0 0.1992188,-0.0585938 0.28125,-0.1875 z m 0,0"
         style="fill:#000000;fill-opacity:1;fill-rule:nonzero;stroke:none" />
      <path
         id="path253"
         d="m 9.3274375,0.22914062 h -0.234375 c -0.023437,0.15234375 -0.082031,0.5625 -0.1757812,0.6328125 -0.058594,0.0351563 -0.5976563,0.0351563 -0.6914063,0.0351563 H 6.9368125 c 0.7382813,-0.64453125 0.984375,-0.84375 1.3945313,-1.171875 0.515625,-0.41015625 0.9960937,-0.84374992 0.9960937,-1.49999992 0,-0.84375 -0.7382812,-1.359375 -1.6289062,-1.359375 -0.8671875,0 -1.453125,0.609375 -1.453125,1.2421875 0,0.3632812 0.3046875,0.3984375 0.375,0.3984375 0.1640625,0 0.375,-0.1171875 0.375,-0.375 0,-0.1289063 -0.058594,-0.3632813 -0.421875,-0.3632813 0.2226562,-0.5039062 0.6914062,-0.65625 1.0195312,-0.65625 0.703125,0 1.0664063,0.5507813 1.0664063,1.1132813 0,0.609375 -0.4335938,1.08984367 -0.65625,1.33593742 l -1.6875,1.66406258 c -0.070312,0.058594 -0.070312,0.070312 -0.070312,0.2695312 h 2.8828125 z m 0,0"
         style="fill:#000000;fill-opacity:1;fill-rule:nonzero;stroke:none" />
    </g>
    <path
       id="path254"
       d="m 4.0792422,-3.1180547 h 2.765625 c 0.1640625,0 0.3515625,0 0.3515625,-0.1992187 0,-0.1992188 -0.1875,-0.1992188 -0.3515625,-0.1992188 h -2.765625 v -2.7539062 c 0,-0.1523438 0,-0.3632813 -0.1992188,-0.3632813 -0.1992187,0 -0.1992187,0.1757813 -0.1992187,0.3398438 v 2.7773437 H 0.90346094 c -0.17578125,0 -0.3515625,0 -0.3515625,0.1992188 0,0.1992187 0.17578125,0.1992187 0.3515625,0.1992187 H 3.6808047 v 2.71875001 H 0.90346094 c -0.17578125,0 -0.3515625,0 -0.3515625,0.19921875 0,0.1992187525 0.17578125,0.1992187525 0.3515625,0.1992187525 H 6.8448672 c 0.1640625,0 0.3515625,0 0.3515625,-0.1992187525 0,-0.19921875 -0.1875,-0.19921875 -0.3515625,-0.19921875 h -2.765625 z m 0,0"
       style="fill:#000000;fill-opacity:1;fill-rule:nonzero;stroke:none"
       aria-label="±"
       transform="matrix(1.3333333,0,0,1.3333333,3132.216,55.716)" />
    <path
       id="path255"
       d="m 66.7173,0 h 9.40881"
       style="fill:none;stroke:#000000;stroke-width:0.79701;stroke-linecap:butt;stroke-linejoin:miter;stroke-miterlimit:10;stroke-dasharray:none;stroke-opacity:1"
       transform="matrix(1.3333333,0,0,-1.3333333,3071.916,31.525333)" />
    <path
       id="path256"
       d="M 4.66248,0 C 3.28098,0.25902 1.0361,1.0361 -0.51805,1.94269 V -1.94269 C 1.0361,-1.0361 3.28098,-0.25902 4.66248,0"
       style="fill:#000000;fill-opacity:1;fill-rule:nonzero;stroke:none"
       transform="matrix(1.3333333,0,0,-1.3333333,3173.4175,31.525333)" />
    <path
       id="path257"
       d="m 5.9427734,-5.673 0.140625,-0.140625 c 0.3046875,-0.2929688 0.6328125,-0.6328125 1.3125,-0.6796875 0.1054688,-0.011719 0.1992188,-0.011719 0.1992188,-0.1875 0,-0.082031 -0.058594,-0.1289063 -0.1289063,-0.1289063 -0.2578125,0 -0.5507812,0.035156 -0.8203125,0.035156 -0.328125,0 -0.6796875,-0.035156 -0.9960937,-0.035156 -0.058594,0 -0.1875,0 -0.1875,0.1992188 0,0.1054687 0.09375,0.1171875 0.1523437,0.1171875 0.070312,0 0.3515625,0.011719 0.3515625,0.2226562 0,0.1757813 -0.2226562,0.4335938 -0.2695312,0.4804688 l -2.3085938,2.6601562 -1.0898437,-2.953125 c -0.070312,-0.140625 -0.070312,-0.1640625 -0.070312,-0.1757812 0,-0.234375 0.4921875,-0.234375 0.5976562,-0.234375 0.1289063,0 0.234375,0 0.234375,-0.1992188 0,-0.1171875 -0.1171875,-0.1171875 -0.1523437,-0.1171875 -0.28125,0 -0.9726563,0.035156 -1.2539063,0.035156 -0.2460937,0 -0.86718746,-0.035156 -1.11328121,-0.035156 -0.0585937,0 -0.1875,0 -0.1875,0.1992188 0,0.1171875 0.09375,0.1171875 0.22265625,0.1171875 0.59765626,0 0.64453126,0.082031 0.72656246,0.3398437 l 1.2304688,3.2695313 c 0.011719,0.035156 0.035156,0.140625 0.035156,0.1757812 0,0.023437 -0.3984375,1.6289063 -0.4453125,1.80468755 -0.1289062,0.55078125 -0.140625,0.5859375 -0.9375,0.59765625 -0.18749996,0 -0.26953121,0 -0.26953121,0.19921875 0,0.10546875 0.11718751,0.10546875 0.14062501,0.10546875 0.28125,0 0.9726562,-0.03515625 1.2539062,-0.03515625 0.28125,0 0.9960938,0.03515625 1.2773438,0.03515625 0.070312,0 0.1875,0 0.1875,-0.19921875 0,-0.10546875 -0.082031,-0.10546875 -0.28125,-0.10546875 -0.011719,0 -0.1992188,0 -0.375,-0.0234375 -0.2109375,-0.0234375 -0.2695313,-0.0351563 -0.2695313,-0.1640625 0,-0.0703125 0.09375,-0.41015625 0.140625,-0.6210938 l 0.3515625,-1.40625 c 0.046875,-0.1875 0.058594,-0.2226562 0.140625,-0.3046875 z m 0,0"
       style="fill:#000000;fill-opacity:1;fill-rule:nonzero;stroke:none"
       aria-label="Y"
       transform="matrix(1.3333333,0,0,1.3333333,3184.5907,36.064)" />
    <path
       id="path258"
       d="m 34.11862,0 h 7.88886"
       style="fill:none;stroke:#000000;stroke-width:0.79701;stroke-linecap:butt;stroke-linejoin:miter;stroke-miterlimit:10;stroke-dasharray:none;stroke-opacity:1"
       transform="matrix(1.3333333,0,0,-1.3333333,3071.916,31.525333)" />
    <path
       id="path259"
       d="M 4.66248,0 C 3.28098,0.25902 1.0361,1.0361 -0.51805,1.94269 V -1.94269 C 1.0361,-1.0361 3.28098,-0.25902 4.66248,0"
       style="fill:#000000;fill-opacity:1;fill-rule:nonzero;stroke:none"
       transform="matrix(1.3333333,0,0,-1.3333333,3127.926,31.525333)" />
    <path
       id="path260"
       d="m 4.0771172,-2.2961719 h 2.7773437 c 0.140625,0 0.328125,0 0.328125,-0.1992187 0,-0.1992188 -0.1875,-0.1992188 -0.328125,-0.1992188 H 4.0771172 v -2.7890625 c 0,-0.1289062 0,-0.328125 -0.1992188,-0.328125 -0.1992187,0 -0.1992187,0.1992188 -0.1992187,0.328125 v 2.7890625 H 0.88961719 c -0.140625,0 -0.328125,0 -0.328125,0.1992188 0,0.1992187 0.1875,0.1992187 0.328125,0.1992187 H 3.6786797 v 2.80078127 c 0,0.12890625 0,0.328125 0.1992187,0.328125 0.1992188,0 0.1992188,-0.19921875 0.1992188,-0.328125 z m 0,0"
       style="fill:#000000;fill-opacity:1;fill-rule:nonzero;stroke:none"
       aria-label="+"
       transform="matrix(1.3333333,0,0,1.3333333,3122.2813,25.46)" />
  </g>
</svg>
