<?xml version="1.0" encoding="UTF-8" standalone="no"?>
<!-- Created with Inkscape (http://www.inkscape.org/) -->

<svg
   version="1.1"
   id="svg1"
   width="344.97733"
   height="122.11733"
   viewBox="0 0 344.97732 122.11733"
   sodipodi:docname="Tikz (12).pdf"
   xmlns:inkscape="http://www.inkscape.org/namespaces/inkscape"
   xmlns:sodipodi="http://sodipodi.sourceforge.net/DTD/sodipodi-0.dtd"
   xmlns="http://www.w3.org/2000/svg"
   xmlns:svg="http://www.w3.org/2000/svg">
  <defs
     id="defs1" />
  <sodipodi:namedview
     id="namedview1"
     pagecolor="#ffffff"
     bordercolor="#000000"
     borderopacity="0.25"
     inkscape:showpageshadow="2"
     inkscape:pageopacity="0.0"
     inkscape:pagecheckerboard="0"
     inkscape:deskcolor="#d1d1d1">
    <inkscape:page
       x="3.2297728e-05"
       y="0"
       inkscape:label="9"
       id="page187"
       width="344.97733"
       height="122.11733"
       margin="0"
       bleed="0" />
  </sodipodi:namedview>
  <g
     id="g187"
     inkscape:groupmode="layer"
     inkscape:label="9"
     transform="translate(-2855.4493)">
    <path
       id="path188"
       d="m 37.97197,0 c 0,5.31589 -4.30928,9.62515 -9.62517,9.62515 -5.31589,0 -9.62517,-4.30926 -9.62517,-9.62515 0,-5.31589 4.30928,-9.62515 9.62517,-9.62515 5.31589,0 9.62517,4.30926 9.62517,9.62515 z"
       style="fill:none;stroke:#000000;stroke-width:0.79701;stroke-linecap:butt;stroke-linejoin:miter;stroke-miterlimit:10;stroke-dasharray:none;stroke-opacity:1"
       transform="matrix(1.3333333,0,0,-1.3333333,2904.8653,32.712)" />
    <path
       id="path189"
       d="m 3.7026719,-3.2465937 c 0.09375,-0.1054688 0.09375,-0.140625 0.09375,-0.1640625 0,-0.046875 -0.046875,-0.09375 -0.070312,-0.140625 l -2.039063,-2.9414063 h 2.296875 c 1.6875,0 2.1796875,0.3515625 2.390625,1.9335938 h 0.2460937 l -0.28125,-2.25 H 0.81985937 c -0.24609375,0 -0.2578125,0 -0.2578125,0.234375 l 2.47265623,3.609375 -2.36718748,2.69531245 C 0.56204687,-0.1645625 0.56204687,-0.141125 0.56204687,-0.10596875 0.56204687,-5e-4 0.66751562,-5e-4 0.81985937,-5e-4 H 6.3393906 l 0.28125,-2.3554687 H 6.3745469 C 6.1987656,-0.69190625 5.5190781,-0.422375 3.9487656,-0.422375 H 1.2065781 Z m 0,0"
       style="fill:#000000;fill-opacity:1;fill-rule:nonzero;stroke:none"
       aria-label="Σ"
       transform="matrix(1.3333333,0,0,1.3333333,2937.864,37.250667)" />
    <path
       id="path190"
       d="m 49.60692,-14.17339 h 42.5202 V 14.1734 h -42.5202 z"
       style="fill:none;stroke:#000000;stroke-width:0.79701;stroke-linecap:butt;stroke-linejoin:miter;stroke-miterlimit:10;stroke-dasharray:none;stroke-opacity:1"
       transform="matrix(1.3333333,0,0,-1.3333333,2904.8653,32.712)" />
    <g
       id="g190"
       aria-label="C(s)"
       transform="matrix(1.3333333,0,0,1.3333333,2985.8533,36.033333)">
      <path
         id="path191"
         d="m 7.5690703,-6.9244141 c 0,-0.023437 -0.023437,-0.09375 -0.1054687,-0.09375 -0.035156,0 -0.046875,0.011719 -0.1523438,0.1171875 l -0.703125,0.7617188 c -0.082031,-0.140625 -0.5390625,-0.8789063 -1.6523437,-0.8789063 -2.2148438,0 -4.45312504,2.203125 -4.45312504,4.5117188 0,1.64062499 1.17187504,2.73046874 2.69531254,2.73046874 0.8671875,0 1.6171875,-0.3984375 2.1445312,-0.85546875 0.9375,-0.82031249 1.1015625,-1.72265629 1.1015625,-1.75781249 0,-0.1054688 -0.1054687,-0.1054688 -0.1171875,-0.1054688 -0.058594,0 -0.1171875,0.023437 -0.1289062,0.1054688 -0.09375,0.2929687 -0.3164063,0.9960937 -1.0078125,1.57031249 -0.6914063,0.5625 -1.3125,0.7265625 -1.8398438,0.7265625 -0.890625,0 -1.9453125,-0.515625 -1.9453125,-2.06249999 0,-0.5742188 0.2109375,-2.1914063 1.2070313,-3.3515625 0.609375,-0.703125 1.5351562,-1.2070313 2.4257812,-1.2070313 1.0195313,0 1.6054688,0.7734375 1.6054688,1.921875 0,0.3984375 -0.035156,0.4101563 -0.035156,0.5039063 0,0.1054687 0.1171875,0.1054687 0.1523438,0.1054687 0.1289062,0 0.1289062,-0.023437 0.1757812,-0.1992187 z m 0,0"
         style="fill:#000000;fill-opacity:1;fill-rule:nonzero;stroke:none" />
      <path
         id="path192"
         d="m 11.125711,2.3919922 c 0,-0.035156 0,-0.046875 -0.164063,-0.2226563 -1.2421871,-1.25390621 -1.5703121,-3.12890621 -1.5703121,-4.6640625 0,-1.7226562 0.3867188,-3.4570312 1.6054691,-4.7109375 0.128906,-0.1171875 0.128906,-0.1289062 0.128906,-0.1640625 0,-0.070312 -0.03516,-0.1054687 -0.09375,-0.1054687 -0.105469,0 -0.996094,0.6796875 -1.5820313,1.9453125 -0.515625,1.1015625 -0.6328125,2.203125 -0.6328125,3.0351562 0,0.7851563 0.1171875,1.99218754 0.65625,3.11718754 0.5976558,1.21874996 1.4531248,1.87499996 1.5585938,1.87499996 0.05859,0 0.09375,-0.035156 0.09375,-0.1054687 z m 0,0"
         style="fill:#000000;fill-opacity:1;fill-rule:nonzero;stroke:none" />
      <path
         id="path193"
         d="m 15.596414,-3.7251953 c -0.269531,0.011719 -0.46875,0.234375 -0.46875,0.4453125 0,0.140625 0.08203,0.2929687 0.304688,0.2929687 0.222656,0 0.457031,-0.1640625 0.457031,-0.5625 0,-0.4453125 -0.433594,-0.8554687 -1.183594,-0.8554687 -1.3125,0 -1.6875,1.0195312 -1.6875,1.453125 0,0.7851562 0.738281,0.9257812 1.03125,0.9960937 0.515625,0.09375 1.03125,0.1992188 1.03125,0.75 0,0.25781254 -0.222656,1.10156254 -1.417969,1.10156254 -0.140625,0 -0.914062,0 -1.136718,-0.52734375 0.375,0.046875 0.621093,-0.2578125 0.621093,-0.52734379 0,-0.234375 -0.152343,-0.3515625 -0.363281,-0.3515625 -0.257812,0 -0.5625,0.2109375 -0.5625,0.65625004 0,0.5625 0.574219,0.9609375 1.429688,0.9609375 1.605468,0 2.003906,-1.20703124 2.003906,-1.65234374 0,-0.3515625 -0.199219,-0.609375 -0.316406,-0.7265625 -0.269532,-0.28125 -0.550782,-0.328125 -0.996094,-0.421875 -0.351563,-0.070312 -0.75,-0.140625 -0.75,-0.5976563 0,-0.28125 0.234375,-0.890625 1.113281,-0.890625 0.246094,0 0.75,0.070312 0.890625,0.4570313 z m 0,0"
         style="fill:#000000;fill-opacity:1;fill-rule:nonzero;stroke:none" />
      <path
         id="path194"
         d="m 19.258523,-2.4947266 c 0,-0.7734375 -0.117187,-1.9804687 -0.65625,-3.1054687 -0.597656,-1.21875 -1.464843,-1.875 -1.558593,-1.875 -0.05859,0 -0.105469,0.046875 -0.105469,0.1054687 0,0.035156 0,0.046875 0.199219,0.234375 0.972656,0.984375 1.535156,2.5664063 1.535156,4.640625 0,1.71093754 -0.363281,3.45703129 -1.59375,4.7226563 -0.140625,0.1171875 -0.140625,0.1289062 -0.140625,0.1640625 0,0.058594 0.04687,0.1054687 0.105469,0.1054687 0.09375,0 0.996093,-0.6796875 1.582031,-1.94531246 0.503906,-1.1015625 0.632812,-2.20312504 0.632812,-3.04687504 z m 0,0"
         style="fill:#000000;fill-opacity:1;fill-rule:nonzero;stroke:none" />
    </g>
    <path
       id="path195"
       d="m 106.30055,-14.17339 h 42.5202 V 14.1734 h -42.5202 z"
       style="fill:none;stroke:#000000;stroke-width:0.79701;stroke-linecap:butt;stroke-linejoin:miter;stroke-miterlimit:10;stroke-dasharray:none;stroke-opacity:1"
       transform="matrix(1.3333333,0,0,-1.3333333,2904.8653,32.712)" />
    <g
       id="g195"
       aria-label="G(s)"
       transform="matrix(1.3333333,0,0,1.3333333,3061.4427,36.033333)">
      <path
         id="path196"
         d="m 7.5694531,-6.9244141 c 0,-0.023437 -0.023437,-0.09375 -0.1054687,-0.09375 -0.035156,0 -0.046875,0.011719 -0.1523438,0.1171875 l -0.703125,0.7617188 c -0.082031,-0.140625 -0.5390625,-0.8789063 -1.6523437,-0.8789063 -2.2148438,0 -4.45312503,2.203125 -4.45312503,4.5117188 0,1.58203124 1.10156253,2.73046874 2.71875003,2.73046874 0.4335937,0 0.8789062,-0.09375 1.2421875,-0.24609375 0.4921875,-0.19921875 0.6796875,-0.41015625 0.8671875,-0.609375 0.082031,0.2578125 0.3515625,0.62109375 0.4453125,0.62109375 0.046875,0 0.070312,-0.0234375 0.070312,-0.03515625 0.023437,-0.0234375 0.1171875,-0.3984375 0.1640625,-0.609375 L 6.2100781,-1.4283203 c 0.035156,-0.1640625 0.082031,-0.328125 0.1289063,-0.5039063 0.1054687,-0.4453125 0.1171875,-0.46875 0.6796875,-0.4804687 0.058594,0 0.1640625,-0.011719 0.1640625,-0.1992188 0,-0.070312 -0.046875,-0.1054687 -0.1289063,-0.1054687 -0.234375,0 -0.8203125,0.023437 -1.0429687,0.023437 -0.3164063,0 -1.0898438,-0.023437 -1.3945313,-0.023437 -0.09375,0 -0.2109375,0 -0.2109375,0.1992187 0,0.1054688 0.082031,0.1054688 0.2929688,0.1054688 0.011719,0 0.3046875,0 0.5273437,0.023437 0.2578125,0.035156 0.3164063,0.058594 0.3164063,0.1875 0,0.09375 -0.1171875,0.5390625 -0.2109375,0.9023437 -0.28125,1.10156254 -1.5820313,1.20703129 -1.921875,1.20703129 -0.9609375,0 -2.0039063,-0.5625 -2.0039063,-2.08593749 0,-0.3164063 0.09375,-1.9570313 1.1484375,-3.2460938 0.5390625,-0.6796875 1.5,-1.2890625 2.484375,-1.2890625 1.0195313,0 1.6054688,0.7734375 1.6054688,1.921875 0,0.3984375 -0.035156,0.4101563 -0.035156,0.5039063 0,0.1054687 0.1171875,0.1054687 0.1523438,0.1054687 0.1289062,0 0.1289062,-0.023437 0.1757812,-0.1992187 z m 0,0"
         style="fill:#000000;fill-opacity:1;fill-rule:nonzero;stroke:none" />
      <path
         id="path197"
         d="m 11.126094,2.3919922 c 0,-0.035156 0,-0.046875 -0.164063,-0.2226563 -1.2421873,-1.25390621 -1.5703123,-3.12890621 -1.5703123,-4.6640625 0,-1.7226562 0.3867188,-3.4570312 1.6054683,-4.7109375 0.128907,-0.1171875 0.128907,-0.1289062 0.128907,-0.1640625 0,-0.070312 -0.03516,-0.1054687 -0.09375,-0.1054687 -0.105469,0 -0.996094,0.6796875 -1.5820315,1.9453125 -0.515625,1.1015625 -0.6328125,2.203125 -0.6328125,3.0351562 0,0.7851563 0.1171875,1.99218754 0.65625,3.11718754 0.597656,1.21874996 1.453125,1.87499996 1.558594,1.87499996 0.05859,0 0.09375,-0.035156 0.09375,-0.1054687 z m 0,0"
         style="fill:#000000;fill-opacity:1;fill-rule:nonzero;stroke:none" />
      <path
         id="path198"
         d="m 15.599727,-3.7251953 c -0.269532,0.011719 -0.46875,0.234375 -0.46875,0.4453125 0,0.140625 0.08203,0.2929687 0.304687,0.2929687 0.222656,0 0.457031,-0.1640625 0.457031,-0.5625 0,-0.4453125 -0.433593,-0.8554687 -1.183593,-0.8554687 -1.3125,0 -1.6875,1.0195312 -1.6875,1.453125 0,0.7851562 0.738281,0.9257812 1.03125,0.9960937 0.515625,0.09375 1.03125,0.1992188 1.03125,0.75 0,0.25781254 -0.222657,1.10156254 -1.417969,1.10156254 -0.140625,0 -0.914063,0 -1.136719,-0.52734375 0.375,0.046875 0.621094,-0.2578125 0.621094,-0.52734379 0,-0.234375 -0.152344,-0.3515625 -0.363281,-0.3515625 -0.257813,0 -0.5625,0.2109375 -0.5625,0.65625004 0,0.5625 0.574218,0.9609375 1.429687,0.9609375 1.605469,0 2.003906,-1.20703124 2.003906,-1.65234374 0,-0.3515625 -0.199218,-0.609375 -0.316406,-0.7265625 -0.269531,-0.28125 -0.550781,-0.328125 -0.996094,-0.421875 -0.351562,-0.070312 -0.75,-0.140625 -0.75,-0.5976563 0,-0.28125 0.234375,-0.890625 1.113282,-0.890625 0.246093,0 0.75,0.070312 0.890625,0.4570313 z m 0,0"
         style="fill:#000000;fill-opacity:1;fill-rule:nonzero;stroke:none" />
      <path
         id="path199"
         d="m 19.261836,-2.4947266 c 0,-0.7734375 -0.117188,-1.9804687 -0.65625,-3.1054687 -0.597656,-1.21875 -1.464844,-1.875 -1.558594,-1.875 -0.05859,0 -0.105469,0.046875 -0.105469,0.1054687 0,0.035156 0,0.046875 0.199219,0.234375 0.972656,0.984375 1.535156,2.5664063 1.535156,4.640625 0,1.71093754 -0.363281,3.45703129 -1.59375,4.7226563 -0.140625,0.1171875 -0.140625,0.1289062 -0.140625,0.1640625 0,0.058594 0.04687,0.1054687 0.105469,0.1054687 0.09375,0 0.996094,-0.6796875 1.582031,-1.94531246 0.503907,-1.1015625 0.632813,-2.20312504 0.632813,-3.04687504 z m 0,0"
         style="fill:#000000;fill-opacity:1;fill-rule:nonzero;stroke:none" />
    </g>
    <path
       id="path200"
       d="m 77.95374,-56.69362 h 42.5202 v 28.34679 h -42.5202 z"
       style="fill:none;stroke:#000000;stroke-width:0.79701;stroke-linecap:butt;stroke-linejoin:miter;stroke-miterlimit:10;stroke-dasharray:none;stroke-opacity:1"
       transform="matrix(1.3333333,0,0,-1.3333333,2904.8653,32.712)" />
    <g
       id="g200"
       aria-label="H(s)"
       transform="matrix(1.3333333,0,0,1.3333333,3022.8093,92.725333)">
      <path
         id="path201"
         d="m 7.605,-6.0342344 c 0.082031,-0.3632812 0.1054688,-0.4570312 0.8320313,-0.4570312 0.2578125,0 0.3398437,0 0.3398437,-0.1992188 0,-0.1171875 -0.1054687,-0.1171875 -0.140625,-0.1171875 -0.28125,0 -0.9960937,0.035156 -1.2773437,0.035156 -0.28125,0 -0.9960938,-0.035156 -1.2773438,-0.035156 -0.082031,0 -0.1992187,0 -0.1992187,0.1992188 0,0.1171875 0.09375,0.1171875 0.28125,0.1171875 0.023437,0 0.2109375,0 0.375,0.011719 0.1875,0.023437 0.2695312,0.035156 0.2695312,0.1640625 0,0.035156 0,0.058594 -0.035156,0.1875 l -0.5976563,2.4375 H 3.1401563 l 0.5859375,-2.34375 c 0.09375,-0.3632812 0.1171875,-0.4570312 0.8320312,-0.4570312 0.2578125,0 0.3398438,0 0.3398438,-0.1992188 0,-0.1171875 -0.1054688,-0.1171875 -0.140625,-0.1171875 -0.2695313,0 -0.9960938,0.035156 -1.265625,0.035156 -0.2929688,0 -0.9960938,-0.035156 -1.2890625,-0.035156 -0.082031,0 -0.1875,0 -0.1875,0.1992188 0,0.1171875 0.082031,0.1171875 0.28125,0.1171875 0.011719,0 0.1992187,0 0.375,0.011719 0.1757812,0.023437 0.2695312,0.035156 0.2695312,0.1640625 0,0.035156 -0.011719,0.070312 -0.046875,0.1875 L 1.558125,-0.77251562 c -0.09375,0.38671875 -0.1171875,0.46875 -0.90234375,0.46875 -0.17578125,0 -0.26953125,0 -0.26953125,0.19921875 0,0.105468745 0.1171875,0.105468745 0.140625,0.105468745 0.28125,0 0.984375,-0.035156245 1.265625,-0.035156245 0.2109375,0 0.4335938,0.01171875 0.6328125,0.01171875 0.2226563,0 0.4453125,0.023437495 0.65625,0.023437495 0.070312,0 0.1992188,0 0.1992188,-0.199218745 0,-0.10546875 -0.09375,-0.10546875 -0.28125,-0.10546875 -0.375,0 -0.6445313,0 -0.6445313,-0.1875 0,-0.0585937 0.011719,-0.10546875 0.023437,-0.1640625 L 3.058125,-3.3857969 H 6.0932813 C 5.683125,-1.7334531 5.44875,-0.78423437 5.4135938,-0.63189062 c -0.1054688,0.31640625 -0.2929688,0.328125 -0.9140625,0.328125 -0.1523438,0 -0.234375,0 -0.234375,0.19921875 0,0.105468745 0.1171875,0.105468745 0.140625,0.105468745 0.28125,0 0.984375,-0.035156245 1.265625,-0.035156245 0.2109375,0 0.421875,0.01171875 0.6328125,0.01171875 0.2226562,0 0.4335937,0.023437495 0.6445312,0.023437495 0.082031,0 0.1992188,0 0.1992188,-0.199218745 0,-0.10546875 -0.082031,-0.10546875 -0.2695313,-0.10546875 -0.375,0 -0.65625,0 -0.65625,-0.1875 0,-0.0585937 0.023437,-0.10546875 0.035156,-0.1640625 z m 0,0"
         style="fill:#000000;fill-opacity:1;fill-rule:nonzero;stroke:none" />
      <path
         id="path202"
         d="m 12.38332,2.3915469 c 0,-0.035156 0,-0.046875 -0.164062,-0.2226563 -1.242188,-1.25390622 -1.570313,-3.12890622 -1.570313,-4.6640625 0,-1.7226562 0.386719,-3.4570312 1.605469,-4.7109375 0.128906,-0.1171875 0.128906,-0.1289062 0.128906,-0.1640625 0,-0.070312 -0.03516,-0.1054687 -0.09375,-0.1054687 -0.105468,0 -0.996093,0.6796875 -1.582031,1.9453125 -0.515625,1.1015625 -0.632812,2.203125 -0.632812,3.0351562 0,0.7851563 0.117187,1.99218753 0.65625,3.11718753 0.597656,1.21874997 1.453125,1.87499997 1.558593,1.87499997 0.05859,0 0.09375,-0.035156 0.09375,-0.1054687 z m 0,0"
         style="fill:#000000;fill-opacity:1;fill-rule:nonzero;stroke:none" />
      <path
         id="path203"
         d="m 16.856953,-3.7256406 c -0.269531,0.011719 -0.46875,0.234375 -0.46875,0.4453125 0,0.140625 0.08203,0.2929687 0.304688,0.2929687 0.222656,0 0.457031,-0.1640625 0.457031,-0.5625 0,-0.4453125 -0.433594,-0.8554687 -1.183594,-0.8554687 -1.3125,0 -1.6875,1.0195312 -1.6875,1.453125 0,0.7851562 0.738281,0.9257812 1.03125,0.9960937 0.515625,0.09375 1.03125,0.1992188 1.03125,0.75 0,0.25781253 -0.222656,1.10156253 -1.417969,1.10156253 -0.140625,0 -0.914062,0 -1.136718,-0.52734375 0.375,0.046875 0.621093,-0.2578125 0.621093,-0.52734378 0,-0.234375 -0.152343,-0.3515625 -0.363281,-0.3515625 -0.257812,0 -0.5625,0.2109375 -0.5625,0.65625003 0,0.5625 0.574219,0.9609375 1.429688,0.9609375 1.605468,0 2.003906,-1.20703123 2.003906,-1.65234373 0,-0.3515625 -0.199219,-0.609375 -0.316406,-0.7265625 -0.269532,-0.28125 -0.550782,-0.328125 -0.996094,-0.421875 -0.351563,-0.070312 -0.75,-0.140625 -0.75,-0.5976563 0,-0.28125 0.234375,-0.890625 1.113281,-0.890625 0.246094,0 0.75,0.070312 0.890625,0.4570313 z m 0,0"
         style="fill:#000000;fill-opacity:1;fill-rule:nonzero;stroke:none" />
      <path
         id="path204"
         d="m 20.519063,-2.4951719 c 0,-0.7734375 -0.117188,-1.9804687 -0.65625,-3.1054687 -0.597657,-1.21875 -1.464844,-1.875 -1.558594,-1.875 -0.05859,0 -0.105469,0.046875 -0.105469,0.1054687 0,0.035156 0,0.046875 0.199219,0.234375 0.972656,0.984375 1.535156,2.5664063 1.535156,4.640625 0,1.71093753 -0.363281,3.45703128 -1.59375,4.7226563 -0.140625,0.1171875 -0.140625,0.1289062 -0.140625,0.1640625 0,0.058594 0.04687,0.1054687 0.105469,0.1054687 0.09375,0 0.996094,-0.6796875 1.582031,-1.94531247 0.503906,-1.1015625 0.632813,-2.20312503 0.632813,-3.04687503 z m 0,0"
         style="fill:#000000;fill-opacity:1;fill-rule:nonzero;stroke:none" />
    </g>
    <path
       id="path205"
       d="M 0,0 H 13.66066"
       style="fill:none;stroke:#000000;stroke-width:0.79701;stroke-linecap:butt;stroke-linejoin:miter;stroke-miterlimit:10;stroke-dasharray:none;stroke-opacity:1"
       transform="matrix(1.3333333,0,0,-1.3333333,2904.8653,32.712)" />
    <path
       id="path206"
       d="M 4.66248,0 C 3.28098,0.25902 1.0361,1.0361 -0.51805,1.94269 V -1.94269 C 1.0361,-1.0361 3.28098,-0.25902 4.66248,0"
       style="fill:#000000;fill-opacity:1;fill-rule:nonzero;stroke:none"
       transform="matrix(1.3333333,0,0,-1.3333333,2923.0795,32.712)" />
    <g
       id="g206"
       aria-label="R(s)"
       transform="matrix(1.3333333,0,0,1.3333333,2873.16,36.033333)">
      <path
         id="path207"
         d="m 3.7384844,-6.1158203 c 0.058594,-0.234375 0.082031,-0.3398438 0.28125,-0.3632813 0.082031,-0.011719 0.3984375,-0.011719 0.5976562,-0.011719 0.7148438,0 1.8164063,0 1.8164063,0.984375 0,0.3398437 -0.1523438,1.0195312 -0.5507813,1.4179687 -0.2578125,0.2578125 -0.7851562,0.5742188 -1.6757812,0.5742188 H 3.0939531 Z m 1.4296875,2.7304687 c 1.0078125,-0.2226562 2.1914062,-0.9140625 2.1914062,-1.921875 0,-0.8554687 -0.890625,-1.5 -2.203125,-1.5 H 2.3205156 c -0.1992187,0 -0.2929687,0 -0.2929687,0.1992188 0,0.1171875 0.09375,0.1171875 0.28125,0.1171875 0.023437,0 0.2109375,0 0.3867187,0.011719 0.1757813,0.023437 0.2578125,0.035156 0.2578125,0.1640625 0,0.035156 0,0.070312 -0.035156,0.1875 l -1.3359375,5.35546879 c -0.09375,0.38671875 -0.1171875,0.46875 -0.90234378,0.46875 -0.17578125,0 -0.26953125,0 -0.26953125,0.19921875 0,0.10546875 0.1171875,0.10546875 0.140625,0.10546875 0.28125,0 0.97265623,-0.03515625 1.25390623,-0.03515625 0.28125,0 0.984375,0.03515625 1.265625,0.03515625 0.082031,0 0.1992188,0 0.1992188,-0.19921875 0,-0.10546875 -0.09375,-0.10546875 -0.28125,-0.10546875 -0.3632813,0 -0.6445313,0 -0.6445313,-0.1875 0,-0.0585938 0.011719,-0.10546875 0.023437,-0.1640625 l 0.65625,-2.63671879 h 1.1953125 c 0.9023438,0 1.078125,0.5507813 1.078125,0.9023438 0,0.1523437 -0.082031,0.4570312 -0.140625,0.6914062 -0.070312,0.2695313 -0.1523437,0.6445313 -0.1523437,0.84375004 0,1.078125 1.1953125,1.078125 1.3242187,1.078125 0.84375,0 1.1953125,-1.0078125 1.1953125,-1.1484375 0,-0.11718754 -0.1171875,-0.11718754 -0.1171875,-0.11718754 -0.09375,0 -0.1171875,0.0703125 -0.1289062,0.14062504 -0.2578125,0.73828125 -0.6796875,0.90234375 -0.9140625,0.90234375 -0.328125,0 -0.3984375,-0.22265625 -0.3984375,-0.609375 0,-0.3046875 0.058594,-0.82031249 0.1054687,-1.13671879 0.011719,-0.140625 0.035156,-0.328125 0.035156,-0.46875 0,-0.7617187 -0.6679688,-1.078125 -0.9374994,-1.1718753 z m 0,0"
         style="fill:#000000;fill-opacity:1;fill-rule:nonzero;stroke:none" />
      <path
         id="path208"
         d="m 10.933797,2.3919922 c 0,-0.035156 0,-0.046875 -0.164063,-0.2226563 -1.2421871,-1.25390621 -1.5703121,-3.12890621 -1.5703121,-4.6640625 0,-1.7226562 0.3867187,-3.4570312 1.6054691,-4.7109375 0.128906,-0.1171875 0.128906,-0.1289062 0.128906,-0.1640625 0,-0.070312 -0.03516,-0.1054687 -0.09375,-0.1054687 -0.105469,0 -0.9960939,0.6796875 -1.5820314,1.9453125 -0.515625,1.1015625 -0.6328125,2.203125 -0.6328125,3.0351562 0,0.7851563 0.1171875,1.99218754 0.65625,3.11718754 0.5976563,1.21874996 1.4531249,1.87499996 1.5585939,1.87499996 0.05859,0 0.09375,-0.035156 0.09375,-0.1054687 z m 0,0"
         style="fill:#000000;fill-opacity:1;fill-rule:nonzero;stroke:none" />
      <path
         id="path209"
         d="m 15.40743,-3.7251953 c -0.269532,0.011719 -0.46875,0.234375 -0.46875,0.4453125 0,0.140625 0.08203,0.2929687 0.304687,0.2929687 0.222656,0 0.457031,-0.1640625 0.457031,-0.5625 0,-0.4453125 -0.433593,-0.8554687 -1.183593,-0.8554687 -1.3125,0 -1.6875,1.0195312 -1.6875,1.453125 0,0.7851562 0.738281,0.9257812 1.03125,0.9960937 0.515625,0.09375 1.03125,0.1992188 1.03125,0.75 0,0.25781254 -0.222657,1.10156254 -1.417969,1.10156254 -0.140625,0 -0.914063,0 -1.136719,-0.52734375 0.375,0.046875 0.621094,-0.2578125 0.621094,-0.52734379 0,-0.234375 -0.152344,-0.3515625 -0.363281,-0.3515625 -0.257813,0 -0.5625,0.2109375 -0.5625,0.65625004 0,0.5625 0.574218,0.9609375 1.429687,0.9609375 1.605469,0 2.003906,-1.20703124 2.003906,-1.65234374 0,-0.3515625 -0.199218,-0.609375 -0.316406,-0.7265625 -0.269531,-0.28125 -0.550781,-0.328125 -0.996094,-0.421875 -0.351562,-0.070312 -0.75,-0.140625 -0.75,-0.5976563 0,-0.28125 0.234375,-0.890625 1.113282,-0.890625 0.246093,0 0.75,0.070312 0.890625,0.4570313 z m 0,0"
         style="fill:#000000;fill-opacity:1;fill-rule:nonzero;stroke:none" />
      <path
         id="path210"
         d="m 19.069539,-2.4947266 c 0,-0.7734375 -0.117187,-1.9804687 -0.65625,-3.1054687 -0.597656,-1.21875 -1.464844,-1.875 -1.558594,-1.875 -0.05859,0 -0.105468,0.046875 -0.105468,0.1054687 0,0.035156 0,0.046875 0.199218,0.234375 0.972657,0.984375 1.535157,2.5664063 1.535157,4.640625 0,1.71093754 -0.363282,3.45703129 -1.59375,4.7226563 -0.140625,0.1171875 -0.140625,0.1289062 -0.140625,0.1640625 0,0.058594 0.04687,0.1054687 0.105468,0.1054687 0.09375,0 0.996094,-0.6796875 1.582032,-1.94531246 0.503906,-1.1015625 0.632812,-2.20312504 0.632812,-3.04687504 z m 0,0"
         style="fill:#000000;fill-opacity:1;fill-rule:nonzero;stroke:none" />
    </g>
    <path
       id="path211"
       d="m 4.0787422,-2.2955469 h 2.7773437 c 0.140625,0 0.328125,0 0.328125,-0.1992187 0,-0.1992188 -0.1875,-0.1992188 -0.328125,-0.1992188 H 4.0787422 v -2.7890625 c 0,-0.1289062 0,-0.328125 -0.1992188,-0.328125 -0.1992187,0 -0.1992187,0.1992188 -0.1992187,0.328125 v 2.7890625 H 0.89124219 c -0.140625,0 -0.328125,0 -0.328125,0.1992188 0,0.1992187 0.1875,0.1992187 0.328125,0.1992187 H 3.6803047 v 2.80078128 c 0,0.12890625 0,0.328125 0.1992187,0.328125 0.1992188,0 0.1992188,-0.19921875 0.1992188,-0.328125 z m 0,0"
       style="fill:#000000;fill-opacity:1;fill-rule:nonzero;stroke:none"
       aria-label="+"
       transform="matrix(1.3333333,0,0,1.3333333,2914.3587,26.646667)" />
    <path
       id="path212"
       d="m 149.21927,0 h 30.37254"
       style="fill:none;stroke:#000000;stroke-width:0.79701;stroke-linecap:butt;stroke-linejoin:miter;stroke-miterlimit:10;stroke-dasharray:none;stroke-opacity:1"
       transform="matrix(1.3333333,0,0,-1.3333333,2904.8653,32.712)" />
    <path
       id="path213"
       d="M 4.66248,0 C 3.28098,0.25902 1.0361,1.0361 -0.51805,1.94269 V -1.94269 C 1.0361,-1.0361 3.28098,-0.25902 4.66248,0"
       style="fill:#000000;fill-opacity:1;fill-rule:nonzero;stroke:none"
       transform="matrix(1.3333333,0,0,-1.3333333,3144.3211,32.712)" />
    <g
       id="g213"
       aria-label="Y(s)"
       transform="matrix(1.3333333,0,0,1.3333333,3155.4933,36.033333)">
      <path
         id="path214"
         d="m 5.9406328,-5.6705078 0.140625,-0.140625 c 0.3046875,-0.2929688 0.6328125,-0.6328125 1.3125,-0.6796875 0.1054688,-0.011719 0.1992188,-0.011719 0.1992188,-0.1875 0,-0.082031 -0.058594,-0.1289063 -0.1289063,-0.1289063 -0.2578125,0 -0.5507812,0.035156 -0.8203125,0.035156 -0.328125,0 -0.6796875,-0.035156 -0.9960937,-0.035156 -0.058594,0 -0.1875,0 -0.1875,0.1992188 0,0.1054687 0.09375,0.1171875 0.1523437,0.1171875 0.070312,0 0.3515625,0.011719 0.3515625,0.2226562 0,0.1757813 -0.2226562,0.4335938 -0.2695312,0.4804688 l -2.3085938,2.6601562 -1.0898437,-2.953125 c -0.070312,-0.140625 -0.070312,-0.1640625 -0.070312,-0.1757812 0,-0.234375 0.4921875,-0.234375 0.5976562,-0.234375 0.1289063,0 0.234375,0 0.234375,-0.1992188 0,-0.1171875 -0.1171875,-0.1171875 -0.1523437,-0.1171875 -0.28125,0 -0.9726563,0.035156 -1.2539063,0.035156 -0.2460937,0 -0.86718749,-0.035156 -1.11328124,-0.035156 -0.0585938,0 -0.1875,0 -0.1875,0.1992188 0,0.1171875 0.09375,0.1171875 0.22265625,0.1171875 0.59765629,0 0.64453129,0.082031 0.72656249,0.3398437 l 1.2304688,3.2695313 c 0.011719,0.035156 0.035156,0.140625 0.035156,0.1757812 0,0.023437 -0.3984375,1.6289063 -0.4453125,1.80468754 -0.1289062,0.55078125 -0.140625,0.5859375 -0.9375,0.59765625 -0.18749999,0 -0.26953124,0 -0.26953124,0.19921875 0,0.10546875 0.11718754,0.10546875 0.14062504,0.10546875 0.28125,0 0.9726562,-0.03515625 1.2539062,-0.03515625 0.28125,0 0.9960938,0.03515625 1.2773438,0.03515625 0.070312,0 0.1875,0 0.1875,-0.19921875 0,-0.10546875 -0.082031,-0.10546875 -0.28125,-0.10546875 -0.011719,0 -0.1992188,0 -0.375,-0.0234375 -0.2109375,-0.0234375 -0.2695313,-0.0351563 -0.2695313,-0.1640625 0,-0.0703125 0.09375,-0.41015625 0.140625,-0.62109379 l 0.3515625,-1.40625 c 0.046875,-0.1875 0.058594,-0.2226562 0.140625,-0.3046875 z m 0,0"
         style="fill:#000000;fill-opacity:1;fill-rule:nonzero;stroke:none" />
      <path
         id="path215"
         d="m 11.290242,2.3919922 c 0,-0.035156 0,-0.046875 -0.164062,-0.2226563 -1.2421878,-1.25390621 -1.5703128,-3.12890621 -1.5703128,-4.6640625 0,-1.7226562 0.3867187,-3.4570312 1.6054688,-4.7109375 0.128906,-0.1171875 0.128906,-0.1289062 0.128906,-0.1640625 0,-0.070312 -0.03516,-0.1054687 -0.09375,-0.1054687 -0.105469,0 -0.996094,0.6796875 -1.5820311,1.9453125 -0.515625,1.1015625 -0.6328125,2.203125 -0.6328125,3.0351562 0,0.7851563 0.1171875,1.99218754 0.65625,3.11718754 0.5976566,1.21874996 1.4531246,1.87499996 1.5585936,1.87499996 0.05859,0 0.09375,-0.035156 0.09375,-0.1054687 z m 0,0"
         style="fill:#000000;fill-opacity:1;fill-rule:nonzero;stroke:none" />
      <path
         id="path216"
         d="m 15.763875,-3.7251953 c -0.269531,0.011719 -0.46875,0.234375 -0.46875,0.4453125 0,0.140625 0.08203,0.2929687 0.304688,0.2929687 0.222656,0 0.457031,-0.1640625 0.457031,-0.5625 0,-0.4453125 -0.433594,-0.8554687 -1.183594,-0.8554687 -1.3125,0 -1.6875,1.0195312 -1.6875,1.453125 0,0.7851562 0.738281,0.9257812 1.03125,0.9960937 0.515625,0.09375 1.03125,0.1992188 1.03125,0.75 0,0.25781254 -0.222656,1.10156254 -1.417969,1.10156254 -0.140625,0 -0.914062,0 -1.136718,-0.52734375 0.375,0.046875 0.621093,-0.2578125 0.621093,-0.52734379 0,-0.234375 -0.152343,-0.3515625 -0.363281,-0.3515625 -0.257812,0 -0.5625,0.2109375 -0.5625,0.65625004 0,0.5625 0.574219,0.9609375 1.429688,0.9609375 1.605468,0 2.003906,-1.20703124 2.003906,-1.65234374 0,-0.3515625 -0.199219,-0.609375 -0.316406,-0.7265625 -0.269532,-0.28125 -0.550782,-0.328125 -0.996094,-0.421875 -0.351563,-0.070312 -0.75,-0.140625 -0.75,-0.5976563 0,-0.28125 0.234375,-0.890625 1.113281,-0.890625 0.246094,0 0.75,0.070312 0.890625,0.4570313 z m 0,0"
         style="fill:#000000;fill-opacity:1;fill-rule:nonzero;stroke:none" />
      <path
         id="path217"
         d="m 19.425984,-2.4947266 c 0,-0.7734375 -0.117187,-1.9804687 -0.65625,-3.1054687 -0.597656,-1.21875 -1.464843,-1.875 -1.558593,-1.875 -0.05859,0 -0.105469,0.046875 -0.105469,0.1054687 0,0.035156 0,0.046875 0.199219,0.234375 0.972656,0.984375 1.535156,2.5664063 1.535156,4.640625 0,1.71093754 -0.363281,3.45703129 -1.59375,4.7226563 -0.140625,0.1171875 -0.140625,0.1289062 -0.140625,0.1640625 0,0.058594 0.04687,0.1054687 0.105469,0.1054687 0.09375,0 0.996093,-0.6796875 1.582031,-1.94531246 0.503906,-1.1015625 0.632812,-2.20312504 0.632812,-3.04687504 z m 0,0"
         style="fill:#000000;fill-opacity:1;fill-rule:nonzero;stroke:none" />
    </g>
    <path
       id="path218"
       d="m 38.37047,0 h 6.17547"
       style="fill:none;stroke:#000000;stroke-width:0.79701;stroke-linecap:butt;stroke-linejoin:miter;stroke-miterlimit:10;stroke-dasharray:none;stroke-opacity:1"
       transform="matrix(1.3333333,0,0,-1.3333333,2904.8653,32.712)" />
    <path
       id="path219"
       d="M 4.66248,0 C 3.28098,0.25902 1.0361,1.0361 -0.51805,1.94269 V -1.94269 C 1.0361,-1.0361 3.28098,-0.25902 4.66248,0"
       style="fill:#000000;fill-opacity:1;fill-rule:nonzero;stroke:none"
       transform="matrix(1.3333333,0,0,-1.3333333,2964.2599,32.712)" />
    <path
       id="path220"
       d="m 92.52563,0 h 8.71395"
       style="fill:none;stroke:#000000;stroke-width:0.79701;stroke-linecap:butt;stroke-linejoin:miter;stroke-miterlimit:10;stroke-dasharray:none;stroke-opacity:1"
       transform="matrix(1.3333333,0,0,-1.3333333,2904.8653,32.712)" />
    <path
       id="path221"
       d="M 4.66248,0 C 3.28098,0.25902 1.0361,1.0361 -0.51805,1.94269 V -1.94269 C 1.0361,-1.0361 3.28098,-0.25902 4.66248,0"
       style="fill:#000000;fill-opacity:1;fill-rule:nonzero;stroke:none"
       transform="matrix(1.3333333,0,0,-1.3333333,3039.8514,32.712)" />
    <path
       id="path222"
       d="m 149.21927,0 h 13.77489 v 0 -42.52022 h -42.12172 m -43.31722,0 H 28.3468 v 27.83408"
       style="fill:none;stroke:#000000;stroke-width:0.79701;stroke-linecap:butt;stroke-linejoin:miter;stroke-miterlimit:10;stroke-dasharray:none;stroke-opacity:1"
       transform="matrix(1.3333333,0,0,-1.3333333,2904.8653,32.712)" />
    <path
       id="path223"
       d="M 4.66248,0 C 3.28098,0.25902 1.0361,1.0361 -0.51805,1.94269 V -1.94269 C 1.0361,-1.0361 3.28098,-0.25902 4.66248,0"
       style="fill:#000000;fill-opacity:1;fill-rule:nonzero;stroke:none"
       transform="matrix(0,-1.3333333,-1.3333333,0,2942.6611,52.29352)" />
    <path
       id="path224"
       d="m 4.0785312,-3.1183125 h 2.765625 c 0.1640625,0 0.3515625,0 0.3515625,-0.1992187 0,-0.1992188 -0.1875,-0.1992188 -0.3515625,-0.1992188 h -2.765625 v -2.7539062 c 0,-0.1523438 0,-0.3632813 -0.1992187,-0.3632813 -0.1992188,0 -0.1992188,0.1757813 -0.1992188,0.3398438 V -3.51675 H 0.90275 c -0.17578125,0 -0.3515625,0 -0.3515625,0.1992188 0,0.1992187 0.17578125,0.1992187 0.3515625,0.1992187 h 2.7773437 v 2.71875 H 0.90275 c -0.17578125,0 -0.3515625,0 -0.3515625,0.19921875 0,0.19921875 0.17578125,0.19921875 0.3515625,0.19921875 h 5.9414062 c 0.1640625,0 0.3515625,0 0.3515625,-0.19921875 0,-0.19921875 -0.1875,-0.19921875 -0.3515625,-0.19921875 h -2.765625 z m 0,0"
       style="fill:#000000;fill-opacity:1;fill-rule:nonzero;stroke:none"
       aria-label="±"
       transform="matrix(1.3333333,0,0,1.3333333,2927.3707,58.064)" />
  </g>
</svg>
