<?xml version="1.0" encoding="UTF-8" standalone="no"?>
<!-- Created with Inkscape (http://www.inkscape.org/) -->

<svg
   version="1.1"
   id="svg1"
   width="486.57733"
   height="65.425331"
   viewBox="0 0 486.57733 65.425331"
   sodipodi:docname="Tikz (12).pdf"
   xmlns:inkscape="http://www.inkscape.org/namespaces/inkscape"
   xmlns:sodipodi="http://sodipodi.sourceforge.net/DTD/sodipodi-0.dtd"
   xmlns="http://www.w3.org/2000/svg"
   xmlns:svg="http://www.w3.org/2000/svg">
  <defs
     id="defs1" />
  <sodipodi:namedview
     id="namedview1"
     pagecolor="#ffffff"
     bordercolor="#000000"
     borderopacity="0.25"
     inkscape:showpageshadow="2"
     inkscape:pageopacity="0.0"
     inkscape:pagecheckerboard="0"
     inkscape:deskcolor="#d1d1d1">
    <inkscape:page
       x="0"
       y="0"
       inkscape:label="2"
       id="page8"
       width="486.57733"
       height="65.425331"
       margin="0"
       bleed="0" />
  </sodipodi:namedview>
  <g
     id="g8"
     inkscape:groupmode="layer"
     inkscape:label="2"
     transform="translate(-291.42533)">
    <path
       id="path9"
       d="M 28.34682,-14.17339 H 85.04044 V 14.1734 H 28.34682 Z"
       style="fill:none;stroke:#000000;stroke-width:0.79701;stroke-linecap:butt;stroke-linejoin:miter;stroke-miterlimit:10;stroke-dasharray:none;stroke-opacity:1"
       transform="matrix(1.3333333,0,0,-1.3333333,404.792,32.713333)" />
    <path
       id="path10"
       d="m 0.56295313,-3.4109922 c 0,2.0625 1.60546877,3.63281251 3.45703127,3.63281251 1.6289062,0 2.6015625,-1.38281251 2.6015625,-2.54296871 0,-0.1054688 0,-0.1757813 -0.1289063,-0.1757813 -0.1054687,0 -0.1054687,0.070312 -0.1171875,0.1640625 -0.082031,1.42968751 -1.1484375,2.23828126 -2.2265625,2.23828126 -0.609375,0 -2.5664062,-0.33984375 -2.5664062,-3.30468746 0,-2.9765625 1.9453125,-3.3164063 2.5546875,-3.3164063 1.078125,0 1.96875,0.9023438 2.1679687,2.3671875 0.023437,0.1289063 0.023437,0.1640625 0.1640625,0.1640625 0.1523438,0 0.1523438,-0.035156 0.1523438,-0.234375 v -2.3671875 c 0,-0.1640625 0,-0.234375 -0.1054688,-0.234375 -0.035156,0 -0.082031,0 -0.1640625,0.1171875 l -0.4921875,0.7382813 c -0.375,-0.3632813 -0.8789062,-0.8554688 -1.8398437,-0.8554688 -1.8632813,0 -3.45703127,1.5820313 -3.45703127,3.609375 z M 11.883266,-2.1336484 c 0,-1.2773438 -0.996094,-2.3320313 -2.1914066,-2.3320313 -1.2539063,0 -2.2148438,1.0898438 -2.2148438,2.3320313 0,1.28906246 1.03125,2.23828121 2.203125,2.23828121 1.2070314,0 2.2031254,-0.97265625 2.2031254,-2.23828121 z m -2.1914066,1.99218746 c -0.4335938,0 -0.8671875,-0.2109375 -1.1367188,-0.66796875 C 8.2973281,-1.2430234 8.2973281,-1.8523984 8.2973281,-2.2156797 c 0,-0.3867187 0,-0.9257812 0.2460938,-1.359375 0.2695312,-0.4570312 0.7382812,-0.6679687 1.1367187,-0.6679687 0.4335934,0 0.8671874,0.2226562 1.1250004,0.6445312 0.257812,0.4335938 0.257812,1.0078125 0.257812,1.3828125 0,0.3632813 0,0.9023438 -0.222656,1.33593751 -0.222656,0.4453125 -0.65625,0.73828125 -1.1484376,0.73828125 z M 13.277797,-3.4227109 v 2.66015621 c 0,0.45703125 -0.117188,0.45703125 -0.785156,0.45703125 v 0.3046875025 c 0.351562,-0.0117187525 0.855468,-0.0351562525 1.125,-0.0351562525 0.257812,0 0.785156,0.0234375 1.113281,0.0351562525 V -0.30552344 c -0.65625,0 -0.773438,0 -0.773438,-0.45703125 V -2.5906797 c 0,-1.03125 0.714844,-1.59375 1.347657,-1.59375 0.621093,0 0.738281,0.5390625 0.738281,1.1015625 v 2.32031251 c 0,0.45703125 -0.117188,0.45703125 -0.773438,0.45703125 v 0.3046875025 c 0.339844,-0.0117187525 0.855469,-0.0351562525 1.125,-0.0351562525 0.257813,0 0.773438,0.0234375 1.113282,0.0351562525 V -0.30552344 c -0.515625,0 -0.773438,0 -0.785157,-0.3046875 V -2.5086484 c 0,-0.8554688 0,-1.171875 -0.304687,-1.5234375 -0.140625,-0.1757813 -0.46875,-0.375 -1.042969,-0.375 -0.726562,0 -1.195312,0.4335937 -1.476562,1.0546875 v -1.0546875 l -1.40625,0.1171875 v 0.3046875 c 0.703125,0 0.785156,0.070312 0.785156,0.5625 z m 5.876953,-0.5625 h 1.429688 V -4.2898984 H 19.15475 v -1.8398438 h -0.246094 c -0.01172,0.8203125 -0.316406,1.8867188 -1.289062,1.921875 v 0.2226563 h 0.84375 v 2.7539062 c 0,1.21875001 0.925781,1.33593751 1.289062,1.33593751 0.703125,0 0.984375,-0.703125 0.984375,-1.33593751 v -0.5742187 h -0.246093 v 0.5507812 c 0,0.73828126 -0.304688,1.11328126 -0.667969,1.11328126 -0.667969,0 -0.667969,-0.90234376 -0.667969,-1.07812496 z m 3.817383,0.6796875 v -1.1015625 l -1.382813,0.1171875 v 0.3046875 c 0.691407,0 0.773438,0.070312 0.773438,0.5625 v 2.66015621 c 0,0.45703125 -0.105469,0.45703125 -0.773438,0.45703125 V -8.359375e-4 C 21.976039,-0.01255469 22.444789,-0.03599219 22.726039,-0.03599219 c 0.398438,0 0.867188,0 1.265625,0.0351562525 V -0.30552344 h -0.210937 c -0.738282,0 -0.761719,-0.1171875 -0.761719,-0.46875 V -2.3094297 c 0,-0.984375 0.421875,-1.875 1.183594,-1.875 0.05859,0 0.08203,0 0.105468,0.011719 -0.03516,0.011719 -0.234375,0.1289062 -0.234375,0.3867187 0,0.28125 0.210938,0.4335938 0.433594,0.4335938 0.175781,0 0.421875,-0.1289063 0.421875,-0.4453125 0,-0.3164063 -0.304687,-0.609375 -0.726562,-0.609375 -0.738282,0 -1.089844,0.6679687 -1.230469,1.1015623 z m 6.925781,1.171875 c 0,-1.2773438 -0.996094,-2.3320313 -2.191406,-2.3320313 -1.253906,0 -2.214844,1.0898438 -2.214844,2.3320313 0,1.28906246 1.03125,2.23828121 2.203125,2.23828121 1.207031,0 2.203125,-0.97265625 2.203125,-2.23828121 z m -2.191406,1.99218746 c -0.433594,0 -0.867188,-0.2109375 -1.136719,-0.66796875 -0.257812,-0.43359371 -0.257812,-1.04296871 -0.257812,-1.40625001 0,-0.3867187 0,-0.9257812 0.246093,-1.359375 0.269532,-0.4570312 0.738282,-0.6679687 1.136719,-0.6679687 0.433594,0 0.867188,0.2226562 1.125,0.6445312 0.257813,0.4335938 0.257813,1.0078125 0.257813,1.3828125 0,0.3632813 0,0.9023438 -0.222657,1.33593751 -0.222656,0.4453125 -0.65625,0.73828125 -1.148437,0.73828125 z m 4.242187,-6.77343746 -1.429687,0.1054687 v 0.3164063 c 0.703125,0 0.773437,0.070312 0.773437,0.5507812 v 5.17968751 c 0,0.45703125 -0.105468,0.45703125 -0.773437,0.45703125 V -8.359375e-4 C 30.847133,-0.01255469 31.374477,-0.03599219 31.62057,-0.03599219 c 0.257813,0 0.738282,0.0234375 1.113282,0.0351562525 V -0.30552344 c -0.667969,0 -0.785157,0 -0.785157,-0.45703125 z m 2.768555,0 -1.429687,0.1054687 v 0.3164063 c 0.703125,0 0.773437,0.070312 0.773437,0.5507812 v 5.17968751 c 0,0.45703125 -0.105469,0.45703125 -0.773437,0.45703125 V -8.359375e-4 C 33.615688,-0.01255469 34.143031,-0.03599219 34.389125,-0.03599219 c 0.257813,0 0.738281,0.0234375 1.113281,0.0351562525 V -0.30552344 c -0.667968,0 -0.785156,0 -0.785156,-0.45703125 z m 2.121094,4.40625 c 0.05859,-1.4882813 0.902344,-1.734375 1.242187,-1.734375 1.019532,0 1.125,1.3476562 1.125,1.734375 z m -0.01172,0.2109375 h 2.789063 c 0.210937,0 0.246093,0 0.246093,-0.2109375 0,-0.984375 -0.539062,-1.9570313 -1.78125,-1.9570313 -1.160156,0 -2.074218,1.03125 -2.074218,2.2734375 0,1.33593751 1.042968,2.29687501 2.191406,2.29687501 1.21875,0 1.664062,-1.1015625 1.664062,-1.28906251 0,-0.1054687 -0.08203,-0.1171875 -0.128906,-0.1171875 -0.09375,0 -0.117187,0.058594 -0.128906,0.140625 -0.351563,1.01953126 -1.253906,1.01953126 -1.347656,1.01953126 -0.503907,0 -0.902344,-0.29296875 -1.125,-0.66796875 C 36.826625,-1.2898984 36.826625,-1.9461484 36.826624,-2.2977109 Z m 4.989258,-1.0078125 v -1.1015625 l -1.382813,0.1171875 v 0.3046875 c 0.691407,0 0.773438,0.070312 0.773438,0.5625 v 2.66015621 c 0,0.45703125 -0.105469,0.45703125 -0.773438,0.45703125 v 0.3046875025 c 0.38672,-0.0117187525 0.85547,-0.0351562525 1.13672,-0.0351562525 0.398438,0 0.867188,0 1.265625,0.0351562525 V -0.30552344 h -0.210937 c -0.738282,0 -0.761719,-0.1171875 -0.761719,-0.46875 V -2.3094297 c 0,-0.984375 0.421875,-1.875 1.183594,-1.875 0.05859,0 0.08203,0 0.105468,0.011719 -0.03516,0.011719 -0.234375,0.1289062 -0.234375,0.3867187 0,0.28125 0.210938,0.4335938 0.433594,0.4335938 0.175781,0 0.421875,-0.1289063 0.421875,-0.4453125 0,-0.3164063 -0.304687,-0.609375 -0.726562,-0.609375 -0.738282,0 -1.089844,0.6679687 -1.230469,1.1015625 z m 0,0"
       style="fill:#000000;fill-opacity:1;fill-rule:nonzero;stroke:none"
       aria-label="Controller"
       transform="matrix(1.3333333,0,0,1.3333333,451.01067,37.325333)" />
    <path
       id="path11"
       d="M 113.38728,-14.17339 H 170.0809 V 14.1734 h -56.69362 z"
       style="fill:none;stroke:#000000;stroke-width:0.79701;stroke-linecap:butt;stroke-linejoin:miter;stroke-miterlimit:10;stroke-dasharray:none;stroke-opacity:1"
       transform="matrix(1.3333333,0,0,-1.3333333,404.792,32.713333)" />
    <path
       id="path12"
       d="m 2.2624531,-3.1531797 h 1.6875 c 1.1953125,0 2.2617188,-0.796875 2.2617188,-1.7929687 0,-0.984375 -0.984375,-1.8632813 -2.34375,-1.8632813 H 0.35229687 v 0.3164063 h 0.234375 c 0.77343753,0 0.78515623,0.1054687 0.78515623,0.46875 v 5.24999996 c 0,0.3515625 -0.011719,0.46875 -0.78515623,0.46875 h -0.234375 V -8.359375e-4 C 0.70385937,-0.03599219 1.4304219,-0.03599219 1.8171406,-0.03599219 c 0.375,0 1.125,0 1.4765625,0.0351562525 V -0.30552344 H 3.0476094 c -0.7617188,0 -0.7851563,-0.1171875 -0.7851563,-0.46875 z m -0.035156,-0.2578125 v -2.6835937 c 0,-0.328125 0.023437,-0.3984375 0.4921875,-0.3984375 h 0.890625 c 1.5820312,0 1.5820312,1.0546875 1.5820312,1.546875 0,0.4570312 0,1.5351562 -1.5820312,1.5351562 z m 6.3105468,-3.5039062 -1.4296875,0.1054687 v 0.3164063 c 0.703125,0 0.7734375,0.070312 0.7734375,0.5507812 v 5.17968751 c 0,0.45703125 -0.1054687,0.45703125 -0.7734375,0.45703125 V -8.359375e-4 C 7.4362812,-0.01255469 7.963625,-0.03599219 8.2097187,-0.03599219 c 0.2578125,0 0.7382813,0.0234375 1.1132813,0.0351562525 V -0.30552344 c -0.6679688,0 -0.7851563,0 -0.7851563,-0.45703125 z m 4.3271481,6.15234371 c 0.03516,0.3984375 0.304688,0.8203125 0.773438,0.8203125 0.210937,0 0.820312,-0.140625 0.820312,-0.94921875 V -1.4422422 h -0.246094 v 0.55078126 c 0,0.5859375 -0.246093,0.64453125 -0.363281,0.64453125 -0.328125,0 -0.363281,-0.45703125 -0.363281,-0.50390625 V -2.7430234 c 0,-0.4101563 0,-0.8085938 -0.363281,-1.171875 -0.386719,-0.3867188 -0.878907,-0.5507813 -1.359375,-0.5507813 -0.820313,0 -1.511719,0.46875 -1.511719,1.125 0,0.3046875 0.199219,0.46875 0.457031,0.46875 0.28125,0 0.46875,-0.1992187 0.46875,-0.4570312 0,-0.1171875 -0.05859,-0.4453125 -0.515625,-0.4570313 0.269531,-0.3515625 0.761719,-0.4570312 1.078125,-0.4570312 0.492188,0 1.054688,0.3867187 1.054688,1.2773437 v 0.3632813 c -0.503907,0.035156 -1.207032,0.058594 -1.828125,0.3632812 -0.75,0.3398438 -0.9960939,0.8554688 -0.9960939,1.28906251 0,0.80859375 0.9609369,1.0546875 1.5937499,1.0546875 0.65625,0 1.113281,-0.3984375 1.300781,-0.8671875 z M 12.79468,-2.3914609 v 0.9960937 c 0,0.94921876 -0.714844,1.28906251 -1.160157,1.28906251 -0.492187,0 -0.902343,-0.3515625 -0.902343,-0.85546875 0,-0.53906246 0.421875,-1.37109376 2.0625,-1.42968746 z m 2.835937,-1.03125 v 2.66015621 c 0,0.45703125 -0.117187,0.45703125 -0.785156,0.45703125 v 0.3046875025 c 0.351562,-0.0117187525 0.855469,-0.0351562525 1.125,-0.0351562525 0.257812,0 0.785156,0.0234375 1.113281,0.0351562525 V -0.30552344 c -0.65625,0 -0.773437,0 -0.773437,-0.45703125 V -2.5906797 c 0,-1.03125 0.714843,-1.59375 1.347656,-1.59375 0.621094,0 0.738281,0.5390625 0.738281,1.1015625 v 2.32031251 c 0,0.45703125 -0.117187,0.45703125 -0.773437,0.45703125 v 0.3046875025 c 0.339843,-0.0117187525 0.855468,-0.0351562525 1.125,-0.0351562525 0.257812,0 0.773437,0.0234375 1.113281,0.0351562525 V -0.30552344 c -0.515625,0 -0.773438,0 -0.785156,-0.3046875 V -2.5086484 c 0,-0.8554688 0,-1.171875 -0.304688,-1.5234375 -0.140625,-0.1757813 -0.46875,-0.375 -1.042969,-0.375 -0.726562,0 -1.195312,0.4335937 -1.476562,1.0546875 v -1.0546875 l -1.40625,0.1171875 v 0.3046875 c 0.703125,0 0.785156,0.070312 0.785156,0.5625 z m 5.876953,-0.5625 h 1.429688 V -4.2898984 H 21.50757 v -1.8398438 h -0.246093 c -0.01172,0.8203125 -0.316407,1.8867188 -1.289063,1.921875 v 0.2226563 h 0.84375 v 2.7539062 c 0,1.21875001 0.925781,1.33593751 1.289063,1.33593751 0.703125,0 0.984375,-0.703125 0.984375,-1.33593751 v -0.5742187 h -0.246094 v 0.5507812 c 0,0.73828126 -0.304688,1.11328126 -0.667969,1.11328126 -0.667969,0 -0.667969,-0.90234376 -0.667969,-1.07812496 z m 0,0"
       style="fill:#000000;fill-opacity:1;fill-rule:nonzero;stroke:none"
       aria-label="Plant"
       transform="matrix(1.3333333,0,0,1.3333333,577.99467,37.325333)" />
    <path
       id="path13"
       d="M 0,0 H 23.28584"
       style="fill:none;stroke:#000000;stroke-width:0.79701;stroke-linecap:butt;stroke-linejoin:miter;stroke-miterlimit:10;stroke-dasharray:none;stroke-opacity:1"
       transform="matrix(1.3333333,0,0,-1.3333333,404.792,32.713333)" />
    <path
       id="path14"
       d="M 4.66248,0 C 3.28098,0.25902 1.0361,1.0361 -0.51805,1.94269 V -1.94269 C 1.0361,-1.0361 3.28098,-0.25902 4.66248,0"
       style="fill:#000000;fill-opacity:1;fill-rule:nonzero;stroke:none"
       transform="matrix(1.3333333,0,0,-1.3333333,435.83979,32.713333)" />
    <path
       id="path15"
       d="m 0.35176563,-6.8072266 v 0.3164063 h 0.234375 c 0.77343747,0 0.78515627,0.1054687 0.78515627,0.46875 v 5.24999999 c 0,0.3515625 -0.011719,0.46875 -0.78515627,0.46875 h -0.234375 v 0.3046875 H 3.9962969 c 1.6757812,0 3.046875,-1.47656249 3.046875,-3.35156249 0,-1.8867188 -1.3476563,-3.4570313 -3.046875,-3.4570313 z m 2.36718747,6.50390629 c -0.46875,0 -0.4921875,-0.0703125 -0.4921875,-0.3984375 V -6.0923828 c 0,-0.328125 0.023437,-0.3984375 0.4921875,-0.3984375 h 0.9960938 c 0.6210937,0 1.3007812,0.2109375 1.8164062,0.9257812 0.421875,0.5859375 0.515625,1.4414063 0.515625,2.2148438 0,1.1132812 -0.1875,1.7109375 -0.5507812,2.1914062 -0.1992188,0.26953129 -0.7617188,0.85546879 -1.7695313,0.85546879 z M 8.7248125,-2.5064453 c 0.058594,-1.4882813 0.9023438,-1.734375 1.2421875,-1.734375 1.019531,0 1.125,1.3476562 1.125,1.734375 z m -0.011719,0.2109375 h 2.7890625 c 0.210938,0 0.246094,0 0.246094,-0.2109375 0,-0.984375 -0.539062,-1.9570313 -1.7812503,-1.9570313 -1.1601562,0 -2.0742187,1.03125 -2.0742187,2.2734375 0,1.33593754 1.0429687,2.29687504 2.191407,2.29687504 1.21875,0 1.664062,-1.1015625 1.664062,-1.28906254 0,-0.1054687 -0.08203,-0.1171875 -0.128906,-0.1171875 -0.09375,0 -0.117188,0.058594 -0.128906,0.140625 -0.351563,1.01953129 -1.253907,1.01953129 -1.347657,1.01953129 -0.5039063,0 -0.9023438,-0.29296875 -1.125,-0.66796875 C 8.7130938,-1.2876953 8.7130938,-1.9439453 8.7130935,-2.2955078 Z m 5.3994145,0.3632812 c 0.222656,0.035156 1.03125,0.1992188 1.03125,0.9140625 0,0.51562504 -0.351563,0.91406254 -1.125,0.91406254 -0.832031,0 -1.195313,-0.57421875 -1.382813,-1.41796874 -0.03516,-0.1289063 -0.03516,-0.1757813 -0.140625,-0.1757813 -0.128906,0 -0.128906,0.070312 -0.128906,0.2578125 v 1.31250004 c 0,0.1640625 0,0.234375 0.105469,0.234375 0.05859,0 0.07031,0 0.257812,-0.19921875 0.01172,-0.01171875 0.01172,-0.03515625 0.199219,-0.22265625 0.433594,0.421875 0.878906,0.421875 1.089844,0.421875 1.148437,0 1.605469,-0.66796875 1.605469,-1.38281254 0,-0.5273437 -0.292969,-0.8203125 -0.421875,-0.9492187 -0.328125,-0.3164063 -0.714844,-0.3984375 -1.136719,-0.46875 -0.550781,-0.1171875 -1.21875,-0.2460938 -1.21875,-0.8203125 0,-0.3515625 0.257812,-0.7617188 1.113281,-0.7617188 1.101563,0 1.148438,0.9023438 1.171875,1.2070313 0,0.09375 0.09375,0.09375 0.117188,0.09375 0.128906,0 0.128906,-0.046875 0.128906,-0.2460938 v -0.9960937 c 0,-0.1757813 0,-0.2460938 -0.117188,-0.2460938 -0.04687,0 -0.07031,0 -0.199218,0.1171875 -0.02344,0.046875 -0.128907,0.1289063 -0.164063,0.1640625 -0.375,-0.28125 -0.785156,-0.28125 -0.9375,-0.28125 -1.21875,0 -1.59375,0.6679688 -1.59375,1.2304688 0,0.3398437 0.164063,0.6210937 0.433594,0.84375 0.316406,0.2578125 0.597656,0.3164062 1.3125,0.4570312 z m 3.612305,-2.4726562 -1.394532,0.1171875 v 0.3046875 c 0.65625,0 0.738282,0.058594 0.738282,0.5507812 v 2.67187504 c 0,0.45703125 -0.105469,0.45703125 -0.773438,0.45703125 v 0.3046875 c 0.316406,-0.01171875 0.855469,-0.03515625 1.101563,-0.03515625 0.339843,0 0.691406,0.0234375 1.03125,0.03515625 v -0.3046875 c -0.65625,0 -0.703125,-0.0585938 -0.703125,-0.4453125 z m 0.04687,-1.734375 c 0,-0.3164063 -0.246094,-0.5273438 -0.527344,-0.5273438 -0.316406,0 -0.527344,0.2695313 -0.527344,0.5273438 0,0.2695312 0.210938,0.5273437 0.527344,0.5273437 0.28125,0 0.527344,-0.1992187 0.527344,-0.5273437 z m 2.627929,2.8359375 V -4.4048828 L 19.0168,-4.2876953 v 0.3046875 c 0.691406,0 0.773437,0.070312 0.773437,0.5625 v 2.66015624 c 0,0.45703125 -0.105469,0.45703125 -0.773437,0.45703125 v 0.3046875 c 0.386718,-0.01171875 0.855468,-0.03515625 1.136718,-0.03515625 0.398438,0 0.867188,0 1.265625,0.03515625 v -0.3046875 h -0.210937 c -0.738281,0 -0.761719,-0.1171875 -0.761719,-0.46875 V -2.3072266 c 0,-0.984375 0.421875,-1.875 1.183594,-1.875 0.05859,0 0.08203,0 0.105469,0.011719 -0.03516,0.011719 -0.234375,0.1289062 -0.234375,0.3867187 0,0.28125 0.210937,0.4335938 0.433593,0.4335938 0.175782,0 0.421875,-0.1289063 0.421875,-0.4453125 0,-0.3164063 -0.304687,-0.609375 -0.726562,-0.609375 -0.738281,0 -1.089844,0.6679687 -1.230469,1.1015623 z m 3.351563,0.796875 c 0.05859,-1.4882813 0.902343,-1.734375 1.242187,-1.734375 1.019531,0 1.125,1.3476562 1.125,1.734375 z m -0.01172,0.2109375 h 2.789062 c 0.210938,0 0.246094,0 0.246094,-0.2109375 0,-0.984375 -0.539062,-1.9570313 -1.78125,-1.9570313 -1.160156,0 -2.074219,1.03125 -2.074219,2.2734375 0,1.33593754 1.042969,2.29687504 2.191407,2.29687504 1.21875,0 1.664062,-1.1015625 1.664062,-1.28906254 0,-0.1054687 -0.08203,-0.1171875 -0.128906,-0.1171875 -0.09375,0 -0.117188,0.058594 -0.128906,0.140625 -0.351563,1.01953129 -1.253907,1.01953129 -1.347657,1.01953129 -0.503906,0 -0.902343,-0.29296875 -1.125,-0.66796875 C 23.739461,-1.2876953 23.739461,-1.9439453 23.739461,-2.2955078 Z m 7.110352,1.74609374 v 0.65625 L 32.31465,0.00136719 v -0.3046875 c -0.703125,0 -0.773437,-0.0703125 -0.773437,-0.5625 V -6.9126953 l -1.441406,0.1054687 v 0.3164063 c 0.703125,0 0.785156,0.070312 0.785156,0.5507812 v 2.15625 C 30.592,-4.1470703 30.158406,-4.4048828 29.619344,-4.4048828 c -1.171875,0 -2.214844,0.984375 -2.214844,2.2617187 0,1.26562504 0.972656,2.25000004 2.109375,2.25000004 0.644531,0 1.089844,-0.33984375 1.335938,-0.65625 z m 0,-2.67187504 v 2.0507813 c 0,0.17578124 0,0.19921874 -0.105469,0.36328124 -0.304688,0.48046875 -0.75,0.703125 -1.183594,0.703125 -0.445312,0 -0.796875,-0.2578125 -1.042969,-0.64453125 -0.257812,-0.41015629 -0.292968,-0.97265629 -0.292968,-1.38281249 0,-0.3632813 0.02344,-0.9609375 0.316406,-1.4179688 0.210937,-0.3046875 0.585937,-0.6328125 1.125,-0.6328125 0.351562,0 0.761719,0.1523438 1.078125,0.5976563 0.105469,0.1640625 0.105469,0.1875 0.105469,0.3632812 z M 43.10176,-3.3736328 c 0,-2.0390625 -1.5,-3.6445313 -3.316407,-3.6445313 -1.78125,0 -3.304687,1.59375 -3.304687,3.6445313 0,2.0390625 1.535156,3.59765624 3.304687,3.59765624 1.816407,0 3.316407,-1.58203124 3.316407,-3.59765624 z m -3.304688,3.33984374 c -0.960937,0 -2.296875,-0.87890625 -2.296875,-3.48046874 0,-2.578125 1.453125,-3.2578125 2.285156,-3.2578125 0.867188,0 2.285157,0.703125 2.285157,3.2578125 0,2.63671874 -1.359375,3.48046874 -2.273438,3.48046874 z m 7.760742,-0.75 v 0.890625 l 1.441407,-0.10546875 v -0.3046875 c -0.703125,0 -0.785157,-0.0703125 -0.785157,-0.5625 V -4.4048828 l -1.453125,0.1171875 v 0.3046875 c 0.691407,0 0.773438,0.070312 0.773438,0.5625 v 1.7695312 c 0,0.86718754 -0.480469,1.54687504 -1.207031,1.54687504 -0.832032,0 -0.878907,-0.46875 -0.878907,-0.99609374 v -3.3046875 l -1.464843,0.1171875 v 0.3046875 c 0.785156,0 0.785156,0.035156 0.785156,0.9140625 v 1.5 c 0,0.77343749 0,1.67578124 1.511719,1.67578124 0.550781,0 0.996093,-0.26953125 1.277343,-0.890625 z m 3.366211,-3.19921874 h 1.429688 v -0.3046875 h -1.429688 v -1.8398438 h -0.246093 c -0.01172,0.8203125 -0.316407,1.8867188 -1.289063,1.921875 v 0.2226563 h 0.84375 v 2.7539062 c 0,1.21875004 0.925781,1.33593754 1.289063,1.33593754 0.703125,0 0.984375,-0.703125 0.984375,-1.33593754 v -0.5742187 h -0.246094 v 0.5507812 c 0,0.73828129 -0.304688,1.11328129 -0.667969,1.11328129 -0.667969,0 -0.667969,-0.90234379 -0.667969,-1.07812499 z m 3.861328,0.234375 v -0.65625 l -1.429687,0.1171875 v 0.3046875 c 0.703125,0 0.773437,0.058594 0.773437,0.4921875 v 4.6640625 c 0,0.4570312 -0.105468,0.4570312 -0.773437,0.4570312 v 0.3046875 c 0.339844,-0.011719 0.855469,-0.035156 1.113281,-0.035156 0.269531,0 0.773438,0.023437 1.125,0.035156 V 1.6302734 c -0.667969,0 -0.773437,0 -0.773437,-0.4570312 v -1.75781251 c 0.04687,0.15234375 0.46875,0.69140625 1.21875,0.69140625 1.183593,0 2.226562,-0.97265625 2.226562,-2.26171874 0,-1.265625 -0.972656,-2.25 -2.085937,-2.25 -0.773438,0 -1.195313,0.4453125 -1.394532,0.65625 z m 0.03516,2.6132812 v -2.2148437 c 0.28125,-0.515625 0.773437,-0.796875 1.277343,-0.796875 0.726563,0 1.335938,0.8671875 1.335938,1.9921875 0,1.20703124 -0.691406,2.05078124 -1.429688,2.05078124 -0.398437,0 -0.773437,-0.19921875 -1.042968,-0.609375 -0.140625,-0.2109375 -0.140625,-0.22265625 -0.140625,-0.42187504 z m 7.68164,0.35156254 v 0.890625 L 63.94356,0.00136719 v -0.3046875 c -0.703125,0 -0.785157,-0.0703125 -0.785157,-0.5625 V -4.4048828 l -1.453125,0.1171875 v 0.3046875 c 0.691407,0 0.773438,0.070312 0.773438,0.5625 v 1.7695312 c 0,0.86718754 -0.480469,1.54687504 -1.207031,1.54687504 -0.832032,0 -0.878907,-0.46875 -0.878907,-0.99609374 v -3.3046875 l -1.464843,0.1171875 v 0.3046875 c 0.785156,0 0.785156,0.035156 0.785156,0.9140625 v 1.5 c 0,0.77343749 0,1.67578124 1.511719,1.67578124 0.550781,0 0.996093,-0.26953125 1.277343,-0.890625 z m 3.366211,-3.19921874 h 1.429688 V -4.2876953 H 65.868364 V -6.1275391 H 65.62227 c -0.01172,0.8203125 -0.316406,1.8867188 -1.289062,1.921875 v 0.2226563 h 0.84375 v 2.7539062 c 0,1.21875004 0.925781,1.33593754 1.289062,1.33593754 0.703125,0 0.984375,-0.703125 0.984375,-1.33593754 v -0.5742187 h -0.246093 v 0.5507812 c 0,0.73828129 -0.304688,1.11328129 -0.667969,1.11328129 -0.667969,0 -0.667969,-0.90234379 -0.667969,-1.07812499 z m 0,0"
       style="fill:#000000;fill-opacity:1;fill-rule:nonzero;stroke:none"
       aria-label="DesiredOutput"
       transform="matrix(1.3333333,0,0,1.3333333,309.136,36.033333)" />
    <path
       id="path16"
       d="m 170.4794,0 h 23.28584"
       style="fill:none;stroke:#000000;stroke-width:0.79701;stroke-linecap:butt;stroke-linejoin:miter;stroke-miterlimit:10;stroke-dasharray:none;stroke-opacity:1"
       transform="matrix(1.3333333,0,0,-1.3333333,404.792,32.713333)" />
    <path
       id="path17"
       d="M 4.66248,0 C 3.28098,0.25902 1.0361,1.0361 -0.51805,1.94269 V -1.94269 C 1.0361,-1.0361 3.28098,-0.25902 4.66248,0"
       style="fill:#000000;fill-opacity:1;fill-rule:nonzero;stroke:none"
       transform="matrix(1.3333333,0,0,-1.3333333,663.14565,32.713333)" />
    <path
       id="path18"
       d="M 3.9599063,-6.9361328 C 3.9130313,-7.0650391 3.8895938,-7.1353516 3.73725,-7.1353516 c -0.1640625,0 -0.1875,0.058594 -0.2460937,0.1992188 l -2.0625,5.96484374 c -0.1757813,0.50390625 -0.5742188,0.65625 -1.1132813,0.66796875 v 0.3046875 c 0.234375,-0.01171875 0.65625,-0.03515625 1.0195313,-0.03515625 0.3046875,0 0.8203125,0.0234375 1.1484375,0.03515625 v -0.3046875 c -0.5039063,0 -0.75,-0.2578125 -0.75,-0.515625 0,-0.0234375 0.011719,-0.12890625 0.023437,-0.140625 L 2.2138125,-2.2720703 H 4.67475 l 0.5273438,1.52343749 c 0.011719,0.046875 0.023437,0.10546875 0.023437,0.140625 0,0.3046875 -0.5507813,0.3046875 -0.8203125,0.3046875 v 0.3046875 c 0.3515625,-0.03515625 1.0546875,-0.03515625 1.4296875,-0.03515625 0.4335937,0 0.890625,0.01171875 1.3007812,0.03515625 v -0.3046875 H 6.9599063 c -0.5976563,0 -0.7382813,-0.0703125 -0.84375,-0.3984375 z m -0.5273438,1.125 1.125,3.234375 H 2.3192813 Z m 5.2001953,3.6445312 c 0,-1.6289062 0.8203125,-2.0507812 1.3476563,-2.0507812 0.09375,0 0.7148439,0.011719 1.0664059,0.375 -0.410156,0.023437 -0.46875,0.328125 -0.46875,0.4570312 0,0.2578125 0.1875,0.4570313 0.457032,0.4570313 0.257812,0 0.457031,-0.1640625 0.457031,-0.46875 0,-0.6796875 -0.75,-1.0664063 -1.5234377,-1.0664063 -1.2421875,0 -2.15625,1.078125 -2.15625,2.3085938 0,1.27734374 0.984375,2.26171874 2.1445313,2.26171874 1.3359374,0 1.6523434,-1.19531254 1.6523434,-1.28906254 0,-0.1054687 -0.105468,-0.1054687 -0.128906,-0.1054687 -0.09375,0 -0.117187,0.046875 -0.128906,0.1054687 -0.292969,0.92578129 -0.9375,1.04296879 -1.3125,1.04296879 -0.5273439,0 -1.4062502,-0.421875 -1.4062502,-2.02734379 z m 4.9892582,-1.8164062 h 1.429687 v -0.3046875 h -1.429687 v -1.8398438 h -0.246094 c -0.01172,0.8203125 -0.316406,1.8867188 -1.289063,1.921875 v 0.2226563 h 0.84375 v 2.7539062 c 0,1.21875004 0.925782,1.33593754 1.289063,1.33593754 0.703125,0 0.984375,-0.703125 0.984375,-1.33593754 v -0.5742187 h -0.246094 v 0.5507812 c 0,0.73828129 -0.304687,1.11328129 -0.667969,1.11328129 -0.667968,0 -0.667968,-0.90234379 -0.667968,-1.07812499 z m 6.041015,3.19921874 v 0.890625 l 1.441407,-0.10546875 v -0.3046875 c -0.703125,0 -0.785157,-0.0703125 -0.785157,-0.5625 V -4.4048828 l -1.453125,0.1171875 v 0.3046875 c 0.691407,0 0.773438,0.070312 0.773438,0.5625 v 1.7695312 c 0,0.86718754 -0.480469,1.54687504 -1.207031,1.54687504 -0.832032,0 -0.878907,-0.46875 -0.878907,-0.99609374 v -3.3046875 l -1.464843,0.1171875 v 0.3046875 c 0.785156,0 0.785156,0.035156 0.785156,0.9140625 v 1.5 c 0,0.77343749 0,1.67578124 1.511719,1.67578124 0.550781,0 0.996093,-0.26953125 1.277343,-0.890625 z m 4.962891,0.0234375 c 0.03516,0.3984375 0.304687,0.8203125 0.773437,0.8203125 0.210938,0 0.820313,-0.140625 0.820313,-0.94921875 V -1.4400391 h -0.246094 v 0.55078129 c 0,0.5859375 -0.246094,0.64453125 -0.363281,0.64453125 -0.328125,0 -0.363281,-0.45703125 -0.363281,-0.50390625 V -2.7408203 c 0,-0.4101563 0,-0.8085938 -0.363282,-1.171875 -0.386718,-0.3867188 -0.878906,-0.5507813 -1.359375,-0.5507813 -0.820312,0 -1.511718,0.46875 -1.511718,1.125 0,0.3046875 0.199218,0.46875 0.457031,0.46875 0.28125,0 0.46875,-0.1992187 0.46875,-0.4570312 0,-0.1171875 -0.05859,-0.4453125 -0.515625,-0.4570313 0.269531,-0.3515625 0.761719,-0.4570312 1.078125,-0.4570312 0.492187,0 1.054687,0.3867187 1.054687,1.2773437 v 0.3632813 c -0.503906,0.035156 -1.207031,0.058594 -1.828125,0.3632812 -0.75,0.3398438 -0.996093,0.8554688 -0.996093,1.28906254 0,0.80859375 0.960937,1.0546875 1.59375,1.0546875 0.65625,0 1.113281,-0.3984375 1.300781,-0.8671875 z m -0.07031,-1.62890624 v 0.9960937 c 0,0.94921879 -0.714843,1.28906254 -1.160156,1.28906254 -0.492187,0 -0.902344,-0.3515625 -0.902344,-0.85546875 0,-0.53906249 0.421875,-1.37109379 2.0625,-1.42968749 z m 3.492188,-4.5234375 -1.429688,0.1054687 v 0.3164063 c 0.703125,0 0.773438,0.070312 0.773438,0.5507812 v 5.17968754 c 0,0.45703125 -0.105469,0.45703125 -0.773438,0.45703125 v 0.3046875 c 0.328125,-0.01171875 0.855469,-0.03515625 1.101563,-0.03515625 0.257812,0 0.738281,0.0234375 1.113281,0.03515625 v -0.3046875 c -0.667969,0 -0.785156,0 -0.785156,-0.45703125 z m 11.510742,3.5390625 c 0,-2.0390625 -1.5,-3.6445313 -3.316406,-3.6445313 -1.78125,0 -3.304688,1.59375 -3.304688,3.6445313 0,2.0390625 1.535157,3.59765624 3.304688,3.59765624 1.816406,0 3.316406,-1.58203124 3.316406,-3.59765624 z m -3.304687,3.33984374 c -0.960938,0 -2.296875,-0.87890625 -2.296875,-3.48046874 0,-2.578125 1.453125,-3.2578125 2.285156,-3.2578125 0.867187,0 2.285156,0.703125 2.285156,3.2578125 0,2.63671874 -1.359375,3.48046874 -2.273437,3.48046874 z m 7.760742,-0.75 v 0.890625 L 45.456,0.00136719 v -0.3046875 c -0.703125,0 -0.785156,-0.0703125 -0.785156,-0.5625 V -4.4048828 l -1.453125,0.1171875 v 0.3046875 c 0.691406,0 0.773437,0.070312 0.773437,0.5625 v 1.7695312 c 0,0.86718754 -0.480468,1.54687504 -1.207031,1.54687504 -0.832031,0 -0.878906,-0.46875 -0.878906,-0.99609374 v -3.3046875 l -1.464844,0.1171875 v 0.3046875 c 0.785156,0 0.785156,0.035156 0.785156,0.9140625 v 1.5 c 0,0.77343749 0,1.67578124 1.511719,1.67578124 0.550781,0 0.996094,-0.26953125 1.277344,-0.890625 z m 3.366211,-3.19921874 h 1.429687 v -0.3046875 h -1.429687 v -1.8398438 h -0.246094 c -0.01172,0.8203125 -0.316406,1.8867188 -1.289063,1.921875 v 0.2226563 h 0.84375 v 2.7539062 c 0,1.21875004 0.925782,1.33593754 1.289063,1.33593754 0.703125,0 0.984375,-0.703125 0.984375,-1.33593754 v -0.5742187 h -0.246094 v 0.5507812 c 0,0.73828129 -0.304687,1.11328129 -0.667969,1.11328129 -0.667968,0 -0.667968,-0.90234379 -0.667968,-1.07812499 z m 3.864258,0.234375 v -0.65625 l -1.429688,0.1171875 v 0.3046875 c 0.703125,0 0.773438,0.058594 0.773438,0.4921875 v 4.6640625 c 0,0.4570312 -0.105469,0.4570312 -0.773438,0.4570312 v 0.3046875 c 0.339844,-0.011719 0.855469,-0.035156 1.113281,-0.035156 0.269532,0 0.773438,0.023437 1.125,0.035156 V 1.6302734 c -0.667968,0 -0.773437,0 -0.773437,-0.4570312 v -1.75781251 c 0.04687,0.15234375 0.46875,0.69140625 1.21875,0.69140625 1.183594,0 2.226562,-0.97265625 2.226562,-2.26171874 0,-1.265625 -0.972656,-2.25 -2.085937,-2.25 -0.773438,0 -1.195313,0.4453125 -1.394531,0.65625 z m 0.03516,2.6132812 v -2.2148437 c 0.28125,-0.515625 0.773437,-0.796875 1.277344,-0.796875 0.726562,0 1.335937,0.8671875 1.335937,1.9921875 0,1.20703124 -0.691406,2.05078124 -1.429687,2.05078124 -0.398438,0 -0.773438,-0.19921875 -1.042969,-0.609375 -0.140625,-0.2109375 -0.140625,-0.22265625 -0.140625,-0.42187504 z m 7.678711,0.35156254 v 0.890625 l 1.441406,-0.10546875 v -0.3046875 c -0.703125,0 -0.785156,-0.0703125 -0.785156,-0.5625 V -4.4048828 l -1.453125,0.1171875 v 0.3046875 c 0.691406,0 0.773437,0.070312 0.773437,0.5625 v 1.7695312 c 0,0.86718754 -0.480469,1.54687504 -1.207031,1.54687504 -0.832031,0 -0.878906,-0.46875 -0.878906,-0.99609374 v -3.3046875 l -1.464844,0.1171875 v 0.3046875 c 0.785156,0 0.785156,0.035156 0.785156,0.9140625 v 1.5 c 0,0.77343749 0,1.67578124 1.511719,1.67578124 0.550781,0 0.996094,-0.26953125 1.277344,-0.890625 z m 3.36914,-3.19921874 h 1.429688 V -4.2876953 H 62.32807 v -1.8398438 h -0.246093 c -0.01172,0.8203125 -0.316407,1.8867188 -1.289063,1.921875 v 0.2226563 h 0.84375 v 2.7539062 c 0,1.21875004 0.925781,1.33593754 1.289063,1.33593754 0.703125,0 0.984375,-0.703125 0.984375,-1.33593754 v -0.5742187 h -0.246094 v 0.5507812 c 0,0.73828129 -0.304688,1.11328129 -0.667969,1.11328129 -0.667969,0 -0.667969,-0.90234379 -0.667969,-1.07812499 z m 0,0"
       style="fill:#000000;fill-opacity:1;fill-rule:nonzero;stroke:none"
       aria-label="ActualOutput"
       transform="matrix(1.3333333,0,0,1.3333333,674.31733,36.033333)" />
    <path
       id="path19"
       d="M 85.43893,0 H 108.3263"
       style="fill:none;stroke:#000000;stroke-width:0.79701;stroke-linecap:butt;stroke-linejoin:miter;stroke-miterlimit:10;stroke-dasharray:none;stroke-opacity:1"
       transform="matrix(1.3333333,0,0,-1.3333333,404.792,32.713333)" />
    <path
       id="path20"
       d="M 4.66248,0 C 3.28098,0.25902 1.0361,1.0361 -0.51805,1.94269 V -1.94269 C 1.0361,-1.0361 3.28098,-0.25902 4.66248,0"
       style="fill:#000000;fill-opacity:1;fill-rule:nonzero;stroke:none"
       transform="matrix(1.3333333,0,0,-1.3333333,549.22707,32.713333)" />
  </g>
</svg>
