<?xml version="1.0" encoding="UTF-8" standalone="no"?>
<!-- Created with Inkscape (http://www.inkscape.org/) -->

<svg
   version="1.1"
   id="svg1"
   width="271.42532"
   height="65.425331"
   viewBox="0 0 271.42532 65.425331"
   sodipodi:docname="Tikz (12).pdf"
   xmlns:inkscape="http://www.inkscape.org/namespaces/inkscape"
   xmlns:sodipodi="http://sodipodi.sourceforge.net/DTD/sodipodi-0.dtd"
   xmlns="http://www.w3.org/2000/svg"
   xmlns:svg="http://www.w3.org/2000/svg">
  <defs
     id="defs1" />
  <sodipodi:namedview
     id="namedview1"
     pagecolor="#ffffff"
     bordercolor="#000000"
     borderopacity="0.25"
     inkscape:showpageshadow="2"
     inkscape:pageopacity="0.0"
     inkscape:pagecheckerboard="0"
     inkscape:deskcolor="#d1d1d1">
    <inkscape:page
       x="0"
       y="0"
       inkscape:label="1"
       id="page1"
       width="271.42532"
       height="65.425331"
       margin="0"
       bleed="0" />
  </sodipodi:namedview>
  <g
     id="g1"
     inkscape:groupmode="layer"
     inkscape:label="1">
    <path
       id="path1"
       d="M 28.34682,-14.17339 H 85.04044 V 14.1734 H 28.34682 Z"
       style="fill:none;stroke:#000000;stroke-width:0.79701;stroke-linecap:butt;stroke-linejoin:miter;stroke-miterlimit:10;stroke-dasharray:none;stroke-opacity:1"
       transform="matrix(1.3333333,0,0,-1.3333333,54.772,32.713333)" />
    <path
       id="path2"
       d="m 2.2631016,-3.1531797 h 1.6875 c 1.1953125,0 2.2617187,-0.796875 2.2617187,-1.7929687 0,-0.984375 -0.984375,-1.8632813 -2.34375,-1.8632813 H 0.35294531 v 0.3164063 h 0.234375 c 0.77343749,0 0.78515629,0.1054687 0.78515629,0.46875 v 5.24999996 c 0,0.3515625 -0.011719,0.46875 -0.78515629,0.46875 h -0.234375 V -8.359375e-4 C 0.70450781,-0.03599219 1.4310703,-0.03599219 1.8177891,-0.03599219 c 0.375,0 1.125,0 1.4765625,0.0351562525 V -0.30552344 H 3.0482578 c -0.7617187,0 -0.7851562,-0.1171875 -0.7851562,-0.46875 z m -0.035156,-0.2578125 v -2.6835937 c 0,-0.328125 0.023437,-0.3984375 0.4921875,-0.3984375 h 0.890625 c 1.5820313,0 1.5820313,1.0546875 1.5820313,1.546875 0,0.4570312 0,1.5351562 -1.5820313,1.5351562 z M 8.5384925,-6.9148984 7.108805,-6.8094297 v 0.3164063 c 0.703125,0 0.7734375,0.070312 0.7734375,0.5507812 v 5.17968751 c 0,0.45703125 -0.1054688,0.45703125 -0.7734375,0.45703125 V -8.359375e-4 C 7.4369297,-0.01255469 7.9642734,-0.03599219 8.2103672,-0.03599219 c 0.2578125,0 0.7382812,0.0234375 1.1132812,0.0351562525 V -0.30552344 c -0.6679687,0 -0.7851562,0 -0.7851562,-0.45703125 z m 4.3271485,6.15234371 c 0.03516,0.3984375 0.304687,0.8203125 0.773437,0.8203125 0.210938,0 0.820313,-0.140625 0.820313,-0.94921875 V -1.4422422 h -0.246094 v 0.55078126 c 0,0.5859375 -0.246094,0.64453125 -0.363281,0.64453125 -0.328125,0 -0.363282,-0.45703125 -0.363282,-0.50390625 V -2.7430234 c 0,-0.4101563 0,-0.8085938 -0.363281,-1.171875 -0.386719,-0.3867188 -0.878906,-0.5507813 -1.359375,-0.5507813 -0.820312,0 -1.511719,0.46875 -1.511719,1.125 0,0.3046875 0.199219,0.46875 0.457032,0.46875 0.28125,0 0.46875,-0.1992187 0.46875,-0.4570312 0,-0.1171875 -0.05859,-0.4453125 -0.515625,-0.4570313 0.269531,-0.3515625 0.761718,-0.4570312 1.078125,-0.4570312 0.492187,0 1.054687,0.3867187 1.054687,1.2773437 v 0.3632813 c -0.503906,0.035156 -1.207031,0.058594 -1.828125,0.3632812 -0.75,0.3398438 -0.9960933,0.8554688 -0.9960933,1.28906251 0,0.80859375 0.9609373,1.0546875 1.5937493,1.0546875 0.65625,0 1.113282,-0.3984375 1.300782,-0.8671875 z m -0.07031,-1.62890621 v 0.9960937 c 0,0.94921876 -0.714844,1.28906251 -1.160156,1.28906251 -0.492188,0 -0.902344,-0.3515625 -0.902344,-0.85546875 0,-0.53906246 0.421875,-1.37109376 2.0625,-1.42968746 z m 2.835938,-1.03125 v 2.66015621 c 0,0.45703125 -0.117188,0.45703125 -0.785157,0.45703125 v 0.3046875025 c 0.351563,-0.0117187525 0.855469,-0.0351562525 1.125,-0.0351562525 0.257813,0 0.785157,0.0234375 1.113282,0.0351562525 V -0.30552344 c -0.65625,0 -0.773438,0 -0.773438,-0.45703125 V -2.5906797 c 0,-1.03125 0.714844,-1.59375 1.347656,-1.59375 0.621094,0 0.738282,0.5390625 0.738282,1.1015625 v 2.32031251 c 0,0.45703125 -0.117188,0.45703125 -0.773438,0.45703125 v 0.3046875025 c 0.339844,-0.0117187525 0.855469,-0.0351562525 1.125,-0.0351562525 0.257813,0 0.773438,0.0234375 1.113281,0.0351562525 V -0.30552344 c -0.515625,0 -0.773437,0 -0.785156,-0.3046875 V -2.5086484 c 0,-0.8554688 0,-1.171875 -0.304687,-1.5234375 -0.140625,-0.1757813 -0.46875,-0.375 -1.042969,-0.375 -0.726563,0 -1.195313,0.4335937 -1.476563,1.0546875 v -1.0546875 l -1.40625,0.1171875 v 0.3046875 c 0.703125,0 0.785157,0.070312 0.785157,0.5625 z m 5.876953,-0.5625 h 1.429687 v -0.3046875 h -1.429687 v -1.8398438 h -0.246094 c -0.01172,0.8203125 -0.316406,1.8867188 -1.289063,1.921875 v 0.2226563 h 0.84375 v 2.7539062 c 0,1.21875001 0.925782,1.33593751 1.289063,1.33593751 0.703125,0 0.984375,-0.703125 0.984375,-1.33593751 v -0.5742187 h -0.246094 v 0.5507812 c 0,0.73828126 -0.304687,1.11328126 -0.667969,1.11328126 -0.667968,0 -0.667968,-0.90234376 -0.667968,-1.07812496 z m 0,0"
       style="fill:#000000;fill-opacity:1;fill-rule:nonzero;stroke:none"
       aria-label="Plant"
       transform="matrix(1.3333333,0,0,1.3333333,114.588,37.325333)" />
    <path
       id="path3"
       d="M 0,0 H 23.28584"
       style="fill:none;stroke:#000000;stroke-width:0.79701;stroke-linecap:butt;stroke-linejoin:miter;stroke-miterlimit:10;stroke-dasharray:none;stroke-opacity:1"
       transform="matrix(1.3333333,0,0,-1.3333333,54.772,32.713333)" />
    <path
       id="path4"
       d="M 4.66248,0 C 3.28098,0.25902 1.0361,1.0361 -0.51805,1.94269 V -1.94269 C 1.0361,-1.0361 3.28098,-0.25902 4.66248,0"
       style="fill:#000000;fill-opacity:1;fill-rule:nonzero;stroke:none"
       transform="matrix(1.3333333,0,0,-1.3333333,85.819787,32.713333)" />
    <path
       id="path5"
       d="m 2.2384844,-6.0227344 c 0,-0.3632812 0.035156,-0.46875 0.8203125,-0.46875 h 0.2578125 v -0.3164062 c -0.3515625,0.035156 -1.1367188,0.035156 -1.5117188,0.035156 -0.3867187,0 -1.17187498,0 -1.52343748,-0.035156 v 0.3164062 h 0.2578125 c 0.78515628,0 0.82031248,0.1054688 0.82031248,0.46875 v 5.25000003 c 0,0.3515625 -0.035156,0.46875 -0.82031248,0.46875 H 0.28145312 V 7.03125e-4 C 0.63301562,-0.03445312 1.4181719,-0.03445312 1.7931719,-0.03445312 c 0.3867187,0 1.171875,0 1.5234375,0.035156245 V -0.30398437 H 3.0587969 c -0.7851563,0 -0.8203125,-0.1171875 -0.8203125,-0.46875 z m 2.4609375,2.6015625 v 2.66015628 c 0,0.45703125 -0.1171875,0.45703125 -0.7851563,0.45703125 V 7.03125e-4 c 0.3515625,-0.011718745 0.8554688,-0.035156245 1.125,-0.035156245 0.2578125,0 0.7851563,0.0234375 1.1132813,0.035156245 V -0.30398437 c -0.65625,0 -0.7734375,0 -0.7734375,-0.45703125 V -2.5891406 c 0,-1.03125 0.7148437,-1.59375 1.3476562,-1.59375 0.6210938,0 0.7382813,0.5390625 0.7382813,1.1015625 v 2.32031248 c 0,0.45703125 -0.1171875,0.45703125 -0.7734375,0.45703125 V 7.03125e-4 c 0.3398437,-0.011718745 0.8554687,-0.035156245 1.125,-0.035156245 0.2578125,0 0.7734375,0.0234375 1.1132812,0.035156245 V -0.30398437 c -0.515625,0 -0.7734375,0 -0.7851562,-0.3046875 V -2.5071094 c 0,-0.8554687 0,-1.171875 -0.3046875,-1.5234375 -0.140625,-0.1757812 -0.46875,-0.375 -1.0429688,-0.375 -0.7265625,0 -1.1953125,0.4335938 -1.4765625,1.0546875 v -1.0546875 l -1.40625,0.1171875 v 0.3046875 c 0.703125,0 0.7851563,0.070312 0.7851563,0.5625 z m 6.1435551,-0.328125 v -0.65625 l -1.4296879,0.1171875 v 0.3046875 c 0.7031249,0 0.7734379,0.058594 0.7734379,0.4921875 v 4.6640625 c 0,0.4570313 -0.105469,0.4570313 -0.7734379,0.4570313 v 0.3046875 c 0.3398437,-0.011719 0.8554689,-0.035156 1.1132809,-0.035156 0.269532,0 0.773438,0.023437 1.125,0.035156 V 1.6296094 c -0.667968,0 -0.773437,0 -0.773437,-0.4570313 v -1.75781247 c 0.04687,0.15234375 0.46875,0.69140625 1.21875,0.69140625 1.183594,0 2.226562,-0.97265625 2.226562,-2.26171878 0,-1.265625 -0.972656,-2.25 -2.085937,-2.25 -0.773438,0 -1.195313,0.4453125 -1.394531,0.65625 z m 0.03516,2.6132813 v -2.2148438 c 0.28125,-0.515625 0.773437,-0.796875 1.277344,-0.796875 0.726562,0 1.335937,0.8671875 1.335937,1.9921875 0,1.20703128 -0.691406,2.05078128 -1.429687,2.05078128 -0.398438,0 -0.773438,-0.19921875 -1.042969,-0.609375 -0.140625,-0.2109375 -0.140625,-0.22265625 -0.140625,-0.42187498 z m 7.68164,0.35156248 v 0.890625 L 20.00118,7.03125e-4 V -0.30398437 c -0.703125,0 -0.785157,-0.0703125 -0.785157,-0.5625 V -4.4055469 l -1.453125,0.1171875 v 0.3046875 c 0.691407,0 0.773438,0.070312 0.773438,0.5625 v 1.7695313 c 0,0.86718748 -0.480469,1.54687498 -1.207031,1.54687498 -0.832032,0 -0.878907,-0.46875 -0.878907,-0.99609378 v -3.3046875 l -1.464843,0.1171875 v 0.3046875 c 0.785156,0 0.785156,0.035156 0.785156,0.9140625 v 1.5 c 0,0.77343753 0,1.67578128 1.511719,1.67578128 0.550781,0 0.996093,-0.26953125 1.277343,-0.890625 z m 3.366211,-3.19921878 h 1.429688 v -0.3046875 h -1.429688 v -1.8398437 h -0.246093 c -0.01172,0.8203125 -0.316407,1.8867187 -1.289063,1.921875 v 0.2226562 h 0.84375 v 2.7539063 c 0,1.21874998 0.925781,1.33593748 1.289063,1.33593748 0.703125,0 0.984375,-0.703125 0.984375,-1.33593748 v -0.5742188 h -0.246094 v 0.5507813 c 0,0.73828123 -0.304688,1.11328123 -0.667969,1.11328123 -0.667969,0 -0.667969,-0.90234373 -0.667969,-1.07812503 z m 0,0"
       style="fill:#000000;fill-opacity:1;fill-rule:nonzero;stroke:none"
       aria-label="Input"
       transform="matrix(1.3333333,0,0,1.3333333,17.710667,35.96)" />
    <path
       id="path6"
       d="M 85.43893,0 H 108.7248"
       style="fill:none;stroke:#000000;stroke-width:0.79701;stroke-linecap:butt;stroke-linejoin:miter;stroke-miterlimit:10;stroke-dasharray:none;stroke-opacity:1"
       transform="matrix(1.3333333,0,0,-1.3333333,54.772,32.713333)" />
    <path
       id="path7"
       d="M 4.66248,0 C 3.28098,0.25902 1.0361,1.0361 -0.51805,1.94269 V -1.94269 C 1.0361,-1.0361 3.28098,-0.25902 4.66248,0"
       style="fill:#000000;fill-opacity:1;fill-rule:nonzero;stroke:none"
       transform="matrix(1.3333333,0,0,-1.3333333,199.7384,32.713333)" />
    <path
       id="path8"
       d="m 7.1832109,-3.3742969 c 0,-2.0390625 -1.5,-3.6445312 -3.3164062,-3.6445312 -1.78125,0 -3.30468751,1.59375 -3.30468751,3.6445312 0,2.0390625 1.53515621,3.59765628 3.30468751,3.59765628 1.8164062,0 3.3164062,-1.58203128 3.3164062,-3.59765628 z m -3.3046875,3.33984378 c -0.9609375,0 -2.296875,-0.87890625 -2.296875,-3.48046878 0,-2.578125 1.453125,-3.2578125 2.2851563,-3.2578125 0.8671875,0 2.2851562,0.703125 2.2851562,3.2578125 0,2.63671878 -1.359375,3.48046878 -2.2734375,3.48046878 z m 7.7607426,-0.75 v 0.890625 L 13.080672,7.03125e-4 V -0.30398437 c -0.703125,0 -0.785156,-0.0703125 -0.785156,-0.5625 V -4.4055469 l -1.453125,0.1171875 v 0.3046875 c 0.691406,0 0.773437,0.070312 0.773437,0.5625 v 1.7695313 c 0,0.86718748 -0.480469,1.54687498 -1.207031,1.54687498 -0.8320314,0 -0.8789064,-0.46875 -0.8789064,-0.99609378 v -3.3046875 l -1.4648437,0.1171875 v 0.3046875 c 0.7851562,0 0.7851562,0.035156 0.7851562,0.9140625 v 1.5 c 0,0.77343753 0,1.67578128 1.5117189,1.67578128 0.550781,0 0.996094,-0.26953125 1.277344,-0.890625 z m 3.366211,-3.19921878 h 1.429687 v -0.3046875 h -1.429687 v -1.8398437 h -0.246094 c -0.01172,0.8203125 -0.316406,1.8867187 -1.289063,1.921875 v 0.2226562 h 0.84375 v 2.7539063 c 0,1.21874998 0.925782,1.33593748 1.289063,1.33593748 0.703125,0 0.984375,-0.703125 0.984375,-1.33593748 v -0.5742188 h -0.246094 v 0.5507813 c 0,0.73828123 -0.304687,1.11328123 -0.667969,1.11328123 -0.667968,0 -0.667968,-0.90234373 -0.667968,-1.07812503 z m 3.864257,0.234375 v -0.65625 l -1.429687,0.1171875 v 0.3046875 c 0.703125,0 0.773437,0.058594 0.773437,0.4921875 v 4.6640625 c 0,0.4570313 -0.105468,0.4570313 -0.773437,0.4570313 v 0.3046875 c 0.339844,-0.011719 0.855469,-0.035156 1.113281,-0.035156 0.269531,0 0.773438,0.023437 1.125,0.035156 V 1.6296094 c -0.667969,0 -0.773437,0 -0.773437,-0.4570313 v -1.75781247 c 0.04687,0.15234375 0.46875,0.69140625 1.21875,0.69140625 1.183593,0 2.226562,-0.97265625 2.226562,-2.26171878 0,-1.265625 -0.972656,-2.25 -2.085937,-2.25 -0.773438,0 -1.195313,0.4453125 -1.394532,0.65625 z m 0.03516,2.6132813 v -2.2148438 c 0.28125,-0.515625 0.773437,-0.796875 1.277343,-0.796875 0.726563,0 1.335938,0.8671875 1.335938,1.9921875 0,1.20703128 -0.691406,2.05078128 -1.429688,2.05078128 -0.398437,0 -0.773437,-0.19921875 -1.042968,-0.609375 -0.140625,-0.2109375 -0.140625,-0.22265625 -0.140625,-0.42187498 z m 7.678711,0.35156248 v 0.890625 L 28.025008,7.03125e-4 V -0.30398437 c -0.703125,0 -0.785156,-0.0703125 -0.785156,-0.5625 V -4.4055469 l -1.453125,0.1171875 v 0.3046875 c 0.691406,0 0.773437,0.070312 0.773437,0.5625 v 1.7695313 c 0,0.86718748 -0.480469,1.54687498 -1.207031,1.54687498 -0.832031,0 -0.878906,-0.46875 -0.878906,-0.99609378 v -3.3046875 l -1.464844,0.1171875 v 0.3046875 c 0.785156,0 0.785156,0.035156 0.785156,0.9140625 v 1.5 c 0,0.77343753 0,1.67578128 1.511719,1.67578128 0.550781,0 0.996094,-0.26953125 1.277344,-0.890625 z m 3.36914,-3.19921878 h 1.429688 v -0.3046875 h -1.429688 v -1.8398437 h -0.246094 c -0.01172,0.8203125 -0.316406,1.8867187 -1.289062,1.921875 v 0.2226562 h 0.84375 v 2.7539063 c 0,1.21874998 0.925781,1.33593748 1.289062,1.33593748 0.703125,0 0.984375,-0.703125 0.984375,-1.33593748 V -1.8039844 H 31.28868 v 0.5507813 c 0,0.73828123 -0.304688,1.11328123 -0.667969,1.11328123 -0.667969,0 -0.667969,-0.90234373 -0.667969,-1.07812503 z m 0,0"
       style="fill:#000000;fill-opacity:1;fill-rule:nonzero;stroke:none"
       aria-label="Output"
       transform="matrix(1.3333333,0,0,1.3333333,210.91067,35.96)" />
  </g>
</svg>
