<?xml version="1.0" encoding="UTF-8" standalone="no"?>
<!-- Created with Inkscape (http://www.inkscape.org/) -->

<svg
   version="1.1"
   id="svg1"
   width="288.284"
   height="65.425331"
   viewBox="0 0 288.284 65.425331"
   sodipodi:docname="Tikz (12).pdf"
   xmlns:inkscape="http://www.inkscape.org/namespaces/inkscape"
   xmlns:sodipodi="http://sodipodi.sourceforge.net/DTD/sodipodi-0.dtd"
   xmlns="http://www.w3.org/2000/svg"
   xmlns:svg="http://www.w3.org/2000/svg">
  <defs
     id="defs1" />
  <sodipodi:namedview
     id="namedview1"
     pagecolor="#ffffff"
     bordercolor="#000000"
     borderopacity="0.25"
     inkscape:showpageshadow="2"
     inkscape:pageopacity="0.0"
     inkscape:pagecheckerboard="0"
     inkscape:deskcolor="#d1d1d1">
    <inkscape:page
       x="-1.6502905e-05"
       y="0"
       inkscape:label="4"
       id="page42"
       width="288.284"
       height="65.425331"
       margin="0"
       bleed="0" />
  </sodipodi:namedview>
  <g
     id="g42"
     inkscape:groupmode="layer"
     inkscape:label="4"
     transform="translate(-1389.6187)">
    <path
       id="path43"
       d="m 21.26012,-14.17339 h 42.5202 V 14.1734 h -42.5202 z"
       style="fill:none;stroke:#000000;stroke-width:0.79701;stroke-linecap:butt;stroke-linejoin:miter;stroke-miterlimit:10;stroke-dasharray:none;stroke-opacity:1"
       transform="matrix(1.3333333,0,0,-1.3333333,1439.0347,32.713333)" />
    <g
       id="g43"
       aria-label="G&#10;1&#10;(s)"
       transform="matrix(1.3333333,0,0,1.3333333,1479.2467,36.033333)">
      <path
         id="path44"
         d="m 7.5709922,-6.9244141 c 0,-0.023437 -0.023437,-0.09375 -0.1054688,-0.09375 -0.035156,0 -0.046875,0.011719 -0.1523437,0.1171875 l -0.703125,0.7617188 c -0.082031,-0.140625 -0.5390625,-0.8789063 -1.6523438,-0.8789063 -2.2148437,0 -4.45312496,2.203125 -4.45312496,4.5117188 0,1.58203124 1.10156246,2.73046874 2.71874996,2.73046874 0.4335938,0 0.8789063,-0.09375 1.2421875,-0.24609375 0.4921875,-0.19921875 0.6796875,-0.41015625 0.8671875,-0.609375 0.082031,0.2578125 0.3515625,0.62109375 0.4453125,0.62109375 0.046875,0 0.070312,-0.0234375 0.070312,-0.03515625 0.023437,-0.0234375 0.1171875,-0.3984375 0.1640625,-0.609375 L 6.2116172,-1.4283203 c 0.035156,-0.1640625 0.082031,-0.328125 0.1289062,-0.5039063 0.1054688,-0.4453125 0.1171875,-0.46875 0.6796875,-0.4804687 0.058594,0 0.1640625,-0.011719 0.1640625,-0.1992188 0,-0.070312 -0.046875,-0.1054687 -0.1289062,-0.1054687 -0.234375,0 -0.8203125,0.023437 -1.0429688,0.023437 -0.3164062,0 -1.0898437,-0.023437 -1.3945312,-0.023437 -0.09375,0 -0.2109375,0 -0.2109375,0.1992187 0,0.1054688 0.082031,0.1054688 0.2929687,0.1054688 0.011719,0 0.3046875,0 0.5273438,0.023437 0.2578125,0.035156 0.3164062,0.058594 0.3164062,0.1875 0,0.09375 -0.1171875,0.5390625 -0.2109375,0.9023437 -0.28125,1.10156254 -1.5820312,1.20703129 -1.921875,1.20703129 -0.9609375,0 -2.0039062,-0.5625 -2.0039062,-2.08593749 0,-0.3164063 0.09375,-1.9570313 1.1484375,-3.2460938 0.5390625,-0.6796875 1.5,-1.2890625 2.484375,-1.2890625 1.0195312,0 1.6054687,0.7734375 1.6054687,1.921875 0,0.3984375 -0.035156,0.4101563 -0.035156,0.5039063 0,0.1054687 0.1171875,0.1054687 0.1523437,0.1054687 0.1289063,0 0.1289063,-0.023437 0.1757813,-0.1992187 z m 0,0"
         style="fill:#000000;fill-opacity:1;fill-rule:nonzero;stroke:none" />
      <path
         id="path45"
         d="m 10.166695,-2.9341797 c 0,-0.1875 -0.01172,-0.1992187 -0.2109372,-0.1992187 -0.4453125,0.4335937 -1.078125,0.4453125 -1.359375,0.4453125 v 0.2460937 c 0.1640625,0 0.6210938,0 1.0078125,-0.1875 v 3.55078126 c 0,0.23437504 0,0.32812504 -0.6914062,0.32812504 H 8.6432578 v 0.2460937 c 0.1289063,-0.011719 0.984375,-0.023437 1.2421875,-0.023437 0.2109377,0 1.0898437,0.011719 1.2421877,0.023437 V 1.2494141 H 10.86982 c -0.703125,0 -0.703125,-0.09375 -0.703125,-0.32812504 z m 0,0"
         style="fill:#000000;fill-opacity:1;fill-rule:nonzero;stroke:none" />
      <path
         id="path46"
         d="m 15.595406,2.3919922 c 0,-0.035156 0,-0.046875 -0.164062,-0.2226563 -1.242188,-1.25390621 -1.570313,-3.12890621 -1.570313,-4.6640625 0,-1.7226562 0.386719,-3.4570312 1.605469,-4.7109375 0.128906,-0.1171875 0.128906,-0.1289062 0.128906,-0.1640625 0,-0.070312 -0.03516,-0.1054687 -0.09375,-0.1054687 -0.105469,0 -0.996094,0.6796875 -1.582031,1.9453125 -0.515625,1.1015625 -0.632813,2.203125 -0.632813,3.0351562 0,0.7851563 0.117188,1.99218754 0.65625,3.11718754 0.597657,1.21874996 1.453125,1.87499996 1.558594,1.87499996 0.05859,0 0.09375,-0.035156 0.09375,-0.1054687 z m 0,0"
         style="fill:#000000;fill-opacity:1;fill-rule:nonzero;stroke:none" />
      <path
         id="path47"
         d="m 20.069039,-3.7251953 c -0.269531,0.011719 -0.46875,0.234375 -0.46875,0.4453125 0,0.140625 0.08203,0.2929687 0.304688,0.2929687 0.222656,0 0.457031,-0.1640625 0.457031,-0.5625 0,-0.4453125 -0.433594,-0.8554687 -1.183594,-0.8554687 -1.3125,0 -1.6875,1.0195312 -1.6875,1.453125 0,0.7851562 0.738281,0.9257812 1.03125,0.9960937 0.515625,0.09375 1.03125,0.1992188 1.03125,0.75 0,0.25781254 -0.222656,1.10156254 -1.417969,1.10156254 -0.140625,0 -0.914062,0 -1.136718,-0.52734375 0.375,0.046875 0.621093,-0.2578125 0.621093,-0.52734379 0,-0.234375 -0.152343,-0.3515625 -0.363281,-0.3515625 -0.257812,0 -0.5625,0.2109375 -0.5625,0.65625004 0,0.5625 0.574219,0.9609375 1.429688,0.9609375 1.605468,0 2.003906,-1.20703124 2.003906,-1.65234374 0,-0.3515625 -0.199219,-0.609375 -0.316406,-0.7265625 -0.269532,-0.28125 -0.550782,-0.328125 -0.996094,-0.421875 -0.351563,-0.070312 -0.75,-0.140625 -0.75,-0.5976563 0,-0.28125 0.234375,-0.890625 1.113281,-0.890625 0.246094,0 0.75,0.070312 0.890625,0.4570313 z m 0,0"
         style="fill:#000000;fill-opacity:1;fill-rule:nonzero;stroke:none" />
      <path
         id="path48"
         d="m 23.731148,-2.4947266 c 0,-0.7734375 -0.117187,-1.9804687 -0.65625,-3.1054687 -0.597656,-1.21875 -1.464843,-1.875 -1.558593,-1.875 -0.05859,0 -0.105469,0.046875 -0.105469,0.1054687 0,0.035156 0,0.046875 0.199219,0.234375 0.972656,0.984375 1.535156,2.5664063 1.535156,4.640625 0,1.71093754 -0.363281,3.45703129 -1.59375,4.7226563 -0.140625,0.1171875 -0.140625,0.1289062 -0.140625,0.1640625 0,0.058594 0.04687,0.1054687 0.105469,0.1054687 0.09375,0 0.996093,-0.6796875 1.582031,-1.94531246 0.503906,-1.1015625 0.632812,-2.20312504 0.632812,-3.04687504 z m 0,0"
         style="fill:#000000;fill-opacity:1;fill-rule:nonzero;stroke:none" />
    </g>
    <path
       id="path49"
       d="m 77.95375,-14.17339 h 42.5202 V 14.1734 h -42.5202 z"
       style="fill:none;stroke:#000000;stroke-width:0.79701;stroke-linecap:butt;stroke-linejoin:miter;stroke-miterlimit:10;stroke-dasharray:none;stroke-opacity:1"
       transform="matrix(1.3333333,0,0,-1.3333333,1439.0347,32.713333)" />
    <g
       id="g49"
       aria-label="G&#10;2&#10;(s)"
       transform="matrix(1.3333333,0,0,1.3333333,1554.8373,36.033333)">
      <path
         id="path50"
         d="m 7.570375,-6.9244141 c 0,-0.023437 -0.023437,-0.09375 -0.1054687,-0.09375 -0.035156,0 -0.046875,0.011719 -0.1523438,0.1171875 l -0.703125,0.7617188 c -0.082031,-0.140625 -0.5390625,-0.8789063 -1.6523437,-0.8789063 -2.2148438,0 -4.45312505,2.203125 -4.45312505,4.5117188 0,1.58203124 1.10156255,2.73046874 2.71875005,2.73046874 0.4335937,0 0.8789062,-0.09375 1.2421875,-0.24609375 0.4921875,-0.19921875 0.6796875,-0.41015625 0.8671875,-0.609375 0.082031,0.2578125 0.3515625,0.62109375 0.4453125,0.62109375 0.046875,0 0.070312,-0.0234375 0.070312,-0.03515625 0.023437,-0.0234375 0.1171875,-0.3984375 0.1640625,-0.609375 L 6.211,-1.4283203 c 0.035156,-0.1640625 0.082031,-0.328125 0.1289063,-0.5039063 0.1054687,-0.4453125 0.1171875,-0.46875 0.6796875,-0.4804687 0.058594,0 0.1640625,-0.011719 0.1640625,-0.1992188 0,-0.070312 -0.046875,-0.1054687 -0.1289063,-0.1054687 -0.234375,0 -0.8203125,0.023437 -1.0429687,0.023437 -0.3164063,0 -1.0898438,-0.023437 -1.3945313,-0.023437 -0.09375,0 -0.2109375,0 -0.2109375,0.1992187 0,0.1054688 0.082031,0.1054688 0.2929688,0.1054688 0.011719,0 0.3046875,0 0.5273437,0.023437 0.2578125,0.035156 0.3164063,0.058594 0.3164063,0.1875 0,0.09375 -0.1171875,0.5390625 -0.2109375,0.9023437 -0.28125,1.10156254 -1.5820313,1.20703129 -1.921875,1.20703129 -0.9609375,0 -2.0039063,-0.5625 -2.0039063,-2.08593749 0,-0.3164063 0.09375,-1.9570313 1.1484375,-3.2460938 0.5390625,-0.6796875 1.5,-1.2890625 2.484375,-1.2890625 1.0195313,0 1.6054688,0.7734375 1.6054688,1.921875 0,0.3984375 -0.035156,0.4101563 -0.035156,0.5039063 0,0.1054687 0.1171875,0.1054687 0.1523438,0.1054687 0.1289062,0 0.1289062,-0.023437 0.1757812,-0.1992187 z m 0,0"
         style="fill:#000000;fill-opacity:1;fill-rule:nonzero;stroke:none" />
      <path
         id="path51"
         d="m 11.349672,0.22988281 h -0.234375 c -0.02344,0.15234375 -0.08203,0.5625 -0.175781,0.6328125 -0.05859,0.0351563 -0.597657,0.0351563 -0.691407,0.0351563 H 8.9590469 c 0.7382812,-0.64453125 0.984375,-0.84375 1.3945311,-1.171875 0.515625,-0.41015625 0.996094,-0.84374991 0.996094,-1.49999991 0,-0.8437501 -0.738281,-1.3593751 -1.6289064,-1.3593751 -0.8671875,0 -1.453125,0.609375 -1.453125,1.2421875 0,0.3632812 0.3046875,0.3984375 0.375,0.3984375 0.1640625,0 0.375,-0.1171875 0.375,-0.375 0,-0.1289062 -0.058594,-0.3632813 -0.421875,-0.3632813 0.2226563,-0.5039062 0.6914063,-0.65625 1.0195313,-0.65625 0.7031251,0 1.0664061,0.5507813 1.0664061,1.1132813 0,0.609375 -0.433594,1.08984376 -0.65625,1.33593751 L 8.3379531,1.2259766 c -0.070312,0.058594 -0.070312,0.070312 -0.070312,0.2695312 h 2.8828129 z m 0,0"
         style="fill:#000000;fill-opacity:1;fill-rule:nonzero;stroke:none" />
      <path
         id="path52"
         d="m 15.594789,2.3919922 c 0,-0.035156 0,-0.046875 -0.164062,-0.2226563 -1.242188,-1.25390621 -1.570313,-3.12890621 -1.570313,-4.6640625 0,-1.7226562 0.386719,-3.4570312 1.605469,-4.7109375 0.128906,-0.1171875 0.128906,-0.1289062 0.128906,-0.1640625 0,-0.070312 -0.03516,-0.1054687 -0.09375,-0.1054687 -0.105469,0 -0.996094,0.6796875 -1.582031,1.9453125 -0.515625,1.1015625 -0.632813,2.203125 -0.632813,3.0351562 0,0.7851563 0.117188,1.99218754 0.65625,3.11718754 0.597657,1.21874996 1.453125,1.87499996 1.558594,1.87499996 0.05859,0 0.09375,-0.035156 0.09375,-0.1054687 z m 0,0"
         style="fill:#000000;fill-opacity:1;fill-rule:nonzero;stroke:none" />
      <path
         id="path53"
         d="m 20.068422,-3.7251953 c -0.269531,0.011719 -0.46875,0.234375 -0.46875,0.4453125 0,0.140625 0.08203,0.2929687 0.304687,0.2929687 0.222657,0 0.457032,-0.1640625 0.457032,-0.5625 0,-0.4453125 -0.433594,-0.8554687 -1.183594,-0.8554687 -1.3125,0 -1.6875,1.0195312 -1.6875,1.453125 0,0.7851562 0.738281,0.9257812 1.03125,0.9960937 0.515625,0.09375 1.03125,0.1992188 1.03125,0.75 0,0.25781254 -0.222656,1.10156254 -1.417969,1.10156254 -0.140625,0 -0.914062,0 -1.136719,-0.52734375 0.375,0.046875 0.621094,-0.2578125 0.621094,-0.52734379 0,-0.234375 -0.152344,-0.3515625 -0.363281,-0.3515625 -0.257813,0 -0.5625,0.2109375 -0.5625,0.65625004 0,0.5625 0.574219,0.9609375 1.429687,0.9609375 1.605469,0 2.003907,-1.20703124 2.003907,-1.65234374 0,-0.3515625 -0.199219,-0.609375 -0.316407,-0.7265625 -0.269531,-0.28125 -0.550781,-0.328125 -0.996093,-0.421875 -0.351563,-0.070312 -0.75,-0.140625 -0.75,-0.5976563 0,-0.28125 0.234375,-0.890625 1.113281,-0.890625 0.246094,0 0.75,0.070312 0.890625,0.4570313 z m 0,0"
         style="fill:#000000;fill-opacity:1;fill-rule:nonzero;stroke:none" />
      <path
         id="path54"
         d="m 23.730531,-2.4947266 c 0,-0.7734375 -0.117187,-1.9804687 -0.65625,-3.1054687 -0.597656,-1.21875 -1.464843,-1.875 -1.558593,-1.875 -0.05859,0 -0.105469,0.046875 -0.105469,0.1054687 0,0.035156 0,0.046875 0.199219,0.234375 0.972656,0.984375 1.535156,2.5664063 1.535156,4.640625 0,1.71093754 -0.363281,3.45703129 -1.59375,4.7226563 -0.140625,0.1171875 -0.140625,0.1289062 -0.140625,0.1640625 0,0.058594 0.04687,0.1054687 0.105469,0.1054687 0.09375,0 0.996093,-0.6796875 1.582031,-1.94531246 0.503906,-1.1015625 0.632812,-2.20312504 0.632812,-3.04687504 z m 0,0"
         style="fill:#000000;fill-opacity:1;fill-rule:nonzero;stroke:none" />
    </g>
    <path
       id="path55"
       d="M 0,0 H 16.19913"
       style="fill:none;stroke:#000000;stroke-width:0.79701;stroke-linecap:butt;stroke-linejoin:miter;stroke-miterlimit:10;stroke-dasharray:none;stroke-opacity:1"
       transform="matrix(1.3333333,0,0,-1.3333333,1439.0347,32.713333)" />
    <path
       id="path56"
       d="M 4.66248,0 C 3.28098,0.25902 1.0361,1.0361 -0.51805,1.94269 V -1.94269 C 1.0361,-1.0361 3.28098,-0.25902 4.66248,0"
       style="fill:#000000;fill-opacity:1;fill-rule:nonzero;stroke:none"
       transform="matrix(1.3333333,0,0,-1.3333333,1460.6335,32.713333)" />
    <g
       id="g56"
       aria-label="R(s)"
       transform="matrix(1.3333333,0,0,1.3333333,1407.3293,36.033333)">
      <path
         id="path57"
         d="m 3.7384844,-6.1158203 c 0.058594,-0.234375 0.082031,-0.3398438 0.28125,-0.3632813 0.082031,-0.011719 0.3984375,-0.011719 0.5976562,-0.011719 0.7148438,0 1.8164063,0 1.8164063,0.984375 0,0.3398437 -0.1523438,1.0195312 -0.5507813,1.4179687 -0.2578125,0.2578125 -0.7851562,0.5742188 -1.6757812,0.5742188 H 3.0939531 Z m 1.4296875,2.7304687 c 1.0078125,-0.2226562 2.1914062,-0.9140625 2.1914062,-1.921875 0,-0.8554687 -0.890625,-1.5 -2.203125,-1.5 H 2.3205156 c -0.1992187,0 -0.2929687,0 -0.2929687,0.1992188 0,0.1171875 0.09375,0.1171875 0.28125,0.1171875 0.023437,0 0.2109375,0 0.3867187,0.011719 0.1757813,0.023437 0.2578125,0.035156 0.2578125,0.1640625 0,0.035156 0,0.070312 -0.035156,0.1875 l -1.3359375,5.35546879 c -0.09375,0.38671875 -0.1171875,0.46875 -0.90234378,0.46875 -0.17578125,0 -0.26953125,0 -0.26953125,0.19921875 0,0.10546875 0.1171875,0.10546875 0.140625,0.10546875 0.28125,0 0.97265623,-0.03515625 1.25390623,-0.03515625 0.28125,0 0.984375,0.03515625 1.265625,0.03515625 0.082031,0 0.1992188,0 0.1992188,-0.19921875 0,-0.10546875 -0.09375,-0.10546875 -0.28125,-0.10546875 -0.3632813,0 -0.6445313,0 -0.6445313,-0.1875 0,-0.0585938 0.011719,-0.10546875 0.023437,-0.1640625 l 0.65625,-2.63671879 h 1.1953125 c 0.9023438,0 1.078125,0.5507813 1.078125,0.9023438 0,0.1523437 -0.082031,0.4570312 -0.140625,0.6914062 -0.070312,0.2695313 -0.1523437,0.6445313 -0.1523437,0.84375004 0,1.078125 1.1953125,1.078125 1.3242187,1.078125 0.84375,0 1.1953125,-1.0078125 1.1953125,-1.1484375 0,-0.11718754 -0.1171875,-0.11718754 -0.1171875,-0.11718754 -0.09375,0 -0.1171875,0.0703125 -0.1289062,0.14062504 -0.2578125,0.73828125 -0.6796875,0.90234375 -0.9140625,0.90234375 -0.328125,0 -0.3984375,-0.22265625 -0.3984375,-0.609375 0,-0.3046875 0.058594,-0.82031249 0.1054687,-1.13671879 0.011719,-0.140625 0.035156,-0.328125 0.035156,-0.46875 0,-0.7617187 -0.6679688,-1.078125 -0.9374994,-1.1718753 z m 0,0"
         style="fill:#000000;fill-opacity:1;fill-rule:nonzero;stroke:none" />
      <path
         id="path58"
         d="m 10.933797,2.3919922 c 0,-0.035156 0,-0.046875 -0.164063,-0.2226563 -1.2421871,-1.25390621 -1.5703121,-3.12890621 -1.5703121,-4.6640625 0,-1.7226562 0.3867187,-3.4570312 1.6054691,-4.7109375 0.128906,-0.1171875 0.128906,-0.1289062 0.128906,-0.1640625 0,-0.070312 -0.03516,-0.1054687 -0.09375,-0.1054687 -0.105469,0 -0.9960939,0.6796875 -1.5820314,1.9453125 -0.515625,1.1015625 -0.6328125,2.203125 -0.6328125,3.0351562 0,0.7851563 0.1171875,1.99218754 0.65625,3.11718754 0.5976563,1.21874996 1.4531249,1.87499996 1.5585939,1.87499996 0.05859,0 0.09375,-0.035156 0.09375,-0.1054687 z m 0,0"
         style="fill:#000000;fill-opacity:1;fill-rule:nonzero;stroke:none" />
      <path
         id="path59"
         d="m 15.40743,-3.7251953 c -0.269532,0.011719 -0.46875,0.234375 -0.46875,0.4453125 0,0.140625 0.08203,0.2929687 0.304687,0.2929687 0.222656,0 0.457031,-0.1640625 0.457031,-0.5625 0,-0.4453125 -0.433593,-0.8554687 -1.183593,-0.8554687 -1.3125,0 -1.6875,1.0195312 -1.6875,1.453125 0,0.7851562 0.738281,0.9257812 1.03125,0.9960937 0.515625,0.09375 1.03125,0.1992188 1.03125,0.75 0,0.25781254 -0.222657,1.10156254 -1.417969,1.10156254 -0.140625,0 -0.914063,0 -1.136719,-0.52734375 0.375,0.046875 0.621094,-0.2578125 0.621094,-0.52734379 0,-0.234375 -0.152344,-0.3515625 -0.363281,-0.3515625 -0.257813,0 -0.5625,0.2109375 -0.5625,0.65625004 0,0.5625 0.574218,0.9609375 1.429687,0.9609375 1.605469,0 2.003906,-1.20703124 2.003906,-1.65234374 0,-0.3515625 -0.199218,-0.609375 -0.316406,-0.7265625 -0.269531,-0.28125 -0.550781,-0.328125 -0.996094,-0.421875 -0.351562,-0.070312 -0.75,-0.140625 -0.75,-0.5976563 0,-0.28125 0.234375,-0.890625 1.113282,-0.890625 0.246093,0 0.75,0.070312 0.890625,0.4570313 z m 0,0"
         style="fill:#000000;fill-opacity:1;fill-rule:nonzero;stroke:none" />
      <path
         id="path60"
         d="m 19.069539,-2.4947266 c 0,-0.7734375 -0.117187,-1.9804687 -0.65625,-3.1054687 -0.597656,-1.21875 -1.464844,-1.875 -1.558594,-1.875 -0.05859,0 -0.105468,0.046875 -0.105468,0.1054687 0,0.035156 0,0.046875 0.199218,0.234375 0.972657,0.984375 1.535157,2.5664063 1.535157,4.640625 0,1.71093754 -0.363282,3.45703129 -1.59375,4.7226563 -0.140625,0.1171875 -0.140625,0.1289062 -0.140625,0.1640625 0,0.058594 0.04687,0.1054687 0.105468,0.1054687 0.09375,0 0.996094,-0.6796875 1.582032,-1.94531246 0.503906,-1.1015625 0.632812,-2.20312504 0.632812,-3.04687504 z m 0,0"
         style="fill:#000000;fill-opacity:1;fill-rule:nonzero;stroke:none" />
    </g>
    <path
       id="path61"
       d="M 120.87245,0 H 137.0716"
       style="fill:none;stroke:#000000;stroke-width:0.79701;stroke-linecap:butt;stroke-linejoin:miter;stroke-miterlimit:10;stroke-dasharray:none;stroke-opacity:1"
       transform="matrix(1.3333333,0,0,-1.3333333,1439.0347,32.713333)" />
    <path
       id="path62"
       d="M 4.66248,0 C 3.28098,0.25902 1.0361,1.0361 -0.51805,1.94269 V -1.94269 C 1.0361,-1.0361 3.28098,-0.25902 4.66248,0"
       style="fill:#000000;fill-opacity:1;fill-rule:nonzero;stroke:none"
       transform="matrix(1.3333333,0,0,-1.3333333,1621.7968,32.713333)" />
    <g
       id="g62"
       aria-label="Y(s)"
       transform="matrix(1.3333333,0,0,1.3333333,1632.9707,36.033333)">
      <path
         id="path63"
         d="m 5.9410781,-5.6705078 0.140625,-0.140625 c 0.3046875,-0.2929688 0.6328125,-0.6328125 1.3125,-0.6796875 0.1054688,-0.011719 0.1992188,-0.011719 0.1992188,-0.1875 0,-0.082031 -0.058594,-0.1289063 -0.1289063,-0.1289063 -0.2578125,0 -0.5507812,0.035156 -0.8203125,0.035156 -0.328125,0 -0.6796875,-0.035156 -0.9960937,-0.035156 -0.058594,0 -0.1875,0 -0.1875,0.1992188 0,0.1054687 0.09375,0.1171875 0.1523437,0.1171875 0.070312,0 0.3515625,0.011719 0.3515625,0.2226562 0,0.1757813 -0.2226562,0.4335938 -0.2695312,0.4804688 l -2.3085938,2.6601562 -1.0898437,-2.953125 c -0.070312,-0.140625 -0.070312,-0.1640625 -0.070312,-0.1757812 0,-0.234375 0.4921875,-0.234375 0.5976562,-0.234375 0.1289063,0 0.234375,0 0.234375,-0.1992188 0,-0.1171875 -0.1171875,-0.1171875 -0.1523437,-0.1171875 -0.28125,0 -0.9726563,0.035156 -1.2539063,0.035156 -0.2460937,0 -0.86718748,-0.035156 -1.11328123,-0.035156 -0.0585938,0 -0.1875,0 -0.1875,0.1992188 0,0.1171875 0.09375,0.1171875 0.22265625,0.1171875 0.59765628,0 0.64453128,0.082031 0.72656248,0.3398437 l 1.2304688,3.2695313 c 0.011719,0.035156 0.035156,0.140625 0.035156,0.1757812 0,0.023437 -0.3984375,1.6289063 -0.4453125,1.80468754 -0.1289062,0.55078125 -0.140625,0.5859375 -0.9375,0.59765625 -0.18749998,0 -0.26953123,0 -0.26953123,0.19921875 0,0.10546875 0.11718753,0.10546875 0.14062503,0.10546875 0.28125,0 0.9726562,-0.03515625 1.2539062,-0.03515625 0.28125,0 0.9960938,0.03515625 1.2773438,0.03515625 0.070312,0 0.1875,0 0.1875,-0.19921875 0,-0.10546875 -0.082031,-0.10546875 -0.28125,-0.10546875 -0.011719,0 -0.1992188,0 -0.375,-0.0234375 -0.2109375,-0.0234375 -0.2695313,-0.0351563 -0.2695313,-0.1640625 0,-0.0703125 0.09375,-0.41015625 0.140625,-0.62109379 l 0.3515625,-1.40625 c 0.046875,-0.1875 0.058594,-0.2226562 0.140625,-0.3046875 z m 0,0"
         style="fill:#000000;fill-opacity:1;fill-rule:nonzero;stroke:none" />
      <path
         id="path64"
         d="m 11.290687,2.3919922 c 0,-0.035156 0,-0.046875 -0.164062,-0.2226563 -1.2421875,-1.25390621 -1.5703125,-3.12890621 -1.5703125,-4.6640625 0,-1.7226562 0.3867187,-3.4570312 1.6054685,-4.7109375 0.128906,-0.1171875 0.128906,-0.1289062 0.128906,-0.1640625 0,-0.070312 -0.03516,-0.1054687 -0.09375,-0.1054687 -0.105468,0 -0.996093,0.6796875 -1.5820308,1.9453125 -0.515625,1.1015625 -0.6328125,2.203125 -0.6328125,3.0351562 0,0.7851563 0.1171875,1.99218754 0.65625,3.11718754 C 10.236,1.8412109 11.091469,2.4974609 11.196937,2.4974609 c 0.05859,0 0.09375,-0.035156 0.09375,-0.1054687 z m 0,0"
         style="fill:#000000;fill-opacity:1;fill-rule:nonzero;stroke:none" />
      <path
         id="path65"
         d="m 15.761391,-3.7251953 c -0.269532,0.011719 -0.46875,0.234375 -0.46875,0.4453125 0,0.140625 0.08203,0.2929687 0.304687,0.2929687 0.222656,0 0.457031,-0.1640625 0.457031,-0.5625 0,-0.4453125 -0.433593,-0.8554687 -1.183593,-0.8554687 -1.3125,0 -1.6875,1.0195312 -1.6875,1.453125 0,0.7851562 0.738281,0.9257812 1.03125,0.9960937 0.515625,0.09375 1.03125,0.1992188 1.03125,0.75 0,0.25781254 -0.222657,1.10156254 -1.417969,1.10156254 -0.140625,0 -0.914063,0 -1.136719,-0.52734375 0.375,0.046875 0.621094,-0.2578125 0.621094,-0.52734379 0,-0.234375 -0.152344,-0.3515625 -0.363281,-0.3515625 -0.257813,0 -0.5625,0.2109375 -0.5625,0.65625004 0,0.5625 0.574218,0.9609375 1.429687,0.9609375 1.605469,0 2.003906,-1.20703124 2.003906,-1.65234374 0,-0.3515625 -0.199218,-0.609375 -0.316406,-0.7265625 -0.269531,-0.28125 -0.550781,-0.328125 -0.996094,-0.421875 -0.351562,-0.070312 -0.75,-0.140625 -0.75,-0.5976563 0,-0.28125 0.234375,-0.890625 1.113282,-0.890625 0.246093,0 0.75,0.070312 0.890625,0.4570313 z m 0,0"
         style="fill:#000000;fill-opacity:1;fill-rule:nonzero;stroke:none" />
      <path
         id="path66"
         d="m 19.4235,-2.4947266 c 0,-0.7734375 -0.117188,-1.9804687 -0.65625,-3.1054687 -0.597656,-1.21875 -1.464844,-1.875 -1.558594,-1.875 -0.05859,0 -0.105469,0.046875 -0.105469,0.1054687 0,0.035156 0,0.046875 0.199219,0.234375 0.972656,0.984375 1.535156,2.5664063 1.535156,4.640625 0,1.71093754 -0.363281,3.45703129 -1.59375,4.7226563 -0.140625,0.1171875 -0.140625,0.1289062 -0.140625,0.1640625 0,0.058594 0.04687,0.1054687 0.105469,0.1054687 0.09375,0 0.996094,-0.6796875 1.582031,-1.94531246 0.503907,-1.1015625 0.632813,-2.20312504 0.632813,-3.04687504 z m 0,0"
         style="fill:#000000;fill-opacity:1;fill-rule:nonzero;stroke:none" />
    </g>
    <path
       id="path67"
       d="m 64.17882,0 h 8.71394"
       style="fill:none;stroke:#000000;stroke-width:0.79701;stroke-linecap:butt;stroke-linejoin:miter;stroke-miterlimit:10;stroke-dasharray:none;stroke-opacity:1"
       transform="matrix(1.3333333,0,0,-1.3333333,1439.0347,32.713333)" />
    <path
       id="path68"
       d="M 4.66248,0 C 3.28098,0.25902 1.0361,1.0361 -0.51805,1.94269 V -1.94269 C 1.0361,-1.0361 3.28098,-0.25902 4.66248,0"
       style="fill:#000000;fill-opacity:1;fill-rule:nonzero;stroke:none"
       transform="matrix(1.3333333,0,0,-1.3333333,1536.225,32.713333)" />
  </g>
</svg>
