<?xml version="1.0" encoding="UTF-8" standalone="no"?>
<!-- Created with Inkscape (http://www.inkscape.org/) -->

<svg
   version="1.1"
   id="svg1"
   width="224.91406"
   height="92.174866"
   viewBox="0 0 224.91406 92.174866"
   sodipodi:docname="CircuiTikz (8).pdf"
   xmlns:inkscape="http://www.inkscape.org/namespaces/inkscape"
   xmlns:sodipodi="http://sodipodi.sourceforge.net/DTD/sodipodi-0.dtd"
   xmlns="http://www.w3.org/2000/svg"
   xmlns:svg="http://www.w3.org/2000/svg">
  <defs
     id="defs1" />
  <sodipodi:namedview
     id="namedview1"
     pagecolor="#ffffff"
     bordercolor="#000000"
     borderopacity="0.25"
     inkscape:showpageshadow="2"
     inkscape:pageopacity="0.0"
     inkscape:pagecheckerboard="0"
     inkscape:deskcolor="#d1d1d1">
    <inkscape:page
       x="3.279725e-06"
       y="-5.9357347e-07"
       width="224.91406"
       height="92.174866"
       id="page2"
       margin="0"
       bleed="0" />
  </sodipodi:namedview>
  <g
     id="g201"
     inkscape:groupmode="layer"
     inkscape:label="3"
     transform="translate(-1967.0625,-197.27344)">
    <path
       id="path203"
       d="m 0,0 h 79.37363 m 0,0 h 79.36779"
       style="fill:none;stroke:#000000;stroke-width:0.3985;stroke-linecap:butt;stroke-linejoin:miter;stroke-miterlimit:10;stroke-dasharray:none;stroke-opacity:1"
       transform="matrix(1.3333333,0,0,-1.3333333,1973.4853,287.70133)" />
    <path
       id="path204"
       d="M 1.11098,0 C 1.11098,0.61357 0.61357,1.11098 0,1.11098 -0.61357,1.11098 -1.11098,0.61357 -1.11098,0 c 0,-0.61357 0.49741,-1.11098 1.11098,-1.11098 0.61357,0 1.11098,0.49741 1.11098,1.11098 z"
       style="fill:#000000;fill-opacity:1;fill-rule:nonzero;stroke:#000000;stroke-width:0.3985;stroke-linecap:butt;stroke-linejoin:miter;stroke-miterlimit:10;stroke-dasharray:none;stroke-opacity:1"
       transform="matrix(1.3333333,0,0,-1.3333333,1973.4853,287.70133)" />
    <path
       id="path205"
       d="m 159.85242,0 c 0,0.61357 -0.49741,1.11098 -1.111,1.11098 -0.61358,0 -1.11099,-0.49741 -1.11099,-1.11098 0,-0.61357 0.49741,-1.11098 1.11099,-1.11098 0.61359,0 1.111,0.49741 1.111,1.11098 z"
       style="fill:#000000;fill-opacity:1;fill-rule:nonzero;stroke:#000000;stroke-width:0.3985;stroke-linecap:butt;stroke-linejoin:miter;stroke-miterlimit:10;stroke-dasharray:none;stroke-opacity:1"
       transform="matrix(1.3333333,0,0,-1.3333333,1973.4853,287.70133)" />
    <path
       id="path206"
       d="m 0,59.52802 19.84337,0.0022 m 0,0 19.84198,-0.0022 39.68828,0.0022 m 0,0 39.68243,-0.0022 19.84779,0.0022 m 0,0 19.83757,-0.0022"
       style="fill:none;stroke:#000000;stroke-width:0.3985;stroke-linecap:butt;stroke-linejoin:miter;stroke-miterlimit:10;stroke-dasharray:none;stroke-opacity:1"
       transform="matrix(1.3333333,0,0,-1.3333333,1973.4853,287.70133)" />
    <path
       id="path207"
       d="M 1.11098,59.52802 C 1.11098,60.1416 0.61357,60.639 0,60.639 c -0.61357,0 -1.11098,-0.4974 -1.11098,-1.11098 0,-0.61358 0.49741,-1.111 1.11098,-1.111 0.61357,0 1.11098,0.49742 1.11098,1.111 z"
       style="fill:#000000;fill-opacity:1;fill-rule:nonzero;stroke:#000000;stroke-width:0.3985;stroke-linecap:butt;stroke-linejoin:miter;stroke-miterlimit:10;stroke-dasharray:none;stroke-opacity:1"
       transform="matrix(1.3333333,0,0,-1.3333333,1973.4853,287.70133)" />
    <path
       id="path208"
       d="m 18.62804,59.53018 v -1.38896 l 2.95155,1.38896 -2.95155,1.38896 z"
       style="fill:#000000;fill-opacity:1;fill-rule:nonzero;stroke:#000000;stroke-width:0.3985;stroke-linecap:butt;stroke-linejoin:miter;stroke-miterlimit:10;stroke-dasharray:none;stroke-opacity:1"
       transform="matrix(1.3333333,0,0,-1.3333333,1973.4853,287.70133)" />
    <g
       id="g208"
       aria-label="I&#10;S"
       transform="matrix(0.93333333,0,0,0.93333333,1994.512,203.648)">
      <path
         id="path209"
         d="m 4.3858594,-6.1602455 c 0.050223,-0.1674108 0.050223,-0.1674108 0.251116,-0.2008929 0.1506697,0 0.2845983,0 0.4352679,0 h 0.2008929 c 0.2176339,0 0.2176339,-0.016741 0.2678571,-0.050223 0.066964,-0.050223 0.1004464,-0.1841518 0.1004464,-0.234375 0,-0.1339286 -0.1004464,-0.1841518 -0.2176339,-0.1841518 -0.2511161,0 -0.5189732,0.016741 -0.7700893,0.016741 -0.2511161,0 -0.5189732,0.016741 -0.7868303,0.016741 -0.2845983,0 -0.5524554,-0.016741 -0.8370536,-0.016741 -0.2511161,0 -0.5189732,-0.016741 -0.7700893,-0.016741 -0.1004464,0 -0.2845982,0 -0.2845982,0.2845982 0,0.1841518 0.1506696,0.1841518 0.3348214,0.1841518 h 0.2176339 c 0.083705,0 0.3180804,0 0.5189733,0.016741 l -1.4229911,5.67522319 c -0.033482,0.16741072 -0.050223,0.16741072 -0.234375,0.18415179 -0.1171875,0.0167411 -0.3013393,0.0167411 -0.43526787,0.0167411 H 0.75304688 c -0.20089286,0 -0.36830358,0 -0.36830358,0.28459821 0,0.13392858 0.10044643,0.18415179 0.21763393,0.18415179 0.25111607,0 0.50223217,-0.01674107 0.75334817,-0.01674107 0.2678572,0 0.5357143,-0.01674107 0.8035715,-0.01674107 0.2845982,0 0.5524553,0.01674107 0.8370535,0.01674107 0.2511161,0 0.5022322,0.01674107 0.7533483,0.01674107 0.1004464,0 0.3013392,0 0.3013392,-0.28459821 0,-0.18415179 -0.1674107,-0.18415179 -0.3348214,-0.18415179 H 3.4985826 c -0.066964,0 -0.3850447,-0.0167411 -0.5189732,-0.0167411 z m 0,0"
         style="fill:#000000;fill-opacity:1;fill-rule:nonzero;stroke:none" />
      <path
         id="path210"
         d="m 10.822801,-3.3268192 c 0,-0.033482 -0.01674,-0.083705 -0.08371,-0.083705 -0.05022,0 -0.05022,0 -0.15067,0.1004465 L 10.2536,-2.9250331 c -0.2678522,-0.368304 -0.7031201,-0.4854915 -1.1383879,-0.4854915 -0.9709822,0 -1.858259,0.7868304 -1.858259,1.5904018 0,0.1171875 0.033482,0.3850447 0.234375,0.6529018 0.234375,0.26785716 0.5022322,0.33482145 0.9709822,0.45200895 0.1339285,0.0334821 0.485491,0.10044642 0.6026785,0.13392857 0.217634,0.0502232 0.6361608,0.21763393 0.6361608,0.73660714 0,0.56919643 -0.5859375,1.22209824 -1.389509,1.22209824 -0.6026785,0 -1.3560268,-0.217634 -1.3560268,-0.98772324 0,-0.0669643 0.016741,-0.21763393 0.050223,-0.3515625 0,-0.01674107 0,-0.03348214 0,-0.03348214 0,-0.10044643 -0.083705,-0.10044643 -0.1004465,-0.10044643 -0.1004464,0 -0.1171875,0.01674107 -0.1339285,0.15066964 L 6.4198996,1.4443862 c -0.016741,0.033482 -0.033482,0.066964 -0.033482,0.1004464 0,0.050223 0.033482,0.083705 0.1004464,0.083705 0.050223,0 0.050223,0 0.1339286,-0.083705 0.083705,-0.1004464 0.2678572,-0.3180804 0.3348214,-0.4017857 0.3850447,0.4017857 0.920759,0.485491 1.3392858,0.485491 1.0546875,0 1.9084822,-0.90401781 1.9084822,-1.72433031 0,-0.30133929 -0.133929,-0.5859375 -0.2845983,-0.75334822 C 9.6844085,-1.1002567 9.567221,-1.1169978 8.6799442,-1.3346317 8.5292746,-1.3681138 8.2948996,-1.4183371 8.2279353,-1.4518192 c -0.1674107,-0.050223 -0.46875,-0.234375 -0.46875,-0.6361607 0,-0.5357143 0.6361607,-1.1049107 1.3560268,-1.1049107 0.7533482,0 1.1216519,0.4352678 1.1216519,1.0881696 0,0.1004464 -0.03348,0.2511161 -0.03348,0.3180804 0,0.1004464 0.08371,0.1004464 0.117187,0.1004464 0.100447,0 0.117188,-0.033482 0.133929,-0.1506696 z m 0,0"
         style="fill:#000000;fill-opacity:1;fill-rule:nonzero;stroke:none" />
    </g>
    <path
       id="path211"
       d="m 159.85242,59.52802 c 0,0.61358 -0.49741,1.11098 -1.111,1.11098 -0.61358,0 -1.11099,-0.4974 -1.11099,-1.11098 0,-0.61358 0.49741,-1.111 1.11099,-1.111 0.61359,0 1.111,0.49742 1.111,1.111 z"
       style="fill:#000000;fill-opacity:1;fill-rule:nonzero;stroke:#000000;stroke-width:0.3985;stroke-linecap:butt;stroke-linejoin:miter;stroke-miterlimit:10;stroke-dasharray:none;stroke-opacity:1"
       transform="matrix(1.3333333,0,0,-1.3333333,1973.4853,287.70133)" />
    <path
       id="path212"
       d="m 137.68852,59.53018 v -1.38896 l 2.95156,1.38896 -2.95156,1.38896 z"
       style="fill:#000000;fill-opacity:1;fill-rule:nonzero;stroke:#000000;stroke-width:0.3985;stroke-linecap:butt;stroke-linejoin:miter;stroke-miterlimit:10;stroke-dasharray:none;stroke-opacity:1"
       transform="matrix(1.3333333,0,0,-1.3333333,1973.4853,287.70133)" />
    <g
       id="g212"
       aria-label="I&#10;R"
       transform="matrix(0.93333333,0,0,0.93333333,2152.904,203.648)">
      <path
         id="path213"
         d="m 4.3843862,-6.1602455 c 0.050223,-0.1674108 0.050223,-0.1674108 0.251116,-0.2008929 0.1506697,0 0.2845982,0 0.4352679,0 h 0.2008928 c 0.217634,0 0.217634,-0.016741 0.2678572,-0.050223 0.066964,-0.050223 0.1004464,-0.1841518 0.1004464,-0.234375 0,-0.1339286 -0.1004464,-0.1841518 -0.2176339,-0.1841518 -0.2511161,0 -0.5189732,0.016741 -0.7700893,0.016741 -0.2511161,0 -0.5189732,0.016741 -0.7868304,0.016741 -0.2845982,0 -0.5524553,-0.016741 -0.8370535,-0.016741 -0.2511161,0 -0.5189732,-0.016741 -0.7700893,-0.016741 -0.1004464,0 -0.2845982,0 -0.2845982,0.2845982 0,0.1841518 0.1506696,0.1841518 0.3348214,0.1841518 h 0.2176339 c 0.083705,0 0.3180804,0 0.5189732,0.016741 l -1.422991,5.67522319 c -0.033482,0.16741072 -0.050223,0.16741072 -0.234375,0.18415179 -0.1171875,0.0167411 -0.3013393,0.0167411 -0.43526788,0.0167411 H 0.75157366 c -0.20089286,0 -0.36830357,0 -0.36830357,0.28459821 0,0.13392858 0.10044643,0.18415179 0.21763393,0.18415179 0.25111607,0 0.50223218,-0.01674107 0.75334818,-0.01674107 0.2678572,0 0.5357143,-0.01674107 0.8035715,-0.01674107 0.2845982,0 0.5524553,0.01674107 0.8370535,0.01674107 0.2511161,0 0.5022322,0.01674107 0.7533482,0.01674107 0.1004465,0 0.3013393,0 0.3013393,-0.28459821 0,-0.18415179 -0.1674107,-0.18415179 -0.3348214,-0.18415179 H 3.4971094 c -0.066964,0 -0.3850447,-0.0167411 -0.5189732,-0.0167411 z m 0,0"
         style="fill:#000000;fill-opacity:1;fill-rule:nonzero;stroke:none" />
      <path
         id="path214"
         d="m 8.7454353,-2.7911049 c 0.050223,-0.1841518 0.066964,-0.2176339 0.2176339,-0.234375 h 0.4520089 c 0.6529019,0 1.4564729,0 1.4564729,0.7198661 0,0.2845982 -0.133928,0.7366071 -0.46875,0.9877232 -0.284598,0.2176339 -0.7198657,0.3348214 -1.2053568,0.3348214 H 8.3101674 Z m 1.2723217,1.90848213 c 0.820312,-0.18415183 1.57366,-0.68638393 1.57366,-1.32254463 0,-0.5859375 -0.719866,-1.0714286 -1.7243299,-1.0714286 H 7.7242299 c -0.1339286,0 -0.234375,0 -0.234375,0.1506697 0,0.1004464 0.083705,0.1004464 0.234375,0.1004464 0,0 0.1339286,0 0.2511161,0.016741 0.1506696,0.016741 0.1674107,0.033482 0.1674107,0.1004464 0,0.016741 0,0.050223 -0.033482,0.1506696 L 7.1885156,0.94215402 C 7.1215513,1.1932701 7.1215513,1.2434933 6.569096,1.2434933 c -0.1171875,0 -0.2008929,0 -0.2008929,0.1506696 0,0.066964 0.050223,0.1004465 0.1004465,0.1004465 0.1339285,0 0.3013392,-0.016741 0.4352678,-0.016741 0.1339286,0 0.3348214,-0.016741 0.46875,-0.016741 0.1339286,0 0.3013393,0.016741 0.4352679,0.016741 0.1506696,0 0.3348214,0.016741 0.46875,0.016741 0.033482,0 0.1506696,0 0.1506696,-0.1506697 0,-0.1004464 -0.066964,-0.1004464 -0.234375,-0.1004464 -0.1004464,0 -0.1339286,0 -0.2678571,-0.016741 -0.1506697,-0.016741 -0.1506697,-0.033482 -0.1506697,-0.1004464 0,-0.016741 0,-0.050223 0.033482,-0.15066964 L 8.2432029,-0.79891731 H 9.197444 c 0.6026786,0 0.853795,0.30133928 0.853795,0.63616071 0,0.08370536 -0.066964,0.31808036 -0.1004468,0.48549107 -0.083705,0.31808036 -0.1004464,0.41852679 -0.1004464,0.53571429 0,0.55245534 0.5022322,0.77008924 1.0212052,0.77008924 0.636161,0 0.920759,-0.68638388 0.920759,-0.80357138 0,-0.0167411 -0.01674,-0.10044643 -0.117187,-0.10044643 -0.08371,0 -0.100447,0.0502232 -0.133929,0.1171875 -0.08371,0.31808031 -0.351562,0.60267861 -0.636161,0.60267861 -0.184151,0 -0.31808,-0.083705 -0.31808,-0.45200897 0,-0.18415178 0.03348,-0.55245536 0.06696,-0.73660714 0.03348,-0.18415179 0.03348,-0.25111607 0.03348,-0.31808036 0,-0.08370536 0,-0.31808036 -0.200893,-0.51897321 -0.133929,-0.15066965 -0.318081,-0.234375 -0.46875,-0.30133929 z m 0,0"
         style="fill:#000000;fill-opacity:1;fill-rule:nonzero;stroke:none" />
    </g>
    <path
       id="path215"
       d="m 79.37071,0 0.0029,18.65279 m 0,22.22459 -0.0029,18.65064"
       style="fill:none;stroke:#000000;stroke-width:0.3985;stroke-linecap:butt;stroke-linejoin:miter;stroke-miterlimit:10;stroke-dasharray:none;stroke-opacity:1"
       transform="matrix(1.3333333,0,0,-1.3333333,1973.4853,287.70133)" />
    <path
       id="path216"
       d="M 83.53767,40.8759 V 18.65211 H 75.20374 V 40.8759 Z"
       style="fill:none;stroke:#000000;stroke-width:0.797;stroke-linecap:butt;stroke-linejoin:miter;stroke-miterlimit:10;stroke-dasharray:none;stroke-opacity:1"
       transform="matrix(1.3333333,0,0,-1.3333333,1973.4853,287.70133)" />
    <path
       id="path217"
       d="m 7.3140402,-5.9783929 c 0.2176339,-0.234375 0.4520089,-0.3850446 1.1049107,-0.3850446 0.1171875,0 0.3013393,0 0.3013393,-0.2845982 0,-0.066964 -0.050223,-0.1841518 -0.1841518,-0.1841518 -0.2845982,0 -0.6194196,0.033482 -0.9207589,0.033482 -0.3683036,0 -0.7366072,-0.033482 -1.1049107,-0.033482 -0.066964,0 -0.2678572,0 -0.2678572,0.2845982 0,0.1841518 0.1674107,0.1841518 0.2678572,0.1841518 0.1004464,0 0.3013392,0.016741 0.4520089,0.066964 L 4.2671652,-3.4002679 2.9948438,-6.3299554 c 0.2678571,-0.033482 0.2845982,-0.033482 0.5524553,-0.033482 0.1674107,0 0.3348214,-0.016741 0.3348214,-0.2845982 0,-0.1339286 -0.1004464,-0.1841518 -0.2176339,-0.1841518 -0.3348214,0 -1.2053571,0.033482 -1.5401786,0.033482 -0.234375,0 -0.46875,-0.016741 -0.6863839,-0.016741 -0.2511161,0 -0.48549106,-0.016741 -0.71986606,-0.016741 -0.10044643,0 -0.28459822,0 -0.28459822,0.2845982 0,0.1841518 0.15066964,0.1841518 0.41852679,0.1841518 0.1171875,0 0.23437499,0 0.38504469,0 0.1171875,0.033482 0.1339285,0.033482 0.2008928,0.1506696 l 1.5066964,3.4821429 -0.5189732,2.05915179 c -0.033482,0.16741071 -0.050223,0.16741071 -0.234375,0.18415178 -0.1674107,0.0167411 -0.3348214,0.0167411 -0.5022321,0.0167411 -0.3013393,0 -0.3180804,0 -0.3683036,0.0334821 -0.050223,0.0502232 -0.1004464,0.18415178 -0.1004464,0.25111607 0,0.0167411 0.016741,0.18415178 0.2176339,0.18415178 0.2511161,0 0.5189732,-0.01674107 0.7533482,-0.01674107 0.2511161,0 0.5022322,-0.01674107 0.7366072,-0.01674107 0.3348214,0 1.188616,0.03348214 1.5234375,0.03348214 0.083705,0 0.2845982,0 0.2845982,-0.28459821 0,-0.18415179 -0.1339286,-0.18415179 -0.4185268,-0.18415179 -0.2008929,0 -0.4017857,-0.0167411 -0.6026786,-0.0167411 L 4.2671652,-2.730625 Z m 0,0"
       style="fill:#000000;fill-opacity:1;fill-rule:nonzero;stroke:none"
       aria-label="Y"
       transform="matrix(0.93333333,0,0,0.93333333,2087.572,250.01733)" />
    <path
       id="path218"
       d="m 4.0699665,-2.2923996 h 2.7790179 c 0.1506696,0 0.3348214,0 0.3348214,-0.2008928 0,-0.2008929 -0.1841518,-0.2008929 -0.3348214,-0.2008929 H 4.0699665 v -2.7790178 c 0,-0.1506697 0,-0.3348215 -0.2008928,-0.3348215 -0.1841518,0 -0.1841518,0.1841518 -0.1841518,0.3348215 v 2.7790178 H 0.88916295 c -0.13392857,0 -0.33482143,0 -0.33482143,0.2008929 0,0.2008928 0.20089286,0.2008928 0.33482143,0.2008928 H 3.6849219 v 2.79575897 c 0,0.13392858 0,0.31808036 0.1841518,0.31808036 0.2008928,0 0.2008928,-0.18415178 0.2008928,-0.31808036 z m 0,0"
       style="fill:#000000;fill-opacity:1;fill-rule:nonzero;stroke:none"
       aria-label="+"
       transform="matrix(0.93333333,0,0,0.93333333,1969.8693,222.51067)" />
    <path
       id="path219"
       d="m 6.5643862,-2.2921317 c 0.1674107,0 0.3515625,0 0.3515625,-0.2008929 0,-0.2008928 -0.1841518,-0.2008928 -0.3515625,-0.2008928 h -5.390625 c -0.1674108,0 -0.35156254,0 -0.35156254,0.2008928 0,0.2008929 0.18415174,0.2008929 0.35156254,0.2008929 z m 0,0"
       style="fill:#000000;fill-opacity:1;fill-rule:nonzero;stroke:none"
       aria-label="−"
       transform="matrix(0.93333333,0,0,0.93333333,1969.8693,278.16667)" />
    <g
       id="g219"
       aria-label="V&#10;S"
       transform="matrix(0.93333333,0,0,0.93333333,1966.4533,250.50667)">
      <path
         id="path220"
         d="m 7.5667411,-5.9585937 c 0.1506696,-0.217634 0.2678571,-0.4017858 0.954241,-0.4017858 0.1171875,0 0.3013393,0 0.3013393,-0.2845982 0,-0.066964 -0.050223,-0.1841518 -0.1841518,-0.1841518 -0.2845982,0 -0.6026785,0.033482 -0.9040178,0.033482 -0.3683036,0 -0.7533482,-0.033482 -1.1049107,-0.033482 -0.066964,0 -0.2678572,0 -0.2678572,0.2845983 0,0.1841517 0.1674107,0.1841517 0.2678572,0.1841517 0.050223,0 0.3348214,0 0.5524553,0.1004465 l -3.28125,4.7712053 -0.8872768,-4.6540178 c 0,-0.033482 -0.016741,-0.1171875 -0.016741,-0.1339286 0,-0.083705 0.5357143,-0.083705 0.6026785,-0.083705 0.217634,0 0.3850447,0 0.3850447,-0.2845982 0,-0.1339285 -0.1004464,-0.1841518 -0.2176339,-0.1841518 -0.2511161,0 -0.5022322,0.016741 -0.7533483,0.016741 -0.251116,0 -0.485491,0.016741 -0.7366071,0.016741 -0.2176339,0 -0.4520089,-0.016741 -0.6863839,-0.016741 -0.217634,0 -0.452009,-0.016741 -0.65290181,-0.016741 -0.0837054,0 -0.28459822,0 -0.28459822,0.2845983 0,0.1841517 0.16741072,0.1841517 0.36830353,0.1841517 0.1339286,0 0.2511161,0 0.3850447,0 0.1171875,0.016741 0.1339286,0.033482 0.1506696,0.2008929 l 1.1383929,6.04352678 c 0.050223,0.28459821 0.1674107,0.28459821 0.3515625,0.28459821 0.2845982,0 0.3348214,-0.0669643 0.4520089,-0.25111607 z m 0,0"
         style="fill:#000000;fill-opacity:1;fill-rule:nonzero;stroke:none" />
      <path
         id="path221"
         d="m 14.254799,-3.3260603 c 0,-0.033482 -0.01674,-0.083705 -0.08371,-0.083705 -0.05022,0 -0.05022,0 -0.15067,0.1004464 l -0.334821,0.3850446 c -0.267857,-0.3683035 -0.703125,-0.485491 -1.138393,-0.485491 -0.970982,0 -1.858259,0.7868303 -1.858259,1.5904018 0,0.1171875 0.03348,0.3850446 0.234375,0.6529017 0.234375,0.26785719 0.502232,0.33482148 0.970982,0.45200898 0.133929,0.0334821 0.485491,0.10044642 0.602679,0.13392857 0.217634,0.0502232 0.63616,0.21763393 0.63616,0.73660714 0,0.56919643 -0.585937,1.22209821 -1.389509,1.22209821 -0.602678,0 -1.356026,-0.2176339 -1.356026,-0.98772321 0,-0.0669643 0.01674,-0.21763393 0.05022,-0.3515625 0,-0.01674107 0,-0.03348214 0,-0.03348214 0,-0.10044643 -0.08371,-0.10044643 -0.100447,-0.10044643 -0.100446,0 -0.117187,0.01674107 -0.133928,0.15066964 L 9.8518973,1.4451451 c -0.016741,0.033482 -0.033482,0.066964 -0.033482,0.1004464 0,0.050223 0.033482,0.083705 0.1004464,0.083705 0.050223,0 0.050223,0 0.1339283,-0.083705 0.08371,-0.1004464 0.267857,-0.3180803 0.334822,-0.4017857 0.385044,0.4017857 0.920759,0.4854911 1.339285,0.4854911 1.054688,0 1.908482,-0.90401788 1.908482,-1.72433038 0,-0.30133929 -0.133928,-0.5859375 -0.284598,-0.75334822 -0.234375,-0.2511161 -0.351562,-0.2678571 -1.238839,-0.4854911 -0.15067,-0.033482 -0.385045,-0.083705 -0.452009,-0.1171875 -0.167411,-0.050223 -0.46875,-0.234375 -0.46875,-0.6361607 0,-0.5357143 0.636161,-1.1049107 1.356027,-1.1049107 0.753348,0 1.121652,0.4352679 1.121652,1.0881696 0,0.1004465 -0.03348,0.2511161 -0.03348,0.3180804 0,0.1004464 0.08371,0.1004464 0.117188,0.1004464 0.100446,0 0.117187,-0.033482 0.133929,-0.1506696 z m 0,0"
         style="fill:#000000;fill-opacity:1;fill-rule:nonzero;stroke:none" />
    </g>
    <path
       id="path222"
       d="m 4.0685045,-2.2923996 h 2.7790178 c 0.1506697,0 0.3348215,0 0.3348215,-0.2008928 0,-0.2008929 -0.1841518,-0.2008929 -0.3348215,-0.2008929 H 4.0685045 v -2.7790178 c 0,-0.1506697 0,-0.3348215 -0.2008929,-0.3348215 -0.1841518,0 -0.1841518,0.1841518 -0.1841518,0.3348215 v 2.7790178 H 0.88770089 c -0.13392857,0 -0.33482143,0 -0.33482143,0.2008929 0,0.2008928 0.20089286,0.2008928 0.33482143,0.2008928 H 3.6834598 v 2.79575897 c 0,0.13392858 0,0.31808036 0.1841518,0.31808036 0.2008929,0 0.2008929,-0.18415178 0.2008929,-0.31808036 z m 0,0"
       style="fill:#000000;fill-opacity:1;fill-rule:nonzero;stroke:none"
       aria-label="+"
       transform="matrix(0.93333333,0,0,0.93333333,2181.5387,222.51067)" />
    <path
       id="path223"
       d="m 6.5629241,-2.2921317 c 0.1674107,0 0.3515625,0 0.3515625,-0.2008929 0,-0.2008928 -0.1841518,-0.2008928 -0.3515625,-0.2008928 h -5.390625 c -0.1674107,0 -0.35156249,0 -0.35156249,0.2008928 0,0.2008929 0.18415179,0.2008929 0.35156249,0.2008929 z m 0,0"
       style="fill:#000000;fill-opacity:1;fill-rule:nonzero;stroke:none"
       aria-label="−"
       transform="matrix(0.93333333,0,0,0.93333333,2181.5387,278.16667)" />
    <g
       id="g223"
       aria-label="V&#10;R"
       transform="matrix(0.93333333,0,0,0.93333333,2177.7653,250.50667)">
      <path
         id="path224"
         d="m 7.5672768,-5.9585937 c 0.1506696,-0.217634 0.2678571,-0.4017858 0.9542411,-0.4017858 0.1171875,0 0.3013392,0 0.3013392,-0.2845982 0,-0.066964 -0.050223,-0.1841518 -0.1841517,-0.1841518 -0.2845983,0 -0.6026786,0.033482 -0.9040179,0.033482 -0.3683036,0 -0.7533482,-0.033482 -1.1049107,-0.033482 -0.066964,0 -0.2678572,0 -0.2678572,0.2845983 0,0.1841517 0.1674108,0.1841517 0.2678572,0.1841517 0.050223,0 0.3348214,0 0.5524553,0.1004465 l -3.28125,4.7712053 -0.8872767,-4.6540178 c 0,-0.033482 -0.016741,-0.1171875 -0.016741,-0.1339286 0,-0.083705 0.5357143,-0.083705 0.6026786,-0.083705 0.2176339,0 0.3850446,0 0.3850446,-0.2845982 0,-0.1339285 -0.1004464,-0.1841518 -0.2176339,-0.1841518 -0.2511161,0 -0.5022322,0.016741 -0.7533482,0.016741 -0.2511161,0 -0.4854911,0.016741 -0.7366072,0.016741 -0.2176339,0 -0.4520089,-0.016741 -0.6863839,-0.016741 -0.2176339,0 -0.4520089,-0.016741 -0.6529018,-0.016741 -0.0837054,0 -0.28459821,0 -0.28459821,0.2845983 0,0.1841517 0.16741071,0.1841517 0.36830361,0.1841517 0.1339285,0 0.251116,0 0.3850446,0 0.1171875,0.016741 0.1339286,0.033482 0.1506696,0.2008929 l 1.1383929,6.04352678 c 0.050223,0.28459821 0.1674107,0.28459821 0.3515625,0.28459821 0.2845982,0 0.3348214,-0.0669643 0.4520089,-0.25111607 z m 0,0"
         style="fill:#000000;fill-opacity:1;fill-rule:nonzero;stroke:none" />
      <path
         id="path225"
         d="m 12.179442,-2.790346 c 0.05022,-0.1841518 0.06696,-0.2176339 0.217634,-0.234375 h 0.452009 c 0.652902,0 1.456473,0 1.456473,0.7198661 0,0.2845982 -0.133929,0.7366071 -0.46875,0.9877232 -0.284598,0.2176339 -0.719866,0.33482143 -1.205357,0.33482143 h -0.887277 z m 1.272321,1.90848216 c 0.820313,-0.18415176 1.573661,-0.68638396 1.573661,-1.32254466 0,-0.5859375 -0.719866,-1.0714286 -1.72433,-1.0714286 h -2.142857 c -0.133929,0 -0.234375,0 -0.234375,0.1506697 0,0.1004464 0.08371,0.1004464 0.234375,0.1004464 0,0 0.133928,0 0.251116,0.016741 0.150669,0.016741 0.16741,0.033482 0.16741,0.1004464 0,0.016741 0,0.050223 -0.03348,0.1506697 l -0.920759,3.69977675 c -0.06696,0.25111605 -0.06696,0.30133925 -0.619419,0.30133925 -0.1171878,0 -0.2008932,0 -0.2008932,0.1506697 0,0.066964 0.050223,0.1004464 0.1004465,0.1004464 0.1339287,0 0.3013397,-0.016741 0.4352677,-0.016741 0.133929,0 0.334822,-0.016741 0.46875,-0.016741 0.133929,0 0.301339,0.016741 0.435268,0.016741 0.15067,0 0.334821,0.016741 0.46875,0.016741 0.03348,0 0.15067,0 0.15067,-0.1506696 0,-0.1004465 -0.06696,-0.1004465 -0.234375,-0.1004465 -0.100447,0 -0.133929,0 -0.267858,-0.016741 C 11.20846,1.2107701 11.20846,1.194029 11.20846,1.1270647 c 0,-0.016741 0,-0.050223 0.03348,-0.15066961 l 0.435268,-1.77455357 h 0.954241 c 0.602678,0 0.853795,0.30133928 0.853795,0.63616071 0,0.08370536 -0.06696,0.31808036 -0.100447,0.48549107 -0.0837,0.31808036 -0.100446,0.41852679 -0.100446,0.53571429 0,0.55245531 0.502232,0.77008931 1.021205,0.77008931 0.636161,0 0.920759,-0.68638395 0.920759,-0.80357145 0,-0.0167411 -0.01674,-0.10044643 -0.117188,-0.10044643 -0.08371,0 -0.100446,0.0502232 -0.133928,0.1171875 -0.08371,0.31808038 -0.351563,0.60267858 -0.636161,0.60267858 -0.184152,0 -0.31808,-0.083705 -0.31808,-0.45200894 0,-0.18415178 0.03348,-0.55245536 0.06696,-0.73660714 0.03348,-0.18415179 0.03348,-0.25111607 0.03348,-0.31808036 0,-0.08370536 0,-0.31808036 -0.200893,-0.51897321 -0.133928,-0.15066965 -0.31808,-0.234375 -0.46875,-0.30133929 z m 0,0"
         style="fill:#000000;fill-opacity:1;fill-rule:nonzero;stroke:none" />
    </g>
  </g>
</svg>
