<?xml version="1.0" encoding="UTF-8" standalone="no"?>
<!-- Created with Inkscape (http://www.inkscape.org/) -->

<svg
   version="1.1"
   id="svg1"
   width="224.91406"
   height="97.894897"
   viewBox="0 0 224.91406 97.894897"
   sodipodi:docname="CircuiTikz (8).pdf"
   xmlns:inkscape="http://www.inkscape.org/namespaces/inkscape"
   xmlns:sodipodi="http://sodipodi.sourceforge.net/DTD/sodipodi-0.dtd"
   xmlns="http://www.w3.org/2000/svg"
   xmlns:svg="http://www.w3.org/2000/svg">
  <defs
     id="defs1" />
  <sodipodi:namedview
     id="namedview1"
     pagecolor="#ffffff"
     bordercolor="#000000"
     borderopacity="0.25"
     inkscape:showpageshadow="2"
     inkscape:pageopacity="0.0"
     inkscape:pagecheckerboard="0"
     inkscape:deskcolor="#d1d1d1">
    <inkscape:page
       x="3.279725e-06"
       y="1.6547596e-06"
       width="224.91406"
       height="97.894897"
       id="page2"
       margin="0"
       bleed="0" />
  </sodipodi:namedview>
  <g
     id="g201"
     inkscape:groupmode="layer"
     inkscape:label="3"
     transform="translate(-1967.0625,-351.44141)">
    <path
       id="path227"
       d="m 0,0 h 79.37363 m 0,0 h 79.36779"
       style="fill:none;stroke:#000000;stroke-width:0.3985;stroke-linecap:butt;stroke-linejoin:miter;stroke-miterlimit:10;stroke-dasharray:none;stroke-opacity:1"
       transform="matrix(1.3333333,0,0,-1.3333333,1973.4853,447.58933)" />
    <path
       id="path228"
       d="M 1.11098,0 C 1.11098,0.61357 0.61357,1.11098 0,1.11098 -0.61357,1.11098 -1.11098,0.61357 -1.11098,0 c 0,-0.61357 0.49741,-1.11098 1.11098,-1.11098 0.61357,0 1.11098,0.49741 1.11098,1.11098 z"
       style="fill:#000000;fill-opacity:1;fill-rule:nonzero;stroke:#000000;stroke-width:0.3985;stroke-linecap:butt;stroke-linejoin:miter;stroke-miterlimit:10;stroke-dasharray:none;stroke-opacity:1"
       transform="matrix(1.3333333,0,0,-1.3333333,1973.4853,447.58933)" />
    <path
       id="path229"
       d="m 159.85242,0 c 0,0.61357 -0.49741,1.11098 -1.111,1.11098 -0.61358,0 -1.11099,-0.49741 -1.11099,-1.11098 0,-0.61357 0.49741,-1.11098 1.11099,-1.11098 0.61359,0 1.111,0.49741 1.111,1.11098 z"
       style="fill:#000000;fill-opacity:1;fill-rule:nonzero;stroke:#000000;stroke-width:0.3985;stroke-linecap:butt;stroke-linejoin:miter;stroke-miterlimit:10;stroke-dasharray:none;stroke-opacity:1"
       transform="matrix(1.3333333,0,0,-1.3333333,1973.4853,447.58933)" />
    <path
       id="path230"
       d="m 0,59.52802 14.88254,0.0022 m 0,0 14.88146,-0.0022 13.69305,0.0022 m 22.22459,0 13.68907,-0.0022 13.69486,0.0022 m 22.22462,0 13.68721,-0.0022 14.88733,0.0022 m 0,0 14.87669,-0.0022"
       style="fill:none;stroke:#000000;stroke-width:0.3985;stroke-linecap:butt;stroke-linejoin:miter;stroke-miterlimit:10;stroke-dasharray:none;stroke-opacity:1"
       transform="matrix(1.3333333,0,0,-1.3333333,1973.4853,447.58933)" />
    <path
       id="path231"
       d="M 1.11098,59.52802 C 1.11098,60.1416 0.61357,60.639 0,60.639 c -0.61357,0 -1.11098,-0.4974 -1.11098,-1.11098 0,-0.61358 0.49741,-1.111 1.11098,-1.111 0.61357,0 1.11098,0.49742 1.11098,1.111 z"
       style="fill:#000000;fill-opacity:1;fill-rule:nonzero;stroke:#000000;stroke-width:0.3985;stroke-linecap:butt;stroke-linejoin:miter;stroke-miterlimit:10;stroke-dasharray:none;stroke-opacity:1"
       transform="matrix(1.3333333,0,0,-1.3333333,1973.4853,447.58933)" />
    <path
       id="path232"
       d="m 13.66719,59.53018 v -1.38896 l 2.95155,1.38896 -2.95155,1.38896 z"
       style="fill:#000000;fill-opacity:1;fill-rule:nonzero;stroke:#000000;stroke-width:0.3985;stroke-linecap:butt;stroke-linejoin:miter;stroke-miterlimit:10;stroke-dasharray:none;stroke-opacity:1"
       transform="matrix(1.3333333,0,0,-1.3333333,1973.4853,447.58933)" />
    <g
       id="g232"
       aria-label="I&#10;S"
       transform="matrix(0.93333333,0,0,0.93333333,1987.8973,363.536)">
      <path
         id="path233"
         d="m 4.3873438,-6.1616183 c 0.050223,-0.1674107 0.050223,-0.1674107 0.251116,-0.2008929 0.1506697,0 0.2845982,0 0.4352679,0 h 0.2008928 c 0.217634,0 0.217634,-0.016741 0.2678572,-0.050223 0.066964,-0.050223 0.1004464,-0.1841518 0.1004464,-0.234375 0,-0.1339285 -0.1004464,-0.1841518 -0.2176339,-0.1841518 -0.2511161,0 -0.5189732,0.016741 -0.7700893,0.016741 -0.2511161,0 -0.5189732,0.016741 -0.7868304,0.016741 -0.2845982,0 -0.5524553,-0.016741 -0.8370535,-0.016741 -0.2511161,0 -0.5189732,-0.016741 -0.7700893,-0.016741 -0.1004464,0 -0.2845982,0 -0.2845982,0.2845983 0,0.1841517 0.1506696,0.1841517 0.3348214,0.1841517 h 0.2176339 c 0.083705,0 0.3180804,0 0.5189732,0.016741 l -1.422991,5.67522322 c -0.033482,0.16741072 -0.050223,0.16741072 -0.234375,0.18415179 -0.1171875,0.0167411 -0.3013393,0.0167411 -0.43526789,0.0167411 H 0.75453125 c -0.20089286,0 -0.36830357,0 -0.36830357,0.28459822 0,0.13392857 0.10044643,0.18415178214 0.21763393,0.18415178214 0.25111607,0 0.50223219,-0.0167410721 0.75334819,-0.0167410721 0.2678572,0 0.5357143,-0.01674107 0.8035715,-0.01674107 0.2845982,0 0.5524553,0.01674107 0.8370535,0.01674107 0.2511161,0 0.5022322,0.0167410721 0.7533482,0.0167410721 0.1004465,0 0.3013393,0 0.3013393,-0.28459821214 0,-0.18415179 -0.1674107,-0.18415179 -0.3348214,-0.18415179 H 3.500067 c -0.066964,0 -0.3850447,-0.0167411 -0.5189732,-0.0167411 z m 0,0"
         style="fill:#000000;fill-opacity:1;fill-rule:nonzero;stroke:none" />
      <path
         id="path234"
         d="m 10.824286,-3.328192 c 0,-0.033482 -0.01674,-0.083705 -0.08371,-0.083705 -0.05022,0 -0.05022,0 -0.150669,0.1004464 L 10.255085,-2.926406 C 9.9872281,-3.2947095 9.5519603,-3.411897 9.1166924,-3.411897 c -0.9709821,0 -1.8582589,0.7868303 -1.8582589,1.5904018 0,0.1171875 0.033482,0.3850446 0.234375,0.6529017 0.234375,0.26785719 0.5022321,0.33482148 0.9709821,0.45200898 0.1339286,0.0334821 0.4854911,0.10044643 0.6026786,0.13392857 0.2176339,0.0502232 0.6361607,0.21763393 0.6361607,0.73660714 0,0.56919643 -0.5859375,1.22209821 -1.3895089,1.22209821 -0.6026786,0 -1.3560268,-0.2176339 -1.3560268,-0.98772321 0,-0.0669643 0.016741,-0.21763393 0.050223,-0.3515625 0,-0.01674107 0,-0.03348214 0,-0.03348214 0,-0.10044643 -0.083705,-0.10044643 -0.1004464,-0.10044643 -0.1004464,0 -0.1171875,0.01674107 -0.1339286,0.15066964 L 6.4213839,1.4430134 c -0.016741,0.033482 -0.033482,0.066964 -0.033482,0.1004464 0,0.050223 0.033482,0.083705 0.1004464,0.083705 0.050223,0 0.050223,0 0.1339286,-0.083705 C 6.7059819,1.4430134 6.890134,1.2253795 6.9570983,1.1416741 7.342143,1.5434598 7.8778572,1.6271652 8.296384,1.6271652 c 1.0546875,0 1.908482,-0.90401788 1.908482,-1.72433038 0,-0.30133928 -0.133928,-0.5859375 -0.284598,-0.75334821 C 9.6858929,-1.1016295 9.5687054,-1.1183705 8.6814286,-1.3360045 8.5307589,-1.3694866 8.2963839,-1.4197098 8.2294196,-1.453192 c -0.1674107,-0.050223 -0.46875,-0.234375 -0.46875,-0.6361607 0,-0.5357143 0.6361608,-1.1049107 1.3560268,-1.1049107 0.7533482,0 1.1216516,0.4352679 1.1216516,1.0881696 0,0.1004465 -0.03348,0.2511161 -0.03348,0.3180804 0,0.1004464 0.0837,0.1004464 0.117188,0.1004464 0.100446,0 0.117187,-0.033482 0.133928,-0.1506696 z m 0,0"
         style="fill:#000000;fill-opacity:1;fill-rule:nonzero;stroke:none" />
    </g>
    <path
       id="path235"
       d="M 65.67924,55.36105 H 43.45547 v 8.33394 h 22.22377 z"
       style="fill:none;stroke:#000000;stroke-width:0.797;stroke-linecap:butt;stroke-linejoin:miter;stroke-miterlimit:10;stroke-dasharray:none;stroke-opacity:1"
       transform="matrix(1.3333333,0,0,-1.3333333,1973.4853,447.58933)" />
    <g
       id="g235"
       aria-label="Z&#10;1"
       transform="matrix(0.93333333,0,0,0.93333333,2040.2427,357.81467)">
      <path
         id="path236"
         d="m 7.8677902,-6.3597433 c 0.083705,-0.083705 0.1506696,-0.2008929 0.1506696,-0.3348214 0,-0.1339286 -0.1171875,-0.1339286 -0.2845982,-0.1339286 H 2.912433 c -0.251116,0 -0.3013392,0 -0.3683035,0.234375 l -0.5357143,1.7912946 c -0.050223,0.1506697 -0.050223,0.1674108 -0.050223,0.2008929 0,0.1674107 0.1674107,0.1674107 0.2176339,0.1674107 0.1506696,0 0.2008929,-0.033482 0.2511161,-0.1674107 0.4352678,-1.2555804 1.188616,-1.7578125 2.5613839,-1.7578125 h 1.3392857 l -5.47433035,5.84263392 c -0.0837054,0.0837054 -0.18415179,0.18415179 -0.18415179,0.38504465 0,0.13392857 0.10044643,0.13392857 0.30133929,0.13392857 H 5.959308 c 0.2511161,0 0.2845983,0 0.3515625,-0.234375 L 7.0474777,-2.5092969 c 0.033482,-0.1004464 0.033482,-0.1339285 0.033482,-0.1339285 0,-0.1506697 -0.1339285,-0.1841518 -0.234375,-0.1841518 -0.066964,0 -0.1674107,0 -0.2176339,0.1339285 C 6.193683,-1.4378683 5.724933,-0.5003683 3.833192,-0.5003683 H 2.3934598 Z m 0,0"
         style="fill:#000000;fill-opacity:1;fill-rule:nonzero;stroke:none" />
      <path
         id="path237"
         d="m 10.734699,-2.9403795 c 0,-0.1841518 -0.01674,-0.2008928 -0.217634,-0.2008928 -0.452009,0.4352678 -1.0714288,0.4520089 -1.3727681,0.4520089 v 0.2511161 c 0.1674107,0 0.6361607,0 1.0212051,-0.2008929 v 3.56584824 c 0,0.23437496 0,0.31808036 -0.7031248,0.31808036 H 9.1945201 v 0.2511161 c 0.1339286,0 0.9877229,-0.033482 1.2555799,-0.033482 0.217634,0 1.08817,0.033482 1.23884,0.033482 V 1.2448884 h -0.267857 c -0.686384,0 -0.686384,-0.083705 -0.686384,-0.31808036 z m 0,0"
         style="fill:#000000;fill-opacity:1;fill-rule:nonzero;stroke:none" />
    </g>
    <path
       id="path238"
       d="M 115.28593,55.36105 H 93.06215 v 8.33394 h 22.22378 z"
       style="fill:none;stroke:#000000;stroke-width:0.797;stroke-linecap:butt;stroke-linejoin:miter;stroke-miterlimit:10;stroke-dasharray:none;stroke-opacity:1"
       transform="matrix(1.3333333,0,0,-1.3333333,1973.4853,447.58933)" />
    <g
       id="g238"
       aria-label="Z&#10;2"
       transform="matrix(0.93333333,0,0,0.93333333,2106.388,357.81467)">
      <path
         id="path239"
         d="m 7.8669308,-6.3597433 c 0.083705,-0.083705 0.1506696,-0.2008929 0.1506696,-0.3348214 0,-0.1339286 -0.1171875,-0.1339286 -0.2845982,-0.1339286 H 2.9115737 c -0.2511161,0 -0.3013393,0 -0.3683036,0.234375 l -0.5357143,1.7912946 c -0.050223,0.1506697 -0.050223,0.1674108 -0.050223,0.2008929 0,0.1674107 0.1674107,0.1674107 0.2176339,0.1674107 0.1506697,0 0.2008929,-0.033482 0.2511161,-0.1674107 0.4352678,-1.2555804 1.1886161,-1.7578125 2.5613839,-1.7578125 h 1.3392857 l -5.47433032,5.84263392 c -0.0837054,0.0837054 -0.18415179,0.18415179 -0.18415179,0.38504465 0,0.13392857 0.10044643,0.13392857 0.30133929,0.13392857 H 5.9584487 c 0.251116,0 0.2845982,0 0.3515625,-0.234375 L 7.0466183,-2.5092969 c 0.033482,-0.1004464 0.033482,-0.1339285 0.033482,-0.1339285 0,-0.1506697 -0.1339285,-0.1841518 -0.234375,-0.1841518 -0.066964,0 -0.1674107,0 -0.2176339,0.1339285 -0.4352678,1.2555804 -0.9040178,2.1930804 -2.7957589,2.1930804 H 2.3926004 Z m 0,0"
         style="fill:#000000;fill-opacity:1;fill-rule:nonzero;stroke:none" />
      <path
         id="path240"
         d="m 11.922455,0.22368304 h -0.251116 c -0.01674,0.15066964 -0.08371,0.56919642 -0.16741,0.63616071 -0.06696,0.0502232 -0.602679,0.0502232 -0.703125,0.0502232 H 9.5284821 c 0.7198659,-0.65290178 0.9709819,-0.85379464 1.3895089,-1.18861607 0.518973,-0.40178571 1.004464,-0.83705358 1.004464,-1.50669638 0,-0.8370536 -0.753348,-1.3560268 -1.640625,-1.3560268 -0.8705354,0 -1.4564729,0.6026785 -1.4564729,1.2555803 0,0.3515625 0.3013393,0.3850447 0.3683036,0.3850447 0.1674107,0 0.3683036,-0.1171875 0.3683036,-0.3683036 0,-0.1339286 -0.033482,-0.3683036 -0.4017857,-0.3683036 0.2176339,-0.5022321 0.6863839,-0.6529018 1.0212054,-0.6529018 0.686384,0 1.054687,0.5524554 1.054687,1.1049108 0,0.6194196 -0.435267,1.0881696 -0.652901,1.33928567 L 8.8923214,1.2281473 c -0.066964,0.050223 -0.066964,0.066964 -0.066964,0.2678572 h 2.8794636 z m 0,0"
         style="fill:#000000;fill-opacity:1;fill-rule:nonzero;stroke:none" />
    </g>
    <path
       id="path241"
       d="m 159.85242,59.52802 c 0,0.61358 -0.49741,1.11098 -1.111,1.11098 -0.61358,0 -1.11099,-0.4974 -1.11099,-1.11098 0,-0.61358 0.49741,-1.111 1.11099,-1.111 0.61359,0 1.111,0.49742 1.111,1.111 z"
       style="fill:#000000;fill-opacity:1;fill-rule:nonzero;stroke:#000000;stroke-width:0.3985;stroke-linecap:butt;stroke-linejoin:miter;stroke-miterlimit:10;stroke-dasharray:none;stroke-opacity:1"
       transform="matrix(1.3333333,0,0,-1.3333333,1973.4853,447.58933)" />
    <path
       id="path242"
       d="m 142.64937,59.53018 v -1.38896 l 2.95155,1.38896 -2.95155,1.38896 z"
       style="fill:#000000;fill-opacity:1;fill-rule:nonzero;stroke:#000000;stroke-width:0.3985;stroke-linecap:butt;stroke-linejoin:miter;stroke-miterlimit:10;stroke-dasharray:none;stroke-opacity:1"
       transform="matrix(1.3333333,0,0,-1.3333333,1973.4853,447.58933)" />
    <g
       id="g242"
       aria-label="I&#10;R"
       transform="matrix(0.93333333,0,0,0.93333333,2159.5187,363.536)">
      <path
         id="path243"
         d="m 4.3870871,-6.1616183 c 0.050223,-0.1674107 0.050223,-0.1674107 0.251116,-0.2008929 0.1506697,0 0.2845982,0 0.4352679,0 h 0.2008928 c 0.217634,0 0.217634,-0.016741 0.2678572,-0.050223 0.066964,-0.050223 0.1004464,-0.1841518 0.1004464,-0.234375 0,-0.1339285 -0.1004464,-0.1841518 -0.2176339,-0.1841518 -0.2511161,0 -0.5189732,0.016741 -0.7700893,0.016741 -0.2511161,0 -0.5189732,0.016741 -0.7868304,0.016741 -0.2845982,0 -0.5524553,-0.016741 -0.8370535,-0.016741 -0.2511161,0 -0.5189732,-0.016741 -0.7700893,-0.016741 -0.1004464,0 -0.2845982,0 -0.2845982,0.2845983 0,0.1841517 0.1506696,0.1841517 0.3348214,0.1841517 h 0.2176339 c 0.083705,0 0.3180804,0 0.5189732,0.016741 l -1.422991,5.67522322 c -0.033482,0.16741072 -0.050223,0.16741072 -0.234375,0.18415179 -0.1171875,0.0167411 -0.3013393,0.0167411 -0.43526789,0.0167411 H 0.75427455 c -0.20089285,0 -0.36830357,0 -0.36830357,0.28459822 0,0.13392857 0.10044643,0.18415178214 0.21763393,0.18415178214 0.25111607,0 0.50223219,-0.0167410721 0.75334819,-0.0167410721 0.2678572,0 0.5357143,-0.01674107 0.8035715,-0.01674107 0.2845982,0 0.5524553,0.01674107 0.8370535,0.01674107 0.2511161,0 0.5022322,0.0167410721 0.7533482,0.0167410721 0.1004465,0 0.3013393,0 0.3013393,-0.28459821214 0,-0.18415179 -0.1674107,-0.18415179 -0.3348214,-0.18415179 H 3.4998103 c -0.066964,0 -0.3850447,-0.0167411 -0.5189732,-0.0167411 z m 0,0"
         style="fill:#000000;fill-opacity:1;fill-rule:nonzero;stroke:none" />
      <path
         id="path244"
         d="m 8.7481362,-2.7924777 c 0.050223,-0.1841518 0.066964,-0.2176339 0.2176339,-0.234375 H 9.417779 c 0.652902,0 1.456473,0 1.456473,0.7198661 0,0.2845982 -0.133928,0.7366071 -0.46875,0.9877232 -0.284598,0.2176339 -0.7198658,0.33482144 -1.2053569,0.33482144 H 8.3128683 Z m 1.2723218,1.90848216 c 0.820312,-0.18415176 1.57366,-0.68638396 1.57366,-1.32254466 0,-0.5859375 -0.719866,-1.0714286 -1.7243301,-1.0714286 H 7.7269308 c -0.1339286,0 -0.234375,0 -0.234375,0.1506697 0,0.1004464 0.083705,0.1004464 0.234375,0.1004464 0,0 0.1339286,0 0.2511161,0.016741 0.1506696,0.016741 0.1674107,0.033482 0.1674107,0.1004464 0,0.016741 0,0.050223 -0.033482,0.1506697 L 7.1912165,0.94078125 C 7.1242522,1.1918973 7.1242522,1.2421205 6.5717969,1.2421205 c -0.1171875,0 -0.2008929,0 -0.2008929,0.1506697 0,0.066964 0.050223,0.1004464 0.1004464,0.1004464 0.1339286,0 0.3013393,-0.016741 0.4352679,-0.016741 0.1339286,0 0.3348214,-0.016741 0.46875,-0.016741 0.1339286,0 0.3013393,0.016741 0.4352679,0.016741 0.1506696,0 0.3348214,0.016741 0.46875,0.016741 0.033482,0 0.1506696,0 0.1506696,-0.1506696 0,-0.1004465 -0.066964,-0.1004465 -0.234375,-0.1004465 -0.1004464,0 -0.1339286,0 -0.2678571,-0.016741 C 7.777154,1.2086384 7.777154,1.1918973 7.777154,1.124933 c 0,-0.016741 0,-0.050223 0.033482,-0.15066961 l 0.435268,-1.77455357 h 0.9542411 c 0.6026786,0 0.8537949,0.30133929 0.8537949,0.63616072 0,0.08370535 -0.066965,0.31808035 -0.1004467,0.48549107 -0.083705,0.31808035 -0.1004464,0.41852678 -0.1004464,0.53571428 0,0.55245531 0.5022321,0.77008931 1.0212051,0.77008931 0.636161,0 0.920759,-0.68638395 0.920759,-0.80357145 0,-0.0167411 -0.01674,-0.10044643 -0.117187,-0.10044643 -0.08371,0 -0.100447,0.0502232 -0.133929,0.1171875 -0.0837,0.31808038 -0.351562,0.60267858 -0.636161,0.60267858 -0.184151,0 -0.31808,-0.083705 -0.31808,-0.45200894 0,-0.18415178 0.03348,-0.55245535 0.06696,-0.73660714 0.03348,-0.18415178 0.03348,-0.25111607 0.03348,-0.31808036 0,-0.08370535 0,-0.31808035 -0.200892,-0.51897321 -0.133929,-0.15066964 -0.318081,-0.234375 -0.46875,-0.30133929 z m 0,0"
         style="fill:#000000;fill-opacity:1;fill-rule:nonzero;stroke:none" />
    </g>
    <path
       id="path245"
       d="m 79.37071,0 0.0029,18.65279 m 0,22.22459 -0.0029,18.65064"
       style="fill:none;stroke:#000000;stroke-width:0.3985;stroke-linecap:butt;stroke-linejoin:miter;stroke-miterlimit:10;stroke-dasharray:none;stroke-opacity:1"
       transform="matrix(1.3333333,0,0,-1.3333333,1973.4853,447.58933)" />
    <path
       id="path246"
       d="M 83.53767,40.8759 V 18.65211 H 75.20374 V 40.8759 Z"
       style="fill:none;stroke:#000000;stroke-width:0.797;stroke-linecap:butt;stroke-linejoin:miter;stroke-miterlimit:10;stroke-dasharray:none;stroke-opacity:1"
       transform="matrix(1.3333333,0,0,-1.3333333,1973.4853,447.58933)" />
    <path
       id="path247"
       d="m 7.3140402,-5.9755804 c 0.2176339,-0.234375 0.4520089,-0.3850446 1.1049107,-0.3850446 0.1171875,0 0.3013393,0 0.3013393,-0.2845982 0,-0.066964 -0.050223,-0.1841518 -0.1841518,-0.1841518 -0.2845982,0 -0.6194196,0.033482 -0.9207589,0.033482 -0.3683036,0 -0.7366072,-0.033482 -1.1049107,-0.033482 -0.066964,0 -0.2678572,0 -0.2678572,0.2845982 0,0.1841518 0.1674107,0.1841518 0.2678572,0.1841518 0.1004464,0 0.3013392,0.016741 0.4520089,0.066964 L 4.2671652,-3.3974554 2.9948438,-6.3271429 c 0.2678571,-0.033482 0.2845982,-0.033482 0.5524553,-0.033482 0.1674107,0 0.3348214,-0.016741 0.3348214,-0.2845982 0,-0.1339286 -0.1004464,-0.1841518 -0.2176339,-0.1841518 -0.3348214,0 -1.2053571,0.033482 -1.5401786,0.033482 -0.234375,0 -0.46875,-0.016741 -0.6863839,-0.016741 -0.2511161,0 -0.48549106,-0.016741 -0.71986606,-0.016741 -0.10044643,0 -0.28459822,0 -0.28459822,0.2845982 0,0.1841518 0.15066964,0.1841518 0.41852679,0.1841518 0.1171875,0 0.23437499,0 0.38504469,0 0.1171875,0.033482 0.1339285,0.033482 0.2008928,0.1506696 l 1.5066964,3.4821429 -0.5189732,2.05915179 C 2.3921652,-0.50125 2.3754241,-0.50125 2.1912723,-0.48450893 c -0.1674107,0.0167411 -0.3348214,0.0167411 -0.5022321,0.0167411 -0.3013393,0 -0.3180804,0 -0.3683036,0.0334821 -0.050223,0.0502232 -0.1004464,0.18415178 -0.1004464,0.25111607 0,0.0167411 0.016741,0.18415178286 0.2176339,0.18415178286 0.2511161,0 0.5189732,-0.0167410729 0.7533482,-0.0167410729 0.2511161,0 0.5022322,-0.01674107 0.7366072,-0.01674107 0.3348214,0 1.188616,0.0334821429 1.5234375,0.0334821429 0.083705,0 0.2845982,0 0.2845982,-0.28459821286 0,-0.18415179 -0.1339286,-0.18415179 -0.4185268,-0.18415179 -0.2008929,0 -0.4017857,-0.0167411 -0.6026786,-0.0167411 L 4.2671652,-2.7278125 Z m 0,0"
       style="fill:#000000;fill-opacity:1;fill-rule:nonzero;stroke:none"
       aria-label="Y"
       transform="matrix(0.93333333,0,0,0.93333333,2087.572,409.90533)" />
    <path
       id="path248"
       d="m 4.0699665,-2.2937723 h 2.7790179 c 0.1506696,0 0.3348214,0 0.3348214,-0.2008929 0,-0.2008928 -0.1841518,-0.2008928 -0.3348214,-0.2008928 H 4.0699665 v -2.7790179 c 0,-0.1506696 0,-0.3348214 -0.2008928,-0.3348214 -0.1841518,0 -0.1841518,0.1841518 -0.1841518,0.3348214 V -2.695558 H 0.88916295 c -0.13392857,0 -0.33482143,0 -0.33482143,0.2008928 0,0.2008929 0.20089286,0.2008929 0.33482143,0.2008929 H 3.6849219 v 2.79575891 c 0,0.13392857 0,0.31808035 0.1841518,0.31808035 0.2008928,0 0.2008928,-0.18415178 0.2008928,-0.31808035 z m 0,0"
       style="fill:#000000;fill-opacity:1;fill-rule:nonzero;stroke:none"
       aria-label="+"
       transform="matrix(0.93333333,0,0,0.93333333,1969.8693,382.39867)" />
    <path
       id="path249"
       d="m 6.5643862,-2.2935045 c 0.1674107,0 0.3515625,0 0.3515625,-0.2008928 0,-0.2008929 -0.1841518,-0.2008929 -0.3515625,-0.2008929 h -5.390625 c -0.1674108,0 -0.35156254,0 -0.35156254,0.2008929 0,0.2008928 0.18415174,0.2008928 0.35156254,0.2008928 z m 0,0"
       style="fill:#000000;fill-opacity:1;fill-rule:nonzero;stroke:none"
       aria-label="−"
       transform="matrix(0.93333333,0,0,0.93333333,1969.8693,438.05467)" />
    <g
       id="g249"
       aria-label="V&#10;S"
       transform="matrix(0.93333333,0,0,0.93333333,1966.4533,410.39467)">
      <path
         id="path250"
         d="m 7.5667411,-5.9599665 c 0.1506696,-0.2176339 0.2678571,-0.4017857 0.954241,-0.4017857 0.1171875,0 0.3013393,0 0.3013393,-0.2845982 0,-0.066964 -0.050223,-0.1841518 -0.1841518,-0.1841518 -0.2845982,0 -0.6026785,0.033482 -0.9040178,0.033482 -0.3683036,0 -0.7533482,-0.033482 -1.1049107,-0.033482 -0.066964,0 -0.2678572,0 -0.2678572,0.2845982 0,0.1841518 0.1674107,0.1841518 0.2678572,0.1841518 0.050223,0 0.3348214,0 0.5524553,0.1004464 l -3.28125,4.7712054 -0.8872768,-4.6540179 c 0,-0.033482 -0.016741,-0.1171875 -0.016741,-0.1339286 0,-0.083705 0.5357143,-0.083705 0.6026785,-0.083705 0.217634,0 0.3850447,0 0.3850447,-0.2845982 0,-0.1339286 -0.1004464,-0.1841518 -0.2176339,-0.1841518 -0.2511161,0 -0.5022322,0.016741 -0.7533483,0.016741 -0.251116,0 -0.485491,0.016741 -0.7366071,0.016741 -0.2176339,0 -0.4520089,-0.016741 -0.6863839,-0.016741 -0.217634,0 -0.452009,-0.016741 -0.65290181,-0.016741 -0.0837054,0 -0.28459822,0 -0.28459822,0.2845982 0,0.1841518 0.16741072,0.1841518 0.36830353,0.1841518 0.1339286,0 0.2511161,0 0.3850447,0 0.1171875,0.016741 0.1339286,0.033482 0.1506696,0.2008928 l 1.1383929,6.04352681 c 0.050223,0.28459821 0.1674107,0.28459821 0.3515625,0.28459821 0.2845982,0 0.3348214,-0.0669643 0.4520089,-0.25111607 z m 0,0"
         style="fill:#000000;fill-opacity:1;fill-rule:nonzero;stroke:none" />
      <path
         id="path251"
         d="m 14.254799,-3.327433 c 0,-0.033482 -0.01674,-0.083705 -0.08371,-0.083705 -0.05022,0 -0.05022,0 -0.15067,0.1004464 l -0.334821,0.3850447 c -0.267857,-0.3683036 -0.703125,-0.4854911 -1.138393,-0.4854911 -0.970982,0 -1.858259,0.7868304 -1.858259,1.5904018 0,0.1171875 0.03348,0.3850446 0.234375,0.6529018 0.234375,0.26785712 0.502232,0.33482141 0.970982,0.45200891 0.133929,0.0334821 0.485491,0.10044643 0.602679,0.13392857 0.217634,0.0502232 0.63616,0.21763393 0.63616,0.73660714 0,0.56919643 -0.585937,1.22209818 -1.389509,1.22209818 -0.602678,0 -1.356026,-0.2176339 -1.356026,-0.98772318 0,-0.0669643 0.01674,-0.21763393 0.05022,-0.3515625 0,-0.01674107 0,-0.03348214 0,-0.03348214 0,-0.10044643 -0.08371,-0.10044643 -0.100447,-0.10044643 -0.100446,0 -0.117187,0.01674107 -0.133928,0.15066964 L 9.8518973,1.4437723 c -0.016741,0.033482 -0.033482,0.066964 -0.033482,0.1004464 0,0.050223 0.033482,0.083705 0.1004464,0.083705 0.050223,0 0.050223,0 0.1339283,-0.083705 0.08371,-0.1004464 0.267857,-0.3180803 0.334822,-0.4017857 0.385044,0.4017857 0.920759,0.4854911 1.339285,0.4854911 1.054688,0 1.908482,-0.90401785 1.908482,-1.72433035 0,-0.30133929 -0.133928,-0.5859375 -0.284598,-0.75334821 -0.234375,-0.25111604 -0.351562,-0.26785714 -1.238839,-0.48549104 -0.15067,-0.033482 -0.385045,-0.083705 -0.452009,-0.1171875 -0.167411,-0.050223 -0.46875,-0.234375 -0.46875,-0.6361608 0,-0.5357142 0.636161,-1.1049107 1.356027,-1.1049107 0.753348,0 1.121652,0.4352679 1.121652,1.0881697 0,0.1004464 -0.03348,0.251116 -0.03348,0.3180803 0,0.1004465 0.08371,0.1004465 0.117188,0.1004465 0.100446,0 0.117187,-0.033482 0.133929,-0.1506697 z m 0,0"
         style="fill:#000000;fill-opacity:1;fill-rule:nonzero;stroke:none" />
    </g>
    <path
       id="path252"
       d="m 4.0685045,-2.2937723 h 2.7790178 c 0.1506697,0 0.3348215,0 0.3348215,-0.2008929 0,-0.2008928 -0.1841518,-0.2008928 -0.3348215,-0.2008928 H 4.0685045 v -2.7790179 c 0,-0.1506696 0,-0.3348214 -0.2008929,-0.3348214 -0.1841518,0 -0.1841518,0.1841518 -0.1841518,0.3348214 V -2.695558 H 0.88770089 c -0.13392857,0 -0.33482143,0 -0.33482143,0.2008928 0,0.2008929 0.20089286,0.2008929 0.33482143,0.2008929 H 3.6834598 v 2.79575891 c 0,0.13392857 0,0.31808035 0.1841518,0.31808035 0.2008929,0 0.2008929,-0.18415178 0.2008929,-0.31808035 z m 0,0"
       style="fill:#000000;fill-opacity:1;fill-rule:nonzero;stroke:none"
       aria-label="+"
       transform="matrix(0.93333333,0,0,0.93333333,2181.5387,382.39867)" />
    <path
       id="path253"
       d="m 6.5629241,-2.2935045 c 0.1674107,0 0.3515625,0 0.3515625,-0.2008928 0,-0.2008929 -0.1841518,-0.2008929 -0.3515625,-0.2008929 h -5.390625 c -0.1674107,0 -0.35156249,0 -0.35156249,0.2008929 0,0.2008928 0.18415179,0.2008928 0.35156249,0.2008928 z m 0,0"
       style="fill:#000000;fill-opacity:1;fill-rule:nonzero;stroke:none"
       aria-label="−"
       transform="matrix(0.93333333,0,0,0.93333333,2181.5387,438.05467)" />
    <g
       id="g253"
       aria-label="V&#10;R"
       transform="matrix(0.93333333,0,0,0.93333333,2177.7653,410.39467)">
      <path
         id="path254"
         d="m 7.5672768,-5.9599665 c 0.1506696,-0.2176339 0.2678571,-0.4017857 0.9542411,-0.4017857 0.1171875,0 0.3013392,0 0.3013392,-0.2845982 0,-0.066964 -0.050223,-0.1841518 -0.1841517,-0.1841518 -0.2845983,0 -0.6026786,0.033482 -0.9040179,0.033482 -0.3683036,0 -0.7533482,-0.033482 -1.1049107,-0.033482 -0.066964,0 -0.2678572,0 -0.2678572,0.2845982 0,0.1841518 0.1674108,0.1841518 0.2678572,0.1841518 0.050223,0 0.3348214,0 0.5524553,0.1004464 l -3.28125,4.7712054 -0.8872767,-4.6540179 c 0,-0.033482 -0.016741,-0.1171875 -0.016741,-0.1339286 0,-0.083705 0.5357143,-0.083705 0.6026786,-0.083705 0.2176339,0 0.3850446,0 0.3850446,-0.2845982 0,-0.1339286 -0.1004464,-0.1841518 -0.2176339,-0.1841518 -0.2511161,0 -0.5022322,0.016741 -0.7533482,0.016741 -0.2511161,0 -0.4854911,0.016741 -0.7366072,0.016741 -0.2176339,0 -0.4520089,-0.016741 -0.6863839,-0.016741 -0.2176339,0 -0.4520089,-0.016741 -0.6529018,-0.016741 -0.0837054,0 -0.28459821,0 -0.28459821,0.2845982 0,0.1841518 0.16741071,0.1841518 0.36830361,0.1841518 0.1339285,0 0.251116,0 0.3850446,0 0.1171875,0.016741 0.1339286,0.033482 0.1506696,0.2008928 l 1.1383929,6.04352681 c 0.050223,0.28459821 0.1674107,0.28459821 0.3515625,0.28459821 0.2845982,0 0.3348214,-0.0669643 0.4520089,-0.25111607 z m 0,0"
         style="fill:#000000;fill-opacity:1;fill-rule:nonzero;stroke:none" />
      <path
         id="path255"
         d="m 12.179442,-2.7917188 c 0.05022,-0.1841517 0.06696,-0.2176339 0.217634,-0.234375 h 0.452009 c 0.652902,0 1.456473,0 1.456473,0.7198661 0,0.2845982 -0.133929,0.7366072 -0.46875,0.9877232 -0.284598,0.217634 -0.719866,0.33482146 -1.205357,0.33482146 h -0.887277 z m 1.272321,1.90848219 c 0.820313,-0.18415179 1.573661,-0.68638389 1.573661,-1.32254469 0,-0.5859375 -0.719866,-1.0714285 -1.72433,-1.0714285 h -2.142857 c -0.133929,0 -0.234375,0 -0.234375,0.1506696 0,0.1004464 0.08371,0.1004464 0.234375,0.1004464 0,0 0.133928,0 0.251116,0.016741 0.150669,0.016741 0.16741,0.033482 0.16741,0.1004464 0,0.016741 0,0.050223 -0.03348,0.1506697 l -0.920759,3.69977678 c -0.06696,0.25111602 -0.06696,0.30133932 -0.619419,0.30133932 -0.1171878,0 -0.2008932,0 -0.2008932,0.1506696 0,0.066964 0.050223,0.1004464 0.1004465,0.1004464 0.1339287,0 0.3013397,-0.016741 0.4352677,-0.016741 0.133929,0 0.334822,-0.016741 0.46875,-0.016741 0.133929,0 0.301339,0.016741 0.435268,0.016741 0.15067,0 0.334821,0.016741 0.46875,0.016741 0.03348,0 0.15067,0 0.15067,-0.1506696 0,-0.1004464 -0.06696,-0.1004464 -0.234375,-0.1004464 -0.100447,0 -0.133929,0 -0.267858,-0.016741 C 11.20846,1.2093973 11.20846,1.1926562 11.20846,1.125692 c 0,-0.016741 0,-0.050223 0.03348,-0.15066968 l 0.435268,-1.77455357 h 0.954241 c 0.602678,0 0.853795,0.30133929 0.853795,0.63616071 0,0.08370536 -0.06696,0.31808036 -0.100447,0.48549108 -0.0837,0.31808035 -0.100446,0.41852678 -0.100446,0.53571428 0,0.55245538 0.502232,0.77008928 1.021205,0.77008928 0.636161,0 0.920759,-0.68638392 0.920759,-0.80357142 0,-0.0167411 -0.01674,-0.10044643 -0.117188,-0.10044643 -0.08371,0 -0.100446,0.0502232 -0.133928,0.1171875 -0.08371,0.31808035 -0.351563,0.60267855 -0.636161,0.60267855 -0.184152,0 -0.31808,-0.083705 -0.31808,-0.45200891 0,-0.18415178 0.03348,-0.55245535 0.06696,-0.73660714 0.03348,-0.18415179 0.03348,-0.25111607 0.03348,-0.31808036 0,-0.08370535 0,-0.31808035 -0.200893,-0.51897321 -0.133928,-0.15066964 -0.31808,-0.234375 -0.46875,-0.30133929 z m 0,0"
         style="fill:#000000;fill-opacity:1;fill-rule:nonzero;stroke:none" />
    </g>
  </g>
</svg>
