<?xml version="1.0" encoding="UTF-8" standalone="no"?>
<!-- Created with Inkscape (http://www.inkscape.org/) -->

<svg
   version="1.1"
   id="svg1"
   width="224.91406"
   height="106.35895"
   viewBox="0 0 224.91406 106.35895"
   sodipodi:docname="CircuiTikz (9).pdf"
   xmlns:inkscape="http://www.inkscape.org/namespaces/inkscape"
   xmlns:sodipodi="http://sodipodi.sourceforge.net/DTD/sodipodi-0.dtd"
   xmlns="http://www.w3.org/2000/svg"
   xmlns:svg="http://www.w3.org/2000/svg">
  <defs
     id="defs1" />
  <sodipodi:namedview
     id="namedview1"
     pagecolor="#ffffff"
     bordercolor="#000000"
     borderopacity="0.25"
     inkscape:showpageshadow="2"
     inkscape:pageopacity="0.0"
     inkscape:pagecheckerboard="0"
     inkscape:deskcolor="#d1d1d1">
    <inkscape:page
       x="-6.0127131e-06"
       y="-1.0530879e-05"
       width="224.91406"
       height="106.35895"
       id="page2"
       margin="0"
       bleed="0" />
  </sodipodi:namedview>
  <g
     id="g100"
     inkscape:groupmode="layer"
     inkscape:label="2"
     transform="translate(-1131.0625,-498.66718)">
    <path
       id="path147"
       d="m 0,0 h 19.84337 m 0,0 h 19.84198"
       style="fill:none;stroke:#000000;stroke-width:0.3985;stroke-linecap:butt;stroke-linejoin:miter;stroke-miterlimit:10;stroke-dasharray:none;stroke-opacity:1"
       transform="matrix(1.3333333,0,0,-1.3333333,1137.4853,591.532)" />
    <path
       id="path148"
       d="M 1.11098,0 C 1.11098,0.61357 0.61357,1.11098 0,1.11098 -0.61357,1.11098 -1.11098,0.61357 -1.11098,0 c 0,-0.61357 0.49741,-1.11098 1.11098,-1.11098 0.61357,0 1.11098,0.49741 1.11098,1.11098 z"
       style="fill:#000000;fill-opacity:1;fill-rule:nonzero;stroke:#000000;stroke-width:0.3985;stroke-linecap:butt;stroke-linejoin:miter;stroke-miterlimit:10;stroke-dasharray:none;stroke-opacity:1"
       transform="matrix(1.3333333,0,0,-1.3333333,1137.4853,591.532)" />
    <path
       id="path149"
       d="m 0,59.52802 19.84337,0.0022 m 0,0 19.84198,-0.0022"
       style="fill:none;stroke:#000000;stroke-width:0.3985;stroke-linecap:butt;stroke-linejoin:miter;stroke-miterlimit:10;stroke-dasharray:none;stroke-opacity:1"
       transform="matrix(1.3333333,0,0,-1.3333333,1137.4853,591.532)" />
    <path
       id="path150"
       d="M 1.11098,59.52802 C 1.11098,60.1416 0.61357,60.639 0,60.639 c -0.61357,0 -1.11098,-0.4974 -1.11098,-1.11098 0,-0.61358 0.49741,-1.111 1.11098,-1.111 0.61357,0 1.11098,0.49742 1.11098,1.111 z"
       style="fill:#000000;fill-opacity:1;fill-rule:nonzero;stroke:#000000;stroke-width:0.3985;stroke-linecap:butt;stroke-linejoin:miter;stroke-miterlimit:10;stroke-dasharray:none;stroke-opacity:1"
       transform="matrix(1.3333333,0,0,-1.3333333,1137.4853,591.532)" />
    <path
       id="path151"
       d="m 18.62804,59.53018 v -1.38896 l 2.95155,1.38896 -2.95155,1.38896 z"
       style="fill:#000000;fill-opacity:1;fill-rule:nonzero;stroke:#000000;stroke-width:0.3985;stroke-linecap:butt;stroke-linejoin:miter;stroke-miterlimit:10;stroke-dasharray:none;stroke-opacity:1"
       transform="matrix(1.3333333,0,0,-1.3333333,1137.4853,591.532)" />
    <g
       id="g151"
       aria-label="I&#10;S"
       transform="matrix(0.93333333,0,0,0.93333333,1158.512,507.47867)">
      <path
         id="path152"
         d="m 4.3858594,-6.1587835 c 0.050223,-0.1674107 0.050223,-0.1674107 0.251116,-0.2008928 0.1506697,0 0.2845983,0 0.4352679,0 h 0.2008929 c 0.2176339,0 0.2176339,-0.016741 0.2678571,-0.050223 0.066964,-0.050223 0.1004464,-0.1841517 0.1004464,-0.234375 0,-0.1339285 -0.1004464,-0.1841517 -0.2176339,-0.1841517 -0.2511161,0 -0.5189732,0.016741 -0.7700893,0.016741 -0.2511161,0 -0.5189732,0.016741 -0.7868303,0.016741 -0.2845983,0 -0.5524554,-0.016741 -0.8370536,-0.016741 -0.2511161,0 -0.5189732,-0.016741 -0.7700893,-0.016741 -0.1004464,0 -0.2845982,0 -0.2845982,0.2845982 0,0.1841518 0.1506696,0.1841518 0.3348214,0.1841518 h 0.2176339 c 0.083705,0 0.3180804,0 0.5189733,0.016741 l -1.4229911,5.67522325 c -0.033482,0.16741071 -0.050223,0.16741071 -0.234375,0.18415178 -0.1171875,0.0167411 -0.3013393,0.0167411 -0.43526787,0.0167411 H 0.75304688 c -0.20089286,0 -0.36830358,0 -0.36830358,0.28459822 0,0.13392857 0.10044643,0.18415178 0.21763393,0.18415178 0.25111607,0 0.50223217,-0.01674107 0.75334817,-0.01674107 0.2678572,0 0.5357143,-0.01674107 0.8035715,-0.01674107 0.2845982,0 0.5524553,0.01674107 0.8370535,0.01674107 0.2511161,0 0.5022322,0.01674107 0.7533483,0.01674107 0.1004464,0 0.3013392,0 0.3013392,-0.28459821 0,-0.18415179 -0.1674107,-0.18415179 -0.3348214,-0.18415179 H 3.4985826 c -0.066964,0 -0.3850447,-0.0167411 -0.5189732,-0.0167411 z m 0,0"
         style="fill:#000000;fill-opacity:1;fill-rule:nonzero;stroke:none" />
      <path
         id="path153"
         d="m 10.822801,-3.3253571 c 0,-0.033482 -0.01674,-0.083705 -0.08371,-0.083705 -0.05022,0 -0.05022,0 -0.15067,0.1004464 L 10.2536,-2.923571 C 9.9857478,-3.291875 9.5504799,-3.4090625 9.1152121,-3.4090625 c -0.9709822,0 -1.858259,0.7868304 -1.858259,1.5904018 0,0.1171875 0.033482,0.3850446 0.234375,0.6529018 0.234375,0.26785711 0.5022322,0.3348214 0.9709822,0.4520089 0.1339285,0.0334821 0.485491,0.10044643 0.6026785,0.13392857 0.217634,0.0502232 0.6361608,0.21763393 0.6361608,0.73660714 0,0.56919643 -0.5859375,1.22209819 -1.389509,1.22209819 -0.6026785,0 -1.3560268,-0.2176339 -1.3560268,-0.98772319 0,-0.0669643 0.016741,-0.21763392 0.050223,-0.3515625 0,-0.01674107 0,-0.03348214 0,-0.03348214 0,-0.10044643 -0.083705,-0.10044643 -0.1004465,-0.10044643 -0.1004464,0 -0.1171875,0.01674107 -0.1339285,0.15066965 L 6.4198996,1.4458482 c -0.016741,0.033482 -0.033482,0.066964 -0.033482,0.1004464 0,0.050223 0.033482,0.083705 0.1004464,0.083705 0.050223,0 0.050223,0 0.1339286,-0.083705 C 6.7044978,1.4458482 6.8886496,1.2282143 6.9556138,1.1445089 7.3406585,1.5462946 7.8763728,1.63 8.2948996,1.63 c 1.0546875,0 1.9084824,-0.90401786 1.9084824,-1.72433036 0,-0.30133928 -0.133929,-0.5859375 -0.2845985,-0.75334821 C 9.6844085,-1.0987946 9.567221,-1.1155357 8.6799442,-1.3331696 8.5292746,-1.3666518 8.2948996,-1.416875 8.2279353,-1.4503571 c -0.1674107,-0.050223 -0.46875,-0.234375 -0.46875,-0.6361608 0,-0.5357142 0.6361607,-1.1049107 1.3560268,-1.1049107 0.7533482,0 1.1216519,0.4352679 1.1216519,1.0881697 0,0.1004464 -0.03348,0.251116 -0.03348,0.3180803 0,0.1004465 0.08371,0.1004465 0.117187,0.1004465 0.100447,0 0.117188,-0.033482 0.133929,-0.1506697 z m 0,0"
         style="fill:#000000;fill-opacity:1;fill-rule:nonzero;stroke:none" />
    </g>
    <path
       id="path154"
       d="m 39.68535,69.44937 v -79.3707 h 79.37071 v 79.3707 z"
       style="fill:none;stroke:#000000;stroke-width:0.3985;stroke-linecap:butt;stroke-linejoin:miter;stroke-miterlimit:10;stroke-dasharray:none;stroke-opacity:1"
       transform="matrix(1.3333333,0,0,-1.3333333,1137.4853,591.532)" />
    <path
       id="path155"
       d="m 2.026808,-1.3223772 c -0.4185267,0.70312497 -0.8203125,0.93749997 -1.38950889,0.97098211 -0.13392857,0.0167411 -0.234375,0.0167411 -0.234375,0.234375 0,0.06696429 0.0669643,0.11718750071 0.15066964,0.11718750071 0.21763393,0 0.75334825,-0.0167410707 0.97098215,-0.0167410707 0.3348214,0 0.7198661,0.0167410707 1.0546875,0.0167410707 0.083705,0 0.2176339,0 0.2176339,-0.23437500071 0,-0.10044643 -0.1004464,-0.1171875 -0.1674107,-0.1171875 -0.2678571,-0.0167411 -0.5022321,-0.1171875 -0.5022321,-0.40178571 0,-0.16741072 0.066964,-0.3013393 0.234375,-0.5691964 l 0.9040178,-1.5066965 h 3.046875 c 0.016741,0.1171875 0.016741,0.217634 0.016741,0.3180804 0.050223,0.3180804 0.1841518,1.55691964 0.1841518,1.77455357 0,0.36830357 -0.6026786,0.38504464 -0.8035714,0.38504464 -0.1339286,0 -0.2511161,0 -0.2511161,0.21763393 0,0.13392857071 0.1004464,0.13392857071 0.1674107,0.13392857071 0.2008929,0 0.4520089,-0.0167410707 0.6529018,-0.0167410707 H 6.965424 c 0.7198661,0 1.2555804,0.0167410707 1.2555804,0.0167410707 0.083705,0 0.2176339,0 0.2176339,-0.23437500071 0,-0.1171875 -0.1004464,-0.1171875 -0.2845982,-0.1171875 -0.6529018,0 -0.6696429,-0.10044643 -0.703125,-0.46875 L 6.714308,-8.2699219 C 6.697567,-8.5042969 6.6473438,-8.537779 6.5134152,-8.537779 c -0.1171875,0 -0.1841518,0.033482 -0.3013393,0.2008928 z m 1.4397322,-1.8415179 2.4107143,-4.0178571 0.4017857,4.0178571 z m 9.6763388,-4.1852678 c 0.117188,-0.452009 0.167411,-0.46875 0.61942,-0.46875 h 1.55692 c 1.356027,0 1.356027,1.1551339 1.356027,1.2555803 0,0.9709822 -0.970983,2.1930804 -2.544643,2.1930804 h -1.724331 z m 2.02567,3.0803571 c 1.305804,-0.234375 2.49442,-1.1383929 2.49442,-2.2433036 0,-0.9375 -0.837054,-1.657366 -2.17634,-1.657366 h -3.850446 c -0.217634,0 -0.334821,0 -0.334821,0.234375 0,0.1171875 0.117187,0.1171875 0.301339,0.1171875 0.719866,0 0.719866,0.1004464 0.719866,0.234375 0,0.016741 0,0.083705 -0.05022,0.2678571 l -1.607143,6.42857142 c -0.117188,0.41852679 -0.133929,0.53571429 -0.9709822,0.53571429 -0.234375,0 -0.3515625,0 -0.3515625,0.21763393 0,0.13392857071 0.083705,0.13392857071 0.3180803,0.13392857071 h 4.1015624 c 1.824777,0 3.231027,-1.38950891071 3.231027,-2.59486611071 0,-0.9709821 -0.853795,-1.5736607 -1.824777,-1.6741071 z m -1.690848,3.91741071 h -1.623884 c -0.167411,0 -0.184152,0 -0.251116,0 -0.133929,-0.0167411 -0.15067,-0.0502232 -0.15067,-0.13392857 0,-0.0837054 0.01674,-0.16741072 0.05022,-0.26785714 l 0.837054,-3.3649554 h 2.243304 c 1.40625,0 1.40625,1.3058036 1.40625,1.40625 0,1.1383929 -1.037947,2.36049111 -2.511161,2.36049111 z M 27.188638,-8.303404 c 0,-0.1171875 -0.08371,-0.1171875 -0.100446,-0.1171875 -0.01674,0 -0.06696,0 -0.167411,0.1171875 l -0.820312,1.0044643 c -0.418527,-0.703125 -1.08817,-1.1216518 -1.975447,-1.1216518 -2.578125,0 -5.256696,2.6283482 -5.256696,5.4241071 0,2.0089286 1.389509,3.24776788 3.13058,3.24776788 0.970982,0 1.808036,-0.40178571 2.49442,-0.98772321 1.037946,-0.87053567 1.356027,-2.04241067 1.356027,-2.12611607 0,-0.1171875 -0.100447,-0.1171875 -0.133929,-0.1171875 -0.117187,0 -0.117187,0.066964 -0.15067,0.1171875 -0.552455,1.875 -2.159598,2.76227678 -3.348214,2.76227678 -1.272321,0 -2.377232,-0.80357143 -2.377232,-2.51116068 0,-0.3850447 0.117188,-2.4609375 1.473214,-4.0178572 0.652902,-0.7700893 1.774554,-1.4397321 2.912947,-1.4397321 1.322544,0 1.908482,1.0881696 1.908482,2.3102678 0,0.3013393 -0.03348,0.5691965 -0.03348,0.6194197 0,0.1004464 0.117187,0.1004464 0.150669,0.1004464 0.133929,0 0.15067,0 0.184152,-0.2176339 z m 2.188895,7.41629462 c -0.100446,0.41852679 -0.133928,0.53571429 -0.970982,0.53571429 -0.217634,0 -0.334821,0 -0.334821,0.21763393 0,0.13392857071 0.06696,0.13392857071 0.301339,0.13392857071 h 3.783482 c 2.427456,0 4.771206,-2.49441961071 4.771206,-5.15625001071 0,-1.7243303 -1.021206,-3.0133928 -2.728795,-3.0133928 h -3.833705 c -0.234375,0 -0.334822,0 -0.334822,0.234375 0,0.1171875 0.100447,0.1171875 0.284598,0.1171875 0.719867,0 0.719867,0.1004464 0.719867,0.234375 0,0.016741 0,0.083705 -0.05022,0.2678571 z m 2.527902,-6.46205352 c 0.100447,-0.452009 0.15067,-0.46875 0.61942,-0.46875 h 1.305803 c 1.138393,0 2.159599,0.6026785 2.159599,2.2600446 0,0.6026786 -0.234375,2.6785714 -1.40625,3.984375 -0.334822,0.4017857 -1.23884,1.22209821 -2.611607,1.22209821 h -1.356027 c -0.167411,0 -0.200893,0 -0.267857,0 -0.133929,-0.0167411 -0.15067,-0.0502232 -0.15067,-0.13392857 0,-0.0837054 0.03348,-0.16741072 0.05022,-0.26785714 z m 0,0"
       style="fill:#000000;fill-opacity:1;fill-rule:nonzero;stroke:none"
       aria-label="ABCD"
       transform="matrix(0.93333333,0,0,0.93333333,1225.788,555.66)" />
    <path
       id="path156"
       d="m 119.05606,0 h 19.84779 m 0,0 h 19.83757"
       style="fill:none;stroke:#000000;stroke-width:0.3985;stroke-linecap:butt;stroke-linejoin:miter;stroke-miterlimit:10;stroke-dasharray:none;stroke-opacity:1"
       transform="matrix(1.3333333,0,0,-1.3333333,1137.4853,591.532)" />
    <path
       id="path157"
       d="m 159.85242,0 c 0,0.61357 -0.49741,1.11098 -1.111,1.11098 -0.61358,0 -1.11099,-0.49741 -1.11099,-1.11098 0,-0.61357 0.49741,-1.11098 1.11099,-1.11098 0.61359,0 1.111,0.49741 1.111,1.11098 z"
       style="fill:#000000;fill-opacity:1;fill-rule:nonzero;stroke:#000000;stroke-width:0.3985;stroke-linecap:butt;stroke-linejoin:miter;stroke-miterlimit:10;stroke-dasharray:none;stroke-opacity:1"
       transform="matrix(1.3333333,0,0,-1.3333333,1137.4853,591.532)" />
    <path
       id="path158"
       d="m 119.05606,59.52802 19.84779,0.0022 m 0,0 19.83757,-0.0022"
       style="fill:none;stroke:#000000;stroke-width:0.3985;stroke-linecap:butt;stroke-linejoin:miter;stroke-miterlimit:10;stroke-dasharray:none;stroke-opacity:1"
       transform="matrix(1.3333333,0,0,-1.3333333,1137.4853,591.532)" />
    <path
       id="path159"
       d="m 159.85242,59.52802 c 0,0.61358 -0.49741,1.11098 -1.111,1.11098 -0.61358,0 -1.11099,-0.4974 -1.11099,-1.11098 0,-0.61358 0.49741,-1.111 1.11099,-1.111 0.61359,0 1.111,0.49742 1.111,1.111 z"
       style="fill:#000000;fill-opacity:1;fill-rule:nonzero;stroke:#000000;stroke-width:0.3985;stroke-linecap:butt;stroke-linejoin:miter;stroke-miterlimit:10;stroke-dasharray:none;stroke-opacity:1"
       transform="matrix(1.3333333,0,0,-1.3333333,1137.4853,591.532)" />
    <path
       id="path160"
       d="m 137.68852,59.53018 v -1.38896 l 2.95156,1.38896 -2.95156,1.38896 z"
       style="fill:#000000;fill-opacity:1;fill-rule:nonzero;stroke:#000000;stroke-width:0.3985;stroke-linecap:butt;stroke-linejoin:miter;stroke-miterlimit:10;stroke-dasharray:none;stroke-opacity:1"
       transform="matrix(1.3333333,0,0,-1.3333333,1137.4853,591.532)" />
    <g
       id="g160"
       aria-label="I&#10;R"
       transform="matrix(0.93333333,0,0,0.93333333,1316.904,507.47867)">
      <path
         id="path161"
         d="m 4.3843862,-6.1587835 c 0.050223,-0.1674107 0.050223,-0.1674107 0.251116,-0.2008928 0.1506697,0 0.2845982,0 0.4352679,0 h 0.2008928 c 0.217634,0 0.217634,-0.016741 0.2678572,-0.050223 0.066964,-0.050223 0.1004464,-0.1841517 0.1004464,-0.234375 0,-0.1339285 -0.1004464,-0.1841517 -0.2176339,-0.1841517 -0.2511161,0 -0.5189732,0.016741 -0.7700893,0.016741 -0.2511161,0 -0.5189732,0.016741 -0.7868304,0.016741 -0.2845982,0 -0.5524553,-0.016741 -0.8370535,-0.016741 -0.2511161,0 -0.5189732,-0.016741 -0.7700893,-0.016741 -0.1004464,0 -0.2845982,0 -0.2845982,0.2845982 0,0.1841518 0.1506696,0.1841518 0.3348214,0.1841518 h 0.2176339 c 0.083705,0 0.3180804,0 0.5189732,0.016741 l -1.422991,5.67522325 c -0.033482,0.16741071 -0.050223,0.16741071 -0.234375,0.18415178 -0.1171875,0.0167411 -0.3013393,0.0167411 -0.43526788,0.0167411 H 0.75157366 c -0.20089286,0 -0.36830357,0 -0.36830357,0.28459822 0,0.13392857 0.10044643,0.18415178 0.21763393,0.18415178 0.25111607,0 0.50223218,-0.01674107 0.75334818,-0.01674107 0.2678572,0 0.5357143,-0.01674107 0.8035715,-0.01674107 0.2845982,0 0.5524553,0.01674107 0.8370535,0.01674107 0.2511161,0 0.5022322,0.01674107 0.7533482,0.01674107 0.1004465,0 0.3013393,0 0.3013393,-0.28459821 0,-0.18415179 -0.1674107,-0.18415179 -0.3348214,-0.18415179 H 3.4971094 c -0.066964,0 -0.3850447,-0.0167411 -0.5189732,-0.0167411 z m 0,0"
         style="fill:#000000;fill-opacity:1;fill-rule:nonzero;stroke:none" />
      <path
         id="path162"
         d="m 8.7454353,-2.7896429 c 0.050223,-0.1841517 0.066964,-0.2176339 0.2176339,-0.234375 h 0.4520089 c 0.6529019,0 1.4564729,0 1.4564729,0.7198661 0,0.2845982 -0.133928,0.7366072 -0.46875,0.9877232 -0.284598,0.217634 -0.7198657,0.33482146 -1.2053568,0.33482146 H 8.3101674 Z m 1.2723217,1.90848219 c 0.820312,-0.18415179 1.57366,-0.68638389 1.57366,-1.32254469 0,-0.5859375 -0.719866,-1.0714285 -1.7243299,-1.0714285 H 7.7242299 c -0.1339286,0 -0.234375,0 -0.234375,0.1506696 0,0.1004464 0.083705,0.1004464 0.234375,0.1004464 0,0 0.1339286,0 0.2511161,0.016741 0.1506696,0.016741 0.1674107,0.033482 0.1674107,0.1004464 0,0.016741 0,0.050223 -0.033482,0.1506697 L 7.1885156,0.94361607 C 7.1215513,1.1947321 7.1215513,1.2449554 6.569096,1.2449554 c -0.1171875,0 -0.2008929,0 -0.2008929,0.1506696 0,0.066964 0.050223,0.1004464 0.1004465,0.1004464 0.1339285,0 0.3013392,-0.016741 0.4352678,-0.016741 0.1339286,0 0.3348214,-0.016741 0.46875,-0.016741 0.1339286,0 0.3013393,0.016741 0.4352679,0.016741 0.1506696,0 0.3348214,0.016741 0.46875,0.016741 0.033482,0 0.1506696,0 0.1506696,-0.1506696 0,-0.1004464 -0.066964,-0.1004464 -0.234375,-0.1004464 -0.1004464,0 -0.1339286,0 -0.2678571,-0.016741 C 7.7744531,1.2114734 7.7744531,1.1947324 7.7744531,1.127768 c 0,-0.016741 0,-0.050223 0.033482,-0.15066969 L 8.2432029,-0.79745526 H 9.197444 c 0.6026786,0 0.853795,0.30133929 0.853795,0.63616072 0,0.08370535 -0.066964,0.31808035 -0.1004468,0.48549107 C 9.8670871,0.64227679 9.850346,0.74272321 9.850346,0.85991071 9.850346,1.4123661 10.352578,1.63 10.871551,1.63 c 0.636161,0 0.920759,-0.68638393 0.920759,-0.80357143 0,-0.0167411 -0.01674,-0.10044643 -0.117187,-0.10044643 -0.08371,0 -0.100447,0.0502232 -0.133929,0.1171875 -0.08371,0.31808036 -0.351562,0.60267856 -0.636161,0.60267856 -0.184151,0 -0.31808,-0.083705 -0.31808,-0.45200891 0,-0.18415179 0.03348,-0.55245536 0.06696,-0.73660715 0.03348,-0.18415178 0.03348,-0.25111607 0.03348,-0.31808035 0,-0.08370536 0,-0.31808036 -0.200893,-0.51897322 -0.133929,-0.15066964 -0.318081,-0.234375 -0.46875,-0.30133928 z m 0,0"
         style="fill:#000000;fill-opacity:1;fill-rule:nonzero;stroke:none" />
    </g>
    <path
       id="path163"
       d="m 4.0699665,-2.2951228 h 2.7790179 c 0.1506696,0 0.3348214,0 0.3348214,-0.2008928 0,-0.2008929 -0.1841518,-0.2008929 -0.3348214,-0.2008929 H 4.0699665 v -2.7790178 c 0,-0.1506697 0,-0.3348215 -0.2008928,-0.3348215 -0.1841518,0 -0.1841518,0.1841518 -0.1841518,0.3348215 v 2.7790178 H 0.88916295 c -0.13392857,0 -0.33482143,0 -0.33482143,0.2008929 0,0.2008928 0.20089286,0.2008928 0.33482143,0.2008928 H 3.6849219 v 2.79575896 c 0,0.13392857 0,0.31808036 0.1841518,0.31808036 0.2008928,0 0.2008928,-0.18415179 0.2008928,-0.31808036 z m 0,0"
       style="fill:#000000;fill-opacity:1;fill-rule:nonzero;stroke:none"
       aria-label="+"
       transform="matrix(0.93333333,0,0,0.93333333,1133.8693,526.34133)" />
    <path
       id="path164"
       d="m 6.5643862,-2.2948549 c 0.1674107,0 0.3515625,0 0.3515625,-0.2008929 0,-0.2008928 -0.1841518,-0.2008928 -0.3515625,-0.2008928 h -5.390625 c -0.1674108,0 -0.35156254,0 -0.35156254,0.2008928 0,0.2008929 0.18415174,0.2008929 0.35156254,0.2008929 z m 0,0"
       style="fill:#000000;fill-opacity:1;fill-rule:nonzero;stroke:none"
       aria-label="−"
       transform="matrix(0.93333333,0,0,0.93333333,1133.8693,581.99733)" />
    <g
       id="g164"
       aria-label="V&#10;S"
       transform="matrix(0.93333333,0,0,0.93333333,1130.4533,554.33733)">
      <path
         id="path165"
         d="m 7.5667411,-5.961317 c 0.1506696,-0.2176339 0.2678571,-0.4017857 0.954241,-0.4017857 0.1171875,0 0.3013393,0 0.3013393,-0.2845982 0,-0.066964 -0.050223,-0.1841518 -0.1841518,-0.1841518 -0.2845982,0 -0.6026785,0.033482 -0.9040178,0.033482 -0.3683036,0 -0.7533482,-0.033482 -1.1049107,-0.033482 -0.066964,0 -0.2678572,0 -0.2678572,0.2845982 0,0.1841518 0.1674107,0.1841518 0.2678572,0.1841518 0.050223,0 0.3348214,0 0.5524553,0.1004464 l -3.28125,4.7712054 -0.8872768,-4.6540179 c 0,-0.033482 -0.016741,-0.1171875 -0.016741,-0.1339285 0,-0.083705 0.5357143,-0.083705 0.6026785,-0.083705 0.217634,0 0.3850447,0 0.3850447,-0.2845982 0,-0.1339286 -0.1004464,-0.1841518 -0.2176339,-0.1841518 -0.2511161,0 -0.5022322,0.016741 -0.7533483,0.016741 -0.251116,0 -0.485491,0.016741 -0.7366071,0.016741 -0.2176339,0 -0.4520089,-0.016741 -0.6863839,-0.016741 -0.217634,0 -0.452009,-0.016741 -0.65290181,-0.016741 -0.0837054,0 -0.28459822,0 -0.28459822,0.2845982 0,0.1841518 0.16741072,0.1841518 0.36830353,0.1841518 0.1339286,0 0.2511161,0 0.3850447,0 0.1171875,0.016741 0.1339286,0.033482 0.1506696,0.2008929 l 1.1383929,6.04352676 c 0.050223,0.28459822 0.1674107,0.28459822 0.3515625,0.28459822 0.2845982,0 0.3348214,-0.06696429 0.4520089,-0.25111607 z m 0,0"
         style="fill:#000000;fill-opacity:1;fill-rule:nonzero;stroke:none" />
      <path
         id="path166"
         d="m 14.254799,-3.3287835 c 0,-0.033482 -0.01674,-0.083705 -0.08371,-0.083705 -0.05022,0 -0.05022,0 -0.15067,0.1004464 l -0.334821,0.3850446 c -0.267857,-0.3683035 -0.703125,-0.485491 -1.138393,-0.485491 -0.970982,0 -1.858259,0.7868303 -1.858259,1.5904017 0,0.1171875 0.03348,0.3850447 0.234375,0.6529018 0.234375,0.26785717 0.502232,0.33482146 0.970982,0.45200896 0.133929,0.0334821 0.485491,0.10044643 0.602679,0.13392857 0.217634,0.0502232 0.63616,0.21763393 0.63616,0.73660714 0,0.56919643 -0.585937,1.22209823 -1.389509,1.22209823 -0.602678,0 -1.356026,-0.2176339 -1.356026,-0.98772323 0,-0.0669643 0.01674,-0.21763392 0.05022,-0.3515625 0,-0.01674107 0,-0.03348214 0,-0.03348214 0,-0.10044643 -0.08371,-0.10044643 -0.100447,-0.10044643 -0.100446,0 -0.117187,0.01674107 -0.133928,0.15066965 L 9.8518973,1.4424219 c -0.016741,0.033482 -0.033482,0.066964 -0.033482,0.1004464 0,0.050223 0.033482,0.083705 0.1004464,0.083705 0.050223,0 0.050223,0 0.1339283,-0.083705 0.08371,-0.1004464 0.267857,-0.3180804 0.334822,-0.4017857 0.385044,0.4017857 0.920759,0.4854911 1.339285,0.4854911 1.054688,0 1.908482,-0.9040179 1.908482,-1.7243304 0,-0.30133928 -0.133928,-0.5859375 -0.284598,-0.75334821 C 13.116406,-1.102221 12.999219,-1.1189621 12.111942,-1.336596 c -0.15067,-0.033482 -0.385045,-0.083705 -0.452009,-0.1171875 -0.167411,-0.050223 -0.46875,-0.234375 -0.46875,-0.6361607 0,-0.5357143 0.636161,-1.1049107 1.356027,-1.1049107 0.753348,0 1.121652,0.4352678 1.121652,1.0881696 0,0.1004465 -0.03348,0.2511161 -0.03348,0.3180804 0,0.1004464 0.08371,0.1004464 0.117188,0.1004464 0.100446,0 0.117187,-0.033482 0.133929,-0.1506696 z m 0,0"
         style="fill:#000000;fill-opacity:1;fill-rule:nonzero;stroke:none" />
    </g>
    <path
       id="path167"
       d="m 4.0685045,-2.2951228 h 2.7790178 c 0.1506697,0 0.3348215,0 0.3348215,-0.2008928 0,-0.2008929 -0.1841518,-0.2008929 -0.3348215,-0.2008929 H 4.0685045 v -2.7790178 c 0,-0.1506697 0,-0.3348215 -0.2008929,-0.3348215 -0.1841518,0 -0.1841518,0.1841518 -0.1841518,0.3348215 v 2.7790178 H 0.88770089 c -0.13392857,0 -0.33482143,0 -0.33482143,0.2008929 0,0.2008928 0.20089286,0.2008928 0.33482143,0.2008928 H 3.6834598 v 2.79575896 c 0,0.13392857 0,0.31808036 0.1841518,0.31808036 0.2008929,0 0.2008929,-0.18415179 0.2008929,-0.31808036 z m 0,0"
       style="fill:#000000;fill-opacity:1;fill-rule:nonzero;stroke:none"
       aria-label="+"
       transform="matrix(0.93333333,0,0,0.93333333,1345.5387,526.34133)" />
    <path
       id="path168"
       d="m 6.5629241,-2.2948549 c 0.1674107,0 0.3515625,0 0.3515625,-0.2008929 0,-0.2008928 -0.1841518,-0.2008928 -0.3515625,-0.2008928 h -5.390625 c -0.1674107,0 -0.35156249,0 -0.35156249,0.2008928 0,0.2008929 0.18415179,0.2008929 0.35156249,0.2008929 z m 0,0"
       style="fill:#000000;fill-opacity:1;fill-rule:nonzero;stroke:none"
       aria-label="−"
       transform="matrix(0.93333333,0,0,0.93333333,1345.5387,581.99733)" />
    <g
       id="g168"
       aria-label="V&#10;R"
       transform="matrix(0.93333333,0,0,0.93333333,1341.7653,554.33733)">
      <path
         id="path169"
         d="m 7.5672768,-5.961317 c 0.1506696,-0.2176339 0.2678571,-0.4017857 0.9542411,-0.4017857 0.1171875,0 0.3013392,0 0.3013392,-0.2845982 0,-0.066964 -0.050223,-0.1841518 -0.1841517,-0.1841518 -0.2845983,0 -0.6026786,0.033482 -0.9040179,0.033482 -0.3683036,0 -0.7533482,-0.033482 -1.1049107,-0.033482 -0.066964,0 -0.2678572,0 -0.2678572,0.2845982 0,0.1841518 0.1674108,0.1841518 0.2678572,0.1841518 0.050223,0 0.3348214,0 0.5524553,0.1004464 l -3.28125,4.7712054 -0.8872767,-4.6540179 c 0,-0.033482 -0.016741,-0.1171875 -0.016741,-0.1339285 0,-0.083705 0.5357143,-0.083705 0.6026786,-0.083705 0.2176339,0 0.3850446,0 0.3850446,-0.2845982 0,-0.1339286 -0.1004464,-0.1841518 -0.2176339,-0.1841518 -0.2511161,0 -0.5022322,0.016741 -0.7533482,0.016741 -0.2511161,0 -0.4854911,0.016741 -0.7366072,0.016741 -0.2176339,0 -0.4520089,-0.016741 -0.6863839,-0.016741 -0.2176339,0 -0.4520089,-0.016741 -0.6529018,-0.016741 -0.0837054,0 -0.28459821,0 -0.28459821,0.2845982 0,0.1841518 0.16741071,0.1841518 0.36830361,0.1841518 0.1339285,0 0.251116,0 0.3850446,0 0.1171875,0.016741 0.1339286,0.033482 0.1506696,0.2008929 l 1.1383929,6.04352676 c 0.050223,0.28459822 0.1674107,0.28459822 0.3515625,0.28459822 0.2845982,0 0.3348214,-0.06696429 0.4520089,-0.25111607 z m 0,0"
         style="fill:#000000;fill-opacity:1;fill-rule:nonzero;stroke:none" />
      <path
         id="path170"
         d="m 12.179442,-2.7930692 c 0.05022,-0.1841518 0.06696,-0.2176339 0.217634,-0.234375 h 0.452009 c 0.652902,0 1.456473,0 1.456473,0.7198661 0,0.2845982 -0.133929,0.7366071 -0.46875,0.9877232 -0.284598,0.2176339 -0.719866,0.33482142 -1.205357,0.33482142 h -0.887277 z m 1.272321,1.90848215 c 0.820313,-0.18415175 1.573661,-0.68638395 1.573661,-1.32254465 0,-0.5859375 -0.719866,-1.0714286 -1.72433,-1.0714286 h -2.142857 c -0.133929,0 -0.234375,0 -0.234375,0.1506697 0,0.1004464 0.08371,0.1004464 0.234375,0.1004464 0,0 0.133928,0 0.251116,0.016741 0.150669,0.016741 0.16741,0.033482 0.16741,0.1004464 0,0.016741 0,0.050223 -0.03348,0.1506696 L 10.622522,0.94018973 C 10.555558,1.1913058 10.555558,1.241529 10.003103,1.241529 c -0.1171878,0 -0.2008932,0 -0.2008932,0.1506697 0,0.066964 0.050223,0.1004464 0.1004465,0.1004464 0.1339287,0 0.3013397,-0.016741 0.4352677,-0.016741 0.133929,0 0.334822,-0.016741 0.46875,-0.016741 0.133929,0 0.301339,0.016741 0.435268,0.016741 0.15067,0 0.334821,0.016741 0.46875,0.016741 0.03348,0 0.15067,0 0.15067,-0.1506697 0,-0.1004464 -0.06696,-0.1004464 -0.234375,-0.1004464 -0.100447,0 -0.133929,0 -0.267858,-0.016741 C 11.20846,1.208047 11.20846,1.191306 11.20846,1.1243416 c 0,-0.016741 0,-0.050223 0.03348,-0.15066963 l 0.43527,-1.77455367 h 0.954241 c 0.602678,0 0.853795,0.30133929 0.853795,0.63616072 0,0.08370535 -0.06696,0.31808035 -0.100447,0.48549107 -0.0837,0.31808036 -0.100446,0.41852678 -0.100446,0.53571428 0,0.55245533 0.502232,0.77008933 1.021205,0.77008933 0.636161,0 0.920759,-0.68638397 0.920759,-0.80357147 0,-0.0167411 -0.01674,-0.10044643 -0.117188,-0.10044643 -0.08371,0 -0.100446,0.0502232 -0.133928,0.1171875 -0.08371,0.3180804 -0.351563,0.6026786 -0.636161,0.6026786 -0.184152,0 -0.31808,-0.083705 -0.31808,-0.45200895 0,-0.18415179 0.03348,-0.55245536 0.06696,-0.73660715 0.03348,-0.18415178 0.03348,-0.25111607 0.03348,-0.31808035 0,-0.08370536 0,-0.31808036 -0.200893,-0.51897322 -0.133928,-0.15066964 -0.31808,-0.234375 -0.46875,-0.30133928 z m 0,0"
         style="fill:#000000;fill-opacity:1;fill-rule:nonzero;stroke:none" />
    </g>
  </g>
</svg>
