<?xml version="1.0" encoding="UTF-8" standalone="no"?>
<!-- Created with Inkscape (http://www.inkscape.org/) -->

<svg
   version="1.1"
   id="svg1"
   width="357.20312"
   height="106.35895"
   viewBox="0 0 357.20312 106.35895"
   sodipodi:docname="CircuiTikz (8).pdf"
   xmlns:inkscape="http://www.inkscape.org/namespaces/inkscape"
   xmlns:sodipodi="http://sodipodi.sourceforge.net/DTD/sodipodi-0.dtd"
   xmlns="http://www.w3.org/2000/svg"
   xmlns:svg="http://www.w3.org/2000/svg">
  <defs
     id="defs1" />
  <sodipodi:namedview
     id="namedview1"
     pagecolor="#ffffff"
     bordercolor="#000000"
     borderopacity="0.25"
     inkscape:showpageshadow="2"
     inkscape:pageopacity="0.0"
     inkscape:pagecheckerboard="0"
     inkscape:deskcolor="#d1d1d1">
    <inkscape:page
       x="3.2043108e-06"
       y="-1.411326e-05"
       width="357.20312"
       height="106.35895"
       id="page2"
       margin="0"
       bleed="0" />
  </sodipodi:namedview>
  <g
     id="g201"
     inkscape:groupmode="layer"
     inkscape:label="3"
     transform="translate(-1900.918,-668.30316)">
    <path
       id="path288"
       d="m 0,0 h 19.84337 m 0,0 h 19.84198"
       style="fill:none;stroke:#000000;stroke-width:0.3985;stroke-linecap:butt;stroke-linejoin:miter;stroke-miterlimit:10;stroke-dasharray:none;stroke-opacity:1"
       transform="matrix(1.3333333,0,0,-1.3333333,1907.3387,761.168)" />
    <path
       id="path289"
       d="M 1.11098,0 C 1.11098,0.61357 0.61357,1.11098 0,1.11098 -0.61357,1.11098 -1.11098,0.61357 -1.11098,0 c 0,-0.61357 0.49741,-1.11098 1.11098,-1.11098 0.61357,0 1.11098,0.49741 1.11098,1.11098 z"
       style="fill:#000000;fill-opacity:1;fill-rule:nonzero;stroke:#000000;stroke-width:0.3985;stroke-linecap:butt;stroke-linejoin:miter;stroke-miterlimit:10;stroke-dasharray:none;stroke-opacity:1"
       transform="matrix(1.3333333,0,0,-1.3333333,1907.3387,761.168)" />
    <path
       id="path290"
       d="m 0,59.52802 19.84337,0.0022 m 0,0 19.84198,-0.0022"
       style="fill:none;stroke:#000000;stroke-width:0.3985;stroke-linecap:butt;stroke-linejoin:miter;stroke-miterlimit:10;stroke-dasharray:none;stroke-opacity:1"
       transform="matrix(1.3333333,0,0,-1.3333333,1907.3387,761.168)" />
    <path
       id="path291"
       d="M 1.11098,59.52802 C 1.11098,60.1416 0.61357,60.639 0,60.639 c -0.61357,0 -1.11098,-0.4974 -1.11098,-1.11098 0,-0.61358 0.49741,-1.111 1.11098,-1.111 0.61357,0 1.11098,0.49742 1.11098,1.111 z"
       style="fill:#000000;fill-opacity:1;fill-rule:nonzero;stroke:#000000;stroke-width:0.3985;stroke-linecap:butt;stroke-linejoin:miter;stroke-miterlimit:10;stroke-dasharray:none;stroke-opacity:1"
       transform="matrix(1.3333333,0,0,-1.3333333,1907.3387,761.168)" />
    <path
       id="path292"
       d="m 18.62804,59.53018 v -1.38896 l 2.95155,1.38896 -2.95155,1.38896 z"
       style="fill:#000000;fill-opacity:1;fill-rule:nonzero;stroke:#000000;stroke-width:0.3985;stroke-linecap:butt;stroke-linejoin:miter;stroke-miterlimit:10;stroke-dasharray:none;stroke-opacity:1"
       transform="matrix(1.3333333,0,0,-1.3333333,1907.3387,761.168)" />
    <g
       id="g292"
       aria-label="I&#10;S"
       transform="matrix(0.93333333,0,0,0.93333333,1928.3653,677.11467)">
      <path
         id="path293"
         d="m 4.3881473,-6.1621987 c 0.050223,-0.1674107 0.050223,-0.1674107 0.2511161,-0.2008928 0.1506696,0 0.2845982,0 0.4352679,0 h 0.2008928 c 0.2176339,0 0.2176339,-0.016741 0.2678572,-0.050223 0.066964,-0.050223 0.1004464,-0.1841518 0.1004464,-0.234375 0,-0.1339286 -0.1004464,-0.1841518 -0.2176339,-0.1841518 -0.2511161,0 -0.5189733,0.016741 -0.7700893,0.016741 -0.2511161,0 -0.5189732,0.016741 -0.7868304,0.016741 -0.2845982,0 -0.5524553,-0.016741 -0.8370536,-0.016741 -0.251116,0 -0.5189732,-0.016741 -0.7700892,-0.016741 -0.1004465,0 -0.2845983,0 -0.2845983,0.2845982 0,0.1841518 0.1506697,0.1841518 0.3348215,0.1841518 h 0.2176339 c 0.083705,0 0.3180804,0 0.5189732,0.016741 l -1.4229911,5.67522317 c -0.033482,0.16741071 -0.050223,0.16741071 -0.234375,0.18415178 -0.1171875,0.0167411 -0.3013392,0.0167411 -0.43526782,0.0167411 H 0.75533482 c -0.20089286,0 -0.36830357,0 -0.36830357,0.28459822 0,0.13392857 0.10044643,0.18415178 0.21763393,0.18415178 0.25111607,0 0.50223212,-0.01674107 0.75334822,-0.01674107 0.2678571,0 0.5357143,-0.01674107 0.8035714,-0.01674107 0.2845982,0 0.5524554,0.01674107 0.8370536,0.01674107 0.2511161,0 0.5022321,0.01674107 0.7533482,0.01674107 0.1004464,0 0.3013393,0 0.3013393,-0.28459821 0,-0.18415179 -0.1674107,-0.18415179 -0.3348214,-0.18415179 h -0.217634 c -0.066964,0 -0.3850446,-0.0167411 -0.5189732,-0.0167411 z m 0,0"
         style="fill:#000000;fill-opacity:1;fill-rule:nonzero;stroke:none" />
      <path
         id="path294"
         d="m 10.820904,-3.3287723 c 0,-0.033482 -0.01674,-0.083705 -0.08371,-0.083705 -0.05022,0 -0.05022,0 -0.15067,0.1004464 l -0.334821,0.3850447 c -0.2678526,-0.368304 -0.7031204,-0.4854915 -1.1383883,-0.4854915 -0.9709821,0 -1.8582589,0.7868304 -1.8582589,1.5904018 0,0.1171875 0.033482,0.3850446 0.234375,0.6529018 0.234375,0.26785714 0.5022321,0.33482142 0.9709821,0.45200892 0.1339286,0.0334821 0.4854911,0.10044643 0.6026786,0.13392857 0.2176339,0.0502232 0.6361607,0.21763393 0.6361607,0.73660715 0,0.56919642 -0.5859375,1.22209816 -1.3895089,1.22209816 -0.6026786,0 -1.3560268,-0.2176339 -1.3560268,-0.98772316 0,-0.0669643 0.016741,-0.21763393 0.050223,-0.3515625 0,-0.01674108 0,-0.03348215 0,-0.03348215 0,-0.10044643 -0.083705,-0.10044643 -0.1004464,-0.10044643 -0.1004464,0 -0.1171875,0.01674108 -0.1339286,0.15066965 L 6.4180022,1.442433 c -0.016741,0.033482 -0.033482,0.066964 -0.033482,0.1004465 0,0.050223 0.033482,0.083705 0.1004464,0.083705 0.050223,0 0.050223,0 0.1339286,-0.083705 0.083705,-0.1004465 0.2678571,-0.3180804 0.3348214,-0.4017858 0.3850447,0.4017858 0.9207589,0.4854911 1.3392857,0.4854911 1.0546875,0 1.9084817,-0.90401784 1.9084817,-1.72433034 0,-0.30133928 -0.133928,-0.5859375 -0.2845977,-0.75334821 C 9.6825112,-1.1022098 9.5653237,-1.1189509 8.6780469,-1.3365848 8.5273772,-1.370067 8.2930022,-1.4202902 8.2260379,-1.4537723 c -0.1674107,-0.050223 -0.46875,-0.234375 -0.46875,-0.6361607 0,-0.5357143 0.6361608,-1.1049108 1.3560268,-1.1049108 0.7533482,0 1.1216523,0.4352679 1.1216523,1.0881697 0,0.1004464 -0.03348,0.2511161 -0.03348,0.3180803 0,0.1004465 0.08371,0.1004465 0.117188,0.1004465 0.100446,0 0.117187,-0.033482 0.133928,-0.1506697 z m 0,0"
         style="fill:#000000;fill-opacity:1;fill-rule:nonzero;stroke:none" />
    </g>
    <path
       id="path295"
       d="m 39.68535,69.44937 v -79.3707 h 79.37071 v 79.3707 z"
       style="fill:none;stroke:#000000;stroke-width:0.3985;stroke-linecap:butt;stroke-linejoin:miter;stroke-miterlimit:10;stroke-dasharray:none;stroke-opacity:1"
       transform="matrix(1.3333333,0,0,-1.3333333,1907.3387,761.168)" />
    <g
       id="g295"
       aria-label="A&#10;1&#10;B&#10;1&#10;C&#10;1&#10;D&#10;1"
       transform="matrix(0.93333333,0,0,0.93333333,1987.6427,724.45867)">
      <path
         id="path296"
         d="m 2.0276674,-1.3242969 c -0.4185268,0.70312502 -0.8203125,0.93750002 -1.38950892,0.97098217 -0.13392857,0.0167411 -0.234375,0.0167411 -0.234375,0.234375 0,0.06696428 0.0669643,0.1171875 0.15066965,0.1171875 0.21763392,0 0.75334817,-0.01674107 0.97098217,-0.01674107 0.3348214,0 0.719866,0.01674107 1.0546875,0.01674107 0.083705,0 0.2176339,0 0.2176339,-0.234375 0,-0.10044643 -0.1004464,-0.1171875 -0.1674107,-0.1171875 -0.2678572,-0.0167411 -0.5022322,-0.1171875 -0.5022322,-0.40178572 0,-0.16741071 0.066964,-0.30133925 0.234375,-0.56919645 l 0.9040179,-1.5066964 h 3.046875 c 0.016741,0.1171875 0.016741,0.2176339 0.016741,0.3180804 0.050223,0.3180803 0.1841518,1.5569196 0.1841518,1.77455352 0,0.36830358 -0.6026786,0.38504465 -0.8035715,0.38504465 -0.1339285,0 -0.251116,0 -0.251116,0.21763393 0,0.13392857 0.1004464,0.13392857 0.1674107,0.13392857 0.2008928,0 0.4520089,-0.01674107 0.6529018,-0.01674107 h 0.6863839 c 0.7198661,0 1.2555803,0.01674107 1.2555803,0.01674107 0.083705,0 0.217634,0 0.217634,-0.234375 0,-0.1171875 -0.1004465,-0.1171875 -0.2845982,-0.1171875 -0.6529018,0 -0.6696429,-0.10044643 -0.703125,-0.46875 L 6.7151674,-8.2718415 c -0.016741,-0.234375 -0.066964,-0.2678572 -0.2008928,-0.2678572 -0.1171875,0 -0.1841518,0.033482 -0.3013393,0.2008929 z m 1.4397322,-1.8415178 2.4107142,-4.0178572 0.4017858,4.0178572 z m 0,0"
         style="fill:#000000;fill-opacity:1;fill-rule:nonzero;stroke:none" />
      <path
         id="path297"
         d="m 11.268739,-3.278817 c 0,-0.2176339 0,-0.234375 -0.217634,-0.234375 -0.334822,0.3348215 -0.753348,0.5189732 -1.5066965,0.5189732 v 0.2678572 c 0.2176339,0 0.6361605,0 1.1049105,-0.2176339 v 4.0848214 c 0,0.3013393 -0.03348,0.3850446 -0.7868302,0.3850446 H 9.5946317 v 0.2678572 c 0.3180804,-0.016741 1.0044643,-0.016741 1.3560263,-0.016741 0.368304,0 1.054688,0 1.389509,0.016741 V 1.5258705 h -0.284598 c -0.753348,0 -0.78683,-0.083705 -0.78683,-0.3850446 z m 0,0"
         style="fill:#000000;fill-opacity:1;fill-rule:nonzero;stroke:none" />
      <path
         id="path298"
         d="m 17.877277,-7.3510826 c 0.117187,-0.4520089 0.167411,-0.46875 0.619419,-0.46875 h 1.55692 c 1.356027,0 1.356027,1.1551339 1.356027,1.2555804 0,0.9709821 -0.970982,2.1930803 -2.544643,2.1930803 h -1.72433 z m 2.025669,3.0803572 c 1.305804,-0.234375 2.49442,-1.1383929 2.49442,-2.2433036 0,-0.9375 -0.837053,-1.6573661 -2.176339,-1.6573661 H 16.37058 c -0.217634,0 -0.334821,0 -0.334821,0.234375 0,0.1171875 0.117187,0.1171875 0.301339,0.1171875 0.719866,0 0.719866,0.1004464 0.719866,0.234375 0,0.016741 0,0.083705 -0.05022,0.2678572 l -1.607143,6.42857138 c -0.117187,0.41852679 -0.133928,0.53571429 -0.970982,0.53571429 -0.234375,0 -0.351562,0 -0.351562,0.21763393 0,0.13392857 0.08371,0.13392857 0.31808,0.13392857 h 4.101562 c 1.824777,0 3.231027,-1.38950897 3.231027,-2.59486607 0,-0.9709821 -0.853794,-1.5736607 -1.824777,-1.6741071 z m -1.690848,3.91741067 h -1.623884 c -0.16741,0 -0.184151,0 -0.251116,0 -0.133928,-0.0167411 -0.150669,-0.0502232 -0.150669,-0.13392857 0,-0.0837054 0.01674,-0.16741072 0.05022,-0.26785715 l 0.837053,-3.36495535 h 2.243304 c 1.40625,0 1.40625,1.3058036 1.40625,1.40625 0,1.1383929 -1.037946,2.36049107 -2.511161,2.36049107 z m 0,0"
         style="fill:#000000;fill-opacity:1;fill-rule:nonzero;stroke:none" />
      <path
         id="path299"
         d="m 24.895971,-3.278817 c 0,-0.2176339 0,-0.234375 -0.217634,-0.234375 -0.334821,0.3348215 -0.753348,0.5189732 -1.506696,0.5189732 v 0.2678572 c 0.217634,0 0.63616,0 1.10491,-0.2176339 v 4.0848214 c 0,0.3013393 -0.03348,0.3850446 -0.78683,0.3850446 h -0.267857 v 0.2678572 c 0.31808,-0.016741 1.004464,-0.016741 1.356027,-0.016741 0.368303,0 1.054687,0 1.389509,0.016741 V 1.5258705 h -0.284599 c -0.753348,0 -0.78683,-0.083705 -0.78683,-0.3850446 z m 0,0"
         style="fill:#000000;fill-opacity:1;fill-rule:nonzero;stroke:none" />
      <path
         id="path300"
         d="m 36.053895,-8.3053237 c 0,-0.1171875 -0.0837,-0.1171875 -0.100446,-0.1171875 -0.01674,0 -0.06696,0 -0.167411,0.1171875 l -0.820313,1.0044643 c -0.418526,-0.703125 -1.088169,-1.1216518 -1.975446,-1.1216518 -2.578125,0 -5.256696,2.6283483 -5.256696,5.4241072 0,2.00892855 1.389509,3.24776784 3.13058,3.24776784 0.970982,0 1.808036,-0.40178572 2.49442,-0.98772322 1.037946,-0.87053572 1.356026,-2.04241072 1.356026,-2.12611602 0,-0.1171875 -0.100446,-0.1171875 -0.133928,-0.1171875 -0.117188,0 -0.117188,0.066964 -0.15067,0.1171875 -0.552455,1.87499995 -2.159598,2.76227674 -3.348214,2.76227674 -1.272322,0 -2.377232,-0.80357143 -2.377232,-2.51116074 0,-0.3850446 0.117187,-2.4609375 1.473214,-4.0178571 0.652902,-0.7700893 1.774554,-1.4397322 2.912946,-1.4397322 1.322545,0 1.908483,1.0881697 1.908483,2.3102679 0,0.3013393 -0.03348,0.5691964 -0.03348,0.6194196 0,0.1004465 0.117188,0.1004465 0.15067,0.1004465 0.133929,0 0.15067,0 0.184152,-0.217634 z m 0,0"
         style="fill:#000000;fill-opacity:1;fill-rule:nonzero;stroke:none" />
      <path
         id="path301"
         d="m 38.00423,-3.278817 c 0,-0.2176339 0,-0.234375 -0.217634,-0.234375 -0.334821,0.3348215 -0.753348,0.5189732 -1.506696,0.5189732 v 0.2678572 c 0.217633,0 0.63616,0 1.10491,-0.2176339 v 4.0848214 c 0,0.3013393 -0.03348,0.3850446 -0.78683,0.3850446 h -0.267857 v 0.2678572 c 0.31808,-0.016741 1.004464,-0.016741 1.356027,-0.016741 0.368303,0 1.054687,0 1.389508,0.016741 V 1.5258705 H 38.79106 c -0.753348,0 -0.78683,-0.083705 -0.78683,-0.3850446 z m 0,0"
         style="fill:#000000;fill-opacity:1;fill-rule:nonzero;stroke:none" />
      <path
         id="path302"
         d="m 42.114163,-0.88902902 c -0.100446,0.41852679 -0.133929,0.53571429 -0.970982,0.53571429 -0.217634,0 -0.334822,0 -0.334822,0.21763393 0,0.13392857 0.06696,0.13392857 0.30134,0.13392857 h 3.783482 c 2.427455,0 4.771205,-2.49441967 4.771205,-5.15624997 0,-1.7243304 -1.021205,-3.0133929 -2.728794,-3.0133929 h -3.833706 c -0.234375,0 -0.334821,0 -0.334821,0.234375 0,0.1171875 0.100446,0.1171875 0.284598,0.1171875 0.719866,0 0.719866,0.1004464 0.719866,0.234375 0,0.016741 0,0.083705 -0.05022,0.2678572 z m 2.527902,-6.46205358 c 0.100446,-0.4520089 0.150669,-0.46875 0.619419,-0.46875 h 1.305804 c 1.138393,0 2.159598,0.6026786 2.159598,2.2600447 0,0.6026785 -0.234375,2.6785714 -1.40625,3.984375 -0.334821,0.4017857 -1.238839,1.22209817 -2.611607,1.22209817 h -1.356027 c -0.16741,0 -0.200893,0 -0.267857,0 -0.133928,-0.0167411 -0.15067,-0.0502232 -0.15067,-0.13392857 0,-0.0837054 0.03348,-0.16741072 0.05022,-0.26785715 z m 0,0"
         style="fill:#000000;fill-opacity:1;fill-rule:nonzero;stroke:none" />
      <path
         id="path303"
         d="m 52.451775,-3.278817 c 0,-0.2176339 0,-0.234375 -0.217634,-0.234375 -0.334822,0.3348215 -0.753349,0.5189732 -1.506697,0.5189732 v 0.2678572 c 0.217634,0 0.636161,0 1.104911,-0.2176339 v 4.0848214 c 0,0.3013393 -0.03348,0.3850446 -0.78683,0.3850446 h -0.267858 v 0.2678572 c 0.318081,-0.016741 1.004465,-0.016741 1.356027,-0.016741 0.368304,0 1.054688,0 1.389509,0.016741 V 1.5258705 h -0.284598 c -0.753348,0 -0.78683,-0.083705 -0.78683,-0.3850446 z m 0,0"
         style="fill:#000000;fill-opacity:1;fill-rule:nonzero;stroke:none" />
    </g>
    <path
       id="path304"
       d="m 119.05606,0 h 9.9261 m 0,0 h 9.9166"
       style="fill:none;stroke:#000000;stroke-width:0.3985;stroke-linecap:butt;stroke-linejoin:miter;stroke-miterlimit:10;stroke-dasharray:none;stroke-opacity:1"
       transform="matrix(1.3333333,0,0,-1.3333333,1907.3387,761.168)" />
    <path
       id="path305"
       d="m 119.05606,59.52802 9.9261,0.0022 m 0,0 9.9166,-0.0022"
       style="fill:none;stroke:#000000;stroke-width:0.3985;stroke-linecap:butt;stroke-linejoin:miter;stroke-miterlimit:10;stroke-dasharray:none;stroke-opacity:1"
       transform="matrix(1.3333333,0,0,-1.3333333,1907.3387,761.168)" />
    <path
       id="path306"
       d="m 138.89876,69.44937 v -79.3707 h 79.37071 v 79.3707 z"
       style="fill:none;stroke:#000000;stroke-width:0.3985;stroke-linecap:butt;stroke-linejoin:miter;stroke-miterlimit:10;stroke-dasharray:none;stroke-opacity:1"
       transform="matrix(1.3333333,0,0,-1.3333333,1907.3387,761.168)" />
    <g
       id="g306"
       aria-label="A&#10;2&#10;B&#10;2&#10;C&#10;2&#10;D&#10;2"
       transform="matrix(0.93333333,0,0,0.93333333,2119.9253,724.45867)">
      <path
         id="path307"
         d="m 2.0261496,-1.3242969 c -0.4185268,0.70312502 -0.8203125,0.93750002 -1.38950897,0.97098217 -0.13392858,0.0167411 -0.234375,0.0167411 -0.234375,0.234375 0,0.06696428 0.0669643,0.1171875 0.15066964,0.1171875 0.21763393,0 0.75334823,-0.01674107 0.97098213,-0.01674107 0.3348214,0 0.7198661,0.01674107 1.0546875,0.01674107 0.083705,0 0.2176339,0 0.2176339,-0.234375 0,-0.10044643 -0.1004464,-0.1171875 -0.1674107,-0.1171875 C 2.360971,-0.3700558 2.126596,-0.47050223 2.126596,-0.75510045 c 0,-0.16741071 0.066964,-0.30133925 0.234375,-0.56919645 l 0.9040178,-1.5066964 h 3.046875 c 0.016741,0.1171875 0.016741,0.2176339 0.016741,0.3180804 0.050223,0.3180803 0.1841518,1.5569196 0.1841518,1.77455352 0,0.36830358 -0.6026786,0.38504465 -0.8035714,0.38504465 -0.1339286,0 -0.2511161,0 -0.2511161,0.21763393 0,0.13392857 0.1004464,0.13392857 0.1674107,0.13392857 0.2008929,0 0.4520089,-0.01674107 0.6529018,-0.01674107 h 0.6863839 c 0.7198661,0 1.2555804,0.01674107 1.2555804,0.01674107 0.083705,0 0.2176339,0 0.2176339,-0.234375 0,-0.1171875 -0.1004464,-0.1171875 -0.2845982,-0.1171875 -0.6529018,0 -0.6696429,-0.10044643 -0.703125,-0.46875 L 6.7136496,-8.2718415 c -0.016741,-0.234375 -0.066964,-0.2678572 -0.2008929,-0.2678572 -0.1171875,0 -0.1841518,0.033482 -0.3013393,0.2008929 z m 1.4397321,-1.8415178 2.4107143,-4.0178572 0.4017857,4.0178572 z m 0,0"
         style="fill:#000000;fill-opacity:1;fill-rule:nonzero;stroke:none" />
      <path
         id="path308"
         d="m 11.02029,0.16984375 c 0.133929,-0.1171875 0.46875,-0.38504464 0.585938,-0.50223214 0.502232,-0.45200893 0.970982,-0.88727681 0.970982,-1.60714291 0,-0.954241 -0.803572,-1.5736607 -1.791295,-1.5736607 -0.9542409,0 -1.5904016,0.7366072 -1.5904016,1.4397322 0,0.3850446 0.3180804,0.4520089 0.4185268,0.4520089 0.1674107,0 0.4185268,-0.1171875 0.4185268,-0.4185268 0,-0.4185268 -0.4017857,-0.4185268 -0.4854911,-0.4185268 0.2176339,-0.5859375 0.7533481,-0.7868303 1.1551341,-0.7868303 0.736607,0 1.121652,0.6361607 1.121652,1.3058035 0,0.8203125 -0.585938,1.42299112 -1.523438,2.39397326 L 9.2959598,1.4923884 C 9.1955134,1.5760937 9.1955134,1.5928348 9.1955134,1.7937277 H 12.342835 L 12.57721,0.37073661 h -0.251116 c -0.01674,0.15066964 -0.08371,0.55245535 -0.184152,0.70312499 -0.05022,0.066964 -0.652902,0.066964 -0.770089,0.066964 H 9.9488616 Z m 0,0"
         style="fill:#000000;fill-opacity:1;fill-rule:nonzero;stroke:none" />
      <path
         id="path309"
         d="m 17.875759,-7.3510826 c 0.117187,-0.4520089 0.167411,-0.46875 0.61942,-0.46875 h 1.556919 c 1.356027,0 1.356027,1.1551339 1.356027,1.2555804 0,0.9709821 -0.970982,2.1930803 -2.544643,2.1930803 h -1.72433 z m 2.02567,3.0803572 c 1.305803,-0.234375 2.494419,-1.1383929 2.494419,-2.2433036 0,-0.9375 -0.837053,-1.6573661 -2.176339,-1.6573661 h -3.850446 c -0.217634,0 -0.334822,0 -0.334822,0.234375 0,0.1171875 0.117188,0.1171875 0.301339,0.1171875 0.719866,0 0.719866,0.1004464 0.719866,0.234375 0,0.016741 0,0.083705 -0.05022,0.2678572 l -1.607143,6.42857138 c -0.117187,0.41852679 -0.133928,0.53571429 -0.970982,0.53571429 -0.234375,0 -0.351562,0 -0.351562,0.21763393 0,0.13392857 0.08371,0.13392857 0.31808,0.13392857 h 4.101563 c 1.824776,0 3.231026,-1.38950897 3.231026,-2.59486607 0,-0.9709821 -0.853794,-1.5736607 -1.824776,-1.6741071 z m -1.690849,3.91741067 h -1.623884 c -0.16741,0 -0.184151,0 -0.251116,0 -0.133928,-0.0167411 -0.150669,-0.0502232 -0.150669,-0.13392857 0,-0.0837054 0.01674,-0.16741072 0.05022,-0.26785715 l 0.837054,-3.36495535 h 2.243303 c 1.40625,0 1.40625,1.3058036 1.40625,1.40625 0,1.1383929 -1.037946,2.36049107 -2.511161,2.36049107 z m 0,0"
         style="fill:#000000;fill-opacity:1;fill-rule:nonzero;stroke:none" />
      <path
         id="path310"
         d="m 24.643337,0.16984375 c 0.133929,-0.1171875 0.46875,-0.38504464 0.585938,-0.50223214 0.502232,-0.45200893 0.970982,-0.88727681 0.970982,-1.60714291 0,-0.954241 -0.803572,-1.5736607 -1.791295,-1.5736607 -0.954241,0 -1.590402,0.7366072 -1.590402,1.4397322 0,0.3850446 0.318081,0.4520089 0.418527,0.4520089 0.167411,0 0.418527,-0.1171875 0.418527,-0.4185268 0,-0.4185268 -0.401786,-0.4185268 -0.485491,-0.4185268 0.217634,-0.5859375 0.753348,-0.7868303 1.155134,-0.7868303 0.736607,0 1.121651,0.6361607 1.121651,1.3058035 0,0.8203125 -0.585937,1.42299112 -1.523437,2.39397326 L 22.919007,1.4923884 C 22.81856,1.5760937 22.81856,1.5928348 22.81856,1.7937277 h 3.147322 l 0.234375,-1.42299109 h -0.251116 c -0.01674,0.15066964 -0.08371,0.55245535 -0.184152,0.70312499 -0.05022,0.066964 -0.652902,0.066964 -0.770089,0.066964 h -1.422992 z m 0,0"
         style="fill:#000000;fill-opacity:1;fill-rule:nonzero;stroke:none" />
      <path
         id="path311"
         d="m 36.056563,-8.3053237 c 0,-0.1171875 -0.08371,-0.1171875 -0.100447,-0.1171875 -0.01674,0 -0.06696,0 -0.167411,0.1171875 l -0.820312,1.0044643 c -0.418527,-0.703125 -1.08817,-1.1216518 -1.975447,-1.1216518 -2.578125,0 -5.256696,2.6283483 -5.256696,5.4241072 0,2.00892855 1.389509,3.24776784 3.13058,3.24776784 0.970983,0 1.808036,-0.40178572 2.49442,-0.98772322 1.037946,-0.87053572 1.356027,-2.04241072 1.356027,-2.12611602 0,-0.1171875 -0.100447,-0.1171875 -0.133929,-0.1171875 -0.117187,0 -0.117187,0.066964 -0.150669,0.1171875 -0.552456,1.87499995 -2.159599,2.76227674 -3.348215,2.76227674 -1.272321,0 -2.377232,-0.80357143 -2.377232,-2.51116074 0,-0.3850446 0.117188,-2.4609375 1.473214,-4.0178571 0.652902,-0.7700893 1.774554,-1.4397322 2.912947,-1.4397322 1.322545,0 1.908482,1.0881697 1.908482,2.3102679 0,0.3013393 -0.03348,0.5691964 -0.03348,0.6194196 0,0.1004465 0.117187,0.1004465 0.15067,0.1004465 0.133928,0 0.150669,0 0.184151,-0.217634 z m 0,0"
         style="fill:#000000;fill-opacity:1;fill-rule:nonzero;stroke:none" />
      <path
         id="path312"
         d="m 37.751596,0.16984375 c 0.133929,-0.1171875 0.46875,-0.38504464 0.585937,-0.50223214 0.502233,-0.45200893 0.970983,-0.88727681 0.970983,-1.60714291 0,-0.954241 -0.803572,-1.5736607 -1.791295,-1.5736607 -0.954241,0 -1.590402,0.7366072 -1.590402,1.4397322 0,0.3850446 0.318081,0.4520089 0.418527,0.4520089 0.167411,0 0.418527,-0.1171875 0.418527,-0.4185268 0,-0.4185268 -0.401786,-0.4185268 -0.485491,-0.4185268 0.217634,-0.5859375 0.753348,-0.7868303 1.155134,-0.7868303 0.736607,0 1.121651,0.6361607 1.121651,1.3058035 0,0.8203125 -0.585937,1.42299112 -1.523437,2.39397326 L 36.027266,1.4923884 c -0.100447,0.083705 -0.100447,0.1004464 -0.100447,0.3013393 h 3.147322 L 39.308516,0.37073661 H 39.0574 c -0.01674,0.15066964 -0.08371,0.55245535 -0.184152,0.70312499 -0.05022,0.066964 -0.652902,0.066964 -0.77009,0.066964 h -1.422991 z m 0,0"
         style="fill:#000000;fill-opacity:1;fill-rule:nonzero;stroke:none" />
      <path
         id="path313"
         d="m 42.11683,-0.88902902 c -0.100446,0.41852679 -0.133928,0.53571429 -0.970982,0.53571429 -0.217634,0 -0.334821,0 -0.334821,0.21763393 0,0.13392857 0.06696,0.13392857 0.301339,0.13392857 h 3.783482 c 2.427456,0 4.771206,-2.49441967 4.771206,-5.15624997 0,-1.7243304 -1.021206,-3.0133929 -2.728795,-3.0133929 h -3.833705 c -0.234375,0 -0.334822,0 -0.334822,0.234375 0,0.1171875 0.100447,0.1171875 0.284598,0.1171875 0.719866,0 0.719866,0.1004464 0.719866,0.234375 0,0.016741 0,0.083705 -0.05022,0.2678572 z m 2.527902,-6.46205358 c 0.100447,-0.4520089 0.15067,-0.46875 0.61942,-0.46875 h 1.305803 c 1.138393,0 2.159599,0.6026786 2.159599,2.2600447 0,0.6026785 -0.234375,2.6785714 -1.40625,3.984375 -0.334822,0.4017857 -1.23884,1.22209817 -2.611608,1.22209817 H 43.35567 c -0.167411,0 -0.200893,0 -0.267857,0 -0.133929,-0.0167411 -0.15067,-0.0502232 -0.15067,-0.13392857 0,-0.0837054 0.03348,-0.16741072 0.05022,-0.26785715 z m 0,0"
         style="fill:#000000;fill-opacity:1;fill-rule:nonzero;stroke:none" />
      <path
         id="path314"
         d="m 52.203326,0.16984375 c 0.133928,-0.1171875 0.46875,-0.38504464 0.585937,-0.50223214 0.502233,-0.45200893 0.970983,-0.88727681 0.970983,-1.60714291 0,-0.954241 -0.803572,-1.5736607 -1.791295,-1.5736607 -0.954241,0 -1.590402,0.7366072 -1.590402,1.4397322 0,0.3850446 0.31808,0.4520089 0.418527,0.4520089 0.167411,0 0.418527,-0.1171875 0.418527,-0.4185268 0,-0.4185268 -0.401786,-0.4185268 -0.485491,-0.4185268 0.217634,-0.5859375 0.753348,-0.7868303 1.155134,-0.7868303 0.736607,0 1.121651,0.6361607 1.121651,1.3058035 0,0.8203125 -0.585937,1.42299112 -1.523437,2.39397326 L 50.478996,1.4923884 c -0.100447,0.083705 -0.100447,0.1004464 -0.100447,0.3013393 h 3.147322 l 0.234375,-1.42299109 h -0.251117 c -0.01674,0.15066964 -0.08371,0.55245535 -0.184151,0.70312499 -0.05022,0.066964 -0.652902,0.066964 -0.77009,0.066964 h -1.422991 z m 0,0"
         style="fill:#000000;fill-opacity:1;fill-rule:nonzero;stroke:none" />
    </g>
    <path
       id="path315"
       d="m 218.26947,0 h 19.85146 m 0,0 h 19.83389"
       style="fill:none;stroke:#000000;stroke-width:0.3985;stroke-linecap:butt;stroke-linejoin:miter;stroke-miterlimit:10;stroke-dasharray:none;stroke-opacity:1"
       transform="matrix(1.3333333,0,0,-1.3333333,1907.3387,761.168)" />
    <path
       id="path316"
       d="m 259.06581,0 c 0,0.61357 -0.49741,1.11098 -1.11099,1.11098 -0.61357,0 -1.11099,-0.49741 -1.11099,-1.11098 0,-0.61357 0.49742,-1.11098 1.11099,-1.11098 0.61358,0 1.11099,0.49741 1.11099,1.11098 z"
       style="fill:#000000;fill-opacity:1;fill-rule:nonzero;stroke:#000000;stroke-width:0.3985;stroke-linecap:butt;stroke-linejoin:miter;stroke-miterlimit:10;stroke-dasharray:none;stroke-opacity:1"
       transform="matrix(1.3333333,0,0,-1.3333333,1907.3387,761.168)" />
    <path
       id="path317"
       d="m 218.26947,59.52802 19.85146,0.0022 m 0,0 19.83389,-0.0022"
       style="fill:none;stroke:#000000;stroke-width:0.3985;stroke-linecap:butt;stroke-linejoin:miter;stroke-miterlimit:10;stroke-dasharray:none;stroke-opacity:1"
       transform="matrix(1.3333333,0,0,-1.3333333,1907.3387,761.168)" />
    <path
       id="path318"
       d="m 259.06581,59.52802 c 0,0.61358 -0.49741,1.11098 -1.11099,1.11098 -0.61357,0 -1.11099,-0.4974 -1.11099,-1.11098 0,-0.61358 0.49742,-1.111 1.11099,-1.111 0.61358,0 1.11099,0.49742 1.11099,1.111 z"
       style="fill:#000000;fill-opacity:1;fill-rule:nonzero;stroke:#000000;stroke-width:0.3985;stroke-linecap:butt;stroke-linejoin:miter;stroke-miterlimit:10;stroke-dasharray:none;stroke-opacity:1"
       transform="matrix(1.3333333,0,0,-1.3333333,1907.3387,761.168)" />
    <path
       id="path319"
       d="m 236.90562,59.53018 v -1.38896 l 2.95156,1.38896 -2.95156,1.38896 z"
       style="fill:#000000;fill-opacity:1;fill-rule:nonzero;stroke:#000000;stroke-width:0.3985;stroke-linecap:butt;stroke-linejoin:miter;stroke-miterlimit:10;stroke-dasharray:none;stroke-opacity:1"
       transform="matrix(1.3333333,0,0,-1.3333333,1907.3387,761.168)" />
    <g
       id="g319"
       aria-label="I&#10;R"
       transform="matrix(0.93333333,0,0,0.93333333,2219.0467,677.11467)">
      <path
         id="path320"
         d="m 4.3863839,-6.1621987 c 0.050223,-0.1674107 0.050223,-0.1674107 0.2511161,-0.2008928 0.1506696,0 0.2845982,0 0.4352679,0 h 0.2008928 c 0.2176339,0 0.2176339,-0.016741 0.2678572,-0.050223 0.066964,-0.050223 0.1004464,-0.1841518 0.1004464,-0.234375 0,-0.1339286 -0.1004464,-0.1841518 -0.2176339,-0.1841518 -0.2511161,0 -0.5189733,0.016741 -0.7700893,0.016741 -0.2511161,0 -0.5189732,0.016741 -0.7868304,0.016741 -0.2845982,0 -0.5524553,-0.016741 -0.8370536,-0.016741 -0.251116,0 -0.5189732,-0.016741 -0.7700892,-0.016741 -0.1004465,0 -0.2845983,0 -0.2845983,0.2845982 0,0.1841518 0.1506697,0.1841518 0.3348215,0.1841518 H 2.528125 c 0.083705,0 0.3180804,0 0.5189732,0.016741 l -1.4229911,5.67522317 c -0.033482,0.16741071 -0.050223,0.16741071 -0.234375,0.18415178 -0.1171875,0.0167411 -0.3013392,0.0167411 -0.43526781,0.0167411 H 0.75357143 c -0.20089286,0 -0.36830357,0 -0.36830357,0.28459822 0,0.13392857 0.10044643,0.18415178 0.21763393,0.18415178 0.25111607,0 0.50223211,-0.01674107 0.75334821,-0.01674107 0.2678571,0 0.5357143,-0.01674107 0.8035714,-0.01674107 0.2845982,0 0.5524554,0.01674107 0.8370536,0.01674107 0.2511161,0 0.5022321,0.01674107 0.7533482,0.01674107 0.1004464,0 0.3013393,0 0.3013393,-0.28459821 0,-0.18415179 -0.1674107,-0.18415179 -0.3348214,-0.18415179 h -0.217634 c -0.066964,0 -0.3850446,-0.0167411 -0.5189732,-0.0167411 z m 0,0"
         style="fill:#000000;fill-opacity:1;fill-rule:nonzero;stroke:none" />
      <path
         id="path321"
         d="m 8.747433,-2.793058 c 0.050223,-0.1841518 0.066964,-0.217634 0.217634,-0.234375 h 0.4520089 c 0.6529021,0 1.4564731,0 1.4564731,0.719866 0,0.2845982 -0.133928,0.7366072 -0.46875,0.9877232 -0.284598,0.217634 -0.719866,0.33482148 -1.205357,0.33482148 H 8.3121652 Z m 1.272321,1.90848211 c 0.820313,-0.18415181 1.573661,-0.68638391 1.573661,-1.32254461 0,-0.5859375 -0.719866,-1.0714286 -1.7243302,-1.0714286 H 7.7262277 c -0.1339286,0 -0.234375,0 -0.234375,0.1506696 0,0.1004465 0.083705,0.1004465 0.234375,0.1004465 0,0 0.1339286,0 0.2511161,0.016741 0.1506696,0.016741 0.1674107,0.033482 0.1674107,0.1004465 0,0.016741 0,0.050223 -0.033482,0.1506696 L 7.1905134,0.94020089 C 7.1235491,1.191317 7.1235491,1.2415402 6.5710938,1.2415402 c -0.1171875,0 -0.2008929,0 -0.2008929,0.1506696 0,0.066964 0.050223,0.1004464 0.1004464,0.1004464 0.1339286,0 0.3013393,-0.016741 0.4352679,-0.016741 0.1339286,0 0.3348214,-0.016741 0.46875,-0.016741 0.1339286,0 0.3013393,0.016741 0.4352678,0.016741 0.1506697,0 0.3348215,0.016741 0.46875,0.016741 0.033482,0 0.1506697,0 0.1506697,-0.1506696 0,-0.1004464 -0.066964,-0.1004464 -0.234375,-0.1004464 -0.1004464,0 -0.1339286,0 -0.2678572,-0.016741 C 7.7764509,1.208058 7.7764509,1.191317 7.7764509,1.1243527 c 0,-0.016741 0,-0.050223 0.033482,-0.15066966 l 0.435268,-1.77455358 H 9.199442 c 0.6026785,0 0.853795,0.30133929 0.853795,0.63616072 0,0.08370536 -0.066965,0.31808036 -0.1004468,0.48549107 -0.083705,0.31808036 -0.1004464,0.41852679 -0.1004464,0.53571429 0,0.55245536 0.5022322,0.77008926 1.0212052,0.77008926 0.636161,0 0.920759,-0.68638391 0.920759,-0.80357141 0,-0.0167411 -0.01674,-0.10044643 -0.117187,-0.10044643 -0.08371,0 -0.100447,0.0502232 -0.133929,0.1171875 -0.08371,0.31808034 -0.351563,0.60267854 -0.636161,0.60267854 -0.184152,0 -0.31808,-0.083705 -0.31808,-0.45200889 0,-0.18415179 0.03348,-0.55245536 0.06696,-0.73660715 0.03348,-0.18415178 0.03348,-0.25111607 0.03348,-0.31808035 0,-0.08370536 0,-0.31808036 -0.200893,-0.51897322 -0.133928,-0.15066964 -0.31808,-0.234375 -0.46875,-0.30133928 z m 0,0"
         style="fill:#000000;fill-opacity:1;fill-rule:nonzero;stroke:none" />
    </g>
    <path
       id="path322"
       d="m 4.0680692,-2.2943527 h 2.7790179 c 0.1506696,0 0.3348214,0 0.3348214,-0.2008928 0,-0.2008929 -0.1841518,-0.2008929 -0.3348214,-0.2008929 H 4.0680692 v -2.7790179 c 0,-0.1506696 0,-0.3348214 -0.2008929,-0.3348214 -0.1841517,0 -0.1841517,0.1841518 -0.1841517,0.3348214 v 2.7790179 H 0.88726562 c -0.13392857,0 -0.33482142,0 -0.33482142,0.2008929 0,0.2008928 0.20089285,0.2008928 0.33482142,0.2008928 H 3.6830246 v 2.79575895 c 0,0.13392857 0,0.31808036 0.1841517,0.31808036 0.2008929,0 0.2008929,-0.18415179 0.2008929,-0.31808036 z m 0,0"
       style="fill:#000000;fill-opacity:1;fill-rule:nonzero;stroke:none"
       aria-label="+"
       transform="matrix(0.93333333,0,0,0.93333333,1903.7227,695.97733)" />
    <path
       id="path323"
       d="m 6.5624888,-2.2940848 c 0.1674108,0 0.3515625,0 0.3515625,-0.2008929 0,-0.2008928 -0.1841517,-0.2008928 -0.3515625,-0.2008928 h -5.390625 c -0.1674107,0 -0.35156246,0 -0.35156246,0.2008928 0,0.2008929 0.18415176,0.2008929 0.35156246,0.2008929 z m 0,0"
       style="fill:#000000;fill-opacity:1;fill-rule:nonzero;stroke:none"
       aria-label="−"
       transform="matrix(0.93333333,0,0,0.93333333,1903.7227,751.63333)" />
    <g
       id="g323"
       aria-label="V&#10;S"
       transform="matrix(0.93333333,0,0,0.93333333,1900.3067,723.97333)">
      <path
         id="path324"
         d="m 7.569029,-5.9605469 c 0.1506697,-0.2176339 0.2678572,-0.4017857 0.9542411,-0.4017857 0.1171875,0 0.3013393,0 0.3013393,-0.2845982 0,-0.066964 -0.050223,-0.1841518 -0.1841518,-0.1841518 -0.2845982,0 -0.6026786,0.033482 -0.9040179,0.033482 -0.3683035,0 -0.7533482,-0.033482 -1.1049107,-0.033482 -0.066964,0 -0.2678571,0 -0.2678571,0.2845982 0,0.1841518 0.1674107,0.1841518 0.2678571,0.1841518 0.050223,0 0.3348214,0 0.5524554,0.1004464 l -3.28125,4.7712054 -0.8872768,-4.6540179 c 0,-0.033482 -0.016741,-0.1171875 -0.016741,-0.1339285 0,-0.083705 0.5357143,-0.083705 0.6026786,-0.083705 0.2176339,0 0.3850446,0 0.3850446,-0.2845982 0,-0.1339286 -0.1004464,-0.1841518 -0.2176339,-0.1841518 -0.2511161,0 -0.5022321,0.016741 -0.7533482,0.016741 -0.2511161,0 -0.4854911,0.016741 -0.7366072,0.016741 -0.2176339,0 -0.4520089,-0.016741 -0.6863839,-0.016741 -0.2176339,0 -0.4520089,-0.016741 -0.65290177,-0.016741 -0.0837054,0 -0.28459821,0 -0.28459821,0.2845982 0,0.1841518 0.16741071,0.1841518 0.36830358,0.1841518 0.1339286,0 0.2511161,0 0.3850446,0 0.1171875,0.016741 0.1339286,0.033482 0.1506697,0.2008929 l 1.1383928,6.04352675 c 0.050223,0.28459822 0.1674107,0.28459822 0.3515625,0.28459822 0.2845982,0 0.3348215,-0.06696429 0.452009,-0.25111607 z m 0,0"
         style="fill:#000000;fill-opacity:1;fill-rule:nonzero;stroke:none" />
      <path
         id="path325"
         d="m 14.252902,-3.3280134 c 0,-0.033482 -0.01674,-0.083705 -0.08371,-0.083705 -0.05022,0 -0.05022,0 -0.150669,0.1004465 l -0.334822,0.3850446 c -0.267857,-0.3683036 -0.703125,-0.4854911 -1.138392,-0.4854911 -0.970983,0 -1.858259,0.7868304 -1.858259,1.5904018 0,0.1171875 0.03348,0.3850447 0.234375,0.6529018 0.234375,0.26785716 0.502232,0.33482145 0.970982,0.45200895 0.133928,0.0334821 0.485491,0.10044643 0.602678,0.13392857 0.217634,0.0502232 0.636161,0.21763393 0.636161,0.73660714 0,0.56919643 -0.585937,1.22209824 -1.389509,1.22209824 -0.602678,0 -1.356027,-0.217634 -1.356027,-0.98772324 0,-0.0669643 0.01674,-0.21763392 0.05022,-0.3515625 0,-0.01674107 0,-0.03348214 0,-0.03348214 0,-0.10044643 -0.08371,-0.10044643 -0.100447,-0.10044643 -0.100446,0 -0.117187,0.01674107 -0.133928,0.15066965 L 9.85,1.443192 C 9.833259,1.476674 9.816518,1.510156 9.816518,1.5436384 c 0,0.050223 0.033482,0.083705 0.1004464,0.083705 0.050223,0 0.050223,0 0.1339286,-0.083705 0.08371,-0.1004464 0.267857,-0.3180804 0.334821,-0.4017857 0.385045,0.4017857 0.920759,0.485491 1.339286,0.485491 1.054688,0 1.908482,-0.90401781 1.908482,-1.72433031 0,-0.30133928 -0.133928,-0.5859375 -0.284598,-0.75334821 C 13.114509,-1.1014509 12.997321,-1.118192 12.110045,-1.3358259 11.959375,-1.369308 11.725,-1.4195313 11.658036,-1.4530134 c -0.167411,-0.050223 -0.46875,-0.234375 -0.46875,-0.6361607 0,-0.5357143 0.63616,-1.1049107 1.356027,-1.1049107 0.753348,0 1.121651,0.4352678 1.121651,1.0881696 0,0.1004464 -0.03348,0.2511161 -0.03348,0.3180804 0,0.1004464 0.08371,0.1004464 0.117188,0.1004464 0.100446,0 0.117187,-0.033482 0.133928,-0.1506696 z m 0,0"
         style="fill:#000000;fill-opacity:1;fill-rule:nonzero;stroke:none" />
    </g>
    <path
       id="path326"
       d="m 4.0662165,-2.2943527 h 2.7790179 c 0.1506696,0 0.3348214,0 0.3348214,-0.2008928 0,-0.2008929 -0.1841518,-0.2008929 -0.3348214,-0.2008929 H 4.0662165 v -2.7790179 c 0,-0.1506696 0,-0.3348214 -0.2008928,-0.3348214 -0.1841518,0 -0.1841518,0.1841518 -0.1841518,0.3348214 v 2.7790179 H 0.88541295 c -0.13392858,0 -0.33482143,0 -0.33482143,0.2008929 0,0.2008928 0.20089285,0.2008928 0.33482143,0.2008928 H 3.6811719 v 2.79575895 c 0,0.13392857 0,0.31808036 0.1841518,0.31808036 0.2008928,0 0.2008928,-0.18415179 0.2008928,-0.31808036 z m 0,0"
       style="fill:#000000;fill-opacity:1;fill-rule:nonzero;stroke:none"
       aria-label="+"
       transform="matrix(0.93333333,0,0,0.93333333,2247.6853,695.97733)" />
    <path
       id="path327"
       d="m 6.5606362,-2.2940848 c 0.1674107,0 0.3515625,0 0.3515625,-0.2008929 0,-0.2008928 -0.1841518,-0.2008928 -0.3515625,-0.2008928 h -5.390625 c -0.1674108,0 -0.35156254,0 -0.35156254,0.2008928 0,0.2008929 0.18415174,0.2008929 0.35156254,0.2008929 z m 0,0"
       style="fill:#000000;fill-opacity:1;fill-rule:nonzero;stroke:none"
       aria-label="−"
       transform="matrix(0.93333333,0,0,0.93333333,2247.6853,751.63333)" />
    <g
       id="g327"
       aria-label="V&#10;R"
       transform="matrix(0.93333333,0,0,0.93333333,2243.9133,723.97333)">
      <path
         id="path328"
         d="m 7.5677455,-5.9605469 c 0.1506697,-0.2176339 0.2678572,-0.4017857 0.9542411,-0.4017857 0.1171875,0 0.3013393,0 0.3013393,-0.2845982 0,-0.066964 -0.050223,-0.1841518 -0.1841518,-0.1841518 -0.2845982,0 -0.6026786,0.033482 -0.9040178,0.033482 -0.3683036,0 -0.7533483,-0.033482 -1.1049108,-0.033482 -0.066964,0 -0.2678571,0 -0.2678571,0.2845982 0,0.1841518 0.1674107,0.1841518 0.2678571,0.1841518 0.050223,0 0.3348215,0 0.5524554,0.1004464 l -3.28125,4.7712054 -0.8872768,-4.6540179 c 0,-0.033482 -0.016741,-0.1171875 -0.016741,-0.1339285 0,-0.083705 0.5357143,-0.083705 0.6026786,-0.083705 0.2176339,0 0.3850447,0 0.3850447,-0.2845982 0,-0.1339286 -0.1004465,-0.1841518 -0.217634,-0.1841518 -0.251116,0 -0.5022321,0.016741 -0.7533482,0.016741 -0.2511161,0 -0.4854911,0.016741 -0.7366071,0.016741 -0.217634,0 -0.452009,-0.016741 -0.686384,-0.016741 -0.2176339,0 -0.4520089,-0.016741 -0.65290175,-0.016741 -0.0837054,0 -0.28459821,0 -0.28459821,0.2845982 0,0.1841518 0.16741071,0.1841518 0.36830356,0.1841518 0.1339286,0 0.2511161,0 0.3850447,0 0.1171875,0.016741 0.1339285,0.033482 0.1506696,0.2008929 l 1.1383929,6.04352675 c 0.050223,0.28459822 0.1674107,0.28459822 0.3515625,0.28459822 0.2845982,0 0.3348214,-0.06696429 0.4520089,-0.25111607 z m 0,0"
         style="fill:#000000;fill-opacity:1;fill-rule:nonzero;stroke:none" />
      <path
         id="path329"
         d="m 12.175725,-2.7922991 c 0.05022,-0.1841518 0.06696,-0.2176339 0.217634,-0.234375 h 0.452009 c 0.652902,0 1.456474,0 1.456474,0.7198661 0,0.2845982 -0.133929,0.7366071 -0.46875,0.9877232 -0.284599,0.2176339 -0.719867,0.33482141 -1.205358,0.33482141 h -0.887276 z m 1.272322,1.90848214 c 0.820312,-0.18415184 1.573661,-0.68638394 1.573661,-1.32254464 0,-0.5859375 -0.719866,-1.0714286 -1.724331,-1.0714286 H 11.15452 c -0.133928,0 -0.234375,0 -0.234375,0.1506697 0,0.1004464 0.08371,0.1004464 0.234375,0.1004464 0,0 0.133929,0 0.251116,0.016741 0.15067,0.016741 0.167411,0.033482 0.167411,0.1004464 0,0.016741 0,0.050223 -0.03348,0.1506696 L 10.618808,0.94095972 C 10.551848,1.1920758 10.551848,1.242299 9.9993882,1.242299 c -0.1171875,0 -0.2008929,0 -0.2008929,0.1506696 0,0.066964 0.050223,0.1004465 0.1004464,0.1004465 0.1339283,0 0.3013393,-0.016741 0.4352683,-0.016741 0.133928,0 0.334821,-0.016741 0.46875,-0.016741 0.133928,0 0.301339,0.016741 0.435267,0.016741 0.15067,0 0.334822,0.016741 0.46875,0.016741 0.03348,0 0.15067,0 0.15067,-0.1506697 0,-0.1004464 -0.06696,-0.1004464 -0.234375,-0.1004464 -0.100446,0 -0.133928,0 -0.267857,-0.016741 -0.15067,-0.016741 -0.15067,-0.033482 -0.15067,-0.1004464 0,-0.016741 0,-0.050223 0.03348,-0.15066964 l 0.435268,-1.77455357 h 0.954241 c 0.602679,0 0.853795,0.30133929 0.853795,0.63616072 0,0.08370535 -0.06696,0.31808035 -0.100446,0.48549107 -0.08371,0.31808036 -0.100447,0.41852678 -0.100447,0.53571428 0,0.55245534 0.502232,0.77008924 1.021206,0.77008924 0.63616,0 0.920758,-0.68638388 0.920758,-0.80357138 0,-0.0167411 -0.01674,-0.10044643 -0.117187,-0.10044643 -0.08371,0 -0.100446,0.0502232 -0.133929,0.1171875 -0.08371,0.31808031 -0.351562,0.60267861 -0.63616,0.60267861 -0.184152,0 -0.318081,-0.083705 -0.318081,-0.45200896 0,-0.18415179 0.03348,-0.55245536 0.06696,-0.73660715 0.03348,-0.18415178 0.03348,-0.25111607 0.03348,-0.31808035 0,-0.08370536 0,-0.31808036 -0.200893,-0.51897322 -0.133929,-0.15066964 -0.31808,-0.234375 -0.46875,-0.30133928 z m 0,0"
         style="fill:#000000;fill-opacity:1;fill-rule:nonzero;stroke:none" />
    </g>
  </g>
</svg>
