<?xml version="1.0" encoding="UTF-8" standalone="no"?>
<!-- Created with Inkscape (http://www.inkscape.org/) -->

<svg
   version="1.1"
   id="svg1"
   width="224.91406"
   height="97.895569"
   viewBox="0 0 224.91406 97.895569"
   sodipodi:docname="CircuiTikz (8).pdf"
   xmlns:inkscape="http://www.inkscape.org/namespaces/inkscape"
   xmlns:sodipodi="http://sodipodi.sourceforge.net/DTD/sodipodi-0.dtd"
   xmlns="http://www.w3.org/2000/svg"
   xmlns:svg="http://www.w3.org/2000/svg">
  <defs
     id="defs1" />
  <sodipodi:namedview
     id="namedview1"
     pagecolor="#ffffff"
     bordercolor="#000000"
     borderopacity="0.25"
     inkscape:showpageshadow="2"
     inkscape:pageopacity="0.0"
     inkscape:pagecheckerboard="0"
     inkscape:deskcolor="#d1d1d1">
    <inkscape:page
       x="-6.0127131e-06"
       y="-1.04104e-06"
       width="224.91406"
       height="97.895569"
       id="page2"
       margin="0"
       bleed="0" />
  </sodipodi:namedview>
  <g
     id="g100"
     inkscape:groupmode="layer"
     inkscape:label="2"
     transform="translate(-1131.0625,-668.96875)">
    <path
       id="path179"
       d="m 0,0 h 79.37363 m 0,0 h 79.36779"
       style="fill:none;stroke:#000000;stroke-width:0.3985;stroke-linecap:butt;stroke-linejoin:miter;stroke-miterlimit:10;stroke-dasharray:none;stroke-opacity:1"
       transform="matrix(1.3333333,0,0,-1.3333333,1137.4853,765.11733)" />
    <path
       id="path180"
       d="M 1.11098,0 C 1.11098,0.61357 0.61357,1.11098 0,1.11098 -0.61357,1.11098 -1.11098,0.61357 -1.11098,0 c 0,-0.61357 0.49741,-1.11098 1.11098,-1.11098 0.61357,0 1.11098,0.49741 1.11098,1.11098 z"
       style="fill:#000000;fill-opacity:1;fill-rule:nonzero;stroke:#000000;stroke-width:0.3985;stroke-linecap:butt;stroke-linejoin:miter;stroke-miterlimit:10;stroke-dasharray:none;stroke-opacity:1"
       transform="matrix(1.3333333,0,0,-1.3333333,1137.4853,765.11733)" />
    <path
       id="path181"
       d="m 159.85242,0 c 0,0.61357 -0.49741,1.11098 -1.111,1.11098 -0.61358,0 -1.11099,-0.49741 -1.11099,-1.11098 0,-0.61357 0.49741,-1.11098 1.11099,-1.11098 0.61359,0 1.111,0.49741 1.111,1.11098 z"
       style="fill:#000000;fill-opacity:1;fill-rule:nonzero;stroke:#000000;stroke-width:0.3985;stroke-linecap:butt;stroke-linejoin:miter;stroke-miterlimit:10;stroke-dasharray:none;stroke-opacity:1"
       transform="matrix(1.3333333,0,0,-1.3333333,1137.4853,765.11733)" />
    <path
       id="path182"
       d="m 0,59.52802 19.84337,0.0022 m 0,0 19.84198,-0.0022 28.57595,0.0022 m 22.2246,0 28.57016,-0.0022 19.84779,0.0022 m 0,0 19.83757,-0.0022"
       style="fill:none;stroke:#000000;stroke-width:0.3985;stroke-linecap:butt;stroke-linejoin:miter;stroke-miterlimit:10;stroke-dasharray:none;stroke-opacity:1"
       transform="matrix(1.3333333,0,0,-1.3333333,1137.4853,765.11733)" />
    <path
       id="path183"
       d="M 1.11098,59.52802 C 1.11098,60.1416 0.61357,60.639 0,60.639 c -0.61357,0 -1.11098,-0.4974 -1.11098,-1.11098 0,-0.61358 0.49741,-1.111 1.11098,-1.111 0.61357,0 1.11098,0.49742 1.11098,1.111 z"
       style="fill:#000000;fill-opacity:1;fill-rule:nonzero;stroke:#000000;stroke-width:0.3985;stroke-linecap:butt;stroke-linejoin:miter;stroke-miterlimit:10;stroke-dasharray:none;stroke-opacity:1"
       transform="matrix(1.3333333,0,0,-1.3333333,1137.4853,765.11733)" />
    <path
       id="path184"
       d="m 18.62804,59.53018 v -1.38896 l 2.95155,1.38896 -2.95155,1.38896 z"
       style="fill:#000000;fill-opacity:1;fill-rule:nonzero;stroke:#000000;stroke-width:0.3985;stroke-linecap:butt;stroke-linejoin:miter;stroke-miterlimit:10;stroke-dasharray:none;stroke-opacity:1"
       transform="matrix(1.3333333,0,0,-1.3333333,1137.4853,765.11733)" />
    <g
       id="g184"
       aria-label="I&#10;S"
       transform="matrix(0.93333333,0,0,0.93333333,1158.512,681.064)">
      <path
         id="path185"
         d="m 4.3858594,-6.1623214 c 0.050223,-0.1674107 0.050223,-0.1674107 0.251116,-0.2008929 0.1506697,0 0.2845983,0 0.4352679,0 h 0.2008929 c 0.2176339,0 0.2176339,-0.016741 0.2678571,-0.050223 0.066964,-0.050223 0.1004464,-0.1841518 0.1004464,-0.234375 0,-0.1339286 -0.1004464,-0.1841518 -0.2176339,-0.1841518 -0.2511161,0 -0.5189732,0.016741 -0.7700893,0.016741 -0.2511161,0 -0.5189732,0.016741 -0.7868303,0.016741 -0.2845983,0 -0.5524554,-0.016741 -0.8370536,-0.016741 -0.2511161,0 -0.5189732,-0.016741 -0.7700893,-0.016741 -0.1004464,0 -0.2845982,0 -0.2845982,0.2845982 0,0.1841518 0.1506696,0.1841518 0.3348214,0.1841518 h 0.2176339 c 0.083705,0 0.3180804,0 0.5189733,0.016741 L 1.6235826,-0.67125 c -0.033482,0.16741071 -0.050223,0.16741071 -0.234375,0.18415179 -0.1171875,0.0167411 -0.3013393,0.0167411 -0.43526787,0.0167411 H 0.75304688 c -0.20089286,0 -0.36830358,0 -0.36830358,0.28459821 0,0.13392857 0.10044643,0.18415179 0.21763393,0.18415179 0.25111607,0 0.50223217,-0.01674107 0.75334817,-0.01674107 0.2678572,0 0.5357143,-0.01674108 0.8035715,-0.01674108 0.2845982,0 0.5524553,0.01674108 0.8370535,0.01674108 0.2511161,0 0.5022322,0.01674107 0.7533483,0.01674107 0.1004464,0 0.3013392,0 0.3013392,-0.28459822 0,-0.18415178 -0.1674107,-0.18415178 -0.3348214,-0.18415178 H 3.4985826 c -0.066964,0 -0.3850447,-0.0167411 -0.5189732,-0.0167411 z m 0,0"
         style="fill:#000000;fill-opacity:1;fill-rule:nonzero;stroke:none" />
      <path
         id="path186"
         d="m 10.822801,-3.3288951 c 0,-0.033482 -0.01674,-0.083705 -0.08371,-0.083705 -0.05022,0 -0.05022,0 -0.15067,0.1004464 L 10.2536,-2.9271091 c -0.2678572,-0.3683035 -0.7031251,-0.485491 -1.1383929,-0.485491 -0.9709822,0 -1.858259,0.7868303 -1.858259,1.5904017 0,0.1171875 0.033482,0.3850447 0.234375,0.6529018 0.234375,0.26785717 0.5022322,0.33482145 0.9709822,0.45200895 0.1339285,0.0334821 0.485491,0.10044643 0.6026785,0.13392857 0.217634,0.0502232 0.6361608,0.21763393 0.6361608,0.73660715 0,0.56919643 -0.5859375,1.22209823 -1.389509,1.22209823 -0.6026785,0 -1.3560268,-0.2176339 -1.3560268,-0.98772323 0,-0.0669643 0.016741,-0.21763393 0.050223,-0.3515625 0,-0.01674107 0,-0.03348215 0,-0.03348215 0,-0.10044642 -0.083705,-0.10044642 -0.1004465,-0.10044642 -0.1004464,0 -0.1171875,0.01674107 -0.1339285,0.15066964 L 6.4198996,1.4423103 c -0.016741,0.033482 -0.033482,0.066964 -0.033482,0.1004464 0,0.050223 0.033482,0.083705 0.1004464,0.083705 0.050223,0 0.050223,0 0.1339286,-0.083705 0.083705,-0.1004464 0.2678572,-0.3180804 0.3348214,-0.4017857 0.3850447,0.4017857 0.920759,0.4854911 1.3392858,0.4854911 1.0546875,0 1.9084822,-0.9040179 1.9084822,-1.7243304 0,-0.30133929 -0.133929,-0.5859375 -0.2845983,-0.75334822 C 9.6844085,-1.1023326 9.567221,-1.1190737 8.6799442,-1.3367076 8.5292746,-1.3701897 8.2948996,-1.4204129 8.2279353,-1.4538951 c -0.1674107,-0.050223 -0.46875,-0.234375 -0.46875,-0.6361607 0,-0.5357143 0.6361607,-1.1049107 1.3560268,-1.1049107 0.7533482,0 1.1216519,0.4352678 1.1216519,1.0881696 0,0.1004465 -0.03348,0.2511161 -0.03348,0.3180804 0,0.1004464 0.08371,0.1004464 0.117187,0.1004464 0.100447,0 0.117188,-0.033482 0.133929,-0.1506696 z m 0,0"
         style="fill:#000000;fill-opacity:1;fill-rule:nonzero;stroke:none" />
    </g>
    <path
       id="path187"
       d="M 90.48259,55.36105 H 68.25882 v 8.33394 h 22.22377 z"
       style="fill:none;stroke:#000000;stroke-width:0.797;stroke-linecap:butt;stroke-linejoin:miter;stroke-miterlimit:10;stroke-dasharray:none;stroke-opacity:1"
       transform="matrix(1.3333333,0,0,-1.3333333,1137.4853,765.11733)" />
    <path
       id="path188"
       d="m 7.8693862,-6.3604464 c 0.083705,-0.083705 0.1506696,-0.2008929 0.1506696,-0.3348215 0,-0.1339285 -0.1171875,-0.1339285 -0.2845982,-0.1339285 H 2.914029 c -0.2511161,0 -0.3013393,0 -0.3683036,0.234375 l -0.5357142,1.7912946 c -0.050223,0.1506697 -0.050223,0.1674107 -0.050223,0.2008929 0,0.1674107 0.1674108,0.1674107 0.217634,0.1674107 0.1506696,0 0.2008928,-0.033482 0.251116,-0.1674107 0.4352679,-1.2555804 1.1886161,-1.7578125 2.561384,-1.7578125 h 1.3392857 l -5.47433037,5.8426339 c -0.0837054,0.0837054 -0.18415178,0.18415179 -0.18415178,0.38504464 0,0.13392857 0.10044643,0.13392857 0.30133928,0.13392857 H 5.960904 c 0.2511161,0 0.2845982,0 0.3515625,-0.234375 L 7.0490737,-2.51 c 0.033482,-0.1004464 0.033482,-0.1339286 0.033482,-0.1339286 0,-0.1506696 -0.1339286,-0.1841518 -0.234375,-0.1841518 -0.066964,0 -0.1674107,0 -0.2176339,0.1339286 -0.4352679,1.2555804 -0.9040179,2.19308037 -2.795759,2.19308037 h -1.439732 z m 0,0"
       style="fill:#000000;fill-opacity:1;fill-rule:nonzero;stroke:none"
       aria-label="Z"
       transform="matrix(0.93333333,0,0,0.93333333,1239.4013,675.34267)" />
    <path
       id="path189"
       d="m 159.85242,59.52802 c 0,0.61358 -0.49741,1.11098 -1.111,1.11098 -0.61358,0 -1.11099,-0.4974 -1.11099,-1.11098 0,-0.61358 0.49741,-1.111 1.11099,-1.111 0.61359,0 1.111,0.49742 1.111,1.111 z"
       style="fill:#000000;fill-opacity:1;fill-rule:nonzero;stroke:#000000;stroke-width:0.3985;stroke-linecap:butt;stroke-linejoin:miter;stroke-miterlimit:10;stroke-dasharray:none;stroke-opacity:1"
       transform="matrix(1.3333333,0,0,-1.3333333,1137.4853,765.11733)" />
    <path
       id="path190"
       d="m 137.68852,59.53018 v -1.38896 l 2.95156,1.38896 -2.95156,1.38896 z"
       style="fill:#000000;fill-opacity:1;fill-rule:nonzero;stroke:#000000;stroke-width:0.3985;stroke-linecap:butt;stroke-linejoin:miter;stroke-miterlimit:10;stroke-dasharray:none;stroke-opacity:1"
       transform="matrix(1.3333333,0,0,-1.3333333,1137.4853,765.11733)" />
    <g
       id="g190"
       aria-label="I&#10;R"
       transform="matrix(0.93333333,0,0,0.93333333,1316.904,681.064)">
      <path
         id="path191"
         d="m 4.3843862,-6.1623214 c 0.050223,-0.1674107 0.050223,-0.1674107 0.251116,-0.2008929 0.1506697,0 0.2845982,0 0.4352679,0 h 0.2008928 c 0.217634,0 0.217634,-0.016741 0.2678572,-0.050223 0.066964,-0.050223 0.1004464,-0.1841518 0.1004464,-0.234375 0,-0.1339286 -0.1004464,-0.1841518 -0.2176339,-0.1841518 -0.2511161,0 -0.5189732,0.016741 -0.7700893,0.016741 -0.2511161,0 -0.5189732,0.016741 -0.7868304,0.016741 -0.2845982,0 -0.5524553,-0.016741 -0.8370535,-0.016741 -0.2511161,0 -0.5189732,-0.016741 -0.7700893,-0.016741 -0.1004464,0 -0.2845982,0 -0.2845982,0.2845982 0,0.1841518 0.1506696,0.1841518 0.3348214,0.1841518 h 0.2176339 c 0.083705,0 0.3180804,0 0.5189732,0.016741 L 1.6221094,-0.67125 c -0.033482,0.16741071 -0.050223,0.16741071 -0.234375,0.18415179 -0.1171875,0.0167411 -0.3013393,0.0167411 -0.43526788,0.0167411 H 0.75157366 c -0.20089286,0 -0.36830357,0 -0.36830357,0.28459821 0,0.13392857 0.10044643,0.18415179 0.21763393,0.18415179 0.25111607,0 0.50223218,-0.01674107 0.75334818,-0.01674107 0.2678572,0 0.5357143,-0.01674108 0.8035715,-0.01674108 0.2845982,0 0.5524553,0.01674108 0.8370535,0.01674108 0.2511161,0 0.5022322,0.01674107 0.7533482,0.01674107 0.1004465,0 0.3013393,0 0.3013393,-0.28459822 0,-0.18415178 -0.1674107,-0.18415178 -0.3348214,-0.18415178 H 3.4971094 c -0.066964,0 -0.3850447,-0.0167411 -0.5189732,-0.0167411 z m 0,0"
         style="fill:#000000;fill-opacity:1;fill-rule:nonzero;stroke:none" />
      <path
         id="path192"
         d="m 8.7454353,-2.7931808 c 0.050223,-0.1841518 0.066964,-0.2176339 0.2176339,-0.234375 h 0.4520089 c 0.6529019,0 1.4564729,0 1.4564729,0.7198661 0,0.2845982 -0.133928,0.7366071 -0.46875,0.9877232 -0.284598,0.2176339 -0.7198657,0.33482141 -1.2053568,0.33482141 H 8.3101674 Z m 1.2723217,1.90848214 c 0.820312,-0.18415174 1.57366,-0.68638394 1.57366,-1.32254464 0,-0.5859375 -0.719866,-1.0714286 -1.7243299,-1.0714286 H 7.7242299 c -0.1339286,0 -0.234375,0 -0.234375,0.1506697 0,0.1004464 0.083705,0.1004464 0.234375,0.1004464 0,0 0.1339286,0 0.2511161,0.016741 0.1506696,0.016741 0.1674107,0.033482 0.1674107,0.1004464 0,0.016741 0,0.050223 -0.033482,0.1506696 L 7.1885156,0.94007812 C 7.1215513,1.1911942 7.1215513,1.2414174 6.569096,1.2414174 c -0.1171875,0 -0.2008929,0 -0.2008929,0.1506697 0,0.066964 0.050223,0.1004464 0.1004465,0.1004464 0.1339285,0 0.3013392,-0.016741 0.4352678,-0.016741 0.1339286,0 0.3348214,-0.016741 0.46875,-0.016741 0.1339286,0 0.3013393,0.016741 0.4352679,0.016741 0.1506696,0 0.3348214,0.016741 0.46875,0.016741 0.033482,0 0.1506696,0 0.1506696,-0.1506697 0,-0.1004464 -0.066964,-0.1004464 -0.234375,-0.1004464 -0.1004464,0 -0.1339286,0 -0.2678571,-0.016741 C 7.7744531,1.2079354 7.7744531,1.1911944 7.7744531,1.12423 c 0,-0.016741 0,-0.050223 0.033482,-0.15066963 l 0.435268,-1.77455367 h 0.9542411 c 0.6026786,0 0.8537948,0.30133928 0.8537948,0.63616071 0,0.08370536 -0.066964,0.31808036 -0.1004466,0.48549107 -0.083705,0.31808036 -0.1004464,0.41852679 -0.1004464,0.53571429 0,0.55245533 0.502232,0.77008933 1.021205,0.77008933 0.636161,0 0.920759,-0.68638398 0.920759,-0.80357148 0,-0.0167411 -0.01674,-0.10044642 -0.117187,-0.10044642 -0.08371,0 -0.100447,0.0502232 -0.133929,0.1171875 -0.08371,0.3180804 -0.351562,0.6026786 -0.636161,0.6026786 -0.184151,0 -0.31808,-0.083705 -0.31808,-0.45200896 0,-0.18415179 0.03348,-0.55245536 0.06696,-0.73660714 0.03348,-0.18415179 0.03348,-0.25111608 0.03348,-0.31808036 0,-0.08370536 0,-0.31808036 -0.200893,-0.51897322 -0.133929,-0.15066964 -0.318081,-0.234375 -0.46875,-0.30133928 z m 0,0"
         style="fill:#000000;fill-opacity:1;fill-rule:nonzero;stroke:none" />
    </g>
    <path
       id="path193"
       d="m 4.0699665,-2.2944754 h 2.7790179 c 0.1506696,0 0.3348214,0 0.3348214,-0.2008929 0,-0.2008929 -0.1841518,-0.2008929 -0.3348214,-0.2008929 H 4.0699665 V -5.475279 c 0,-0.1506697 0,-0.3348214 -0.2008928,-0.3348214 -0.1841518,0 -0.1841518,0.1841517 -0.1841518,0.3348214 v 2.7790178 H 0.88916295 c -0.13392857,0 -0.33482143,0 -0.33482143,0.2008929 0,0.2008929 0.20089286,0.2008929 0.33482143,0.2008929 H 3.6849219 v 2.79575888 c 0,0.13392857 0,0.31808036 0.1841518,0.31808036 0.2008928,0 0.2008928,-0.18415179 0.2008928,-0.31808036 z m 0,0"
       style="fill:#000000;fill-opacity:1;fill-rule:nonzero;stroke:none"
       aria-label="+"
       transform="matrix(0.93333333,0,0,0.93333333,1133.8693,699.92667)" />
    <path
       id="path194"
       d="m 6.5643862,-2.2942076 c 0.1674107,0 0.3515625,0 0.3515625,-0.2008928 0,-0.2008929 -0.1841518,-0.2008929 -0.3515625,-0.2008929 h -5.390625 c -0.1674108,0 -0.35156254,0 -0.35156254,0.2008929 0,0.2008928 0.18415174,0.2008928 0.35156254,0.2008928 z m 0,0"
       style="fill:#000000;fill-opacity:1;fill-rule:nonzero;stroke:none"
       aria-label="−"
       transform="matrix(0.93333333,0,0,0.93333333,1133.8693,755.58267)" />
    <g
       id="g194"
       aria-label="V&#10;S"
       transform="matrix(0.93333333,0,0,0.93333333,1130.4533,727.92267)">
      <path
         id="path195"
         d="m 7.5667411,-5.9606696 c 0.1506696,-0.217634 0.2678571,-0.4017858 0.954241,-0.4017858 0.1171875,0 0.3013393,0 0.3013393,-0.2845982 0,-0.066964 -0.050223,-0.1841518 -0.1841518,-0.1841518 -0.2845982,0 -0.6026785,0.033482 -0.9040178,0.033482 -0.3683036,0 -0.7533482,-0.033482 -1.1049107,-0.033482 -0.066964,0 -0.2678572,0 -0.2678572,0.2845983 0,0.1841517 0.1674107,0.1841517 0.2678572,0.1841517 0.050223,0 0.3348214,0 0.5524553,0.1004465 l -3.28125,4.7712053 -0.8872768,-4.6540178 c 0,-0.033482 -0.016741,-0.1171875 -0.016741,-0.1339286 0,-0.083705 0.5357143,-0.083705 0.6026785,-0.083705 0.217634,0 0.3850447,0 0.3850447,-0.2845982 0,-0.1339285 -0.1004464,-0.1841518 -0.2176339,-0.1841518 -0.2511161,0 -0.5022322,0.016741 -0.7533483,0.016741 -0.251116,0 -0.485491,0.016741 -0.7366071,0.016741 -0.2176339,0 -0.4520089,-0.016741 -0.6863839,-0.016741 -0.217634,0 -0.452009,-0.016741 -0.65290181,-0.016741 -0.0837054,0 -0.28459822,0 -0.28459822,0.2845983 0,0.1841517 0.16741072,0.1841517 0.36830353,0.1841517 0.1339286,0 0.2511161,0 0.3850447,0 0.1171875,0.016741 0.1339286,0.033482 0.1506696,0.2008929 l 1.1383929,6.04352679 C 2.7453125,0.1665625 2.8625,0.1665625 3.0466518,0.1665625 c 0.2845982,0 0.3348214,-0.06696429 0.4520089,-0.25111607 z m 0,0"
         style="fill:#000000;fill-opacity:1;fill-rule:nonzero;stroke:none" />
      <path
         id="path196"
         d="m 14.254799,-3.3281362 c 0,-0.033482 -0.01674,-0.083705 -0.08371,-0.083705 -0.05022,0 -0.05022,0 -0.15067,0.1004464 l -0.334821,0.3850447 c -0.267857,-0.3683036 -0.703125,-0.4854911 -1.138393,-0.4854911 -0.970982,0 -1.858259,0.7868303 -1.858259,1.5904018 0,0.1171875 0.03348,0.3850446 0.234375,0.6529018 0.234375,0.2678571 0.502232,0.33482138 0.970982,0.45200888 0.133929,0.0334821 0.485491,0.10044643 0.602679,0.13392857 0.217634,0.0502232 0.63616,0.21763393 0.63616,0.73660715 0,0.56919643 -0.585937,1.2220982 -1.389509,1.2220982 -0.602678,0 -1.356026,-0.2176339 -1.356026,-0.9877232 0,-0.0669643 0.01674,-0.21763393 0.05022,-0.3515625 0,-0.01674107 0,-0.03348215 0,-0.03348215 0,-0.10044642 -0.08371,-0.10044642 -0.100447,-0.10044642 -0.100446,0 -0.117187,0.01674107 -0.133928,0.15066964 L 9.8518973,1.4430692 c -0.016741,0.033482 -0.033482,0.066964 -0.033482,0.1004464 0,0.050223 0.033482,0.083705 0.1004464,0.083705 0.050223,0 0.050223,0 0.1339283,-0.083705 0.08371,-0.1004464 0.267857,-0.3180803 0.334822,-0.4017857 0.385044,0.4017857 0.920759,0.4854911 1.339285,0.4854911 1.054688,0 1.908482,-0.90401787 1.908482,-1.72433037 0,-0.30133929 -0.133928,-0.5859375 -0.284598,-0.75334822 -0.234375,-0.25111611 -0.351562,-0.26785711 -1.238839,-0.48549111 -0.15067,-0.033482 -0.385045,-0.083705 -0.452009,-0.1171875 -0.167411,-0.050223 -0.46875,-0.234375 -0.46875,-0.6361607 0,-0.5357143 0.636161,-1.1049107 1.356027,-1.1049107 0.753348,0 1.121652,0.4352679 1.121652,1.0881697 0,0.1004464 -0.03348,0.251116 -0.03348,0.3180803 0,0.1004464 0.08371,0.1004464 0.117188,0.1004464 0.100446,0 0.117187,-0.033482 0.133929,-0.1506696 z m 0,0"
         style="fill:#000000;fill-opacity:1;fill-rule:nonzero;stroke:none" />
    </g>
    <path
       id="path197"
       d="m 4.0685045,-2.2944754 h 2.7790178 c 0.1506697,0 0.3348215,0 0.3348215,-0.2008929 0,-0.2008929 -0.1841518,-0.2008929 -0.3348215,-0.2008929 H 4.0685045 V -5.475279 c 0,-0.1506697 0,-0.3348214 -0.2008929,-0.3348214 -0.1841518,0 -0.1841518,0.1841517 -0.1841518,0.3348214 v 2.7790178 H 0.88770089 c -0.13392857,0 -0.33482143,0 -0.33482143,0.2008929 0,0.2008929 0.20089286,0.2008929 0.33482143,0.2008929 H 3.6834598 v 2.79575888 c 0,0.13392857 0,0.31808036 0.1841518,0.31808036 0.2008929,0 0.2008929,-0.18415179 0.2008929,-0.31808036 z m 0,0"
       style="fill:#000000;fill-opacity:1;fill-rule:nonzero;stroke:none"
       aria-label="+"
       transform="matrix(0.93333333,0,0,0.93333333,1345.5387,699.92667)" />
    <path
       id="path198"
       d="m 6.5629241,-2.2942076 c 0.1674107,0 0.3515625,0 0.3515625,-0.2008928 0,-0.2008929 -0.1841518,-0.2008929 -0.3515625,-0.2008929 h -5.390625 c -0.1674107,0 -0.35156249,0 -0.35156249,0.2008929 0,0.2008928 0.18415179,0.2008928 0.35156249,0.2008928 z m 0,0"
       style="fill:#000000;fill-opacity:1;fill-rule:nonzero;stroke:none"
       aria-label="−"
       transform="matrix(0.93333333,0,0,0.93333333,1345.5387,755.58267)" />
    <g
       id="g198"
       aria-label="V&#10;R"
       transform="matrix(0.93333333,0,0,0.93333333,1341.7653,727.92267)">
      <path
         id="path199"
         d="m 7.5672768,-5.9606696 c 0.1506696,-0.217634 0.2678571,-0.4017858 0.9542411,-0.4017858 0.1171875,0 0.3013392,0 0.3013392,-0.2845982 0,-0.066964 -0.050223,-0.1841518 -0.1841517,-0.1841518 -0.2845983,0 -0.6026786,0.033482 -0.9040179,0.033482 -0.3683036,0 -0.7533482,-0.033482 -1.1049107,-0.033482 -0.066964,0 -0.2678572,0 -0.2678572,0.2845983 0,0.1841517 0.1674108,0.1841517 0.2678572,0.1841517 0.050223,0 0.3348214,0 0.5524553,0.1004465 l -3.28125,4.7712053 -0.8872767,-4.6540178 c 0,-0.033482 -0.016741,-0.1171875 -0.016741,-0.1339286 0,-0.083705 0.5357143,-0.083705 0.6026786,-0.083705 0.2176339,0 0.3850446,0 0.3850446,-0.2845982 0,-0.1339285 -0.1004464,-0.1841518 -0.2176339,-0.1841518 -0.2511161,0 -0.5022322,0.016741 -0.7533482,0.016741 -0.2511161,0 -0.4854911,0.016741 -0.7366072,0.016741 -0.2176339,0 -0.4520089,-0.016741 -0.6863839,-0.016741 -0.2176339,0 -0.4520089,-0.016741 -0.6529018,-0.016741 -0.0837054,0 -0.28459821,0 -0.28459821,0.2845983 0,0.1841517 0.16741071,0.1841517 0.36830361,0.1841517 0.1339285,0 0.251116,0 0.3850446,0 0.1171875,0.016741 0.1339286,0.033482 0.1506696,0.2008929 l 1.1383929,6.04352679 c 0.050223,0.28459821 0.1674107,0.28459821 0.3515625,0.28459821 0.2845982,0 0.3348214,-0.06696429 0.4520089,-0.25111607 z m 0,0"
         style="fill:#000000;fill-opacity:1;fill-rule:nonzero;stroke:none" />
      <path
         id="path200"
         d="m 12.179442,-2.7924219 c 0.05022,-0.1841518 0.06696,-0.2176339 0.217634,-0.234375 h 0.452009 c 0.652902,0 1.456473,0 1.456473,0.7198661 0,0.2845982 -0.133929,0.7366071 -0.46875,0.9877232 -0.284598,0.2176339 -0.719866,0.33482144 -1.205357,0.33482144 h -0.887277 z m 1.272321,1.90848217 c 0.820313,-0.18415177 1.573661,-0.68638397 1.573661,-1.32254467 0,-0.5859375 -0.719866,-1.0714285 -1.72433,-1.0714285 h -2.142857 c -0.133929,0 -0.234375,0 -0.234375,0.1506696 0,0.1004464 0.08371,0.1004464 0.234375,0.1004464 0,0 0.133928,0 0.251116,0.016741 0.150669,0.016741 0.16741,0.033482 0.16741,0.1004464 0,0.016741 0,0.050223 -0.03348,0.1506697 l -0.920759,3.69977675 c -0.06696,0.25111605 -0.06696,0.30133925 -0.619419,0.30133925 -0.1171878,0 -0.2008932,0 -0.2008932,0.1506697 0,0.066964 0.050223,0.1004464 0.1004465,0.1004464 0.1339287,0 0.3013397,-0.016741 0.4352677,-0.016741 0.133929,0 0.334822,-0.016741 0.46875,-0.016741 0.133929,0 0.301339,0.016741 0.435268,0.016741 0.15067,0 0.334821,0.016741 0.46875,0.016741 0.03348,0 0.15067,0 0.15067,-0.1506696 0,-0.1004465 -0.06696,-0.1004465 -0.234375,-0.1004465 -0.100447,0 -0.133929,0 -0.267858,-0.016741 -0.150669,-0.016741 -0.150669,-0.033482 -0.150669,-0.1004465 0,-0.016741 0,-0.050223 0.03348,-0.1506696 l 0.435268,-1.77455357 h 0.954241 c 0.602678,0 0.853795,0.30133928 0.853795,0.63616071 0,0.08370536 -0.06696,0.31808036 -0.100447,0.48549107 -0.0837,0.31808036 -0.100446,0.41852679 -0.100446,0.53571429 0,0.5524554 0.502232,0.7700893 1.021205,0.7700893 0.636161,0 0.920759,-0.68638395 0.920759,-0.80357145 0,-0.0167411 -0.01674,-0.10044642 -0.117188,-0.10044642 -0.08371,0 -0.100446,0.0502232 -0.133928,0.1171875 -0.08371,0.31808037 -0.351563,0.60267857 -0.636161,0.60267857 -0.184152,0 -0.31808,-0.083705 -0.31808,-0.45200893 0,-0.18415179 0.03348,-0.55245536 0.06696,-0.73660714 0.03348,-0.18415179 0.03348,-0.25111608 0.03348,-0.31808036 0,-0.08370536 0,-0.31808036 -0.200893,-0.51897322 -0.133928,-0.15066964 -0.31808,-0.234375 -0.46875,-0.30133928 z m 0,0"
         style="fill:#000000;fill-opacity:1;fill-rule:nonzero;stroke:none" />
    </g>
  </g>
</svg>
