<?xml version="1.0" encoding="UTF-8" standalone="no"?>
<!-- Created with Inkscape (http://www.inkscape.org/) -->

<svg
   version="1.1"
   id="svg1"
   width="410.89062"
   height="113.21875"
   viewBox="0 0 410.89062 113.21875"
   sodipodi:docname="CircuiTikz (29).pdf"
   xmlns:inkscape="http://www.inkscape.org/namespaces/inkscape"
   xmlns:sodipodi="http://sodipodi.sourceforge.net/DTD/sodipodi-0.dtd"
   xmlns="http://www.w3.org/2000/svg"
   xmlns:svg="http://www.w3.org/2000/svg">
  <defs
     id="defs1" />
  <sodipodi:namedview
     id="namedview1"
     pagecolor="#ffffff"
     bordercolor="#000000"
     borderopacity="0.25"
     inkscape:showpageshadow="2"
     inkscape:pageopacity="0.0"
     inkscape:pagecheckerboard="0"
     inkscape:deskcolor="#d1d1d1">
    <inkscape:page
       x="-7.7158993e-06"
       y="0"
       width="410.89062"
       height="113.21875"
       id="page2"
       margin="0"
       bleed="0" />
  </sodipodi:namedview>
  <g
     id="g323"
     inkscape:groupmode="layer"
     inkscape:label="4"
     transform="translate(-2709.9219,-681.03906)">
    <path
       id="path452"
       d="m -8.49313,25.4002 c 2.30125,0 4.16676,-1.8953 4.16676,-4.23336 0,-2.33804 -1.86551,-4.23335 -4.16676,-4.23335 2.30125,0 4.16676,-1.89531 4.16676,-4.23336 0,-2.33804 -1.86551,-4.23335 -4.16676,-4.23335 2.30125,0 4.16676,-1.89531 4.16676,-4.23335 0,-2.33806 -1.86551,-4.23337 -4.16676,-4.23337 2.30125,0 4.16676,-1.89528 4.16676,-4.23334 0,-2.33804 -1.86551,-4.23335 -4.16676,-4.23335 2.30125,0 4.16676,-1.89531 4.16676,-4.23335 0,-2.33806 -1.86551,-4.23335 -4.16676,-4.23335 2.30125,0 4.16676,-1.89531 4.16676,-4.23337 0,-2.33805 -1.86551,-4.23335 -4.16676,-4.23335"
       style="fill:none;stroke:#000000;stroke-width:0.797;stroke-linecap:butt;stroke-linejoin:bevel;stroke-miterlimit:10;stroke-dasharray:none;stroke-opacity:1"
       transform="matrix(1.3333333,0,0,-1.3333333,2955.1867,737.472)" />
    <path
       id="path453"
       d="m 8.49313,-25.4002 c -2.30125,0 -4.16676,1.8953 -4.16676,4.23336 0,2.33804 1.86551,4.23335 4.16676,4.23335 -2.30125,0 -4.16676,1.89531 -4.16676,4.23336 0,2.33804 1.86551,4.23335 4.16676,4.23335 -2.30125,0 -4.16676,1.89531 -4.16676,4.23335 0,2.33806 1.86551,4.23337 4.16676,4.23337 -2.30125,0 -4.16676,1.89528 -4.16676,4.23334 0,2.33804 1.86551,4.23335 4.16676,4.23335 -2.30125,0 -4.16676,1.89531 -4.16676,4.23335 0,2.33806 1.86551,4.23335 4.16676,4.23335 -2.30125,0 -4.16676,1.89531 -4.16676,4.23337 0,2.33805 1.86551,4.23335 4.16676,4.23335"
       style="fill:none;stroke:#000000;stroke-width:0.797;stroke-linecap:butt;stroke-linejoin:bevel;stroke-miterlimit:10;stroke-dasharray:none;stroke-opacity:1"
       transform="matrix(1.3333333,0,0,-1.3333333,2955.1867,737.472)" />
    <path
       id="path454"
       d="m -20.83472,29.76382 h 12.50098 l -1.4e-4,-4.76167 m 0,-50.0043 1.4e-4,-4.76167 H -20.83472 M 20.83472,29.76382 H 8.33374 l 1.4e-4,-4.76167 m 0,-50.0043 -1.4e-4,-4.76167 h 12.50098"
       style="fill:none;stroke:#000000;stroke-width:0.3985;stroke-linecap:butt;stroke-linejoin:miter;stroke-miterlimit:10;stroke-dasharray:none;stroke-opacity:1"
       transform="matrix(1.3333333,0,0,-1.3333333,2955.1867,737.472)" />
    <path
       id="path455"
       d="M 1.04146,-14.8819 V 14.8819 M -1.04146,-14.8819 V 14.8819"
       style="fill:none;stroke:#000000;stroke-width:0.797;stroke-linecap:butt;stroke-linejoin:miter;stroke-miterlimit:10;stroke-dasharray:none;stroke-opacity:1"
       transform="matrix(1.3333333,0,0,-1.3333333,2955.1867,737.472)" />
    <path
       id="path456"
       d="m -20.8351,29.76436 -29.76585,0.0011 m 0,0 -29.76218,-0.0011 -8.73407,0.0011 m -22.22458,0 -8.72672,-0.0011 -8.73551,0.0011 m -22.22459,0 -8.72526,-0.0011 -9.92758,0.0011 m 0,0 -9.91508,-0.0011"
       style="fill:none;stroke:#000000;stroke-width:0.3985;stroke-linecap:butt;stroke-linejoin:miter;stroke-miterlimit:10;stroke-dasharray:none;stroke-opacity:1"
       transform="matrix(1.3333333,0,0,-1.3333333,2955.1867,737.472)" />
    <path
       id="path457"
       d="m -88.6954,29.60497 c 0,2.30125 -1.28833,4.16676 -2.8776,4.16676 -1.58926,0 -2.87759,-1.86551 -2.87759,-4.16676 0,2.30125 -1.28835,4.16676 -2.87761,4.16676 -1.58925,0 -2.8776,-1.86551 -2.8776,-4.16676 0,2.30125 -1.28833,4.16676 -2.87759,4.16676 -1.58926,0 -2.87759,-1.86551 -2.87759,-4.16676 0,2.30125 -1.28835,4.16676 -2.87762,4.16676 -1.58924,0 -2.87759,-1.86551 -2.87759,-4.16676"
       style="fill:none;stroke:#000000;stroke-width:0.797;stroke-linecap:butt;stroke-linejoin:bevel;stroke-miterlimit:10;stroke-dasharray:none;stroke-opacity:1"
       transform="matrix(1.3333333,0,0,-1.3333333,2955.1867,737.472)" />
    <g
       id="g457"
       aria-label="X&#10;1"
       transform="matrix(0.93333333,0,0,0.93333333,2815.636,687.384)">
      <path
         id="path458"
         d="M 4.8389397,-4.1028348 4.0018862,-6.0782813 c -0.033482,-0.083705 -0.050223,-0.1171875 -0.050223,-0.1339285 0,-0.050223 0.1674108,-0.2511161 0.5859375,-0.2845982 0.1004465,-0.016741 0.2008929,-0.016741 0.2008929,-0.1841518 0,-0.1171875 -0.1339286,-0.1171875 -0.1506696,-0.1171875 -0.4185268,0 -0.8370536,0.016741 -1.2555804,0.016741 -0.2511161,0 -0.8705357,-0.016741 -1.1216518,-0.016741 -0.050223,0 -0.1841518,0 -0.1841518,0.2008928 0,0.1004465 0.1004465,0.1004465 0.234375,0.1004465 0.6026786,0 0.6529018,0.1004464 0.7533482,0.3180803 l 1.171875,2.7790179 -2.109375,2.2600446 -0.1171875,0.1171875 c -0.5022321,0.51897324 -0.954241,0.68638395 -1.47321424,0.71986609 -0.13392857,0 -0.21763393,0 -0.21763393,0.18415179 0,0.0167411 0,0.1171875 0.13392857,0.1171875 0.30133929,0 0.6194196,-0.03348214 0.9375,-0.03348214 0.3683036,0 0.7533482,0.03348214 1.1049107,0.03348214 0.066964,0 0.1841518,0 0.1841518,-0.20089286 0,-0.10044643 -0.1004464,-0.10044643 -0.1171875,-0.10044643 -0.083705,-0.0167411 -0.4017857,-0.0334821 -0.4017857,-0.31808035 0,-0.15066965 0.1506696,-0.31808036 0.2678571,-0.45200894 L 3.3992079,-2.1441295 4.2864847,-3.1151116 5.30769,-0.73787946 c 0.033482,0.1171875 0.050223,0.1171875 0.050223,0.13392857 0,0.0837054 -0.2008928,0.25111607 -0.5859375,0.30133928 -0.1171875,0 -0.2008928,0.0167411 -0.2008928,0.18415179 0,0.1171875 0.1171875,0.1171875 0.1506696,0.1171875 0.2845982,0 0.9709822,-0.03348214 1.2555804,-0.03348214 0.2511161,0 0.8537946,0.03348214 1.1049107,0.03348214 0.066964,0 0.1841518,0 0.1841518,-0.18415179 0,-0.1171875 -0.1004464,-0.1171875 -0.1674107,-0.1171875 C 6.4293415,-0.31935268 6.4126004,-0.35283482 6.2284487,-0.75462054 5.843404,-1.6753795 5.1737612,-3.2322991 4.9561272,-3.8182366 c 0.6696429,-0.703125 1.7243304,-1.8917411 2.0424107,-2.1763393 0.2845983,-0.234375 0.6696429,-0.46875 1.2555804,-0.5022321 0.1339286,-0.016741 0.2176339,-0.016741 0.2176339,-0.2008929 0,0 0,-0.1004464 -0.1171875,-0.1004464 -0.3013393,0 -0.6361607,0.016741 -0.9375,0.016741 -0.3683035,0 -0.7533482,-0.016741 -1.1049107,-0.016741 -0.066964,0 -0.2008928,0 -0.2008928,0.2008928 0,0.066964 0.050223,0.083705 0.1171875,0.1004465 0.1004464,0.016741 0.4017857,0.033482 0.4017857,0.3180803 0,0.1339286 -0.1004465,0.2678572 -0.1841518,0.3515625 z m 0,0"
         style="fill:#000000;fill-opacity:1;fill-rule:nonzero;stroke:none" />
      <path
         id="path459"
         d="m 10.597868,-2.9435156 c 0,-0.1841518 -0.01674,-0.2008929 -0.217634,-0.2008929 -0.4520086,0.4352679 -1.0714282,0.4520089 -1.3727675,0.4520089 v 0.2511161 c 0.1674107,0 0.6361607,0 1.0212055,-0.2008928 v 3.56584817 c 0,0.23437503 0,0.31808033 -0.7031251,0.31808033 H 9.0576897 v 0.2511161 c 0.1339286,0 0.9877233,-0.033482 1.2555803,-0.033482 0.217634,0 1.08817,0.033482 1.238839,0.033482 V 1.2417522 h -0.267857 c -0.686384,0 -0.686384,-0.083705 -0.686384,-0.31808033 z m 0,0"
         style="fill:#000000;fill-opacity:1;fill-rule:nonzero;stroke:none" />
    </g>
    <path
       id="path460"
       d="m -128.38077,29.76436 -2.28369,-4.16698 -3.77037,8.33394 -3.77037,-8.33394 -3.77037,8.33394 -3.77039,-8.33394 -3.77035,8.33394 -1.88519,-4.16696"
       style="fill:none;stroke:#000000;stroke-width:0.797;stroke-linecap:butt;stroke-linejoin:bevel;stroke-miterlimit:10;stroke-dasharray:none;stroke-opacity:1"
       transform="matrix(1.3333333,0,0,-1.3333333,2955.1867,737.472)" />
    <g
       id="g460"
       aria-label="R&#10;1"
       transform="matrix(0.93333333,0,0,0.93333333,2763.0413,687.384)">
      <path
         id="path461"
         d="m 3.7350112,-6.1117634 c 0.066964,-0.2511161 0.083705,-0.3515625 0.2845982,-0.3683036 0.083705,-0.016741 0.4017857,-0.016741 0.6026785,-0.016741 0.703125,0 1.8080358,0 1.8080358,0.9877232 0,0.3348214 -0.1506697,1.0212053 -0.5357143,1.40625 -0.2678572,0.2678571 -0.7868304,0.5859375 -1.6908482,0.5859375 H 3.0821094 Z m 1.4397321,2.7287946 c 1.0044643,-0.2176339 2.1930804,-0.9207589 2.1930804,-1.9252232 0,-0.8537946 -0.9040179,-1.4899553 -2.2098215,-1.4899553 h -2.829241 c -0.2008929,0 -0.3013393,0 -0.3013393,0.2008928 0,0.1004465 0.1004464,0.1004465 0.2845982,0.1004465 0.016741,0 0.2176339,0 0.3850446,0.016741 0.1674107,0.016741 0.2678572,0.033482 0.2678572,0.1674107 0,0.033482 -0.016741,0.066964 -0.050223,0.1841518 L 1.592154,-0.77136161 c -0.1004464,0.38504465 -0.1339286,0.46875 -0.92075891,0.46875 -0.16741071,0 -0.26785714,0 -0.26785714,0.18415179 0,0.1171875 0.13392857,0.1171875 0.15066964,0.1171875 0.26785714,0 0.97098211,-0.03348214 1.25558031,-0.03348214 0.2678572,0 0.9877233,0.03348214 1.2555804,0.03348214 0.083705,0 0.2008929,0 0.2008929,-0.20089286 0,-0.10044643 -0.083705,-0.10044643 -0.2678572,-0.10044643 -0.3850446,0 -0.6529018,0 -0.6529018,-0.18415178 0,-0.0669643 0.016741,-0.1171875 0.033482,-0.16741072 l 0.652902,-2.64508929 h 1.188616 c 0.9040179,0 1.0881697,0.5524554 1.0881697,0.9040179 0,0.1506696 -0.083705,0.46875 -0.1506697,0.6863839 -0.066964,0.2845982 -0.1506696,0.6529018 -0.1506696,0.85379464 0,1.07142857 1.1886161,1.07142857 1.3225446,1.07142857 0.8370536,0 1.1886161,-1.00446429 1.1886161,-1.13839286 0,-0.11718755 -0.1004464,-0.11718755 -0.1171875,-0.11718755 -0.083705,0 -0.1004464,0.0669643 -0.1339286,0.13392862 -0.251116,0.73660714 -0.6696428,0.90401786 -0.9040178,0.90401786 -0.3180804,0 -0.4017857,-0.21763393 -0.4017857,-0.60267857 0,-0.31808036 0.066964,-0.82031251 0.1004464,-1.13839291 0.033482,-0.1339285 0.050223,-0.3348214 0.050223,-0.46875 0,-0.7700892 -0.6696429,-1.0714285 -0.9374998,-1.171875 z m 0,0"
         style="fill:#000000;fill-opacity:1;fill-rule:nonzero;stroke:none" />
      <path
         id="path462"
         d="m 9.9082813,-2.9435156 c 0,-0.1841518 -0.016741,-0.2008929 -0.217634,-0.2008929 -0.4520089,0.4352679 -1.0714285,0.4520089 -1.3727678,0.4520089 v 0.2511161 c 0.1674107,0 0.6361607,0 1.0212053,-0.2008928 v 3.56584817 c 0,0.23437503 0,0.31808033 -0.703125,0.31808033 H 8.3681027 v 0.2511161 c 0.1339286,0 0.9877232,-0.033482 1.2555803,-0.033482 0.217634,0 1.08817,0.033482 1.238839,0.033482 V 1.2417522 h -0.267857 c -0.6863837,0 -0.6863837,-0.083705 -0.6863837,-0.31808033 z m 0,0"
         style="fill:#000000;fill-opacity:1;fill-rule:nonzero;stroke:none" />
    </g>
    <path
       id="path463"
       d="m -178.46553,29.76436 c 0,0.61358 -0.49741,1.11099 -1.11099,1.11099 -0.61359,0 -1.111,-0.49741 -1.111,-1.11099 0,-0.61359 0.49741,-1.11099 1.111,-1.11099 0.61358,0 1.11099,0.4974 1.11099,1.11099 z"
       style="fill:#000000;fill-opacity:1;fill-rule:nonzero;stroke:#000000;stroke-width:0.3985;stroke-linecap:butt;stroke-linejoin:miter;stroke-miterlimit:10;stroke-dasharray:none;stroke-opacity:1"
       transform="matrix(1.3333333,0,0,-1.3333333,2955.1867,737.472)" />
    <path
       id="path464"
       d="m -170.87679,29.76543 v -1.38897 l 2.95156,1.38897 -2.95156,1.38894 z"
       style="fill:#000000;fill-opacity:1;fill-rule:nonzero;stroke:#000000;stroke-width:0.3985;stroke-linecap:butt;stroke-linejoin:miter;stroke-miterlimit:10;stroke-dasharray:none;stroke-opacity:1"
       transform="matrix(1.3333333,0,0,-1.3333333,2955.1867,737.472)" />
    <g
       id="g464"
       aria-label="I&#10;1"
       transform="matrix(0.93333333,0,0,0.93333333,2724.1467,693.10533)">
      <path
         id="path465"
         d="m 4.388058,-6.1605692 c 0.050223,-0.1674107 0.050223,-0.1674107 0.2511161,-0.2008929 0.1506697,0 0.2845982,0 0.4352679,0 h 0.2008928 c 0.217634,0 0.217634,-0.016741 0.2678572,-0.050223 0.066964,-0.050223 0.1004464,-0.1841518 0.1004464,-0.234375 0,-0.1339285 -0.1004464,-0.1841518 -0.2176339,-0.1841518 -0.2511161,0 -0.5189732,0.016741 -0.7700893,0.016741 -0.2511161,0 -0.5189732,0.016741 -0.7868304,0.016741 -0.2845982,0 -0.5524553,-0.016741 -0.8370535,-0.016741 -0.2511161,0 -0.5189733,-0.016741 -0.7700893,-0.016741 -0.1004465,0 -0.2845982,0 -0.2845982,0.2845983 0,0.1841517 0.1506696,0.1841517 0.3348214,0.1841517 h 0.2176339 c 0.083705,0 0.3180804,0 0.5189732,0.016741 l -1.422991,5.67522323 c -0.033482,0.16741072 -0.050223,0.16741072 -0.234375,0.18415179 -0.1171875,0.0167411 -0.3013393,0.0167411 -0.43526791,0.0167411 H 0.75524554 c -0.20089286,0 -0.36830358,0 -0.36830358,0.28459821 0,0.13392857 0.10044643,0.18415178929 0.21763393,0.18415178929 0.25111607,0 0.50223211,-0.0167410693 0.75334821,-0.0167410693 0.2678572,0 0.5357143,-0.01674107 0.8035714,-0.01674107 0.2845983,0 0.5524554,0.01674107 0.8370536,0.01674107 0.2511161,0 0.5022322,0.0167410693 0.7533482,0.0167410693 0.1004465,0 0.3013393,0 0.3013393,-0.28459821929 0,-0.18415178 -0.1674107,-0.18415178 -0.3348214,-0.18415178 H 3.5007813 c -0.066964,0 -0.3850447,-0.0167411 -0.5189733,-0.0167411 z m 0,0"
         style="fill:#000000;fill-opacity:1;fill-rule:nonzero;stroke:none" />
      <path
         id="path466"
         d="m 8.2092076,-2.9420982 c 0,-0.1841518 -0.016741,-0.2008929 -0.2176339,-0.2008929 -0.452009,0.4352679 -1.0714286,0.452009 -1.3727679,0.452009 v 0.251116 c 0.1674107,0 0.6361607,0 1.0212054,-0.2008928 v 3.56584819 c 0,0.23437501 0,0.31808031 -0.703125,0.31808031 H 6.669029 v 0.2511161 c 0.1339286,0 0.9877232,-0.033482 1.2555804,-0.033482 0.2176339,0 1.0881696,0.033482 1.2388393,0.033482 V 1.2431696 H 8.8955915 c -0.6863839,0 -0.6863839,-0.083705 -0.6863839,-0.31808031 z m 0,0"
         style="fill:#000000;fill-opacity:1;fill-rule:nonzero;stroke:none" />
    </g>
    <path
       id="path467"
       d="m 4.0664955,-2.2941518 h 2.7790179 c 0.1506696,0 0.3348214,0 0.3348214,-0.2008928 0,-0.2008929 -0.1841518,-0.2008929 -0.3348214,-0.2008929 H 4.0664955 v -2.7790179 c 0,-0.1506696 0,-0.3348214 -0.2008928,-0.3348214 -0.1841518,0 -0.1841518,0.1841518 -0.1841518,0.3348214 v 2.7790179 H 0.88569196 c -0.13392857,0 -0.33482142,0 -0.33482142,0.2008929 0,0.2008928 0.20089285,0.2008928 0.33482142,0.2008928 H 3.6814509 v 2.79575894 c 0,0.13392857 0,0.31808036 0.1841518,0.31808036 0.2008928,0 0.2008928,-0.18415179 0.2008928,-0.31808036 z m 0,0"
       style="fill:#000000;fill-opacity:1;fill-rule:nonzero;stroke:none"
       aria-label="+"
       transform="matrix(0.93333333,0,0,0.93333333,2712.1187,711.96933)" />
    <path
       id="path468"
       d="m 6.5609152,-2.2924554 c 0.1674107,0 0.3515625,0 0.3515625,-0.2008928 0,-0.2008929 -0.1841518,-0.2008929 -0.3515625,-0.2008929 h -5.390625 c -0.1674107,0 -0.35156252,0 -0.35156252,0.2008929 0,0.2008928 0.18415182,0.2008928 0.35156252,0.2008928 z m 0,0"
       style="fill:#000000;fill-opacity:1;fill-rule:nonzero;stroke:none"
       aria-label="−"
       transform="matrix(0.93333333,0,0,0.93333333,2712.1187,767.624)" />
    <g
       id="g468"
       aria-label="V&#10;1"
       transform="matrix(0.93333333,0,0,0.93333333,2709.3107,739.964)">
      <path
         id="path469"
         d="m 7.5689286,-5.9589174 c 0.1506696,-0.2176339 0.2678571,-0.4017857 0.954241,-0.4017857 0.1171875,0 0.3013393,0 0.3013393,-0.2845982 0,-0.066964 -0.050223,-0.1841518 -0.1841518,-0.1841518 -0.2845982,0 -0.6026785,0.033482 -0.9040178,0.033482 -0.3683036,0 -0.7533482,-0.033482 -1.1049107,-0.033482 -0.066964,0 -0.2678572,0 -0.2678572,0.2845982 0,0.1841518 0.1674107,0.1841518 0.2678572,0.1841518 0.050223,0 0.3348214,0 0.5524553,0.1004464 l -3.28125,4.7712054 -0.8872768,-4.6540179 c 0,-0.033482 -0.016741,-0.1171875 -0.016741,-0.1339286 0,-0.083705 0.5357143,-0.083705 0.6026785,-0.083705 0.217634,0 0.3850447,0 0.3850447,-0.2845982 0,-0.1339286 -0.1004464,-0.1841518 -0.2176339,-0.1841518 -0.2511161,0 -0.5022322,0.016741 -0.7533483,0.016741 -0.251116,0 -0.485491,0.016741 -0.7366071,0.016741 -0.2176339,0 -0.4520089,-0.016741 -0.6863839,-0.016741 -0.217634,0 -0.452009,-0.016741 -0.65290181,-0.016741 -0.0837054,0 -0.28459822,0 -0.28459822,0.2845982 0,0.1841518 0.16741072,0.1841518 0.36830353,0.1841518 0.1339286,0 0.2511161,0 0.3850447,0 0.1171875,0.016741 0.1339286,0.033482 0.1506696,0.2008928 l 1.1383929,6.04352682 c 0.050223,0.28459821 0.1674107,0.28459821 0.3515625,0.28459821 0.2845982,0 0.3348214,-0.0669643 0.4520089,-0.25111607 z m 0,0"
         style="fill:#000000;fill-opacity:1;fill-rule:nonzero;stroke:none" />
      <path
         id="path470"
         d="m 11.641194,-2.9413393 c 0,-0.1841518 -0.01674,-0.2008928 -0.217634,-0.2008928 -0.452009,0.4352678 -1.071428,0.4520089 -1.372768,0.4520089 v 0.2511161 c 0.167411,0 0.636161,0 1.021206,-0.2008929 v 3.56584821 c 0,0.23437499 0,0.31808039 -0.703125,0.31808039 h -0.267857 v 0.251116 c 0.133928,0 0.987723,-0.033482 1.25558,-0.033482 0.217634,0 1.08817,0.033482 1.238839,0.033482 v -0.251116 h -0.267857 c -0.686384,0 -0.686384,-0.083705 -0.686384,-0.31808039 z m 0,0"
         style="fill:#000000;fill-opacity:1;fill-rule:nonzero;stroke:none" />
    </g>
    <path
       id="path471"
       d="m -20.8351,29.76436 -19.84414,0.0011 m 0,0 -19.84121,-0.0011 -0.0022,-4.95976 m 0,0 0.0022,-4.96157 4.95864,6.9e-4 m 0,0 4.96271,-6.9e-4 -0.0018,-8.7304 m 0,-22.22454 0.0018,-8.73039 -4.96271,-7.2e-4 m 0,0 -4.95864,7.2e-4 -0.0022,-4.96158 m 0,0 0.0022,-4.95976 19.84121,-0.0011 m 0,0 19.84414,0.0011"
       style="fill:none;stroke:#000000;stroke-width:0.3985;stroke-linecap:butt;stroke-linejoin:miter;stroke-miterlimit:10;stroke-dasharray:none;stroke-opacity:1"
       transform="matrix(1.3333333,0,0,-1.3333333,2955.1867,737.472)" />
    <path
       id="path472"
       d="m -41.89458,29.76543 v -1.38897 l 2.95156,1.38897 -2.95156,1.38894 z"
       style="fill:#000000;fill-opacity:1;fill-rule:nonzero;stroke:#000000;stroke-width:0.3985;stroke-linecap:butt;stroke-linejoin:miter;stroke-miterlimit:10;stroke-dasharray:none;stroke-opacity:1"
       transform="matrix(1.3333333,0,0,-1.3333333,2955.1867,737.472)" />
    <g
       id="g472"
       aria-label="I&#10;′&#10;2"
       transform="matrix(0.93333333,0,0,0.93333333,2896.124,692.20133)">
      <path
         id="path473"
         d="m 4.3872321,-6.1587946 c 0.050223,-0.1674108 0.050223,-0.1674108 0.2511161,-0.2008929 0.1506697,0 0.2845982,0 0.4352679,0 h 0.2008928 c 0.217634,0 0.217634,-0.016741 0.2678572,-0.050223 0.066964,-0.050223 0.1004464,-0.1841518 0.1004464,-0.234375 0,-0.1339286 -0.1004464,-0.1841518 -0.2176339,-0.1841518 -0.2511161,0 -0.5189732,0.016741 -0.7700893,0.016741 -0.2511161,0 -0.5189732,0.016741 -0.7868304,0.016741 -0.2845982,0 -0.5524553,-0.016741 -0.8370535,-0.016741 -0.2511161,0 -0.5189733,-0.016741 -0.7700893,-0.016741 -0.1004465,0 -0.2845982,0 -0.2845982,0.2845982 0,0.1841518 0.1506696,0.1841518 0.3348214,0.1841518 h 0.2176339 c 0.083705,0 0.3180804,0 0.5189732,0.016741 l -1.422991,5.67522319 c -0.033482,0.16741071 -0.050223,0.16741071 -0.234375,0.18415178 -0.1171875,0.0167411 -0.3013393,0.0167411 -0.4352679,0.0167411 H 0.75441964 c -0.20089285,0 -0.36830357,0 -0.36830357,0.28459822 0,0.13392857 0.10044643,0.18415178 0.21763393,0.18415178 0.25111607,0 0.5022321,-0.01674107 0.7533482,-0.01674107 0.2678572,0 0.5357143,-0.01674107 0.8035714,-0.01674107 0.2845983,0 0.5524554,0.01674107 0.8370536,0.01674107 0.2511161,0 0.5022322,0.01674107 0.7533482,0.01674107 0.1004465,0 0.3013393,0 0.3013393,-0.28459821 0,-0.18415179 -0.1674107,-0.18415179 -0.3348214,-0.18415179 H 3.4999554 c -0.066964,0 -0.3850447,-0.0167411 -0.5189733,-0.0167411 z m 0,0"
         style="fill:#000000;fill-opacity:1;fill-rule:nonzero;stroke:none" />
      <path
         id="path474"
         d="m 7.8944866,-7.6696763 c 0.050223,-0.1171875 0.066964,-0.1674108 0.066964,-0.217634 0,-0.2176339 -0.2008929,-0.3850446 -0.4185268,-0.3850446 -0.2678571,0 -0.3515625,0.2176339 -0.3850446,0.3180803 l -0.920759,3.030134 c 0,0.016741 -0.033482,0.1004464 -0.033482,0.1171875 0,0.083705 0.2176339,0.1506696 0.2678571,0.1506696 0.050223,0 0.066964,-0.016741 0.1171875,-0.1171875 z m 0,0"
         style="fill:#000000;fill-opacity:1;fill-rule:nonzero;stroke:none" />
      <path
         id="path475"
         d="M 9.401183,1.1905357 H 9.150067 C 9.1333259,1.3412054 9.0663616,1.7597321 8.9826563,1.8266964 8.915692,1.8769196 8.3799777,1.8769196 8.2795313,1.8769196 H 7.0072098 C 7.7270759,1.2240179 7.978192,1.023125 8.3967188,0.68830357 8.915692,0.28651786 9.401183,-0.14875 9.401183,-0.81839286 c 0,-0.83705354 -0.7533482,-1.35602674 -1.640625,-1.35602674 -0.8705357,0 -1.4564732,0.6026785 -1.4564732,1.25558031 0,0.3515625 0.3013393,0.38504465 0.3683036,0.38504465 0.1674107,0 0.3683036,-0.1171875 0.3683036,-0.36830357 0,-0.13392859 -0.033482,-0.36830359 -0.4017857,-0.36830359 0.2176339,-0.5022321 0.6863839,-0.6529018 1.0212053,-0.6529018 0.6863839,0 1.0546875,0.5524554 1.0546875,1.10491074 0,0.61941965 -0.4352678,1.08816965 -0.6529018,1.33928572 L 6.3710491,2.195 c -0.066964,0.050223 -0.066964,0.066964 -0.066964,0.2678571 h 2.8794643 z m 0,0"
         style="fill:#000000;fill-opacity:1;fill-rule:nonzero;stroke:none" />
    </g>
    <path
       id="path476"
       d="m -60.52267,26.01993 h -1.38897 l 1.38897,-2.95156 1.38896,2.95156 z"
       style="fill:#000000;fill-opacity:1;fill-rule:nonzero;stroke:#000000;stroke-width:0.3985;stroke-linecap:butt;stroke-linejoin:miter;stroke-miterlimit:10;stroke-dasharray:none;stroke-opacity:1"
       transform="matrix(1.3333333,0,0,-1.3333333,2955.1867,737.472)" />
    <g
       id="g476"
       aria-label="I&#10;e"
       transform="matrix(0.93333333,0,0,0.93333333,2877.7747,706.892)">
      <path
         id="path477"
         d="m 4.3848438,-6.1621875 c 0.050223,-0.1674107 0.050223,-0.1674107 0.251116,-0.2008929 0.1506697,0 0.2845982,0 0.4352679,0 h 0.2008928 c 0.217634,0 0.217634,-0.016741 0.2678572,-0.050223 0.066964,-0.050223 0.1004464,-0.1841518 0.1004464,-0.234375 0,-0.1339285 -0.1004464,-0.1841518 -0.2176339,-0.1841518 -0.2511161,0 -0.5189732,0.016741 -0.7700893,0.016741 -0.2511161,0 -0.5189732,0.016741 -0.7868304,0.016741 -0.2845982,0 -0.5524553,-0.016741 -0.8370535,-0.016741 -0.2511161,0 -0.5189732,-0.016741 -0.7700893,-0.016741 -0.1004464,0 -0.2845982,0 -0.2845982,0.2845983 0,0.1841517 0.1506696,0.1841517 0.3348214,0.1841517 h 0.2176339 c 0.083705,0 0.3180804,0 0.5189732,0.016741 l -1.422991,5.67522323 c -0.033482,0.16741071 -0.050223,0.16741071 -0.234375,0.18415178 -0.1171875,0.0167411 -0.3013393,0.0167411 -0.43526789,0.0167411 H 0.75203125 c -0.20089286,0 -0.36830357,0 -0.36830357,0.28459821 0,0.13392857 0.10044643,0.18415179 0.21763393,0.18415179 0.25111607,0 0.50223219,-0.01674108 0.75334819,-0.01674108 0.2678572,0 0.5357143,-0.01674107 0.8035715,-0.01674107 0.2845982,0 0.5524553,0.01674107 0.8370535,0.01674107 0.2511161,0 0.5022322,0.01674108 0.7533482,0.01674108 0.1004465,0 0.3013393,0 0.3013393,-0.28459822 0,-0.18415178 -0.1674107,-0.18415178 -0.3348214,-0.18415178 H 3.497567 c -0.066964,0 -0.3850447,-0.0167411 -0.5189732,-0.0167411 z m 0,0"
         style="fill:#000000;fill-opacity:1;fill-rule:nonzero;stroke:none" />
      <path
         id="path478"
         d="m 7.4233482,-0.09773437 c 0.2008929,0 0.7533482,-0.01674108 1.1383929,-0.15066965 0.5022321,-0.18415178 0.6026785,-0.51897321 0.6026785,-0.71986607 0,-0.38504461 -0.3850446,-0.61941961 -0.8537946,-0.61941961 -0.8537946,0 -1.9754464,0.63616068 -1.9754464,1.84151783 0,0.703125 0.4352678,1.30580357 1.2555803,1.30580357 1.171875,0 1.7243304,-0.68638393 1.7243304,-0.78683036 0,-0.0334821 -0.050223,-0.1171875 -0.1171875,-0.1171875 -0.033482,0 -0.050223,0.0167411 -0.1004464,0.0669643 C 8.545,1.3587388 7.7246875,1.3587388 7.6075,1.3587388 c -0.4185268,0 -0.703125,-0.2678571 -0.703125,-0.83705353 0,-0.10044643 0,-0.234375 0.083705,-0.61941964 z M 7.0383036,-0.29862723 C 7.3396429,-1.3030915 8.1097321,-1.3867969 8.310625,-1.3867969 c 0.3013393,0 0.5524554,0.1506697 0.5524554,0.41852681 0,0.66964286 -1.171875,0.66964286 -1.4732143,0.66964286 z m 0,0"
         style="fill:#000000;fill-opacity:1;fill-rule:nonzero;stroke:none" />
    </g>
    <path
       id="path479"
       d="m -50.7585,11.51073 c 2.30126,0 4.16676,-1.28833 4.16676,-2.8776 0,-1.58926 -1.8655,-2.87759 -4.16676,-2.87759 2.30126,0 4.16676,-1.28834 4.16676,-2.8776 0,-1.58926 -1.8655,-2.8776 -4.16676,-2.8776 2.30126,0 4.16676,-1.28832 4.16676,-2.87758 0,-1.58926 -1.8655,-2.8776 -4.16676,-2.8776 2.30126,0 4.16676,-1.28834 4.16676,-2.87759 0,-1.58927 -1.8655,-2.87761 -4.16676,-2.87761"
       style="fill:none;stroke:#000000;stroke-width:0.797;stroke-linecap:butt;stroke-linejoin:bevel;stroke-miterlimit:10;stroke-dasharray:none;stroke-opacity:1"
       transform="matrix(1.3333333,0,0,-1.3333333,2955.1867,737.472)" />
    <g
       id="g479"
       aria-label="B&#10;m"
       transform="matrix(0.93333333,0,0,0.93333333,2895.976,739.47333)">
      <path
         id="path480"
         d="m 1.5910045,-0.77081473 c -0.1004465,0.38504464 -0.1171875,0.46875 -0.90401789,0.46875 -0.16741072,0 -0.26785715,0 -0.26785715,0.18415178 0,0.11718750357 0.0837054,0.11718750357 0.26785715,0.11718750357 H 4.2360938 c 1.5736607,0 2.7622767,-1.17187495357 2.7622767,-2.15959825357 0,-0.703125 -0.5859375,-1.2890625 -1.5569196,-1.3895089 1.0379464,-0.2008928 2.0926339,-0.9375 2.0926339,-1.875 0,-0.7366071 -0.6529018,-1.3727678 -1.8582589,-1.3727678 H 2.3276116 c -0.1841518,0 -0.2845982,0 -0.2845982,0.2008928 0,0.1004464 0.083705,0.1004464 0.2845982,0.1004464 0.016741,0 0.2008929,0 0.3683036,0.016741 0.1841518,0.016741 0.2678571,0.033482 0.2678571,0.1674107 0,0.033482 0,0.066964 -0.033482,0.1841518 z M 3.0977009,-3.650279 3.7171205,-6.1112165 C 3.8008259,-6.462779 3.817567,-6.4962612 4.2528348,-6.4962612 h 1.2890625 c 0.8705357,0 1.0881697,0.5859375 1.0881697,1.0212054 0,0.8872768 -0.8537947,1.8247768 -2.0758929,1.8247768 z M 2.645692,-0.30206473 c -0.1339286,0 -0.1506697,0 -0.217634,-0.0167411 -0.1004464,-0.0167411 -0.1339285,-0.0167411 -0.1339285,-0.10044643 0,-0.0334821 0,-0.0502232 0.050223,-0.234375 L 3.0307366,-3.4326451 h 1.8917411 c 0.9542411,0 1.1383928,0.7366072 1.1383928,1.171875 0,0.9877232 -0.8872767,1.95870537 -2.0591517,1.95870537 z m 0,0"
         style="fill:#000000;fill-opacity:1;fill-rule:nonzero;stroke:none" />
      <path
         id="path481"
         d="m 10.585145,0.92421875 c -0.03348,0.15066965 -0.100446,0.38504465 -0.100446,0.41852675 0,0.1506697 0.133928,0.217634 0.234375,0.217634 0.133928,0 0.234375,-0.083705 0.284598,-0.1506697 0.03348,-0.066964 0.08371,-0.2845982 0.117187,-0.43526784 0.03348,-0.13392857 0.117188,-0.45200892 0.15067,-0.61941964 0.05022,-0.16741071 0.08371,-0.31808036 0.117188,-0.46875 0.08371,-0.30133928 0.08371,-0.31808036 0.217633,-0.53571428 0.234375,-0.33482143 0.569197,-0.73660714 1.121652,-0.73660714 0.385045,0 0.418527,0.3180803 0.418527,0.48549106 0,0.41852679 -0.301339,1.18861608 -0.418527,1.48995536 -0.08371,0.18415179 -0.100446,0.25111607 -0.100446,0.36830357 0,0.36830361 0.301339,0.60267861 0.652902,0.60267861 0.703125,0 1.004464,-0.95424111 1.004464,-1.07142861 0,-0.0837054 -0.08371,-0.0837054 -0.100447,-0.0837054 -0.100446,0 -0.117187,0.0334821 -0.133928,0.1171875 -0.167411,0.55245531 -0.46875,0.83705351 -0.736607,0.83705351 -0.15067,0 -0.184152,-0.083705 -0.184152,-0.234375 0,-0.16741066 0.03348,-0.25111601 0.167411,-0.56919637 0.0837,-0.21763393 0.368303,-0.95424107 0.368303,-1.33928572 0,-0.1171875 0,-0.41852671 -0.267857,-0.61941961 -0.117187,-0.083705 -0.31808,-0.1841518 -0.636161,-0.1841518 -0.63616,0 -1.021205,0.4185268 -1.238839,0.70312499 C 11.472422,-1.4697545 10.97019,-1.586942 10.618627,-1.586942 c -0.585937,0 -0.9709819,0.3515625 -1.1886158,0.63616075 C 9.3797879,-1.4362723 8.9780022,-1.586942 8.693404,-1.586942 c -0.3013393,0 -0.46875,0.217634 -0.5524553,0.3850447 -0.1674108,0.25111605 -0.2511161,0.65290176 -0.2511161,0.68638391 0,0.0837053 0.083705,0.0837053 0.1171875,0.0837053 0.1004464,0 0.1004464,-0.0167411 0.1506696,-0.20089285 0.1004465,-0.41852686 0.234375,-0.75334826 0.5022322,-0.75334826 0.1841518,0 0.234375,0.1506696 0.234375,0.3348214 0,0.13392864 -0.066964,0.40178579 -0.1171875,0.58593757 -0.050223,0.18415179 -0.1171875,0.46875 -0.1506697,0.61941964 L 8.4088058,1.0581473 c -0.033482,0.083705 -0.066964,0.2678572 -0.066964,0.2845982 0,0.1506697 0.1171875,0.217634 0.234375,0.217634 0.1171875,0 0.234375,-0.083705 0.2678572,-0.1506697 C 8.877556,1.3427458 8.9445204,1.1251116 8.9780025,0.97444196 9.0114845,0.84051339 9.078449,0.52243304 9.1286722,0.35502232 c 0.033482,-0.16741071 0.083705,-0.31808036 0.1171875,-0.46875 0.083705,-0.28459821 0.083705,-0.3515625 0.2845982,-0.63616071 0.2008928,-0.28459821 0.5357141,-0.63616071 1.0546871,-0.63616071 0.401786,0 0.418527,0.3515625 0.418527,0.48549106 0,0.16741072 -0.03348,0.26785715 -0.133929,0.65290179 z m 0,0"
         style="fill:#000000;fill-opacity:1;fill-rule:nonzero;stroke:none" />
    </g>
    <path
       id="path482"
       d="m -50.60187,16.69371 h -1.38896 l 1.38896,-2.95155 1.38895,2.95155 z"
       style="fill:#000000;fill-opacity:1;fill-rule:nonzero;stroke:#000000;stroke-width:0.3985;stroke-linecap:butt;stroke-linejoin:miter;stroke-miterlimit:10;stroke-dasharray:none;stroke-opacity:1"
       transform="matrix(1.3333333,0,0,-1.3333333,2955.1867,737.472)" />
    <g
       id="g482"
       aria-label="I&#10;m"
       transform="matrix(0.93333333,0,0,0.93333333,2891.0027,719.32667)">
      <path
         id="path483"
         d="m 4.3874888,-6.1591518 c 0.050223,-0.1674107 0.050223,-0.1674107 0.2511161,-0.2008928 0.1506697,0 0.2845982,0 0.4352679,0 h 0.2008928 c 0.217634,0 0.217634,-0.016741 0.2678572,-0.050223 0.066964,-0.050223 0.1004464,-0.1841517 0.1004464,-0.234375 0,-0.1339285 -0.1004464,-0.1841517 -0.2176339,-0.1841517 -0.2511161,0 -0.5189732,0.016741 -0.7700893,0.016741 -0.2511161,0 -0.5189732,0.016741 -0.7868304,0.016741 -0.2845982,0 -0.5524553,-0.016741 -0.8370535,-0.016741 -0.2511161,0 -0.5189733,-0.016741 -0.7700893,-0.016741 -0.1004465,0 -0.2845982,0 -0.2845982,0.2845982 0,0.1841518 0.1506696,0.1841518 0.3348214,0.1841518 h 0.2176339 c 0.083705,0 0.3180804,0 0.5189732,0.016741 l -1.422991,5.67522324 c -0.033482,0.16741072 -0.050223,0.16741072 -0.234375,0.18415179 -0.1171875,0.0167411 -0.3013393,0.0167411 -0.4352679,0.0167411 H 0.75467634 c -0.20089286,0 -0.36830357,0 -0.36830357,0.28459821 0,0.13392858 0.10044643,0.18415179 0.21763393,0.18415179 0.25111607,0 0.5022321,-0.01674107 0.7533482,-0.01674107 0.2678572,0 0.5357143,-0.01674107 0.8035714,-0.01674107 0.2845983,0 0.5524554,0.01674107 0.8370536,0.01674107 0.2511161,0 0.5022322,0.01674107 0.7533482,0.01674107 0.1004465,0 0.3013393,0 0.3013393,-0.28459821 0,-0.18415179 -0.1674107,-0.18415179 -0.3348214,-0.18415179 H 3.5002121 c -0.066964,0 -0.3850447,-0.0167411 -0.5189733,-0.0167411 z m 0,0"
         style="fill:#000000;fill-opacity:1;fill-rule:nonzero;stroke:none" />
      <path
         id="path484"
         d="m 8.8992076,0.9265067 c -0.033482,0.1506696 -0.1004464,0.3850446 -0.1004464,0.4185268 0,0.1506696 0.1339285,0.2176339 0.234375,0.2176339 0.1339285,0 0.234375,-0.083705 0.2845982,-0.1506696 0.033482,-0.066964 0.083705,-0.2845982 0.1171875,-0.43526789 0.033482,-0.13392857 0.1171875,-0.45200893 0.1506696,-0.61941964 0.050223,-0.16741072 0.083705,-0.31808036 0.1171875,-0.46875 0.083705,-0.30133929 0.083705,-0.31808036 0.2176339,-0.53571429 0.2343751,-0.33482143 0.5691961,-0.73660718 1.1216521,-0.73660718 0.385044,0 0.418527,0.3180804 0.418527,0.48549111 0,0.41852679 -0.30134,1.18861607 -0.418527,1.48995536 -0.08371,0.18415178 -0.100447,0.25111607 -0.100447,0.36830357 0,0.36830356 0.30134,0.60267856 0.652902,0.60267856 0.703125,0 1.004464,-0.95424106 1.004464,-1.07142856 0,-0.0837054 -0.08371,-0.0837054 -0.100446,-0.0837054 -0.100446,0 -0.117188,0.0334821 -0.133929,0.1171875 -0.16741,0.55245536 -0.46875,0.83705366 -0.736607,0.83705366 -0.150669,0 -0.184152,-0.083705 -0.184152,-0.234375 0,-0.1674108 0.03348,-0.25111616 0.167411,-0.56919651 0.08371,-0.21763393 0.368304,-0.95424108 0.368304,-1.33928572 0,-0.1171875 0,-0.41852677 -0.267857,-0.61941957 -0.117188,-0.083705 -0.318081,-0.1841518 -0.636161,-0.1841518 -0.636161,0 -1.021205,0.4185268 -1.2388394,0.70312494 C 9.7864844,-1.4674665 9.2842522,-1.584654 8.9326897,-1.584654 c -0.5859375,0 -0.9709821,0.3515625 -1.188616,0.6361607 -0.050223,-0.4854911 -0.452009,-0.6361607 -0.7366072,-0.6361607 -0.3013393,0 -0.46875,0.2176339 -0.5524553,0.3850446 -0.1674108,0.2511161 -0.2511161,0.65290181 -0.2511161,0.68638395 0,0.0837054 0.083705,0.0837054 0.1171875,0.0837054 0.1004464,0 0.1004464,-0.0167411 0.1506696,-0.20089286 0.1004465,-0.41852679 0.234375,-0.75334829 0.5022322,-0.75334829 0.1841518,0 0.234375,0.1506697 0.234375,0.3348215 0,0.13392858 -0.066964,0.40178572 -0.1171875,0.58593751 -0.050223,0.18415178 -0.1171875,0.46875 -0.1506697,0.61941964 L 6.7228683,1.0604353 c -0.033482,0.083705 -0.066964,0.2678571 -0.066964,0.2845982 0,0.1506696 0.1171875,0.2176339 0.234375,0.2176339 0.1171875,0 0.234375,-0.083705 0.2678572,-0.1506696 C 7.1916185,1.3450338 7.2585829,1.1273996 7.292065,0.97672991 7.325547,0.84280134 7.3925115,0.52472098 7.4427347,0.35731027 c 0.033482,-0.16741072 0.083705,-0.31808036 0.1171875,-0.46875 0.083705,-0.28459822 0.083705,-0.3515625 0.2845982,-0.63616072 0.2008928,-0.28459825 0.5357143,-0.63616075 1.0546875,-0.63616075 0.4017857,0 0.4185268,0.3515625 0.4185268,0.48549111 0,0.16741072 -0.033482,0.26785714 -0.1339286,0.65290179 z m 0,0"
         style="fill:#000000;fill-opacity:1;fill-rule:nonzero;stroke:none" />
    </g>
    <path
       id="path485"
       d="m -20.8351,29.76436 -19.84414,0.0011 m 0,0 -19.84121,-0.0011 -0.0022,-4.95976 m 0,0 0.0022,-4.96157 -4.96307,6.9e-4 m 0,0 -4.95825,-6.9e-4 -0.0026,-8.7304 m 0,-22.22454 0.0026,-8.73039 4.95825,-7.2e-4 m 0,0 4.96307,7.2e-4 -0.0022,-4.96158 m 0,0 0.0022,-4.95976 19.84121,-0.0011 m 0,0 19.84414,0.0011"
       style="fill:none;stroke:#000000;stroke-width:0.3985;stroke-linecap:butt;stroke-linejoin:miter;stroke-miterlimit:10;stroke-dasharray:none;stroke-opacity:1"
       transform="matrix(1.3333333,0,0,-1.3333333,2955.1867,737.472)" />
    <path
       id="path486"
       d="m -70.44176,11.51073 4.16696,-2.28369 -8.33393,-3.77037 8.33393,-3.77037 -8.33393,-3.77036 8.33393,-3.77039 -8.33393,-3.77035 4.16697,-1.88521"
       style="fill:none;stroke:#000000;stroke-width:0.797;stroke-linecap:butt;stroke-linejoin:bevel;stroke-miterlimit:10;stroke-dasharray:none;stroke-opacity:1"
       transform="matrix(1.3333333,0,0,-1.3333333,2955.1867,737.472)" />
    <g
       id="g486"
       aria-label="G&#10;c"
       transform="matrix(0.93333333,0,0,0.93333333,2841.9067,739.47333)">
      <path
         id="path487"
         d="m 7.5665179,-6.931529 c 0,-0.016741 -0.016741,-0.083705 -0.1004465,-0.083705 -0.033482,0 -0.050223,0 -0.1506696,0.1171875 l -0.703125,0.7533482 C 6.5285718,-6.2786268 6.0598214,-7.015234 4.9549107,-7.015234 c -2.2098214,0 -4.45312499,2.1930804 -4.45312499,4.5033482 0,1.59040182 1.10491069,2.72879468 2.71205359,2.72879468 0.4352678,0 0.8872768,-0.0837054 1.2555803,-0.234375 0.4854911,-0.20089286 0.686384,-0.41852678 0.8537947,-0.60267857 0.1004464,0.234375 0.3515625,0.60267857 0.4520089,0.60267857 0.050223,0 0.066964,-0.01674107 0.066964,-0.03348214 0.016741,-0.01674107 0.1171875,-0.40178572 0.1674107,-0.60267857 L 6.2104911,-1.4237165 c 0.033482,-0.1674107 0.083705,-0.3348214 0.1171875,-0.5022322 0.1171875,-0.4520089 0.1339285,-0.46875 0.6863839,-0.485491 0.050223,0 0.1674107,-0.016741 0.1674107,-0.2008929 0,-0.066964 -0.050223,-0.1004464 -0.1339286,-0.1004464 -0.2176339,0 -0.8203125,0.016741 -1.0379464,0.016741 -0.3180803,0 -1.0881696,-0.016741 -1.40625,-0.016741 -0.083705,0 -0.2008928,0 -0.2008928,0.1841518 0,0.1171875 0.083705,0.1171875 0.3013392,0.1171875 0,0 0.3013393,0 0.5189733,0.016741 0.2678571,0.033482 0.3180803,0.066964 0.3180803,0.2008929 0,0.083705 -0.1171875,0.5357143 -0.2176339,0.9040179 -0.2678572,1.0881696 -1.5736607,1.2053571 -1.9252232,1.2053571 -0.9542411,0 -1.9921875,-0.56919643 -1.9921875,-2.0926339 0,-0.3180804 0.1004464,-1.9587054 1.1383928,-3.2477679 0.5357143,-0.6863839 1.5066965,-1.2890625 2.4944197,-1.2890625 1.0212053,0 1.6071428,0.7700893 1.6071428,1.9252232 0,0.4017857 -0.033482,0.4017857 -0.033482,0.5022322 0,0.1004464 0.1171875,0.1004464 0.1506696,0.1004464 0.1339286,0 0.1339286,-0.016741 0.1841518,-0.2008929 z m 0,0"
         style="fill:#000000;fill-opacity:1;fill-rule:nonzero;stroke:none" />
      <path
         id="path488"
         d="m 10.897991,-1.1851563 c -0.251116,0.050223 -0.368303,0.23437505 -0.368303,0.40178576 0,0.18415179 0.150669,0.25111608 0.284598,0.25111608 0.150669,0 0.385044,-0.1171875 0.385044,-0.45200893 0,-0.46875001 -0.535714,-0.60267861 -0.920759,-0.60267861 -1.037946,0 -2.0089281,0.97098218 -2.0089281,1.94196432 0,0.5859375 0.4185267,1.20535718 1.2890625,1.20535718 1.1718746,0 1.7243306,-0.68638396 1.7243306,-0.78683039 0,-0.0334821 -0.05022,-0.1171875 -0.117188,-0.1171875 -0.03348,0 -0.05022,0.0167411 -0.100446,0.0669643 C 10.512946,1.3594866 9.6926339,1.3594866 9.5754464,1.3594866 c -0.5022321,0 -0.7366071,-0.3348214 -0.7366071,-0.77008928 0,-0.20089286 0.1004464,-0.95424107 0.46875,-1.43973214 C 9.5754464,-1.2018973 9.94375,-1.3860491 10.278571,-1.3860491 c 0.100447,0 0.435268,0.016741 0.61942,0.2008928 z m 0,0"
         style="fill:#000000;fill-opacity:1;fill-rule:nonzero;stroke:none" />
    </g>
    <path
       id="path489"
       d="m -70.44566,16.69371 h -1.38895 l 1.38895,-2.95155 1.38896,2.95155 z"
       style="fill:#000000;fill-opacity:1;fill-rule:nonzero;stroke:#000000;stroke-width:0.3985;stroke-linecap:butt;stroke-linejoin:miter;stroke-miterlimit:10;stroke-dasharray:none;stroke-opacity:1"
       transform="matrix(1.3333333,0,0,-1.3333333,2955.1867,737.472)" />
    <g
       id="g489"
       aria-label="I&#10;c"
       transform="matrix(0.93333333,0,0,0.93333333,2848.7093,719.32667)">
      <path
         id="path490"
         d="m 4.3878795,-6.1591518 c 0.050223,-0.1674107 0.050223,-0.1674107 0.251116,-0.2008928 0.1506697,0 0.2845983,0 0.4352679,0 h 0.2008929 c 0.2176339,0 0.2176339,-0.016741 0.2678571,-0.050223 0.066964,-0.050223 0.1004464,-0.1841517 0.1004464,-0.234375 0,-0.1339285 -0.1004464,-0.1841517 -0.2176339,-0.1841517 -0.2511161,0 -0.5189732,0.016741 -0.7700893,0.016741 -0.2511161,0 -0.5189732,0.016741 -0.7868303,0.016741 -0.2845983,0 -0.5524554,-0.016741 -0.8370536,-0.016741 -0.2511161,0 -0.5189732,-0.016741 -0.7700893,-0.016741 -0.1004464,0 -0.2845982,0 -0.2845982,0.2845982 0,0.1841518 0.1506696,0.1841518 0.3348214,0.1841518 h 0.2176339 c 0.083705,0 0.3180804,0 0.5189733,0.016741 l -1.4229911,5.67522324 c -0.033482,0.16741072 -0.050223,0.16741072 -0.234375,0.18415179 -0.1171875,0.0167411 -0.3013393,0.0167411 -0.43526788,0.0167411 H 0.75506696 c -0.20089285,0 -0.36830357,0 -0.36830357,0.28459821 0,0.13392858 0.10044643,0.18415179 0.21763393,0.18415179 0.25111607,0 0.50223218,-0.01674107 0.75334818,-0.01674107 0.2678572,0 0.5357143,-0.01674107 0.8035715,-0.01674107 0.2845982,0 0.5524553,0.01674107 0.8370535,0.01674107 0.2511161,0 0.5022322,0.01674107 0.7533483,0.01674107 0.1004464,0 0.3013392,0 0.3013392,-0.28459821 0,-0.18415179 -0.1674107,-0.18415179 -0.3348214,-0.18415179 H 3.5006027 c -0.066964,0 -0.3850447,-0.0167411 -0.5189732,-0.0167411 z m 0,0"
         style="fill:#000000;fill-opacity:1;fill-rule:nonzero;stroke:none" />
      <path
         id="path491"
         d="m 8.9288951,-1.1828683 c -0.2511161,0.050223 -0.3683036,0.234375 -0.3683036,0.40178571 0,0.18415179 0.1506697,0.25111607 0.2845982,0.25111607 0.1506697,0 0.3850447,-0.1171875 0.3850447,-0.45200893 0,-0.46874995 -0.5357143,-0.60267855 -0.920759,-0.60267855 -1.0379464,0 -2.0089285,0.97098213 -2.0089285,1.94196427 0,0.5859375 0.4185268,1.20535713 1.2890625,1.20535713 1.171875,0 1.7243303,-0.68638392 1.7243303,-0.78683035 0,-0.0334821 -0.050223,-0.1171875 -0.1171875,-0.1171875 -0.033482,0 -0.050223,0.0167411 -0.1004464,0.0669643 C 8.5438504,1.3617746 7.7235379,1.3617746 7.6063504,1.3617746 c -0.5022321,0 -0.7366071,-0.3348215 -0.7366071,-0.77008933 0,-0.20089286 0.1004464,-0.95424107 0.46875,-1.43973214 0.2678571,-0.35156253 0.6361607,-0.53571433 0.9709821,-0.53571433 0.1004465,0 0.4352679,0.016741 0.6194197,0.2008929 z m 0,0"
         style="fill:#000000;fill-opacity:1;fill-rule:nonzero;stroke:none" />
    </g>
    <path
       id="path492"
       d="m -20.8351,-29.76436 -79.37439,-0.0011 m 0,0 -79.36703,0.0011"
       style="fill:none;stroke:#000000;stroke-width:0.3985;stroke-linecap:butt;stroke-linejoin:miter;stroke-miterlimit:10;stroke-dasharray:none;stroke-opacity:1"
       transform="matrix(1.3333333,0,0,-1.3333333,2955.1867,737.472)" />
    <path
       id="path493"
       d="m -178.46553,-29.76436 c 0,0.61359 -0.49741,1.11099 -1.11099,1.11099 -0.61359,0 -1.111,-0.4974 -1.111,-1.11099 0,-0.61358 0.49741,-1.11099 1.111,-1.11099 0.61358,0 1.11099,0.49741 1.11099,1.11099 z"
       style="fill:#000000;fill-opacity:1;fill-rule:nonzero;stroke:#000000;stroke-width:0.3985;stroke-linecap:butt;stroke-linejoin:miter;stroke-miterlimit:10;stroke-dasharray:none;stroke-opacity:1"
       transform="matrix(1.3333333,0,0,-1.3333333,2955.1867,737.472)" />
    <path
       id="path494"
       d="m 20.8351,29.76436 8.73184,0.0011 m 22.22462,0 8.72889,-0.0011 8.73333,0.0011 m 22.22458,0 8.72745,-0.0011 9.92537,0.0011 m 0,0 9.91732,-0.0011"
       style="fill:none;stroke:#000000;stroke-width:0.3985;stroke-linecap:butt;stroke-linejoin:miter;stroke-miterlimit:10;stroke-dasharray:none;stroke-opacity:1"
       transform="matrix(1.3333333,0,0,-1.3333333,2955.1867,737.472)" />
    <path
       id="path495"
       d="m 29.16737,29.76436 2.28371,4.16696 3.77036,-8.33394 3.77038,8.33394 3.77037,-8.33394 3.77037,8.33394 3.77037,-8.33394 1.8852,4.16698"
       style="fill:none;stroke:#000000;stroke-width:0.797;stroke-linecap:butt;stroke-linejoin:bevel;stroke-miterlimit:10;stroke-dasharray:none;stroke-opacity:1"
       transform="matrix(1.3333333,0,0,-1.3333333,2955.1867,737.472)" />
    <g
       id="g495"
       aria-label="R&#10;2"
       transform="matrix(0.93333333,0,0,0.93333333,3003.8107,687.38267)">
      <path
         id="path496"
         d="m 3.7352232,-6.1103348 c 0.066964,-0.2511161 0.083705,-0.3515625 0.2845982,-0.3683036 0.083705,-0.016741 0.4017857,-0.016741 0.6026786,-0.016741 0.703125,0 1.8080357,0 1.8080357,0.9877233 0,0.3348214 -0.1506696,1.0212053 -0.5357143,1.40625 -0.2678571,0.2678571 -0.7868303,0.5859375 -1.6908482,0.5859375 H 3.0823214 Z m 1.4397322,2.7287946 c 1.0044642,-0.2176339 2.1930803,-0.9207589 2.1930803,-1.9252232 0,-0.8537946 -0.9040178,-1.4899553 -2.2098214,-1.4899553 H 2.3289732 c -0.2008928,0 -0.3013393,0 -0.3013393,0.2008928 0,0.1004464 0.1004465,0.1004464 0.2845982,0.1004464 0.016741,0 0.217634,0 0.3850447,0.016741 0.1674107,0.016741 0.2678571,0.033482 0.2678571,0.1674107 0,0.033482 -0.016741,0.066964 -0.050223,0.1841518 l -1.3225446,5.35714286 c -0.1004465,0.38504465 -0.1339286,0.46875 -0.92075896,0.46875 -0.16741071,0 -0.26785714,0 -0.26785714,0.18415179 0,0.1171875 0.13392857,0.1171875 0.15066964,0.1171875 0.26785715,0 0.97098216,-0.03348214 1.25558036,-0.03348214 0.2678571,0 0.9877232,0.03348214 1.2555804,0.03348214 0.083705,0 0.2008928,0 0.2008928,-0.20089286 0,-0.10044643 -0.083705,-0.10044643 -0.2678571,-0.10044643 -0.3850447,0 -0.6529018,0 -0.6529018,-0.18415178 0,-0.0669643 0.016741,-0.1171875 0.033482,-0.16741072 L 3.0320982,-3.2978348 h 1.1886161 c 0.9040178,0 1.0881696,0.5524553 1.0881696,0.9040178 0,0.1506697 -0.083705,0.46875 -0.1506696,0.686384 -0.066964,0.2845982 -0.1506697,0.6529018 -0.1506697,0.85379461 0,1.07142857 1.1886161,1.07142857 1.3225447,1.07142857 0.8370536,0 1.1886161,-1.00446429 1.1886161,-1.13839286 0,-0.11718752 -0.1004465,-0.11718752 -0.1171875,-0.11718752 -0.083705,0 -0.1004465,0.0669643 -0.1339286,0.13392859 -0.2511161,0.73660715 -0.6696429,0.90401786 -0.9040179,0.90401786 -0.3180803,0 -0.4017857,-0.21763393 -0.4017857,-0.60267857 0,-0.31808036 0.066964,-0.82031248 0.1004464,-1.13839288 0.033482,-0.1339285 0.050223,-0.3348214 0.050223,-0.46875 0,-0.7700893 -0.6696429,-1.0714285 -0.9374997,-1.171875 z m 0,0"
         style="fill:#000000;fill-opacity:1;fill-rule:nonzero;stroke:none" />
      <path
         id="path497"
         d="m 11.097109,0.22197545 h -0.251116 c -0.01674,0.15066964 -0.08371,0.56919643 -0.16741,0.63616071 -0.06696,0.0502232 -0.602679,0.0502232 -0.7031254,0.0502232 H 8.7031362 c 0.719866,-0.65290179 0.9709821,-0.85379465 1.3895088,-1.18861608 0.518973,-0.40178571 1.004464,-0.83705358 1.004464,-1.50669638 0,-0.8370536 -0.753348,-1.3560268 -1.6406246,-1.3560268 -0.8705357,0 -1.4564732,0.6026786 -1.4564732,1.2555803 0,0.3515625 0.3013392,0.3850447 0.3683035,0.3850447 0.1674107,0 0.3683036,-0.1171875 0.3683036,-0.3683036 0,-0.1339286 -0.033482,-0.3683036 -0.4017857,-0.3683036 0.2176339,-0.5022321 0.6863839,-0.6529017 1.0212053,-0.6529017 0.6863841,0 1.0546871,0.5524553 1.0546871,1.1049107 0,0.6194196 -0.4352674,1.0881696 -0.6529013,1.33928567 L 8.0669754,1.2264397 c -0.066964,0.050223 -0.066964,0.066964 -0.066964,0.2678572 h 2.8794636 z m 0,0"
         style="fill:#000000;fill-opacity:1;fill-rule:nonzero;stroke:none" />
    </g>
    <path
       id="path498"
       d="m 68.85274,29.60497 c 0,2.30125 1.28833,4.16676 2.87759,4.16676 1.58927,0 2.8776,-1.86551 2.8776,-4.16676 0,2.30125 1.28834,4.16676 2.87759,4.16676 1.58926,0 2.87761,-1.86551 2.87761,-4.16676 0,2.30125 1.28833,4.16676 2.87759,4.16676 1.58927,0 2.8776,-1.86551 2.8776,-4.16676 0,2.30125 1.28834,4.16676 2.87759,4.16676 1.58926,0 2.87761,-1.86551 2.87761,-4.16676"
       style="fill:none;stroke:#000000;stroke-width:0.797;stroke-linecap:butt;stroke-linejoin:bevel;stroke-miterlimit:10;stroke-dasharray:none;stroke-opacity:1"
       transform="matrix(1.3333333,0,0,-1.3333333,2955.1867,737.472)" />
    <g
       id="g498"
       aria-label="X&#10;2"
       transform="matrix(0.93333333,0,0,0.93333333,3056.404,687.38267)">
      <path
         id="path499"
         d="M 4.8363951,-4.1014062 3.9993415,-6.0768527 c -0.033482,-0.083705 -0.050223,-0.1171875 -0.050223,-0.1339285 0,-0.050223 0.1674107,-0.2511161 0.5859375,-0.2845983 0.1004464,-0.016741 0.2008929,-0.016741 0.2008929,-0.1841517 0,-0.1171875 -0.1339286,-0.1171875 -0.1506697,-0.1171875 -0.4185268,0 -0.8370536,0.016741 -1.2555803,0.016741 -0.2511161,0 -0.8705358,-0.016741 -1.1216518,-0.016741 -0.050223,0 -0.1841518,0 -0.1841518,0.2008928 0,0.1004464 0.1004464,0.1004464 0.234375,0.1004464 0.6026786,0 0.6529018,0.1004465 0.7533482,0.3180804 l 1.171875,2.7790179 -2.109375,2.2600446 -0.1171875,0.1171875 c -0.5022321,0.51897321 -0.9542411,0.68638392 -1.47321428,0.71986606 -0.13392857,0 -0.21763393,0 -0.21763393,0.18415179 0,0.0167411 0,0.1171875 0.13392857,0.1171875 0.30133929,0 0.61941964,-0.03348214 0.93750004,-0.03348214 0.3683035,0 0.7533482,0.03348214 1.1049107,0.03348214 0.066964,0 0.1841518,0 0.1841518,-0.20089286 0,-0.10044643 -0.1004465,-0.10044643 -0.1171875,-0.10044643 -0.083705,-0.0167411 -0.4017858,-0.0334821 -0.4017858,-0.31808035 0,-0.15066965 0.1506697,-0.31808036 0.2678572,-0.45200891 l 1.0212053,-1.0714286 0.8872768,-0.9709821 1.0212054,2.37723211 c 0.033482,0.1171875 0.050223,0.1171875 0.050223,0.13392857 0,0.0837054 -0.2008929,0.25111607 -0.5859375,0.30133928 -0.1171875,0 -0.2008929,0.0167411 -0.2008929,0.18415179 0,0.1171875 0.1171875,0.1171875 0.1506697,0.1171875 0.2845982,0 0.9709821,-0.03348214 1.2555803,-0.03348214 0.2511161,0 0.8537947,0.03348214 1.1049108,0.03348214 0.066964,0 0.1841517,0 0.1841517,-0.18415179 0,-0.1171875 -0.1004464,-0.1171875 -0.1674107,-0.1171875 C 6.4267969,-0.31792411 6.4100558,-0.35140625 6.225904,-0.75319196 5.8408594,-1.6739509 5.1712165,-3.2308705 4.9535826,-3.816808 c 0.6696428,-0.703125 1.7243303,-1.8917411 2.0424107,-2.1763393 0.2845982,-0.234375 0.6696429,-0.46875 1.2555804,-0.5022322 0.1339285,-0.016741 0.2176339,-0.016741 0.2176339,-0.2008928 0,0 0,-0.1004464 -0.1171875,-0.1004464 -0.3013393,0 -0.6361607,0.016741 -0.9375,0.016741 -0.3683036,0 -0.7533482,-0.016741 -1.1049107,-0.016741 -0.066964,0 -0.2008929,0 -0.2008929,0.2008928 0,0.066964 0.050223,0.083705 0.1171875,0.1004464 0.1004464,0.016741 0.4017857,0.033482 0.4017857,0.3180804 0,0.1339286 -0.1004464,0.2678571 -0.1841518,0.3515625 z m 0,0"
         style="fill:#000000;fill-opacity:1;fill-rule:nonzero;stroke:none" />
      <path
         id="path500"
         d="m 11.788125,0.22197545 h -0.251116 c -0.01674,0.15066964 -0.08371,0.56919643 -0.167411,0.63616071 -0.06696,0.0502232 -0.602678,0.0502232 -0.703125,0.0502232 H 9.3941518 C 10.114018,0.25545759 10.365134,0.05456473 10.783661,-0.2802567 c 0.518973,-0.40178571 1.004464,-0.8370536 1.004464,-1.5066964 0,-0.8370536 -0.753348,-1.3560268 -1.640625,-1.3560268 -0.8705357,0 -1.4564732,0.6026786 -1.4564732,1.2555803 0,0.3515625 0.3013393,0.3850447 0.3683036,0.3850447 0.1674107,0 0.3683035,-0.1171875 0.3683035,-0.3683036 0,-0.1339286 -0.033482,-0.3683036 -0.4017857,-0.3683036 0.2176339,-0.5022321 0.6863839,-0.6529017 1.0212058,-0.6529017 0.686383,0 1.054687,0.5524553 1.054687,1.1049107 0,0.6194196 -0.435268,1.08816962 -0.652902,1.33928569 L 8.7579911,1.2264397 c -0.066964,0.050223 -0.066964,0.066964 -0.066964,0.2678572 h 2.8794639 z m 0,0"
         style="fill:#000000;fill-opacity:1;fill-rule:nonzero;stroke:none" />
    </g>
    <path
       id="path501"
       d="m 121.15948,29.76436 c 0,0.61358 -0.4974,1.11099 -1.11098,1.11099 -0.6136,0 -1.111,-0.49741 -1.111,-1.11099 0,-0.61359 0.4974,-1.11099 1.111,-1.11099 0.61358,0 1.11098,0.4974 1.11098,1.11099 z"
       style="fill:#000000;fill-opacity:1;fill-rule:nonzero;stroke:#000000;stroke-width:0.3985;stroke-linecap:butt;stroke-linejoin:miter;stroke-miterlimit:10;stroke-dasharray:none;stroke-opacity:1"
       transform="matrix(1.3333333,0,0,-1.3333333,2955.1867,737.472)" />
    <path
       id="path502"
       d="m 108.91585,29.76543 v -1.38897 l 2.95155,1.38897 -2.95155,1.38894 z"
       style="fill:#000000;fill-opacity:1;fill-rule:nonzero;stroke:#000000;stroke-width:0.3985;stroke-linecap:butt;stroke-linejoin:miter;stroke-miterlimit:10;stroke-dasharray:none;stroke-opacity:1"
       transform="matrix(1.3333333,0,0,-1.3333333,2955.1867,737.472)" />
    <g
       id="g502"
       aria-label="I&#10;2"
       transform="matrix(0.93333333,0,0,0.93333333,3097.2053,693.10533)">
      <path
         id="path503"
         d="m 4.3879799,-6.1605692 c 0.050223,-0.1674107 0.050223,-0.1674107 0.2511161,-0.2008929 0.1506696,0 0.2845982,0 0.4352678,0 h 0.2008929 c 0.2176339,0 0.2176339,-0.016741 0.2678571,-0.050223 0.066964,-0.050223 0.1004465,-0.1841518 0.1004465,-0.234375 0,-0.1339285 -0.1004465,-0.1841518 -0.217634,-0.1841518 -0.251116,0 -0.5189732,0.016741 -0.7700892,0.016741 -0.2511161,0 -0.5189733,0.016741 -0.7868304,0.016741 -0.2845982,0 -0.5524554,-0.016741 -0.8370536,-0.016741 -0.251116,0 -0.5189732,-0.016741 -0.7700893,-0.016741 -0.1004464,0 -0.2845982,0 -0.2845982,0.2845983 0,0.1841517 0.1506697,0.1841517 0.3348215,0.1841517 H 2.529721 c 0.083705,0 0.3180803,0 0.5189732,0.016741 l -1.4229911,5.67522323 c -0.033482,0.16741072 -0.050223,0.16741072 -0.234375,0.18415179 -0.1171875,0.0167411 -0.3013393,0.0167411 -0.43526783,0.0167411 H 0.75516741 c -0.20089286,0 -0.36830357,0 -0.36830357,0.28459821 0,0.13392857 0.10044643,0.18415178929 0.21763393,0.18415178929 0.25111607,0 0.50223213,-0.0167410693 0.75334823,-0.0167410693 0.2678571,0 0.5357143,-0.01674107 0.8035714,-0.01674107 0.2845982,0 0.5524554,0.01674107 0.8370536,0.01674107 0.2511161,0 0.5022321,0.0167410693 0.7533482,0.0167410693 0.1004464,0 0.3013393,0 0.3013393,-0.28459821929 0,-0.18415178 -0.1674107,-0.18415178 -0.3348214,-0.18415178 h -0.217634 c -0.066964,0 -0.3850446,-0.0167411 -0.5189732,-0.0167411 z m 0,0"
         style="fill:#000000;fill-opacity:1;fill-rule:nonzero;stroke:none" />
      <path
         id="path504"
         d="M 9.3977455,0.22196429 H 9.1466295 C 9.1298884,0.37263393 9.0629241,0.79116071 8.9792187,0.858125 8.9122545,0.90834821 8.3765402,0.90834821 8.2760937,0.90834821 H 7.0037723 C 7.7236384,0.25544643 7.9747545,0.05455357 8.3932812,-0.28026786 8.9122545,-0.68205357 9.3977455,-1.1173214 9.3977455,-1.7869643 c 0,-0.8370536 -0.7533482,-1.3560268 -1.640625,-1.3560268 -0.8705357,0 -1.4564732,0.6026786 -1.4564732,1.2555804 0,0.3515625 0.3013393,0.3850446 0.3683036,0.3850446 0.1674107,0 0.3683036,-0.1171875 0.3683036,-0.3683035 0,-0.1339286 -0.033482,-0.3683036 -0.4017858,-0.3683036 0.217634,-0.5022322 0.686384,-0.6529018 1.0212054,-0.6529018 0.6863839,0 1.0546875,0.5524554 1.0546875,1.1049107 0,0.6194197 -0.4352679,1.08816966 -0.6529018,1.33928573 L 6.3676116,1.2264286 c -0.066964,0.050223 -0.066964,0.066964 -0.066964,0.2678571 h 2.8794643 z m 0,0"
         style="fill:#000000;fill-opacity:1;fill-rule:nonzero;stroke:none" />
    </g>
    <path
       id="path505"
       d="m 4.0699777,-2.2927232 h 2.7790178 c 0.1506697,0 0.3348215,0 0.3348215,-0.2008929 0,-0.2008928 -0.1841518,-0.2008928 -0.3348215,-0.2008928 H 4.0699777 v -2.7790179 c 0,-0.1506696 0,-0.3348214 -0.2008929,-0.3348214 -0.1841518,0 -0.1841518,0.1841518 -0.1841518,0.3348214 v 2.7790179 H 0.88917411 c -0.13392857,0 -0.33482143,0 -0.33482143,0.2008928 0,0.2008929 0.20089286,0.2008929 0.33482143,0.2008929 H 3.684933 v 2.79575891 c 0,0.13392858 0,0.31808036 0.1841518,0.31808036 0.2008929,0 0.2008929,-0.18415178 0.2008929,-0.31808036 z m 0,0"
       style="fill:#000000;fill-opacity:1;fill-rule:nonzero;stroke:none"
       aria-label="+"
       transform="matrix(0.93333333,0,0,0.93333333,3111.6467,711.968)" />
    <path
       id="path506"
       d="m 6.5643973,-2.2924554 c 0.1674107,0 0.3515625,0 0.3515625,-0.2008928 0,-0.2008929 -0.1841518,-0.2008929 -0.3515625,-0.2008929 h -5.390625 c -0.1674107,0 -0.35156248,0 -0.35156248,0.2008929 0,0.2008928 0.18415178,0.2008928 0.35156248,0.2008928 z m 0,0"
       style="fill:#000000;fill-opacity:1;fill-rule:nonzero;stroke:none"
       aria-label="−"
       transform="matrix(0.93333333,0,0,0.93333333,3111.6467,767.624)" />
    <g
       id="g506"
       aria-label="V&#10;2"
       transform="matrix(0.93333333,0,0,0.93333333,3108.8373,739.964)">
      <path
         id="path507"
         d="m 7.5654688,-5.9589174 c 0.1506696,-0.2176339 0.2678571,-0.4017857 0.954241,-0.4017857 0.1171875,0 0.3013393,0 0.3013393,-0.2845982 0,-0.066964 -0.050223,-0.1841518 -0.1841518,-0.1841518 -0.2845982,0 -0.6026785,0.033482 -0.9040178,0.033482 -0.3683036,0 -0.7533482,-0.033482 -1.1049107,-0.033482 -0.066964,0 -0.2678572,0 -0.2678572,0.2845982 0,0.1841518 0.1674107,0.1841518 0.2678572,0.1841518 0.050223,0 0.3348214,0 0.5524553,0.1004464 l -3.28125,4.7712054 -0.8872768,-4.6540179 c 0,-0.033482 -0.016741,-0.1171875 -0.016741,-0.1339286 0,-0.083705 0.5357142,-0.083705 0.6026785,-0.083705 0.217634,0 0.3850447,0 0.3850447,-0.2845982 0,-0.1339286 -0.1004465,-0.1841518 -0.217634,-0.1841518 -0.251116,0 -0.5022321,0.016741 -0.7533482,0.016741 -0.251116,0 -0.485491,0.016741 -0.7366071,0.016741 -0.2176339,0 -0.4520089,-0.016741 -0.6863839,-0.016741 -0.217634,0 -0.452009,-0.016741 -0.65290184,-0.016741 -0.0837054,0 -0.28459821,0 -0.28459821,0.2845982 0,0.1841518 0.16741071,0.1841518 0.36830355,0.1841518 0.1339286,0 0.2511161,0 0.3850447,0 0.1171875,0.016741 0.1339285,0.033482 0.1506696,0.2008928 l 1.1383929,6.04352682 c 0.050223,0.28459821 0.1674107,0.28459821 0.3515625,0.28459821 0.2845982,0 0.3348214,-0.0669643 0.4520089,-0.25111607 z m 0,0"
         style="fill:#000000;fill-opacity:1;fill-rule:nonzero;stroke:none" />
      <path
         id="path508"
         d="M 12.830536,0.22272321 H 12.57942 c -0.01674,0.15066965 -0.08371,0.56919643 -0.167411,0.63616072 -0.06696,0.0502232 -0.602679,0.0502232 -0.703125,0.0502232 h -1.272321 c 0.719866,-0.65290178 0.970982,-0.85379464 1.389508,-1.18861607 0.518974,-0.40178571 1.004465,-0.83705356 1.004465,-1.50669646 0,-0.8370535 -0.753348,-1.3560267 -1.640625,-1.3560267 -0.870536,0 -1.4564735,0.6026785 -1.4564735,1.2555803 0,0.3515625 0.3013395,0.3850447 0.3683035,0.3850447 0.167411,0 0.368304,-0.1171875 0.368304,-0.3683036 0,-0.1339286 -0.03348,-0.3683036 -0.401786,-0.3683036 0.217634,-0.5022321 0.686384,-0.6529018 1.021205,-0.6529018 0.686384,0 1.054688,0.5524554 1.054688,1.1049107 0,0.6194197 -0.435268,1.08816968 -0.652902,1.33928575 L 9.8004018,1.2271875 c -0.066964,0.050223 -0.066964,0.066964 -0.066964,0.2678571 h 2.8794642 z m 0,0"
         style="fill:#000000;fill-opacity:1;fill-rule:nonzero;stroke:none" />
    </g>
    <path
       id="path509"
       d="m 20.8351,-29.76436 49.60927,-0.0011 m 0,0 49.60413,0.0011"
       style="fill:none;stroke:#000000;stroke-width:0.3985;stroke-linecap:butt;stroke-linejoin:miter;stroke-miterlimit:10;stroke-dasharray:none;stroke-opacity:1"
       transform="matrix(1.3333333,0,0,-1.3333333,2955.1867,737.472)" />
    <path
       id="path510"
       d="m 121.15948,-29.76436 c 0,0.61359 -0.4974,1.11099 -1.11098,1.11099 -0.6136,0 -1.111,-0.4974 -1.111,-1.11099 0,-0.61358 0.4974,-1.11099 1.111,-1.11099 0.61358,0 1.11098,0.49741 1.11098,1.11099 z"
       style="fill:#000000;fill-opacity:1;fill-rule:nonzero;stroke:#000000;stroke-width:0.3985;stroke-linecap:butt;stroke-linejoin:miter;stroke-miterlimit:10;stroke-dasharray:none;stroke-opacity:1"
       transform="matrix(1.3333333,0,0,-1.3333333,2955.1867,737.472)" />
    <path
       id="path511"
       d="M 4.0677902,-2.2927232 H 6.846808 c 0.1506697,0 0.3348215,0 0.3348215,-0.2008929 0,-0.2008928 -0.1841518,-0.2008928 -0.3348215,-0.2008928 H 4.0677902 v -2.7790179 c 0,-0.1506696 0,-0.3348214 -0.2008929,-0.3348214 -0.1841518,0 -0.1841518,0.1841518 -0.1841518,0.3348214 v 2.7790179 H 0.88698661 c -0.13392857,0 -0.33482143,0 -0.33482143,0.2008928 0,0.2008929 0.20089286,0.2008929 0.33482143,0.2008929 H 3.6827455 v 2.79575891 c 0,0.13392858 0,0.31808036 0.1841518,0.31808036 0.2008929,0 0.2008929,-0.18415178 0.2008929,-0.31808036 z m 0,0"
       style="fill:#000000;fill-opacity:1;fill-rule:nonzero;stroke:none"
       aria-label="+"
       transform="matrix(0.93333333,0,0,0.93333333,2923.7893,711.968)" />
    <path
       id="path512"
       d="m 6.5622098,-2.2924554 c 0.1674107,0 0.3515625,0 0.3515625,-0.2008928 0,-0.2008929 -0.1841518,-0.2008929 -0.3515625,-0.2008929 h -5.390625 c -0.1674107,0 -0.35156248,0 -0.35156248,0.2008929 0,0.2008928 0.18415178,0.2008928 0.35156248,0.2008928 z m 0,0"
       style="fill:#000000;fill-opacity:1;fill-rule:nonzero;stroke:none"
       aria-label="−"
       transform="matrix(0.93333333,0,0,0.93333333,2923.7893,767.624)" />
    <g
       id="g512"
       aria-label="E&#10;1"
       transform="matrix(0.93333333,0,0,0.93333333,2921.3,739.964)">
      <path
         id="path513"
         d="m 7.7854353,-2.3763281 c 0.050223,-0.1171875 0.050223,-0.1674107 0.050223,-0.1674107 0,-0.1841518 -0.1841518,-0.1841518 -0.234375,-0.1841518 -0.1674107,0 -0.1674107,0.016741 -0.2845982,0.2845982 -0.6026786,1.3225446 -1.1216518,1.97544642 -2.795759,1.97544642 H 3.2151228 c -0.1506697,0 -0.1674107,0 -0.234375,-0.0167411 L 3.6838728,-3.280346 h 0.6863839 c 0.5859375,0 0.7868304,0.1004464 0.7868304,0.4352679 0,0.1506696 -0.083705,0.4185268 -0.083705,0.4520089 l -0.016741,0.1004464 c 0,0.1506697 0.1339286,0.1841518 0.234375,0.1841518 0.1841518,0 0.2008929,-0.066964 0.2511161,-0.234375 l 0.5524554,-2.2265625 c 0.050223,-0.1339286 0.050223,-0.1506696 0.050223,-0.1674107 0,-0.1674107 -0.2008929,-0.1674107 -0.2511161,-0.1674107 -0.1841518,0 -0.2008929,0.066964 -0.2511161,0.2511161 C 5.4416853,-3.8997656 5.140346,-3.749096 4.3869978,-3.749096 H 3.8010603 l 0.6194196,-2.5279018 c 0.1339286,-0.033482 0.234375,-0.033482 0.3348214,-0.033482 h 1.3058036 c 1.0881697,0 1.5234375,0.2511161 1.5234375,1.1886161 0,0.1841517 -0.033482,0.4017857 -0.033482,0.5524553 0,0.2008929 0.1841518,0.2008929 0.234375,0.2008929 0.2176339,0 0.2176339,-0.1004465 0.251116,-0.2845982 l 0.1674108,-1.7745536 0.016741,-0.1674107 c 0,-0.1841518 -0.1674107,-0.1841518 -0.3348214,-0.1841518 H 2.3780692 c -0.2176339,0 -0.2176339,0.016741 -0.2678571,0.050223 -0.083705,0.050223 -0.1004465,0.234375 -0.1004465,0.2511161 0,0.1674107 0.1506697,0.1674107 0.4185268,0.1674107 0.2008929,0 0.3850447,0.016741 0.6026786,0.033482 l -1.40625,5.60825896 c -0.033482,0.16741072 -0.050223,0.16741072 -0.234375,0.18415179 -0.1674107,0.0167411 -0.3683036,0.0167411 -0.51897323,0.0167411 -0.26785714,0 -0.28459822,0 -0.31808036,0.0167411 -0.1171875,0.0669643 -0.1171875,0.234375 -0.1171875,0.26785714 0,0.18415178786 0.16741072,0.18415178786 0.33482143,0.18415178786 H 6.4628906 c 0.234375,0 0.2678572,0 0.3683036,-0.20089285786 z m 0,0"
         style="fill:#000000;fill-opacity:1;fill-rule:nonzero;stroke:none" />
      <path
         id="path514"
         d="m 10.957868,-2.9413393 c 0,-0.1841518 -0.01674,-0.2008928 -0.217634,-0.2008928 -0.452009,0.4352678 -1.0714282,0.4520089 -1.3727675,0.4520089 v 0.2511161 c 0.1674107,0 0.6361605,0 1.0212055,-0.2008929 v 3.56584821 c 0,0.23437499 0,0.31808039 -0.7031251,0.31808039 H 9.4176897 v 0.251116 c 0.1339286,0 0.9877233,-0.033482 1.2555803,-0.033482 0.217634,0 1.08817,0.033482 1.238839,0.033482 v -0.251116 h -0.267857 c -0.686384,0 -0.686384,-0.083705 -0.686384,-0.31808039 z m 0,0"
         style="fill:#000000;fill-opacity:1;fill-rule:nonzero;stroke:none" />
    </g>
    <path
       id="path515"
       d="m 4.0676116,-2.2927232 h 2.7790179 c 0.1506696,0 0.3348214,0 0.3348214,-0.2008929 0,-0.2008928 -0.1841518,-0.2008928 -0.3348214,-0.2008928 H 4.0676116 v -2.7790179 c 0,-0.1506696 0,-0.3348214 -0.2008928,-0.3348214 -0.1841518,0 -0.1841518,0.1841518 -0.1841518,0.3348214 v 2.7790179 H 0.88680804 c -0.13392858,0 -0.33482143,0 -0.33482143,0.2008928 0,0.2008929 0.20089285,0.2008929 0.33482143,0.2008929 H 3.682567 v 2.79575891 c 0,0.13392858 0,0.31808036 0.1841518,0.31808036 0.2008928,0 0.2008928,-0.18415178 0.2008928,-0.31808036 z m 0,0"
       style="fill:#000000;fill-opacity:1;fill-rule:nonzero;stroke:none"
       aria-label="+"
       transform="matrix(0.93333333,0,0,0.93333333,2979.352,711.968)" />
    <path
       id="path516"
       d="m 6.5620313,-2.2924554 c 0.1674107,0 0.3515625,0 0.3515625,-0.2008928 0,-0.2008929 -0.1841518,-0.2008929 -0.3515625,-0.2008929 h -5.390625 c -0.1674108,0 -0.35156255,0 -0.35156255,0.2008929 0,0.2008928 0.18415175,0.2008928 0.35156255,0.2008928 z m 0,0"
       style="fill:#000000;fill-opacity:1;fill-rule:nonzero;stroke:none"
       aria-label="−"
       transform="matrix(0.93333333,0,0,0.93333333,2979.352,767.624)" />
    <g
       id="g516"
       aria-label="E&#10;2"
       transform="matrix(0.93333333,0,0,0.93333333,2976.8627,739.964)">
      <path
         id="path517"
         d="m 7.7852567,-2.3763281 c 0.050223,-0.1171875 0.050223,-0.1674107 0.050223,-0.1674107 0,-0.1841518 -0.1841518,-0.1841518 -0.234375,-0.1841518 -0.1674107,0 -0.1674107,0.016741 -0.2845982,0.2845982 -0.6026786,1.3225446 -1.1216518,1.97544642 -2.7957589,1.97544642 H 3.2149442 c -0.1506696,0 -0.1674107,0 -0.234375,-0.0167411 L 3.6836942,-3.280346 h 0.6863839 c 0.5859375,0 0.7868304,0.1004464 0.7868304,0.4352679 0,0.1506696 -0.083705,0.4185268 -0.083705,0.4520089 l -0.016741,0.1004464 c 0,0.1506697 0.1339285,0.1841518 0.234375,0.1841518 0.1841517,0 0.2008928,-0.066964 0.251116,-0.234375 l 0.5524554,-2.2265625 c 0.050223,-0.1339286 0.050223,-0.1506696 0.050223,-0.1674107 0,-0.1674107 -0.2008929,-0.1674107 -0.2511161,-0.1674107 -0.1841518,0 -0.2008928,0.066964 -0.251116,0.2511161 C 5.4415067,-3.8997656 5.1401674,-3.749096 4.3868192,-3.749096 H 3.8008817 l 0.6194196,-2.5279018 c 0.1339286,-0.033482 0.234375,-0.033482 0.3348215,-0.033482 h 1.3058035 c 1.0881697,0 1.5234375,0.2511161 1.5234375,1.1886161 0,0.1841517 -0.033482,0.4017857 -0.033482,0.5524553 0,0.2008929 0.1841518,0.2008929 0.234375,0.2008929 0.2176339,0 0.2176339,-0.1004465 0.2511161,-0.2845982 l 0.1674107,-1.7745536 0.016741,-0.1674107 c 0,-0.1841518 -0.1674108,-0.1841518 -0.3348215,-0.1841518 H 2.3778906 c -0.2176339,0 -0.2176339,0.016741 -0.2678571,0.050223 -0.083705,0.050223 -0.1004464,0.234375 -0.1004464,0.2511161 0,0.1674107 0.1506696,0.1674107 0.4185267,0.1674107 0.2008929,0 0.3850447,0.016741 0.6026786,0.033482 l -1.40625,5.60825896 c -0.033482,0.16741072 -0.050223,0.16741072 -0.234375,0.18415179 -0.1674107,0.0167411 -0.3683036,0.0167411 -0.5189732,0.0167411 -0.26785715,0 -0.28459822,0 -0.31808036,0.0167411 -0.1171875,0.0669643 -0.1171875,0.234375 -0.1171875,0.26785714 0,0.18415178786 0.16741071,0.18415178786 0.33482143,0.18415178786 H 6.4627121 c 0.234375,0 0.2678571,0 0.3683035,-0.20089285786 z m 0,0"
         style="fill:#000000;fill-opacity:1;fill-rule:nonzero;stroke:none" />
      <path
         id="path518"
         d="M 12.146306,0.22272321 H 11.89519 c -0.01674,0.15066965 -0.08371,0.56919643 -0.167411,0.63616072 -0.06696,0.0502232 -0.602679,0.0502232 -0.703125,0.0502232 H 9.7523326 C 10.472199,0.25620536 10.723315,0.0553125 11.141842,-0.27950893 c 0.518973,-0.40178571 1.004464,-0.83705357 1.004464,-1.50669647 0,-0.8370535 -0.753348,-1.3560267 -1.640625,-1.3560267 -0.8705359,0 -1.4564734,0.6026785 -1.4564734,1.2555803 0,0.3515625 0.3013393,0.3850447 0.3683036,0.3850447 0.1674107,0 0.3683035,-0.1171875 0.3683035,-0.3683036 0,-0.1339286 -0.033482,-0.3683036 -0.4017857,-0.3683036 0.2176339,-0.5022321 0.686384,-0.6529018 1.021205,-0.6529018 0.686384,0 1.054688,0.5524554 1.054688,1.1049107 0,0.6194197 -0.435268,1.08816969 -0.652902,1.33928576 L 9.1161719,1.2271875 c -0.066964,0.050223 -0.066964,0.066964 -0.066964,0.2678571 h 2.8794641 z m 0,0"
         style="fill:#000000;fill-opacity:1;fill-rule:nonzero;stroke:none" />
    </g>
    <g
       id="g518"
       aria-label="N&#10;1&#10;:N&#10;2"
       transform="matrix(0.93333333,0,0,0.93333333,2939.6693,792.86533)">
      <path
         id="path519"
         d="m 7.5320201,-5.756942 c 0.1004464,-0.4017857 0.2678571,-0.703125 1.0714286,-0.7366071 0.050223,0 0.1674107,-0.016741 0.1674107,-0.2008929 0,0 0,-0.1004464 -0.1339286,-0.1004464 -0.3180804,0 -0.6696429,0.016741 -1.0044643,0.016741 -0.3348214,0 -0.6863839,-0.016741 -1.0044643,-0.016741 -0.066964,0 -0.1841518,0 -0.1841518,0.2008929 0,0.1004464 0.1004465,0.1004464 0.1841518,0.1004464 0.5691965,0.016741 0.6696429,0.2176339 0.6696429,0.4352678 0,0.033482 -0.016741,0.1841518 -0.033482,0.217634 L 6.1592522,-1.4042634 3.9494308,-6.6107366 C 3.8657254,-6.7948884 3.8657254,-6.7948884 3.6313504,-6.7948884 H 2.2920647 c -0.1841518,0 -0.2845982,0 -0.2845982,0.2008929 0,0.1004464 0.1004464,0.1004464 0.2845982,0.1004464 0.050223,0 0.6696429,0 0.6696429,0.083705 l -1.3225447,5.3571429 c -0.1004464,0.40178572 -0.2678571,0.71986608 -1.0881696,0.75334822 -0.0502232,0 -0.16741071,0 -0.16741071,0.18415179 0,0.08370535 0.0502232,0.1171875 0.13392857,0.1171875 0.31808036,0 0.66964284,-0.03348215 0.98772324,-0.03348215 0.3515625,0 0.703125,0.03348215 1.0379464,0.03348215 0.050223,0 0.1674107,0 0.1674107,-0.20089286 0,-0.10044643 -0.083705,-0.10044643 -0.1841518,-0.10044643 -0.5859375,-0.0334821 -0.6696428,-0.25111607 -0.6696428,-0.45200893 0,-0.0669643 0.016741,-0.1171875 0.050223,-0.21763393 L 3.2128237,-6.225692 c 0.050223,0.050223 0.050223,0.066964 0.1004464,0.1674107 l 2.4776786,5.87611612 c 0.066964,0.16741072 0.1004464,0.18415179 0.1841517,0.18415179 0.1171875,0 0.1171875,-0.03348215 0.1674108,-0.20089286 z m 0,0"
         style="fill:#000000;fill-opacity:1;fill-rule:nonzero;stroke:none" />
      <path
         id="path520"
         d="m 10.348705,-2.944442 c 0,-0.1841518 -0.01674,-0.2008928 -0.217634,-0.2008928 -0.4520085,0.4352678 -1.0714281,0.4520089 -1.3727674,0.4520089 v 0.2511161 c 0.1674107,0 0.6361607,0 1.0212053,-0.2008929 v 3.56584824 c 0,0.23437496 0,0.31808036 -0.703125,0.31808036 H 8.8085268 V 1.491942 c 0.1339286,0 0.9877232,-0.033482 1.2555802,-0.033482 0.217634,0 1.08817,0.033482 1.238839,0.033482 V 1.2408259 h -0.267857 c -0.686384,0 -0.686384,-0.083705 -0.686384,-0.31808036 z m 0,0"
         style="fill:#000000;fill-opacity:1;fill-rule:nonzero;stroke:none" />
      <path
         id="path521"
         d="m 17.149766,-3.7647545 c 0,-0.2845982 -0.234375,-0.5189732 -0.518974,-0.5189732 -0.301339,0 -0.535714,0.234375 -0.535714,0.5189732 0,0.2845982 0.234375,0.5357143 0.535714,0.5357143 0.284599,0 0.518974,-0.2511161 0.518974,-0.5357143 z m 0,3.23102682 c 0,-0.28459821 -0.234375,-0.51897322 -0.518974,-0.51897322 -0.301339,0 -0.535714,0.23437501 -0.535714,0.51897322 0,0.30133929 0.234375,0.53571429 0.535714,0.53571429 0.284599,0 0.518974,-0.234375 0.518974,-0.53571429 z m 0,0"
         style="fill:#000000;fill-opacity:1;fill-rule:nonzero;stroke:none" />
      <path
         id="path522"
         d="m 28.311875,-5.756942 c 0.100446,-0.4017857 0.267857,-0.703125 1.071429,-0.7366071 0.05022,0 0.16741,-0.016741 0.16741,-0.2008929 0,0 0,-0.1004464 -0.133928,-0.1004464 -0.318081,0 -0.669643,0.016741 -1.004465,0.016741 -0.334821,0 -0.686383,-0.016741 -1.004464,-0.016741 -0.06696,0 -0.184152,0 -0.184152,0.2008929 0,0.1004464 0.100447,0.1004464 0.184152,0.1004464 0.569197,0.016741 0.669643,0.2176339 0.669643,0.4352678 0,0.033482 -0.01674,0.1841518 -0.03348,0.217634 l -1.104911,4.4363839 -2.209821,-5.2064732 C 24.64558,-6.7948884 24.64558,-6.7948884 24.411205,-6.7948884 H 23.07192 c -0.184152,0 -0.284599,0 -0.284599,0.2008929 0,0.1004464 0.100447,0.1004464 0.284599,0.1004464 0.05022,0 0.669643,0 0.669643,0.083705 l -1.322545,5.3571429 c -0.100447,0.40178572 -0.267857,0.71986608 -1.08817,0.75334822 -0.05022,0 -0.16741,0 -0.16741,0.18415179 0,0.08370535 0.05022,0.1171875 0.133928,0.1171875 0.31808,0 0.669643,-0.03348215 0.987723,-0.03348215 0.351563,0 0.703125,0.03348215 1.037947,0.03348215 0.05022,0 0.16741,0 0.16741,-0.20089286 0,-0.10044643 -0.0837,-0.10044643 -0.184151,-0.10044643 -0.585938,-0.0334821 -0.669643,-0.25111607 -0.669643,-0.45200893 0,-0.0669643 0.01674,-0.1171875 0.05022,-0.21763393 L 23.992679,-6.225692 c 0.05022,0.050223 0.05022,0.066964 0.100446,0.1674107 l 2.477679,5.87611612 c 0.06696,0.16741072 0.100446,0.18415179 0.184151,0.18415179 0.117188,0 0.117188,-0.03348215 0.167411,-0.20089286 z m 0,0"
         style="fill:#000000;fill-opacity:1;fill-rule:nonzero;stroke:none" />
      <path
         id="path523"
         d="m 32.312991,0.21962054 h -0.251116 c -0.01674,0.15066964 -0.08371,0.56919642 -0.167411,0.63616071 -0.06696,0.0502232 -0.602678,0.0502232 -0.703125,0.0502232 H 29.919018 C 30.638884,0.25310268 30.89,0.05220982 31.308527,-0.28261161 31.8275,-0.68439732 32.312991,-1.1196652 32.312991,-1.789308 c 0,-0.8370536 -0.753348,-1.3560268 -1.640625,-1.3560268 -0.870536,0 -1.456473,0.6026785 -1.456473,1.2555803 0,0.3515625 0.301339,0.3850447 0.368303,0.3850447 0.167411,0 0.368304,-0.1171875 0.368304,-0.3683036 0,-0.1339286 -0.03348,-0.3683036 -0.401786,-0.3683036 0.217634,-0.5022321 0.686384,-0.6529018 1.021206,-0.6529018 0.686384,0 1.054687,0.5524554 1.054687,1.1049108 0,0.6194196 -0.435268,1.08816961 -0.652902,1.33928568 L 29.282857,1.2240848 c -0.06696,0.050223 -0.06696,0.066964 -0.06696,0.2678572 h 2.879464 z m 0,0"
         style="fill:#000000;fill-opacity:1;fill-rule:nonzero;stroke:none" />
    </g>
  </g>
</svg>
