<?xml version="1.0" encoding="UTF-8" standalone="no"?>
<!-- Created with Inkscape (http://www.inkscape.org/) -->

<svg
   version="1.1"
   id="svg1"
   width="224.91406"
   height="98.219482"
   viewBox="0 0 224.91406 98.219482"
   sodipodi:docname="CircuiTikz (18).pdf"
   xmlns:inkscape="http://www.inkscape.org/namespaces/inkscape"
   xmlns:sodipodi="http://sodipodi.sourceforge.net/DTD/sodipodi-0.dtd"
   xmlns="http://www.w3.org/2000/svg"
   xmlns:svg="http://www.w3.org/2000/svg">
  <defs
     id="defs1" />
  <sodipodi:namedview
     id="namedview1"
     pagecolor="#ffffff"
     bordercolor="#000000"
     borderopacity="0.25"
     inkscape:showpageshadow="2"
     inkscape:pageopacity="0.0"
     inkscape:pagecheckerboard="0"
     inkscape:deskcolor="#d1d1d1">
    <inkscape:page
       x="3.279725e-06"
       y="1.5501911e-06"
       width="224.91406"
       height="98.219482"
       id="page2"
       margin="0"
       bleed="0" />
  </sodipodi:namedview>
  <g
     id="g323"
     inkscape:groupmode="layer"
     inkscape:label="4"
     transform="translate(-2803.0625,-360.91016)">
    <path
       id="path372"
       d="m 0,0 h 79.37363 m 0,0 h 79.36779"
       style="fill:none;stroke:#000000;stroke-width:0.3985;stroke-linecap:butt;stroke-linejoin:miter;stroke-miterlimit:10;stroke-dasharray:none;stroke-opacity:1"
       transform="matrix(1.3333333,0,0,-1.3333333,2809.4853,457.38267)" />
    <path
       id="path373"
       d="M 1.11098,0 C 1.11098,0.61357 0.61357,1.11098 0,1.11098 -0.61357,1.11098 -1.11098,0.61357 -1.11098,0 c 0,-0.61357 0.49741,-1.11098 1.11098,-1.11098 0.61357,0 1.11098,0.49741 1.11098,1.11098 z"
       style="fill:#000000;fill-opacity:1;fill-rule:nonzero;stroke:#000000;stroke-width:0.3985;stroke-linecap:butt;stroke-linejoin:miter;stroke-miterlimit:10;stroke-dasharray:none;stroke-opacity:1"
       transform="matrix(1.3333333,0,0,-1.3333333,2809.4853,457.38267)" />
    <path
       id="path374"
       d="m 159.85242,0 c 0,0.61357 -0.49741,1.11098 -1.111,1.11098 -0.61358,0 -1.11099,-0.49741 -1.11099,-1.11098 0,-0.61357 0.49741,-1.11098 1.11099,-1.11098 0.61359,0 1.111,0.49741 1.111,1.11098 z"
       style="fill:#000000;fill-opacity:1;fill-rule:nonzero;stroke:#000000;stroke-width:0.3985;stroke-linecap:butt;stroke-linejoin:miter;stroke-miterlimit:10;stroke-dasharray:none;stroke-opacity:1"
       transform="matrix(1.3333333,0,0,-1.3333333,2809.4853,457.38267)" />
    <path
       id="path375"
       d="m 0,59.52802 14.88254,0.0022 m 0,0 14.88146,-0.0022 4.96194,0.0022 m 0,0 4.95941,-0.0022 8.73255,0.0022 m 22.2246,0 8.72821,-0.0022 8.73406,0.0022 m 22.22456,0 8.72673,-0.0022 4.96524,0.0022 m 0,0 4.9561,-0.0022 14.88733,0.0022 m 0,0 14.87669,-0.0022"
       style="fill:none;stroke:#000000;stroke-width:0.3985;stroke-linecap:butt;stroke-linejoin:miter;stroke-miterlimit:10;stroke-dasharray:none;stroke-opacity:1"
       transform="matrix(1.3333333,0,0,-1.3333333,2809.4853,457.38267)" />
    <path
       id="path376"
       d="M 1.11098,59.52802 C 1.11098,60.1416 0.61357,60.639 0,60.639 c -0.61357,0 -1.11098,-0.4974 -1.11098,-1.11098 0,-0.61358 0.49741,-1.111 1.11098,-1.111 0.61357,0 1.11098,0.49742 1.11098,1.111 z"
       style="fill:#000000;fill-opacity:1;fill-rule:nonzero;stroke:#000000;stroke-width:0.3985;stroke-linecap:butt;stroke-linejoin:miter;stroke-miterlimit:10;stroke-dasharray:none;stroke-opacity:1"
       transform="matrix(1.3333333,0,0,-1.3333333,2809.4853,457.38267)" />
    <path
       id="path377"
       d="m 13.66719,59.53018 v -1.38896 l 2.95155,1.38896 -2.95155,1.38896 z"
       style="fill:#000000;fill-opacity:1;fill-rule:nonzero;stroke:#000000;stroke-width:0.3985;stroke-linecap:butt;stroke-linejoin:miter;stroke-miterlimit:10;stroke-dasharray:none;stroke-opacity:1"
       transform="matrix(1.3333333,0,0,-1.3333333,2809.4853,457.38267)" />
    <g
       id="g377"
       aria-label="I&#10;S"
       transform="matrix(0.93333333,0,0,0.93333333,2823.8973,373.328)">
      <path
         id="path378"
         d="m 4.3873438,-6.1605804 c 0.050223,-0.1674107 0.050223,-0.1674107 0.251116,-0.2008928 0.1506697,0 0.2845982,0 0.4352679,0 h 0.2008928 c 0.217634,0 0.217634,-0.016741 0.2678572,-0.050223 0.066964,-0.050223 0.1004464,-0.1841518 0.1004464,-0.234375 0,-0.1339286 -0.1004464,-0.1841518 -0.2176339,-0.1841518 -0.2511161,0 -0.5189732,0.016741 -0.7700893,0.016741 -0.2511161,0 -0.5189732,0.016741 -0.7868304,0.016741 -0.2845982,0 -0.5524553,-0.016741 -0.8370535,-0.016741 -0.2511161,0 -0.5189732,-0.016741 -0.7700893,-0.016741 -0.1004464,0 -0.2845982,0 -0.2845982,0.2845982 0,0.1841518 0.1506696,0.1841518 0.3348214,0.1841518 h 0.2176339 c 0.083705,0 0.3180804,0 0.5189732,0.016741 l -1.422991,5.67522317 c -0.033482,0.16741072 -0.050223,0.16741072 -0.234375,0.18415179 -0.1171875,0.0167411 -0.3013393,0.0167411 -0.43526789,0.0167411 H 0.75453125 c -0.20089286,0 -0.36830357,0 -0.36830357,0.28459821 0,0.13392857 0.10044643,0.18415178857 0.21763393,0.18415178857 0.25111607,0 0.50223219,-0.0167410686 0.75334819,-0.0167410686 0.2678572,0 0.5357143,-0.01674107 0.8035715,-0.01674107 0.2845982,0 0.5524553,0.01674107 0.8370535,0.01674107 0.2511161,0 0.5022322,0.0167410686 0.7533482,0.0167410686 0.1004465,0 0.3013393,0 0.3013393,-0.28459821857 0,-0.18415178 -0.1674107,-0.18415178 -0.3348214,-0.18415178 H 3.500067 c -0.066964,0 -0.3850447,-0.0167411 -0.5189732,-0.0167411 z m 0,0"
         style="fill:#000000;fill-opacity:1;fill-rule:nonzero;stroke:none" />
      <path
         id="path379"
         d="m 10.824286,-3.327154 c 0,-0.033482 -0.01674,-0.083705 -0.08371,-0.083705 -0.05022,0 -0.05022,0 -0.150669,0.1004465 l -0.334822,0.3850446 c -0.2678529,-0.368304 -0.7031207,-0.4854915 -1.1383886,-0.4854915 -0.9709821,0 -1.8582589,0.7868304 -1.8582589,1.5904018 0,0.1171875 0.033482,0.3850447 0.234375,0.6529018 0.234375,0.26785714 0.5022321,0.33482142 0.9709821,0.45200892 0.1339286,0.0334821 0.4854911,0.10044643 0.6026786,0.13392858 0.2176339,0.0502232 0.6361607,0.21763392 0.6361607,0.73660714 0,0.56919643 -0.5859375,1.22209826 -1.3895089,1.22209826 -0.6026786,0 -1.3560268,-0.217634 -1.3560268,-0.98772326 0,-0.0669643 0.016741,-0.21763393 0.050223,-0.3515625 0,-0.01674107 0,-0.03348214 0,-0.03348214 0,-0.10044643 -0.083705,-0.10044643 -0.1004464,-0.10044643 -0.1004464,0 -0.1171875,0.01674107 -0.1339286,0.15066964 L 6.4213839,1.4440513 c -0.016741,0.033482 -0.033482,0.066964 -0.033482,0.1004465 0,0.050223 0.033482,0.083705 0.1004464,0.083705 0.050223,0 0.050223,0 0.1339286,-0.083705 0.083705,-0.1004465 0.2678571,-0.3180804 0.3348214,-0.4017857 0.3850447,0.4017857 0.9207589,0.485491 1.3392857,0.485491 1.0546875,0 1.908482,-0.90401783 1.908482,-1.72433033 0,-0.30133929 -0.133928,-0.5859375 -0.284598,-0.75334822 C 9.6858929,-1.1005915 9.5687054,-1.1173326 8.6814286,-1.3349665 8.5307589,-1.3684487 8.2963839,-1.4186719 8.2294196,-1.452154 c -0.1674107,-0.050223 -0.46875,-0.234375 -0.46875,-0.6361607 0,-0.5357143 0.6361608,-1.1049107 1.3560268,-1.1049107 0.7533482,0 1.1216516,0.4352678 1.1216516,1.0881696 0,0.1004464 -0.03348,0.2511161 -0.03348,0.3180804 0,0.1004464 0.0837,0.1004464 0.117188,0.1004464 0.100446,0 0.117187,-0.033482 0.133928,-0.1506697 z m 0,0"
         style="fill:#000000;fill-opacity:1;fill-rule:nonzero;stroke:none" />
    </g>
    <path
       id="path380"
       d="m 48.01762,59.52802 2.28371,4.16697 3.77037,-8.33394 3.77037,8.33394 3.77037,-8.33394 3.77037,8.33394 3.77037,-8.33394 1.8852,4.16697"
       style="fill:none;stroke:#000000;stroke-width:0.797;stroke-linecap:butt;stroke-linejoin:bevel;stroke-miterlimit:10;stroke-dasharray:none;stroke-opacity:1"
       transform="matrix(1.3333333,0,0,-1.3333333,2809.4853,457.38267)" />
    <path
       id="path381"
       d="m 87.703,59.36862 c 0,2.30127 1.28833,4.16678 2.8776,4.16678 1.58926,0 2.87759,-1.86551 2.87759,-4.16678 0,2.30127 1.28835,4.16678 2.87761,4.16678 1.58925,0 2.8776,-1.86551 2.8776,-4.16678 0,2.30127 1.28832,4.16678 2.87759,4.16678 1.58926,0 2.87759,-1.86551 2.87759,-4.16678 0,2.30127 1.28835,4.16678 2.87761,4.16678 1.58925,0 2.8776,-1.86551 2.8776,-4.16678"
       style="fill:none;stroke:#000000;stroke-width:0.797;stroke-linecap:butt;stroke-linejoin:bevel;stroke-miterlimit:10;stroke-dasharray:none;stroke-opacity:1"
       transform="matrix(1.3333333,0,0,-1.3333333,2809.4853,457.38267)" />
    <path
       id="path382"
       d="m 159.85242,59.52802 c 0,0.61358 -0.49741,1.11098 -1.111,1.11098 -0.61358,0 -1.11099,-0.4974 -1.11099,-1.11098 0,-0.61358 0.49741,-1.111 1.11099,-1.111 0.61359,0 1.111,0.49742 1.111,1.111 z"
       style="fill:#000000;fill-opacity:1;fill-rule:nonzero;stroke:#000000;stroke-width:0.3985;stroke-linecap:butt;stroke-linejoin:miter;stroke-miterlimit:10;stroke-dasharray:none;stroke-opacity:1"
       transform="matrix(1.3333333,0,0,-1.3333333,2809.4853,457.38267)" />
    <path
       id="path383"
       d="m 142.64937,59.53018 v -1.38896 l 2.95155,1.38896 -2.95155,1.38896 z"
       style="fill:#000000;fill-opacity:1;fill-rule:nonzero;stroke:#000000;stroke-width:0.3985;stroke-linecap:butt;stroke-linejoin:miter;stroke-miterlimit:10;stroke-dasharray:none;stroke-opacity:1"
       transform="matrix(1.3333333,0,0,-1.3333333,2809.4853,457.38267)" />
    <g
       id="g383"
       aria-label="I&#10;R"
       transform="matrix(0.93333333,0,0,0.93333333,2995.5187,373.32933)">
      <path
         id="path384"
         d="m 4.3870871,-6.1620089 c 0.050223,-0.1674107 0.050223,-0.1674107 0.251116,-0.2008929 0.1506697,0 0.2845982,0 0.4352679,0 h 0.2008928 c 0.217634,0 0.217634,-0.016741 0.2678572,-0.050223 0.066964,-0.050223 0.1004464,-0.1841518 0.1004464,-0.234375 0,-0.1339286 -0.1004464,-0.1841518 -0.2176339,-0.1841518 -0.2511161,0 -0.5189732,0.016741 -0.7700893,0.016741 -0.2511161,0 -0.5189732,0.016741 -0.7868304,0.016741 -0.2845982,0 -0.5524553,-0.016741 -0.8370535,-0.016741 -0.2511161,0 -0.5189732,-0.016741 -0.7700893,-0.016741 -0.1004464,0 -0.2845982,0 -0.2845982,0.2845982 0,0.1841518 0.1506696,0.1841518 0.3348214,0.1841518 h 0.2176339 c 0.083705,0 0.3180804,0 0.5189732,0.016741 l -1.422991,5.6752232 c -0.033482,0.16741071 -0.050223,0.16741071 -0.234375,0.18415179 -0.1171875,0.0167411 -0.3013393,0.0167411 -0.43526789,0.0167411 H 0.75427455 c -0.20089285,0 -0.36830357,0 -0.36830357,0.28459821 0,0.13392857 0.10044643,0.18415179 0.21763393,0.18415179 0.25111607,0 0.50223219,-0.01674107 0.75334819,-0.01674107 0.2678572,0 0.5357143,-0.01674108 0.8035715,-0.01674108 0.2845982,0 0.5524553,0.01674108 0.8370535,0.01674108 0.2511161,0 0.5022322,0.01674107 0.7533482,0.01674107 0.1004465,0 0.3013393,0 0.3013393,-0.28459822 0,-0.18415178 -0.1674107,-0.18415178 -0.3348214,-0.18415178 H 3.4998103 c -0.066964,0 -0.3850447,-0.0167411 -0.5189732,-0.0167411 z m 0,0"
         style="fill:#000000;fill-opacity:1;fill-rule:nonzero;stroke:none" />
      <path
         id="path385"
         d="m 8.7481362,-2.7928683 c 0.050223,-0.1841518 0.066964,-0.2176339 0.2176339,-0.234375 H 9.417779 c 0.652902,0 1.456473,0 1.456473,0.7198661 0,0.2845982 -0.133928,0.7366071 -0.46875,0.9877232 -0.284598,0.2176339 -0.7198658,0.33482141 -1.2053569,0.33482141 H 8.3128683 Z m 1.2723218,1.90848214 c 0.820312,-0.18415174 1.57366,-0.68638394 1.57366,-1.32254464 0,-0.5859375 -0.719866,-1.0714286 -1.7243301,-1.0714286 H 7.7269308 c -0.1339286,0 -0.234375,0 -0.234375,0.1506697 0,0.1004464 0.083705,0.1004464 0.234375,0.1004464 0,0 0.1339286,0 0.2511161,0.016741 0.1506696,0.016741 0.1674107,0.033482 0.1674107,0.1004464 0,0.016741 0,0.050223 -0.033482,0.1506696 L 7.1912165,0.94039062 C 7.1242522,1.1915067 7.1242522,1.2417299 6.5717969,1.2417299 c -0.1171875,0 -0.2008929,0 -0.2008929,0.1506697 0,0.066964 0.050223,0.1004464 0.1004464,0.1004464 0.1339286,0 0.3013393,-0.016741 0.4352679,-0.016741 0.1339286,0 0.3348214,-0.016741 0.46875,-0.016741 0.1339286,0 0.3013393,0.016741 0.4352679,0.016741 0.1506696,0 0.3348214,0.016741 0.46875,0.016741 0.033482,0 0.1506696,0 0.1506696,-0.1506697 0,-0.1004464 -0.066964,-0.1004464 -0.234375,-0.1004464 -0.1004464,0 -0.1339286,0 -0.2678571,-0.016741 C 7.777154,1.2082478 7.777154,1.1915067 7.777154,1.1245424 c 0,-0.016741 0,-0.050223 0.033482,-0.15066963 L 8.245904,-0.8006808 h 0.9542411 c 0.6026786,0 0.8537949,0.30133928 0.8537949,0.63616071 0,0.08370536 -0.066965,0.31808036 -0.1004467,0.48549107 -0.083705,0.31808036 -0.1004464,0.41852679 -0.1004464,0.53571429 0,0.55245533 0.5022321,0.77008933 1.0212051,0.77008933 0.636161,0 0.920759,-0.68638398 0.920759,-0.80357148 0,-0.0167411 -0.01674,-0.10044642 -0.117187,-0.10044642 -0.08371,0 -0.100447,0.0502232 -0.133929,0.1171875 -0.0837,0.3180804 -0.351562,0.6026786 -0.636161,0.6026786 -0.184151,0 -0.31808,-0.083705 -0.31808,-0.45200896 0,-0.18415179 0.03348,-0.55245536 0.06696,-0.73660714 0.03348,-0.18415179 0.03348,-0.25111608 0.03348,-0.31808036 0,-0.08370536 0,-0.31808036 -0.200892,-0.51897322 -0.133929,-0.15066964 -0.318081,-0.234375 -0.46875,-0.30133928 z m 0,0"
         style="fill:#000000;fill-opacity:1;fill-rule:nonzero;stroke:none" />
    </g>
    <g
       id="g385"
       aria-label="Z&#10;′"
       transform="matrix(0.93333333,0,0,0.93333333,2910.0907,368.63333)">
      <path
         id="path386"
         d="m 7.8674219,-6.3621652 c 0.083705,-0.083705 0.1506696,-0.2008928 0.1506696,-0.3348214 0,-0.1339286 -0.1171875,-0.1339286 -0.2845982,-0.1339286 H 2.9120647 c -0.251116,0 -0.3013393,0 -0.3683035,0.234375 l -0.5357143,1.7912947 c -0.050223,0.1506696 -0.050223,0.1674107 -0.050223,0.2008928 0,0.1674107 0.1674107,0.1674107 0.2176339,0.1674107 0.1506696,0 0.2008928,-0.033482 0.2511161,-0.1674107 0.4352678,-1.2555803 1.188616,-1.7578125 2.5613839,-1.7578125 h 1.3392857 l -5.47433035,5.84263395 c -0.0837054,0.0837054 -0.18415179,0.18415179 -0.18415179,0.38504464 0,0.13392857429 0.10044643,0.13392857429 0.30133929,0.13392857429 H 5.9589397 c 0.2511161,0 0.2845982,0 0.3515625,-0.23437500429 L 7.0471094,-2.5117188 c 0.033482,-0.1004464 0.033482,-0.1339285 0.033482,-0.1339285 0,-0.1506697 -0.1339286,-0.1841518 -0.234375,-0.1841518 -0.066964,0 -0.1674107,0 -0.2176339,0.1339286 -0.4352679,1.2555803 -0.9040179,2.19308032 -2.7957589,2.19308032 H 2.3930915 Z m 0,0"
         style="fill:#000000;fill-opacity:1;fill-rule:nonzero;stroke:none" />
      <path
         id="path387"
         d="m 10.41625,-7.672154 c 0.05022,-0.1171875 0.06696,-0.1674107 0.06696,-0.2176339 0,-0.217634 -0.200893,-0.3850447 -0.418526,-0.3850447 -0.2678576,0 -0.351563,0.2176339 -0.3850451,0.3180804 l -0.920759,3.0301339 c 0,0.016741 -0.033482,0.1004464 -0.033482,0.1171875 0,0.083705 0.2176339,0.1506696 0.2678571,0.1506696 0.050223,0 0.066964,-0.016741 0.1171875,-0.1171875 z m 0,0"
         style="fill:#000000;fill-opacity:1;fill-rule:nonzero;stroke:none" />
    </g>
    <path
       id="path388"
       d="m 29.764,59.52802 0.0011,-26.98493 m 0,-5.55603 L 29.764,0"
       style="fill:none;stroke:#000000;stroke-width:0.3985;stroke-linecap:butt;stroke-linejoin:miter;stroke-miterlimit:10;stroke-dasharray:none;stroke-opacity:1"
       transform="matrix(1.3333333,0,0,-1.3333333,2809.4853,457.38267)" />
    <path
       id="path389"
       d="M 38.09796,32.54193 H 21.43005 M 38.09796,26.98608 H 21.43005"
       style="fill:none;stroke:#000000;stroke-width:0.797;stroke-linecap:butt;stroke-linejoin:miter;stroke-miterlimit:10;stroke-dasharray:none;stroke-opacity:1"
       transform="matrix(1.3333333,0,0,-1.3333333,2809.4853,457.38267)" />
    <g
       id="g389"
       aria-label="Y&#10;′"
       transform="matrix(0.93333333,0,0,0.93333333,2864.6553,413.408)">
      <path
         id="path390"
         d="m 7.3168304,-5.9784375 c 0.2176339,-0.234375 0.4520089,-0.3850446 1.1049107,-0.3850446 0.1171875,0 0.3013393,0 0.3013393,-0.2845983 0,-0.066964 -0.050223,-0.1841517 -0.1841518,-0.1841517 -0.2845982,0 -0.6194197,0.033482 -0.920759,0.033482 -0.3683035,0 -0.7366071,-0.033482 -1.1049107,-0.033482 -0.066964,0 -0.2678571,0 -0.2678571,0.2845982 0,0.1841518 0.1674107,0.1841518 0.2678571,0.1841518 0.1004465,0 0.3013393,0.016741 0.452009,0.066964 L 4.2699554,-3.4003125 2.9976339,-6.33 c 0.2678572,-0.033482 0.2845982,-0.033482 0.5524554,-0.033482 0.1674107,0 0.3348214,-0.016741 0.3348214,-0.2845983 0,-0.1339285 -0.1004464,-0.1841517 -0.2176339,-0.1841517 -0.3348214,0 -1.2053572,0.033482 -1.5401786,0.033482 -0.234375,0 -0.46875,-0.016741 -0.6863839,-0.016741 -0.2511161,0 -0.48549109,-0.016741 -0.71986609,-0.016741 -0.10044642,0 -0.28459821,0 -0.28459821,0.2845982 0,0.1841518 0.15066964,0.1841518 0.41852679,0.1841518 0.1171875,0 0.23437501,0 0.38504461,0 C 1.3570089,-6.33 1.37375,-6.33 1.4407143,-6.2128125 l 1.5066964,3.4821429 -0.5189732,2.05915174 c -0.033482,0.16741072 -0.050223,0.16741072 -0.234375,0.18415179 -0.1674107,0.0167411 -0.3348214,0.0167411 -0.5022321,0.0167411 -0.3013393,0 -0.3180804,0 -0.3683036,0.0334821 -0.050223,0.0502232 -0.1004464,0.18415179 -0.1004464,0.25111607 0,0.0167411 0.016741,0.18415179 0.2176339,0.18415179 0.2511161,0 0.5189732,-0.01674107 0.7533482,-0.01674107 0.2511161,0 0.5022321,-0.01674107 0.7366071,-0.01674107 0.3348215,0 1.1886161,0.03348214 1.5234375,0.03348214 0.083705,0 0.2845983,0 0.2845983,-0.28459821 0,-0.18415179 -0.1339286,-0.18415179 -0.4185268,-0.18415179 -0.2008929,0 -0.4017857,-0.0167411 -0.6026786,-0.0167411 L 4.2699554,-2.7306696 Z m 0,0"
         style="fill:#000000;fill-opacity:1;fill-rule:nonzero;stroke:none" />
      <path
         id="path391"
         d="m 11.292835,-7.6692857 c 0.05022,-0.1171875 0.06696,-0.1674107 0.06696,-0.2176339 0,-0.217634 -0.200893,-0.3850447 -0.418527,-0.3850447 -0.267857,0 -0.351562,0.2176339 -0.385044,0.3180804 L 9.6354688,-4.92375 c 0,0.016741 -0.033482,0.1004464 -0.033482,0.1171875 0,0.083705 0.2176339,0.1506696 0.2678572,0.1506696 0.050223,0 0.066964,-0.016741 0.1171875,-0.1171875 z m 0,0"
         style="fill:#000000;fill-opacity:1;fill-rule:nonzero;stroke:none" />
    </g>
    <path
       id="path392"
       d="M 0,0 H 12.062"
       style="fill:none;stroke:#000000;stroke-width:0.398;stroke-linecap:butt;stroke-linejoin:miter;stroke-miterlimit:10;stroke-dasharray:none;stroke-opacity:1"
       transform="matrix(0.93333333,0,0,-0.93333333,2864.6553,417.37373)" />
    <path
       id="path393"
       d="M 1.2730402,-0.77214063 2.3277277,-1.793346 c 1.5401786,-1.3727678 2.1428571,-1.9084821 2.1428571,-2.9129464 0,-1.1383929 -0.8872768,-1.9252232 -2.109375,-1.9252232 -1.1216518,0 -1.85825891,0.9040178 -1.85825891,1.7912946 0,0.5691964 0.50223211,0.5691964 0.51897321,0.5691964 0.1674107,0 0.5189732,-0.1171875 0.5189732,-0.5357142 0,-0.2511161 -0.1674107,-0.5189733 -0.5189732,-0.5189733 -0.0837053,0 -0.10044642,0 -0.13392856,0.016741 0.23437496,-0.6529018 0.77008926,-1.0212053 1.33928576,-1.0212053 0.9040178,0 1.3392857,0.8035714 1.3392857,1.6238839 0,0.8035714 -0.5022322,1.5904018 -1.0379465,2.2098214 l -1.92522318,2.12611609 c -0.10044643,0.1171875 -0.10044643,0.13392857 -0.10044643,0.36830357 H 4.1859866 L 4.4705848,-1.7431228 h -0.251116 c -0.050223,0.3013393 -0.1171875,0.7366072 -0.217634,0.88727682 -0.066964,0.0837054 -0.719866,0.0837054 -0.9375,0.0837054 z m 0,0"
       style="fill:#000000;fill-opacity:1;fill-rule:nonzero;stroke:none"
       aria-label="2"
       transform="matrix(0.93333333,0,0,0.93333333,2867.9603,426.07613)" />
    <path
       id="path394"
       d="m 128.9774,59.52802 0.005,-26.98493 m 0,-5.55603 L 128.9774,0"
       style="fill:none;stroke:#000000;stroke-width:0.3985;stroke-linecap:butt;stroke-linejoin:miter;stroke-miterlimit:10;stroke-dasharray:none;stroke-opacity:1"
       transform="matrix(1.3333333,0,0,-1.3333333,2809.4853,457.38267)" />
    <path
       id="path395"
       d="m 137.31134,32.54193 h -16.66791 m 16.66791,-5.55585 h -16.66791"
       style="fill:none;stroke:#000000;stroke-width:0.797;stroke-linecap:butt;stroke-linejoin:miter;stroke-miterlimit:10;stroke-dasharray:none;stroke-opacity:1"
       transform="matrix(1.3333333,0,0,-1.3333333,2809.4853,457.38267)" />
    <g
       id="g395"
       aria-label="Y&#10;′"
       transform="matrix(0.93333333,0,0,0.93333333,2954.718,413.408)">
      <path
         id="path396"
         d="m 7.3166518,-5.9784375 c 0.2176339,-0.234375 0.4520089,-0.3850446 1.1049107,-0.3850446 0.1171875,0 0.3013393,0 0.3013393,-0.2845983 0,-0.066964 -0.050223,-0.1841517 -0.1841518,-0.1841517 -0.2845982,0 -0.6194196,0.033482 -0.9207589,0.033482 -0.3683036,0 -0.7366072,-0.033482 -1.1049107,-0.033482 -0.066964,0 -0.2678572,0 -0.2678572,0.2845982 0,0.1841518 0.1674107,0.1841518 0.2678572,0.1841518 0.1004464,0 0.3013392,0.016741 0.4520089,0.066964 L 4.2697768,-3.4003125 2.9974554,-6.33 c 0.2678571,-0.033482 0.2845982,-0.033482 0.5524553,-0.033482 0.1674107,0 0.3348214,-0.016741 0.3348214,-0.2845983 0,-0.1339285 -0.1004464,-0.1841517 -0.2176339,-0.1841517 -0.3348214,0 -1.2053571,0.033482 -1.5401786,0.033482 -0.234375,0 -0.46875,-0.016741 -0.6863839,-0.016741 -0.2511161,0 -0.48549106,-0.016741 -0.71986606,-0.016741 -0.10044643,0 -0.28459821,0 -0.28459821,0.2845982 0,0.1841518 0.15066964,0.1841518 0.41852678,0.1841518 0.1171875,0 0.23437499,0 0.38504469,0 C 1.3568304,-6.33 1.3735714,-6.33 1.4405357,-6.2128125 l 1.5066964,3.4821429 -0.5189732,2.05915174 c -0.033482,0.16741072 -0.050223,0.16741072 -0.234375,0.18415179 -0.1674107,0.0167411 -0.3348214,0.0167411 -0.5022321,0.0167411 -0.3013393,0 -0.3180804,0 -0.3683036,0.0334821 -0.050223,0.0502232 -0.1004464,0.18415179 -0.1004464,0.25111607 0,0.0167411 0.016741,0.18415179 0.2176339,0.18415179 0.2511161,0 0.5189732,-0.01674107 0.7533482,-0.01674107 0.2511161,0 0.5022322,-0.01674107 0.7366072,-0.01674107 0.3348214,0 1.188616,0.03348214 1.5234375,0.03348214 0.083705,0 0.2845982,0 0.2845982,-0.28459821 C 4.7385268,-0.470625 4.6045982,-0.470625 4.32,-0.470625 c -0.2008929,0 -0.4017857,-0.0167411 -0.6026786,-0.0167411 l 0.5524554,-2.2433035 z m 0,0"
         style="fill:#000000;fill-opacity:1;fill-rule:nonzero;stroke:none" />
      <path
         id="path397"
         d="m 11.292656,-7.6692857 c 0.05022,-0.1171875 0.06697,-0.1674107 0.06697,-0.2176339 0,-0.217634 -0.200893,-0.3850447 -0.418527,-0.3850447 -0.267857,0 -0.351563,0.2176339 -0.385045,0.3180804 L 9.6352902,-4.92375 c 0,0.016741 -0.033482,0.1004464 -0.033482,0.1171875 0,0.083705 0.217634,0.1506696 0.2678572,0.1506696 0.050223,0 0.066964,-0.016741 0.1171875,-0.1171875 z m 0,0"
         style="fill:#000000;fill-opacity:1;fill-rule:nonzero;stroke:none" />
    </g>
    <path
       id="path398"
       d="M 0,0 H 12.062"
       style="fill:none;stroke:#000000;stroke-width:0.398;stroke-linecap:butt;stroke-linejoin:miter;stroke-miterlimit:10;stroke-dasharray:none;stroke-opacity:1"
       transform="matrix(0.93333333,0,0,-0.93333333,2954.718,417.37373)" />
    <path
       id="path399"
       d="M 1.2738616,-0.77214063 2.3285491,-1.793346 c 1.5401786,-1.3727678 2.1428572,-1.9084821 2.1428572,-2.9129464 0,-1.1383929 -0.8872768,-1.9252232 -2.109375,-1.9252232 -1.1216518,0 -1.85825898,0.9040178 -1.85825898,1.7912946 0,0.5691964 0.50223218,0.5691964 0.51897318,0.5691964 0.1674108,0 0.5189733,-0.1171875 0.5189733,-0.5357142 0,-0.2511161 -0.1674108,-0.5189733 -0.5189733,-0.5189733 -0.0837053,0 -0.10044639,0 -0.13392854,0.016741 0.23437504,-0.6529018 0.77008934,-1.0212053 1.33928574,-1.0212053 0.9040178,0 1.3392857,0.8035714 1.3392857,1.6238839 0,0.8035714 -0.5022321,1.5904018 -1.0379464,2.2098214 l -1.92522325,2.12611609 c -0.10044643,0.1171875 -0.10044643,0.13392857 -0.10044643,0.36830357 H 4.186808 L 4.4714063,-1.7431228 H 4.2202902 c -0.050223,0.3013393 -0.1171875,0.7366072 -0.2176339,0.88727682 -0.066964,0.0837054 -0.7198661,0.0837054 -0.9375,0.0837054 z m 0,0"
       style="fill:#000000;fill-opacity:1;fill-rule:nonzero;stroke:none"
       aria-label="2"
       transform="matrix(0.93333333,0,0,0.93333333,2958.022,426.07613)" />
    <path
       id="path400"
       d="m 4.0699665,-2.2941629 h 2.7790179 c 0.1506696,0 0.3348214,0 0.3348214,-0.2008929 0,-0.2008929 -0.1841518,-0.2008929 -0.3348214,-0.2008929 H 4.0699665 v -2.7790178 c 0,-0.1506697 0,-0.3348214 -0.2008928,-0.3348214 -0.1841518,0 -0.1841518,0.1841517 -0.1841518,0.3348214 v 2.7790178 H 0.88916295 c -0.13392857,0 -0.33482143,0 -0.33482143,0.2008929 0,0.2008929 0.20089286,0.2008929 0.33482143,0.2008929 H 3.6849219 v 2.79575888 c 0,0.13392857 0,0.31808036 0.1841518,0.31808036 0.2008928,0 0.2008928,-0.18415179 0.2008928,-0.31808036 z m 0,0"
       style="fill:#000000;fill-opacity:1;fill-rule:nonzero;stroke:none"
       aria-label="+"
       transform="matrix(0.93333333,0,0,0.93333333,2805.8693,392.192)" />
    <path
       id="path401"
       d="m 6.5643862,-2.2924665 c 0.1674107,0 0.3515625,0 0.3515625,-0.2008929 0,-0.2008928 -0.1841518,-0.2008928 -0.3515625,-0.2008928 h -5.390625 c -0.1674108,0 -0.35156254,0 -0.35156254,0.2008928 0,0.2008929 0.18415174,0.2008929 0.35156254,0.2008929 z m 0,0"
       style="fill:#000000;fill-opacity:1;fill-rule:nonzero;stroke:none"
       aria-label="−"
       transform="matrix(0.93333333,0,0,0.93333333,2805.8693,447.84667)" />
    <g
       id="g401"
       aria-label="V&#10;S"
       transform="matrix(0.93333333,0,0,0.93333333,2802.4533,420.18667)">
      <path
         id="path402"
         d="m 7.5667411,-5.9589286 c 0.1506696,-0.2176339 0.2678571,-0.4017857 0.954241,-0.4017857 0.1171875,0 0.3013393,0 0.3013393,-0.2845982 0,-0.066964 -0.050223,-0.1841518 -0.1841518,-0.1841518 -0.2845982,0 -0.6026785,0.033482 -0.9040178,0.033482 -0.3683036,0 -0.7533482,-0.033482 -1.1049107,-0.033482 -0.066964,0 -0.2678572,0 -0.2678572,0.2845982 0,0.1841518 0.1674107,0.1841518 0.2678572,0.1841518 0.050223,0 0.3348214,0 0.5524553,0.1004464 l -3.28125,4.7712054 -0.8872768,-4.6540179 c 0,-0.033482 -0.016741,-0.1171875 -0.016741,-0.1339285 0,-0.083705 0.5357143,-0.083705 0.6026785,-0.083705 0.217634,0 0.3850447,0 0.3850447,-0.2845982 0,-0.1339286 -0.1004464,-0.1841518 -0.2176339,-0.1841518 -0.2511161,0 -0.5022322,0.016741 -0.7533483,0.016741 -0.251116,0 -0.485491,0.016741 -0.7366071,0.016741 -0.2176339,0 -0.4520089,-0.016741 -0.6863839,-0.016741 -0.217634,0 -0.452009,-0.016741 -0.65290181,-0.016741 -0.0837054,0 -0.28459822,0 -0.28459822,0.2845982 0,0.1841518 0.16741072,0.1841518 0.36830353,0.1841518 0.1339286,0 0.2511161,0 0.3850447,0 0.1171875,0.016741 0.1339286,0.033482 0.1506696,0.2008929 l 1.1383929,6.04352676 c 0.050223,0.28459821 0.1674107,0.28459821 0.3515625,0.28459821 0.2845982,0 0.3348214,-0.0669643 0.4520089,-0.25111607 z m 0,0"
         style="fill:#000000;fill-opacity:1;fill-rule:nonzero;stroke:none" />
      <path
         id="path403"
         d="m 14.254799,-3.3263951 c 0,-0.033482 -0.01674,-0.083705 -0.08371,-0.083705 -0.05022,0 -0.05022,0 -0.15067,0.1004464 l -0.334821,0.3850446 c -0.267857,-0.3683035 -0.703125,-0.485491 -1.138393,-0.485491 -0.970982,0 -1.858259,0.7868303 -1.858259,1.5904017 0,0.1171875 0.03348,0.3850447 0.234375,0.6529018 0.234375,0.26785717 0.502232,0.33482145 0.970982,0.45200895 0.133929,0.0334821 0.485491,0.10044643 0.602679,0.13392857 0.217634,0.0502232 0.63616,0.21763393 0.63616,0.73660715 0,0.56919643 -0.585937,1.22209823 -1.389509,1.22209823 -0.602678,0 -1.356026,-0.2176339 -1.356026,-0.98772323 0,-0.0669643 0.01674,-0.21763393 0.05022,-0.3515625 0,-0.01674107 0,-0.03348215 0,-0.03348215 0,-0.10044642 -0.08371,-0.10044642 -0.100447,-0.10044642 -0.100446,0 -0.117187,0.01674107 -0.133928,0.15066964 L 9.8518973,1.4448103 c -0.016741,0.033482 -0.033482,0.066964 -0.033482,0.1004464 0,0.050223 0.033482,0.083705 0.1004464,0.083705 0.050223,0 0.050223,0 0.1339283,-0.083705 0.08371,-0.1004464 0.267857,-0.3180804 0.334822,-0.4017857 0.385044,0.4017857 0.920759,0.4854911 1.339285,0.4854911 1.054688,0 1.908482,-0.9040179 1.908482,-1.7243304 0,-0.30133929 -0.133928,-0.5859375 -0.284598,-0.75334822 -0.234375,-0.25111608 -0.351562,-0.26785718 -1.238839,-0.48549108 -0.15067,-0.033482 -0.385045,-0.083705 -0.452009,-0.1171875 -0.167411,-0.050223 -0.46875,-0.234375 -0.46875,-0.6361607 0,-0.5357143 0.636161,-1.1049107 1.356027,-1.1049107 0.753348,0 1.121652,0.4352678 1.121652,1.0881696 0,0.1004465 -0.03348,0.2511161 -0.03348,0.3180804 0,0.1004464 0.08371,0.1004464 0.117188,0.1004464 0.100446,0 0.117187,-0.033482 0.133929,-0.1506696 z m 0,0"
         style="fill:#000000;fill-opacity:1;fill-rule:nonzero;stroke:none" />
    </g>
    <path
       id="path404"
       d="m 4.0685045,-2.2941629 h 2.7790178 c 0.1506697,0 0.3348215,0 0.3348215,-0.2008929 0,-0.2008929 -0.1841518,-0.2008929 -0.3348215,-0.2008929 H 4.0685045 v -2.7790178 c 0,-0.1506697 0,-0.3348214 -0.2008929,-0.3348214 -0.1841518,0 -0.1841518,0.1841517 -0.1841518,0.3348214 v 2.7790178 H 0.88770089 c -0.13392857,0 -0.33482143,0 -0.33482143,0.2008929 0,0.2008929 0.20089286,0.2008929 0.33482143,0.2008929 H 3.6834598 v 2.79575888 c 0,0.13392857 0,0.31808036 0.1841518,0.31808036 0.2008929,0 0.2008929,-0.18415179 0.2008929,-0.31808036 z m 0,0"
       style="fill:#000000;fill-opacity:1;fill-rule:nonzero;stroke:none"
       aria-label="+"
       transform="matrix(0.93333333,0,0,0.93333333,3017.5387,392.192)" />
    <path
       id="path405"
       d="m 6.5629241,-2.2924665 c 0.1674107,0 0.3515625,0 0.3515625,-0.2008929 0,-0.2008928 -0.1841518,-0.2008928 -0.3515625,-0.2008928 h -5.390625 c -0.1674107,0 -0.35156249,0 -0.35156249,0.2008928 0,0.2008929 0.18415179,0.2008929 0.35156249,0.2008929 z m 0,0"
       style="fill:#000000;fill-opacity:1;fill-rule:nonzero;stroke:none"
       aria-label="−"
       transform="matrix(0.93333333,0,0,0.93333333,3017.5387,447.84667)" />
    <g
       id="g405"
       aria-label="V&#10;R"
       transform="matrix(0.93333333,0,0,0.93333333,3013.7653,420.18667)">
      <path
         id="path406"
         d="m 7.5672768,-5.9589286 c 0.1506696,-0.2176339 0.2678571,-0.4017857 0.9542411,-0.4017857 0.1171875,0 0.3013392,0 0.3013392,-0.2845982 0,-0.066964 -0.050223,-0.1841518 -0.1841517,-0.1841518 -0.2845983,0 -0.6026786,0.033482 -0.9040179,0.033482 -0.3683036,0 -0.7533482,-0.033482 -1.1049107,-0.033482 -0.066964,0 -0.2678572,0 -0.2678572,0.2845982 0,0.1841518 0.1674108,0.1841518 0.2678572,0.1841518 0.050223,0 0.3348214,0 0.5524553,0.1004464 l -3.28125,4.7712054 -0.8872767,-4.6540179 c 0,-0.033482 -0.016741,-0.1171875 -0.016741,-0.1339285 0,-0.083705 0.5357143,-0.083705 0.6026786,-0.083705 0.2176339,0 0.3850446,0 0.3850446,-0.2845982 0,-0.1339286 -0.1004464,-0.1841518 -0.2176339,-0.1841518 -0.2511161,0 -0.5022322,0.016741 -0.7533482,0.016741 -0.2511161,0 -0.4854911,0.016741 -0.7366072,0.016741 -0.2176339,0 -0.4520089,-0.016741 -0.6863839,-0.016741 -0.2176339,0 -0.4520089,-0.016741 -0.6529018,-0.016741 -0.0837054,0 -0.28459821,0 -0.28459821,0.2845982 0,0.1841518 0.16741071,0.1841518 0.36830361,0.1841518 0.1339285,0 0.251116,0 0.3850446,0 0.1171875,0.016741 0.1339286,0.033482 0.1506696,0.2008929 l 1.1383929,6.04352676 c 0.050223,0.28459821 0.1674107,0.28459821 0.3515625,0.28459821 0.2845982,0 0.3348214,-0.0669643 0.4520089,-0.25111607 z m 0,0"
         style="fill:#000000;fill-opacity:1;fill-rule:nonzero;stroke:none" />
      <path
         id="path407"
         d="m 12.179442,-2.7906808 c 0.05022,-0.1841518 0.06696,-0.2176339 0.217634,-0.234375 h 0.452009 c 0.652902,0 1.456473,0 1.456473,0.7198661 0,0.2845982 -0.133929,0.7366071 -0.46875,0.9877232 -0.284598,0.2176339 -0.719866,0.33482141 -1.205357,0.33482141 h -0.887277 z m 1.272321,1.90848214 c 0.820313,-0.18415174 1.573661,-0.68638394 1.573661,-1.32254464 0,-0.5859375 -0.719866,-1.0714286 -1.72433,-1.0714286 h -2.142857 c -0.133929,0 -0.234375,0 -0.234375,0.1506697 0,0.1004464 0.08371,0.1004464 0.234375,0.1004464 0,0 0.133928,0 0.251116,0.016741 0.150669,0.016741 0.16741,0.033482 0.16741,0.1004464 0,0.016741 0,0.050223 -0.03348,0.1506696 l -0.920759,3.69977682 c -0.06696,0.25111608 -0.06696,0.30133928 -0.619419,0.30133928 -0.1171878,0 -0.2008932,0 -0.2008932,0.1506697 0,0.066964 0.050223,0.1004464 0.1004465,0.1004464 0.1339287,0 0.3013397,-0.016741 0.4352677,-0.016741 0.133929,0 0.334822,-0.016741 0.46875,-0.016741 0.133929,0 0.301339,0.016741 0.435268,0.016741 0.15067,0 0.334821,0.016741 0.46875,0.016741 0.03348,0 0.15067,0 0.15067,-0.1506697 0,-0.1004464 -0.06696,-0.1004464 -0.234375,-0.1004464 -0.100447,0 -0.133929,0 -0.267858,-0.016741 -0.150669,-0.016741 -0.150669,-0.033482 -0.150669,-0.1004464 0,-0.016741 0,-0.050223 0.03348,-0.15066963 L 11.67721,-0.7984933 h 0.954241 c 0.602678,0 0.853795,0.30133928 0.853795,0.63616071 0,0.08370536 -0.06696,0.31808036 -0.100447,0.48549107 -0.0837,0.31808036 -0.100446,0.41852679 -0.100446,0.53571429 0,0.55245533 0.502232,0.77008933 1.021205,0.77008933 0.636161,0 0.920759,-0.68638398 0.920759,-0.80357148 0,-0.0167411 -0.01674,-0.10044642 -0.117188,-0.10044642 -0.08371,0 -0.100446,0.0502232 -0.133928,0.1171875 -0.08371,0.3180804 -0.351563,0.6026786 -0.636161,0.6026786 -0.184152,0 -0.31808,-0.083705 -0.31808,-0.45200896 0,-0.18415179 0.03348,-0.55245536 0.06696,-0.73660714 0.03348,-0.18415179 0.03348,-0.25111608 0.03348,-0.31808036 0,-0.08370536 0,-0.31808036 -0.200893,-0.51897322 -0.133928,-0.15066964 -0.31808,-0.234375 -0.46875,-0.30133928 z m 0,0"
         style="fill:#000000;fill-opacity:1;fill-rule:nonzero;stroke:none" />
    </g>
  </g>
</svg>
