<?xml version="1.0" encoding="UTF-8" standalone="no"?>
<!-- Created with Inkscape (http://www.inkscape.org/) -->

<svg
   version="1.1"
   id="svg1"
   width="224.91406"
   height="98.433533"
   viewBox="0 0 224.91406 98.433533"
   sodipodi:docname="CircuiTikz (16).pdf"
   xmlns:inkscape="http://www.inkscape.org/namespaces/inkscape"
   xmlns:sodipodi="http://sodipodi.sourceforge.net/DTD/sodipodi-0.dtd"
   xmlns="http://www.w3.org/2000/svg"
   xmlns:svg="http://www.w3.org/2000/svg">
  <defs
     id="defs1" />
  <sodipodi:namedview
     id="namedview1"
     pagecolor="#ffffff"
     bordercolor="#000000"
     borderopacity="0.25"
     inkscape:showpageshadow="2"
     inkscape:pageopacity="0.0"
     inkscape:pagecheckerboard="0"
     inkscape:deskcolor="#d1d1d1">
    <inkscape:page
       x="3.279725e-06"
       y="-5.7148975e-07"
       width="224.91406"
       height="98.433533"
       id="page2"
       margin="0"
       bleed="0" />
  </sodipodi:namedview>
  <g
     id="g323"
     inkscape:groupmode="layer"
     inkscape:label="4"
     transform="translate(-2803.0625,-197.27344)">
    <path
       id="path325"
       d="m 0,0 h 79.37363 m 0,0 h 79.36779"
       style="fill:none;stroke:#000000;stroke-width:0.3985;stroke-linecap:butt;stroke-linejoin:miter;stroke-miterlimit:10;stroke-dasharray:none;stroke-opacity:1"
       transform="matrix(1.3333333,0,0,-1.3333333,2809.4853,293.96)" />
    <path
       id="path326"
       d="M 1.11098,0 C 1.11098,0.61357 0.61357,1.11098 0,1.11098 -0.61357,1.11098 -1.11098,0.61357 -1.11098,0 c 0,-0.61357 0.49741,-1.11098 1.11098,-1.11098 0.61357,0 1.11098,0.49741 1.11098,1.11098 z"
       style="fill:#000000;fill-opacity:1;fill-rule:nonzero;stroke:#000000;stroke-width:0.3985;stroke-linecap:butt;stroke-linejoin:miter;stroke-miterlimit:10;stroke-dasharray:none;stroke-opacity:1"
       transform="matrix(1.3333333,0,0,-1.3333333,2809.4853,293.96)" />
    <path
       id="path327"
       d="m 159.85242,0 c 0,0.61357 -0.49741,1.11098 -1.111,1.11098 -0.61358,0 -1.11099,-0.49741 -1.11099,-1.11098 0,-0.61357 0.49741,-1.11098 1.11099,-1.11098 0.61359,0 1.111,0.49741 1.111,1.11098 z"
       style="fill:#000000;fill-opacity:1;fill-rule:nonzero;stroke:#000000;stroke-width:0.3985;stroke-linecap:butt;stroke-linejoin:miter;stroke-miterlimit:10;stroke-dasharray:none;stroke-opacity:1"
       transform="matrix(1.3333333,0,0,-1.3333333,2809.4853,293.96)" />
    <path
       id="path328"
       d="m 0,59.52802 14.88254,0.0022 m 0,0 14.88146,-0.0022 4.96194,0.0022 m 0,0 4.95941,-0.0022 3.7717,0.0022 m 22.22459,0 3.76773,-0.0022 9.92424,0.0022 m 0,0 9.91843,-0.0022 3.77353,0.0022 m 22.22462,0 3.76587,-0.0022 4.96524,0.0022 m 0,0 4.9561,-0.0022 14.88733,0.0022 m 0,0 14.87669,-0.0022"
       style="fill:none;stroke:#000000;stroke-width:0.3985;stroke-linecap:butt;stroke-linejoin:miter;stroke-miterlimit:10;stroke-dasharray:none;stroke-opacity:1"
       transform="matrix(1.3333333,0,0,-1.3333333,2809.4853,293.96)" />
    <path
       id="path329"
       d="M 1.11098,59.52802 C 1.11098,60.1416 0.61357,60.639 0,60.639 c -0.61357,0 -1.11098,-0.4974 -1.11098,-1.11098 0,-0.61358 0.49741,-1.111 1.11098,-1.111 0.61357,0 1.11098,0.49742 1.11098,1.111 z"
       style="fill:#000000;fill-opacity:1;fill-rule:nonzero;stroke:#000000;stroke-width:0.3985;stroke-linecap:butt;stroke-linejoin:miter;stroke-miterlimit:10;stroke-dasharray:none;stroke-opacity:1"
       transform="matrix(1.3333333,0,0,-1.3333333,2809.4853,293.96)" />
    <path
       id="path330"
       d="m 13.66719,59.53018 v -1.38896 l 2.95155,1.38896 -2.95155,1.38896 z"
       style="fill:#000000;fill-opacity:1;fill-rule:nonzero;stroke:#000000;stroke-width:0.3985;stroke-linecap:butt;stroke-linejoin:miter;stroke-miterlimit:10;stroke-dasharray:none;stroke-opacity:1"
       transform="matrix(1.3333333,0,0,-1.3333333,2809.4853,293.96)" />
    <g
       id="g330"
       aria-label="I&#10;S"
       transform="matrix(0.93333333,0,0,0.93333333,2823.8973,209.90667)">
      <path
         id="path331"
         d="m 4.3873438,-6.1611607 c 0.050223,-0.1674107 0.050223,-0.1674107 0.251116,-0.2008929 0.1506697,0 0.2845982,0 0.4352679,0 h 0.2008928 c 0.217634,0 0.217634,-0.016741 0.2678572,-0.050223 0.066964,-0.050223 0.1004464,-0.1841518 0.1004464,-0.234375 0,-0.1339286 -0.1004464,-0.1841518 -0.2176339,-0.1841518 -0.2511161,0 -0.5189732,0.016741 -0.7700893,0.016741 -0.2511161,0 -0.5189732,0.016741 -0.7868304,0.016741 -0.2845982,0 -0.5524553,-0.016741 -0.8370535,-0.016741 -0.2511161,0 -0.5189732,-0.016741 -0.7700893,-0.016741 -0.1004464,0 -0.2845982,0 -0.2845982,0.2845982 0,0.1841518 0.1506696,0.1841518 0.3348214,0.1841518 h 0.2176339 c 0.083705,0 0.3180804,0 0.5189732,0.016741 L 1.625067,-0.67008919 C 1.591585,-0.50267847 1.574844,-0.50267847 1.390692,-0.4859374 1.2735045,-0.4691963 1.0893527,-0.4691963 0.95542411,-0.4691963 H 0.75453125 c -0.20089286,0 -0.36830357,0 -0.36830357,0.28459822 0,0.13392857 0.10044643,0.18415178143 0.21763393,0.18415178143 0.25111607,0 0.50223219,-0.0167410714 0.75334819,-0.0167410714 0.2678572,0 0.5357143,-0.01674107 0.8035715,-0.01674107 0.2845982,0 0.5524553,0.01674107 0.8370535,0.01674107 0.2511161,0 0.5022322,0.0167410714 0.7533482,0.0167410714 0.1004465,0 0.3013393,0 0.3013393,-0.28459821143 0,-0.18415179 -0.1674107,-0.18415179 -0.3348214,-0.18415179 H 3.500067 c -0.066964,0 -0.3850447,-0.0167411 -0.5189732,-0.0167411 z m 0,0"
         style="fill:#000000;fill-opacity:1;fill-rule:nonzero;stroke:none" />
      <path
         id="path332"
         d="m 10.824286,-3.3277344 c 0,-0.033482 -0.01674,-0.083705 -0.08371,-0.083705 -0.05022,0 -0.05022,0 -0.150669,0.1004464 l -0.334822,0.3850446 c -0.2678569,-0.3683035 -0.7031247,-0.485491 -1.1383926,-0.485491 -0.9709821,0 -1.8582589,0.7868303 -1.8582589,1.5904018 0,0.1171875 0.033482,0.3850446 0.234375,0.6529017 0.234375,0.26785718 0.5022321,0.33482147 0.9709821,0.45200897 0.1339286,0.0334821 0.4854911,0.10044643 0.6026786,0.13392857 0.2176339,0.0502232 0.6361607,0.21763393 0.6361607,0.73660714 0,0.56919643 -0.5859375,1.22209822 -1.3895089,1.22209822 -0.6026786,0 -1.3560268,-0.2176339 -1.3560268,-0.98772322 0,-0.0669643 0.016741,-0.21763393 0.050223,-0.3515625 0,-0.01674107 0,-0.03348214 0,-0.03348214 0,-0.10044643 -0.083705,-0.10044643 -0.1004464,-0.10044643 -0.1004464,0 -0.1171875,0.01674107 -0.1339286,0.15066964 L 6.4213839,1.443471 c -0.016741,0.033482 -0.033482,0.066964 -0.033482,0.1004464 0,0.050223 0.033482,0.083705 0.1004464,0.083705 0.050223,0 0.050223,0 0.1339286,-0.083705 C 6.7059819,1.443471 6.890134,1.2258371 6.9570983,1.1421317 7.342143,1.5439174 7.8778572,1.6276228 8.296384,1.6276228 c 1.0546875,0 1.908482,-0.90401789 1.908482,-1.72433039 0,-0.30133928 -0.133928,-0.5859375 -0.284598,-0.75334821 C 9.685893,-1.1011719 9.5687055,-1.1179129 8.6814287,-1.3355469 8.530759,-1.3690289 8.296384,-1.4192519 8.2294197,-1.4527344 c -0.1674107,-0.050223 -0.46875,-0.234375 -0.46875,-0.6361607 0,-0.5357143 0.6361608,-1.1049107 1.3560268,-1.1049107 0.7533482,0 1.1216515,0.4352679 1.1216515,1.0881696 0,0.1004465 -0.03348,0.2511161 -0.03348,0.3180804 0,0.1004464 0.0837,0.1004464 0.117188,0.1004464 0.100446,0 0.117187,-0.033482 0.133928,-0.1506696 z m 0,0"
         style="fill:#000000;fill-opacity:1;fill-rule:nonzero;stroke:none" />
    </g>
    <path
       id="path333"
       d="m 43.05696,59.52802 2.28371,4.16697 3.77037,-8.33394 3.77037,8.33394 3.77037,-8.33394 3.77037,8.33394 3.77037,-8.33394 1.88519,4.16697"
       style="fill:none;stroke:#000000;stroke-width:0.797;stroke-linecap:butt;stroke-linejoin:bevel;stroke-miterlimit:10;stroke-dasharray:none;stroke-opacity:1"
       transform="matrix(1.3333333,0,0,-1.3333333,2809.4853,293.96)" />
    <path
       id="path334"
       d="m 78.15828,59.53018 v -1.38896 l 2.95155,1.38896 -2.95155,1.38896 z"
       style="fill:#000000;fill-opacity:1;fill-rule:nonzero;stroke:#000000;stroke-width:0.3985;stroke-linecap:butt;stroke-linejoin:miter;stroke-miterlimit:10;stroke-dasharray:none;stroke-opacity:1"
       transform="matrix(1.3333333,0,0,-1.3333333,2809.4853,293.96)" />
    <g
       id="g334"
       aria-label="I&#10;series"
       transform="matrix(0.93333333,0,0,0.93333333,2902.168,224.25067)">
      <path
         id="path335"
         d="m 4.3861272,-6.1614286 c 0.050223,-0.1674107 0.050223,-0.1674107 0.2511161,-0.2008928 0.1506696,0 0.2845982,0 0.4352679,0 H 5.273404 c 0.2176339,0 0.2176339,-0.016741 0.2678572,-0.050223 0.066964,-0.050223 0.1004464,-0.1841518 0.1004464,-0.234375 0,-0.1339286 -0.1004464,-0.1841518 -0.2176339,-0.1841518 -0.2511161,0 -0.5189733,0.016741 -0.7700893,0.016741 -0.2511161,0 -0.5189732,0.016741 -0.7868304,0.016741 -0.2845982,0 -0.5524553,-0.016741 -0.8370536,-0.016741 -0.251116,0 -0.5189732,-0.016741 -0.7700892,-0.016741 -0.1004465,0 -0.2845983,0 -0.2845983,0.2845982 0,0.1841518 0.1506697,0.1841518 0.3348215,0.1841518 h 0.2176339 c 0.083705,0 0.3180804,0 0.5189732,0.016741 l -1.4229911,5.67522326 c -0.033482,0.16741071 -0.050223,0.16741071 -0.234375,0.18415178 -0.1171875,0.0167411 -0.3013392,0.0167411 -0.43526781,0.0167411 H 0.75331473 c -0.20089285,0 -0.36830357,0 -0.36830357,0.28459822 0,0.13392857 0.10044643,0.18415178429 0.21763393,0.18415178429 0.25111607,0 0.50223211,-0.0167410743 0.75334821,-0.0167410743 0.2678571,0 0.5357143,-0.01674107 0.8035714,-0.01674107 0.2845982,0 0.5524554,0.01674107 0.8370536,0.01674107 0.2511161,0 0.5022321,0.0167410743 0.7533482,0.0167410743 0.1004464,0 0.3013393,0 0.3013393,-0.28459821429 0,-0.18415179 -0.1674107,-0.18415179 -0.3348214,-0.18415179 h -0.217634 c -0.066964,0 -0.3850446,-0.0167411 -0.5189732,-0.0167411 z m 0,0"
         style="fill:#000000;fill-opacity:1;fill-rule:nonzero;stroke:none" />
      <path
         id="path336"
         d="m 8.8811049,-1.1349219 c -0.1841518,0.050223 -0.3013393,0.18415181 -0.3013393,0.33482145 0,0.15066965 0.1506697,0.21763393 0.234375,0.21763393 0.066964,0 0.3348215,-0.0334821 0.3348215,-0.40178571 0,-0.45200897 -0.5022322,-0.60267857 -0.920759,-0.60267857 -1.1049107,0 -1.2890625,0.80357142 -1.2890625,1.02120535 0,0.25111607 0.1506697,0.41852679 0.234375,0.50223215 0.1841518,0.15066964 0.3180804,0.16741071 0.8035715,0.25111607 0.1339285,0.0334821 0.5859375,0.1171875 0.5859375,0.46875 0,0.1171875 -0.083705,0.38504463 -0.3683036,0.55245533 -0.2678572,0.1506697 -0.6194197,0.1506697 -0.703125,0.1506697 -0.2845982,0 -0.6696429,-0.050223 -0.8370536,-0.2845982 0.234375,-0.033482 0.3850447,-0.2008929 0.3850447,-0.40178576 0,-0.16741072 -0.1171875,-0.25111607 -0.2678572,-0.25111607 -0.2008928,0 -0.4017857,0.15066964 -0.4017857,0.46875 0,0.41852683 0.4352679,0.66964283 1.1216518,0.66964283 1.2723214,0 1.5234375,-0.87053569 1.5234375,-1.1551339 0,-0.63616072 -0.703125,-0.77008929 -0.9709822,-0.80357143 -0.066964,-0.0167411 -0.234375,-0.0502232 -0.2845982,-0.0669643 -0.251116,-0.0502232 -0.3850446,-0.18415178 -0.3850446,-0.3515625 0,-0.15066964 0.1339286,-0.33482137 0.2845982,-0.43526787 0.1841518,-0.1171875 0.4352679,-0.1339285 0.5524554,-0.1339285 0.1506696,0 0.5189732,0.016741 0.6696428,0.251116 z m 2.3018971,1.03794645 c 0.200893,0 0.753348,-0.01674107 1.138393,-0.15066964 0.502232,-0.18415179 0.602679,-0.51897321 0.602679,-0.71986607 0,-0.38504464 -0.385045,-0.61941964 -0.853795,-0.61941964 -0.853795,0 -1.975446,0.63616071 -1.975446,1.84151785 0,0.703125 0.435267,1.30580355 1.25558,1.30580355 1.171875,0 1.72433,-0.6863839 1.72433,-0.78683033 0,-0.0334822 -0.05022,-0.1171875 -0.117187,-0.1171875 -0.03348,0 -0.05022,0.0167411 -0.100447,0.0669643 -0.552455,0.63616073 -1.372767,0.63616073 -1.489955,0.63616073 -0.418527,0 -0.703125,-0.2678572 -0.703125,-0.83705358 0,-0.10044643 0,-0.234375 0.08371,-0.61941965 z M 10.797958,-0.2978683 c 0.301339,-1.0044643 1.071428,-1.0881696 1.272321,-1.0881696 0.301339,0 0.552455,0.1506696 0.552455,0.41852674 0,0.66964286 -1.171875,0.66964286 -1.473214,0.66964286 z m 4.248046,0.38504464 c 0,-0.05022322 0.167411,-0.66964286 0.184152,-0.703125 0.01674,-0.0669643 0.217634,-0.41852674 0.435268,-0.58593754 0.08371,-0.050223 0.267857,-0.1841517 0.569197,-0.1841517 0.06696,0 0.234375,0 0.385044,0.1004464 -0.234375,0.050223 -0.31808,0.2511161 -0.31808,0.38504462 0,0.15066965 0.133928,0.25111608 0.284598,0.25111608 0.167411,0 0.401786,-0.13392858 0.401786,-0.4185268 0,-0.3683036 -0.385045,-0.5189732 -0.753348,-0.5189732 -0.351563,0 -0.669643,0.1506696 -0.970983,0.5022321 -0.133928,-0.4352678 -0.552455,-0.5022321 -0.719866,-0.5022321 -0.267857,0 -0.435268,0.1674107 -0.552455,0.3515625 -0.167411,0.28459821 -0.251116,0.68638392 -0.251116,0.71986607 0,0.0837053 0.0837,0.0837053 0.117187,0.0837053 0.100447,0 0.100447,-0.0167411 0.15067,-0.20089285 0.100446,-0.43526782 0.234375,-0.75334812 0.502232,-0.75334812 0.184152,0 0.234375,0.1506696 0.234375,0.3348214 0,0.1339285 -0.06696,0.40178565 -0.117187,0.58593743 -0.05022,0.18415179 -0.117188,0.46875 -0.15067,0.61941964 L 14.259174,1.0581585 c -0.03348,0.083705 -0.06696,0.2678571 -0.06696,0.2845982 0,0.1506696 0.117187,0.2176339 0.234375,0.2176339 0.100446,0 0.234375,-0.066964 0.301339,-0.2008928 0.01674,-0.033482 0.08371,-0.3515625 0.133929,-0.51897325 z m 4.536831,-2.96316964 c 0,-0.1004464 -0.08371,-0.2511161 -0.284598,-0.2511161 -0.184152,0 -0.385045,0.1674107 -0.385045,0.3683036 0,0.1339286 0.08371,0.2678571 0.284598,0.2678571 0.200893,0 0.385045,-0.1841517 0.385045,-0.3850446 z m -1.422991,3.54910714 c -0.03348,0.10044643 -0.06696,0.18415178 -0.06696,0.30133928 0,0.31808038 0.284599,0.58593748 0.669643,0.58593748 0.703125,0 1.004465,-0.95424105 1.004465,-1.07142855 0,-0.0837053 -0.08371,-0.0837053 -0.117188,-0.0837053 -0.100446,0 -0.100446,0.0334821 -0.133928,0.1171875 -0.15067,0.55245545 -0.46875,0.83705355 -0.736608,0.83705355 -0.133928,0 -0.16741,-0.083705 -0.16741,-0.234375 0,-0.1674107 0.05022,-0.30133927 0.100446,-0.45200891 0.0837,-0.18415179 0.15067,-0.36830357 0.234375,-0.55245536 0.05022,-0.16741071 0.31808,-0.80357143 0.334822,-0.88727678 0.01674,-0.0669643 0.05022,-0.15066965 0.05022,-0.21763393 0,-0.33482142 -0.284598,-0.60267862 -0.669643,-0.60267862 -0.686384,0 -1.004464,0.95424112 -1.004464,1.07142862 0,0.0837053 0.0837,0.0837053 0.117187,0.0837053 0.100447,0 0.100447,-0.0334821 0.117188,-0.10044642 0.184151,-0.6026786 0.485491,-0.8537946 0.753348,-0.8537946 0.100446,0 0.167411,0.050223 0.167411,0.234375 0,0.16741067 -0.03348,0.2678571 -0.217634,0.70312495 z m 3.536551,-0.77008929 c 0.200893,0 0.753348,-0.01674107 1.138393,-0.15066964 0.502232,-0.18415179 0.602679,-0.51897321 0.602679,-0.71986607 0,-0.38504464 -0.385045,-0.61941964 -0.853795,-0.61941964 -0.853795,0 -1.975447,0.63616071 -1.975447,1.84151785 0,0.703125 0.435268,1.30580355 1.255581,1.30580355 1.171875,0 1.72433,-0.6863839 1.72433,-0.78683033 0,-0.0334822 -0.05022,-0.1171875 -0.117187,-0.1171875 -0.03348,0 -0.05022,0.0167411 -0.100447,0.0669643 -0.552455,0.63616073 -1.372768,0.63616073 -1.489955,0.63616073 -0.418527,0 -0.703125,-0.2678572 -0.703125,-0.83705358 0,-0.10044643 0,-0.234375 0.0837,-0.61941965 z M 21.31135,-0.2978683 c 0.30134,-1.0044643 1.071429,-1.0881696 1.272322,-1.0881696 0.301339,0 0.552455,0.1506696 0.552455,0.41852674 0,0.66964286 -1.171875,0.66964286 -1.473214,0.66964286 z m 5.620815,-0.8370536 c -0.184152,0.050223 -0.301339,0.18415181 -0.301339,0.33482145 0,0.15066965 0.15067,0.21763393 0.234375,0.21763393 0.06696,0 0.334821,-0.0334821 0.334821,-0.40178571 0,-0.45200897 -0.502232,-0.60267857 -0.920759,-0.60267857 -1.10491,0 -1.289062,0.80357142 -1.289062,1.02120535 0,0.25111607 0.15067,0.41852679 0.234375,0.50223215 0.184152,0.15066964 0.31808,0.16741071 0.803571,0.25111607 0.133929,0.0334821 0.585938,0.1171875 0.585938,0.46875 0,0.1171875 -0.08371,0.38504463 -0.368304,0.55245533 -0.267857,0.1506697 -0.619419,0.1506697 -0.703125,0.1506697 -0.284598,0 -0.669643,-0.050223 -0.837053,-0.2845982 0.234375,-0.033482 0.385044,-0.2008929 0.385044,-0.40178576 0,-0.16741072 -0.117187,-0.25111607 -0.267857,-0.25111607 -0.200893,0 -0.401786,0.15066964 -0.401786,0.46875 0,0.41852683 0.435268,0.66964283 1.121652,0.66964283 1.272322,0 1.523438,-0.87053569 1.523438,-1.1551339 0,-0.63616072 -0.703125,-0.77008929 -0.970982,-0.80357143 -0.06696,-0.0167411 -0.234375,-0.0502232 -0.284599,-0.0669643 -0.251116,-0.0502232 -0.385044,-0.18415178 -0.385044,-0.3515625 0,-0.15066964 0.133928,-0.33482137 0.284598,-0.43526787 0.184152,-0.1171875 0.435268,-0.1339285 0.552455,-0.1339285 0.15067,0 0.518974,0.016741 0.669643,0.251116 z m 0,0"
         style="fill:#000000;fill-opacity:1;fill-rule:nonzero;stroke:none" />
    </g>
    <path
       id="path337"
       d="m 92.66365,59.36862 c 0,2.30127 1.28835,4.16678 2.87759,4.16678 1.58927,0 2.87761,-1.86551 2.87761,-4.16678 0,2.30127 1.28833,4.16678 2.8776,4.16678 1.58926,0 2.87759,-1.86551 2.87759,-4.16678 0,2.30127 1.28835,4.16678 2.8776,4.16678 1.58926,0 2.8776,-1.86551 2.8776,-4.16678 0,2.30127 1.28834,4.16678 2.8776,4.16678 1.58926,0 2.87759,-1.86551 2.87759,-4.16678"
       style="fill:none;stroke:#000000;stroke-width:0.797;stroke-linecap:butt;stroke-linejoin:bevel;stroke-miterlimit:10;stroke-dasharray:none;stroke-opacity:1"
       transform="matrix(1.3333333,0,0,-1.3333333,2809.4853,293.96)" />
    <path
       id="path338"
       d="m 159.85242,59.52802 c 0,0.61358 -0.49741,1.11098 -1.111,1.11098 -0.61358,0 -1.11099,-0.4974 -1.11099,-1.11098 0,-0.61358 0.49741,-1.111 1.11099,-1.111 0.61359,0 1.111,0.49742 1.111,1.111 z"
       style="fill:#000000;fill-opacity:1;fill-rule:nonzero;stroke:#000000;stroke-width:0.3985;stroke-linecap:butt;stroke-linejoin:miter;stroke-miterlimit:10;stroke-dasharray:none;stroke-opacity:1"
       transform="matrix(1.3333333,0,0,-1.3333333,2809.4853,293.96)" />
    <path
       id="path339"
       d="m 142.64937,59.53018 v -1.38896 l 2.95155,1.38896 -2.95155,1.38896 z"
       style="fill:#000000;fill-opacity:1;fill-rule:nonzero;stroke:#000000;stroke-width:0.3985;stroke-linecap:butt;stroke-linejoin:miter;stroke-miterlimit:10;stroke-dasharray:none;stroke-opacity:1"
       transform="matrix(1.3333333,0,0,-1.3333333,2809.4853,293.96)" />
    <g
       id="g339"
       aria-label="I&#10;R"
       transform="matrix(0.93333333,0,0,0.93333333,2995.5187,209.90667)">
      <path
         id="path340"
         d="m 4.3870871,-6.1611607 c 0.050223,-0.1674107 0.050223,-0.1674107 0.251116,-0.2008929 0.1506697,0 0.2845982,0 0.4352679,0 h 0.2008928 c 0.217634,0 0.217634,-0.016741 0.2678572,-0.050223 0.066964,-0.050223 0.1004464,-0.1841518 0.1004464,-0.234375 0,-0.1339286 -0.1004464,-0.1841518 -0.2176339,-0.1841518 -0.2511161,0 -0.5189732,0.016741 -0.7700893,0.016741 -0.2511161,0 -0.5189732,0.016741 -0.7868304,0.016741 -0.2845982,0 -0.5524553,-0.016741 -0.8370535,-0.016741 -0.2511161,0 -0.5189732,-0.016741 -0.7700893,-0.016741 -0.1004464,0 -0.2845982,0 -0.2845982,0.2845982 0,0.1841518 0.1506696,0.1841518 0.3348214,0.1841518 h 0.2176339 c 0.083705,0 0.3180804,0 0.5189732,0.016741 l -1.422991,5.67522321 c -0.033482,0.16741072 -0.050223,0.16741072 -0.234375,0.18415179 -0.1171875,0.0167411 -0.3013393,0.0167411 -0.43526789,0.0167411 H 0.75427455 c -0.20089285,0 -0.36830357,0 -0.36830357,0.28459822 0,0.13392857 0.10044643,0.18415178143 0.21763393,0.18415178143 0.25111607,0 0.50223219,-0.0167410714 0.75334819,-0.0167410714 0.2678572,0 0.5357143,-0.01674107 0.8035715,-0.01674107 0.2845982,0 0.5524553,0.01674107 0.8370535,0.01674107 0.2511161,0 0.5022322,0.0167410714 0.7533482,0.0167410714 0.1004465,0 0.3013393,0 0.3013393,-0.28459821143 0,-0.18415179 -0.1674107,-0.18415179 -0.3348214,-0.18415179 H 3.4998103 c -0.066964,0 -0.3850447,-0.0167411 -0.5189732,-0.0167411 z m 0,0"
         style="fill:#000000;fill-opacity:1;fill-rule:nonzero;stroke:none" />
      <path
         id="path341"
         d="m 8.7481362,-2.7920201 c 0.050223,-0.1841518 0.066964,-0.2176339 0.2176339,-0.234375 H 9.417779 c 0.652902,0 1.456473,0 1.456473,0.7198661 0,0.2845982 -0.133928,0.7366071 -0.46875,0.9877232 -0.284598,0.2176339 -0.7198658,0.33482143 -1.2053569,0.33482143 H 8.3128683 Z m 1.2723218,1.90848215 c 0.820312,-0.18415175 1.57366,-0.68638395 1.57366,-1.32254465 0,-0.5859375 -0.719866,-1.0714286 -1.7243301,-1.0714286 H 7.7269308 c -0.1339286,0 -0.234375,0 -0.234375,0.1506697 0,0.1004464 0.083705,0.1004464 0.234375,0.1004464 0,0 0.1339286,0 0.2511161,0.016741 0.1506696,0.016741 0.1674107,0.033482 0.1674107,0.1004464 0,0.016741 0,0.050223 -0.033482,0.1506697 L 7.1912165,0.94123884 C 7.1242522,1.1923549 7.1242522,1.2425781 6.5717969,1.2425781 c -0.1171875,0 -0.2008929,0 -0.2008929,0.1506697 0,0.066964 0.050223,0.1004464 0.1004464,0.1004464 0.1339286,0 0.3013393,-0.016741 0.4352679,-0.016741 0.1339286,0 0.3348214,-0.016741 0.46875,-0.016741 0.1339286,0 0.3013393,0.016741 0.4352679,0.016741 0.1506696,0 0.3348214,0.016741 0.46875,0.016741 0.033482,0 0.1506696,0 0.1506696,-0.1506696 0,-0.1004465 -0.066964,-0.1004465 -0.234375,-0.1004465 -0.1004464,0 -0.1339286,0 -0.2678571,-0.016741 C 7.777154,1.209096 7.777154,1.1923549 7.777154,1.1253906 c 0,-0.016741 0,-0.050223 0.033482,-0.15066962 l 0.435268,-1.77455357 h 0.9542411 c 0.6026786,0 0.8537949,0.30133929 0.8537949,0.63616072 0,0.08370535 -0.066965,0.31808035 -0.1004467,0.48549107 -0.083705,0.31808035 -0.1004464,0.41852678 -0.1004464,0.53571428 0,0.55245532 0.5022321,0.77008932 1.0212051,0.77008932 0.636161,0 0.920759,-0.68638396 0.920759,-0.80357146 0,-0.0167411 -0.01674,-0.10044643 -0.117187,-0.10044643 -0.08371,0 -0.100447,0.0502232 -0.133929,0.1171875 -0.0837,0.31808039 -0.351562,0.60267859 -0.636161,0.60267859 -0.184151,0 -0.31808,-0.083705 -0.31808,-0.45200895 0,-0.18415178 0.03348,-0.55245535 0.06696,-0.73660714 0.03348,-0.18415178 0.03348,-0.25111607 0.03348,-0.31808036 0,-0.08370535 0,-0.31808035 -0.200892,-0.51897321 -0.133929,-0.15066964 -0.318081,-0.234375 -0.46875,-0.30133929 z m 0,0"
         style="fill:#000000;fill-opacity:1;fill-rule:nonzero;stroke:none" />
    </g>
    <g
       id="g341"
       aria-label="Z=R+jωL"
       transform="matrix(0.93333333,0,0,0.93333333,2887.5427,203.648)">
      <path
         id="path342"
         d="m 7.8686272,-6.3611384 c 0.083705,-0.083705 0.1506697,-0.2008929 0.1506697,-0.3348214 0,-0.1339286 -0.1171875,-0.1339286 -0.2845982,-0.1339286 H 2.9132701 c -0.2511161,0 -0.3013393,0 -0.3683036,0.234375 l -0.5357143,1.7912946 c -0.050223,0.1506697 -0.050223,0.1674108 -0.050223,0.2008929 0,0.1674107 0.1674107,0.1674107 0.2176339,0.1674107 0.1506697,0 0.2008929,-0.033482 0.2511161,-0.1674107 0.4352679,-1.2555804 1.1886161,-1.7578125 2.5613839,-1.7578125 h 1.3392858 l -5.4743304,5.84263394 c -0.0837054,0.0837053 -0.18415178,0.18415178 -0.18415178,0.38504464 0,0.13392857 0.10044643,0.13392857 0.30133928,0.13392857 h 4.9888393 c 0.2511161,0 0.2845982,0 0.3515625,-0.234375 L 7.0483147,-2.510692 c 0.033482,-0.1004464 0.033482,-0.1339285 0.033482,-0.1339285 0,-0.1506697 -0.1339286,-0.1841518 -0.234375,-0.1841518 -0.066964,0 -0.1674107,0 -0.217634,0.1339285 -0.4352678,1.2555804 -0.9040178,2.19308041 -2.7957589,2.19308041 H 2.3942969 Z m 0,0"
         style="fill:#000000;fill-opacity:1;fill-rule:nonzero;stroke:none" />
      <path
         id="path343"
         d="m 18.005346,-3.2640402 c 0.15067,0 0.334821,0 0.334821,-0.1841518 0,-0.2008928 -0.184151,-0.2008928 -0.334821,-0.2008928 h -5.959821 c -0.133929,0 -0.334822,0 -0.334822,0.2008928 0,0.1841518 0.200893,0.1841518 0.351563,0.1841518 z m 0,1.9419643 c 0.15067,0 0.334821,0 0.334821,-0.2008929 0,-0.2008928 -0.184151,-0.2008928 -0.334821,-0.2008928 h -5.94308 c -0.15067,0 -0.351563,0 -0.351563,0.2008928 0,0.2008929 0.200893,0.2008929 0.334822,0.2008929 z m 0,0"
         style="fill:#000000;fill-opacity:1;fill-rule:nonzero;stroke:none" />
      <path
         id="path344"
         d="m 25.409085,-6.1100223 c 0.06696,-0.2511161 0.0837,-0.3515625 0.284598,-0.3683036 0.0837,-0.016741 0.401786,-0.016741 0.602679,-0.016741 0.703125,0 1.808035,0 1.808035,0.9877232 0,0.3348215 -0.150669,1.0212054 -0.535714,1.40625 -0.267857,0.2678572 -0.78683,0.5859375 -1.690848,0.5859375 h -1.121652 z m 1.439732,2.7287946 c 1.004464,-0.2176339 2.19308,-0.9207589 2.19308,-1.9252232 0,-0.8537946 -0.904018,-1.4899554 -2.209821,-1.4899554 h -2.829241 c -0.200893,0 -0.301339,0 -0.301339,0.2008929 0,0.1004464 0.100446,0.1004464 0.284598,0.1004464 0.01674,0 0.217634,0 0.385044,0.016741 0.167411,0.016741 0.267858,0.033482 0.267858,0.1674107 0,0.033482 -0.01674,0.066964 -0.05022,0.1841518 l -1.322544,5.35714286 c -0.100447,0.38504465 -0.133929,0.46875 -0.920759,0.46875 -0.167411,0 -0.267857,0 -0.267857,0.18415179 0,0.1171875 0.133928,0.1171875 0.150669,0.1171875 0.267857,0 0.970982,-0.03348214 1.255581,-0.03348214 0.267857,0 0.987723,0.03348214 1.25558,0.03348214 0.0837,0 0.200893,0 0.200893,-0.20089286 0,-0.10044643 -0.08371,-0.10044643 -0.267857,-0.10044643 -0.385045,0 -0.652902,0 -0.652902,-0.18415178 0,-0.0669643 0.01674,-0.1171875 0.03348,-0.16741072 l 0.6529,-2.64508916 h 1.188616 c 0.904018,0 1.08817,0.5524553 1.08817,0.9040178 0,0.1506697 -0.08371,0.46875 -0.15067,0.686384 -0.06696,0.2845982 -0.15067,0.6529017 -0.15067,0.85379461 0,1.07142857 1.188616,1.07142857 1.322545,1.07142857 0.837053,0 1.188616,-1.00446429 1.188616,-1.13839286 0,-0.11718752 -0.100446,-0.11718752 -0.117188,-0.11718752 -0.08371,0 -0.100446,0.0669643 -0.133928,0.13392859 -0.251116,0.73660715 -0.669643,0.90401786 -0.904018,0.90401786 -0.31808,0 -0.401786,-0.21763393 -0.401786,-0.60267857 0,-0.31808036 0.06696,-0.82031248 0.100447,-1.13839288 0.03348,-0.1339286 0.05022,-0.3348214 0.05022,-0.46875 0,-0.7700893 -0.669643,-1.0714286 -0.9375,-1.171875 z m 0,0"
         style="fill:#000000;fill-opacity:1;fill-rule:nonzero;stroke:none" />
      <path
         id="path345"
         d="m 35.600212,-2.293058 h 2.779018 c 0.15067,0 0.334821,0 0.334821,-0.2008929 0,-0.2008929 -0.184151,-0.2008929 -0.334821,-0.2008929 h -2.779018 v -2.7790178 c 0,-0.1506697 0,-0.3348214 -0.200893,-0.3348214 -0.184152,0 -0.184152,0.1841517 -0.184152,0.3348214 v 2.7790178 h -2.795759 c -0.133928,0 -0.334821,0 -0.334821,0.2008929 0,0.2008929 0.200893,0.2008929 0.334821,0.2008929 h 2.795759 v 2.79575889 c 0,0.13392857 0,0.31808036 0.184152,0.31808036 0.200893,0 0.200893,-0.18415179 0.200893,-0.31808036 z m 0,0"
         style="fill:#000000;fill-opacity:1;fill-rule:nonzero;stroke:none" />
      <path
         id="path346"
         d="m 45.443962,-6.2272098 c 0,-0.1841518 -0.133929,-0.3515625 -0.368304,-0.3515625 -0.234375,0 -0.535714,0.2176339 -0.535714,0.5189732 0,0.2008928 0.133929,0.3683036 0.368304,0.3683036 0.267857,0 0.535714,-0.2678572 0.535714,-0.5357143 z m -1.992187,6.72991069 c -0.200893,0.75334821 -0.669643,1.32254461 -1.23884,1.32254461 -0.05022,0 -0.200893,0 -0.385044,-0.083705 C 42.12923,1.6578355 42.2799,1.406719 42.2799,1.2058262 c 0,-0.1674107 -0.117188,-0.35156251 -0.385045,-0.35156251 -0.234375,0 -0.535714,0.21763391 -0.535714,0.56919641 0,0.4017857 0.401785,0.6194197 0.887276,0.6194197 0.686384,0 1.623884,-0.5357143 1.858259,-1.50669646 l 0.920759,-3.64955354 c 0.05022,-0.2008929 0.05022,-0.3348215 0.05022,-0.3683036 0,-0.5691964 -0.418526,-0.9207589 -0.920758,-0.9207589 -1.004465,0 -1.573661,1.4397321 -1.573661,1.5401785 0,0.1004465 0.100446,0.1004465 0.117187,0.1004465 0.08371,0 0.100447,-0.016741 0.184152,-0.2008929 0.251116,-0.6194196 0.703125,-1.2220982 1.25558,-1.2220982 0.133929,0 0.318081,0.033482 0.318081,0.4520089 0,0.234375 -0.03348,0.3515625 -0.06696,0.5189732 z M 52.190614,-3.699308 c 0,-0.452009 -0.184152,-0.703125 -0.401786,-0.703125 -0.251116,0 -0.518973,0.234375 -0.518973,0.46875 0,0.1004464 0.05022,0.2008928 0.15067,0.3013392 0.16741,0.1506697 0.334821,0.4185268 0.334821,0.8370536 0,0.4017857 -0.184152,0.9709822 -0.485491,1.4229911 -0.301339,0.41852678 -0.669643,0.77008928 -1.138393,0.77008928 -0.569196,0 -0.887277,-0.36830357 -0.970982,-0.90401788 0.117187,-0.2511161 0.334821,-0.8872768 0.334821,-1.171875 0,-0.1171875 -0.05022,-0.2176339 -0.16741,-0.2176339 -0.08371,0 -0.200893,0.016741 -0.267858,0.1674107 -0.117187,0.2008929 -0.234375,0.8537946 -0.234375,1.2053571 -0.334821,0.46875 -0.736607,0.92075898 -1.356026,0.92075898 -0.652902,0 -0.870536,-0.58593748 -0.870536,-1.15513398 0,-1.2388392 1.021205,-2.2935267 1.021205,-2.4107142 0,-0.1171875 -0.0837,-0.2008929 -0.184151,-0.2008929 -0.133929,0 -0.200893,0.1339286 -0.267858,0.2176339 -0.502232,0.7533482 -0.887276,1.9252232 -0.887276,2.8292411 0,0.70312501 0.234375,1.43973215 1.054687,1.43973215 0.703125,0 1.171875,-0.50223214 1.523438,-1.0546875 0.100446,0.5859375 0.485491,1.0546875 1.10491,1.0546875 0.77009,0 1.255581,-0.61941964 1.607143,-1.35602675 0.234375,-0.5022322 0.61942,-1.8415179 0.61942,-2.4609375 z m 4.264788,-2.327009 c 0.08371,-0.3515625 0.117187,-0.46875 1.054687,-0.46875 0.284599,0 0.368304,0 0.368304,-0.1841518 0,-0.1171875 -0.100447,-0.1171875 -0.15067,-0.1171875 -0.334821,0 -1.155134,0.016741 -1.473214,0.016741 -0.301339,0 -1.037946,-0.016741 -1.339286,-0.016741 -0.06696,0 -0.184152,0 -0.184152,0.2008929 0,0.1004464 0.100447,0.1004464 0.284599,0.1004464 0.01674,0 0.200893,0 0.368303,0.016741 0.184152,0.016741 0.284598,0.033482 0.284598,0.1674107 0,0.033482 -0.01674,0.066964 -0.05022,0.1841518 l -1.339285,5.35714286 c -0.100447,0.38504465 -0.117188,0.46875 -0.904018,0.46875 -0.167411,0 -0.267857,0 -0.267857,0.18415179 0,0.1171875 0.100446,0.1171875 0.267857,0.1171875 h 4.620535 c 0.234375,0 0.251116,0 0.30134,-0.16741071 l 0.78683,-2.15959824 c 0.05022,-0.1004464 0.05022,-0.1171875 0.05022,-0.1339286 0,-0.033482 -0.03348,-0.1171875 -0.133928,-0.1171875 -0.08371,0 -0.100447,0.050223 -0.167411,0.217634 -0.334821,0.9207589 -0.770089,2.05915176 -2.49442,2.05915176 h -0.9375 c -0.133928,0 -0.150669,0 -0.217634,-0.0167411 -0.100446,-0.0167411 -0.133928,-0.0167411 -0.133928,-0.10044643 0,-0.0334821 0,-0.0502232 0.05022,-0.234375 z m 0,0"
         style="fill:#000000;fill-opacity:1;fill-rule:nonzero;stroke:none" />
    </g>
    <path
       id="path347"
       d="m 29.764,59.52802 0.0011,-26.98493 m 0,-5.55603 L 29.764,0"
       style="fill:none;stroke:#000000;stroke-width:0.3985;stroke-linecap:butt;stroke-linejoin:miter;stroke-miterlimit:10;stroke-dasharray:none;stroke-opacity:1"
       transform="matrix(1.3333333,0,0,-1.3333333,2809.4853,293.96)" />
    <path
       id="path348"
       d="M 38.09796,32.54193 H 21.43005 M 38.09796,26.98608 H 21.43005"
       style="fill:none;stroke:#000000;stroke-width:0.797;stroke-linecap:butt;stroke-linejoin:miter;stroke-miterlimit:10;stroke-dasharray:none;stroke-opacity:1"
       transform="matrix(1.3333333,0,0,-1.3333333,2809.4853,293.96)" />
    <path
       id="path349"
       d="m 7.3168304,-5.9775893 c 0.2176339,-0.234375 0.4520089,-0.3850446 1.1049107,-0.3850446 0.1171875,0 0.3013393,0 0.3013393,-0.2845982 0,-0.066964 -0.050223,-0.1841518 -0.1841518,-0.1841518 -0.2845982,0 -0.6194197,0.033482 -0.920759,0.033482 -0.3683035,0 -0.7366071,-0.033482 -1.1049107,-0.033482 -0.066964,0 -0.2678571,0 -0.2678571,0.2845982 0,0.1841518 0.1674107,0.1841518 0.2678571,0.1841518 0.1004465,0 0.3013393,0.016741 0.452009,0.066964 L 4.2699554,-3.3994643 2.9976339,-6.3291518 c 0.2678572,-0.033482 0.2845982,-0.033482 0.5524554,-0.033482 0.1674107,0 0.3348214,-0.016741 0.3348214,-0.2845982 0,-0.1339286 -0.1004464,-0.1841518 -0.2176339,-0.1841518 -0.3348214,0 -1.2053572,0.033482 -1.5401786,0.033482 -0.234375,0 -0.46875,-0.016741 -0.6863839,-0.016741 -0.2511161,0 -0.48549109,-0.016741 -0.71986609,-0.016741 -0.10044642,0 -0.28459821,0 -0.28459821,0.2845982 0,0.1841518 0.15066964,0.1841518 0.41852679,0.1841518 0.1171875,0 0.23437501,0 0.38504461,0 0.1171875,0.033482 0.1339286,0.033482 0.2008929,0.1506696 l 1.5066964,3.4821429 -0.5189732,2.05915176 c -0.033482,0.16741071 -0.050223,0.16741071 -0.234375,0.18415178 -0.1674107,0.0167411 -0.3348214,0.0167411 -0.5022321,0.0167411 -0.3013393,0 -0.3180804,0 -0.3683036,0.0334821 -0.050223,0.0502232 -0.1004464,0.18415178 -0.1004464,0.25111607 0,0.0167411 0.016741,0.18415178 0.2176339,0.18415178 0.2511161,0 0.5189732,-0.01674107 0.7533482,-0.01674107 0.2511161,0 0.5022321,-0.01674107 0.7366071,-0.01674107 0.3348215,0 1.1886161,0.03348214 1.5234375,0.03348214 0.083705,0 0.2845983,0 0.2845983,-0.28459821 0,-0.18415179 -0.1339286,-0.18415179 -0.4185268,-0.18415179 -0.2008929,0 -0.4017857,-0.0167411 -0.6026786,-0.0167411 L 4.2699554,-2.7298214 Z m 0,0"
       style="fill:#000000;fill-opacity:1;fill-rule:nonzero;stroke:none"
       aria-label="Y"
       transform="matrix(0.93333333,0,0,0.93333333,2864.6553,249.98533)" />
    <path
       id="path350"
       d="M 0,0 H 9.267"
       style="fill:none;stroke:#000000;stroke-width:0.398;stroke-linecap:butt;stroke-linejoin:miter;stroke-miterlimit:10;stroke-dasharray:none;stroke-opacity:1"
       transform="matrix(0.93333333,0,0,-0.93333333,2864.6553,253.95107)" />
    <path
       id="path351"
       d="M 1.2731607,-0.77129241 2.3278482,-1.7924978 c 1.5401786,-1.3727678 2.1428572,-1.9084821 2.1428572,-2.9129464 0,-1.1383929 -0.8872768,-1.9252232 -2.109375,-1.9252232 -1.1216518,0 -1.85825897,0.9040178 -1.85825897,1.7912946 0,0.5691965 0.50223217,0.5691965 0.51897317,0.5691965 0.1674108,0 0.5189733,-0.1171875 0.5189733,-0.5357143 0,-0.2511161 -0.1674108,-0.5189732 -0.5189733,-0.5189732 -0.0837053,0 -0.10044639,0 -0.13392853,0.016741 0.23437503,-0.6529018 0.77008933,-1.0212053 1.33928573,-1.0212053 0.9040178,0 1.3392857,0.8035714 1.3392857,1.6238839 0,0.8035714 -0.5022321,1.5904018 -1.0379464,2.2098214 L 0.60351786,-0.3695067 C 0.50307143,-0.2523192 0.50307143,-0.23557813 0.50307143,-0.00120313 H 4.1861071 L 4.4707054,-1.7422746 H 4.2195893 c -0.050223,0.3013393 -0.1171875,0.7366072 -0.2176339,0.88727683 -0.066964,0.0837054 -0.7198661,0.0837054 -0.9375,0.0837054 z m 0,0"
       style="fill:#000000;fill-opacity:1;fill-rule:nonzero;stroke:none"
       aria-label="2"
       transform="matrix(0.93333333,0,0,0.93333333,2866.6555,262.65347)" />
    <path
       id="path352"
       d="m 29.76561,47.25256 h -1.38896 l 1.38896,-2.95155 1.38895,2.95155 z"
       style="fill:#000000;fill-opacity:1;fill-rule:nonzero;stroke:#000000;stroke-width:0.3985;stroke-linecap:butt;stroke-linejoin:miter;stroke-miterlimit:10;stroke-dasharray:none;stroke-opacity:1"
       transform="matrix(1.3333333,0,0,-1.3333333,2809.4853,293.96)" />
    <g
       id="g352"
       aria-label="I&#10;CS"
       transform="matrix(0.93333333,0,0,0.93333333,2829.236,235.06933)">
      <path
         id="path353"
         d="m 4.3844196,-6.1596652 c 0.050223,-0.1674107 0.050223,-0.1674107 0.2511161,-0.2008928 0.1506697,0 0.2845982,0 0.4352679,0 h 0.2008928 c 0.217634,0 0.217634,-0.016741 0.2678572,-0.050223 C 5.6065179,-6.4610045 5.64,-6.594933 5.64,-6.6451563 5.64,-6.7790848 5.5395536,-6.829308 5.4223661,-6.829308 c -0.2511161,0 -0.5189732,0.016741 -0.7700893,0.016741 -0.2511161,0 -0.5189732,0.016741 -0.7868304,0.016741 -0.2845982,0 -0.5524553,-0.016741 -0.8370535,-0.016741 -0.2511161,0 -0.5189733,-0.016741 -0.7700893,-0.016741 -0.1004465,0 -0.2845982,0 -0.2845982,0.2845982 0,0.1841518 0.1506696,0.1841518 0.3348214,0.1841518 h 0.2176339 c 0.083705,0 0.3180804,0 0.5189732,0.016741 l -1.422991,5.67522325 c -0.033482,0.16741071 -0.050223,0.16741071 -0.234375,0.18415179 -0.1171875,0.0167411 -0.3013393,0.0167411 -0.4352679,0.0167411 H 0.75160714 c -0.20089285,0 -0.36830357,0 -0.36830357,0.28459821 0,0.13392857 0.10044643,0.18415179 0.21763393,0.18415179 0.25111607,0 0.5022321,-0.01674107 0.7533482,-0.01674107 0.2678572,0 0.5357143,-0.01674108 0.8035714,-0.01674108 0.2845983,0 0.5524554,0.01674108 0.8370536,0.01674108 0.2511161,0 0.5022322,0.01674107 0.7533482,0.01674107 0.1004465,0 0.3013393,0 0.3013393,-0.28459822 0,-0.18415178 -0.1674107,-0.18415178 -0.3348214,-0.18415178 H 3.4971429 c -0.066964,0 -0.3850447,-0.0167411 -0.5189733,-0.0167411 z m 0,0"
         style="fill:#000000;fill-opacity:1;fill-rule:nonzero;stroke:none" />
      <path
         id="path354"
         d="m 11.758862,-3.3262388 c 0,-0.033482 -0.03348,-0.083705 -0.100447,-0.083705 -0.05022,0 -0.06696,0.016741 -0.117187,0.083705 l -0.518974,0.5357142 c -0.06696,-0.083705 -0.452008,-0.6194196 -1.3058031,-0.6194196 -1.7075893,0 -3.3649554,1.5066964 -3.3649554,3.08035715 0,1.13839285 0.9040179,1.95870535 2.1428572,1.95870535 0.3850446,0 1.0546875,-0.066964 1.7745533,-0.68638393 0.552456,-0.45200892 0.703125,-1.07142857 0.703125,-1.12165178 0,-0.10044643 -0.08371,-0.10044643 -0.117187,-0.10044643 -0.100447,0 -0.117188,0.0502232 -0.133929,0.1171875 -0.284598,0.95424107 -1.2555802,1.54017854 -2.1093748,1.54017854 -0.7366072,0 -1.5569197,-0.38504461 -1.5569197,-1.48995533 0,-0.20089285 0.050223,-1.30580357 0.8537947,-2.19308037 0.485491,-0.5357143 1.2053571,-0.8537946 1.875,-0.8537946 0.8035718,0 1.2890628,0.5859375 1.2890628,1.3727678 0,0.1841518 -0.03348,0.234375 -0.03348,0.2845982 0,0.083705 0.100446,0.083705 0.133928,0.083705 0.117188,0 0.117188,-0.016741 0.15067,-0.1506696 z m 5.265067,0 c 0,-0.033482 -0.01674,-0.083705 -0.08371,-0.083705 -0.05022,0 -0.05022,0 -0.150669,0.1004464 l -0.334822,0.3850447 c -0.267857,-0.3683036 -0.703125,-0.4854911 -1.138393,-0.4854911 -0.970982,0 -1.858259,0.7868304 -1.858259,1.5904018 0,0.1171875 0.03348,0.3850446 0.234375,0.6529018 0.234375,0.26785712 0.502232,0.3348214 0.970982,0.4520089 0.133929,0.0334821 0.485492,0.10044643 0.602679,0.13392857 0.217634,0.0502232 0.636161,0.21763393 0.636161,0.73660715 0,0.56919643 -0.585938,1.22209818 -1.389509,1.22209818 -0.602679,0 -1.356027,-0.2176339 -1.356027,-0.98772318 0,-0.0669643 0.01674,-0.21763393 0.05022,-0.3515625 0,-0.01674107 0,-0.03348215 0,-0.03348215 0,-0.10044642 -0.08371,-0.10044642 -0.100446,-0.10044642 -0.100447,0 -0.117188,0.01674107 -0.133929,0.15066964 L 12.621027,1.4449665 c -0.01674,0.033482 -0.03348,0.066964 -0.03348,0.1004464 0,0.050223 0.03348,0.083705 0.100446,0.083705 0.05022,0 0.05022,0 0.133929,-0.083705 0.08371,-0.1004464 0.267857,-0.3180803 0.334821,-0.4017857 0.385045,0.4017857 0.920759,0.4854911 1.339286,0.4854911 1.054687,0 1.908482,-0.90401785 1.908482,-1.72433035 0,-0.30133929 -0.133929,-0.5859375 -0.284598,-0.75334822 -0.234375,-0.25111603 -0.351563,-0.26785713 -1.23884,-0.48549103 -0.150669,-0.033482 -0.385044,-0.083705 -0.452009,-0.1171875 -0.16741,-0.050223 -0.46875,-0.234375 -0.46875,-0.6361608 0,-0.5357142 0.636161,-1.1049107 1.356027,-1.1049107 0.753348,0 1.121652,0.4352679 1.121652,1.0881697 0,0.1004464 -0.03348,0.251116 -0.03348,0.3180803 0,0.1004465 0.0837,0.1004465 0.117187,0.1004465 0.100447,0 0.117188,-0.033482 0.133929,-0.1506697 z m 0,0"
         style="fill:#000000;fill-opacity:1;fill-rule:nonzero;stroke:none" />
    </g>
    <path
       id="path355"
       d="m 128.9774,59.52802 0.005,-26.98493 m 0,-5.55603 L 128.9774,0"
       style="fill:none;stroke:#000000;stroke-width:0.3985;stroke-linecap:butt;stroke-linejoin:miter;stroke-miterlimit:10;stroke-dasharray:none;stroke-opacity:1"
       transform="matrix(1.3333333,0,0,-1.3333333,2809.4853,293.96)" />
    <path
       id="path356"
       d="m 137.31134,32.54193 h -16.66791 m 16.66791,-5.55585 h -16.66791"
       style="fill:none;stroke:#000000;stroke-width:0.797;stroke-linecap:butt;stroke-linejoin:miter;stroke-miterlimit:10;stroke-dasharray:none;stroke-opacity:1"
       transform="matrix(1.3333333,0,0,-1.3333333,2809.4853,293.96)" />
    <path
       id="path357"
       d="m 7.317125,-5.9775893 c 0.2176339,-0.234375 0.4520089,-0.3850446 1.1049107,-0.3850446 0.1171875,0 0.3013393,0 0.3013393,-0.2845982 0,-0.066964 -0.050223,-0.1841518 -0.1841518,-0.1841518 -0.2845982,0 -0.6194196,0.033482 -0.9207589,0.033482 -0.3683036,0 -0.7366072,-0.033482 -1.1049107,-0.033482 -0.066964,0 -0.2678572,0 -0.2678572,0.2845982 0,0.1841518 0.1674107,0.1841518 0.2678572,0.1841518 0.1004464,0 0.3013393,0.016741 0.4520089,0.066964 L 4.27025,-3.3994643 2.9979286,-6.3291518 c 0.2678571,-0.033482 0.2845982,-0.033482 0.5524553,-0.033482 0.1674107,0 0.3348215,-0.016741 0.3348215,-0.2845982 0,-0.1339286 -0.1004465,-0.1841518 -0.217634,-0.1841518 -0.3348214,0 -1.2053571,0.033482 -1.5401785,0.033482 -0.234375,0 -0.46875,-0.016741 -0.686384,-0.016741 -0.251116,0 -0.48549104,-0.016741 -0.71986604,-0.016741 -0.10044643,0 -0.28459822,0 -0.28459822,0.2845982 0,0.1841518 0.15066965,0.1841518 0.41852679,0.1841518 0.1171875,0 0.23437497,0 0.38504467,0 0.1171875,0.033482 0.1339285,0.033482 0.2008928,0.1506696 l 1.5066965,3.4821429 -0.5189733,2.05915176 c -0.033482,0.16741071 -0.050223,0.16741071 -0.234375,0.18415178 -0.1674107,0.0167411 -0.3348214,0.0167411 -0.5022321,0.0167411 -0.3013393,0 -0.3180804,0 -0.3683036,0.0334821 -0.050223,0.0502232 -0.1004464,0.18415178 -0.1004464,0.25111607 0,0.0167411 0.016741,0.18415178 0.2176339,0.18415178 0.2511161,0 0.5189732,-0.01674107 0.7533482,-0.01674107 0.2511161,0 0.5022322,-0.01674107 0.7366072,-0.01674107 0.3348214,0 1.1886161,0.03348214 1.5234375,0.03348214 0.083705,0 0.2845982,0 0.2845982,-0.28459821 0,-0.18415179 -0.1339286,-0.18415179 -0.4185268,-0.18415179 -0.2008928,0 -0.4017857,-0.0167411 -0.6026786,-0.0167411 L 4.27025,-2.7298214 Z m 0,0"
       style="fill:#000000;fill-opacity:1;fill-rule:nonzero;stroke:none"
       aria-label="Y"
       transform="matrix(0.93333333,0,0,0.93333333,2957.3269,249.98533)" />
    <path
       id="path358"
       d="M 0,0 H 9.267"
       style="fill:none;stroke:#000000;stroke-width:0.398;stroke-linecap:butt;stroke-linejoin:miter;stroke-miterlimit:10;stroke-dasharray:none;stroke-opacity:1"
       transform="matrix(0.93333333,0,0,-0.93333333,2957.3269,253.95107)" />
    <path
       id="path359"
       d="M 1.2702701,-0.77129241 2.3249576,-1.7924978 c 1.5401786,-1.3727678 2.1428571,-1.9084821 2.1428571,-2.9129464 0,-1.1383929 -0.8872768,-1.9252232 -2.109375,-1.9252232 -1.1216518,0 -1.8582589,0.9040178 -1.8582589,1.7912946 0,0.5691965 0.5022321,0.5691965 0.5189732,0.5691965 0.1674107,0 0.5189732,-0.1171875 0.5189732,-0.5357143 0,-0.2511161 -0.1674107,-0.5189732 -0.5189732,-0.5189732 -0.0837053,0 -0.10044641,0 -0.13392855,0.016741 0.23437495,-0.6529018 0.77008925,-1.0212053 1.33928575,-1.0212053 0.9040178,0 1.3392857,0.8035714 1.3392857,1.6238839 0,0.8035714 -0.5022322,1.5904018 -1.0379465,2.2098214 L 0.60062723,-0.3695067 C 0.5001808,-0.2523192 0.5001808,-0.23557813 0.5001808,-0.00120313 H 4.1832165 L 4.4678147,-1.7422746 h -0.251116 c -0.050223,0.3013393 -0.1171875,0.7366072 -0.217634,0.88727683 -0.066964,0.0837054 -0.719866,0.0837054 -0.9375,0.0837054 z m 0,0"
       style="fill:#000000;fill-opacity:1;fill-rule:nonzero;stroke:none"
       aria-label="2"
       transform="matrix(0.93333333,0,0,0.93333333,2959.3261,262.65347)" />
    <path
       id="path360"
       d="m 128.98451,47.25256 h -1.38896 l 1.38896,-2.95155 1.38895,2.95155 z"
       style="fill:#000000;fill-opacity:1;fill-rule:nonzero;stroke:#000000;stroke-width:0.3985;stroke-linecap:butt;stroke-linejoin:miter;stroke-miterlimit:10;stroke-dasharray:none;stroke-opacity:1"
       transform="matrix(1.3333333,0,0,-1.3333333,2809.4853,293.96)" />
    <g
       id="g360"
       aria-label="I&#10;CR"
       transform="matrix(0.93333333,0,0,0.93333333,2984.7507,235.06933)">
      <path
         id="path361"
         d="m 4.3854464,-6.1596652 c 0.050223,-0.1674107 0.050223,-0.1674107 0.2511161,-0.2008928 0.1506696,0 0.2845982,0 0.4352679,0 h 0.2008928 c 0.2176339,0 0.2176339,-0.016741 0.2678572,-0.050223 0.066964,-0.050223 0.1004464,-0.1841517 0.1004464,-0.234375 0,-0.1339285 -0.1004464,-0.1841517 -0.2176339,-0.1841517 -0.2511161,0 -0.5189733,0.016741 -0.7700893,0.016741 -0.2511161,0 -0.5189732,0.016741 -0.7868304,0.016741 -0.2845982,0 -0.5524553,-0.016741 -0.8370536,-0.016741 -0.251116,0 -0.5189732,-0.016741 -0.7700892,-0.016741 -0.1004465,0 -0.2845983,0 -0.2845983,0.2845982 0,0.1841518 0.1506697,0.1841518 0.3348215,0.1841518 h 0.2176339 c 0.083705,0 0.3180804,0 0.5189732,0.016741 l -1.4229911,5.67522325 c -0.033482,0.16741071 -0.050223,0.16741071 -0.234375,0.18415179 -0.1171875,0.0167411 -0.3013392,0.0167411 -0.43526781,0.0167411 H 0.75263393 c -0.20089286,0 -0.36830357,0 -0.36830357,0.28459821 0,0.13392857 0.10044643,0.18415179 0.21763393,0.18415179 0.25111607,0 0.50223211,-0.01674107 0.75334821,-0.01674107 0.2678571,0 0.5357143,-0.01674108 0.8035714,-0.01674108 0.2845982,0 0.5524554,0.01674108 0.8370536,0.01674108 0.2511161,0 0.5022321,0.01674107 0.7533482,0.01674107 0.1004464,0 0.3013393,0 0.3013393,-0.28459822 0,-0.18415178 -0.1674107,-0.18415178 -0.3348214,-0.18415178 h -0.217634 c -0.066964,0 -0.3850446,-0.0167411 -0.5189732,-0.0167411 z m 0,0"
         style="fill:#000000;fill-opacity:1;fill-rule:nonzero;stroke:none" />
      <path
         id="path362"
         d="m 11.759888,-3.3262388 c 0,-0.033482 -0.03348,-0.083705 -0.100446,-0.083705 -0.05022,0 -0.06696,0.016741 -0.117188,0.083705 l -0.518973,0.5357142 c -0.06696,-0.083705 -0.452009,-0.6194196 -1.3058033,-0.6194196 -1.7075893,0 -3.3649554,1.5066964 -3.3649554,3.08035715 0,1.13839285 0.9040179,1.95870535 2.1428572,1.95870535 0.3850446,0 1.0546875,-0.066964 1.7745535,-0.68638393 0.552455,-0.45200892 0.703125,-1.07142857 0.703125,-1.12165178 0,-0.10044643 -0.08371,-0.10044643 -0.117187,-0.10044643 -0.100447,0 -0.117188,0.0502232 -0.133929,0.1171875 -0.284598,0.95424107 -1.2555804,1.54017854 -2.109375,1.54017854 -0.7366072,0 -1.5569197,-0.38504461 -1.5569197,-1.48995533 0,-0.20089285 0.050223,-1.30580357 0.8537947,-2.19308037 0.485491,-0.5357143 1.2053571,-0.8537946 1.875,-0.8537946 0.803571,0 1.289062,0.5859375 1.289062,1.3727678 0,0.1841518 -0.03348,0.234375 -0.03348,0.2845982 0,0.083705 0.100447,0.083705 0.133929,0.083705 0.117187,0 0.117187,-0.016741 0.15067,-0.1506696 z m 3.189175,0.5357142 c 0.05022,-0.1841517 0.06696,-0.2176339 0.217633,-0.234375 h 0.452009 c 0.652902,0 1.456474,0 1.456474,0.7198661 0,0.2845982 -0.133929,0.7366072 -0.46875,0.9877232 -0.284599,0.217634 -0.719866,0.33482146 -1.205358,0.33482146 h -0.887276 z m 1.272321,1.90848219 c 0.820312,-0.18415179 1.573661,-0.68638389 1.573661,-1.32254469 0,-0.5859375 -0.719866,-1.0714285 -1.724331,-1.0714285 h -2.142857 c -0.133928,0 -0.234375,0 -0.234375,0.1506696 0,0.1004464 0.08371,0.1004464 0.234375,0.1004464 0,0 0.133929,0 0.251116,0.016741 0.15067,0.016741 0.167411,0.033482 0.167411,0.1004464 0,0.016741 0,0.050223 -0.03348,0.1506697 l -0.920759,3.69977677 c -0.06696,0.25111603 -0.06696,0.30133933 -0.61942,0.30133933 -0.117187,0 -0.200893,0 -0.200893,0.1506696 0,0.066964 0.05022,0.1004464 0.100447,0.1004464 0.133928,0 0.301339,-0.016741 0.435268,-0.016741 0.133928,0 0.334821,-0.016741 0.46875,-0.016741 0.133928,0 0.301339,0.016741 0.435268,0.016741 0.150669,0 0.334821,0.016741 0.46875,0.016741 0.03348,0 0.150669,0 0.150669,-0.1506696 0,-0.1004464 -0.06696,-0.1004464 -0.234375,-0.1004464 -0.100446,0 -0.133928,0 -0.267857,-0.016741 -0.15067,-0.016741 -0.15067,-0.033482 -0.15067,-0.1004464 0,-0.016741 0,-0.050223 0.03348,-0.15066968 l 0.435267,-1.77455357 h 0.954241 c 0.602679,0 0.853795,0.30133928 0.853795,0.63616071 0,0.08370536 -0.06696,0.31808036 -0.100446,0.48549107 -0.08371,0.31808036 -0.100447,0.41852679 -0.100447,0.53571429 0,0.55245538 0.502232,0.77008928 1.021206,0.77008928 0.63616,0 0.920759,-0.68638393 0.920759,-0.80357143 0,-0.0167411 -0.01674,-0.10044642 -0.117188,-0.10044642 -0.08371,0 -0.100446,0.0502232 -0.133929,0.1171875 -0.08371,0.31808035 -0.351562,0.60267855 -0.63616,0.60267855 -0.184152,0 -0.318081,-0.083705 -0.318081,-0.45200891 0,-0.18415179 0.03348,-0.55245536 0.06696,-0.73660714 0.03348,-0.18415179 0.03348,-0.25111608 0.03348,-0.31808036 0,-0.08370536 0,-0.31808036 -0.200893,-0.51897322 -0.133929,-0.15066964 -0.31808,-0.234375 -0.46875,-0.30133928 z m 0,0"
         style="fill:#000000;fill-opacity:1;fill-rule:nonzero;stroke:none" />
    </g>
    <path
       id="path363"
       d="m 4.0699665,-2.2933147 h 2.7790179 c 0.1506696,0 0.3348214,0 0.3348214,-0.2008929 0,-0.2008928 -0.1841518,-0.2008928 -0.3348214,-0.2008928 H 4.0699665 v -2.7790179 c 0,-0.1506696 0,-0.3348214 -0.2008928,-0.3348214 -0.1841518,0 -0.1841518,0.1841518 -0.1841518,0.3348214 v 2.7790179 H 0.88916295 c -0.13392857,0 -0.33482143,0 -0.33482143,0.2008928 0,0.2008929 0.20089286,0.2008929 0.33482143,0.2008929 H 3.6849219 v 2.7957589 c 0,0.13392857 0,0.31808035 0.1841518,0.31808035 0.2008928,0 0.2008928,-0.18415178 0.2008928,-0.31808035 z m 0,0"
       style="fill:#000000;fill-opacity:1;fill-rule:nonzero;stroke:none"
       aria-label="+"
       transform="matrix(0.93333333,0,0,0.93333333,2805.8693,228.76933)" />
    <path
       id="path364"
       d="m 6.5643862,-2.2916183 c 0.1674107,0 0.3515625,0 0.3515625,-0.2008929 0,-0.2008928 -0.1841518,-0.2008928 -0.3515625,-0.2008928 h -5.390625 c -0.1674108,0 -0.35156254,0 -0.35156254,0.2008928 0,0.2008929 0.18415174,0.2008929 0.35156254,0.2008929 z m 0,0"
       style="fill:#000000;fill-opacity:1;fill-rule:nonzero;stroke:none"
       aria-label="−"
       transform="matrix(0.93333333,0,0,0.93333333,2805.8693,284.424)" />
    <g
       id="g364"
       aria-label="V&#10;S"
       transform="matrix(0.93333333,0,0,0.93333333,2802.4533,256.764)">
      <path
         id="path365"
         d="m 7.5667411,-5.9580804 c 0.1506696,-0.2176339 0.2678571,-0.4017857 0.954241,-0.4017857 0.1171875,0 0.3013393,0 0.3013393,-0.2845982 0,-0.066964 -0.050223,-0.1841518 -0.1841518,-0.1841518 -0.2845982,0 -0.6026785,0.033482 -0.9040178,0.033482 -0.3683036,0 -0.7533482,-0.033482 -1.1049107,-0.033482 -0.066964,0 -0.2678572,0 -0.2678572,0.2845982 0,0.1841518 0.1674107,0.1841518 0.2678572,0.1841518 0.050223,0 0.3348214,0 0.5524553,0.1004465 l -3.28125,4.7712053 -0.8872768,-4.6540178 c 0,-0.033482 -0.016741,-0.1171875 -0.016741,-0.1339286 0,-0.083705 0.5357143,-0.083705 0.6026785,-0.083705 0.217634,0 0.3850447,0 0.3850447,-0.2845982 0,-0.1339286 -0.1004464,-0.1841518 -0.2176339,-0.1841518 -0.2511161,0 -0.5022322,0.016741 -0.7533483,0.016741 -0.251116,0 -0.485491,0.016741 -0.7366071,0.016741 -0.2176339,0 -0.4520089,-0.016741 -0.6863839,-0.016741 -0.217634,0 -0.452009,-0.016741 -0.65290181,-0.016741 -0.0837054,0 -0.28459822,0 -0.28459822,0.2845982 0,0.1841518 0.16741072,0.1841518 0.36830353,0.1841518 0.1339286,0 0.2511161,0 0.3850447,0 0.1171875,0.016741 0.1339286,0.033482 0.1506696,0.2008929 l 1.1383929,6.04352677 c 0.050223,0.28459822 0.1674107,0.28459822 0.3515625,0.28459822 0.2845982,0 0.3348214,-0.0669643 0.4520089,-0.25111608 z m 0,0"
         style="fill:#000000;fill-opacity:1;fill-rule:nonzero;stroke:none" />
      <path
         id="path366"
         d="m 14.254799,-3.3255469 c 0,-0.033482 -0.01674,-0.083705 -0.08371,-0.083705 -0.05022,0 -0.05022,0 -0.15067,0.1004464 l -0.334821,0.3850446 c -0.267857,-0.3683035 -0.703125,-0.485491 -1.138393,-0.485491 -0.970982,0 -1.858259,0.7868303 -1.858259,1.5904018 0,0.1171875 0.03348,0.3850446 0.234375,0.6529017 0.234375,0.26785718 0.502232,0.33482147 0.970982,0.45200897 0.133929,0.0334821 0.485491,0.10044643 0.602679,0.13392857 0.217634,0.0502232 0.63616,0.21763393 0.63616,0.73660714 0,0.56919643 -0.585937,1.22209822 -1.389509,1.22209822 -0.602678,0 -1.356026,-0.2176339 -1.356026,-0.98772322 0,-0.0669643 0.01674,-0.21763393 0.05022,-0.3515625 0,-0.01674107 0,-0.03348214 0,-0.03348214 0,-0.10044643 -0.08371,-0.10044643 -0.100447,-0.10044643 -0.100446,0 -0.117187,0.01674107 -0.133928,0.15066964 L 9.8518973,1.4456585 c -0.016741,0.033482 -0.033482,0.066964 -0.033482,0.1004464 0,0.050223 0.033482,0.083705 0.1004464,0.083705 0.050223,0 0.050223,0 0.1339283,-0.083705 0.08371,-0.1004464 0.267857,-0.3180803 0.334822,-0.4017857 0.385044,0.4017857 0.920759,0.4854911 1.339285,0.4854911 1.054688,0 1.908482,-0.90401789 1.908482,-1.72433039 0,-0.30133928 -0.133928,-0.5859375 -0.284598,-0.75334821 -0.234375,-0.2511161 -0.351562,-0.2678571 -1.238839,-0.4854911 -0.15067,-0.033482 -0.385045,-0.083705 -0.452009,-0.1171875 -0.167411,-0.050223 -0.46875,-0.234375 -0.46875,-0.6361607 0,-0.5357143 0.636161,-1.1049107 1.356027,-1.1049107 0.753348,0 1.121652,0.4352679 1.121652,1.0881696 0,0.1004465 -0.03348,0.2511161 -0.03348,0.3180804 0,0.1004464 0.08371,0.1004464 0.117188,0.1004464 0.100446,0 0.117187,-0.033482 0.133929,-0.1506696 z m 0,0"
         style="fill:#000000;fill-opacity:1;fill-rule:nonzero;stroke:none" />
    </g>
    <path
       id="path367"
       d="m 4.0685045,-2.2933147 h 2.7790178 c 0.1506697,0 0.3348215,0 0.3348215,-0.2008929 0,-0.2008928 -0.1841518,-0.2008928 -0.3348215,-0.2008928 H 4.0685045 v -2.7790179 c 0,-0.1506696 0,-0.3348214 -0.2008929,-0.3348214 -0.1841518,0 -0.1841518,0.1841518 -0.1841518,0.3348214 v 2.7790179 H 0.88770089 c -0.13392857,0 -0.33482143,0 -0.33482143,0.2008928 0,0.2008929 0.20089286,0.2008929 0.33482143,0.2008929 H 3.6834598 v 2.7957589 c 0,0.13392857 0,0.31808035 0.1841518,0.31808035 0.2008929,0 0.2008929,-0.18415178 0.2008929,-0.31808035 z m 0,0"
       style="fill:#000000;fill-opacity:1;fill-rule:nonzero;stroke:none"
       aria-label="+"
       transform="matrix(0.93333333,0,0,0.93333333,3017.5387,228.76933)" />
    <path
       id="path368"
       d="m 6.5629241,-2.2916183 c 0.1674107,0 0.3515625,0 0.3515625,-0.2008929 0,-0.2008928 -0.1841518,-0.2008928 -0.3515625,-0.2008928 h -5.390625 c -0.1674107,0 -0.35156249,0 -0.35156249,0.2008928 0,0.2008929 0.18415179,0.2008929 0.35156249,0.2008929 z m 0,0"
       style="fill:#000000;fill-opacity:1;fill-rule:nonzero;stroke:none"
       aria-label="−"
       transform="matrix(0.93333333,0,0,0.93333333,3017.5387,284.424)" />
    <g
       id="g368"
       aria-label="V&#10;R"
       transform="matrix(0.93333333,0,0,0.93333333,3013.7653,256.764)">
      <path
         id="path369"
         d="m 7.5672768,-5.9580804 c 0.1506696,-0.2176339 0.2678571,-0.4017857 0.9542411,-0.4017857 0.1171875,0 0.3013392,0 0.3013392,-0.2845982 0,-0.066964 -0.050223,-0.1841518 -0.1841517,-0.1841518 -0.2845983,0 -0.6026786,0.033482 -0.9040179,0.033482 -0.3683036,0 -0.7533482,-0.033482 -1.1049107,-0.033482 -0.066964,0 -0.2678572,0 -0.2678572,0.2845982 0,0.1841518 0.1674108,0.1841518 0.2678572,0.1841518 0.050223,0 0.3348214,0 0.5524553,0.1004465 l -3.28125,4.7712053 -0.8872767,-4.6540178 c 0,-0.033482 -0.016741,-0.1171875 -0.016741,-0.1339286 0,-0.083705 0.5357143,-0.083705 0.6026786,-0.083705 0.2176339,0 0.3850446,0 0.3850446,-0.2845982 0,-0.1339286 -0.1004464,-0.1841518 -0.2176339,-0.1841518 -0.2511161,0 -0.5022322,0.016741 -0.7533482,0.016741 -0.2511161,0 -0.4854911,0.016741 -0.7366072,0.016741 -0.2176339,0 -0.4520089,-0.016741 -0.6863839,-0.016741 -0.2176339,0 -0.4520089,-0.016741 -0.6529018,-0.016741 -0.0837054,0 -0.28459821,0 -0.28459821,0.2845982 0,0.1841518 0.16741071,0.1841518 0.36830361,0.1841518 0.1339285,0 0.251116,0 0.3850446,0 0.1171875,0.016741 0.1339286,0.033482 0.1506696,0.2008929 l 1.1383929,6.04352677 c 0.050223,0.28459822 0.1674107,0.28459822 0.3515625,0.28459822 0.2845982,0 0.3348214,-0.0669643 0.4520089,-0.25111608 z m 0,0"
         style="fill:#000000;fill-opacity:1;fill-rule:nonzero;stroke:none" />
      <path
         id="path370"
         d="m 12.179442,-2.7898326 c 0.05022,-0.1841518 0.06696,-0.2176339 0.217634,-0.234375 h 0.452009 c 0.652902,0 1.456473,0 1.456473,0.7198661 0,0.2845982 -0.133929,0.7366071 -0.46875,0.9877232 -0.284598,0.2176339 -0.719866,0.33482143 -1.205357,0.33482143 h -0.887277 z m 1.272321,1.90848215 c 0.820313,-0.18415175 1.573661,-0.68638395 1.573661,-1.32254465 0,-0.5859375 -0.719866,-1.0714286 -1.72433,-1.0714286 h -2.142857 c -0.133929,0 -0.234375,0 -0.234375,0.1506697 0,0.1004464 0.08371,0.1004464 0.234375,0.1004464 0,0 0.133928,0 0.251116,0.016741 0.150669,0.016741 0.16741,0.033482 0.16741,0.1004464 0,0.016741 0,0.050223 -0.03348,0.1506697 l -0.920759,3.69977674 c -0.06696,0.25111606 -0.06696,0.30133926 -0.619419,0.30133926 -0.1171878,0 -0.2008932,0 -0.2008932,0.1506697 0,0.066964 0.050223,0.1004464 0.1004465,0.1004464 0.1339287,0 0.3013397,-0.016741 0.4352677,-0.016741 0.133929,0 0.334822,-0.016741 0.46875,-0.016741 0.133929,0 0.301339,0.016741 0.435268,0.016741 0.15067,0 0.334821,0.016741 0.46875,0.016741 0.03348,0 0.15067,0 0.15067,-0.1506696 0,-0.1004465 -0.06696,-0.1004465 -0.234375,-0.1004465 -0.100447,0 -0.133929,0 -0.267858,-0.016741 -0.150669,-0.016741 -0.150669,-0.033482 -0.150669,-0.1004465 0,-0.016741 0,-0.050223 0.03348,-0.15066962 l 0.435268,-1.77455357 h 0.954241 c 0.602678,0 0.853795,0.30133929 0.853795,0.63616072 0,0.08370535 -0.06696,0.31808035 -0.100447,0.48549107 -0.0837,0.31808035 -0.100446,0.41852678 -0.100446,0.53571428 0,0.55245532 0.502232,0.77008932 1.021205,0.77008932 0.636161,0 0.920759,-0.68638396 0.920759,-0.80357146 0,-0.0167411 -0.01674,-0.10044643 -0.117188,-0.10044643 -0.08371,0 -0.100446,0.0502232 -0.133928,0.1171875 -0.08371,0.31808039 -0.351563,0.60267859 -0.636161,0.60267859 -0.184152,0 -0.31808,-0.083705 -0.31808,-0.45200895 0,-0.18415178 0.03348,-0.55245535 0.06696,-0.73660714 0.03348,-0.18415178 0.03348,-0.25111607 0.03348,-0.31808036 0,-0.08370535 0,-0.31808035 -0.200893,-0.51897321 -0.133928,-0.15066964 -0.31808,-0.234375 -0.46875,-0.30133929 z m 0,0"
         style="fill:#000000;fill-opacity:1;fill-rule:nonzero;stroke:none" />
    </g>
  </g>
</svg>
