<?xml version="1.0" encoding="UTF-8" standalone="no"?>
<!-- Created with Inkscape (http://www.inkscape.org/) -->

<svg
   version="1.1"
   id="svg1"
   width="241.60608"
   height="81.753113"
   viewBox="0 0 241.60608 81.753113"
   xmlns="http://www.w3.org/2000/svg"
   xmlns:svg="http://www.w3.org/2000/svg">
  <defs
     id="defs1" />
  <g
     id="g1"
     transform="translate(-286.69702,-575.14453)">
    <path
       id="path73"
       d="m 0,0 h 9.92166 m 0,0 h 9.92101 18.65352 m 22.22459,0 h 18.64993 18.65575 m 22.22459,0 h 18.64771 19.84851 m 0,0 h 19.83683"
       style="fill:none;stroke:#000000;stroke-width:0.3985;stroke-linecap:butt;stroke-linejoin:miter;stroke-miterlimit:10;stroke-dasharray:none;stroke-opacity:1"
       transform="matrix(1.3333333,0,0,-1.3333333,288.444,651.12267)" />
    <path
       id="path74"
       d="M 1.11098,0 C 1.11098,0.61357 0.61357,1.11098 0,1.11098 -0.61357,1.11098 -1.11098,0.61357 -1.11098,0 c 0,-0.61357 0.49741,-1.11098 1.11098,-1.11098 0.61357,0 1.11098,0.49741 1.11098,1.11098 z"
       style="fill:#000000;fill-opacity:1;fill-rule:nonzero;stroke:#000000;stroke-width:0.3985;stroke-linecap:butt;stroke-linejoin:miter;stroke-miterlimit:10;stroke-dasharray:none;stroke-opacity:1"
       transform="matrix(1.3333333,0,0,-1.3333333,288.444,651.12267)" />
    <path
       id="path75"
       d="m 38.09628,-0.15938 c 0,2.30124 1.28835,4.16675 2.87761,4.16675 1.58925,0 2.8776,-1.86551 2.8776,-4.16675 0,2.30124 1.28833,4.16675 2.87759,4.16675 1.58926,0 2.87759,-1.86551 2.87759,-4.16675 0,2.30124 1.28835,4.16675 2.8776,4.16675 1.58926,0 2.87761,-1.86551 2.87761,-4.16675 0,2.30124 1.28832,4.16675 2.87759,4.16675 1.58927,0 2.8776,-1.86551 2.8776,-4.16675"
       style="fill:none;stroke:#000000;stroke-width:0.797;stroke-linecap:butt;stroke-linejoin:bevel;stroke-miterlimit:10;stroke-dasharray:none;stroke-opacity:1"
       transform="matrix(1.3333333,0,0,-1.3333333,288.444,651.12267)" />
    <g
       id="g75"
       aria-label="L&#10;lead"
       transform="matrix(0.93333333,0,0,0.93333333,344.28133,640.72133)">
      <path
         id="path76"
         d="m 3.7331696,-6.0253683 c 0.083705,-0.3515625 0.1171875,-0.46875 1.0546875,-0.46875 0.2845983,0 0.3683036,0 0.3683036,-0.1841518 0,-0.1171875 -0.1004464,-0.1171875 -0.1506696,-0.1171875 -0.3348215,0 -1.155134,0.016741 -1.4732143,0.016741 -0.3013393,0 -1.0379464,-0.016741 -1.3392857,-0.016741 -0.066964,0 -0.1841518,0 -0.1841518,0.2008929 0,0.1004464 0.1004464,0.1004464 0.2845982,0.1004464 0.016741,0 0.2008929,0 0.3683036,0.016741 0.1841518,0.016741 0.2845982,0.033482 0.2845982,0.1674107 0,0.033482 -0.016741,0.066964 -0.050223,0.1841518 l -1.3392857,5.35714283 c -0.1004465,0.38504464 -0.1171875,0.46875 -0.9040179,0.46875 -0.16741071,0 -0.26785714,0 -0.26785714,0.18415178 0,0.1171875 0.10044643,0.1171875 0.26785714,0.1171875 h 4.6205357 c 0.234375,0 0.2511161,0 0.3013393,-0.16741071 l 0.7868304,-2.1595982 c 0.050223,-0.1004464 0.050223,-0.1171875 0.050223,-0.1339286 0,-0.033482 -0.033482,-0.1171875 -0.1339286,-0.1171875 -0.083705,0 -0.1004464,0.050223 -0.1674107,0.2176339 -0.3348214,0.920759 -0.7700893,2.05915183 -2.4944197,2.05915183 h -0.9375 c -0.1339285,0 -0.1506696,0 -0.2176339,-0.0167411 -0.1004464,-0.0167411 -0.1339286,-0.0167411 -0.1339286,-0.10044642 0,-0.0334822 0,-0.0502232 0.050223,-0.234375 z m 0,0"
         style="fill:#000000;fill-opacity:1;fill-rule:nonzero;stroke:none" />
      <path
         id="path77"
         d="m 8.7554911,-3.1417187 c 0,-0.016741 0.016741,-0.1004465 0.016741,-0.1171875 0,-0.033482 -0.016741,-0.083705 -0.1004464,-0.083705 -0.1506696,0 -0.7198661,0.050223 -0.9040178,0.066964 -0.050223,0 -0.1506697,0.016741 -0.1506697,0.1506696 0,0.1004465 0.1004464,0.1004465 0.1841518,0.1004465 0.3348214,0 0.3348214,0.050223 0.3348214,0.1004464 0,0.050223 -0.016741,0.1004464 -0.033482,0.1674107 L 7.2487946,0.69198661 c -0.033482,0.0669643 -0.033482,0.13392857 -0.033482,0.21763393 0,0.43526786 0.4017857,0.65290176 0.7366071,0.65290176 0.1674108,0 0.3683036,-0.050223 0.5524554,-0.3683035 0.1506696,-0.25111612 0.2511161,-0.66964291 0.2511161,-0.70312505 0,-0.0837054 -0.1004465,-0.0837054 -0.1171875,-0.0837054 -0.1004465,0 -0.1171875,0.0334821 -0.1339286,0.16741072 C 8.4039286,0.92636161 8.27,1.3616295 7.9686607,1.3616295 c -0.1841518,0 -0.234375,-0.1674107 -0.234375,-0.3348215 0,-0.0837053 0.016741,-0.20089282 0.050223,-0.28459818 z m 2.1428569,3.04687495 c 0.200893,0 0.753348,-0.01674107 1.138393,-0.15066964 0.502232,-0.18415179 0.602679,-0.51897322 0.602679,-0.71986607 0,-0.38504464 -0.385045,-0.61941964 -0.853795,-0.61941964 -0.853795,0 -1.9754464,0.63616071 -1.9754464,1.84151785 0,0.703125 0.4352674,1.30580355 1.2555804,1.30580355 1.171875,0 1.72433,-0.68638391 1.72433,-0.78683034 0,-0.0334821 -0.05022,-0.1171875 -0.117187,-0.1171875 -0.03348,0 -0.05022,0.0167411 -0.100447,0.0669643 C 12.02,1.3616295 11.199688,1.3616295 11.0825,1.3616295 c -0.418527,0 -0.703125,-0.2678572 -0.703125,-0.83705361 0,-0.10044643 0,-0.234375 0.08371,-0.61941964 z m -0.385044,-0.20089286 c 0.301339,-1.00446429 1.071428,-1.08816959 1.272321,-1.08816959 0.301339,0 0.552455,0.1506696 0.552455,0.41852674 0,0.66964285 -1.171875,0.66964285 -1.473214,0.66964285 z m 5.55385,-0.87053569 c -0.15067,-0.234375 -0.385045,-0.4185268 -0.719866,-0.4185268 -0.887277,0 -1.808036,0.98772321 -1.808036,1.99218749 0,0.66964291 0.46875,1.15513391 1.054688,1.15513391 0.385044,0 0.719866,-0.2176339 1.004464,-0.485491 0.133929,0.4185267 0.535714,0.485491 0.719866,0.485491 0.251116,0 0.418527,-0.1506696 0.552455,-0.3683035 0.15067,-0.26785719 0.234375,-0.66964291 0.234375,-0.70312505 0,-0.0837054 -0.08371,-0.0837054 -0.117187,-0.0837054 -0.0837,0 -0.100446,0.0334821 -0.15067,0.21763393 -0.08371,0.33482143 -0.217634,0.73660722 -0.502232,0.73660722 -0.184152,0 -0.234375,-0.1506697 -0.234375,-0.3348215 0,-0.1171875 0.05022,-0.36830358 0.100447,-0.55245536 0.05022,-0.18415179 0.117187,-0.46875 0.150669,-0.61941964 l 0.15067,-0.53571429 c 0.03348,-0.18415179 0.117187,-0.51897321 0.117187,-0.55245531 0,-0.1506696 -0.117187,-0.2176339 -0.234375,-0.2176339 -0.117187,0 -0.284598,0.083705 -0.31808,0.2845982 z m -0.452009,1.79129462 c -0.05022,0.20089286 -0.200893,0.33482143 -0.351562,0.46874998 -0.06696,0.050223 -0.334822,0.2678572 -0.636161,0.2678572 -0.267857,0 -0.518973,-0.1674107 -0.518973,-0.66964289 0,-0.36830357 0.200893,-1.13839286 0.368303,-1.42299107 0.318081,-0.55245534 0.669643,-0.65290174 0.870536,-0.65290174 0.485491,0 0.61942,0.51897316 0.61942,0.60267852 0,0.0334821 -0.01674,0.0837054 -0.01674,0.10044643 z m 5.813337,-3.76674102 c 0.01674,-0.016741 0.03348,-0.1004465 0.03348,-0.1171875 0,-0.033482 -0.03348,-0.083705 -0.117187,-0.083705 -0.133929,0 -0.719866,0.050223 -0.887277,0.066964 -0.06696,0 -0.15067,0.016741 -0.15067,0.1506696 0,0.1004465 0.08371,0.1004465 0.167411,0.1004465 0.334822,0 0.334822,0.050223 0.334822,0.1004464 0,0.050223 0,0.1004464 -0.01674,0.1674107 l -0.401785,1.5904018 c -0.15067,-0.234375 -0.385045,-0.4185268 -0.719866,-0.4185268 -0.887277,0 -1.808036,0.98772321 -1.808036,1.99218749 0,0.66964291 0.46875,1.15513391 1.054687,1.15513391 0.385045,0 0.719867,-0.2176339 1.004465,-0.485491 0.133928,0.4185267 0.535714,0.485491 0.719866,0.485491 0.251116,0 0.418527,-0.1506696 0.552455,-0.3683035 0.15067,-0.26785719 0.234375,-0.66964291 0.234375,-0.70312505 0,-0.0837054 -0.0837,-0.0837054 -0.117187,-0.0837054 -0.08371,0 -0.100447,0.0334821 -0.15067,0.21763393 -0.0837,0.33482143 -0.217634,0.73660722 -0.502232,0.73660722 -0.184152,0 -0.234375,-0.1506697 -0.234375,-0.3348215 0,-0.13392858 0.01674,-0.20089286 0.03348,-0.28459822 z m -1.489955,3.76674102 c -0.05022,0.20089286 -0.200893,0.33482143 -0.351563,0.46874998 -0.06696,0.050223 -0.334821,0.2678572 -0.63616,0.2678572 -0.267858,0 -0.518974,-0.1674107 -0.518974,-0.66964289 0,-0.36830357 0.200893,-1.13839286 0.368304,-1.42299107 0.31808,-0.55245534 0.669643,-0.65290174 0.870536,-0.65290174 0.485491,0 0.619419,0.51897316 0.619419,0.60267852 0,0.0334821 -0.01674,0.0837054 -0.01674,0.10044643 z m 0,0"
         style="fill:#000000;fill-opacity:1;fill-rule:nonzero;stroke:none" />
    </g>
    <path
       id="path78"
       d="m 97.62433,0 2.28371,4.16696 3.77035,-8.33392 3.77039,8.33392 3.77037,-8.33392 3.77037,8.33392 3.77037,-8.33392 L 120.64508,0"
       style="fill:none;stroke:#000000;stroke-width:0.797;stroke-linecap:butt;stroke-linejoin:bevel;stroke-miterlimit:10;stroke-dasharray:none;stroke-opacity:1"
       transform="matrix(1.3333333,0,0,-1.3333333,288.444,651.12267)" />
    <path
       id="path79"
       d="m 3.734442,-6.1090737 c 0.066964,-0.251116 0.083705,-0.3515625 0.2845982,-0.3683035 0.083705,-0.016741 0.4017857,-0.016741 0.6026786,-0.016741 0.703125,0 1.8080357,0 1.8080357,0.9877232 0,0.3348214 -0.1506697,1.0212054 -0.5357143,1.40625 C 5.626183,-3.8322879 5.1072098,-3.5142076 4.203192,-3.5142076 H 3.0815402 Z m 1.4397321,2.7287947 c 1.0044643,-0.2176339 2.1930804,-0.9207589 2.1930804,-1.9252232 0,-0.8537947 -0.9040179,-1.4899554 -2.2098215,-1.4899554 H 2.328192 c -0.2008929,0 -0.3013393,0 -0.3013393,0.2008929 0,0.1004464 0.1004464,0.1004464 0.2845982,0.1004464 0.016741,0 0.2176339,0 0.3850446,0.016741 0.1674108,0.016741 0.2678572,0.033482 0.2678572,0.1674107 0,0.033482 -0.016741,0.066964 -0.050223,0.1841518 L 1.591585,-0.76867197 c -0.1004464,0.38504464 -0.1339285,0.46875 -0.92075891,0.46875 -0.16741071,0 -0.26785714,0 -0.26785714,0.18415178 0,0.1171875 0.13392857,0.1171875 0.15066964,0.1171875 0.26785715,0 0.97098211,-0.03348214 1.25558041,-0.03348214 0.2678571,0 0.9877232,0.03348214 1.2555803,0.03348214 0.083705,0 0.2008929,0 0.2008929,-0.20089286 0,-0.10044642 -0.083705,-0.10044642 -0.2678572,-0.10044642 -0.3850446,0 -0.6529018,0 -0.6529018,-0.18415179 0,-0.0669643 0.016741,-0.1171875 0.033482,-0.16741071 L 3.031317,-3.2965737 h 1.188616 c 0.9040179,0 1.0881697,0.5524554 1.0881697,0.9040179 0,0.1506696 -0.083705,0.46875 -0.1506697,0.6863839 -0.066964,0.2845982 -0.1506696,0.6529018 -0.1506696,0.85379467 0,1.07142857 1.1886161,1.07142857 1.3225446,1.07142857 0.8370536,0 1.1886161,-1.00446429 1.1886161,-1.13839286 0,-0.11718748 -0.1004464,-0.11718748 -0.1171875,-0.11718748 -0.083705,0 -0.1004464,0.0669643 -0.1339286,0.13392855 -0.251116,0.73660715 -0.6696428,0.90401786 -0.9040178,0.90401786 -0.3180804,0 -0.4017857,-0.21763393 -0.4017857,-0.60267857 0,-0.31808036 0.066964,-0.82031254 0.1004464,-1.13839284 0.033482,-0.1339286 0.050223,-0.3348214 0.050223,-0.46875 0,-0.7700893 -0.6696428,-1.0714286 -0.9374998,-1.171875 z m 0,0"
       style="fill:#000000;fill-opacity:1;fill-rule:nonzero;stroke:none"
       aria-label="R"
       transform="matrix(0.93333333,0,0,0.93333333,430.39733,640.72133)" />
    <path
       id="path80"
       d="m 179.6951,0 c 0,0.61357 -0.4974,1.11098 -1.111,1.11098 -0.61358,0 -1.11099,-0.49741 -1.11099,-1.11098 0,-0.61357 0.49741,-1.11098 1.11099,-1.11098 0.6136,0 1.111,0.49741 1.111,1.11098 z"
       style="fill:#000000;fill-opacity:1;fill-rule:nonzero;stroke:#000000;stroke-width:0.3985;stroke-linecap:butt;stroke-linejoin:miter;stroke-miterlimit:10;stroke-dasharray:none;stroke-opacity:1"
       transform="matrix(1.3333333,0,0,-1.3333333,288.444,651.12267)" />
    <path
       id="path81"
       d="m 79.37071,0 0.0029,19.84337 m 0,0 -0.0029,19.84198 26.99001,0.0014 m 5.55603,0 26.98201,-0.0014 0.005,-19.84198 m 0,0 L 138.89876,0"
       style="fill:none;stroke:#000000;stroke-width:0.3985;stroke-linecap:butt;stroke-linejoin:miter;stroke-miterlimit:10;stroke-dasharray:none;stroke-opacity:1"
       transform="matrix(1.3333333,0,0,-1.3333333,288.444,651.12267)" />
    <path
       id="path82"
       d="M 106.3568,48.0193 V 31.3514 m 5.55584,16.6679 V 31.3514"
       style="fill:none;stroke:#000000;stroke-width:0.797;stroke-linecap:butt;stroke-linejoin:miter;stroke-miterlimit:10;stroke-dasharray:none;stroke-opacity:1"
       transform="matrix(1.3333333,0,0,-1.3333333,288.444,651.12267)" />
    <g
       id="g82"
       aria-label="C&#10;parasitic"
       transform="matrix(0.93333333,0,0,0.93333333,415.18,581.69333)">
      <path
         id="path83"
         d="m 7.5666295,-6.9328683 c 0,-0.016741 -0.016741,-0.083705 -0.1004465,-0.083705 -0.033482,0 -0.050223,0 -0.1506696,0.1171875 l -0.703125,0.7533483 C 6.528683,-6.2799665 6.059933,-7.0165737 4.9550223,-7.0165737 c -2.2098214,0 -4.45312498,2.1930804 -4.45312498,4.5033483 0,1.64062495 1.17187498,2.7287946 2.69531248,2.7287946 0.8705357,0 1.623884,-0.40178572 2.1595982,-0.85379465 0.920759,-0.82031245 1.0881697,-1.72433035 1.0881697,-1.75781245 0,-0.1004465 -0.1004464,-0.1004465 -0.1171875,-0.1004465 -0.066964,0 -0.1171875,0.016741 -0.1339286,0.1004465 -0.083705,0.2845982 -0.3180803,1.0044642 -1.0044643,1.57366067 -0.6863839,0.56919643 -1.3225446,0.73660714 -1.8247768,0.73660714 -0.9040178,0 -1.9587053,-0.51897321 -1.9587053,-2.07589281 0,-0.5691965 0.2008928,-2.1763393 1.2053571,-3.3482143 0.6026786,-0.703125 1.5401786,-1.2053572 2.4274554,-1.2053572 1.0212053,0 1.6071428,0.7700893 1.6071428,1.9252232 0,0.4017858 -0.033482,0.4017858 -0.033482,0.5022322 0,0.1004464 0.1171875,0.1004464 0.1506696,0.1004464 0.1339286,0 0.1339286,-0.016741 0.1841518,-0.2008928 z m 0,0"
         style="fill:#000000;fill-opacity:1;fill-rule:nonzero;stroke:none" />
      <path
         id="path84"
         d="m 7.6419643,2.3458705 c -0.050223,0.2008929 -0.050223,0.2511161 -0.3348214,0.2511161 -0.1004465,0 -0.1841518,0 -0.1841518,0.1506697 0,0.066964 0.050223,0.1004464 0.083705,0.1004464 0.1841518,0 0.4185268,-0.033482 0.6026786,-0.033482 0.234375,0 0.5022321,0.033482 0.7366071,0.033482 0.066964,0 0.1339286,-0.016741 0.1339286,-0.1506697 0,-0.1004464 -0.083705,-0.1004464 -0.1674107,-0.1004464 -0.1674107,0 -0.3515625,0 -0.3515625,-0.083705 0,-0.033482 0.050223,-0.217634 0.083705,-0.3180804 0.083705,-0.3683036 0.1841517,-0.7533482 0.251116,-1.0379464 0.083705,0.1339285 0.3013393,0.4017857 0.7198661,0.4017857 0.8537947,0 1.7912947,-0.93750002 1.7912947,-1.97544645 0,-0.82031245 -0.569197,-1.17187495 -1.0379465,-1.17187495 -0.4352678,0 -0.8035714,0.3013392 -0.9877232,0.485491 -0.1339286,-0.3850446 -0.5189732,-0.485491 -0.7198661,-0.485491 -0.2845982,0 -0.4520089,0.1841517 -0.5524553,0.3683035 -0.1506697,0.23437502 -0.2511161,0.65290181 -0.2511161,0.70312502 0,0.0837054 0.083705,0.0837054 0.1171875,0.0837054 0.1004464,0 0.1004464,-0.0167411 0.1506696,-0.20089286 0.1004465,-0.40178576 0.234375,-0.75334826 0.5022322,-0.75334826 0.1841518,0 0.234375,0.1506697 0.234375,0.3348214 0,0.0837054 -0.016741,0.16741079 -0.016741,0.217634 z M 8.9645089,-0.75122768 C 9.3662946,-1.286942 9.7178571,-1.3873884 9.9354911,-1.3873884 c 0.2845979,0 0.5189729,0.2008929 0.5189729,0.66964286 0,0.28459822 -0.150669,1.00446429 -0.368303,1.40625 C 9.91875,1.0233259 9.5671875,1.3581473 9.215625,1.3581473 c -0.5022321,0 -0.6194196,-0.53571426 -0.6194196,-0.60267855 0,-0.0167411 0.016741,-0.0669643 0.016741,-0.10044643 z M 14.175167,-1.1697545 c -0.150669,-0.234375 -0.385044,-0.4185267 -0.719866,-0.4185267 -0.887276,0 -1.808035,0.98772316 -1.808035,1.99218745 0,0.66964285 0.46875,1.15513395 1.054687,1.15513395 0.385045,0 0.719866,-0.2176339 1.004464,-0.4854911 0.133929,0.4185268 0.535715,0.4854911 0.719866,0.4854911 0.251117,0 0.418527,-0.1506697 0.552456,-0.3683036 0.150669,-0.26785714 0.234375,-0.66964285 0.234375,-0.70312499 0,-0.0837054 -0.08371,-0.0837054 -0.117188,-0.0837054 -0.08371,0 -0.100446,0.0334821 -0.150669,0.21763393 -0.08371,0.33482143 -0.217634,0.73660716 -0.502232,0.73660716 -0.184152,0 -0.234375,-0.1506696 -0.234375,-0.3348214 0,-0.11718755 0.05022,-0.36830362 0.100446,-0.5524554 0.05022,-0.18415179 0.117187,-0.46875 0.15067,-0.61941965 l 0.150669,-0.53571428 c 0.03348,-0.18415179 0.117188,-0.51897317 0.117188,-0.55245527 0,-0.1506697 -0.117188,-0.217634 -0.234375,-0.217634 -0.117188,0 -0.284598,0.083705 -0.318081,0.2845982 z m -0.452009,1.79129468 c -0.05022,0.20089286 -0.200892,0.33482143 -0.351562,0.46875002 -0.06696,0.050223 -0.334821,0.2678571 -0.636161,0.2678571 -0.267857,0 -0.518973,-0.1674107 -0.518973,-0.66964284 0,-0.36830357 0.200893,-1.13839285 0.368304,-1.42299107 0.31808,-0.55245539 0.669642,-0.65290179 0.870535,-0.65290179 0.485491,0 0.61942,0.51897322 0.61942,0.60267858 0,0.0334821 -0.01674,0.0837054 -0.01674,0.10044643 z M 17.18856,0.08582589 c 0,-0.05022321 0.167411,-0.66964285 0.184152,-0.703125 0.01674,-0.0669643 0.217634,-0.41852679 0.435268,-0.58593749 0.0837,-0.050223 0.267857,-0.1841518 0.569196,-0.1841518 0.06696,0 0.234375,0 0.385045,0.1004464 -0.234375,0.050223 -0.31808,0.2511161 -0.31808,0.38504468 0,0.15066964 0.133928,0.25111607 0.284598,0.25111607 0.167411,0 0.401786,-0.13392857 0.401786,-0.41852675 0,-0.3683036 -0.385045,-0.5189732 -0.753349,-0.5189732 -0.351562,0 -0.669643,0.1506696 -0.970982,0.5022321 -0.133928,-0.4352679 -0.552455,-0.5022321 -0.719866,-0.5022321 -0.267857,0 -0.435268,0.1674107 -0.552455,0.3515625 -0.167411,0.28459816 -0.251116,0.68638388 -0.251116,0.71986602 0,0.0837054 0.08371,0.0837054 0.117187,0.0837054 0.100447,0 0.100447,-0.0167411 0.15067,-0.20089286 0.100446,-0.43526786 0.234375,-0.75334826 0.502232,-0.75334826 0.184152,0 0.234375,0.1506697 0.234375,0.3348214 0,0.13392865 -0.06696,0.40178579 -0.117188,0.58593758 -0.05022,0.18415178 -0.117187,0.46875 -0.150669,0.61941964 L 16.40173,1.056808 c -0.03348,0.083705 -0.06696,0.2678572 -0.06696,0.2845983 0,0.1506696 0.117187,0.2176339 0.234375,0.2176339 0.100446,0 0.234375,-0.066964 0.301339,-0.2008929 0.01674,-0.033482 0.0837,-0.3515625 0.133928,-0.51897319 z m 5.223215,-1.25558039 c -0.15067,-0.234375 -0.385045,-0.4185267 -0.719867,-0.4185267 -0.887276,0 -1.808035,0.98772316 -1.808035,1.99218745 0,0.66964285 0.46875,1.15513395 1.054687,1.15513395 0.385045,0 0.719866,-0.2176339 1.004465,-0.4854911 0.133928,0.4185268 0.535714,0.4854911 0.719866,0.4854911 0.251116,0 0.418526,-0.1506697 0.552455,-0.3683036 0.15067,-0.26785714 0.234375,-0.66964285 0.234375,-0.70312499 0,-0.0837054 -0.08371,-0.0837054 -0.117188,-0.0837054 -0.08371,0 -0.100446,0.0334821 -0.150669,0.21763393 -0.08371,0.33482143 -0.217634,0.73660716 -0.502232,0.73660716 -0.184152,0 -0.234375,-0.1506696 -0.234375,-0.3348214 0,-0.11718755 0.05022,-0.36830362 0.100446,-0.5524554 0.05022,-0.18415179 0.117188,-0.46875 0.15067,-0.61941965 l 0.150669,-0.53571428 c 0.03348,-0.18415179 0.117188,-0.51897317 0.117188,-0.55245527 0,-0.1506697 -0.117188,-0.217634 -0.234375,-0.217634 -0.117188,0 -0.284598,0.083705 -0.31808,0.2845982 z m -0.452009,1.79129468 c -0.05022,0.20089286 -0.200893,0.33482143 -0.351563,0.46875002 -0.06696,0.050223 -0.334821,0.2678571 -0.636161,0.2678571 -0.267857,0 -0.518973,-0.1674107 -0.518973,-0.66964284 0,-0.36830357 0.200893,-1.13839285 0.368304,-1.42299107 0.31808,-0.55245539 0.669643,-0.65290179 0.870535,-0.65290179 0.485492,0 0.61942,0.51897322 0.61942,0.60267858 0,0.0334821 -0.01674,0.0837054 -0.01674,0.10044643 z m 4.838169,-1.75781248 c -0.184152,0.050223 -0.301339,0.18415176 -0.301339,0.33482141 0,0.15066964 0.15067,0.21763393 0.234375,0.21763393 0.06696,0 0.334821,-0.0334821 0.334821,-0.40178572 0,-0.45200892 -0.502232,-0.60267852 -0.920759,-0.60267852 -1.10491,0 -1.289062,0.80357138 -1.289062,1.02120531 0,0.25111607 0.15067,0.41852678 0.234375,0.50223214 0.184152,0.15066964 0.31808,0.16741071 0.803571,0.25111607 0.133929,0.0334821 0.585938,0.1171875 0.585938,0.46875 0,0.1171875 -0.08371,0.38504468 -0.368304,0.55245538 -0.267857,0.1506696 -0.619419,0.1506696 -0.703125,0.1506696 -0.284598,0 -0.669643,-0.050223 -0.837053,-0.2845982 0.234375,-0.033482 0.385044,-0.20089285 0.385044,-0.40178571 0,-0.16741071 -0.117187,-0.25111607 -0.267857,-0.25111607 -0.200893,0 -0.401785,0.15066964 -0.401785,0.46875 0,0.41852678 0.435267,0.66964288 1.121651,0.66964288 1.272322,0 1.523438,-0.87053574 1.523438,-1.15513395 0,-0.63616071 -0.703125,-0.77008929 -0.970982,-0.80357143 -0.06697,-0.0167411 -0.234375,-0.0502232 -0.284599,-0.0669643 -0.251116,-0.0502232 -0.385044,-0.18415179 -0.385044,-0.3515625 0,-0.15066965 0.133928,-0.33482142 0.284598,-0.43526782 0.184152,-0.1171875 0.435268,-0.1339286 0.552455,-0.1339286 0.15067,0 0.518974,0.016741 0.669643,0.2511161 z m 3.009208,-1.7410714 c 0,-0.1004465 -0.0837,-0.2511161 -0.284598,-0.2511161 -0.184152,0 -0.385045,0.1674107 -0.385045,0.3683036 0,0.1339285 0.08371,0.2678571 0.284598,0.2678571 0.200893,0 0.385045,-0.1841518 0.385045,-0.3850446 z m -1.422991,3.54910709 c -0.03348,0.10044643 -0.06696,0.18415179 -0.06696,0.30133929 0,0.31808032 0.284598,0.58593752 0.669642,0.58593752 0.703125,0 1.004465,-0.95424109 1.004465,-1.07142859 0,-0.0837054 -0.08371,-0.0837054 -0.117188,-0.0837054 -0.100446,0 -0.100446,0.0334821 -0.133928,0.1171875 -0.15067,0.55245539 -0.46875,0.83705359 -0.736608,0.83705359 -0.133928,0 -0.16741,-0.083705 -0.16741,-0.234375 0,-0.16741073 0.05022,-0.3013393 0.100446,-0.45200895 0.08371,-0.18415178 0.15067,-0.36830357 0.234375,-0.55245535 0.05022,-0.16741072 0.318081,-0.80357143 0.334822,-0.88727679 0.01674,-0.0669643 0.05022,-0.15066964 0.05022,-0.21763393 0,-0.33482138 -0.284598,-0.60267848 -0.669643,-0.60267848 -0.686384,0 -1.004464,0.95424098 -1.004464,1.07142848 0,0.0837054 0.0837,0.0837054 0.117187,0.0837054 0.100447,0 0.100447,-0.0334821 0.117188,-0.10044643 0.184151,-0.60267855 0.485491,-0.85379465 0.753348,-0.85379465 0.100446,0 0.167411,0.050223 0.167411,0.234375 0,0.16741072 -0.03348,0.26785715 -0.217634,0.70312501 z m 3.703962,-1.94196429 h 0.703125 c 0.133928,0 0.217634,0 0.217634,-0.1506696 0,-0.1004465 -0.08371,-0.1004465 -0.200893,-0.1004465 h -0.669643 l 0.267857,-1.0212053 c 0,-0.050223 0.01674,-0.083705 0.01674,-0.1004464 0,-0.1339286 -0.100446,-0.234375 -0.234375,-0.234375 -0.184152,0 -0.284598,0.1171875 -0.334821,0.3013392 -0.05022,0.1841518 0.05022,-0.1506696 -0.267857,1.0546875 h -0.703125 c -0.133929,0 -0.217634,0 -0.217634,0.1506697 0,0.1004464 0.0837,0.1004464 0.200893,0.1004464 h 0.669642 l -0.418526,1.65736608 c -0.03348,0.16741071 -0.100447,0.41852678 -0.100447,0.51897321 0,0.40178571 0.351563,0.65290181 0.736607,0.65290181 0.786831,0 1.222099,-0.97098216 1.222099,-1.07142859 0,-0.0837054 -0.08371,-0.0837054 -0.117188,-0.0837054 -0.08371,0 -0.08371,0.0167411 -0.133928,0.13392857 -0.200893,0.43526786 -0.552456,0.82031252 -0.9375,0.82031252 -0.15067,0 -0.251117,-0.083705 -0.251117,-0.3348214 0,-0.0669643 0.03348,-0.21763398 0.05022,-0.28459826 z m 3.549107,-1.6071428 c 0,-0.1004465 -0.0837,-0.2511161 -0.284598,-0.2511161 -0.184152,0 -0.385045,0.1674107 -0.385045,0.3683036 0,0.1339285 0.0837,0.2678571 0.284598,0.2678571 0.200893,0 0.385045,-0.1841518 0.385045,-0.3850446 z M 34.21423,0.67176339 c -0.03348,0.10044643 -0.06696,0.18415179 -0.06696,0.30133929 0,0.31808032 0.284598,0.58593752 0.669642,0.58593752 0.703125,0 1.004465,-0.95424109 1.004465,-1.07142859 0,-0.0837054 -0.08371,-0.0837054 -0.117188,-0.0837054 -0.100446,0 -0.100446,0.0334821 -0.133928,0.1171875 -0.15067,0.55245539 -0.46875,0.83705359 -0.736607,0.83705359 -0.133929,0 -0.167411,-0.083705 -0.167411,-0.234375 0,-0.16741073 0.05022,-0.3013393 0.100446,-0.45200895 0.08371,-0.18415178 0.15067,-0.36830357 0.234375,-0.55245535 0.05022,-0.16741072 0.318081,-0.80357143 0.334822,-0.88727679 0.01674,-0.0669643 0.05022,-0.15066964 0.05022,-0.21763393 0,-0.33482138 -0.284598,-0.60267848 -0.669643,-0.60267848 -0.686384,0 -1.004464,0.95424098 -1.004464,1.07142848 0,0.0837054 0.08371,0.0837054 0.117187,0.0837054 0.100447,0 0.100447,-0.0334821 0.117188,-0.10044643 0.184152,-0.60267855 0.485491,-0.85379465 0.753348,-0.85379465 0.100446,0 0.167411,0.050223 0.167411,0.234375 0,0.16741072 -0.03348,0.26785715 -0.217634,0.70312501 z m 5.043248,-1.85825889 c -0.251116,0.050223 -0.368304,0.23437496 -0.368304,0.40178568 0,0.18415178 0.15067,0.25111607 0.284598,0.25111607 0.15067,0 0.385045,-0.1171875 0.385045,-0.45200893 0,-0.46875002 -0.535714,-0.60267852 -0.920759,-0.60267852 -1.037946,0 -2.008929,0.97098209 -2.008929,1.94196424 0,0.5859375 0.418527,1.20535716 1.289063,1.20535716 1.171875,0 1.72433,-0.68638395 1.72433,-0.78683038 0,-0.0334821 -0.05022,-0.1171875 -0.117187,-0.1171875 -0.03348,0 -0.05022,0.0167411 -0.100447,0.0669643 -0.552455,0.63616068 -1.372767,0.63616068 -1.489955,0.63616068 -0.502232,0 -0.736607,-0.3348214 -0.736607,-0.77008925 0,-0.20089286 0.100446,-0.95424108 0.46875,-1.43973215 0.267857,-0.3515625 0.636161,-0.5357143 0.970982,-0.5357143 0.100446,0 0.435268,0.016741 0.61942,0.2008929 z m 0,0"
         style="fill:#000000;fill-opacity:1;fill-rule:nonzero;stroke:none" />
    </g>
  </g>
</svg>
