<?xml version="1.0" encoding="UTF-8" standalone="no"?>
<!-- Created with Inkscape (http://www.inkscape.org/) -->

<svg
   version="1.1"
   id="svg1"
   width="241.60608"
   height="81.753052"
   viewBox="0 0 241.60608 81.753052"
   xmlns="http://www.w3.org/2000/svg"
   xmlns:svg="http://www.w3.org/2000/svg">
  <defs
     id="defs1" />
  <g
     id="g1"
     transform="translate(-286.69702,-781.08594)">
    <path
       id="path96"
       d="m 0,0 h 24.80421 m 0,0 h 24.80246 8.73291 m 22.2246,0 h 8.72786 8.73439 m 22.22461,0 h 8.72636 24.80899 m 0,0 h 24.79771"
       style="fill:none;stroke:#000000;stroke-width:0.3985;stroke-linecap:butt;stroke-linejoin:miter;stroke-miterlimit:10;stroke-dasharray:none;stroke-opacity:1"
       transform="matrix(1.3333333,0,0,-1.3333333,288.444,857.064)" />
    <path
       id="path97"
       d="M 1.11098,0 C 1.11098,0.61357 0.61357,1.11098 0,1.11098 -0.61357,1.11098 -1.11098,0.61357 -1.11098,0 c 0,-0.61357 0.49741,-1.11098 1.11098,-1.11098 0.61357,0 1.11098,0.49741 1.11098,1.11098 z"
       style="fill:#000000;fill-opacity:1;fill-rule:nonzero;stroke:#000000;stroke-width:0.3985;stroke-linecap:butt;stroke-linejoin:miter;stroke-miterlimit:10;stroke-dasharray:none;stroke-opacity:1"
       transform="matrix(1.3333333,0,0,-1.3333333,288.444,857.064)" />
    <path
       id="path98"
       d="m 57.93896,-0.15938 c 0,2.30124 1.28834,4.16675 2.8776,4.16675 1.58926,0 2.87759,-1.86551 2.87759,-4.16675 0,2.30124 1.28835,4.16675 2.8776,4.16675 1.58926,0 2.87761,-1.86551 2.87761,-4.16675 0,2.30124 1.28833,4.16675 2.87759,4.16675 1.58926,0 2.87759,-1.86551 2.87759,-4.16675 0,2.30124 1.28833,4.16675 2.8776,4.16675 1.58926,0 2.87759,-1.86551 2.87759,-4.16675"
       style="fill:none;stroke:#000000;stroke-width:0.797;stroke-linecap:butt;stroke-linejoin:bevel;stroke-miterlimit:10;stroke-dasharray:none;stroke-opacity:1"
       transform="matrix(1.3333333,0,0,-1.3333333,288.444,857.064)" />
    <path
       id="path99"
       d="m 3.7334152,-6.0252902 c 0.083705,-0.3515625 0.1171875,-0.46875 1.0546875,-0.46875 0.2845982,0 0.3683036,0 0.3683036,-0.1841518 0,-0.1171875 -0.1004465,-0.1171875 -0.1506697,-0.1171875 -0.3348214,0 -1.1551339,0.016741 -1.4732143,0.016741 -0.3013393,0 -1.0379464,-0.016741 -1.3392857,-0.016741 -0.066964,0 -0.1841518,0 -0.1841518,0.2008929 0,0.1004464 0.1004465,0.1004464 0.2845982,0.1004464 0.016741,0 0.2008929,0 0.3683036,0.016741 0.1841518,0.016741 0.2845982,0.033482 0.2845982,0.1674107 0,0.033482 -0.016741,0.066964 -0.050223,0.1841518 l -1.3392857,5.35714285 c -0.1004464,0.38504464 -0.1171875,0.46875 -0.90401786,0.46875 -0.16741072,0 -0.26785715,0 -0.26785715,0.18415179 0,0.1171875 0.10044643,0.1171875 0.26785715,0.1171875 H 5.2735938 c 0.234375,0 0.251116,0 0.3013392,-0.16741072 L 6.3617634,-2.3255134 c 0.050223,-0.1004464 0.050223,-0.1171875 0.050223,-0.1339286 0,-0.033482 -0.033482,-0.1171875 -0.1339286,-0.1171875 -0.083705,0 -0.1004464,0.050223 -0.1674107,0.217634 -0.3348214,0.9207589 -0.7700893,2.05915175 -2.4944196,2.05915175 h -0.9375 c -0.1339286,0 -0.1506697,0 -0.2176339,-0.0167411 -0.1004465,-0.0167411 -0.1339286,-0.0167411 -0.1339286,-0.10044643 0,-0.0334821 0,-0.0502232 0.050223,-0.234375 z m 0,0"
       style="fill:#000000;fill-opacity:1;fill-rule:nonzero;stroke:none"
       aria-label="L"
       transform="matrix(0.93333333,0,0,0.93333333,377.88267,846.66267)" />
    <path
       id="path100"
       d="m 97.62431,0 2.28371,4.16696 3.77036,-8.33392 3.77038,8.33392 3.77037,-8.33392 3.77037,8.33392 3.77037,-8.33392 L 120.64507,0"
       style="fill:none;stroke:#000000;stroke-width:0.797;stroke-linecap:butt;stroke-linejoin:bevel;stroke-miterlimit:10;stroke-dasharray:none;stroke-opacity:1"
       transform="matrix(1.3333333,0,0,-1.3333333,288.444,857.064)" />
    <g
       id="g100"
       aria-label="R&#10;series"
       transform="matrix(0.93333333,0,0,0.93333333,420.02133,846.66267)">
      <path
         id="path101"
         d="m 3.7313281,-6.1089955 c 0.066964,-0.2511161 0.083705,-0.3515625 0.2845982,-0.3683036 0.083705,-0.016741 0.4017858,-0.016741 0.6026786,-0.016741 0.703125,0 1.8080357,0 1.8080357,0.9877232 0,0.3348215 -0.1506696,1.0212054 -0.5357143,1.40625 -0.2678571,0.2678572 -0.7868303,0.5859375 -1.6908482,0.5859375 H 3.0784263 Z m 1.4397322,2.7287946 c 1.0044643,-0.2176339 2.1930803,-0.9207589 2.1930803,-1.9252232 0,-0.8537946 -0.9040178,-1.4899554 -2.2098214,-1.4899554 H 2.3250781 c -0.2008928,0 -0.3013393,0 -0.3013393,0.2008929 0,0.1004464 0.1004465,0.1004464 0.2845983,0.1004464 0.016741,0 0.2176339,0 0.3850446,0.016741 0.1674107,0.016741 0.2678571,0.033482 0.2678571,0.1674107 0,0.033482 -0.016741,0.066964 -0.050223,0.1841518 L 1.588471,-0.76859375 c -0.1004464,0.38504464 -0.1339286,0.46875 -0.92075895,0.46875 -0.16741071,0 -0.26785714,0 -0.26785714,0.18415179 0,0.1171875 0.13392857,0.1171875 0.15066964,0.1171875 0.26785715,0 0.97098215,-0.03348215 1.25558035,-0.03348215 0.2678572,0 0.9877232,0.03348215 1.2555804,0.03348215 0.083705,0 0.2008928,0 0.2008928,-0.20089286 0,-0.10044643 -0.083705,-0.10044643 -0.2678571,-0.10044643 -0.3850447,0 -0.6529018,0 -0.6529018,-0.18415179 0,-0.0669643 0.016741,-0.1171875 0.033482,-0.16741071 L 3.0282031,-3.2964955 h 1.1886161 c 0.9040179,0 1.0881696,0.5524553 1.0881696,0.9040178 0,0.1506697 -0.083705,0.46875 -0.1506696,0.686384 -0.066964,0.2845982 -0.1506696,0.6529017 -0.1506696,0.85379459 0,1.07142857 1.188616,1.07142857 1.3225446,1.07142857 0.8370536,0 1.1886161,-1.00446428 1.1886161,-1.13839285 0,-0.11718751 -0.1004465,-0.11718751 -0.1171875,-0.11718751 -0.083705,0 -0.1004465,0.0669643 -0.1339286,0.13392858 -0.2511161,0.73660714 -0.6696429,0.90401786 -0.9040179,0.90401786 -0.3180803,0 -0.4017857,-0.21763393 -0.4017857,-0.60267858 0,-0.31808035 0.066964,-0.82031246 0.1004465,-1.13839286 0.033482,-0.1339286 0.050223,-0.3348214 0.050223,-0.46875 0,-0.7700893 -0.6696429,-1.0714286 -0.9374998,-1.171875 z m 0,0"
         style="fill:#000000;fill-opacity:1;fill-rule:nonzero;stroke:none" />
      <path
         id="path102"
         d="m 10.578426,-1.1327121 c -0.184151,0.050223 -0.301339,0.18415183 -0.301339,0.33482148 0,0.15066964 0.15067,0.21763392 0.234375,0.21763392 0.06696,0 0.334821,-0.0334821 0.334821,-0.40178571 0,-0.45200889 -0.502232,-0.60267859 -0.9207584,-0.60267859 -1.1049108,0 -1.2890625,0.80357145 -1.2890625,1.02120538 0,0.25111607 0.1506696,0.41852678 0.234375,0.50223214 0.1841517,0.15066964 0.3180803,0.16741071 0.8035714,0.25111607 0.1339286,0.0334821 0.5859375,0.1171875 0.5859375,0.46875 0,0.1171875 -0.08371,0.38504461 -0.3683036,0.55245531 -0.2678571,0.1506697 -0.6194196,0.1506697 -0.703125,0.1506697 -0.2845982,0 -0.6696428,-0.050223 -0.8370536,-0.2845982 0.234375,-0.033482 0.3850447,-0.20089288 0.3850447,-0.40178574 0,-0.16741071 -0.1171875,-0.25111607 -0.2678572,-0.25111607 -0.2008928,0 -0.4017857,0.15066964 -0.4017857,0.46875 0,0.41852681 0.4352679,0.66964281 1.1216518,0.66964281 1.2723216,0 1.5234376,-0.87053567 1.5234376,-1.15513388 0,-0.63616072 -0.703125,-0.77008929 -0.9709822,-0.80357143 -0.066964,-0.0167411 -0.234375,-0.0502232 -0.2845982,-0.0669643 -0.2511161,-0.0502232 -0.3850447,-0.18415178 -0.3850447,-0.3515625 0,-0.15066964 0.1339286,-0.33482139 0.2845982,-0.43526789 0.1841518,-0.1171875 0.4352679,-0.1339285 0.5524554,-0.1339285 0.1506695,0 0.5189735,0.016741 0.6696425,0.251116 z m 2.301898,1.03794648 c 0.200893,0 0.753348,-0.01674108 1.138393,-0.15066965 0.502232,-0.18415178 0.602678,-0.51897321 0.602678,-0.71986607 0,-0.38504466 -0.385045,-0.61941966 -0.853795,-0.61941966 -0.853794,0 -1.975446,0.63616073 -1.975446,1.84151788 0,0.703125 0.435268,1.30580352 1.25558,1.30580352 1.171875,0 1.724331,-0.68638388 1.724331,-0.78683031 0,-0.0334821 -0.05022,-0.1171875 -0.117188,-0.1171875 -0.03348,0 -0.05022,0.0167411 -0.100446,0.0669643 -0.552456,0.63616071 -1.372768,0.63616071 -1.489956,0.63616071 -0.418526,0 -0.703125,-0.2678572 -0.703125,-0.83705357 0,-0.10044643 0,-0.234375 0.08371,-0.61941964 z m -0.385045,-0.20089286 c 0.301339,-1.00446432 1.071429,-1.08816962 1.272321,-1.08816962 0.30134,0 0.552456,0.1506696 0.552456,0.41852676 0,0.66964286 -1.171875,0.66964286 -1.473214,0.66964286 z m 4.252232,0.38504464 c 0,-0.05022321 0.167411,-0.66964286 0.184152,-0.703125 0.01674,-0.0669643 0.217634,-0.41852676 0.435268,-0.58593746 0.0837,-0.050223 0.267857,-0.1841518 0.569196,-0.1841518 0.06696,0 0.234375,0 0.385045,0.1004464 -0.234375,0.050223 -0.31808,0.2511161 -0.31808,0.38504465 0,0.15066964 0.133928,0.25111607 0.284598,0.25111607 0.16741,0 0.401785,-0.13392857 0.401785,-0.41852682 0,-0.3683035 -0.385044,-0.5189732 -0.753348,-0.5189732 -0.351562,0 -0.669643,0.1506697 -0.970982,0.5022322 -0.133928,-0.4352679 -0.552455,-0.5022322 -0.719866,-0.5022322 -0.267857,0 -0.435268,0.1674107 -0.552455,0.3515625 -0.167411,0.28459823 -0.251116,0.68638395 -0.251116,0.71986609 0,0.0837054 0.08371,0.0837054 0.117187,0.0837054 0.100447,0 0.100447,-0.0167411 0.15067,-0.20089286 0.100446,-0.43526793 0.234375,-0.75334823 0.502232,-0.75334823 0.184152,0 0.234375,0.1506696 0.234375,0.3348214 0,0.13392862 -0.06696,0.40178576 -0.117188,0.58593754 -0.05022,0.18415179 -0.117187,0.46875 -0.150669,0.61941965 L 15.960681,1.0603683 c -0.03348,0.083705 -0.06696,0.2678571 -0.06696,0.2845982 0,0.1506697 0.117187,0.2176339 0.234375,0.2176339 0.100446,0 0.234375,-0.066964 0.301339,-0.2008928 0.01674,-0.033482 0.0837,-0.3515625 0.133928,-0.51897322 z m 4.532645,-2.96316966 c 0,-0.1004464 -0.08371,-0.2511161 -0.284598,-0.2511161 -0.184152,0 -0.385045,0.1674108 -0.385045,0.3683036 0,0.1339286 0.08371,0.2678572 0.284599,0.2678572 0.200892,0 0.385044,-0.1841518 0.385044,-0.3850447 z m -1.422991,3.54910716 c -0.03348,0.10044643 -0.06696,0.18415179 -0.06696,0.30133929 0,0.31808035 0.284598,0.58593745 0.669643,0.58593745 0.703125,0 1.004464,-0.95424102 1.004464,-1.07142852 0,-0.0837054 -0.0837,-0.0837054 -0.117187,-0.0837054 -0.100447,0 -0.100447,0.0334821 -0.133929,0.1171875 -0.15067,0.55245542 -0.46875,0.83705362 -0.736607,0.83705362 -0.133929,0 -0.167411,-0.083705 -0.167411,-0.234375 0,-0.16741076 0.05022,-0.30133934 0.100447,-0.45200898 0.0837,-0.18415178 0.150669,-0.36830357 0.234375,-0.55245536 0.05022,-0.16741071 0.31808,-0.80357142 0.334821,-0.88727678 0.01674,-0.0669643 0.05022,-0.15066964 0.05022,-0.21763393 0,-0.33482135 -0.284598,-0.60267855 -0.669643,-0.60267855 -0.686384,0 -1.004464,0.95424105 -1.004464,1.07142855 0,0.0837054 0.08371,0.0837054 0.117188,0.0837054 0.100446,0 0.100446,-0.0334821 0.117187,-0.10044643 0.184152,-0.60267862 0.485491,-0.85379462 0.753348,-0.85379462 0.100447,0 0.167411,0.050223 0.167411,0.234375 0,0.16741069 -0.03348,0.26785712 -0.217634,0.70312498 z m 3.540737,-0.77008928 c 0.200893,0 0.753348,-0.01674108 1.138393,-0.15066965 0.502232,-0.18415178 0.602678,-0.51897321 0.602678,-0.71986607 0,-0.38504466 -0.385044,-0.61941966 -0.853794,-0.61941966 -0.853795,0 -1.975447,0.63616073 -1.975447,1.84151788 0,0.703125 0.435268,1.30580352 1.255581,1.30580352 1.171875,0 1.72433,-0.68638388 1.72433,-0.78683031 0,-0.0334821 -0.05022,-0.1171875 -0.117188,-0.1171875 -0.03348,0 -0.05022,0.0167411 -0.100446,0.0669643 -0.552455,0.63616071 -1.372768,0.63616071 -1.489955,0.63616071 -0.418527,0 -0.703125,-0.2678572 -0.703125,-0.83705357 0,-0.10044643 0,-0.234375 0.08371,-0.61941964 z m -0.385045,-0.20089286 c 0.301339,-1.00446432 1.071429,-1.08816962 1.272322,-1.08816962 0.301339,0 0.552455,0.1506696 0.552455,0.41852676 0,0.66964286 -1.171875,0.66964286 -1.473214,0.66964286 z m 5.620815,-0.83705362 c -0.184152,0.050223 -0.301339,0.18415183 -0.301339,0.33482148 0,0.15066964 0.150669,0.21763392 0.234375,0.21763392 0.06696,0 0.334821,-0.0334821 0.334821,-0.40178571 0,-0.45200889 -0.502232,-0.60267859 -0.920759,-0.60267859 -1.104911,0 -1.289062,0.80357145 -1.289062,1.02120538 0,0.25111607 0.150669,0.41852678 0.234375,0.50223214 0.184151,0.15066964 0.31808,0.16741071 0.803571,0.25111607 0.133929,0.0334821 0.585938,0.1171875 0.585938,0.46875 0,0.1171875 -0.08371,0.38504461 -0.368304,0.55245531 -0.267857,0.1506697 -0.61942,0.1506697 -0.703125,0.1506697 -0.284598,0 -0.669643,-0.050223 -0.837054,-0.2845982 0.234375,-0.033482 0.385045,-0.20089288 0.385045,-0.40178574 0,-0.16741071 -0.117187,-0.25111607 -0.267857,-0.25111607 -0.200893,0 -0.401786,0.15066964 -0.401786,0.46875 0,0.41852681 0.435268,0.66964281 1.121652,0.66964281 1.272321,0 1.523437,-0.87053567 1.523437,-1.15513388 0,-0.63616072 -0.703125,-0.77008929 -0.970982,-0.80357143 -0.06696,-0.0167411 -0.234375,-0.0502232 -0.284598,-0.0669643 -0.251116,-0.0502232 -0.385045,-0.18415178 -0.385045,-0.3515625 0,-0.15066964 0.133929,-0.33482139 0.284599,-0.43526789 0.184151,-0.1171875 0.435268,-0.1339285 0.552455,-0.1339285 0.15067,0 0.518973,0.016741 0.669643,0.251116 z m 0,0"
         style="fill:#000000;fill-opacity:1;fill-rule:nonzero;stroke:none" />
    </g>
    <path
       id="path103"
       d="m 179.6951,0 c 0,0.61357 -0.4974,1.11098 -1.111,1.11098 -0.61358,0 -1.11099,-0.49741 -1.11099,-1.11098 0,-0.61357 0.49741,-1.11098 1.11099,-1.11098 0.6136,0 1.111,0.49741 1.111,1.11098 z"
       style="fill:#000000;fill-opacity:1;fill-rule:nonzero;stroke:#000000;stroke-width:0.3985;stroke-linecap:butt;stroke-linejoin:miter;stroke-miterlimit:10;stroke-dasharray:none;stroke-opacity:1"
       transform="matrix(1.3333333,0,0,-1.3333333,288.444,857.064)" />
    <path
       id="path104"
       d="m 39.68535,0 0.0014,19.84337 m 0,0 -0.0014,19.84198 46.83194,0.0014 m 5.55604,0 46.82543,-0.0014 0.005,-19.84198 m 0,0 L 138.89876,0"
       style="fill:none;stroke:#000000;stroke-width:0.3985;stroke-linecap:butt;stroke-linejoin:miter;stroke-miterlimit:10;stroke-dasharray:none;stroke-opacity:1"
       transform="matrix(1.3333333,0,0,-1.3333333,288.444,857.064)" />
    <path
       id="path105"
       d="M 86.51411,48.0193 V 31.3514 m 5.55584,16.6679 V 31.3514"
       style="fill:none;stroke:#000000;stroke-width:0.797;stroke-linecap:butt;stroke-linejoin:miter;stroke-miterlimit:10;stroke-dasharray:none;stroke-opacity:1"
       transform="matrix(1.3333333,0,0,-1.3333333,288.444,857.064)" />
    <g
       id="g105"
       aria-label="C&#10;parasitic"
       transform="matrix(0.93333333,0,0,0.93333333,388.72267,787.63467)">
      <path
         id="path106"
         d="m 7.5669531,-6.9327902 c 0,-0.016741 -0.016741,-0.083705 -0.1004464,-0.083705 -0.033482,0 -0.050223,0 -0.1506696,0.1171875 l -0.703125,0.7533482 c -0.083705,-0.1339289 -0.5524554,-0.870536 -1.6573661,-0.870536 -2.2098214,0 -4.45312502,2.1930803 -4.45312502,4.5033482 0,1.64062498 1.17187502,2.72879462 2.69531252,2.72879462 0.8705357,0 1.6238839,-0.40178571 2.1595982,-0.85379464 0.9207589,-0.82031248 1.0881696,-1.72433038 1.0881696,-1.75781248 0,-0.1004464 -0.1004464,-0.1004464 -0.1171875,-0.1004464 -0.066964,0 -0.1171875,0.016741 -0.1339285,0.1004464 -0.083705,0.2845982 -0.3180804,1.0044643 -1.0044643,1.57366069 -0.6863839,0.56919643 -1.3225447,0.73660715 -1.8247768,0.73660715 -0.9040179,0 -1.9587054,-0.51897322 -1.9587054,-2.07589284 0,-0.5691964 0.2008929,-2.1763393 1.2053572,-3.3482143 0.6026786,-0.703125 1.5401786,-1.2053571 2.4274553,-1.2053571 1.0212054,0 1.6071429,0.7700892 1.6071429,1.9252232 0,0.4017857 -0.033482,0.4017857 -0.033482,0.5022321 0,0.1004464 0.1171875,0.1004464 0.1506696,0.1004464 0.1339286,0 0.1339286,-0.016741 0.1841518,-0.2008928 z m 0,0"
         style="fill:#000000;fill-opacity:1;fill-rule:nonzero;stroke:none" />
      <path
         id="path107"
         d="m 7.6381027,2.3459487 c -0.050223,0.2008928 -0.050223,0.251116 -0.3348214,0.251116 -0.1004465,0 -0.1841518,0 -0.1841518,0.1506697 0,0.066964 0.050223,0.1004464 0.083705,0.1004464 0.1841518,0 0.4185268,-0.033482 0.6026786,-0.033482 0.234375,0 0.5022321,0.033482 0.7366071,0.033482 0.066964,0 0.1339286,-0.016741 0.1339286,-0.1506696 0,-0.1004465 -0.083705,-0.1004465 -0.1674107,-0.1004465 -0.1674107,0 -0.3515625,0 -0.3515625,-0.083705 0,-0.033482 0.050223,-0.217634 0.083705,-0.3180804 0.083705,-0.3683036 0.1841517,-0.7533482 0.251116,-1.0379464 0.083705,0.1339286 0.3013393,0.4017857 0.7198661,0.4017857 0.8537943,0 1.7912943,-0.9375 1.7912943,-1.97544642 0,-0.82031248 -0.569196,-1.17187498 -1.0379461,-1.17187498 -0.4352678,0 -0.8035714,0.3013393 -0.9877232,0.485491 -0.1339286,-0.3850446 -0.5189732,-0.485491 -0.7198661,-0.485491 -0.2845982,0 -0.4520089,0.1841518 -0.5524553,0.3683035 -0.1506697,0.23437505 -0.2511161,0.65290183 -0.2511161,0.70312505 0,0.0837054 0.083705,0.0837054 0.1171875,0.0837054 0.1004464,0 0.1004464,-0.0167411 0.1506696,-0.20089285 0.1004465,-0.4017857 0.234375,-0.7533482 0.5022322,-0.7533482 0.1841518,0 0.234375,0.1506697 0.234375,0.3348215 0,0.0837053 -0.016741,0.16741063 -0.016741,0.21763384 z M 8.9606473,-0.75114955 C 9.362433,-1.2868638 9.7139955,-1.3873103 9.9316295,-1.3873103 c 0.2845985,0 0.5189735,0.2008929 0.5189735,0.66964289 0,0.28459821 -0.15067,1.00446429 -0.368304,1.40625 C 9.9148884,1.023404 9.5633259,1.3582254 9.2117634,1.3582254 c -0.5022321,0 -0.6194196,-0.53571424 -0.6194196,-0.60267852 0,-0.0167411 0.016741,-0.0669643 0.016741,-0.10044643 z M 14.171306,-1.1696763 c -0.15067,-0.234375 -0.385045,-0.4185268 -0.719866,-0.4185268 -0.887277,0 -1.808036,0.98772319 -1.808036,1.99218748 0,0.66964282 0.46875,1.15513392 1.054688,1.15513392 0.385044,0 0.719866,-0.2176339 1.004464,-0.4854911 0.133928,0.4185268 0.535714,0.4854911 0.719866,0.4854911 0.251116,0 0.418527,-0.1506696 0.552455,-0.3683036 0.15067,-0.26785711 0.234375,-0.66964282 0.234375,-0.70312497 0,-0.0837054 -0.08371,-0.0837054 -0.117187,-0.0837054 -0.08371,0 -0.100447,0.0334821 -0.15067,0.21763392 -0.08371,0.33482143 -0.217634,0.73660715 -0.502232,0.73660715 -0.184152,0 -0.234375,-0.1506697 -0.234375,-0.3348215 0,-0.11718743 0.05022,-0.3683035 0.100446,-0.55245529 0.05022,-0.18415178 0.117188,-0.46875 0.15067,-0.61941964 l 0.15067,-0.53571429 c 0.03348,-0.18415178 0.117187,-0.51897318 0.117187,-0.55245528 0,-0.1506697 -0.117187,-0.217634 -0.234375,-0.217634 -0.117187,0 -0.284598,0.083705 -0.31808,0.2845983 z m -0.452009,1.7912946 c -0.05022,0.20089286 -0.200893,0.33482143 -0.351563,0.46875 -0.06696,0.050223 -0.334821,0.2678571 -0.63616,0.2678571 -0.267857,0 -0.518974,-0.1674107 -0.518974,-0.66964281 0,-0.36830357 0.200893,-1.13839286 0.368304,-1.42299107 0.31808,-0.55245532 0.669643,-0.65290182 0.870536,-0.65290182 0.485491,0 0.619419,0.51897325 0.619419,0.6026786 0,0.0334821 -0.01674,0.0837054 -0.01674,0.10044643 z m 3.469587,-0.53571428 c 0,-0.05022322 0.167411,-0.66964286 0.184152,-0.703125 0.01674,-0.0669643 0.217634,-0.41852682 0.435268,-0.58593752 0.08371,-0.050223 0.267857,-0.1841518 0.569196,-0.1841518 0.06696,0 0.234375,0 0.385045,0.1004465 -0.234375,0.050223 -0.318081,0.251116 -0.318081,0.3850446 0,0.15066965 0.133929,0.25111608 0.284599,0.25111608 0.16741,0 0.401785,-0.13392858 0.401785,-0.41852678 0,-0.3683036 -0.385044,-0.5189732 -0.753348,-0.5189732 -0.351562,0 -0.669643,0.1506696 -0.970982,0.5022321 -0.133929,-0.4352678 -0.552455,-0.5022321 -0.719866,-0.5022321 -0.267857,0 -0.435268,0.1674107 -0.552456,0.3515625 -0.16741,0.28459819 -0.251116,0.6863839 -0.251116,0.71986605 0,0.0837054 0.08371,0.0837054 0.117188,0.0837054 0.100446,0 0.100446,-0.0167411 0.15067,-0.20089285 0.100446,-0.4352678 0.234375,-0.7533483 0.502232,-0.7533483 0.184151,0 0.234375,0.1506697 0.234375,0.3348215 0,0.13392858 -0.06696,0.40178573 -0.117188,0.58593751 -0.05022,0.18415179 -0.117187,0.46875 -0.150669,0.61941964 L 16.402054,1.0568862 c -0.03348,0.083705 -0.06696,0.2678571 -0.06696,0.2845982 0,0.1506696 0.117188,0.2176339 0.234375,0.2176339 0.100447,0 0.234375,-0.066964 0.30134,-0.2008929 0.01674,-0.033482 0.08371,-0.3515625 0.133928,-0.51897312 z m 5.223214,-1.25558032 c -0.150669,-0.234375 -0.385044,-0.4185268 -0.719866,-0.4185268 -0.887277,0 -1.808036,0.98772319 -1.808036,1.99218748 0,0.66964282 0.46875,1.15513392 1.054688,1.15513392 0.385045,0 0.719866,-0.2176339 1.004464,-0.4854911 0.133929,0.4185268 0.535715,0.4854911 0.719866,0.4854911 0.251116,0 0.418527,-0.1506696 0.552456,-0.3683036 0.150669,-0.26785711 0.234375,-0.66964282 0.234375,-0.70312497 0,-0.0837054 -0.08371,-0.0837054 -0.117188,-0.0837054 -0.08371,0 -0.100446,0.0334821 -0.150669,0.21763392 -0.08371,0.33482143 -0.217634,0.73660715 -0.502233,0.73660715 -0.184151,0 -0.234375,-0.1506697 -0.234375,-0.3348215 0,-0.11718743 0.05022,-0.3683035 0.100447,-0.55245529 0.05022,-0.18415178 0.117187,-0.46875 0.150669,-0.61941964 l 0.15067,-0.53571429 c 0.03348,-0.18415178 0.117188,-0.51897318 0.117188,-0.55245528 0,-0.1506697 -0.117188,-0.217634 -0.234375,-0.217634 -0.117188,0 -0.284599,0.083705 -0.318081,0.2845983 z m -0.452009,1.7912946 c -0.05022,0.20089286 -0.200893,0.33482143 -0.351562,0.46875 -0.06696,0.050223 -0.334822,0.2678571 -0.636161,0.2678571 -0.267857,0 -0.518973,-0.1674107 -0.518973,-0.66964281 0,-0.36830357 0.200893,-1.13839286 0.368303,-1.42299107 0.318081,-0.55245532 0.669643,-0.65290182 0.870536,-0.65290182 0.485491,0 0.61942,0.51897325 0.61942,0.6026786 0,0.0334821 -0.01674,0.0837054 -0.01674,0.10044643 z m 4.83817,-1.7578125 c -0.184152,0.050223 -0.301339,0.18415179 -0.301339,0.33482143 0,0.15066965 0.150669,0.21763393 0.234375,0.21763393 0.06696,0 0.334821,-0.0334821 0.334821,-0.40178571 0,-0.45200895 -0.502232,-0.60267855 -0.920759,-0.60267855 -1.104911,0 -1.289062,0.8035714 -1.289062,1.02120533 0,0.25111607 0.150669,0.41852679 0.234375,0.50223215 0.184151,0.15066964 0.31808,0.16741071 0.803571,0.25111607 0.133929,0.0334821 0.585938,0.1171875 0.585938,0.46875 0,0.1171875 -0.08371,0.38504465 -0.368304,0.55245535 -0.267857,0.1506696 -0.61942,0.1506696 -0.703125,0.1506696 -0.284598,0 -0.669643,-0.050223 -0.837054,-0.2845982 0.234375,-0.033482 0.385045,-0.20089282 0.385045,-0.40178568 0,-0.16741072 -0.117187,-0.25111607 -0.267857,-0.25111607 -0.200893,0 -0.401786,0.15066964 -0.401786,0.46875 0,0.41852675 0.435268,0.66964285 1.121652,0.66964285 1.272321,0 1.523438,-0.87053571 1.523438,-1.15513392 0,-0.63616072 -0.703125,-0.77008929 -0.970983,-0.80357143 -0.06696,-0.0167411 -0.234375,-0.0502232 -0.284598,-0.0669643 -0.251116,-0.0502232 -0.385044,-0.18415178 -0.385044,-0.3515625 0,-0.15066964 0.133928,-0.33482145 0.284598,-0.43526785 0.184152,-0.1171875 0.435268,-0.1339286 0.552455,-0.1339286 0.15067,0 0.518973,0.016741 0.669643,0.2511161 z m 3.009208,-1.7410714 c 0,-0.1004465 -0.08371,-0.2511161 -0.284599,-0.2511161 -0.184151,0 -0.385044,0.1674107 -0.385044,0.3683036 0,0.1339285 0.08371,0.2678571 0.284598,0.2678571 0.200893,0 0.385045,-0.1841518 0.385045,-0.3850446 z m -1.422992,3.54910712 c -0.03348,0.10044643 -0.06696,0.18415178 -0.06696,0.30133928 0,0.3180804 0.284598,0.5859375 0.669643,0.5859375 0.703125,0 1.004464,-0.95424107 1.004464,-1.07142857 0,-0.0837054 -0.0837,-0.0837054 -0.117187,-0.0837054 -0.100447,0 -0.100447,0.0334821 -0.133929,0.1171875 -0.150669,0.55245537 -0.46875,0.83705357 -0.736607,0.83705357 -0.133928,0 -0.167411,-0.083705 -0.167411,-0.234375 0,-0.16741072 0.05022,-0.30133929 0.100447,-0.45200893 0.0837,-0.18415179 0.150669,-0.36830357 0.234375,-0.55245536 0.05022,-0.16741071 0.31808,-0.80357143 0.334821,-0.88727678 0.01674,-0.0669643 0.05022,-0.15066965 0.05022,-0.21763393 0,-0.3348214 -0.284598,-0.6026785 -0.669642,-0.6026785 -0.686384,0 -1.004465,0.954241 -1.004465,1.0714285 0,0.0837054 0.08371,0.0837054 0.117188,0.0837054 0.100446,0 0.100446,-0.0334821 0.117187,-0.10044642 0.184152,-0.60267858 0.485491,-0.85379468 0.753349,-0.85379468 0.100446,0 0.16741,0.050223 0.16741,0.234375 0,0.16741075 -0.03348,0.26785718 -0.217634,0.70312503 z m 3.703963,-1.94196432 h 0.703125 c 0.133928,0 0.217633,0 0.217633,-0.1506696 0,-0.1004464 -0.08371,-0.1004464 -0.200892,-0.1004464 h -0.669643 l 0.267857,-1.0212054 c 0,-0.050223 0.01674,-0.083705 0.01674,-0.1004464 0,-0.1339286 -0.100446,-0.234375 -0.234375,-0.234375 -0.184152,0 -0.284598,0.1171875 -0.334821,0.3013393 -0.05022,0.1841517 0.05022,-0.1506697 -0.267858,1.0546875 H 30.88308 c -0.133928,0 -0.217634,0 -0.217634,0.1506696 0,0.1004464 0.08371,0.1004464 0.200893,0.1004464 h 0.669643 l -0.418527,1.6573661 c -0.03348,0.16741072 -0.100446,0.41852679 -0.100446,0.51897322 0,0.40178568 0.351562,0.65290178 0.736607,0.65290178 0.78683,0 1.222098,-0.97098214 1.222098,-1.07142857 0,-0.0837054 -0.08371,-0.0837054 -0.117187,-0.0837054 -0.08371,0 -0.08371,0.0167411 -0.133929,0.13392857 -0.200893,0.43526785 -0.552455,0.8203124 -0.9375,0.8203124 -0.150669,0 -0.251116,-0.083705 -0.251116,-0.3348214 0,-0.0669642 0.03348,-0.21763386 0.05022,-0.28459815 z m 3.544921,-1.6071428 c 0,-0.1004465 -0.08371,-0.2511161 -0.284598,-0.2511161 -0.184152,0 -0.385044,0.1674107 -0.385044,0.3683036 0,0.1339285 0.0837,0.2678571 0.284598,0.2678571 0.200893,0 0.385044,-0.1841518 0.385044,-0.3850446 z m -1.422991,3.54910712 c -0.03348,0.10044643 -0.06696,0.18415178 -0.06696,0.30133928 0,0.3180804 0.284598,0.5859375 0.669643,0.5859375 0.703125,0 1.004464,-0.95424107 1.004464,-1.07142857 0,-0.0837054 -0.08371,-0.0837054 -0.117187,-0.0837054 -0.100447,0 -0.100447,0.0334821 -0.133929,0.1171875 -0.15067,0.55245527 -0.46875,0.83705347 -0.736607,0.83705347 -0.133929,0 -0.167411,-0.083705 -0.167411,-0.234375 0,-0.16741062 0.05022,-0.30133919 0.100447,-0.45200883 0.0837,-0.18415179 0.150669,-0.36830357 0.234375,-0.55245536 0.05022,-0.16741071 0.31808,-0.80357143 0.334821,-0.88727678 0.01674,-0.0669643 0.05022,-0.15066965 0.05022,-0.21763393 0,-0.3348214 -0.284598,-0.6026785 -0.669643,-0.6026785 -0.686383,0 -1.004464,0.954241 -1.004464,1.0714285 0,0.0837054 0.08371,0.0837054 0.117188,0.0837054 0.100446,0 0.100446,-0.0334821 0.117187,-0.10044642 0.184152,-0.60267858 0.485491,-0.85379468 0.753348,-0.85379468 0.100447,0 0.167411,0.050223 0.167411,0.234375 0,0.16741075 -0.03348,0.26785718 -0.217634,0.70312503 z m 5.047433,-1.85825892 c -0.251116,0.050223 -0.368303,0.23437499 -0.368303,0.4017857 0,0.18415179 0.150669,0.25111608 0.284598,0.25111608 0.15067,0 0.385045,-0.1171875 0.385045,-0.45200893 0,-0.46875005 -0.535715,-0.60267855 -0.920759,-0.60267855 -1.037947,0 -2.008929,0.97098212 -2.008929,1.94196426 0,0.5859375 0.418527,1.20535714 1.289063,1.20535714 1.171875,0 1.72433,-0.68638392 1.72433,-0.78683035 0,-0.0334821 -0.05022,-0.1171875 -0.117188,-0.1171875 -0.03348,0 -0.05022,0.0167411 -0.100446,0.0669643 -0.552455,0.63616065 -1.372768,0.63616065 -1.489955,0.63616065 -0.502232,0 -0.736607,-0.3348214 -0.736607,-0.77008922 0,-0.20089286 0.100446,-0.95424107 0.46875,-1.43973214 0.267857,-0.35156254 0.63616,-0.53571434 0.970982,-0.53571434 0.100446,0 0.435268,0.016741 0.619419,0.2008929 z m 0,0"
         style="fill:#000000;fill-opacity:1;fill-rule:nonzero;stroke:none" />
    </g>
  </g>
</svg>
