<?xml version="1.0" encoding="UTF-8" standalone="no"?>
<!-- Created with Inkscape (http://www.inkscape.org/) -->

<svg
   version="1.1"
   id="svg1"
   width="241.60608"
   height="34.172363"
   viewBox="0 0 241.60608 34.172363"
   xmlns="http://www.w3.org/2000/svg"
   xmlns:svg="http://www.w3.org/2000/svg">
  <defs
     id="defs1" />
  <g
     id="g1"
     transform="translate(-286.69702,-701.79687)">
    <path
       id="path85"
       d="m 0,0 h 14.88254 m 0,0 H 29.764 38.49619 m 22.22459,0 h 8.72859 8.73366 m 22.22458,0 h 8.72711 17.06943 m 5.55603,0 h 17.0599 14.88802 m 0,0 h 14.876"
       style="fill:none;stroke:#000000;stroke-width:0.3985;stroke-linecap:butt;stroke-linejoin:miter;stroke-miterlimit:10;stroke-dasharray:none;stroke-opacity:1"
       transform="matrix(1.3333333,0,0,-1.3333333,288.444,724.85733)" />
    <path
       id="path86"
       d="M 1.11098,0 C 1.11098,0.61357 0.61357,1.11098 0,1.11098 -0.61357,1.11098 -1.11098,0.61357 -1.11098,0 c 0,-0.61357 0.49741,-1.11098 1.11098,-1.11098 0.61357,0 1.11098,0.49741 1.11098,1.11098 z"
       style="fill:#000000;fill-opacity:1;fill-rule:nonzero;stroke:#000000;stroke-width:0.3985;stroke-linecap:butt;stroke-linejoin:miter;stroke-miterlimit:10;stroke-dasharray:none;stroke-opacity:1"
       transform="matrix(1.3333333,0,0,-1.3333333,288.444,724.85733)" />
    <path
       id="path87"
       d="m 38.09628,-0.15938 c 0,2.30124 1.28835,4.16675 2.87761,4.16675 1.58925,0 2.8776,-1.86551 2.8776,-4.16675 0,2.30124 1.28833,4.16675 2.87759,4.16675 1.58926,0 2.87759,-1.86551 2.87759,-4.16675 0,2.30124 1.28835,4.16675 2.8776,4.16675 1.58926,0 2.87761,-1.86551 2.87761,-4.16675 0,2.30124 1.28832,4.16675 2.87759,4.16675 1.58927,0 2.8776,-1.86551 2.8776,-4.16675"
       style="fill:none;stroke:#000000;stroke-width:0.797;stroke-linecap:butt;stroke-linejoin:bevel;stroke-miterlimit:10;stroke-dasharray:none;stroke-opacity:1"
       transform="matrix(1.3333333,0,0,-1.3333333,288.444,724.85733)" />
    <g
       id="g87"
       aria-label="L&#10;lead"
       transform="matrix(0.93333333,0,0,0.93333333,344.28133,714.456)">
      <path
         id="path88"
         d="m 3.7331696,-6.0256808 c 0.083705,-0.3515625 0.1171875,-0.46875 1.0546875,-0.46875 0.2845983,0 0.3683036,0 0.3683036,-0.1841518 0,-0.1171875 -0.1004464,-0.1171875 -0.1506696,-0.1171875 -0.3348215,0 -1.155134,0.016741 -1.4732143,0.016741 -0.3013393,0 -1.0379464,-0.016741 -1.3392857,-0.016741 -0.066964,0 -0.1841518,0 -0.1841518,0.2008929 0,0.1004464 0.1004464,0.1004464 0.2845982,0.1004464 0.016741,0 0.2008929,0 0.3683036,0.016741 0.1841518,0.016741 0.2845982,0.033482 0.2845982,0.1674107 0,0.033482 -0.016741,0.066964 -0.050223,0.1841518 l -1.3392857,5.35714283 c -0.1004465,0.38504464 -0.1171875,0.46875 -0.9040179,0.46875 -0.16741071,0 -0.26785714,0 -0.26785714,0.18415178 0,0.1171875 0.10044643,0.1171875 0.26785714,0.1171875 h 4.6205357 c 0.234375,0 0.2511161,0 0.3013393,-0.16741071 L 6.3615179,-2.325904 c 0.050223,-0.1004464 0.050223,-0.1171875 0.050223,-0.1339286 0,-0.033482 -0.033482,-0.1171875 -0.1339286,-0.1171875 -0.083705,0 -0.1004464,0.050223 -0.1674107,0.2176339 -0.3348214,0.920759 -0.7700893,2.05915183 -2.4944197,2.05915183 h -0.9375 c -0.1339285,0 -0.1506696,0 -0.2176339,-0.0167411 -0.1004464,-0.0167411 -0.1339286,-0.0167411 -0.1339286,-0.10044642 0,-0.0334822 0,-0.0502232 0.050223,-0.234375 z m 0,0"
         style="fill:#000000;fill-opacity:1;fill-rule:nonzero;stroke:none" />
      <path
         id="path89"
         d="m 8.7554911,-3.1420312 c 0,-0.016741 0.016741,-0.1004465 0.016741,-0.1171875 0,-0.033482 -0.016741,-0.083705 -0.1004464,-0.083705 -0.1506696,0 -0.7198661,0.050223 -0.9040178,0.066964 -0.050223,0 -0.1506697,0.016741 -0.1506697,0.1506696 0,0.1004465 0.1004464,0.1004465 0.1841518,0.1004465 0.3348214,0 0.3348214,0.050223 0.3348214,0.1004464 0,0.050223 -0.016741,0.1004464 -0.033482,0.1674107 L 7.2487946,0.69167411 c -0.033482,0.0669643 -0.033482,0.13392857 -0.033482,0.21763393 0,0.43526786 0.4017857,0.65290176 0.7366071,0.65290176 0.1674108,0 0.3683036,-0.050223 0.5524554,-0.3683035 0.1506696,-0.25111612 0.2511161,-0.66964291 0.2511161,-0.70312505 0,-0.0837054 -0.1004465,-0.0837054 -0.1171875,-0.0837054 -0.1004465,0 -0.1171875,0.0334821 -0.1339286,0.16741072 C 8.4039286,0.92604911 8.27,1.361317 7.9686607,1.361317 c -0.1841518,0 -0.234375,-0.1674107 -0.234375,-0.3348215 0,-0.0837053 0.016741,-0.20089282 0.050223,-0.28459818 z m 2.1428569,3.04687495 c 0.200893,0 0.753348,-0.01674107 1.138393,-0.15066964 0.502232,-0.18415179 0.602679,-0.51897322 0.602679,-0.71986607 0,-0.38504464 -0.385045,-0.61941964 -0.853795,-0.61941964 -0.853795,0 -1.9754464,0.63616071 -1.9754464,1.84151785 0,0.703125 0.4352674,1.30580355 1.2555804,1.30580355 1.171875,0 1.72433,-0.68638391 1.72433,-0.78683034 0,-0.0334821 -0.05022,-0.1171875 -0.117187,-0.1171875 -0.03348,0 -0.05022,0.0167411 -0.100447,0.0669643 C 12.02,1.361317 11.199688,1.361317 11.0825,1.361317 c -0.418527,0 -0.703125,-0.2678572 -0.703125,-0.83705361 0,-0.10044643 0,-0.234375 0.08371,-0.61941964 z m -0.385044,-0.20089286 c 0.301339,-1.00446429 1.071428,-1.08816959 1.272321,-1.08816959 0.301339,0 0.552455,0.1506696 0.552455,0.41852674 0,0.66964285 -1.171875,0.66964285 -1.473214,0.66964285 z m 5.55385,-0.87053569 c -0.15067,-0.234375 -0.385045,-0.4185268 -0.719866,-0.4185268 -0.887277,0 -1.808036,0.98772321 -1.808036,1.99218749 0,0.66964291 0.46875,1.15513391 1.054688,1.15513391 0.385044,0 0.719866,-0.2176339 1.004464,-0.485491 0.133929,0.4185267 0.535714,0.485491 0.719866,0.485491 0.251116,0 0.418527,-0.1506696 0.552455,-0.3683035 0.15067,-0.26785719 0.234375,-0.66964291 0.234375,-0.70312505 0,-0.0837054 -0.08371,-0.0837054 -0.117187,-0.0837054 -0.0837,0 -0.100446,0.0334821 -0.15067,0.21763393 -0.08371,0.33482143 -0.217634,0.73660722 -0.502232,0.73660722 -0.184152,0 -0.234375,-0.1506697 -0.234375,-0.3348215 0,-0.1171875 0.05022,-0.36830358 0.100447,-0.55245536 0.05022,-0.18415179 0.117187,-0.46875 0.150669,-0.61941964 l 0.15067,-0.53571429 c 0.03348,-0.18415179 0.117187,-0.51897321 0.117187,-0.55245531 0,-0.1506696 -0.117187,-0.2176339 -0.234375,-0.2176339 -0.117187,0 -0.284598,0.083705 -0.31808,0.2845982 z m -0.452009,1.79129462 c -0.05022,0.20089286 -0.200893,0.33482143 -0.351562,0.46874998 -0.06696,0.050223 -0.334822,0.2678572 -0.636161,0.2678572 -0.267857,0 -0.518973,-0.1674107 -0.518973,-0.66964289 0,-0.36830357 0.200893,-1.13839286 0.368303,-1.42299107 0.318081,-0.55245534 0.669643,-0.65290174 0.870536,-0.65290174 0.485491,0 0.61942,0.51897316 0.61942,0.60267852 0,0.0334821 -0.01674,0.0837054 -0.01674,0.10044643 z m 5.813337,-3.76674102 c 0.01674,-0.016741 0.03348,-0.1004465 0.03348,-0.1171875 0,-0.033482 -0.03348,-0.083705 -0.117187,-0.083705 -0.133929,0 -0.719866,0.050223 -0.887277,0.066964 -0.06696,0 -0.15067,0.016741 -0.15067,0.1506696 0,0.1004465 0.08371,0.1004465 0.167411,0.1004465 0.334822,0 0.334822,0.050223 0.334822,0.1004464 0,0.050223 0,0.1004464 -0.01674,0.1674107 l -0.401785,1.5904018 c -0.15067,-0.234375 -0.385045,-0.4185268 -0.719866,-0.4185268 -0.887277,0 -1.808036,0.98772321 -1.808036,1.99218749 0,0.66964291 0.46875,1.15513391 1.054687,1.15513391 0.385045,0 0.719867,-0.2176339 1.004465,-0.485491 0.133928,0.4185267 0.535714,0.485491 0.719866,0.485491 0.251116,0 0.418527,-0.1506696 0.552455,-0.3683035 0.15067,-0.26785719 0.234375,-0.66964291 0.234375,-0.70312505 0,-0.0837054 -0.0837,-0.0837054 -0.117187,-0.0837054 -0.08371,0 -0.100447,0.0334821 -0.15067,0.21763393 -0.0837,0.33482143 -0.217634,0.73660722 -0.502232,0.73660722 -0.184152,0 -0.234375,-0.1506697 -0.234375,-0.3348215 0,-0.13392858 0.01674,-0.20089286 0.03348,-0.28459822 z M 19.938527,0.62470982 C 19.888304,0.82560268 19.737634,0.95953125 19.586964,1.0934598 19.52,1.143683 19.252143,1.361317 18.950804,1.361317 c -0.267858,0 -0.518974,-0.1674107 -0.518974,-0.66964289 0,-0.36830357 0.200893,-1.13839286 0.368304,-1.42299107 0.31808,-0.55245534 0.669643,-0.65290174 0.870536,-0.65290174 0.485491,0 0.619419,0.51897316 0.619419,0.60267852 0,0.0334821 -0.01674,0.0837054 -0.01674,0.10044643 z m 0,0"
         style="fill:#000000;fill-opacity:1;fill-rule:nonzero;stroke:none" />
    </g>
    <path
       id="path90"
       d="m 77.78165,0 2.2837,4.16696 3.77036,-8.33392 3.77039,8.33392 3.77035,-8.33392 3.77039,8.33392 L 98.9172,-4.16696 100.8024,0"
       style="fill:none;stroke:#000000;stroke-width:0.797;stroke-linecap:butt;stroke-linejoin:bevel;stroke-miterlimit:10;stroke-dasharray:none;stroke-opacity:1"
       transform="matrix(1.3333333,0,0,-1.3333333,288.444,724.85733)" />
    <g
       id="g90"
       aria-label="R&#10;plate"
       transform="matrix(0.93333333,0,0,0.93333333,395.44667,714.456)">
      <path
         id="path91"
         d="m 3.731808,-6.1093862 c 0.066964,-0.251116 0.083705,-0.3515625 0.2845983,-0.3683035 0.083705,-0.016741 0.4017857,-0.016741 0.6026785,-0.016741 0.703125,0 1.8080357,0 1.8080357,0.9877232 0,0.3348214 -0.1506696,1.0212054 -0.5357142,1.40625 C 5.6235491,-3.8326003 5.1045759,-3.51452 4.200558,-3.51452 H 3.0789063 Z m 1.4397322,2.7287947 c 1.0044643,-0.2176339 2.1930803,-0.9207589 2.1930803,-1.9252232 0,-0.8537947 -0.9040178,-1.4899554 -2.2098214,-1.4899554 H 2.325558 c -0.2008928,0 -0.3013392,0 -0.3013392,0.2008929 0,0.1004464 0.1004464,0.1004464 0.2845982,0.1004464 0.016741,0 0.2176339,0 0.3850446,0.016741 0.1674107,0.016741 0.2678572,0.033482 0.2678572,0.1674107 0,0.033482 -0.016741,0.066964 -0.050223,0.1841518 l -1.3225446,5.35714283 c -0.1004464,0.38504464 -0.1339286,0.46875 -0.92075894,0.46875 -0.16741071,0 -0.26785714,0 -0.26785714,0.18415178 0,0.1171875 0.13392857,0.1171875 0.15066964,0.1171875 0.26785715,0 0.97098214,-0.03348214 1.25558034,-0.03348214 0.2678572,0 0.9877232,0.03348214 1.2555804,0.03348214 0.083705,0 0.2008928,0 0.2008928,-0.20089286 0,-0.10044642 -0.083705,-0.10044642 -0.2678571,-0.10044642 -0.3850446,0 -0.6529018,0 -0.6529018,-0.18415179 0,-0.0669643 0.016741,-0.1171875 0.033482,-0.16741071 L 3.028683,-3.2968862 h 1.1886161 c 0.9040179,0 1.0881697,0.5524554 1.0881697,0.9040179 0,0.1506696 -0.083705,0.46875 -0.1506697,0.6863839 -0.066964,0.2845982 -0.1506696,0.6529018 -0.1506696,0.85379467 0,1.07142857 1.188616,1.07142857 1.3225446,1.07142857 0.8370536,0 1.1886161,-1.00446429 1.1886161,-1.13839286 0,-0.11718748 -0.1004464,-0.11718748 -0.1171875,-0.11718748 -0.083705,0 -0.1004464,0.0669643 -0.1339286,0.13392855 -0.2511161,0.73660715 -0.6696428,0.90401786 -0.9040178,0.90401786 -0.3180804,0 -0.4017858,-0.21763393 -0.4017858,-0.60267857 0,-0.31808036 0.066964,-0.82031254 0.1004465,-1.13839284 0.033482,-0.1339286 0.050223,-0.3348214 0.050223,-0.46875 0,-0.7700893 -0.6696429,-1.0714286 -0.9374998,-1.171875 z m 0,0"
         style="fill:#000000;fill-opacity:1;fill-rule:nonzero;stroke:none" />
      <path
         id="path92"
         d="m 8.0844866,2.3490402 c -0.050223,0.2008928 -0.050223,0.2511161 -0.3348214,0.2511161 -0.1004464,0 -0.1841518,0 -0.1841518,0.1506696 0,0.066964 0.050223,0.1004464 0.083705,0.1004464 0.1841517,0 0.4185267,-0.033482 0.6026785,-0.033482 0.234375,0 0.5022322,0.033482 0.7366072,0.033482 0.066964,0 0.1339285,-0.016741 0.1339285,-0.1506696 0,-0.1004464 -0.083705,-0.1004464 -0.1674107,-0.1004464 -0.1674107,0 -0.3515625,0 -0.3515625,-0.083705 0,-0.033482 0.050223,-0.2176339 0.083705,-0.3180804 0.083705,-0.3683035 0.1841518,-0.7533482 0.2511161,-1.0379464 0.083705,0.1339286 0.3013392,0.4017857 0.719866,0.4017857 0.8537945,0 1.7912945,-0.93749998 1.7912945,-1.97544641 0,-0.82031249 -0.569196,-1.17187499 -1.037946,-1.17187499 -0.4352681,0 -0.8035717,0.3013393 -0.9877235,0.4854911 -0.1339285,-0.3850447 -0.5189732,-0.4854911 -0.719866,-0.4854911 -0.2845983,0 -0.452009,0.1841518 -0.5524554,0.3683036 -0.1506696,0.23437496 -0.2511161,0.65290175 -0.2511161,0.70312496 0,0.0837054 0.083705,0.0837054 0.1171875,0.0837054 0.1004465,0 0.1004465,-0.0167411 0.1506697,-0.20089286 0.1004464,-0.4017857 0.234375,-0.7533482 0.5022321,-0.7533482 0.1841518,0 0.234375,0.1506696 0.234375,0.3348214 0,0.0837053 -0.016741,0.16741073 -0.016741,0.21763395 z M 9.4070313,-0.74805804 C 9.808817,-1.2837723 10.160379,-1.3842187 10.378013,-1.3842187 c 0.284599,0 0.518974,0.2008928 0.518974,0.66964281 0,0.28459821 -0.15067,1.00446428 -0.368304,1.40625 C 10.361272,1.0264955 10.00971,1.361317 9.6581473,1.361317 c -0.5022321,0 -0.6194196,-0.53571432 -0.6194196,-0.60267861 0,-0.0167411 0.016741,-0.0669643 0.016741,-0.10044643 z M 13.646708,-3.1420312 c 0,-0.016741 0.01674,-0.1004465 0.01674,-0.1171875 0,-0.033482 -0.01674,-0.083705 -0.100447,-0.083705 -0.150669,0 -0.719866,0.050223 -0.904018,0.066964 -0.05022,0 -0.150669,0.016741 -0.150669,0.1506696 0,0.1004465 0.100446,0.1004465 0.184152,0.1004465 0.334821,0 0.334821,0.050223 0.334821,0.1004464 0,0.050223 -0.01674,0.1004464 -0.03348,0.1674107 l -0.853795,3.44866071 c -0.03348,0.0669643 -0.03348,0.13392857 -0.03348,0.21763393 0,0.43526786 0.401786,0.65290176 0.736607,0.65290176 0.167411,0 0.368304,-0.050223 0.552456,-0.3683035 0.150669,-0.25111612 0.251116,-0.66964291 0.251116,-0.70312505 0,-0.0837054 -0.100447,-0.0837054 -0.117188,-0.0837054 -0.100446,0 -0.117187,0.0334821 -0.133928,0.16741072 -0.100447,0.3515625 -0.234375,0.78683043 -0.535715,0.78683043 -0.184152,0 -0.234375,-0.1674107 -0.234375,-0.3348215 0,-0.0837053 0.01674,-0.20089286 0.05022,-0.28459822 z m 3.532366,1.9754464 c -0.15067,-0.234375 -0.385045,-0.4185268 -0.719866,-0.4185268 -0.887277,0 -1.808036,0.98772321 -1.808036,1.99218749 0,0.66964291 0.46875,1.15513391 1.054687,1.15513391 0.385045,0 0.719866,-0.2176339 1.004465,-0.485491 0.133928,0.4185267 0.535714,0.485491 0.719866,0.485491 0.251116,0 0.418527,-0.1506696 0.552455,-0.3683035 0.15067,-0.26785719 0.234375,-0.66964291 0.234375,-0.70312505 0,-0.0837054 -0.08371,-0.0837054 -0.117187,-0.0837054 -0.08371,0 -0.100447,0.0334821 -0.15067,0.21763393 -0.0837,0.33482143 -0.217634,0.73660722 -0.502232,0.73660722 -0.184152,0 -0.234375,-0.1506697 -0.234375,-0.3348215 0,-0.1171875 0.05022,-0.36830358 0.100446,-0.55245536 0.05022,-0.18415179 0.117188,-0.46875 0.15067,-0.61941964 l 0.15067,-0.53571429 c 0.03348,-0.18415179 0.117187,-0.51897321 0.117187,-0.55245531 0,-0.1506696 -0.117187,-0.2176339 -0.234375,-0.2176339 -0.117187,0 -0.284598,0.083705 -0.31808,0.2845982 z m -0.452009,1.79129462 c -0.05022,0.20089286 -0.200893,0.33482143 -0.351563,0.46874998 -0.06696,0.050223 -0.334821,0.2678572 -0.63616,0.2678572 -0.267858,0 -0.518974,-0.1674107 -0.518974,-0.66964289 0,-0.36830357 0.200893,-1.13839286 0.368304,-1.42299107 0.31808,-0.55245534 0.669643,-0.65290174 0.870536,-0.65290174 0.485491,0 0.619419,0.51897316 0.619419,0.60267852 0,0.0334821 -0.01674,0.0837054 -0.01674,0.10044643 z m 3.553292,-1.89174102 h 0.703125 c 0.133929,0 0.217634,0 0.217634,-0.1506697 0,-0.1004464 -0.0837,-0.1004464 -0.200893,-0.1004464 H 20.33058 l 0.267858,-1.0212054 c 0,-0.050223 0.01674,-0.083705 0.01674,-0.1004464 0,-0.1339286 -0.100447,-0.234375 -0.234375,-0.234375 -0.184152,0 -0.284599,0.1171875 -0.334822,0.3013393 -0.05022,0.1841518 0.05022,-0.1506697 -0.267857,1.0546875 H 19.075 c -0.133929,0 -0.217634,0 -0.217634,0.1506696 0,0.1004465 0.08371,0.1004465 0.200893,0.1004465 h 0.669643 l -0.418527,1.65736602 c -0.03348,0.16741072 -0.100446,0.41852679 -0.100446,0.51897322 0,0.40178576 0.351562,0.65290176 0.736607,0.65290176 0.78683,0 1.222098,-0.97098212 1.222098,-1.07142855 0,-0.0837054 -0.0837,-0.0837054 -0.117188,-0.0837054 -0.08371,0 -0.08371,0.0167411 -0.133928,0.13392857 -0.200893,0.43526786 -0.552455,0.82031258 -0.9375,0.82031258 -0.15067,0 -0.251116,-0.083705 -0.251116,-0.3348215 0,-0.0669643 0.03348,-0.21763393 0.05022,-0.28459822 z m 2.841797,1.17187495 c 0.200893,0 0.753348,-0.01674107 1.138393,-0.15066964 0.502232,-0.18415179 0.602678,-0.51897322 0.602678,-0.71986607 0,-0.38504464 -0.385044,-0.61941964 -0.853794,-0.61941964 -0.853795,0 -1.975447,0.63616071 -1.975447,1.84151785 0,0.703125 0.435268,1.30580355 1.255581,1.30580355 1.171875,0 1.72433,-0.68638391 1.72433,-0.78683034 0,-0.0334821 -0.05022,-0.1171875 -0.117187,-0.1171875 -0.03348,0 -0.05022,0.0167411 -0.100447,0.0669643 C 24.243806,1.361317 23.423493,1.361317 23.306306,1.361317 c -0.418527,0 -0.703125,-0.2678572 -0.703125,-0.83705361 0,-0.10044643 0,-0.234375 0.08371,-0.61941964 z m -0.385045,-0.20089286 c 0.30134,-1.00446429 1.071429,-1.08816959 1.272322,-1.08816959 0.301339,0 0.552455,0.1506696 0.552455,0.41852674 0,0.66964285 -1.171875,0.66964285 -1.473214,0.66964285 z m 0,0"
         style="fill:#000000;fill-opacity:1;fill-rule:nonzero;stroke:none" />
    </g>
    <path
       id="path93"
       d="M 126.1995,8.33394 V -8.33394 m 5.55583,16.66788 V -8.33394"
       style="fill:none;stroke:#000000;stroke-width:0.797;stroke-linecap:butt;stroke-linejoin:miter;stroke-miterlimit:10;stroke-dasharray:none;stroke-opacity:1"
       transform="matrix(1.3333333,0,0,-1.3333333,288.444,724.85733)" />
    <path
       id="path94"
       d="m 7.5672768,-6.9310714 c 0,-0.016741 -0.016741,-0.083705 -0.1004464,-0.083705 -0.033482,0 -0.050223,0 -0.1506697,0.1171875 l -0.703125,0.7533482 c -0.083705,-0.1339285 -0.5524553,-0.8705357 -1.6573661,-0.8705357 -2.2098214,0 -4.45312496,2.1930804 -4.45312496,4.5033482 0,1.64062503 1.17187496,2.72879467 2.69531246,2.72879467 0.8705358,0 1.623884,-0.40178571 2.1595983,-0.85379464 C 6.2782143,-1.4567411 6.445625,-2.3607589 6.445625,-2.3942411 c 0,-0.1004464 -0.1004464,-0.1004464 -0.1171875,-0.1004464 -0.066964,0 -0.1171875,0.016741 -0.1339286,0.1004464 -0.083705,0.2845982 -0.3180803,1.0044643 -1.0044643,1.57366074 -0.6863839,0.56919643 -1.3225446,0.73660715 -1.8247767,0.73660715 -0.9040179,0 -1.9587054,-0.51897322 -1.9587054,-2.07589289 0,-0.5691964 0.2008929,-2.1763393 1.2053571,-3.3482143 0.6026786,-0.703125 1.5401786,-1.2053571 2.4274554,-1.2053571 1.0212054,0 1.6071429,0.7700893 1.6071429,1.9252232 0,0.4017857 -0.033482,0.4017857 -0.033482,0.5022322 0,0.1004464 0.1171875,0.1004464 0.1506697,0.1004464 0.1339285,0 0.1339285,-0.016741 0.1841517,-0.2008929 z m 0,0"
       style="fill:#000000;fill-opacity:1;fill-rule:nonzero;stroke:none"
       aria-label="C"
       transform="matrix(0.93333333,0,0,0.93333333,456.76533,708.344)" />
    <path
       id="path95"
       d="m 179.6951,0 c 0,0.61357 -0.4974,1.11098 -1.111,1.11098 -0.61358,0 -1.11099,-0.49741 -1.11099,-1.11098 0,-0.61357 0.49741,-1.11098 1.11099,-1.11098 0.6136,0 1.111,0.49741 1.111,1.11098 z"
       style="fill:#000000;fill-opacity:1;fill-rule:nonzero;stroke:#000000;stroke-width:0.3985;stroke-linecap:butt;stroke-linejoin:miter;stroke-miterlimit:10;stroke-dasharray:none;stroke-opacity:1"
       transform="matrix(1.3333333,0,0,-1.3333333,288.444,724.85733)" />
  </g>
</svg>
