<?xml version="1.0" encoding="UTF-8" standalone="no"?>
<!-- Created with Inkscape (http://www.inkscape.org/) -->

<svg
   version="1.1"
   id="svg1"
   width="202.80249"
   height="96.384155"
   viewBox="0 0 202.80249 96.384155"
   sodipodi:docname="CircuiTikz (35).pdf"
   xmlns:inkscape="http://www.inkscape.org/namespaces/inkscape"
   xmlns:sodipodi="http://sodipodi.sourceforge.net/DTD/sodipodi-0.dtd"
   xmlns="http://www.w3.org/2000/svg"
   xmlns:svg="http://www.w3.org/2000/svg">
  <defs
     id="defs1" />
  <sodipodi:namedview
     id="namedview1"
     pagecolor="#ffffff"
     bordercolor="#000000"
     borderopacity="0.25"
     inkscape:showpageshadow="2"
     inkscape:pageopacity="0.0"
     inkscape:pagecheckerboard="0"
     inkscape:deskcolor="#d1d1d1"
     showgrid="false">
    <inkscape:page
       x="3.5230016e-07"
       y="1.4365852e-06"
       width="202.80249"
       height="96.384155"
       id="page2"
       margin="0"
       bleed="0" />
  </sodipodi:namedview>
  <g
     id="g524"
     inkscape:groupmode="layer"
     inkscape:label="5"
     transform="translate(-3648.842,-506.38281)">
    <path
       id="path593"
       d="m 0,0 v 21.43082 m 0,16.66853 v 21.42867 l 9.92166,0.0022 m 0,0 9.92101,-0.0022 8.73181,0.0022 m 22.22459,0 8.72895,-0.0022 8.73328,0.0022 m 22.2246,0 8.7275,-0.0022 9.92533,0.0022 m 0,0 9.91733,-0.0022 0.004,-24.90122 m 0,-9.7234 L 119.05606,0 H 59.53021 m 0,0 H 0"
       style="fill:none;stroke:#000000;stroke-width:0.3985;stroke-linecap:butt;stroke-linejoin:miter;stroke-miterlimit:10;stroke-dasharray:none;stroke-opacity:1"
       transform="matrix(1.3333333,0,0,-1.3333333,3660.4853,602.50133)" />
    <path
       id="path594"
       d="m -8.33394,29.764 c 0,-4.60276 3.73119,-8.33395 8.33394,-8.33395 4.60275,0 8.33394,3.73119 8.33394,8.33395 0,4.60278 -3.73119,8.33396 -8.33394,8.33396 -4.60275,0 -8.33394,-3.73118 -8.33394,-8.33396 z"
       style="fill:none;stroke:#000000;stroke-width:0.797;stroke-linecap:butt;stroke-linejoin:miter;stroke-miterlimit:10;stroke-dasharray:none;stroke-opacity:1"
       transform="matrix(1.3333333,0,0,-1.3333333,3660.4853,602.50133)" />
    <path
       id="path595"
       d="M 4.16696,29.764 C 3.48775,28.69728 2.8377,27.68053 2.08348,27.68053 1.32928,27.68053 0.67923,28.69727 0,29.764 c -0.67918,1.06673 -1.32924,2.08349 -2.08345,2.08349 -0.75421,0 -1.40425,-1.01674 -2.08348,-2.08349"
       style="fill:none;stroke:#000000;stroke-width:0.797;stroke-linecap:butt;stroke-linejoin:miter;stroke-miterlimit:10;stroke-dasharray:none;stroke-opacity:1"
       transform="matrix(1.3333333,0,0,-1.3333333,3660.4853,602.50133)" />
    <g
       id="g595"
       aria-label="V&#10;S&#10;=&#10;√"
       transform="matrix(0.93333333,0,0,0.93333333,3674.8533,564.816)">
      <path
         id="path596"
         d="m 6.2592634,-5.6747879 c 0.4854911,-0.7700893 0.9040179,-0.8035715 1.2723214,-0.8203125 0.1171875,-0.016741 0.1339286,-0.1841518 0.1339286,-0.1841518 0,-0.083705 -0.050223,-0.1171875 -0.1339286,-0.1171875 -0.2678571,0 -0.5524553,0.016741 -0.8203125,0.016741 -0.3348214,0 -0.6696428,-0.016741 -0.9877232,-0.016741 -0.050223,0 -0.1841518,0 -0.1841518,0.1841518 0,0.1004464 0.083705,0.1171875 0.1506697,0.1171875 0.2678571,0.016741 0.46875,0.1171875 0.46875,0.3348214 0,0.1506696 -0.1506697,0.3683036 -0.1506697,0.3683036 L 2.9445313,-0.92032366 2.2748884,-6.1937612 c 0,-0.1674107 0.2176339,-0.3013392 0.6863839,-0.3013392 0.1339286,0 0.2511161,0 0.2511161,-0.2008929 0,-0.083705 -0.083705,-0.1004464 -0.1506696,-0.1004464 -0.4017858,0 -0.8203125,0.016741 -1.2388393,0.016741 -0.1674107,0 -0.3683036,0 -0.5357143,0 -0.1841518,0 -0.36830359,-0.016741 -0.53571431,-0.016741 -0.0837054,0 -0.20089285,0 -0.20089285,0.1841518 0,0.1171875 0.10044642,0.1171875 0.25111607,0.1171875 0.56919639,0 0.56919639,0.083705 0.60267859,0.3348214 l 0.7868303,6.1439732 c 0.033482,0.20089285 0.066964,0.234375 0.2008929,0.234375 0.1506696,0 0.2008929,-0.0502232 0.2678571,-0.18415179 z m 0,0"
         style="fill:#000000;fill-opacity:1;fill-rule:nonzero;stroke:none" />
      <path
         id="path597"
         d="m 10.766797,-3.3268527 c 0,-0.033482 -0.01674,-0.083705 -0.08371,-0.083705 -0.05022,0 -0.05022,0 -0.15067,0.1004464 L 10.1976,-2.925067 C 9.9297433,-3.2933705 9.4944754,-3.410558 9.0592076,-3.410558 c -0.9709822,0 -1.8582589,0.7868303 -1.8582589,1.5904018 0,0.1171875 0.033482,0.3850446 0.234375,0.6529017 0.234375,0.26785718 0.5022321,0.33482146 0.9709821,0.45200896 0.1339286,0.0334821 0.4854911,0.10044643 0.6026786,0.13392858 0.2176339,0.0502232 0.6361607,0.21763392 0.6361607,0.73660714 0,0.56919643 -0.5859375,1.22209822 -1.3895089,1.22209822 -0.6026786,0 -1.3560268,-0.2176339 -1.3560268,-0.98772322 0,-0.0669643 0.016741,-0.21763393 0.050223,-0.3515625 0,-0.01674107 0,-0.03348214 0,-0.03348214 0,-0.10044643 -0.083705,-0.10044643 -0.1004464,-0.10044643 -0.1004465,0 -0.1171875,0.01674107 -0.1339286,0.15066964 L 6.3638951,1.4443527 c -0.016741,0.033482 -0.033482,0.066964 -0.033482,0.1004464 0,0.050223 0.033482,0.083705 0.1004465,0.083705 0.050223,0 0.050223,0 0.1339285,-0.083705 0.083705,-0.1004464 0.2678572,-0.3180803 0.3348215,-0.4017857 0.3850446,0.4017857 0.9207589,0.4854911 1.3392857,0.4854911 1.0546875,0 1.9084817,-0.90401789 1.9084817,-1.72433039 0,-0.30133929 -0.133928,-0.5859375 -0.2845978,-0.75334822 C 9.628404,-1.1002902 9.5112165,-1.1170312 8.6239397,-1.3346652 8.4732701,-1.3681473 8.2388951,-1.4183705 8.1719308,-1.4518527 c -0.1674107,-0.050223 -0.46875,-0.234375 -0.46875,-0.6361607 0,-0.5357143 0.6361607,-1.1049107 1.3560268,-1.1049107 0.7533482,0 1.1216514,0.4352679 1.1216514,1.0881696 0,0.1004465 -0.03348,0.2511161 -0.03348,0.3180804 0,0.1004464 0.08371,0.1004464 0.117188,0.1004464 0.100446,0 0.117187,-0.033482 0.133928,-0.1506696 z m 0,0"
         style="fill:#000000;fill-opacity:1;fill-rule:nonzero;stroke:none" />
      <path
         id="path598"
         d="m 21.196484,-3.2640737 c 0.15067,0 0.334822,0 0.334822,-0.1841517 0,-0.2008929 -0.184152,-0.2008929 -0.334822,-0.2008929 h -5.959821 c -0.133929,0 -0.334821,0 -0.334821,0.2008929 0,0.1841517 0.200892,0.1841517 0.351562,0.1841517 z m 0,1.9419643 c 0.15067,0 0.334822,0 0.334822,-0.2008928 0,-0.2008929 -0.184152,-0.2008929 -0.334822,-0.2008929 h -5.94308 c -0.15067,0 -0.351562,0 -0.351562,0.2008929 0,0.2008928 0.200892,0.2008928 0.334821,0.2008928 z m 0,0"
         style="fill:#000000;fill-opacity:1;fill-rule:nonzero;stroke:none" />
      <path
         id="path599"
         d="M 28.734152,0.28084821 26.99308,-3.6030804 C 26.926116,-3.75375 26.875893,-3.75375 26.842411,-3.75375 c -0.01674,0 -0.06696,0 -0.167411,0.083705 l -0.954241,0.703125 c -0.133929,0.1004464 -0.133929,0.1339285 -0.133929,0.1674107 0,0.050223 0.03348,0.1004464 0.100447,0.1004464 0.06696,0 0.234375,-0.1339286 0.351562,-0.2176339 0.05022,-0.050223 0.200893,-0.1506697 0.318081,-0.234375 l 1.958705,4.3191964 c 0.06696,0.1506696 0.117188,0.1506696 0.200893,0.1506696 0.15067,0 0.184152,-0.050223 0.251116,-0.2008928 l 4.520089,-9.3582589 c 0.08371,-0.1339286 0.08371,-0.1841518 0.08371,-0.2008929 0,-0.1004464 -0.08371,-0.2008929 -0.200893,-0.2008929 -0.08371,0 -0.15067,0.050223 -0.234375,0.217634 z m 0,0"
         style="fill:#000000;fill-opacity:1;fill-rule:nonzero;stroke:none" />
    </g>
    <path
       id="path600"
       d="M 0,0 H 4.981"
       style="fill:none;stroke:#000000;stroke-width:0.398;stroke-linecap:butt;stroke-linejoin:miter;stroke-miterlimit:10;stroke-dasharray:none;stroke-opacity:1"
       transform="matrix(0.93333333,0,0,-0.93333333,3705.8111,556.93867)" />
    <g
       id="g600"
       aria-label="2V&#10;rms&#10;sin(ωt+α)"
       transform="matrix(0.93333333,0,0,0.93333333,3705.8111,564.816)">
      <path
         id="path601"
         d="M 1.2738571,-0.76965402 2.3285446,-1.7908594 c 1.5401786,-1.3727678 2.1428572,-1.9084821 2.1428572,-2.9129464 0,-1.1383929 -0.8872768,-1.9252232 -2.109375,-1.9252232 -1.1216518,0 -1.85825894,0.9040178 -1.85825894,1.7912946 0,0.5691965 0.50223214,0.5691965 0.51897324,0.5691965 0.1674107,0 0.5189732,-0.1171875 0.5189732,-0.5357143 0,-0.2511161 -0.1674107,-0.5189732 -0.5189732,-0.5189732 -0.0837054,0 -0.10044646,0 -0.1339286,0.016741 0.234375,-0.6529018 0.7700893,-1.0212053 1.3392857,-1.0212053 0.9040179,0 1.3392857,0.8035714 1.3392857,1.6238839 0,0.8035714 -0.5022321,1.5904018 -1.0379464,2.2098214 L 0.60421429,-0.3678683 C 0.50376786,-0.2506808 0.50376786,-0.23393973 0.50376786,4.3526786e-4 H 4.1868036 L 4.4714018,-1.7406362 H 4.2202857 c -0.050223,0.3013393 -0.1171875,0.7366072 -0.2176339,0.88727683 -0.066964,0.0837053 -0.7198661,0.0837053 -0.9375,0.0837053 z m 0,0"
         style="fill:#000000;fill-opacity:1;fill-rule:nonzero;stroke:none" />
      <path
         id="path602"
         d="m 11.243165,-5.6747879 c 0.485491,-0.7700893 0.904018,-0.8035715 1.272322,-0.8203125 0.117187,-0.016741 0.133928,-0.1841518 0.133928,-0.1841518 0,-0.083705 -0.05022,-0.1171875 -0.133928,-0.1171875 -0.267858,0 -0.552456,0.016741 -0.820313,0.016741 -0.334821,0 -0.669643,-0.016741 -0.987723,-0.016741 -0.05022,0 -0.184152,0 -0.184152,0.1841518 0,0.1004464 0.08371,0.1171875 0.15067,0.1171875 0.267857,0.016741 0.46875,0.1171875 0.46875,0.3348214 0,0.1506696 -0.15067,0.3683036 -0.15067,0.3683036 L 7.928433,-0.92032366 7.2587902,-6.1937612 c 0,-0.1674107 0.2176339,-0.3013392 0.6863839,-0.3013392 0.1339286,0 0.2511161,0 0.2511161,-0.2008929 0,-0.083705 -0.083705,-0.1004464 -0.1506697,-0.1004464 -0.4017857,0 -0.8203125,0.016741 -1.2388392,0.016741 -0.1674108,0 -0.3683036,0 -0.5357143,0 -0.1841518,0 -0.3683036,-0.016741 -0.5357143,-0.016741 -0.083705,0 -0.2008929,0 -0.2008929,0.1841518 0,0.1171875 0.1004465,0.1171875 0.2511161,0.1171875 0.5691964,0 0.5691964,0.083705 0.6026786,0.3348214 l 0.7868303,6.1439732 c 0.033482,0.20089285 0.066964,0.234375 0.2008929,0.234375 0.1506696,0 0.2008928,-0.0502232 0.2678571,-0.18415179 z m 0,0"
         style="fill:#000000;fill-opacity:1;fill-rule:nonzero;stroke:none" />
      <path
         id="path603"
         d="m 12.431781,0.08832589 c 0,-0.05022321 0.167411,-0.66964285 0.184152,-0.703125 0.01674,-0.0669643 0.217634,-0.41852679 0.435268,-0.58593749 0.08371,-0.050223 0.267857,-0.1841518 0.569196,-0.1841518 0.06696,0 0.234375,0 0.385045,0.1004464 -0.234375,0.050223 -0.31808,0.2511161 -0.31808,0.38504468 0,0.15066964 0.133928,0.25111607 0.284598,0.25111607 0.167411,0 0.401786,-0.13392857 0.401786,-0.41852675 0,-0.3683036 -0.385045,-0.5189732 -0.753349,-0.5189732 -0.351562,0 -0.669643,0.1506696 -0.970982,0.5022321 -0.133928,-0.4352679 -0.552455,-0.5022321 -0.719866,-0.5022321 -0.267857,0 -0.435268,0.1674107 -0.552455,0.3515625 -0.167411,0.28459816 -0.251116,0.68638388 -0.251116,0.71986602 0,0.0837054 0.08371,0.0837054 0.117187,0.0837054 0.100447,0 0.100447,-0.0167411 0.15067,-0.20089286 0.100446,-0.43526786 0.234375,-0.75334826 0.502232,-0.75334826 0.184152,0 0.234375,0.1506697 0.234375,0.3348214 0,0.13392865 -0.06696,0.40178579 -0.117188,0.58593758 -0.05022,0.18415178 -0.117187,0.46875 -0.150669,0.61941964 L 11.644951,1.059308 c -0.03348,0.083705 -0.06696,0.2678572 -0.06696,0.2845983 0,0.1506696 0.117187,0.2176339 0.234375,0.2176339 0.100446,0 0.234375,-0.066964 0.301339,-0.2008929 0.01674,-0.033482 0.08371,-0.3515625 0.133928,-0.51897319 z m 5.30692,0.83705357 c -0.03348,0.15066964 -0.100447,0.38504464 -0.100447,0.41852684 0,0.1506696 0.133929,0.2176339 0.234375,0.2176339 0.133929,0 0.234375,-0.083705 0.284599,-0.1506697 0.03348,-0.066964 0.0837,-0.2845982 0.117187,-0.43526782 0.03348,-0.13392857 0.117188,-0.45200893 0.15067,-0.61941964 0.05022,-0.16741072 0.08371,-0.31808036 0.117187,-0.46875 0.08371,-0.30133929 0.08371,-0.31808036 0.217634,-0.53571429 0.234375,-0.33482143 0.569197,-0.73660715 1.121652,-0.73660715 0.385045,0 0.418527,0.3180804 0.418527,0.48549108 0,0.41852678 -0.301339,1.18861607 -0.418527,1.48995536 -0.0837,0.18415178 -0.100446,0.25111607 -0.100446,0.36830357 0,0.36830359 0.301339,0.60267859 0.652901,0.60267859 0.703125,0 1.004465,-0.95424109 1.004465,-1.07142859 0,-0.0837054 -0.08371,-0.0837054 -0.100447,-0.0837054 -0.100446,0 -0.117187,0.0334821 -0.133928,0.1171875 -0.167411,0.55245539 -0.46875,0.83705359 -0.736607,0.83705359 -0.15067,0 -0.184152,-0.083705 -0.184152,-0.234375 0,-0.16741073 0.03348,-0.25111609 0.16741,-0.56919645 0.08371,-0.21763393 0.368304,-0.95424107 0.368304,-1.33928571 0,-0.1171875 0,-0.41852674 -0.267857,-0.61941964 -0.117188,-0.083705 -0.31808,-0.1841517 -0.636161,-0.1841517 -0.636161,0 -1.021205,0.4185267 -1.238839,0.70312491 -0.05022,-0.58593741 -0.552455,-0.70312491 -0.904018,-0.70312491 -0.585937,0 -0.970982,0.3515625 -1.188616,0.63616062 -0.05022,-0.48549102 -0.452009,-0.63616062 -0.736607,-0.63616062 -0.301339,0 -0.46875,0.2176339 -0.552456,0.3850446 -0.16741,0.25111602 -0.251116,0.65290174 -0.251116,0.68638388 0,0.0837054 0.08371,0.0837054 0.117188,0.0837054 0.100446,0 0.100446,-0.0167411 0.15067,-0.20089286 0.100446,-0.41852682 0.234375,-0.75334822 0.502232,-0.75334822 0.184151,0 0.234375,0.1506697 0.234375,0.3348214 0,0.13392861 -0.06696,0.40178575 -0.117188,0.58593754 -0.05022,0.18415178 -0.117187,0.46875 -0.150669,0.61941964 L 15.562362,1.059308 c -0.03348,0.083705 -0.06696,0.2678572 -0.06696,0.2845983 0,0.1506696 0.117188,0.2176339 0.234375,0.2176339 0.117188,0 0.234375,-0.083705 0.267857,-0.1506697 0.03348,-0.066964 0.100447,-0.2845982 0.133929,-0.43526782 0.03348,-0.13392857 0.100446,-0.45200893 0.15067,-0.61941964 0.03348,-0.16741072 0.0837,-0.31808036 0.117187,-0.46875 0.08371,-0.28459822 0.08371,-0.3515625 0.284598,-0.63616072 0.200893,-0.28459822 0.535715,-0.63616072 1.054688,-0.63616072 0.401786,0 0.418527,0.3515625 0.418527,0.48549108 0,0.16741071 -0.03348,0.26785714 -0.133929,0.65290178 z m 7.052176,-2.05915176 c -0.184152,0.050223 -0.301339,0.18415176 -0.301339,0.33482141 0,0.15066964 0.15067,0.21763393 0.234375,0.21763393 0.06696,0 0.334821,-0.0334821 0.334821,-0.40178572 0,-0.45200892 -0.502232,-0.60267852 -0.920759,-0.60267852 -1.10491,0 -1.289062,0.80357138 -1.289062,1.02120531 0,0.25111607 0.15067,0.41852678 0.234375,0.50223214 0.184152,0.15066964 0.31808,0.16741071 0.803571,0.25111607 0.133929,0.0334821 0.585938,0.1171875 0.585938,0.46875 0,0.1171875 -0.0837,0.38504468 -0.368304,0.55245538 -0.267857,0.1506696 -0.619419,0.1506696 -0.703125,0.1506696 -0.284598,0 -0.669643,-0.050223 -0.837053,-0.2845982 0.234375,-0.033482 0.385044,-0.20089285 0.385044,-0.40178571 0,-0.16741071 -0.117187,-0.25111607 -0.267857,-0.25111607 -0.200893,0 -0.401785,0.15066964 -0.401785,0.46875 0,0.41852678 0.435267,0.66964288 1.121651,0.66964288 1.272322,0 1.523438,-0.87053574 1.523438,-1.15513395 0,-0.63616071 -0.703125,-0.77008929 -0.970982,-0.80357143 -0.06696,-0.0167411 -0.234375,-0.0502232 -0.284599,-0.0669643 -0.251116,-0.0502232 -0.385044,-0.18415179 -0.385044,-0.3515625 0,-0.15066965 0.133928,-0.33482142 0.284598,-0.43526782 0.184152,-0.1171875 0.435268,-0.1339286 0.552455,-0.1339286 0.15067,0 0.518974,0.016741 0.669643,0.2511161 z m 0,0"
         style="fill:#000000;fill-opacity:1;fill-rule:nonzero;stroke:none" />
      <path
         id="path604"
         d="m 29.771346,-1.9247879 c 0.217634,0.033482 1.037946,0.1841517 1.037946,0.9040178 0,0.51897323 -0.351562,0.90401787 -1.138392,0.90401787 -0.837054,0 -1.188617,-0.55245536 -1.372768,-1.40624997 -0.03348,-0.1339286 -0.05022,-0.1674107 -0.15067,-0.1674107 -0.117187,0 -0.117187,0.066964 -0.117187,0.251116 v 1.3058036 c 0,0.16741071 0,0.25111607 0.100446,0.25111607 0.05022,0 0.06696,-0.0167411 0.251116,-0.20089286 0.01674,-0.03348214 0.01674,-0.05022321 0.200893,-0.234375 0.435268,0.41852679 0.887277,0.43526786 1.08817,0.43526786 1.155133,0 1.607142,-0.66964286 1.607142,-1.38950897 0,-0.5357142 -0.301339,-0.8370535 -0.418526,-0.954241 -0.318081,-0.3180804 -0.719866,-0.3850447 -1.138393,-0.46875 -0.552456,-0.1171875 -1.222098,-0.2511161 -1.222098,-0.8203125 0,-0.3515625 0.267857,-0.7533482 1.121651,-0.7533482 1.08817,0 1.138393,0.8872767 1.155134,1.2053571 0.01674,0.083705 0.100447,0.083705 0.133929,0.083705 0.117187,0 0.117187,-0.050223 0.117187,-0.234375 v -1.0044643 c 0,-0.1674107 0,-0.2511161 -0.100446,-0.2511161 -0.05022,0 -0.06696,0 -0.200893,0.1339286 -0.03348,0.033482 -0.133929,0.1171875 -0.167411,0.1506696 -0.385044,-0.2845982 -0.78683,-0.2845982 -0.9375,-0.2845982 -1.222098,0 -1.590401,0.6696429 -1.590401,1.2388393 0,0.3348214 0.150669,0.6194196 0.418526,0.8370536 0.318081,0.2678571 0.602679,0.3180803 1.322545,0.4687504 z m 3.611886,-2.4776786 -1.389509,0.1171875 v 0.3013393 c 0.652902,0 0.736607,0.066964 0.736607,0.5524553 v 2.67857145 c 0,0.45200893 -0.100446,0.45200893 -0.770089,0.45200893 V 4.3526786e-4 c 0.31808,-0.0167410679 0.853795,-0.0334821379 1.08817,-0.0334821379 0.351562,0 0.703125,0.01674107 1.037946,0.0334821379 V -0.30090402 c -0.652902,0 -0.703125,-0.0502232 -0.703125,-0.45200893 z m 0.05022,-1.7410714 c 0,-0.3180804 -0.251116,-0.5189733 -0.535714,-0.5189733 -0.301339,0 -0.518973,0.2678572 -0.518973,0.5189733 0,0.2845982 0.217634,0.5357142 0.518973,0.5357142 0.284598,0 0.535714,-0.2008928 0.535714,-0.5357142 z m 2.046596,2.7120535 v 2.67857145 c 0,0.45200893 -0.100446,0.45200893 -0.770089,0.45200893 V 4.3526786e-4 C 35.061525,-0.0163058 35.563757,-0.03304687 35.831614,-0.03304687 c 0.267857,0 0.78683,0.01674107 1.121652,0.0334821379 V -0.30090402 c -0.669643,0 -0.77009,0 -0.77009,-0.45200893 V -2.5944308 c 0,-1.0379464 0.703125,-1.5904018 1.339286,-1.5904018 0.61942,0 0.736607,0.5357143 0.736607,1.1049107 v 2.32700895 c 0,0.45200893 -0.117187,0.45200893 -0.78683,0.45200893 V 4.3526786e-4 C 37.823801,-0.0163058 38.342775,-0.03304687 38.610632,-0.03304687 c 0.251116,0 0.770089,0.01674107 1.10491,0.0334821379 V -0.30090402 c -0.518973,0 -0.753348,0 -0.770089,-0.30133928 v -1.9084821 c 0,-0.8537947 0,-1.171875 -0.31808,-1.5234375 -0.133929,-0.1674108 -0.452009,-0.3683036 -1.037947,-0.3683036 -0.719866,0 -1.188616,0.4352678 -1.473214,1.0379464 v -1.0379464 l -1.40625,0.1171875 v 0.3013393 c 0.703125,0 0.770089,0.066964 0.770089,0.5524553 z m 9.408482,5.8258929 c 0,-0.033482 0,-0.050223 -0.16741,-0.2176339 -1.255581,-1.2555804 -1.573661,-3.14732147 -1.573661,-4.670759 0,-1.7243303 0.385045,-3.4654018 1.607143,-4.704241 0.133928,-0.1171875 0.133928,-0.1506697 0.133928,-0.1674108 0,-0.066964 -0.03348,-0.1004464 -0.100446,-0.1004464 -0.100446,0 -1.004464,0.6696429 -1.590402,1.9419643 -0.502232,1.0881696 -0.619419,2.1930804 -0.619419,3.0301339 0,0.7868304 0.100446,1.99218753 0.652901,3.11383931 0.602679,1.22209819 1.456474,1.87499999 1.55692,1.87499999 0.06696,0 0.100446,-0.033482 0.100446,-0.1004464 z m 0,0"
         style="fill:#000000;fill-opacity:1;fill-rule:nonzero;stroke:none" />
      <path
         id="path605"
         d="m 51.488701,-3.6993415 c 0,-0.4520089 -0.184152,-0.703125 -0.401786,-0.703125 -0.251116,0 -0.518973,0.234375 -0.518973,0.46875 0,0.1004464 0.05022,0.2008928 0.15067,0.3013393 0.16741,0.1506696 0.334821,0.4185268 0.334821,0.8370535 0,0.4017858 -0.184152,0.9709822 -0.485491,1.4229911 -0.301339,0.4185268 -0.669643,0.7700893 -1.138393,0.7700893 -0.569196,0 -0.887277,-0.36830357 -0.970982,-0.9040179 0.117187,-0.251116 0.334821,-0.8872767 0.334821,-1.171875 0,-0.1171875 -0.05022,-0.2176339 -0.16741,-0.2176339 -0.08371,0 -0.200893,0.016741 -0.267857,0.1674107 -0.117188,0.2008929 -0.234375,0.8537947 -0.234375,1.2053572 -0.334822,0.46875 -0.736608,0.9207589 -1.356027,0.9207589 -0.652902,0 -0.870536,-0.5859375 -0.870536,-1.1551339 0,-1.2388393 1.021205,-2.2935268 1.021205,-2.4107143 0,-0.1171875 -0.08371,-0.2008929 -0.184151,-0.2008929 -0.133929,0 -0.200893,0.1339286 -0.267858,0.217634 -0.502232,0.7533482 -0.887276,1.9252232 -0.887276,2.829241 0,0.70312503 0.234375,1.43973217 1.054687,1.43973217 0.703125,0 1.171875,-0.50223214 1.523438,-1.0546875 0.100446,0.5859375 0.485491,1.0546875 1.10491,1.0546875 0.77009,0 1.255581,-0.61941964 1.607143,-1.35602677 0.234375,-0.5022322 0.61942,-1.8415179 0.61942,-2.4609375 z m 2.590681,-0.2845982 h 0.9375 c 0.184151,0 0.284598,0 0.284598,-0.2008929 0,-0.1004464 -0.100447,-0.1004464 -0.267857,-0.1004464 h -0.887277 c 0.368304,-1.4229911 0.418527,-1.6238839 0.418527,-1.6741072 0,-0.1841517 -0.117188,-0.2678571 -0.30134,-0.2678571 -0.01674,0 -0.301339,0 -0.385044,0.3515625 l -0.401786,1.5904018 h -0.920759 c -0.200893,0 -0.301339,0 -0.301339,0.1841518 0,0.1171875 0.06696,0.1171875 0.267857,0.1171875 h 0.887277 c -0.719866,2.829241 -0.770089,2.99665175 -0.770089,3.18080354 0,0.53571429 0.385044,0.92075893 0.920758,0.92075893 1.021206,0 1.590402,-1.45647317 1.590402,-1.54017857 0,-0.1004464 -0.08371,-0.1004464 -0.117187,-0.1004464 -0.100447,0 -0.100447,0.033482 -0.15067,0.1339285 -0.435268,1.03794647 -0.954241,1.27232147 -1.305803,1.27232147 -0.200893,0 -0.30134,-0.1171875 -0.30134,-0.45200893 0,-0.234375 0.01674,-0.30133929 0.06697,-0.46875004 z m 0,0"
         style="fill:#000000;fill-opacity:1;fill-rule:nonzero;stroke:none" />
      <path
         id="path606"
         d="m 61.897462,-2.2930915 h 2.779018 c 0.15067,0 0.334821,0 0.334821,-0.2008929 0,-0.2008928 -0.184151,-0.2008928 -0.334821,-0.2008928 h -2.779018 v -2.7790179 c 0,-0.1506696 0,-0.3348214 -0.200893,-0.3348214 -0.184152,0 -0.184152,0.1841518 -0.184152,0.3348214 v 2.7790179 h -2.795759 c -0.133928,0 -0.334821,0 -0.334821,0.2008928 0,0.2008929 0.200893,0.2008929 0.334821,0.2008929 h 2.795759 v 2.79575891 c 0,0.13392857 0,0.31808036 0.184152,0.31808036 0.200893,0 0.200893,-0.18415179 0.200893,-0.31808036 z m 0,0"
         style="fill:#000000;fill-opacity:1;fill-rule:nonzero;stroke:none" />
      <path
         id="path607"
         d="m 72.548969,-2.3433147 c 0,-1.5736607 -0.9375,-2.0591518 -1.674107,-2.0591518 -1.356027,0 -2.678572,1.4229911 -2.678572,2.8292411 0,0.92075888 0.602679,1.69084817 1.623884,1.69084817 0.61942,0 1.339286,-0.234375 2.092634,-0.83705357 0.133929,0.51897321 0.46875,0.83705357 0.904018,0.83705357 0.535714,0 0.837053,-0.55245536 0.837053,-0.71986607 0,-0.0669643 -0.05022,-0.10044643 -0.117187,-0.10044643 -0.06696,0 -0.100446,0.0334821 -0.117188,0.10044643 -0.184151,0.48549107 -0.552455,0.48549107 -0.569196,0.48549107 -0.301339,0 -0.301339,-0.77008929 -0.301339,-1.00446427 0,-0.2176339 0,-0.234375 0.100446,-0.3515625 0.9375,-1.171875 1.138393,-2.3270089 1.138393,-2.34375 0,-0.016741 0,-0.1004464 -0.117187,-0.1004464 -0.100447,0 -0.100447,0.033482 -0.15067,0.2176339 -0.184152,0.6194196 -0.502232,1.3727678 -0.970982,1.9587053 z m -0.669643,1.35602675 c -0.870536,0.77008929 -1.640625,0.87053572 -2.042411,0.87053572 -0.602678,0 -0.904018,-0.43526786 -0.904018,-1.07142857 0,-0.5022321 0.267857,-1.5736607 0.585938,-2.0758929 0.46875,-0.7366071 1.004464,-0.9207589 1.356027,-0.9207589 0.987723,0 0.987723,1.3058036 0.987723,2.0758929 0,0.3683035 0,0.954241 0.01674,1.12165175 z m 0,0"
         style="fill:#000000;fill-opacity:1;fill-rule:nonzero;stroke:none" />
      <path
         id="path608"
         d="m 77.081614,-2.4939844 c 0,-0.7700893 -0.117188,-1.9754464 -0.652902,-3.0970982 -0.602679,-1.2388393 -1.456473,-1.875 -1.55692,-1.875 -0.06696,0 -0.100446,0.033482 -0.100446,0.1004464 0,0.016741 0,0.050223 0.184152,0.217634 0.987723,0.9877232 1.540178,2.578125 1.540178,4.6540178 0,1.70758931 -0.368303,3.46540181 -1.590401,4.7209822 -0.133929,0.1171875 -0.133929,0.1339285 -0.133929,0.1674107 0,0.050223 0.03348,0.1004464 0.100446,0.1004464 0.100447,0 0.987724,-0.6863839 1.573661,-1.94196427 0.518973,-1.10491072 0.636161,-2.20982143 0.636161,-3.04687503 z m 0,0"
         style="fill:#000000;fill-opacity:1;fill-rule:nonzero;stroke:none" />
    </g>
    <path
       id="path609"
       d="m 28.17494,59.52802 2.28371,4.16697 3.77035,-8.33394 3.77039,8.33394 3.77037,-8.33394 3.77037,8.33394 3.77037,-8.33394 1.8852,4.16697"
       style="fill:none;stroke:#000000;stroke-width:0.797;stroke-linecap:butt;stroke-linejoin:bevel;stroke-miterlimit:10;stroke-dasharray:none;stroke-opacity:1"
       transform="matrix(1.3333333,0,0,-1.3333333,3660.4853,602.50133)" />
    <path
       id="path610"
       d="m 3.733192,-6.1091741 c 0.066964,-0.2511161 0.083705,-0.3515625 0.2845982,-0.3683036 0.083705,-0.016741 0.4017857,-0.016741 0.6026786,-0.016741 0.703125,0 1.8080357,0 1.8080357,0.9877233 0,0.3348214 -0.1506697,1.0212053 -0.5357143,1.40625 C 5.624933,-3.8323884 5.1059598,-3.514308 4.201942,-3.514308 H 3.0802902 Z m 1.4397321,2.7287946 c 1.0044643,-0.2176339 2.1930804,-0.9207589 2.1930804,-1.9252232 0,-0.8537946 -0.9040179,-1.4899553 -2.2098215,-1.4899553 H 2.326942 c -0.2008929,0 -0.3013393,0 -0.3013393,0.2008928 0,0.1004464 0.1004464,0.1004464 0.2845982,0.1004464 0.016741,0 0.2176339,0 0.3850446,0.016741 0.1674108,0.016741 0.2678572,0.033482 0.2678572,0.1674107 0,0.033482 -0.016741,0.066964 -0.050223,0.1841518 L 1.590335,-0.76877242 c -0.1004464,0.38504464 -0.1339285,0.46875 -0.92075891,0.46875 -0.16741071,0 -0.26785714,0 -0.26785714,0.18415178 0,0.1171875 0.13392857,0.1171875 0.15066964,0.1171875 0.26785715,0 0.97098211,-0.03348214 1.25558041,-0.03348214 0.2678571,0 0.9877232,0.03348214 1.2555803,0.03348214 0.083705,0 0.2008929,0 0.2008929,-0.20089285 0,-0.10044643 -0.083705,-0.10044643 -0.2678572,-0.10044643 -0.3850446,0 -0.6529018,0 -0.6529018,-0.18415179 0,-0.0669643 0.016741,-0.1171875 0.033482,-0.16741071 L 3.030067,-3.2966741 h 1.188616 c 0.9040179,0 1.0881697,0.5524553 1.0881697,0.9040178 0,0.1506697 -0.083705,0.46875 -0.1506697,0.686384 -0.066964,0.2845982 -0.1506696,0.6529018 -0.1506696,0.85379462 0,1.07142857 1.1886161,1.07142857 1.3225446,1.07142857 0.8370536,0 1.1886161,-1.00446428 1.1886161,-1.13839285 0,-0.11718754 -0.1004464,-0.11718754 -0.1171875,-0.11718754 -0.083705,0 -0.1004464,0.0669643 -0.1339286,0.13392861 -0.251116,0.73660714 -0.6696428,0.90401785 -0.9040178,0.90401785 -0.3180804,0 -0.4017857,-0.21763392 -0.4017857,-0.60267857 0,-0.31808035 0.066964,-0.82031249 0.1004464,-1.13839289 0.033482,-0.1339285 0.050223,-0.3348214 0.050223,-0.46875 0,-0.7700893 -0.6696428,-1.0714285 -0.9374998,-1.171875 z m 0,0"
       style="fill:#000000;fill-opacity:1;fill-rule:nonzero;stroke:none"
       aria-label="R"
       transform="matrix(0.93333333,0,0,0.93333333,3709.836,512.72533)" />
    <path
       id="path611"
       d="m 67.8603,59.36862 c 0,2.30127 1.28834,4.16678 2.8776,4.16678 1.58926,0 2.8776,-1.86551 2.8776,-4.16678 0,2.30127 1.28834,4.16678 2.87759,4.16678 1.58926,0 2.87761,-1.86551 2.87761,-4.16678 0,2.30127 1.28833,4.16678 2.87759,4.16678 1.58926,0 2.8776,-1.86551 2.8776,-4.16678 0,2.30127 1.28834,4.16678 2.87759,4.16678 1.58926,0 2.87761,-1.86551 2.87761,-4.16678"
       style="fill:none;stroke:#000000;stroke-width:0.797;stroke-linecap:butt;stroke-linejoin:bevel;stroke-miterlimit:10;stroke-dasharray:none;stroke-opacity:1"
       transform="matrix(1.3333333,0,0,-1.3333333,3660.4853,602.50133)" />
    <path
       id="path612"
       d="m 3.7321987,-6.0254688 c 0.083705,-0.3515625 0.1171875,-0.46875 1.0546875,-0.46875 0.2845982,0 0.3683035,0 0.3683035,-0.1841517 0,-0.1171875 -0.1004464,-0.1171875 -0.1506696,-0.1171875 -0.3348214,0 -1.1551339,0.016741 -1.4732143,0.016741 -0.3013393,0 -1.0379464,-0.016741 -1.3392857,-0.016741 -0.066964,0 -0.1841518,0 -0.1841518,0.2008928 0,0.1004464 0.1004464,0.1004464 0.2845982,0.1004464 0.016741,0 0.2008929,0 0.3683036,0.016741 0.1841518,0.016741 0.2845982,0.033482 0.2845982,0.1674107 0,0.033482 -0.016741,0.066964 -0.050223,0.1841518 l -1.3392857,5.35714288 c -0.1004465,0.38504464 -0.1171875,0.46875 -0.90401788,0.46875 -0.16741072,0 -0.26785714,0 -0.26785714,0.18415178 0,0.1171875 0.10044642,0.1171875 0.26785714,0.1171875 H 5.2723772 c 0.234375,0 0.2511161,0 0.3013393,-0.16741071 L 6.3605469,-2.325692 c 0.050223,-0.1004464 0.050223,-0.1171875 0.050223,-0.1339285 0,-0.033482 -0.033482,-0.1171875 -0.1339286,-0.1171875 -0.083705,0 -0.1004464,0.050223 -0.1674107,0.2176339 -0.3348214,0.9207589 -0.7700893,2.05915178 -2.4944196,2.05915178 h -0.9375 c -0.1339286,0 -0.1506697,0 -0.217634,-0.0167411 -0.1004464,-0.0167411 -0.1339285,-0.0167411 -0.1339285,-0.10044643 0,-0.0334821 0,-0.0502232 0.050223,-0.234375 z m 0,0"
       style="fill:#000000;fill-opacity:1;fill-rule:nonzero;stroke:none"
       aria-label="L"
       transform="matrix(0.93333333,0,0,0.93333333,3763.1533,512.72533)" />
    <path
       id="path613"
       d="m 119.05606,34.62552 4.86153,-7.77844"
       style="fill:none;stroke:#000000;stroke-width:0.797;stroke-linecap:butt;stroke-linejoin:miter;stroke-miterlimit:10;stroke-dasharray:none;stroke-opacity:1"
       transform="matrix(1.3333333,0,0,-1.3333333,3660.4853,602.50133)" />
    <path
       id="path614"
       d="m 124.88986,34.62552 c 0,-2.08396 -1.11213,-4.01026 -2.9169,-5.05222 -0.57849,-0.334 -1.20282,-0.56222 -1.84483,-0.68223"
       style="fill:none;stroke:#000000;stroke-width:0.797;stroke-linecap:butt;stroke-linejoin:bevel;stroke-miterlimit:10;stroke-dasharray:none;stroke-opacity:1"
       transform="matrix(1.3333333,0,0,-1.3333333,3660.4853,602.50133)" />
    <path
       id="path615"
       d="m 3.1083,0 c -1.29513,0.25902 -3.62635,0.77707 -5.1805,1.94269 1.29513,-1.42464 1.29513,-2.46074 0,-3.88538 C -0.51805,-0.77707 1.81317,-0.25902 3.1083,0 Z"
       style="fill:#000000;fill-opacity:1;fill-rule:nonzero;stroke:none"
       transform="matrix(-1.3273467,0.12538667,0.12538667,1.3273467,3820.6922,563.25357)" />
    <g
       id="g615"
       aria-label="t=0"
       transform="matrix(0.93333333,0,0,0.93333333,3831.6049,564.816)">
      <path
         id="path616"
         d="m 2.0597254,-3.9839397 h 0.9375 c 0.1841518,0 0.2845983,0 0.2845983,-0.2008929 0,-0.1004464 -0.1004465,-0.1004464 -0.2678572,-0.1004464 H 2.1266897 c 0.3683036,-1.4229911 0.4185268,-1.6238839 0.4185268,-1.6741072 0,-0.1841517 -0.1171875,-0.2678571 -0.3013393,-0.2678571 -0.016741,0 -0.3013393,0 -0.3850446,0.3515625 L 1.4570469,-4.285279 H 0.53628795 c -0.20089286,0 -0.30133929,0 -0.30133929,0.1841518 0,0.1171875 0.0669643,0.1171875 0.26785714,0.1171875 h 0.8872768 c -0.71986608,2.829241 -0.7700893,2.99665175 -0.7700893,3.18080354 0,0.53571429 0.3850446,0.92075893 0.9207589,0.92075893 1.0212054,0 1.5904018,-1.45647317 1.5904018,-1.54017857 0,-0.1004464 -0.083705,-0.1004464 -0.1171875,-0.1004464 -0.1004464,0 -0.1004464,0.033482 -0.1506696,0.1339285 -0.4352679,1.03794647 -0.9542411,1.27232147 -1.3058036,1.27232147 -0.2008929,0 -0.3013393,-0.1171875 -0.3013393,-0.45200893 0,-0.234375 0.016741,-0.30133929 0.066964,-0.46875004 z m 0,0"
         style="fill:#000000;fill-opacity:1;fill-rule:nonzero;stroke:none" />
      <path
         id="path617"
         d="m 13.213464,-3.2640737 c 0.15067,0 0.334822,0 0.334822,-0.1841517 0,-0.2008929 -0.184152,-0.2008929 -0.334822,-0.2008929 H 7.2536429 c -0.1339286,0 -0.3348215,0 -0.3348215,0.2008929 0,0.1841517 0.2008929,0.1841517 0.3515625,0.1841517 z m 0,1.9419643 c 0.15067,0 0.334822,0 0.334822,-0.2008928 0,-0.2008929 -0.184152,-0.2008929 -0.334822,-0.2008929 H 7.2703839 c -0.1506696,0 -0.3515625,0 -0.3515625,0.2008929 0,0.2008928 0.2008929,0.2008928 0.3348215,0.2008928 z m 8.257534,-1.8582589 c 0,-0.8035714 -0.05022,-1.6071429 -0.401786,-2.34375 -0.452009,-0.9542411 -1.272321,-1.1049107 -1.690848,-1.1049107 -0.602679,0 -1.322545,0.2511161 -1.741072,1.1886161 -0.31808,0.6863839 -0.368303,1.4564732 -0.368303,2.2600446 0,0.7366071 0.05022,1.640625 0.452009,2.39397321 0.435268,0.80357143 1.155134,1.00446429 1.640625,1.00446429 0.535714,0 1.305803,-0.20089286 1.741071,-1.15513393 0.318081,-0.68638397 0.368304,-1.45647317 0.368304,-2.24330357 z M 19.361623,4.3526786e-4 c -0.385045,0 -0.970982,-0.25111606786 -1.155134,-1.20535716786 -0.100447,-0.6026785 -0.100447,-1.5066964 -0.100447,-2.109375 0,-0.6361607 0,-1.2890625 0.06696,-1.8247768 0.200893,-1.188616 0.9375,-1.2723214 1.188616,-1.2723214 0.334821,0 0.987723,0.1841518 1.171875,1.1551339 0.100446,0.5691965 0.100446,1.3225447 0.100446,1.9419643 0,0.7533482 0,1.4397322 -0.100446,2.0758929 -0.15067,0.93749998 -0.719866,1.23883926786 -1.171875,1.23883926786 z m 0,0"
         style="fill:#000000;fill-opacity:1;fill-rule:nonzero;stroke:none" />
    </g>
  </g>
</svg>
