<?xml version="1.0" encoding="UTF-8" standalone="no"?>
<!-- Created with Inkscape (http://www.inkscape.org/) -->

<svg
   version="1.1"
   id="svg1"
   width="216.35547"
   height="163.8208"
   viewBox="0 0 216.35547 163.8208"
   sodipodi:docname="CircuiTikz (40).pdf"
   xmlns:inkscape="http://www.inkscape.org/namespaces/inkscape"
   xmlns:sodipodi="http://sodipodi.sourceforge.net/DTD/sodipodi-0.dtd"
   xmlns="http://www.w3.org/2000/svg"
   xmlns:svg="http://www.w3.org/2000/svg">
  <defs
     id="defs1" />
  <sodipodi:namedview
     id="namedview1"
     pagecolor="#ffffff"
     bordercolor="#000000"
     borderopacity="0.25"
     inkscape:showpageshadow="2"
     inkscape:pageopacity="0.0"
     inkscape:pagecheckerboard="0"
     inkscape:deskcolor="#d1d1d1">
    <inkscape:page
       x="-1.7293092e-06"
       y="3.1989837e-06"
       width="216.35547"
       height="163.8208"
       id="page2"
       margin="0"
       bleed="0" />
  </sodipodi:namedview>
  <g
     id="g524"
     inkscape:groupmode="layer"
     inkscape:label="5"
     transform="translate(-3643.3164,-670.79687)">
    <path
       id="path619"
       d="m 0,0 v 21.43082 m 0,16.66853 v 21.42867 l 9.92166,0.0022 m 0,0 9.92101,-0.0022 28.57523,0.0022 m 22.2246,0 28.5709,-0.0022 9.92533,0.0022 m 0,0 9.91733,-0.0022 0.004,-24.90122 m 0,-9.7234 L 119.05606,0 H 59.53021 m 0,0 H 0"
       style="fill:none;stroke:#000000;stroke-width:0.3985;stroke-linecap:butt;stroke-linejoin:miter;stroke-miterlimit:10;stroke-dasharray:none;stroke-opacity:1"
       transform="matrix(1.3333333,0,0,-1.3333333,3668.5147,834.352)" />
    <path
       id="path620"
       d="m -8.33394,29.764 c 0,-4.60276 3.73119,-8.33395 8.33394,-8.33395 4.60275,0 8.33394,3.73119 8.33394,8.33395 0,4.60278 -3.73119,8.33396 -8.33394,8.33396 -4.60275,0 -8.33394,-3.73118 -8.33394,-8.33396 z"
       style="fill:none;stroke:#000000;stroke-width:0.797;stroke-linecap:butt;stroke-linejoin:miter;stroke-miterlimit:10;stroke-dasharray:none;stroke-opacity:1"
       transform="matrix(1.3333333,0,0,-1.3333333,3668.5147,834.352)" />
    <path
       id="path621"
       d="M 4.16696,29.764 C 3.48775,28.69728 2.8377,27.68053 2.08348,27.68053 1.32928,27.68053 0.67923,28.69727 0,29.764 c -0.67918,1.06673 -1.32924,2.08349 -2.08345,2.08349 -0.75421,0 -1.40425,-1.01674 -2.08348,-2.08349"
       style="fill:none;stroke:#000000;stroke-width:0.797;stroke-linecap:butt;stroke-linejoin:miter;stroke-miterlimit:10;stroke-dasharray:none;stroke-opacity:1"
       transform="matrix(1.3333333,0,0,-1.3333333,3668.5147,834.352)" />
    <g
       id="g621"
       aria-label="E&#10;g"
       transform="matrix(0.93333333,0,0,0.93333333,3642.9573,796.668)">
      <path
         id="path622"
         d="m 7.0476674,-2.3270424 c 0.016741,-0.050223 0.050223,-0.1171875 0.050223,-0.1339286 0,-0.016741 0,-0.1171875 -0.1171875,-0.1171875 -0.083705,0 -0.1004464,0.066964 -0.1339285,0.1339286 -0.6361608,1.47321427 -1.0044643,2.14285713 -2.7120536,2.14285713 h -1.456473 c -0.1339286,0 -0.1506697,0 -0.217634,-0.0167411 -0.1004464,-0.0167411 -0.1339285,-0.0167411 -0.1339285,-0.10044643 0,-0.0334821 0,-0.0502232 0.050223,-0.234375 l 0.6863841,-2.7120535 h 0.9877232 c 0.8370536,0 0.8370536,0.2008928 0.8370536,0.4520089 0,0.066964 0,0.2008928 -0.066964,0.4854911 -0.016741,0.050223 -0.033482,0.083705 -0.033482,0.1171875 0,0.050223 0.050223,0.1171875 0.1339285,0.1171875 0.083705,0 0.1004465,-0.050223 0.1506697,-0.2008929 l 0.5691964,-2.34375 c 0,-0.050223 -0.050223,-0.1004464 -0.1171875,-0.1004464 -0.1004464,0 -0.1171875,0.050223 -0.1506696,0.1841518 -0.2008929,0.7533482 -0.3850447,0.9709821 -1.3058036,0.9709821 h -0.9375 L 3.7329357,-6.0770424 C 3.8166407,-6.4286049 3.8333821,-6.4620871 4.26865,-6.4620871 H 5.6749 c 1.2220982,0 1.5234375,0.2845983 1.5234375,1.1049108 0,0.234375 0,0.251116 -0.050223,0.5189732 0,0.066964 0,0.1339285 0,0.1841518 0,0.050223 0.016741,0.1171875 0.1171875,0.1171875 0.1004465,0 0.1171875,-0.050223 0.1339286,-0.2511161 L 7.6001228,-6.5123103 C 7.6336049,-6.7801674 7.5833817,-6.7801674 7.3322656,-6.7801674 H 2.2932031 c -0.1841518,0 -0.2845982,0 -0.2845982,0.2008928 0,0.1171875 0.083705,0.1171875 0.2678572,0.1171875 0.3683035,0 0.6529017,0 0.6529017,0.1841518 0,0.033482 0,0.050223 -0.050223,0.234375 L 1.556596,-0.77012277 c -0.1004464,0.38504464 -0.1171875,0.46875 -0.90401788,0.46875 -0.16741071,0 -0.26785714,0 -0.26785714,0.18415179 0,0.117187497857 0.0837054,0.117187497857 0.26785714,0.117187497857 H 5.8255692 c 0.234375,0 0.234375,-0.01674106786 0.3180804,-0.167410717857 z m 0,0"
         style="fill:#000000;fill-opacity:1;fill-rule:nonzero;stroke:none" />
      <path
         id="path623"
         d="m 11.06971,-1.0840179 c 0.03348,-0.1004464 0.03348,-0.1339285 0.03348,-0.1506696 0,-0.1506696 -0.133929,-0.2176339 -0.251116,-0.2176339 -0.15067,0 -0.284598,0.1339285 -0.31808,0.2678571 C 10.416808,-1.3686161 10.182433,-1.58625 9.8141295,-1.58625 c -0.8705358,0 -1.7912947,0.9375 -1.7912947,1.94196429 0,0.71986611 0.5022322,1.13839281 1.0714286,1.13839281 0.3180803,0 0.6194196,-0.1674107 0.8705357,-0.3850446 L 9.8141295,1.7452232 C 9.7304241,2.0465625 9.6802009,2.2307143 9.4123437,2.4650893 9.1110045,2.7162054 8.8096652,2.7162054 8.6422545,2.7162054 c -0.3180804,0 -0.4185268,-0.016741 -0.5357143,-0.050223 0.1674107,-0.083705 0.2176339,-0.251116 0.2176339,-0.3348214 0,-0.1674107 -0.1339286,-0.2678571 -0.2678571,-0.2678571 -0.2008929,0 -0.4017858,0.1674107 -0.4017858,0.4352678 0,0.4185268 0.6026786,0.4185268 0.9877233,0.4185268 1.1049107,0 1.5736605,-0.5524553 1.6573665,-0.9542411 z M 10.098728,0.57334821 C 10.081987,0.67379464 10.081987,0.69053571 9.9647991,0.82446429 9.713683,1.1090625 9.3788616,1.2932143 9.1110045,1.2932143 c -0.3515625,0 -0.5189733,-0.3013393 -0.5189733,-0.6529018 0,-0.31808036 0.1841518,-1.08816964 0.3683036,-1.40625 0.2845982,-0.4854911 0.6194197,-0.6194196 0.8537947,-0.6194196 0.4854915,0 0.6194195,0.51897317 0.6194195,0.58593746 0,0.0167411 0,0.0334821 -0.01674,0.10044643 z m 0,0"
         style="fill:#000000;fill-opacity:1;fill-rule:nonzero;stroke:none" />
    </g>
    <path
       id="path624"
       d="m 48.01762,59.36862 c 0,2.30127 1.28835,4.16678 2.87761,4.16678 1.58925,0 2.8776,-1.86551 2.8776,-4.16678 0,2.30127 1.28833,4.16678 2.87759,4.16678 1.58927,0 2.8776,-1.86551 2.8776,-4.16678 0,2.30127 1.28834,4.16678 2.8776,4.16678 1.58925,0 2.8776,-1.86551 2.8776,-4.16678 0,2.30127 1.28833,4.16678 2.87759,4.16678 1.58927,0 2.87759,-1.86551 2.87759,-4.16678"
       style="fill:none;stroke:#000000;stroke-width:0.797;stroke-linecap:butt;stroke-linejoin:bevel;stroke-miterlimit:10;stroke-dasharray:none;stroke-opacity:1"
       transform="matrix(1.3333333,0,0,-1.3333333,3668.5147,834.352)" />
    <g
       id="g624"
       aria-label="X&#10;′&#10;d"
       transform="matrix(0.93333333,0,0,0.93333333,3741.8705,730.72667)">
      <path
         id="path625"
         d="M 4.8387701,-4.1016741 4.0017165,-6.0771205 c -0.033482,-0.083705 -0.050223,-0.1171875 -0.050223,-0.1339286 0,-0.050223 0.1674107,-0.2511161 0.5859375,-0.2845982 0.1004464,-0.016741 0.2008929,-0.016741 0.2008929,-0.1841518 0,-0.1171875 -0.1339286,-0.1171875 -0.1506697,-0.1171875 -0.4185268,0 -0.8370536,0.016741 -1.2555803,0.016741 -0.2511161,0 -0.8705358,-0.016741 -1.1216518,-0.016741 -0.050223,0 -0.1841518,0 -0.1841518,0.2008928 0,0.1004465 0.1004464,0.1004465 0.234375,0.1004465 0.6026786,0 0.6529018,0.1004464 0.7533482,0.3180803 l 1.171875,2.7790179 -2.109375,2.2600446 -0.1171875,0.1171875 c -0.5022321,0.51897325 -0.9542411,0.68638396 -1.47321428,0.71986611 -0.13392857,0 -0.21763393,0 -0.21763393,0.18415178 0,0.0167411 0,0.11718750286 0.13392857,0.11718750286 0.30133929,0 0.61941964,-0.0334821429 0.93750004,-0.0334821429 0.3683035,0 0.7533482,0.0334821429 1.1049107,0.0334821429 0.066964,0 0.1841518,0 0.1841518,-0.20089285286 0,-0.10044643 -0.1004465,-0.10044643 -0.1171875,-0.10044643 -0.083705,-0.0167411 -0.4017858,-0.0334821 -0.4017858,-0.31808036 0,-0.15066964 0.1506697,-0.31808036 0.2678572,-0.45200895 l 1.0212053,-1.0714286 0.8872768,-0.9709821 1.0212054,2.37723215 c 0.033482,0.1171875 0.050223,0.1171875 0.050223,0.13392857 0,0.0837054 -0.2008929,0.25111607 -0.5859375,0.30133929 -0.1171875,0 -0.2008929,0.0167411 -0.2008929,0.18415178 0,0.11718750286 0.1171875,0.11718750286 0.1506697,0.11718750286 0.2845982,0 0.9709821,-0.0334821429 1.2555803,-0.0334821429 0.2511161,0 0.8537947,0.0334821429 1.1049108,0.0334821429 0.066964,0 0.1841517,0 0.1841517,-0.18415178286 0,-0.1171875 -0.1004464,-0.1171875 -0.1674107,-0.1171875 C 6.4291719,-0.31819196 6.4124308,-0.35167411 6.228279,-0.75345982 5.8432344,-1.6742188 5.1735915,-3.2311384 4.9559576,-3.8170759 c 0.6696428,-0.703125 1.7243303,-1.8917411 2.0424107,-2.1763393 0.2845982,-0.234375 0.6696429,-0.46875 1.2555804,-0.5022321 0.1339285,-0.016741 0.2176339,-0.016741 0.2176339,-0.2008929 0,0 0,-0.1004464 -0.1171875,-0.1004464 -0.3013393,0 -0.6361607,0.016741 -0.9375,0.016741 -0.3683036,0 -0.7533482,-0.016741 -1.1049107,-0.016741 -0.066964,0 -0.2008929,0 -0.2008929,0.2008928 0,0.066964 0.050223,0.083705 0.1171875,0.1004465 0.1004464,0.016741 0.4017857,0.033482 0.4017857,0.3180803 0,0.1339286 -0.1004464,0.2678572 -0.1841518,0.3515625 z m 0,0"
         style="fill:#000000;fill-opacity:1;fill-rule:nonzero;stroke:none" />
      <path
         id="path626"
         d="m 11.062263,-6.9141741 c 0.05022,-0.1171875 0.06696,-0.1674107 0.06696,-0.2176339 0,-0.217634 -0.200893,-0.3850447 -0.418527,-0.3850447 -0.267857,0 -0.351563,0.2176339 -0.385045,0.3180804 l -0.9207587,3.0301339 c 0,0.016741 -0.033482,0.1004464 -0.033482,0.1171875 0,0.083705 0.2176339,0.1506696 0.2678571,0.1506696 0.050223,0 0.066964,-0.016741 0.1171875,-0.1171875 z m 0,0"
         style="fill:#000000;fill-opacity:1;fill-rule:nonzero;stroke:none" />
      <path
         id="path627"
         d="m 12.238324,-1.8165179 c 0.01674,-0.016741 0.03348,-0.1004464 0.03348,-0.1171875 0,-0.033482 -0.03348,-0.083705 -0.117188,-0.083705 -0.133928,0 -0.719866,0.050223 -0.887276,0.066964 -0.06696,0 -0.15067,0.016741 -0.15067,0.1506696 0,0.1004464 0.08371,0.1004464 0.167411,0.1004464 0.334821,0 0.334821,0.050223 0.334821,0.1004465 0,0.050223 0,0.1004464 -0.01674,0.1674107 l -0.401786,1.59040177 c -0.150669,-0.234375 -0.385044,-0.41852678 -0.719866,-0.41852678 -0.8872766,0 -1.8080356,0.98772321 -1.8080356,1.99218751 0,0.6696428 0.46875,1.1551339 1.0546875,1.1551339 0.3850451,0 0.7198661,-0.2176339 1.0044641,-0.4854911 0.133929,0.4185268 0.535715,0.4854911 0.719866,0.4854911 0.251116,0 0.418527,-0.1506696 0.552456,-0.3683036 0.150669,-0.2678571 0.234375,-0.6696428 0.234375,-0.703125 0,-0.083705 -0.08371,-0.083705 -0.117188,-0.083705 -0.08371,0 -0.100446,0.033482 -0.150669,0.2176339 -0.08371,0.3348214 -0.217634,0.7366072 -0.502233,0.7366072 -0.184151,0 -0.234375,-0.1506697 -0.234375,-0.3348215 0,-0.1339285 0.01674,-0.2008928 0.03348,-0.2845982 z m -1.489956,3.7667411 c -0.05022,0.2008929 -0.200893,0.3348214 -0.351562,0.46875 -0.06696,0.050223 -0.334822,0.2678572 -0.6361609,0.2678572 -0.2678572,0 -0.5189732,-0.1674108 -0.5189732,-0.6696429 0,-0.3683036 0.2008928,-1.13839286 0.3683035,-1.42299107 0.3180804,-0.55245536 0.6696426,-0.65290179 0.8705356,-0.65290179 0.485491,0 0.61942,0.51897322 0.61942,0.60267857 0,0.0334821 -0.01674,0.0837054 -0.01674,0.10044643 z m 0,0"
         style="fill:#000000;fill-opacity:1;fill-rule:nonzero;stroke:none" />
    </g>
    <path
       id="path628"
       d="M 0,0 H 73.382"
       style="fill:none;stroke:#000000;stroke-width:0.398;stroke-linecap:butt;stroke-linejoin:miter;stroke-miterlimit:10;stroke-dasharray:none;stroke-opacity:1"
       transform="matrix(0.93333333,0,0,-0.93333333,3713.6447,734.69333)" />
    <g
       id="g628"
       aria-label="(e&#10;−t/τ&#10;′&#10;−e&#10;−t/τ&#10;′′&#10;)"
       transform="matrix(0.93333333,0,0,0.93333333,3713.6447,743.5628)">
      <path
         id="path629"
         d="m 3.297846,2.3936518 c 0,-0.033482 0,-0.050223 -0.1674107,-0.2176339 -1.2555804,-1.2555804 -1.5736607,-3.14732147 -1.5736607,-4.670759 0,-1.7243303 0.3850446,-3.4654018 1.6071428,-4.704241 0.1339286,-0.1171875 0.1339286,-0.1506697 0.1339286,-0.1674108 0,-0.066964 -0.033482,-0.1004464 -0.1004464,-0.1004464 -0.1004465,0 -1.0044643,0.6696429 -1.5904018,1.9419643 -0.5022322,1.0881696 -0.61941968,2.1930804 -0.61941968,3.0301339 0,0.7868304 0.10044648,1.99218753 0.65290178,3.11383931 0.6026786,1.22209819 1.4564732,1.87499999 1.5569197,1.87499999 0.066964,0 0.1004464,-0.033482 0.1004464,-0.1004464 z m 0,0"
         style="fill:#000000;fill-opacity:1;fill-rule:nonzero;stroke:none" />
      <path
         id="path630"
         d="m 5.7336719,-2.2938482 c 0.3013393,0 1.0379464,-0.033482 1.5234375,-0.234375 0.703125,-0.3013393 0.7533482,-0.8872768 0.7533482,-1.0212054 0,-0.4520089 -0.3850447,-0.8537946 -1.0714286,-0.8537946 -1.1049107,0 -2.6116071,0.9709821 -2.6116071,2.7120536 0,1.02120531 0.5859375,1.80803567 1.5736607,1.80803567 1.4229911,0 2.2600446,-1.07142857 2.2600446,-1.18861607 0,-0.050223 -0.066964,-0.1171875 -0.1171875,-0.1171875 -0.050223,0 -0.066964,0.016741 -0.1339285,0.1004464 -0.7868304,0.97098217 -1.875,0.97098217 -1.9921875,0.97098217 -0.7700893,0 -0.8705358,-0.83705357 -0.8705358,-1.15513397 0,-0.1171875 0.016741,-0.4185267 0.1674108,-1.0212053 z m -0.46875,-0.234375 c 0.4017857,-1.5066964 1.422991,-1.6573661 1.6741071,-1.6573661 0.46875,0 0.7366072,0.2845982 0.7366072,0.6361607 0,1.0212054 -1.5904018,1.0212054 -1.9921875,1.0212054 z m 0,0"
         style="fill:#000000;fill-opacity:1;fill-rule:nonzero;stroke:none" />
      <path
         id="path631"
         d="m 13.702422,-4.4534464 c 0.117187,0 0.284598,0 0.284598,-0.1674107 0,-0.1841518 -0.167411,-0.1841518 -0.284598,-0.1841518 H 9.5506362 c -0.1171875,0 -0.2845983,0 -0.2845983,0.1674107 0,0.1841518 0.1674108,0.1841518 0.2845983,0.1841518 z m 0,0"
         style="fill:#000000;fill-opacity:1;fill-rule:nonzero;stroke:none" />
      <path
         id="path632"
         d="m 16.464699,-5.6420625 h 0.703125 c 0.133928,0 0.217634,0 0.217634,-0.1506696 0,-0.1004465 -0.08371,-0.1004465 -0.200893,-0.1004465 h -0.669643 l 0.267857,-1.0212053 c 0,-0.050223 0.01674,-0.083705 0.01674,-0.1004465 0,-0.1339285 -0.100446,-0.234375 -0.234375,-0.234375 -0.184152,0 -0.284598,0.1171875 -0.334821,0.3013393 -0.05022,0.1841518 0.05022,-0.1506696 -0.267857,1.0546875 h -0.703125 c -0.133929,0 -0.217634,0 -0.217634,0.1506697 0,0.1004464 0.08371,0.1004464 0.200892,0.1004464 h 0.669643 l -0.418526,1.6573661 c -0.03348,0.1674107 -0.100447,0.4185268 -0.100447,0.5189732 0,0.4017857 0.351563,0.6529018 0.736607,0.6529018 0.786831,0 1.222098,-0.9709822 1.222098,-1.0714286 0,-0.083705 -0.0837,-0.083705 -0.117187,-0.083705 -0.08371,0 -0.08371,0.016741 -0.133929,0.1339286 -0.200892,0.4352679 -0.552455,0.8203125 -0.9375,0.8203125 -0.150669,0 -0.251116,-0.083705 -0.251116,-0.3348214 0,-0.066964 0.03348,-0.2176339 0.05022,-0.2845982 z m 4.783761,-2.1595982 c 0.03348,-0.1004464 0.03348,-0.1171875 0.03348,-0.1339286 0,-0.1171875 -0.08371,-0.1841518 -0.167411,-0.1841518 -0.117187,0 -0.150669,0.083705 -0.184152,0.1841518 l -2.594866,6.4955357 c -0.05022,0.083705 -0.05022,0.1004465 -0.05022,0.1339286 0,0.1004464 0.100447,0.1674107 0.167411,0.1674107 0.117187,0 0.15067,-0.083705 0.184152,-0.1674107 z m 2.975725,2.3939732 h 1.305804 c 0.06696,0 0.368303,0 0.368303,-0.2845982 0,-0.2008929 -0.184151,-0.2008929 -0.301339,-0.2008929 h -2.209821 c -0.200893,0 -0.418527,0.016741 -0.786831,0.3515625 -0.200893,0.1841518 -0.452009,0.5524554 -0.452009,0.6026786 0,0.083705 0.08371,0.083705 0.117188,0.083705 0.06696,0 0.0837,0 0.117187,-0.066964 0.368304,-0.4854911 0.786831,-0.4854911 0.954241,-0.4854911 h 0.61942 l -0.703125,2.2265625 c -0.03348,0.1171875 -0.03348,0.1171875 -0.03348,0.1674107 0,0.1841518 0.184152,0.2176339 0.234375,0.2176339 0.267857,0 0.31808,-0.251116 0.334821,-0.3515625 z m 0,0"
         style="fill:#000000;fill-opacity:1;fill-rule:nonzero;stroke:none" />
      <path
         id="path633"
         d="m 28.103929,-7.1989821 c 0.01674,0 0.05022,-0.1004465 0.05022,-0.1674108 0,-0.1841517 -0.15067,-0.3013392 -0.30134,-0.3013392 -0.200892,0 -0.267857,0.1674107 -0.284598,0.234375 l -0.770089,2.1595982 c -0.01674,0.066964 -0.01674,0.083705 -0.01674,0.083705 0,0.083705 0.200893,0.1339286 0.217634,0.1339286 0.03348,0 0.05022,-0.033482 0.08371,-0.083705 z m 0,0"
         style="fill:#000000;fill-opacity:1;fill-rule:nonzero;stroke:none" />
      <path
         id="path634"
         d="m 38.2825,-2.2938482 c 0.167411,0 0.351562,0 0.351562,-0.2008929 0,-0.2008928 -0.184151,-0.2008928 -0.351562,-0.2008928 h -5.390625 c -0.167411,0 -0.351563,0 -0.351563,0.2008928 0,0.2008929 0.184152,0.2008929 0.351563,0.2008929 z m 0,0"
         style="fill:#000000;fill-opacity:1;fill-rule:nonzero;stroke:none" />
      <path
         id="path635"
         d="m 43.539196,-2.2938482 c 0.30134,0 1.037947,-0.033482 1.523438,-0.234375 0.703125,-0.3013393 0.753348,-0.8872768 0.753348,-1.0212054 0,-0.4520089 -0.385045,-0.8537946 -1.071428,-0.8537946 -1.104911,0 -2.611608,0.9709821 -2.611608,2.7120536 0,1.02120531 0.585938,1.80803567 1.573661,1.80803567 1.422991,0 2.260045,-1.07142857 2.260045,-1.18861607 0,-0.050223 -0.06697,-0.1171875 -0.117188,-0.1171875 -0.05022,0 -0.06696,0.016741 -0.133928,0.1004464 -0.786831,0.97098217 -1.875,0.97098217 -1.992188,0.97098217 -0.770089,0 -0.870536,-0.83705357 -0.870536,-1.15513397 0,-0.1171875 0.01674,-0.4185267 0.167411,-1.0212053 z m -0.46875,-0.234375 c 0.401786,-1.5066964 1.422991,-1.6573661 1.674108,-1.6573661 0.46875,0 0.736607,0.2845982 0.736607,0.6361607 0,1.0212054 -1.590402,1.0212054 -1.992188,1.0212054 z m 0,0"
         style="fill:#000000;fill-opacity:1;fill-rule:nonzero;stroke:none" />
      <path
         id="path636"
         d="m 51.507946,-4.4534464 c 0.117188,0 0.284599,0 0.284599,-0.1674107 0,-0.1841518 -0.167411,-0.1841518 -0.284599,-0.1841518 h -4.151785 c -0.117188,0 -0.284599,0 -0.284599,0.1674107 0,0.1841518 0.167411,0.1841518 0.284599,0.1841518 z m 0,0"
         style="fill:#000000;fill-opacity:1;fill-rule:nonzero;stroke:none" />
      <path
         id="path637"
         d="m 54.270223,-5.6420625 h 0.703125 c 0.133929,0 0.217634,0 0.217634,-0.1506696 0,-0.1004465 -0.0837,-0.1004465 -0.200893,-0.1004465 h -0.669643 l 0.267858,-1.0212053 c 0,-0.050223 0.01674,-0.083705 0.01674,-0.1004465 0,-0.1339285 -0.100447,-0.234375 -0.234375,-0.234375 -0.184152,0 -0.284599,0.1171875 -0.334822,0.3013393 -0.05022,0.1841518 0.05022,-0.1506696 -0.267857,1.0546875 h -0.703125 c -0.133929,0 -0.217634,0 -0.217634,0.1506697 0,0.1004464 0.08371,0.1004464 0.200893,0.1004464 h 0.669643 l -0.418527,1.6573661 c -0.03348,0.1674107 -0.100446,0.4185268 -0.100446,0.5189732 0,0.4017857 0.351562,0.6529018 0.736607,0.6529018 0.78683,0 1.222098,-0.9709822 1.222098,-1.0714286 0,-0.083705 -0.08371,-0.083705 -0.117188,-0.083705 -0.08371,0 -0.08371,0.016741 -0.133928,0.1339286 -0.200893,0.4352679 -0.552455,0.8203125 -0.9375,0.8203125 -0.15067,0 -0.251116,-0.083705 -0.251116,-0.3348214 0,-0.066964 0.03348,-0.2176339 0.05022,-0.2845982 z m 4.783761,-2.1595982 c 0.03348,-0.1004464 0.03348,-0.1171875 0.03348,-0.1339286 0,-0.1171875 -0.08371,-0.1841518 -0.167411,-0.1841518 -0.117188,0 -0.15067,0.083705 -0.184152,0.1841518 l -2.594866,6.4955357 c -0.05022,0.083705 -0.05022,0.1004465 -0.05022,0.1339286 0,0.1004464 0.100446,0.1674107 0.16741,0.1674107 0.117188,0 0.15067,-0.083705 0.184152,-0.1674107 z m 2.979911,2.3939732 h 1.305804 c 0.06696,0 0.368303,0 0.368303,-0.2845982 0,-0.2008929 -0.184152,-0.2008929 -0.301339,-0.2008929 h -2.209821 c -0.200893,0 -0.418527,0.016741 -0.786831,0.3515625 -0.200893,0.1841518 -0.452009,0.5524554 -0.452009,0.6026786 0,0.083705 0.08371,0.083705 0.117188,0.083705 0.06696,0 0.08371,0 0.117187,-0.066964 0.368304,-0.4854911 0.786831,-0.4854911 0.954241,-0.4854911 h 0.61942 l -0.703125,2.2265625 c -0.03348,0.1171875 -0.03348,0.1171875 -0.03348,0.1674107 0,0.1841518 0.184152,0.2176339 0.234375,0.2176339 0.267857,0 0.31808,-0.251116 0.334821,-0.3515625 z m 0,0"
         style="fill:#000000;fill-opacity:1;fill-rule:nonzero;stroke:none" />
      <path
         id="path638"
         d="m 65.909453,-7.1989821 c 0.01674,0 0.05022,-0.1004465 0.05022,-0.1674108 0,-0.1841517 -0.150669,-0.3013392 -0.301339,-0.3013392 -0.200893,0 -0.267857,0.1674107 -0.284598,0.234375 l -0.770089,2.1595982 c -0.01674,0.066964 -0.01674,0.083705 -0.01674,0.083705 0,0.083705 0.200893,0.1339286 0.217634,0.1339286 0.03348,0 0.05022,-0.033482 0.08371,-0.083705 z m 2.197266,0 c 0.01674,0 0.05022,-0.1004465 0.05022,-0.1674108 0,-0.1841517 -0.15067,-0.3013392 -0.301339,-0.3013392 -0.200893,0 -0.267857,0.1674107 -0.284599,0.234375 l -0.770089,2.1595982 c -0.01674,0.066964 -0.01674,0.083705 -0.01674,0.083705 0,0.083705 0.200893,0.1339286 0.217634,0.1339286 0.03348,0 0.05022,-0.033482 0.08371,-0.083705 z m 0,0"
         style="fill:#000000;fill-opacity:1;fill-rule:nonzero;stroke:none" />
      <path
         id="path639"
         d="m 72.388248,-2.4947411 c 0,-0.7700893 -0.117188,-1.9754464 -0.652902,-3.0970982 -0.602679,-1.2388393 -1.456473,-1.875 -1.55692,-1.875 -0.06696,0 -0.100446,0.033482 -0.100446,0.1004464 0,0.016741 0,0.050223 0.184152,0.217634 0.987723,0.9877232 1.540178,2.578125 1.540178,4.6540178 0,1.70758931 -0.368303,3.46540181 -1.590402,4.7209822 -0.133928,0.1171875 -0.133928,0.1339285 -0.133928,0.1674107 0,0.050223 0.03348,0.1004464 0.100446,0.1004464 0.100447,0 0.987724,-0.6863839 1.573661,-1.94196427 0.518973,-1.10491072 0.636161,-2.20982143 0.636161,-3.04687503 z m 0,0"
         style="fill:#000000;fill-opacity:1;fill-rule:nonzero;stroke:none" />
    </g>
    <path
       id="path640"
       d="m 119.05606,34.62552 4.86153,-7.77844"
       style="fill:none;stroke:#000000;stroke-width:0.797;stroke-linecap:butt;stroke-linejoin:miter;stroke-miterlimit:10;stroke-dasharray:none;stroke-opacity:1"
       transform="matrix(1.3333333,0,0,-1.3333333,3668.5147,834.352)" />
    <path
       id="path641"
       d="m 124.88986,34.62552 c 0,-2.08396 -1.11213,-4.01026 -2.9169,-5.05222 -0.57849,-0.334 -1.20282,-0.56222 -1.84483,-0.68223"
       style="fill:none;stroke:#000000;stroke-width:0.797;stroke-linecap:butt;stroke-linejoin:bevel;stroke-miterlimit:10;stroke-dasharray:none;stroke-opacity:1"
       transform="matrix(1.3333333,0,0,-1.3333333,3668.5147,834.352)" />
    <path
       id="path642"
       d="m 3.1083,0 c -1.29513,0.25902 -3.62635,0.77707 -5.1805,1.94269 1.29513,-1.42464 1.29513,-2.46074 0,-3.88538 C -0.51805,-0.77707 1.81317,-0.25902 3.1083,0 Z"
       style="fill:#000000;fill-opacity:1;fill-rule:nonzero;stroke:none"
       transform="matrix(-1.3273467,0.12538667,0.12538667,1.3273467,3828.7215,795.10424)" />
    <g
       id="g642"
       aria-label="t=0"
       transform="matrix(0.93333333,0,0,0.93333333,3839.6343,796.668)">
      <path
         id="path643"
         d="m 2.0575938,-3.9844085 h 0.9375 c 0.1841517,0 0.2845982,0 0.2845982,-0.2008928 0,-0.1004465 -0.1004465,-0.1004465 -0.2678572,-0.1004465 H 2.124558 c 0.3683036,-1.422991 0.4185268,-1.6238839 0.4185268,-1.6741071 0,-0.1841518 -0.1171875,-0.2678572 -0.3013393,-0.2678572 -0.016741,0 -0.3013392,0 -0.3850446,0.3515625 L 1.4549152,-4.2857478 H 0.53415625 c -0.20089286,0 -0.30133929,0 -0.30133929,0.1841518 0,0.1171875 0.0669643,0.1171875 0.26785715,0.1171875 H 1.3879509 c -0.71986608,2.8292411 -0.77008929,2.9966518 -0.77008929,3.18080359 0,0.53571428 0.38504469,0.92075893 0.92075889,0.92075893 1.0212054,0 1.5904018,-1.45647322 1.5904018,-1.54017862 0,-0.1004464 -0.083705,-0.1004464 -0.1171875,-0.1004464 -0.1004464,0 -0.1004464,0.033482 -0.1506696,0.1339286 -0.4352679,1.03794642 -0.9542411,1.27232142 -1.3058036,1.27232142 -0.2008928,0 -0.3013393,-0.1171875 -0.3013393,-0.45200893 0,-0.234375 0.016741,-0.30133929 0.066964,-0.46874999 z m 0,0"
         style="fill:#000000;fill-opacity:1;fill-rule:nonzero;stroke:none" />
      <path
         id="path644"
         d="m 13.211333,-3.2645424 c 0.150669,0 0.334821,0 0.334821,-0.1841518 0,-0.2008929 -0.184152,-0.2008929 -0.334821,-0.2008929 H 7.2515112 c -0.1339286,0 -0.3348215,0 -0.3348215,0.2008929 0,0.1841518 0.2008929,0.1841518 0.3515625,0.1841518 z m 0,1.9419643 c 0.150669,0 0.334821,0 0.334821,-0.2008929 0,-0.2008928 -0.184152,-0.2008928 -0.334821,-0.2008928 H 7.2682522 c -0.1506696,0 -0.3515625,0 -0.3515625,0.2008928 0,0.2008929 0.2008929,0.2008929 0.3348215,0.2008929 z m 8.257533,-1.858259 c 0,-0.8035714 -0.05022,-1.6071428 -0.401786,-2.34375 -0.452009,-0.954241 -1.272321,-1.1049107 -1.690848,-1.1049107 -0.602678,0 -1.322544,0.2511161 -1.741071,1.1886161 -0.318081,0.6863839 -0.368304,1.4564732 -0.368304,2.2600446 0,0.7366072 0.05022,1.640625 0.452009,2.39397326 0.435268,0.80357143 1.155134,1.00446429 1.640625,1.00446429 0.535714,0 1.305804,-0.20089286 1.741072,-1.15513393 0.31808,-0.68638392 0.368303,-1.45647322 0.368303,-2.24330362 z M 19.359491,-3.3482143e-5 c -0.385045,0 -0.970982,-0.251116067857 -1.155134,-1.205357117857 -0.100446,-0.6026786 -0.100446,-1.5066965 -0.100446,-2.109375 0,-0.6361607 0,-1.2890625 0.06696,-1.8247768 0.200893,-1.1886161 0.9375,-1.2723214 1.188616,-1.2723214 0.334822,0 0.987723,0.1841517 1.171875,1.1551339 0.100447,0.5691964 0.100447,1.3225446 0.100447,1.9419643 0,0.7533482 0,1.4397321 -0.100447,2.0758928 -0.15067,0.93750003 -0.719866,1.238839317857 -1.171875,1.238839317857 z m 0,0"
         style="fill:#000000;fill-opacity:1;fill-rule:nonzero;stroke:none" />
    </g>
    <path
       id="path645"
       d="m 19.84267,59.52802 7e-4,19.84559 m 0,0 -7e-4,19.83979 28.57523,0.0036 m 22.2246,0 28.5709,-0.0036 0.0036,-19.83979 m 0,0 -0.0036,-19.84559"
       style="fill:none;stroke:#000000;stroke-width:0.3985;stroke-linecap:butt;stroke-linejoin:miter;stroke-miterlimit:10;stroke-dasharray:none;stroke-opacity:1"
       transform="matrix(1.3333333,0,0,-1.3333333,3668.5147,834.352)" />
    <path
       id="path646"
       d="m 48.01762,99.05399 c 0,2.30125 1.28835,4.16677 2.87761,4.16677 1.58925,0 2.8776,-1.86552 2.8776,-4.16677 0,2.30125 1.28833,4.16677 2.87759,4.16677 1.58927,0 2.8776,-1.86552 2.8776,-4.16677 0,2.30125 1.28834,4.16677 2.8776,4.16677 1.58925,0 2.8776,-1.86552 2.8776,-4.16677 0,2.30125 1.28833,4.16677 2.87759,4.16677 1.58927,0 2.87759,-1.86552 2.87759,-4.16677"
       style="fill:none;stroke:#000000;stroke-width:0.797;stroke-linecap:butt;stroke-linejoin:bevel;stroke-miterlimit:10;stroke-dasharray:none;stroke-opacity:1"
       transform="matrix(1.3333333,0,0,-1.3333333,3668.5147,834.352)" />
    <g
       id="g646"
       aria-label="X&#10;′′&#10;d"
       transform="matrix(0.93333333,0,0,0.93333333,3741.2951,677.81067)">
      <path
         id="path647"
         d="M 4.8401071,-4.0995982 4.0030536,-6.0750446 c -0.033482,-0.083705 -0.050223,-0.1171875 -0.050223,-0.1339286 0,-0.050223 0.1674107,-0.2511161 0.5859375,-0.2845982 0.1004464,-0.016741 0.2008928,-0.016741 0.2008928,-0.1841518 0,-0.1171875 -0.1339286,-0.1171875 -0.1506696,-0.1171875 -0.4185268,0 -0.8370536,0.016741 -1.2555804,0.016741 -0.2511161,0 -0.8705357,-0.016741 -1.1216518,-0.016741 -0.050223,0 -0.1841518,0 -0.1841518,0.2008928 0,0.1004465 0.1004465,0.1004465 0.234375,0.1004465 0.6026786,0 0.6529018,0.1004464 0.7533483,0.3180803 l 1.171875,2.7790179 -2.109375,2.2600446 -0.1171875,0.1171875 c -0.5022322,0.51897324 -0.9542411,0.68638396 -1.47321433,0.7198661 -0.13392857,0 -0.21763393,0 -0.21763393,0.18415179 0,0.01674107 0,0.1171875 0.13392857,0.1171875 0.30133929,0 0.61941969,-0.03348215 0.93749999,-0.03348215 0.3683036,0 0.7533482,0.03348215 1.1049107,0.03348215 0.066964,0 0.1841518,0 0.1841518,-0.20089286 0,-0.10044643 -0.1004464,-0.10044643 -0.1171875,-0.10044643 -0.083705,-0.0167411 -0.4017857,-0.0334821 -0.4017857,-0.31808036 0,-0.15066964 0.1506696,-0.31808035 0.2678571,-0.45200894 L 3.400375,-2.1408929 4.2876518,-3.111875 5.3088571,-0.73464286 c 0.033482,0.1171875 0.050223,0.1171875 0.050223,0.13392857 0,0.0837054 -0.2008929,0.25111608 -0.5859375,0.30133929 -0.1171875,0 -0.2008929,0.0167411 -0.2008929,0.18415179 0,0.1171875 0.1171875,0.1171875 0.1506696,0.1171875 0.2845983,0 0.9709822,-0.03348215 1.2555804,-0.03348215 0.2511161,0 0.8537946,0.03348215 1.1049107,0.03348215 0.066964,0 0.1841518,0 0.1841518,-0.18415179 0,-0.1171875 -0.1004464,-0.1171875 -0.1674107,-0.1171875 C 6.4305089,-0.31611607 6.4137679,-0.34959821 6.2296161,-0.75138393 5.8445714,-1.6721429 5.1749286,-3.2290625 4.9572946,-3.815 5.6269375,-4.518125 6.681625,-5.7067411 6.9997054,-5.9913393 c 0.2845982,-0.234375 0.6696428,-0.46875 1.2555803,-0.5022321 0.1339286,-0.016741 0.2176339,-0.016741 0.2176339,-0.2008929 0,0 0,-0.1004464 -0.1171875,-0.1004464 -0.3013392,0 -0.6361607,0.016741 -0.9375,0.016741 -0.3683035,0 -0.7533482,-0.016741 -1.1049107,-0.016741 -0.066964,0 -0.2008928,0 -0.2008928,0.2008928 0,0.066964 0.050223,0.083705 0.1171875,0.1004465 0.1004464,0.016741 0.4017857,0.033482 0.4017857,0.3180803 0,0.1339286 -0.1004464,0.2678572 -0.1841518,0.3515625 z m 0,0"
         style="fill:#000000;fill-opacity:1;fill-rule:nonzero;stroke:none" />
      <path
         id="path648"
         d="m 11.0636,-6.9120982 c 0.05022,-0.1171875 0.06697,-0.1674107 0.06697,-0.2176339 0,-0.217634 -0.200893,-0.3850447 -0.418527,-0.3850447 -0.267857,0 -0.351563,0.2176339 -0.385045,0.3180804 l -0.9207586,3.0301339 c 0,0.016741 -0.033482,0.1004464 -0.033482,0.1171875 0,0.083705 0.217634,0.1506696 0.2678572,0.1506696 0.050223,0 0.066964,-0.016741 0.1171875,-0.1171875 z m 2.293527,0 c 0.05022,-0.1171875 0.06696,-0.1674107 0.06696,-0.2176339 0,-0.217634 -0.200893,-0.3850447 -0.418527,-0.3850447 -0.267857,0 -0.351563,0.2176339 -0.385045,0.3180804 l -0.920759,3.0301339 c 0,0.016741 -0.03348,0.1004464 -0.03348,0.1171875 0,0.083705 0.217634,0.1506696 0.267857,0.1506696 0.05022,0 0.06696,-0.016741 0.117188,-0.1171875 z m 0,0"
         style="fill:#000000;fill-opacity:1;fill-rule:nonzero;stroke:none" />
      <path
         id="path649"
         d="m 12.239661,-1.814442 c 0.01674,-0.016741 0.03348,-0.1004464 0.03348,-0.1171875 0,-0.033482 -0.03348,-0.083705 -0.117188,-0.083705 -0.133928,0 -0.719866,0.050223 -0.887276,0.066964 -0.06696,0 -0.15067,0.016741 -0.15067,0.1506696 0,0.1004464 0.08371,0.1004464 0.167411,0.1004464 0.334821,0 0.334821,0.050223 0.334821,0.1004465 0,0.050223 0,0.1004464 -0.01674,0.1674107 l -0.401786,1.59040176 c -0.150669,-0.234375 -0.385044,-0.41852678 -0.719866,-0.41852678 -0.8872766,0 -1.8080355,0.98772321 -1.8080355,1.99218752 0,0.6696428 0.46875,1.1551339 1.0546875,1.1551339 0.385045,0 0.719866,-0.2176339 1.004464,-0.4854911 0.133929,0.4185268 0.535715,0.4854911 0.719866,0.4854911 0.251116,0 0.418527,-0.1506696 0.552456,-0.3683036 0.150669,-0.2678571 0.234375,-0.6696428 0.234375,-0.703125 0,-0.083705 -0.08371,-0.083705 -0.117188,-0.083705 -0.08371,0 -0.100446,0.033482 -0.150669,0.2176339 -0.08371,0.3348214 -0.217634,0.7366071 -0.502233,0.7366071 -0.184151,0 -0.234375,-0.1506696 -0.234375,-0.3348214 0,-0.1339286 0.01674,-0.2008928 0.03348,-0.2845982 z m -1.489956,3.7667411 c -0.05022,0.2008929 -0.200893,0.3348214 -0.351562,0.46875 -0.06696,0.050223 -0.334822,0.2678571 -0.6361609,0.2678571 -0.2678571,0 -0.5189732,-0.1674107 -0.5189732,-0.6696428 0,-0.3683036 0.2008929,-1.13839286 0.3683036,-1.42299108 0.3180804,-0.55245536 0.6696425,-0.65290178 0.8705355,-0.65290178 0.485491,0 0.61942,0.51897321 0.61942,0.60267857 0,0.0334821 -0.01674,0.0837054 -0.01674,0.10044643 z m 0,0"
         style="fill:#000000;fill-opacity:1;fill-rule:nonzero;stroke:none" />
    </g>
    <path
       id="path650"
       d="M 0,0 H 35.575"
       style="fill:none;stroke:#000000;stroke-width:0.398;stroke-linecap:butt;stroke-linejoin:miter;stroke-miterlimit:10;stroke-dasharray:none;stroke-opacity:1"
       transform="matrix(0.93333333,0,0,-0.93333333,3731.286,681.7764)" />
    <g
       id="g650"
       aria-label="(e&#10;−t/τ&#10;′′&#10;)"
       transform="matrix(0.93333333,0,0,0.93333333,3731.286,690.6468)">
      <path
         id="path651"
         d="m 3.2970871,2.3957277 c 0,-0.033482 0,-0.050223 -0.1674108,-0.217634 C 1.874096,0.92251339 1.5560156,-0.96922768 1.5560156,-2.4926652 c 0,-1.7243303 0.3850447,-3.4654018 1.6071429,-4.7042411 0.1339286,-0.1171875 0.1339286,-0.1506696 0.1339286,-0.1674107 0,-0.066964 -0.033482,-0.1004464 -0.1004465,-0.1004464 -0.1004464,0 -1.0044643,0.6696429 -1.5904018,1.9419643 -0.5022321,1.0881696 -0.6194196,2.1930803 -0.6194196,3.0301339 0,0.7868304 0.1004464,1.99218752 0.6529018,3.11383931 0.6026786,1.22209819 1.4564732,1.87499999 1.5569196,1.87499999 0.066964,0 0.1004465,-0.033482 0.1004465,-0.1004464 z m 0,0"
         style="fill:#000000;fill-opacity:1;fill-rule:nonzero;stroke:none" />
      <path
         id="path652"
         d="m 5.7329129,-2.2917723 c 0.3013393,0 1.0379465,-0.033482 1.5234375,-0.234375 0.703125,-0.3013393 0.7533483,-0.8872768 0.7533483,-1.0212054 0,-0.4520089 -0.3850447,-0.8537946 -1.0714286,-0.8537946 -1.1049107,0 -2.6116072,0.9709821 -2.6116072,2.7120535 0,1.02120541 0.5859375,1.80803576 1.5736608,1.80803576 1.422991,0 2.2600446,-1.07142857 2.2600446,-1.18861606 0,-0.050223 -0.066964,-0.1171875 -0.1171875,-0.1171875 -0.050223,0 -0.066964,0.016741 -0.1339286,0.1004464 -0.7868303,0.97098216 -1.875,0.97098216 -1.9921875,0.97098216 -0.7700893,0 -0.8705357,-0.83705357 -0.8705357,-1.15513396 0,-0.1171875 0.016741,-0.4185268 0.1674107,-1.0212053 z m -0.46875,-0.234375 c 0.4017858,-1.5066965 1.4229911,-1.6573661 1.6741072,-1.6573661 0.46875,0 0.7366071,0.2845982 0.7366071,0.6361607 0,1.0212054 -1.5904018,1.0212054 -1.9921875,1.0212054 z m 0,0"
         style="fill:#000000;fill-opacity:1;fill-rule:nonzero;stroke:none" />
      <path
         id="path653"
         d="m 13.701663,-4.4513705 c 0.117187,0 0.284598,0 0.284598,-0.1674108 0,-0.1841517 -0.167411,-0.1841517 -0.284598,-0.1841517 H 9.5498772 c -0.1171875,0 -0.2845982,0 -0.2845982,0.1674107 0,0.1841518 0.1674107,0.1841518 0.2845982,0.1841518 z m 0,0"
         style="fill:#000000;fill-opacity:1;fill-rule:nonzero;stroke:none" />
      <path
         id="path654"
         d="m 16.46394,-5.6399866 h 0.703125 c 0.133928,0 0.217634,0 0.217634,-0.1506697 0,-0.1004464 -0.08371,-0.1004464 -0.200893,-0.1004464 H 16.514163 L 16.78202,-6.912308 c 0,-0.050223 0.01674,-0.083705 0.01674,-0.1004465 0,-0.1339285 -0.100446,-0.234375 -0.234375,-0.234375 -0.184152,0 -0.284598,0.1171875 -0.334821,0.3013393 -0.05022,0.1841518 0.05022,-0.1506696 -0.267857,1.0546875 h -0.703125 c -0.133929,0 -0.217634,0 -0.217634,0.1506697 0,0.1004464 0.08371,0.1004464 0.200893,0.1004464 h 0.669642 l -0.418526,1.6573661 c -0.03348,0.1674107 -0.100447,0.4185267 -0.100447,0.5189732 0,0.4017857 0.351563,0.6529018 0.736607,0.6529018 0.786831,0 1.222099,-0.9709822 1.222099,-1.0714286 0,-0.083705 -0.08371,-0.083705 -0.117188,-0.083705 -0.0837,0 -0.0837,0.016741 -0.133929,0.1339286 -0.200892,0.4352679 -0.552455,0.8203125 -0.9375,0.8203125 -0.150669,0 -0.251116,-0.083705 -0.251116,-0.3348214 0,-0.066964 0.03348,-0.217634 0.05022,-0.2845982 z m 4.783761,-2.1595982 c 0.03348,-0.1004465 0.03348,-0.1171875 0.03348,-0.1339286 0,-0.1171875 -0.0837,-0.1841518 -0.167411,-0.1841518 -0.117187,0 -0.150669,0.083705 -0.184151,0.1841518 l -2.594867,6.4955357 c -0.05022,0.083705 -0.05022,0.1004464 -0.05022,0.1339286 0,0.1004464 0.100447,0.1674107 0.167411,0.1674107 0.117187,0 0.15067,-0.083705 0.184152,-0.1674107 z m 2.979911,2.3939732 h 1.305803 c 0.06696,0 0.368304,0 0.368304,-0.2845982 0,-0.2008929 -0.184152,-0.2008929 -0.30134,-0.2008929 h -2.209821 c -0.200893,0 -0.418527,0.016741 -0.78683,0.3515625 -0.200893,0.1841518 -0.452009,0.5524554 -0.452009,0.6026786 0,0.083705 0.0837,0.083705 0.117187,0.083705 0.06696,0 0.08371,0 0.117188,-0.066964 0.368303,-0.4854911 0.78683,-0.4854911 0.954241,-0.4854911 h 0.619419 l -0.703125,2.2265625 c -0.03348,0.1171875 -0.03348,0.1171875 -0.03348,0.1674107 0,0.1841518 0.184152,0.2176339 0.234375,0.2176339 0.267857,0 0.318081,-0.251116 0.334822,-0.3515625 z m 0,0"
         style="fill:#000000;fill-opacity:1;fill-rule:nonzero;stroke:none" />
      <path
         id="path655"
         d="m 28.10317,-7.1969063 c 0.01674,0 0.05022,-0.1004464 0.05022,-0.1674107 0,-0.1841518 -0.15067,-0.3013393 -0.301339,-0.3013393 -0.200893,0 -0.267858,0.1674108 -0.284599,0.234375 l -0.770089,2.1595983 c -0.01674,0.066964 -0.01674,0.083705 -0.01674,0.083705 0,0.083705 0.200893,0.1339286 0.217634,0.1339286 0.03348,0 0.05022,-0.033482 0.0837,-0.083705 z m 2.197265,0 c 0.01674,0 0.05022,-0.1004464 0.05022,-0.1674107 0,-0.1841518 -0.150669,-0.3013393 -0.301339,-0.3013393 -0.200893,0 -0.267857,0.1674108 -0.284598,0.234375 l -0.770089,2.1595983 c -0.01674,0.066964 -0.01674,0.083705 -0.01674,0.083705 0,0.083705 0.200892,0.1339286 0.217634,0.1339286 0.03348,0 0.05022,-0.033482 0.0837,-0.083705 z m 0,0"
         style="fill:#000000;fill-opacity:1;fill-rule:nonzero;stroke:none" />
      <path
         id="path656"
         d="m 34.581964,-2.4926652 c 0,-0.7700893 -0.117187,-1.9754464 -0.652902,-3.0970982 -0.602678,-1.2388393 -1.456473,-1.875 -1.556919,-1.875 -0.06696,0 -0.100447,0.033482 -0.100447,0.1004464 0,0.016741 0,0.050223 0.184152,0.217634 0.987723,0.9877232 1.540179,2.578125 1.540179,4.6540178 0,1.70758931 -0.368304,3.46540181 -1.590402,4.7209822 -0.133929,0.1171875 -0.133929,0.1339285 -0.133929,0.1674107 0,0.050223 0.03348,0.1004464 0.100447,0.1004464 0.100446,0 0.987723,-0.6863839 1.573661,-1.94196428 0.518973,-1.10491071 0.63616,-2.20982142 0.63616,-3.04687502 z m 0,0"
         style="fill:#000000;fill-opacity:1;fill-rule:nonzero;stroke:none" />
    </g>
    <path
       id="path657"
       d="m 19.84267,59.52802 7e-4,-19.84124 m 0,0 -7e-4,-19.84411 28.57523,7e-4 m 22.2246,0 28.5709,-7e-4 0.0036,19.84411 m 0,0 -0.0036,19.84124"
       style="fill:none;stroke:#000000;stroke-width:0.3985;stroke-linecap:butt;stroke-linejoin:miter;stroke-miterlimit:10;stroke-dasharray:none;stroke-opacity:1"
       transform="matrix(1.3333333,0,0,-1.3333333,3668.5147,834.352)" />
    <path
       id="path658"
       d="m 48.01762,19.68326 c 0,2.30125 1.28835,4.16676 2.87761,4.16676 1.58925,0 2.8776,-1.86551 2.8776,-4.16676 0,2.30125 1.28833,4.16676 2.87759,4.16676 1.58927,0 2.8776,-1.86551 2.8776,-4.16676 0,2.30125 1.28834,4.16676 2.8776,4.16676 1.58925,0 2.8776,-1.86551 2.8776,-4.16676 0,2.30125 1.28833,4.16676 2.87759,4.16676 1.58927,0 2.87759,-1.86551 2.87759,-4.16676"
       style="fill:none;stroke:#000000;stroke-width:0.797;stroke-linecap:butt;stroke-linejoin:bevel;stroke-miterlimit:10;stroke-dasharray:none;stroke-opacity:1"
       transform="matrix(1.3333333,0,0,-1.3333333,3668.5147,834.352)" />
    <g
       id="g658"
       aria-label="X&#10;d"
       transform="matrix(0.93333333,0,0,0.93333333,3741.8691,783.64267)">
      <path
         id="path659"
         d="M 4.8361562,-4.0995647 3.9991027,-6.0750112 c -0.033482,-0.083705 -0.050223,-0.1171875 -0.050223,-0.1339285 0,-0.050223 0.1674107,-0.2511161 0.5859375,-0.2845982 0.1004464,-0.016741 0.2008928,-0.016741 0.2008928,-0.1841518 0,-0.1171875 -0.1339286,-0.1171875 -0.1506696,-0.1171875 -0.4185268,0 -0.8370536,0.016741 -1.2555804,0.016741 -0.2511161,0 -0.8705357,-0.016741 -1.1216518,-0.016741 -0.050223,0 -0.1841518,0 -0.1841518,0.2008928 0,0.1004465 0.1004465,0.1004465 0.234375,0.1004465 0.6026786,0 0.6529018,0.1004464 0.7533483,0.3180803 l 1.171875,2.7790179 -2.109375,2.2600446 -0.1171875,0.1171875 c -0.5022322,0.51897322 -0.9542411,0.68638394 -1.47321432,0.71986608 -0.13392857,0 -0.21763393,0 -0.21763393,0.18415179 0,0.01674107 0,0.1171875 0.13392857,0.1171875 0.30133929,0 0.61941968,-0.03348215 0.93749998,-0.03348215 0.3683036,0 0.7533482,0.03348215 1.1049107,0.03348215 0.066964,0 0.1841518,0 0.1841518,-0.20089286 0,-0.10044643 -0.1004464,-0.10044643 -0.1171875,-0.10044643 -0.083705,-0.0167411 -0.4017857,-0.0334821 -0.4017857,-0.31808036 0,-0.15066964 0.1506696,-0.31808035 0.2678571,-0.45200892 l 1.0212054,-1.0714286 0.8872768,-0.9709821 1.0212053,2.37723212 c 0.033482,0.1171875 0.050223,0.1171875 0.050223,0.13392858 0,0.0837054 -0.2008929,0.25111607 -0.5859375,0.30133928 -0.1171875,0 -0.2008929,0.0167411 -0.2008929,0.18415179 0,0.1171875 0.1171875,0.1171875 0.1506696,0.1171875 0.2845983,0 0.9709822,-0.03348215 1.2555804,-0.03348215 0.2511161,0 0.8537946,0.03348215 1.1049107,0.03348215 0.066964,0 0.1841518,0 0.1841518,-0.18415179 0,-0.1171875 -0.1004464,-0.1171875 -0.1674107,-0.1171875 C 6.426558,-0.31608259 6.409817,-0.34956473 6.2256652,-0.75135045 5.8406205,-1.6721094 5.1709777,-3.229029 4.9533437,-3.8149665 c 0.6696429,-0.703125 1.7243304,-1.8917411 2.0424108,-2.1763393 0.2845982,-0.234375 0.6696428,-0.46875 1.2555803,-0.5022321 0.1339286,-0.016741 0.2176339,-0.016741 0.2176339,-0.2008929 0,0 0,-0.1004464 -0.1171875,-0.1004464 -0.3013392,0 -0.6361607,0.016741 -0.9375,0.016741 -0.3683035,0 -0.7533482,-0.016741 -1.1049107,-0.016741 -0.066964,0 -0.2008928,0 -0.2008928,0.2008928 0,0.066964 0.050223,0.083705 0.1171875,0.1004465 0.1004464,0.016741 0.4017857,0.033482 0.4017857,0.3180803 0,0.1339286 -0.1004464,0.2678572 -0.1841518,0.3515625 z m 0,0"
         style="fill:#000000;fill-opacity:1;fill-rule:nonzero;stroke:none" />
      <path
         id="path660"
         d="m 12.239895,-3.1411384 c 0.01674,-0.016741 0.03348,-0.1004464 0.03348,-0.1171875 0,-0.033482 -0.03348,-0.083705 -0.117187,-0.083705 -0.133929,0 -0.719866,0.050223 -0.887277,0.066964 -0.06696,0 -0.15067,0.016741 -0.15067,0.1506697 0,0.1004464 0.08371,0.1004464 0.167411,0.1004464 0.334821,0 0.334821,0.050223 0.334821,0.1004464 0,0.050223 0,0.1004465 -0.01674,0.1674107 l -0.401785,1.5904018 c -0.15067,-0.234375 -0.385045,-0.4185268 -0.719866,-0.4185268 -0.8872772,0 -1.8080361,0.98772326 -1.8080361,1.99218755 0,0.66964285 0.46875,1.15513395 1.0546875,1.15513395 0.3850446,0 0.7198656,-0.217634 1.0044646,-0.4854911 0.133928,0.4185268 0.535714,0.4854911 0.719866,0.4854911 0.251116,0 0.418527,-0.1506697 0.552455,-0.3683036 0.15067,-0.26785714 0.234375,-0.66964285 0.234375,-0.70312499 0,-0.0837054 -0.08371,-0.0837054 -0.117187,-0.0837054 -0.08371,0 -0.100447,0.0334821 -0.15067,0.21763393 -0.08371,0.33482143 -0.217634,0.73660716 -0.502232,0.73660716 -0.184152,0 -0.234375,-0.1506696 -0.234375,-0.3348214 0,-0.13392862 0.01674,-0.2008929 0.03348,-0.28459826 z M 10.74994,0.62560268 c -0.05022,0.20089286 -0.200893,0.33482143 -0.351563,0.46875002 -0.06696,0.050223 -0.334821,0.2678571 -0.6361605,0.2678571 -0.2678571,0 -0.5189732,-0.1674107 -0.5189732,-0.66964284 0,-0.36830357 0.2008929,-1.13839285 0.3683036,-1.42299107 0.3180803,-0.55245539 0.6696431,-0.65290179 0.8705361,-0.65290179 0.485491,0 0.619419,0.51897322 0.619419,0.60267858 0,0.0334821 -0.01674,0.0837054 -0.01674,0.10044643 z m 0,0"
         style="fill:#000000;fill-opacity:1;fill-rule:nonzero;stroke:none" />
    </g>
    <path
       id="path661"
       d="M 0,0 H 50.537"
       style="fill:none;stroke:#000000;stroke-width:0.398;stroke-linecap:butt;stroke-linejoin:miter;stroke-miterlimit:10;stroke-dasharray:none;stroke-opacity:1"
       transform="matrix(0.93333333,0,0,-0.93333333,3724.3047,787.60933)" />
    <g
       id="g661"
       aria-label="(1−e&#10;−t/τ&#10;′&#10;)"
       transform="matrix(0.93333333,0,0,0.93333333,3724.3047,796.4788)">
      <path
         id="path662"
         d="m 3.2980134,2.3957612 c 0,-0.033482 0,-0.050223 -0.1674107,-0.217634 C 1.8750223,0.92254687 1.556942,-0.9691942 1.556942,-2.4926317 c 0,-1.7243304 0.3850446,-3.4654018 1.6071428,-4.7042411 0.1339286,-0.1171875 0.1339286,-0.1506696 0.1339286,-0.1674107 0,-0.066964 -0.033482,-0.1004464 -0.1004464,-0.1004464 -0.1004465,0 -1.0044643,0.6696428 -1.5904018,1.9419643 -0.5022322,1.0881696 -0.61941966,2.1930803 -0.61941966,3.0301339 0,0.7868304 0.10044646,1.9921875 0.65290176,3.11383929 0.6026786,1.22209821 1.4564732,1.87500001 1.5569197,1.87500001 0.066964,0 0.1004464,-0.033482 0.1004464,-0.1004464 z m 3.5072545,-8.7723215 c 0,-0.234375 0,-0.251116 -0.234375,-0.251116 -0.6194197,0.6361607 -1.4899554,0.6361607 -1.8080358,0.6361607 v 0.3013393 c 0.2008929,0 0.7868304,0 1.3058036,-0.2511161 v 5.15624999 c 0,0.3515625 -0.033482,0.48549107 -0.9207589,0.48549107 H 4.8298214 V 0.00178795 C 5.1646429,-0.0316942 6.0351786,-0.0316942 6.4369643,-0.0316942 c 0.4017857,0 1.2555803,0 1.6071428,0.03348215 V -0.29955134 H 7.7260268 c -0.8872768,0 -0.9207589,-0.1171875 -0.9207589,-0.48549107 z m 0,0"
         style="fill:#000000;fill-opacity:1;fill-rule:nonzero;stroke:none" />
      <path
         id="path663"
         d="m 17.632556,-2.2917388 c 0.167411,0 0.351562,0 0.351562,-0.2008929 0,-0.2008929 -0.184151,-0.2008929 -0.351562,-0.2008929 h -5.390625 c -0.167411,0 -0.351563,0 -0.351563,0.2008929 0,0.2008929 0.184152,0.2008929 0.351563,0.2008929 z m 0,0"
         style="fill:#000000;fill-opacity:1;fill-rule:nonzero;stroke:none" />
      <path
         id="path664"
         d="m 22.889252,-2.2917388 c 0.30134,0 1.037947,-0.033482 1.523438,-0.234375 0.703125,-0.3013393 0.753348,-0.8872768 0.753348,-1.0212054 0,-0.4520089 -0.385045,-0.8537946 -1.071429,-0.8537946 -1.10491,0 -2.611607,0.9709821 -2.611607,2.7120535 0,1.02120539 0.585938,1.80803575 1.573661,1.80803575 1.422991,0 2.260045,-1.07142858 2.260045,-1.18861605 0,-0.050223 -0.06696,-0.1171875 -0.117188,-0.1171875 -0.05022,0 -0.06696,0.016741 -0.133928,0.1004464 -0.786831,0.97098215 -1.875,0.97098215 -1.992188,0.97098215 -0.770089,0 -0.870536,-0.83705358 -0.870536,-1.15513395 0,-0.1171875 0.01674,-0.4185268 0.167411,-1.0212053 z m -0.46875,-0.234375 c 0.401786,-1.5066965 1.422991,-1.6573661 1.674107,-1.6573661 0.46875,0 0.736608,0.2845982 0.736608,0.6361607 0,1.0212054 -1.590402,1.0212054 -1.992188,1.0212054 z m 0,0"
         style="fill:#000000;fill-opacity:1;fill-rule:nonzero;stroke:none" />
      <path
         id="path665"
         d="m 30.862187,-4.4513371 c 0.117188,0 0.284599,0 0.284599,-0.1674107 0,-0.1841518 -0.167411,-0.1841518 -0.284599,-0.1841518 h -4.151785 c -0.117188,0 -0.284598,0 -0.284598,0.1674108 0,0.1841517 0.16741,0.1841517 0.284598,0.1841517 z m 0,0"
         style="fill:#000000;fill-opacity:1;fill-rule:nonzero;stroke:none" />
      <path
         id="path666"
         d="m 33.620279,-5.6399531 h 0.703125 c 0.133929,0 0.217634,0 0.217634,-0.1506697 0,-0.1004464 -0.08371,-0.1004464 -0.200893,-0.1004464 h -0.669643 l 0.267857,-1.0212054 c 0,-0.050223 0.01674,-0.083705 0.01674,-0.1004464 0,-0.1339286 -0.100446,-0.234375 -0.234375,-0.234375 -0.184151,0 -0.284598,0.1171875 -0.334821,0.3013393 -0.05022,0.1841518 0.05022,-0.1506696 -0.267857,1.0546875 h -0.703125 c -0.133929,0 -0.217634,0 -0.217634,0.1506696 0,0.1004465 0.08371,0.1004465 0.200893,0.1004465 h 0.669643 l -0.418527,1.657366 c -0.03348,0.1674108 -0.100447,0.4185268 -0.100447,0.5189733 0,0.4017857 0.351563,0.6529017 0.736608,0.6529017 0.78683,0 1.222098,-0.9709821 1.222098,-1.0714285 0,-0.083705 -0.08371,-0.083705 -0.117188,-0.083705 -0.08371,0 -0.08371,0.016741 -0.133928,0.1339286 -0.200893,0.4352678 -0.552456,0.8203125 -0.9375,0.8203125 -0.15067,0 -0.251116,-0.083705 -0.251116,-0.3348214 0,-0.066964 0.03348,-0.217634 0.05022,-0.2845983 z m 4.787946,-2.1595982 c 0.03348,-0.1004465 0.03348,-0.1171875 0.03348,-0.1339286 0,-0.1171875 -0.08371,-0.1841518 -0.167411,-0.1841518 -0.117188,0 -0.15067,0.083705 -0.184152,0.1841518 l -2.594866,6.4955357 c -0.05022,0.083705 -0.05022,0.1004464 -0.05022,0.1339286 0,0.1004464 0.100446,0.1674107 0.167411,0.1674107 0.117187,0 0.150669,-0.083705 0.184151,-0.1674107 z m 2.975726,2.3939732 h 1.305803 c 0.06696,0 0.368304,0 0.368304,-0.2845982 0,-0.2008929 -0.184152,-0.2008929 -0.301339,-0.2008929 h -2.209822 c -0.200893,0 -0.418526,0.016741 -0.78683,0.3515625 -0.200893,0.1841518 -0.452009,0.5524554 -0.452009,0.6026786 0,0.083705 0.0837,0.083705 0.117188,0.083705 0.06696,0 0.08371,0 0.117187,-0.066964 0.368304,-0.485491 0.78683,-0.485491 0.954241,-0.485491 h 0.61942 l -0.703125,2.2265625 c -0.03348,0.1171875 -0.03348,0.1171875 -0.03348,0.1674107 0,0.1841518 0.184151,0.2176339 0.234375,0.2176339 0.267857,0 0.31808,-0.2511161 0.334821,-0.3515625 z m 0,0"
         style="fill:#000000;fill-opacity:1;fill-rule:nonzero;stroke:none" />
      <path
         id="path667"
         d="m 45.259509,-7.1968728 c 0.01674,0 0.05022,-0.1004464 0.05022,-0.1674107 0,-0.1841518 -0.15067,-0.3013393 -0.301339,-0.3013393 -0.200893,0 -0.267857,0.1674107 -0.284598,0.234375 l -0.77009,2.1595982 c -0.01674,0.066964 -0.01674,0.083705 -0.01674,0.083705 0,0.083705 0.200893,0.1339286 0.217634,0.1339286 0.03348,0 0.05022,-0.033482 0.08371,-0.083705 z m 0,0"
         style="fill:#000000;fill-opacity:1;fill-rule:nonzero;stroke:none" />
      <path
         id="path668"
         d="m 49.541038,-2.4926317 c 0,-0.7700893 -0.117188,-1.9754464 -0.652902,-3.0970982 -0.602678,-1.2388393 -1.456473,-1.875 -1.556919,-1.875 -0.06697,0 -0.100447,0.033482 -0.100447,0.1004464 0,0.016741 0,0.050223 0.184152,0.2176339 0.987723,0.9877233 1.540178,2.578125 1.540178,4.6540179 0,1.70758929 -0.368303,3.46540179 -1.590401,4.7209821 -0.133929,0.1171875 -0.133929,0.1339286 -0.133929,0.1674108 0,0.050223 0.03348,0.1004464 0.100447,0.1004464 0.100446,0 0.987723,-0.6863839 1.57366,-1.9419643 0.518973,-1.10491071 0.636161,-2.2098214 0.636161,-3.046875 z m 0,0"
         style="fill:#000000;fill-opacity:1;fill-rule:nonzero;stroke:none" />
    </g>
  </g>
</svg>
