<?xml version="1.0" encoding="UTF-8" standalone="no"?>
<!-- Created with Inkscape (http://www.inkscape.org/) -->

<svg
   version="1.1"
   id="svg1"
   width="224.91406"
   height="98.432495"
   viewBox="0 0 224.91406 98.432495"
   sodipodi:docname="CircuiTikz (7).pdf"
   xmlns:inkscape="http://www.inkscape.org/namespaces/inkscape"
   xmlns:sodipodi="http://sodipodi.sourceforge.net/DTD/sodipodi-0.dtd"
   xmlns="http://www.w3.org/2000/svg"
   xmlns:svg="http://www.w3.org/2000/svg">
  <defs
     id="defs1" />
  <sodipodi:namedview
     id="namedview1"
     pagecolor="#ffffff"
     bordercolor="#000000"
     borderopacity="0.25"
     inkscape:showpageshadow="2"
     inkscape:pageopacity="0.0"
     inkscape:pagecheckerboard="0"
     inkscape:deskcolor="#d1d1d1">
    <inkscape:page
       x="3.279725e-06"
       y="2.0180528e-07"
       width="224.91406"
       height="98.432495"
       id="page2"
       margin="0"
       bleed="0" />
  </sodipodi:namedview>
  <g
     id="g110"
     inkscape:groupmode="layer"
     inkscape:label="2"
     transform="translate(-1131.0625,-169.50781)">
    <path
       id="path111"
       d="m 0,0 h 79.37363 m 0,0 h 79.36779"
       style="fill:none;stroke:#000000;stroke-width:0.3985;stroke-linecap:butt;stroke-linejoin:miter;stroke-miterlimit:10;stroke-dasharray:none;stroke-opacity:1"
       transform="matrix(1.3333333,0,0,-1.3333333,1137.4853,266.19333)" />
    <path
       id="path112"
       d="M 1.11098,0 C 1.11098,0.61357 0.61357,1.11098 0,1.11098 -0.61357,1.11098 -1.11098,0.61357 -1.11098,0 c 0,-0.61357 0.49741,-1.11098 1.11098,-1.11098 0.61357,0 1.11098,0.49741 1.11098,1.11098 z"
       style="fill:#000000;fill-opacity:1;fill-rule:nonzero;stroke:#000000;stroke-width:0.3985;stroke-linecap:butt;stroke-linejoin:miter;stroke-miterlimit:10;stroke-dasharray:none;stroke-opacity:1"
       transform="matrix(1.3333333,0,0,-1.3333333,1137.4853,266.19333)" />
    <path
       id="path113"
       d="m 159.85242,0 c 0,0.61357 -0.49741,1.11098 -1.111,1.11098 -0.61358,0 -1.11099,-0.49741 -1.11099,-1.11098 0,-0.61357 0.49741,-1.11098 1.11099,-1.11098 0.61359,0 1.111,0.49741 1.111,1.11098 z"
       style="fill:#000000;fill-opacity:1;fill-rule:nonzero;stroke:#000000;stroke-width:0.3985;stroke-linecap:butt;stroke-linejoin:miter;stroke-miterlimit:10;stroke-dasharray:none;stroke-opacity:1"
       transform="matrix(1.3333333,0,0,-1.3333333,1137.4853,266.19333)" />
    <path
       id="path114"
       d="m 0,59.52802 19.84337,0.0022 m 0,0 19.84198,-0.0022 8.73255,0.0022 m 22.2246,0 8.72821,-0.0022 8.73406,0.0022 m 22.22456,0 8.72673,-0.0022 19.84779,0.0022 m 0,0 19.83757,-0.0022"
       style="fill:none;stroke:#000000;stroke-width:0.3985;stroke-linecap:butt;stroke-linejoin:miter;stroke-miterlimit:10;stroke-dasharray:none;stroke-opacity:1"
       transform="matrix(1.3333333,0,0,-1.3333333,1137.4853,266.19333)" />
    <path
       id="path115"
       d="M 1.11098,59.52802 C 1.11098,60.1416 0.61357,60.639 0,60.639 c -0.61357,0 -1.11098,-0.4974 -1.11098,-1.11098 0,-0.61358 0.49741,-1.111 1.11098,-1.111 0.61357,0 1.11098,0.49742 1.11098,1.111 z"
       style="fill:#000000;fill-opacity:1;fill-rule:nonzero;stroke:#000000;stroke-width:0.3985;stroke-linecap:butt;stroke-linejoin:miter;stroke-miterlimit:10;stroke-dasharray:none;stroke-opacity:1"
       transform="matrix(1.3333333,0,0,-1.3333333,1137.4853,266.19333)" />
    <path
       id="path116"
       d="m 18.62804,59.53018 v -1.38896 l 2.95155,1.38896 -2.95155,1.38896 z"
       style="fill:#000000;fill-opacity:1;fill-rule:nonzero;stroke:#000000;stroke-width:0.3985;stroke-linecap:butt;stroke-linejoin:miter;stroke-miterlimit:10;stroke-dasharray:none;stroke-opacity:1"
       transform="matrix(1.3333333,0,0,-1.3333333,1137.4853,266.19333)" />
    <g
       id="g116"
       aria-label="I&#10;S"
       transform="matrix(0.93333333,0,0,0.93333333,1158.512,182.14)">
      <path
         id="path117"
         d="m 4.3858594,-6.1600446 c 0.050223,-0.1674108 0.050223,-0.1674108 0.251116,-0.2008929 0.1506697,0 0.2845983,0 0.4352679,0 h 0.2008929 c 0.2176339,0 0.2176339,-0.016741 0.2678571,-0.050223 0.066964,-0.050223 0.1004464,-0.1841518 0.1004464,-0.234375 0,-0.1339286 -0.1004464,-0.1841518 -0.2176339,-0.1841518 -0.2511161,0 -0.5189732,0.016741 -0.7700893,0.016741 -0.2511161,0 -0.5189732,0.016741 -0.7868303,0.016741 -0.2845983,0 -0.5524554,-0.016741 -0.8370536,-0.016741 -0.2511161,0 -0.5189732,-0.016741 -0.7700893,-0.016741 -0.1004464,0 -0.2845982,0 -0.2845982,0.2845982 0,0.1841518 0.1506696,0.1841518 0.3348214,0.1841518 h 0.2176339 c 0.083705,0 0.3180804,0 0.5189733,0.016741 l -1.4229911,5.67522319 c -0.033482,0.16741071 -0.050223,0.16741071 -0.234375,0.18415178 -0.1171875,0.0167411 -0.3013393,0.0167411 -0.43526787,0.0167411 H 0.75304688 c -0.20089286,0 -0.36830358,0 -0.36830358,0.28459822 0,0.13392857 0.10044643,0.18415178286 0.21763393,0.18415178286 0.25111607,0 0.50223217,-0.0167410729 0.75334817,-0.0167410729 0.2678572,0 0.5357143,-0.01674107 0.8035715,-0.01674107 0.2845982,0 0.5524553,0.01674107 0.8370535,0.01674107 0.2511161,0 0.5022322,0.0167410729 0.7533483,0.0167410729 0.1004464,0 0.3013392,0 0.3013392,-0.28459821286 0,-0.18415179 -0.1674107,-0.18415179 -0.3348214,-0.18415179 H 3.4985826 c -0.066964,0 -0.3850447,-0.0167411 -0.5189732,-0.0167411 z m 0,0"
         style="fill:#000000;fill-opacity:1;fill-rule:nonzero;stroke:none" />
      <path
         id="path118"
         d="m 10.822801,-3.3266183 c 0,-0.033482 -0.01674,-0.083705 -0.08371,-0.083705 -0.05022,0 -0.05022,0 -0.15067,0.1004465 L 10.2536,-2.9248322 c -0.2678522,-0.368304 -0.7031201,-0.4854915 -1.1383879,-0.4854915 -0.9709822,0 -1.858259,0.7868304 -1.858259,1.5904018 0,0.1171875 0.033482,0.3850447 0.234375,0.6529018 0.234375,0.26785715 0.5022322,0.33482144 0.9709822,0.45200894 0.1339285,0.0334821 0.485491,0.10044643 0.6026785,0.13392857 0.217634,0.0502232 0.6361608,0.21763393 0.6361608,0.73660714 0,0.56919643 -0.5859375,1.22209825 -1.389509,1.22209825 -0.6026785,0 -1.3560268,-0.217634 -1.3560268,-0.98772325 0,-0.0669643 0.016741,-0.21763393 0.050223,-0.3515625 0,-0.01674107 0,-0.03348214 0,-0.03348214 0,-0.10044643 -0.083705,-0.10044643 -0.1004465,-0.10044643 -0.1004464,0 -0.1171875,0.01674107 -0.1339285,0.15066964 L 6.4198996,1.4445871 c -0.016741,0.033482 -0.033482,0.066964 -0.033482,0.1004464 0,0.050223 0.033482,0.083705 0.1004464,0.083705 0.050223,0 0.050223,0 0.1339286,-0.083705 0.083705,-0.1004464 0.2678572,-0.3180804 0.3348214,-0.4017857 0.3850447,0.4017857 0.920759,0.485491 1.3392858,0.485491 1.0546875,0 1.9084822,-0.90401782 1.9084822,-1.72433032 0,-0.30133928 -0.133929,-0.5859375 -0.2845983,-0.75334821 C 9.6844085,-1.1000558 9.567221,-1.1167969 8.6799442,-1.3344308 8.5292746,-1.3679129 8.2948996,-1.4181362 8.2279353,-1.4516183 c -0.1674107,-0.050223 -0.46875,-0.234375 -0.46875,-0.6361607 0,-0.5357143 0.6361607,-1.1049107 1.3560268,-1.1049107 0.7533482,0 1.1216519,0.4352678 1.1216519,1.0881696 0,0.1004464 -0.03348,0.2511161 -0.03348,0.3180804 0,0.1004464 0.08371,0.1004464 0.117187,0.1004464 0.100447,0 0.117188,-0.033482 0.133929,-0.1506696 z m 0,0"
         style="fill:#000000;fill-opacity:1;fill-rule:nonzero;stroke:none" />
    </g>
    <path
       id="path119"
       d="m 48.01762,59.52802 2.28371,4.16697 3.77037,-8.33394 3.77037,8.33394 3.77037,-8.33394 3.77037,8.33394 3.77037,-8.33394 1.8852,4.16697"
       style="fill:none;stroke:#000000;stroke-width:0.797;stroke-linecap:butt;stroke-linejoin:bevel;stroke-miterlimit:10;stroke-dasharray:none;stroke-opacity:1"
       transform="matrix(1.3333333,0,0,-1.3333333,1137.4853,266.19333)" />
    <path
       id="path120"
       d="m 3.7342969,-6.1118638 c 0.066964,-0.2511161 0.083705,-0.3515625 0.2845982,-0.3683036 0.083705,-0.016741 0.4017857,-0.016741 0.6026786,-0.016741 0.703125,0 1.8080357,0 1.8080357,0.9877232 0,0.3348215 -0.1506697,1.0212054 -0.5357143,1.40625 -0.2678572,0.2678572 -0.7868304,0.5859375 -1.6908482,0.5859375 H 3.0813951 Z m 1.4397321,2.7287946 c 1.0044643,-0.2176339 2.1930804,-0.9207589 2.1930804,-1.9252232 0,-0.8537947 -0.9040179,-1.4899554 -2.2098215,-1.4899554 h -2.829241 c -0.2008929,0 -0.3013393,0 -0.3013393,0.2008929 0,0.1004464 0.1004464,0.1004464 0.2845982,0.1004464 0.016741,0 0.2176339,0 0.3850446,0.016741 0.1674108,0.016741 0.2678572,0.033482 0.2678572,0.1674107 0,0.033482 -0.016741,0.066964 -0.050223,0.1841518 l -1.3225447,5.35714285 c -0.1004464,0.38504464 -0.1339285,0.46875 -0.9207589,0.46875 -0.16741071,0 -0.26785714,0 -0.26785714,0.18415178 0,0.1171875 0.13392857,0.1171875 0.15066964,0.1171875 0.26785715,0 0.9709821,-0.03348214 1.2555804,-0.03348214 0.2678571,0 0.9877232,0.03348214 1.2555803,0.03348214 0.083705,0 0.2008929,0 0.2008929,-0.20089286 0,-0.10044642 -0.083705,-0.10044642 -0.2678572,-0.10044642 -0.3850446,0 -0.6529018,0 -0.6529018,-0.18415179 0,-0.0669643 0.016741,-0.1171875 0.033482,-0.16741071 L 3.0311719,-3.2993638 h 1.188616 c 0.9040179,0 1.0881697,0.5524553 1.0881697,0.9040178 0,0.1506697 -0.083705,0.46875 -0.1506697,0.6863839 -0.066964,0.2845983 -0.1506696,0.6529018 -0.1506696,0.85379469 0,1.07142857 1.1886161,1.07142857 1.3225446,1.07142857 0.8370536,0 1.1886161,-1.00446429 1.1886161,-1.13839286 0,-0.1171875 -0.1004464,-0.1171875 -0.1171875,-0.1171875 -0.083705,0 -0.1004464,0.0669643 -0.1339286,0.13392857 -0.251116,0.73660715 -0.6696428,0.90401786 -0.9040178,0.90401786 -0.3180804,0 -0.4017857,-0.21763393 -0.4017857,-0.60267857 0,-0.31808036 0.066964,-0.82031246 0.1004464,-1.13839286 0.033482,-0.1339286 0.050223,-0.3348214 0.050223,-0.46875 0,-0.7700893 -0.6696428,-1.0714286 -0.9374998,-1.171875 z m 0,0"
       style="fill:#000000;fill-opacity:1;fill-rule:nonzero;stroke:none"
       aria-label="R"
       transform="matrix(0.93333333,0,0,0.93333333,1213.292,202.888)" />
    <path
       id="path121"
       d="m 87.703,59.36862 c 0,2.30127 1.28833,4.16678 2.8776,4.16678 1.58926,0 2.87759,-1.86551 2.87759,-4.16678 0,2.30127 1.28835,4.16678 2.87761,4.16678 1.58925,0 2.8776,-1.86551 2.8776,-4.16678 0,2.30127 1.28832,4.16678 2.87759,4.16678 1.58926,0 2.87759,-1.86551 2.87759,-4.16678 0,2.30127 1.28835,4.16678 2.87761,4.16678 1.58925,0 2.8776,-1.86551 2.8776,-4.16678"
       style="fill:none;stroke:#000000;stroke-width:0.797;stroke-linecap:butt;stroke-linejoin:bevel;stroke-miterlimit:10;stroke-dasharray:none;stroke-opacity:1"
       transform="matrix(1.3333333,0,0,-1.3333333,1137.4853,266.19333)" />
    <g
       id="g121"
       aria-label="jX&#10;L"
       transform="matrix(0.93333333,0,0,0.93333333,1260.9573,198.81333)">
      <path
         id="path122"
         d="m 3.9505692,-6.2285714 c 0,-0.1841518 -0.1339286,-0.3515625 -0.3683036,-0.3515625 -0.234375,0 -0.5357143,0.2176339 -0.5357143,0.5189732 0,0.2008928 0.1339286,0.3683036 0.3683036,0.3683036 0.2678572,0 0.5357143,-0.2678572 0.5357143,-0.5357143 z M 1.9583817,0.50133929 C 1.7574888,1.2546875 1.2887388,1.8238839 0.71954241,1.8238839 c -0.0502232,0 -0.20089286,0 -0.38504464,-0.083705 0.30133928,-0.083705 0.45200893,-0.3348215 0.45200893,-0.5357143 0,-0.1674107 -0.1171875,-0.35156251 -0.38504465,-0.35156251 -0.234375,0 -0.53571428,0.21763391 -0.53571428,0.56919641 0,0.4017857 0.40178571,0.6194197 0.88727678,0.6194197 0.68638395,0 1.62388395,-0.5357143 1.85825895,-1.50669647 L 3.5320424,-3.1147321 c 0.050223,-0.2008929 0.050223,-0.3348215 0.050223,-0.3683036 0,-0.5691964 -0.4185268,-0.9207589 -0.9207589,-0.9207589 -1.0044643,0 -1.5736607,1.4397321 -1.5736607,1.5401785 0,0.1004465 0.1004464,0.1004465 0.1171875,0.1004465 0.083705,0 0.1004464,-0.016741 0.1841518,-0.2008929 0.251116,-0.6194196 0.703125,-1.2220982 1.2555803,-1.2220982 0.1339286,0 0.3180804,0.033482 0.3180804,0.4520089 0,0.234375 -0.033482,0.3515625 -0.066964,0.5189732 z M 9.5086049,-4.1024554 8.6715513,-6.0779018 c -0.033482,-0.083705 -0.050223,-0.1171875 -0.050223,-0.1339286 0,-0.050223 0.1674107,-0.251116 0.5859375,-0.2845982 0.1004465,-0.016741 0.2008929,-0.016741 0.2008929,-0.1841518 0,-0.1171875 -0.1339286,-0.1171875 -0.1506697,-0.1171875 -0.4185267,0 -0.8370535,0.016741 -1.2555803,0.016741 -0.2511161,0 -0.8705357,-0.016741 -1.1216518,-0.016741 -0.050223,0 -0.1841518,0 -0.1841518,0.2008929 0,0.1004464 0.1004464,0.1004464 0.234375,0.1004464 0.6026786,0 0.6529018,0.1004465 0.7533482,0.3180804 l 1.171875,2.7790178 -2.109375,2.2600447 -0.1171875,0.1171875 c -0.5022321,0.5189732 -0.954241,0.68638391 -1.4732143,0.71986606 -0.1339285,0 -0.2176339,0 -0.2176339,0.18415178 0,0.0167411 0,0.11718750286 0.1339286,0.11718750286 0.3013393,0 0.6194196,-0.0334821429 0.9375,-0.0334821429 0.3683036,0 0.7533482,0.0334821429 1.1049107,0.0334821429 0.066964,0 0.1841518,0 0.1841518,-0.20089285286 0,-0.10044643 -0.1004464,-0.10044643 -0.1171875,-0.10044643 -0.083705,-0.0167411 -0.4017857,-0.0334822 -0.4017857,-0.31808036 0,-0.15066964 0.1506696,-0.31808036 0.2678571,-0.4520089 L 8.0688728,-2.14375 8.9561496,-3.1147321 9.9773549,-0.7375 c 0.033482,0.1171875 0.050223,0.1171875 0.050223,0.13392857 0,0.0837054 -0.2008932,0.25111607 -0.5859379,0.30133929 -0.1171875,0 -0.2008928,0.0167411 -0.2008928,0.18415178 0,0.11718750286 0.1171875,0.11718750286 0.1506696,0.11718750286 0.2845982,0 0.9709831,-0.0334821429 1.2555811,-0.0334821429 0.251116,0 0.853794,0.0334821429 1.10491,0.0334821429 0.06696,0 0.184152,0 0.184152,-0.18415178286 0,-0.1171875 -0.100446,-0.1171875 -0.16741,-0.1171875 -0.669643,-0.0167411 -0.686384,-0.0502232 -0.870536,-0.45200893 C 10.513069,-1.675 9.8434263,-3.2319196 9.6257924,-3.8178571 c 0.6696426,-0.703125 1.7243306,-1.8917411 2.0424106,-2.1763393 0.284598,-0.234375 0.669643,-0.46875 1.25558,-0.5022322 0.133929,-0.016741 0.217634,-0.016741 0.217634,-0.2008928 0,0 0,-0.1004465 -0.117187,-0.1004465 -0.301339,0 -0.636161,0.016741 -0.9375,0.016741 -0.368304,0 -0.753348,-0.016741 -1.104911,-0.016741 -0.06696,0 -0.200893,0 -0.200893,0.2008929 0,0.066964 0.05022,0.083705 0.117188,0.1004464 0.100446,0.016741 0.401786,0.033482 0.401786,0.3180804 0,0.1339286 -0.100447,0.2678571 -0.184152,0.3515625 z m 0,0"
         style="fill:#000000;fill-opacity:1;fill-rule:nonzero;stroke:none" />
      <path
         id="path123"
         d="m 15.807433,-2.7087612 c 0.06696,-0.251116 0.08371,-0.3180803 0.719866,-0.3180803 0.217634,0 0.284598,0 0.284598,-0.1506697 0,0 0,-0.1004464 -0.117187,-0.1004464 -0.15067,0 -0.351563,0.016741 -0.518973,0.016741 -0.167411,0.016741 -0.385045,0.016741 -0.552456,0.016741 -0.150669,0 -0.334821,-0.016741 -0.485491,-0.016741 -0.150669,0 -0.31808,-0.016741 -0.452009,-0.016741 -0.03348,0 -0.150669,0 -0.150669,0.1506697 0,0.1004464 0.08371,0.1004464 0.234375,0.1004464 0,0 0.133928,0 0.267857,0.016741 0.133928,0.016741 0.150669,0.033482 0.150669,0.1004464 0,0.016741 0,0.050223 -0.03348,0.1506696 l -0.920759,3.69977681 c -0.06696,0.25111609 -0.08371,0.30133929 -0.619419,0.30133929 -0.117188,0 -0.200893,0 -0.200893,0.1506696 0,0.1004465 0.08371,0.1004465 0.200893,0.1004465 h 3.515625 c 0.16741,0 0.184151,0 0.234375,-0.1339286 0.06696,-0.2008929 0.602678,-1.54017858 0.602678,-1.60714286 0,-0.0167411 -0.01674,-0.10044643 -0.117187,-0.10044643 -0.08371,0 -0.100447,0.0334821 -0.15067,0.15066964 C 17.431319,0.47204231 17.12998,1.2421316 15.857658,1.2421316 h -0.78683 c -0.217634,0 -0.234375,0 -0.234375,-0.066964 0,-0.016741 0,-0.050223 0.03348,-0.1506696 z m 0,0"
         style="fill:#000000;fill-opacity:1;fill-rule:nonzero;stroke:none" />
    </g>
    <path
       id="path124"
       d="m 159.85242,59.52802 c 0,0.61358 -0.49741,1.11098 -1.111,1.11098 -0.61358,0 -1.11099,-0.4974 -1.11099,-1.11098 0,-0.61358 0.49741,-1.111 1.11099,-1.111 0.61359,0 1.111,0.49742 1.111,1.111 z"
       style="fill:#000000;fill-opacity:1;fill-rule:nonzero;stroke:#000000;stroke-width:0.3985;stroke-linecap:butt;stroke-linejoin:miter;stroke-miterlimit:10;stroke-dasharray:none;stroke-opacity:1"
       transform="matrix(1.3333333,0,0,-1.3333333,1137.4853,266.19333)" />
    <path
       id="path125"
       d="m 137.68852,59.53018 v -1.38896 l 2.95156,1.38896 -2.95156,1.38896 z"
       style="fill:#000000;fill-opacity:1;fill-rule:nonzero;stroke:#000000;stroke-width:0.3985;stroke-linecap:butt;stroke-linejoin:miter;stroke-miterlimit:10;stroke-dasharray:none;stroke-opacity:1"
       transform="matrix(1.3333333,0,0,-1.3333333,1137.4853,266.19333)" />
    <g
       id="g125"
       aria-label="I&#10;R"
       transform="matrix(0.93333333,0,0,0.93333333,1316.904,182.14)">
      <path
         id="path126"
         d="m 4.3843862,-6.1600446 c 0.050223,-0.1674108 0.050223,-0.1674108 0.251116,-0.2008929 0.1506697,0 0.2845982,0 0.4352679,0 h 0.2008928 c 0.217634,0 0.217634,-0.016741 0.2678572,-0.050223 0.066964,-0.050223 0.1004464,-0.1841518 0.1004464,-0.234375 0,-0.1339286 -0.1004464,-0.1841518 -0.2176339,-0.1841518 -0.2511161,0 -0.5189732,0.016741 -0.7700893,0.016741 -0.2511161,0 -0.5189732,0.016741 -0.7868304,0.016741 -0.2845982,0 -0.5524553,-0.016741 -0.8370535,-0.016741 -0.2511161,0 -0.5189732,-0.016741 -0.7700893,-0.016741 -0.1004464,0 -0.2845982,0 -0.2845982,0.2845982 0,0.1841518 0.1506696,0.1841518 0.3348214,0.1841518 h 0.2176339 c 0.083705,0 0.3180804,0 0.5189732,0.016741 l -1.422991,5.67522319 c -0.033482,0.16741071 -0.050223,0.16741071 -0.234375,0.18415178 -0.1171875,0.0167411 -0.3013393,0.0167411 -0.43526788,0.0167411 H 0.75157366 c -0.20089286,0 -0.36830357,0 -0.36830357,0.28459822 0,0.13392857 0.10044643,0.18415178286 0.21763393,0.18415178286 0.25111607,0 0.50223218,-0.0167410729 0.75334818,-0.0167410729 0.2678572,0 0.5357143,-0.01674107 0.8035715,-0.01674107 0.2845982,0 0.5524553,0.01674107 0.8370535,0.01674107 0.2511161,0 0.5022322,0.0167410729 0.7533482,0.0167410729 0.1004465,0 0.3013393,0 0.3013393,-0.28459821286 0,-0.18415179 -0.1674107,-0.18415179 -0.3348214,-0.18415179 H 3.4971094 c -0.066964,0 -0.3850447,-0.0167411 -0.5189732,-0.0167411 z m 0,0"
         style="fill:#000000;fill-opacity:1;fill-rule:nonzero;stroke:none" />
      <path
         id="path127"
         d="m 8.7454353,-2.790904 c 0.050223,-0.1841518 0.066964,-0.2176339 0.2176339,-0.234375 h 0.4520089 c 0.6529019,0 1.4564729,0 1.4564729,0.7198661 0,0.2845982 -0.133928,0.7366071 -0.46875,0.9877232 -0.284598,0.2176339 -0.7198657,0.3348214 -1.2053568,0.3348214 H 8.3101674 Z m 1.2723217,1.90848212 c 0.820312,-0.18415182 1.57366,-0.68638392 1.57366,-1.32254462 0,-0.5859375 -0.719866,-1.0714286 -1.7243299,-1.0714286 H 7.7242299 c -0.1339286,0 -0.234375,0 -0.234375,0.1506697 0,0.1004464 0.083705,0.1004464 0.234375,0.1004464 0,0 0.1339286,0 0.2511161,0.016741 0.1506696,0.016741 0.1674107,0.033482 0.1674107,0.1004464 0,0.016741 0,0.050223 -0.033482,0.1506696 L 7.1885156,0.94235491 C 7.1215513,1.193471 7.1215513,1.2436942 6.569096,1.2436942 c -0.1171875,0 -0.2008929,0 -0.2008929,0.1506696 0,0.066964 0.050223,0.1004465 0.1004465,0.1004465 0.1339285,0 0.3013392,-0.016741 0.4352678,-0.016741 0.1339286,0 0.3348214,-0.016741 0.46875,-0.016741 0.1339286,0 0.3013393,0.016741 0.4352679,0.016741 0.1506696,0 0.3348214,0.016741 0.46875,0.016741 0.033482,0 0.1506696,0 0.1506696,-0.1506697 0,-0.1004464 -0.066964,-0.1004464 -0.234375,-0.1004464 -0.1004464,0 -0.1339286,0 -0.2678571,-0.016741 C 7.7744531,1.2102121 7.7744531,1.193471 7.7744531,1.1265067 c 0,-0.016741 0,-0.050223 0.033482,-0.15066965 L 8.2432029,-0.79871652 H 9.197444 c 0.6026786,0 0.853795,0.30133929 0.853795,0.63616072 0,0.08370535 -0.066964,0.31808035 -0.1004468,0.48549107 -0.083705,0.31808035 -0.1004464,0.41852678 -0.1004464,0.53571428 0,0.55245535 0.5022322,0.77008925 1.0212052,0.77008925 0.636161,0 0.920759,-0.68638389 0.920759,-0.80357139 0,-0.0167411 -0.01674,-0.10044643 -0.117187,-0.10044643 -0.08371,0 -0.100447,0.0502232 -0.133929,0.1171875 -0.08371,0.31808032 -0.351562,0.60267862 -0.636161,0.60267862 -0.184151,0 -0.31808,-0.083705 -0.31808,-0.45200898 0,-0.18415178 0.03348,-0.55245535 0.06696,-0.73660714 0.03348,-0.18415178 0.03348,-0.25111607 0.03348,-0.31808036 0,-0.08370535 0,-0.31808035 -0.200893,-0.51897321 -0.133929,-0.15066964 -0.318081,-0.234375 -0.46875,-0.30133929 z m 0,0"
         style="fill:#000000;fill-opacity:1;fill-rule:nonzero;stroke:none" />
    </g>
    <path
       id="path128"
       d="m 4.0699665,-2.2921987 h 2.7790179 c 0.1506696,0 0.3348214,0 0.3348214,-0.2008928 0,-0.2008929 -0.1841518,-0.2008929 -0.3348214,-0.2008929 H 4.0699665 v -2.7790178 c 0,-0.1506697 0,-0.3348215 -0.2008928,-0.3348215 -0.1841518,0 -0.1841518,0.1841518 -0.1841518,0.3348215 v 2.7790178 H 0.88916295 c -0.13392857,0 -0.33482143,0 -0.33482143,0.2008929 0,0.2008928 0.20089286,0.2008928 0.33482143,0.2008928 H 3.6849219 v 2.79575897 c 0,0.13392857 0,0.31808035 0.1841518,0.31808035 0.2008928,0 0.2008928,-0.18415178 0.2008928,-0.31808035 z m 0,0"
       style="fill:#000000;fill-opacity:1;fill-rule:nonzero;stroke:none"
       aria-label="+"
       transform="matrix(0.93333333,0,0,0.93333333,1133.8693,201.00267)" />
    <path
       id="path129"
       d="m 6.5643862,-2.2919308 c 0.1674107,0 0.3515625,0 0.3515625,-0.2008929 0,-0.2008928 -0.1841518,-0.2008928 -0.3515625,-0.2008928 h -5.390625 c -0.1674108,0 -0.35156254,0 -0.35156254,0.2008928 0,0.2008929 0.18415174,0.2008929 0.35156254,0.2008929 z m 0,0"
       style="fill:#000000;fill-opacity:1;fill-rule:nonzero;stroke:none"
       aria-label="−"
       transform="matrix(0.93333333,0,0,0.93333333,1133.8693,256.65867)" />
    <g
       id="g129"
       aria-label="V&#10;S"
       transform="matrix(0.93333333,0,0,0.93333333,1130.4533,228.99867)">
      <path
         id="path130"
         d="m 7.5667411,-5.9583929 c 0.1506696,-0.2176339 0.2678571,-0.4017857 0.954241,-0.4017857 0.1171875,0 0.3013393,0 0.3013393,-0.2845982 0,-0.066964 -0.050223,-0.1841518 -0.1841518,-0.1841518 -0.2845982,0 -0.6026785,0.033482 -0.9040178,0.033482 -0.3683036,0 -0.7533482,-0.033482 -1.1049107,-0.033482 -0.066964,0 -0.2678572,0 -0.2678572,0.2845982 0,0.1841518 0.1674107,0.1841518 0.2678572,0.1841518 0.050223,0 0.3348214,0 0.5524553,0.1004465 l -3.28125,4.7712053 -0.8872768,-4.6540178 c 0,-0.033482 -0.016741,-0.1171875 -0.016741,-0.1339286 0,-0.083705 0.5357143,-0.083705 0.6026785,-0.083705 0.217634,0 0.3850447,0 0.3850447,-0.2845982 0,-0.1339286 -0.1004464,-0.1841518 -0.2176339,-0.1841518 -0.2511161,0 -0.5022322,0.016741 -0.7533483,0.016741 -0.251116,0 -0.485491,0.016741 -0.7366071,0.016741 -0.2176339,0 -0.4520089,-0.016741 -0.6863839,-0.016741 -0.217634,0 -0.452009,-0.016741 -0.65290181,-0.016741 -0.0837054,0 -0.28459822,0 -0.28459822,0.2845982 0,0.1841518 0.16741072,0.1841518 0.36830353,0.1841518 0.1339286,0 0.2511161,0 0.3850447,0 0.1171875,0.016741 0.1339286,0.033482 0.1506696,0.2008929 l 1.1383929,6.04352677 c 0.050223,0.28459822 0.1674107,0.28459822 0.3515625,0.28459822 0.2845982,0 0.3348214,-0.0669643 0.4520089,-0.25111608 z m 0,0"
         style="fill:#000000;fill-opacity:1;fill-rule:nonzero;stroke:none" />
      <path
         id="path131"
         d="m 14.254799,-3.3258594 c 0,-0.033482 -0.01674,-0.083705 -0.08371,-0.083705 -0.05022,0 -0.05022,0 -0.15067,0.1004464 l -0.334821,0.3850446 c -0.267857,-0.3683035 -0.703125,-0.485491 -1.138393,-0.485491 -0.970982,0 -1.858259,0.7868303 -1.858259,1.5904018 0,0.1171875 0.03348,0.3850446 0.234375,0.6529017 0.234375,0.26785718 0.502232,0.33482147 0.970982,0.45200897 0.133929,0.0334821 0.485491,0.10044643 0.602679,0.13392857 0.217634,0.0502232 0.63616,0.21763393 0.63616,0.73660714 0,0.56919643 -0.585937,1.22209822 -1.389509,1.22209822 -0.602678,0 -1.356026,-0.2176339 -1.356026,-0.98772322 0,-0.0669643 0.01674,-0.21763393 0.05022,-0.3515625 0,-0.01674107 0,-0.03348214 0,-0.03348214 0,-0.10044643 -0.08371,-0.10044643 -0.100447,-0.10044643 -0.100446,0 -0.117187,0.01674107 -0.133928,0.15066964 L 9.8518973,1.445346 c -0.016741,0.033482 -0.033482,0.066964 -0.033482,0.1004464 0,0.050223 0.033482,0.083705 0.1004464,0.083705 0.050223,0 0.050223,0 0.1339283,-0.083705 0.08371,-0.1004464 0.267857,-0.3180803 0.334822,-0.4017857 0.385044,0.4017857 0.920759,0.4854911 1.339285,0.4854911 1.054688,0 1.908482,-0.90401789 1.908482,-1.72433039 0,-0.30133929 -0.133928,-0.5859375 -0.284598,-0.75334821 -0.234375,-0.2511161 -0.351562,-0.2678571 -1.238839,-0.4854911 -0.15067,-0.033482 -0.385045,-0.083705 -0.452009,-0.1171875 -0.167411,-0.050223 -0.46875,-0.234375 -0.46875,-0.6361607 0,-0.5357143 0.636161,-1.1049107 1.356027,-1.1049107 0.753348,0 1.121652,0.4352679 1.121652,1.0881696 0,0.1004465 -0.03348,0.2511161 -0.03348,0.3180804 0,0.1004464 0.08371,0.1004464 0.117188,0.1004464 0.100446,0 0.117187,-0.033482 0.133929,-0.1506696 z m 0,0"
         style="fill:#000000;fill-opacity:1;fill-rule:nonzero;stroke:none" />
    </g>
    <path
       id="path132"
       d="m 4.0685045,-2.2921987 h 2.7790178 c 0.1506697,0 0.3348215,0 0.3348215,-0.2008928 0,-0.2008929 -0.1841518,-0.2008929 -0.3348215,-0.2008929 H 4.0685045 v -2.7790178 c 0,-0.1506697 0,-0.3348215 -0.2008929,-0.3348215 -0.1841518,0 -0.1841518,0.1841518 -0.1841518,0.3348215 v 2.7790178 H 0.88770089 c -0.13392857,0 -0.33482143,0 -0.33482143,0.2008929 0,0.2008928 0.20089286,0.2008928 0.33482143,0.2008928 H 3.6834598 v 2.79575897 c 0,0.13392857 0,0.31808035 0.1841518,0.31808035 0.2008929,0 0.2008929,-0.18415178 0.2008929,-0.31808035 z m 0,0"
       style="fill:#000000;fill-opacity:1;fill-rule:nonzero;stroke:none"
       aria-label="+"
       transform="matrix(0.93333333,0,0,0.93333333,1345.5387,201.00267)" />
    <path
       id="path133"
       d="m 6.5629241,-2.2919308 c 0.1674107,0 0.3515625,0 0.3515625,-0.2008929 0,-0.2008928 -0.1841518,-0.2008928 -0.3515625,-0.2008928 h -5.390625 c -0.1674107,0 -0.35156249,0 -0.35156249,0.2008928 0,0.2008929 0.18415179,0.2008929 0.35156249,0.2008929 z m 0,0"
       style="fill:#000000;fill-opacity:1;fill-rule:nonzero;stroke:none"
       aria-label="−"
       transform="matrix(0.93333333,0,0,0.93333333,1345.5387,256.65867)" />
    <g
       id="g133"
       aria-label="V&#10;R"
       transform="matrix(0.93333333,0,0,0.93333333,1341.7653,228.99867)">
      <path
         id="path134"
         d="m 7.5672768,-5.9583929 c 0.1506696,-0.2176339 0.2678571,-0.4017857 0.9542411,-0.4017857 0.1171875,0 0.3013392,0 0.3013392,-0.2845982 0,-0.066964 -0.050223,-0.1841518 -0.1841517,-0.1841518 -0.2845983,0 -0.6026786,0.033482 -0.9040179,0.033482 -0.3683036,0 -0.7533482,-0.033482 -1.1049107,-0.033482 -0.066964,0 -0.2678572,0 -0.2678572,0.2845982 0,0.1841518 0.1674108,0.1841518 0.2678572,0.1841518 0.050223,0 0.3348214,0 0.5524553,0.1004465 l -3.28125,4.7712053 -0.8872767,-4.6540178 c 0,-0.033482 -0.016741,-0.1171875 -0.016741,-0.1339286 0,-0.083705 0.5357143,-0.083705 0.6026786,-0.083705 0.2176339,0 0.3850446,0 0.3850446,-0.2845982 0,-0.1339286 -0.1004464,-0.1841518 -0.2176339,-0.1841518 -0.2511161,0 -0.5022322,0.016741 -0.7533482,0.016741 -0.2511161,0 -0.4854911,0.016741 -0.7366072,0.016741 -0.2176339,0 -0.4520089,-0.016741 -0.6863839,-0.016741 -0.2176339,0 -0.4520089,-0.016741 -0.6529018,-0.016741 -0.0837054,0 -0.28459821,0 -0.28459821,0.2845982 0,0.1841518 0.16741071,0.1841518 0.36830361,0.1841518 0.1339285,0 0.251116,0 0.3850446,0 0.1171875,0.016741 0.1339286,0.033482 0.1506696,0.2008929 l 1.1383929,6.04352677 c 0.050223,0.28459822 0.1674107,0.28459822 0.3515625,0.28459822 0.2845982,0 0.3348214,-0.0669643 0.4520089,-0.25111608 z m 0,0"
         style="fill:#000000;fill-opacity:1;fill-rule:nonzero;stroke:none" />
      <path
         id="path135"
         d="m 12.179442,-2.7901451 c 0.05022,-0.1841518 0.06696,-0.2176339 0.217634,-0.234375 h 0.452009 c 0.652902,0 1.456473,0 1.456473,0.7198661 0,0.2845982 -0.133929,0.7366071 -0.46875,0.9877232 -0.284598,0.2176339 -0.719866,0.33482142 -1.205357,0.33482142 h -0.887277 z m 1.272321,1.90848215 c 0.820313,-0.18415175 1.573661,-0.68638395 1.573661,-1.32254465 0,-0.5859375 -0.719866,-1.0714286 -1.72433,-1.0714286 h -2.142857 c -0.133929,0 -0.234375,0 -0.234375,0.1506697 0,0.1004464 0.08371,0.1004464 0.234375,0.1004464 0,0 0.133928,0 0.251116,0.016741 0.150669,0.016741 0.16741,0.033482 0.16741,0.1004464 0,0.016741 0,0.050223 -0.03348,0.1506697 L 10.622524,0.94311374 C 10.555564,1.1942298 10.555564,1.244453 10.003105,1.244453 c -0.1171878,0 -0.2008932,0 -0.2008932,0.1506697 0,0.066964 0.050223,0.1004464 0.1004465,0.1004464 0.1339287,0 0.3013397,-0.016741 0.4352677,-0.016741 0.133929,0 0.334822,-0.016741 0.46875,-0.016741 0.133929,0 0.301339,0.016741 0.435268,0.016741 0.15067,0 0.334821,0.016741 0.46875,0.016741 0.03348,0 0.15067,0 0.15067,-0.1506696 0,-0.1004465 -0.06696,-0.1004465 -0.234375,-0.1004465 -0.100447,0 -0.133929,0 -0.267858,-0.016741 C 11.20846,1.210971 11.20846,1.1942299 11.20846,1.1272656 c 0,-0.016741 0,-0.050223 0.03348,-0.15066962 l 0.435268,-1.77455357 h 0.954241 c 0.602678,0 0.853795,0.30133929 0.853795,0.63616071 0,0.08370536 -0.06696,0.31808036 -0.100447,0.48549108 -0.0837,0.31808035 -0.100446,0.41852678 -0.100446,0.53571428 0,0.55245532 0.502232,0.77008932 1.021205,0.77008932 0.636161,0 0.920759,-0.68638396 0.920759,-0.80357146 0,-0.0167411 -0.01674,-0.10044643 -0.117188,-0.10044643 -0.08371,0 -0.100446,0.0502232 -0.133928,0.1171875 -0.0837,0.31808039 -0.351561,0.60267859 -0.636159,0.60267859 -0.184152,0 -0.31808,-0.083705 -0.31808,-0.45200895 0,-0.18415178 0.03348,-0.55245535 0.06696,-0.73660714 0.03348,-0.18415179 0.03348,-0.25111607 0.03348,-0.31808036 0,-0.08370535 0,-0.31808035 -0.200893,-0.51897321 -0.133928,-0.15066964 -0.31808,-0.234375 -0.46875,-0.30133929 z m 0,0"
         style="fill:#000000;fill-opacity:1;fill-rule:nonzero;stroke:none" />
    </g>
    <g
       id="g135"
       aria-label="Z&#10;line&#10;=R+jωL"
       transform="matrix(0.93333333,0,0,0.93333333,1208.7373,175.88133)">
      <path
         id="path136"
         d="m 7.8693192,-6.3600223 c 0.083705,-0.083705 0.1506696,-0.2008929 0.1506696,-0.3348215 0,-0.1339285 -0.1171875,-0.1339285 -0.2845982,-0.1339285 H 2.9139621 c -0.2511161,0 -0.3013393,0 -0.3683036,0.234375 l -0.5357143,1.7912946 c -0.050223,0.1506697 -0.050223,0.1674107 -0.050223,0.2008929 0,0.1674107 0.1674107,0.1674107 0.2176339,0.1674107 0.1506697,0 0.2008929,-0.033482 0.2511161,-0.1674107 0.4352678,-1.2555804 1.1886161,-1.7578125 2.5613839,-1.7578125 h 1.3392857 l -5.47433033,5.84263391 c -0.0837054,0.0837054 -0.18415179,0.18415178 -0.18415179,0.38504464 0,0.13392857 0.10044643,0.13392857 0.30133929,0.13392857 H 5.9608371 c 0.251116,0 0.2845982,0 0.3515625,-0.234375 L 7.0490067,-2.5095759 c 0.033482,-0.1004464 0.033482,-0.1339286 0.033482,-0.1339286 0,-0.1506696 -0.1339285,-0.1841518 -0.234375,-0.1841518 -0.066964,0 -0.1674107,0 -0.2176339,0.1339286 C 6.195212,-1.4381473 5.726462,-0.50064732 3.8347209,-0.50064732 H 2.3949888 Z m 0,0"
         style="fill:#000000;fill-opacity:1;fill-rule:nonzero;stroke:none" />
      <path
         id="path137"
         d="m 10.367924,-3.1415513 c 0,-0.016741 0.01674,-0.1004465 0.01674,-0.1171875 0,-0.033482 -0.01674,-0.083705 -0.100446,-0.083705 -0.15067,0 -0.7198663,0.050223 -0.9040181,0.066964 -0.050223,0 -0.1506696,0.016741 -0.1506696,0.1506696 0,0.1004465 0.1004464,0.1004465 0.1841517,0.1004465 0.3348215,0 0.3348215,0.050223 0.3348215,0.1004464 0,0.050223 -0.016741,0.1004464 -0.033482,0.1674107 L 8.8612277,0.69215402 c -0.033482,0.0669643 -0.033482,0.13392857 -0.033482,0.21763393 0,0.43526785 0.4017858,0.65290175 0.7366072,0.65290175 0.1674107,0 0.3683036,-0.050223 0.5524551,-0.3683035 0.15067,-0.25111611 0.251116,-0.6696429 0.251116,-0.70312504 0,-0.0837054 -0.100446,-0.0837054 -0.117187,-0.0837054 -0.100447,0 -0.117188,0.0334821 -0.133929,0.16741072 -0.100446,0.3515625 -0.2343748,0.78683042 -0.535714,0.78683042 -0.1841518,0 -0.234375,-0.1674107 -0.234375,-0.3348215 0,-0.0837053 0.016741,-0.20089285 0.050223,-0.28459821 z m 2.845982,0.2678571 c 0,-0.1004464 -0.08371,-0.2511161 -0.284598,-0.2511161 -0.184152,0 -0.385045,0.1674107 -0.385045,0.3683036 0,0.1339286 0.08371,0.2678571 0.284599,0.2678571 0.200892,0 0.385044,-0.1841517 0.385044,-0.3850446 z m -1.422991,3.54910715 c -0.03348,0.10044642 -0.06696,0.18415178 -0.06696,0.30133928 0,0.31808037 0.284598,0.58593747 0.669643,0.58593747 0.703125,0 1.004464,-0.95424104 1.004464,-1.07142854 0,-0.0837054 -0.08371,-0.0837054 -0.117187,-0.0837054 -0.100447,0 -0.100447,0.0334821 -0.133929,0.1171875 -0.15067,0.55245544 -0.46875,0.83705364 -0.736607,0.83705364 -0.133929,0 -0.167411,-0.083705 -0.167411,-0.234375 0,-0.16741078 0.05022,-0.30133935 0.100447,-0.45200899 0.08371,-0.18415179 0.150669,-0.36830358 0.234375,-0.55245536 0.05022,-0.16741072 0.31808,-0.80357143 0.334821,-0.88727679 0.01674,-0.0669643 0.05022,-0.15066964 0.05022,-0.21763393 0,-0.33482143 -0.284598,-0.60267853 -0.669643,-0.60267853 -0.686384,0 -1.004464,0.95424103 -1.004464,1.07142853 0,0.0837054 0.08371,0.0837054 0.117188,0.0837054 0.100446,0 0.100446,-0.0334821 0.117187,-0.10044643 0.184152,-0.6026786 0.485491,-0.8537946 0.753348,-0.8537946 0.100447,0 0.167411,0.050223 0.167411,0.234375 0,0.16741067 -0.03348,0.2678571 -0.217634,0.70312496 z m 2.837612,0.38504465 c -0.03348,0.083705 -0.06696,0.2678571 -0.06696,0.2845982 0,0.1506696 0.117187,0.2176339 0.234375,0.2176339 0.117187,0 0.234375,-0.083705 0.267857,-0.1506696 0.03348,-0.066964 0.100446,-0.2845982 0.133928,-0.43526787 0.03348,-0.13392857 0.100447,-0.45200893 0.15067,-0.61941964 0.03348,-0.16741072 0.08371,-0.31808036 0.117187,-0.46875 0.08371,-0.28459822 0.08371,-0.3515625 0.284599,-0.63616072 0.200892,-0.28459817 0.535714,-0.63616067 1.054687,-0.63616067 0.401786,0 0.418527,0.3515625 0.418527,0.48549103 0,0.41852679 -0.301339,1.18861607 -0.418527,1.48995536 -0.08371,0.18415178 -0.100446,0.25111607 -0.100446,0.36830357 0,0.36830354 0.301339,0.60267854 0.652901,0.60267854 0.703125,0 1.004465,-0.95424104 1.004465,-1.07142854 0,-0.0837054 -0.08371,-0.0837054 -0.100447,-0.0837054 -0.100446,0 -0.117187,0.0334821 -0.133928,0.1171875 -0.167411,0.55245544 -0.46875,0.83705364 -0.736607,0.83705364 -0.15067,0 -0.184152,-0.083705 -0.184152,-0.234375 0,-0.16741078 0.03348,-0.25111614 0.167411,-0.56919649 0.08371,-0.21763393 0.368303,-0.95424108 0.368303,-1.33928572 0,-0.68638389 -0.535714,-0.80357139 -0.904018,-0.80357139 -0.585937,0 -0.970982,0.3515625 -1.188616,0.63616068 -0.05022,-0.48549108 -0.452009,-0.63616068 -0.736607,-0.63616068 -0.301339,0 -0.46875,0.2176339 -0.552455,0.3850446 -0.167411,0.25111608 -0.251116,0.65290179 -0.251116,0.68638393 0,0.0837054 0.08371,0.0837054 0.117187,0.0837054 0.100447,0 0.100447,-0.0167411 0.15067,-0.20089286 0.100446,-0.41852677 0.234375,-0.75334817 0.502232,-0.75334817 0.184152,0 0.234375,0.1506696 0.234375,0.3348214 0,0.13392856 -0.06696,0.4017857 -0.117188,0.58593749 -0.05022,0.18415178 -0.117187,0.46875 -0.150669,0.61941964 z m 5.625,-1.15513394 c 0.200893,0 0.753348,-0.01674107 1.138393,-0.15066964 0.502232,-0.18415179 0.602678,-0.51897322 0.602678,-0.71986607 0,-0.38504465 -0.385044,-0.61941965 -0.853794,-0.61941965 -0.853795,0 -1.975447,0.63616072 -1.975447,1.84151786 0,0.703125 0.435268,1.30580354 1.255581,1.30580354 1.171875,0 1.72433,-0.6863839 1.72433,-0.78683033 0,-0.0334821 -0.05022,-0.1171875 -0.117188,-0.1171875 -0.03348,0 -0.05022,0.0167411 -0.100446,0.0669643 -0.552455,0.63616073 -1.372768,0.63616073 -1.489955,0.63616073 -0.418527,0 -0.703125,-0.2678572 -0.703125,-0.83705359 0,-0.10044643 0,-0.234375 0.08371,-0.61941964 z M 19.868482,-0.2955692 c 0.301339,-1.0044643 1.071429,-1.0881696 1.272322,-1.0881696 0.301339,0 0.552455,0.1506696 0.552455,0.41852675 0,0.66964285 -1.171875,0.66964285 -1.473214,0.66964285 z m 0,0"
         style="fill:#000000;fill-opacity:1;fill-rule:nonzero;stroke:none" />
      <path
         id="path138"
         d="m 32.587511,-3.2629241 c 0.15067,0 0.334822,0 0.334822,-0.1841518 0,-0.2008929 -0.184152,-0.2008929 -0.334822,-0.2008929 H 26.62769 c -0.133929,0 -0.334822,0 -0.334822,0.2008929 0,0.1841518 0.200893,0.1841518 0.351563,0.1841518 z m 0,1.9419643 c 0.15067,0 0.334822,0 0.334822,-0.2008929 0,-0.2008928 -0.184152,-0.2008928 -0.334822,-0.2008928 h -5.94308 c -0.15067,0 -0.351563,0 -0.351563,0.2008928 0,0.2008929 0.200893,0.2008929 0.334822,0.2008929 z m 0,0"
         style="fill:#000000;fill-opacity:1;fill-rule:nonzero;stroke:none" />
      <path
         id="path139"
         d="m 39.99125,-6.1089063 c 0.06696,-0.251116 0.08371,-0.3515625 0.284598,-0.3683035 0.08371,-0.016741 0.401786,-0.016741 0.602679,-0.016741 0.703125,0 1.808036,0 1.808036,0.9877232 0,0.3348214 -0.15067,1.0212054 -0.535715,1.40625 -0.267857,0.2678572 -0.78683,0.5859375 -1.690848,0.5859375 h -1.121652 z m 1.439732,2.7287947 c 1.004464,-0.2176339 2.193081,-0.9207589 2.193081,-1.9252232 0,-0.8537947 -0.904018,-1.4899554 -2.209822,-1.4899554 H 38.585 c -0.200893,0 -0.301339,0 -0.301339,0.2008929 0,0.1004464 0.100446,0.1004464 0.284598,0.1004464 0.01674,0 0.217634,0 0.385045,0.016741 0.16741,0.016741 0.267857,0.033482 0.267857,0.1674107 0,0.033482 -0.01674,0.066964 -0.05022,0.1841518 l -1.322545,5.35714284 c -0.100447,0.38504464 -0.133929,0.46875 -0.920759,0.46875 -0.167411,0 -0.267857,0 -0.267857,0.18415178 0,0.1171875 0.133928,0.1171875 0.150669,0.1171875 0.267858,0 0.970983,-0.03348214 1.255581,-0.03348214 0.267857,0 0.987723,0.03348214 1.25558,0.03348214 0.08371,0 0.200893,0 0.200893,-0.20089286 0,-0.10044642 -0.08371,-0.10044642 -0.267857,-0.10044642 -0.385045,0 -0.652902,0 -0.652902,-0.18415179 0,-0.0669643 0.01674,-0.1171875 0.03348,-0.16741071 l 0.652902,-2.64508934 h 1.188616 c 0.904018,0 1.08817,0.5524554 1.08817,0.9040179 0,0.1506696 -0.08371,0.46875 -0.15067,0.6863839 -0.06696,0.2845982 -0.15067,0.6529018 -0.15067,0.85379468 0,1.07142857 1.188617,1.07142857 1.322545,1.07142857 0.837054,0 1.188616,-1.00446429 1.188616,-1.13839286 0,-0.11718749 -0.100446,-0.11718749 -0.117187,-0.11718749 -0.08371,0 -0.100447,0.0669643 -0.133929,0.13392856 -0.251116,0.73660715 -0.669643,0.90401786 -0.904018,0.90401786 -0.31808,0 -0.401785,-0.21763393 -0.401785,-0.60267857 0,-0.31808036 0.06696,-0.82031255 0.100446,-1.13839285 0.03348,-0.1339286 0.05022,-0.3348214 0.05022,-0.46875 0,-0.7700893 -0.669643,-1.0714286 -0.9375,-1.171875 z m 0,0"
         style="fill:#000000;fill-opacity:1;fill-rule:nonzero;stroke:none" />
      <path
         id="path140"
         d="m 50.182377,-2.291942 h 2.779018 c 0.15067,0 0.334822,0 0.334822,-0.2008928 0,-0.2008929 -0.184152,-0.2008929 -0.334822,-0.2008929 h -2.779018 v -2.7790178 c 0,-0.1506697 0,-0.3348215 -0.200893,-0.3348215 -0.184151,0 -0.184151,0.1841518 -0.184151,0.3348215 v 2.7790178 h -2.795759 c -0.133929,0 -0.334822,0 -0.334822,0.2008929 0,0.2008928 0.200893,0.2008928 0.334822,0.2008928 h 2.795759 v 2.79575896 c 0,0.13392858 0,0.31808036 0.184151,0.31808036 0.200893,0 0.200893,-0.18415178 0.200893,-0.31808036 z m 0,0"
         style="fill:#000000;fill-opacity:1;fill-rule:nonzero;stroke:none" />
      <path
         id="path141"
         d="m 60.026127,-6.2260938 c 0,-0.1841517 -0.133928,-0.3515625 -0.368303,-0.3515625 -0.234375,0 -0.535715,0.217634 -0.535715,0.5189733 0,0.2008928 0.133929,0.3683035 0.368304,0.3683035 0.267857,0 0.535714,-0.2678571 0.535714,-0.5357143 z M 58.03394,0.50381696 C 57.833047,1.2571652 57.364297,1.8263616 56.7951,1.8263616 c -0.05022,0 -0.200892,0 -0.385044,-0.083705 0.301339,-0.083705 0.452009,-0.3348214 0.452009,-0.5357142 0,-0.1674108 -0.117188,-0.35156254 -0.385045,-0.35156254 -0.234375,0 -0.535714,0.21763394 -0.535714,0.56919644 0,0.4017857 0.401786,0.6194196 0.887277,0.6194196 0.686384,0 1.623884,-0.5357143 1.858259,-1.50669639 L 59.6076,-3.1122545 c 0.05022,-0.2008928 0.05022,-0.3348214 0.05022,-0.3683035 0,-0.5691965 -0.418527,-0.920759 -0.920759,-0.920759 -1.004465,0 -1.573661,1.4397322 -1.573661,1.5401786 0,0.1004464 0.100446,0.1004464 0.117188,0.1004464 0.08371,0 0.100446,-0.016741 0.184151,-0.2008928 0.251116,-0.6194197 0.703125,-1.2220982 1.255581,-1.2220982 0.133928,0 0.31808,0.033482 0.31808,0.4520089 0,0.234375 -0.03348,0.3515625 -0.06696,0.5189732 z M 66.772779,-3.698192 c 0,-0.4520089 -0.184152,-0.703125 -0.401786,-0.703125 -0.251116,0 -0.518973,0.234375 -0.518973,0.46875 0,0.1004465 0.05022,0.2008929 0.15067,0.3013393 0.16741,0.1506697 0.334821,0.4185268 0.334821,0.8370536 0,0.4017857 -0.184152,0.9709821 -0.485491,1.4229911 -0.301339,0.41852675 -0.669643,0.77008925 -1.138393,0.77008925 -0.569196,0 -0.887277,-0.36830357 -0.970982,-0.90401785 0.117188,-0.2511161 0.334822,-0.8872768 0.334822,-1.171875 0,-0.1171875 -0.05022,-0.2176339 -0.167411,-0.2176339 -0.08371,0 -0.200893,0.016741 -0.267857,0.1674107 -0.117188,0.2008928 -0.234375,0.8537946 -0.234375,1.2053571 -0.334822,0.46875 -0.736607,0.92075895 -1.356027,0.92075895 -0.652902,0 -0.870536,-0.58593755 -0.870536,-1.15513395 0,-1.2388393 1.021206,-2.2935268 1.021206,-2.4107143 0,-0.1171875 -0.08371,-0.2008928 -0.184152,-0.2008928 -0.133929,0 -0.200893,0.1339285 -0.267857,0.2176339 -0.502233,0.7533482 -0.887277,1.9252232 -0.887277,2.8292411 0,0.70312498 0.234375,1.43973212 1.054687,1.43973212 0.703125,0 1.171875,-0.50223214 1.523438,-1.0546875 0.100446,0.5859375 0.485491,1.0546875 1.104911,1.0546875 0.770089,0 1.25558,-0.61941964 1.607142,-1.35602682 0.234375,-0.5022321 0.61942,-1.8415178 0.61942,-2.4609375 z m 4.264788,-2.3270089 c 0.08371,-0.3515625 0.117187,-0.46875 1.054687,-0.46875 0.284599,0 0.368304,0 0.368304,-0.1841518 0,-0.1171875 -0.100446,-0.1171875 -0.15067,-0.1171875 -0.334821,0 -1.155134,0.016741 -1.473214,0.016741 -0.301339,0 -1.037946,-0.016741 -1.339286,-0.016741 -0.06696,0 -0.184151,0 -0.184151,0.2008929 0,0.1004464 0.100446,0.1004464 0.284598,0.1004464 0.01674,0 0.200893,0 0.368303,0.016741 0.184152,0.016741 0.284599,0.033482 0.284599,0.1674107 0,0.033482 -0.01674,0.066964 -0.05022,0.1841518 l -1.339285,5.35714284 c -0.100447,0.38504464 -0.117188,0.46875 -0.904018,0.46875 -0.167411,0 -0.267857,0 -0.267857,0.18415178 0,0.1171875 0.100446,0.1171875 0.267857,0.1171875 h 4.620536 c 0.234375,0 0.251116,0 0.301339,-0.16741071 l 0.78683,-2.15959821 c 0.05022,-0.1004464 0.05022,-0.1171875 0.05022,-0.1339286 0,-0.033482 -0.03348,-0.1171875 -0.133928,-0.1171875 -0.08371,0 -0.100447,0.050223 -0.167411,0.2176339 -0.334821,0.920759 -0.770089,2.05915184 -2.49442,2.05915184 h -0.9375 c -0.133928,0 -0.150669,0 -0.217633,-0.0167411 -0.100447,-0.0167411 -0.133929,-0.0167411 -0.133929,-0.10044642 0,-0.0334821 0,-0.0502232 0.05022,-0.234375 z m 0,0"
         style="fill:#000000;fill-opacity:1;fill-rule:nonzero;stroke:none" />
    </g>
  </g>
</svg>
