<?xml version="1.0" encoding="UTF-8" standalone="no"?>
<!-- Created with Inkscape (http://www.inkscape.org/) -->

<svg
   version="1.1"
   id="svg1"
   width="225.49609"
   height="97.865631"
   viewBox="0 0 225.49609 97.865631"
   sodipodi:docname="CircuiTikz (29).pdf"
   xmlns:inkscape="http://www.inkscape.org/namespaces/inkscape"
   xmlns:sodipodi="http://sodipodi.sourceforge.net/DTD/sodipodi-0.dtd"
   xmlns="http://www.w3.org/2000/svg"
   xmlns:svg="http://www.w3.org/2000/svg">
  <defs
     id="defs1" />
  <sodipodi:namedview
     id="namedview1"
     pagecolor="#ffffff"
     bordercolor="#000000"
     borderopacity="0.25"
     inkscape:showpageshadow="2"
     inkscape:pageopacity="0.0"
     inkscape:pagecheckerboard="0"
     inkscape:deskcolor="#d1d1d1">
    <inkscape:page
       x="4.8994839e-06"
       y="2.1313303e-07"
       width="225.49609"
       height="97.865631"
       id="page2"
       margin="0"
       bleed="0" />
  </sodipodi:namedview>
  <g
     id="g524"
     inkscape:groupmode="layer"
     inkscape:label="5"
     transform="translate(-3638.6172,-201.5)">
    <path
       id="path526"
       d="m 0,0 h 79.37363 m 0,0 h 79.36779"
       style="fill:none;stroke:#000000;stroke-width:0.3985;stroke-linecap:butt;stroke-linejoin:miter;stroke-miterlimit:10;stroke-dasharray:none;stroke-opacity:1"
       transform="matrix(1.3333333,0,0,-1.3333333,3644.4347,297.61867)" />
    <path
       id="path527"
       d="M 1.11098,0 C 1.11098,0.61357 0.61357,1.11098 0,1.11098 -0.61357,1.11098 -1.11098,0.61357 -1.11098,0 c 0,-0.61357 0.49741,-1.11098 1.11098,-1.11098 0.61357,0 1.11098,0.49741 1.11098,1.11098 z"
       style="fill:#000000;fill-opacity:1;fill-rule:nonzero;stroke:#000000;stroke-width:0.3985;stroke-linecap:butt;stroke-linejoin:miter;stroke-miterlimit:10;stroke-dasharray:none;stroke-opacity:1"
       transform="matrix(1.3333333,0,0,-1.3333333,3644.4347,297.61867)" />
    <path
       id="path528"
       d="m 159.85242,0 c 0,0.61357 -0.49741,1.11098 -1.111,1.11098 -0.61358,0 -1.11099,-0.49741 -1.11099,-1.11098 0,-0.61357 0.49741,-1.11098 1.11099,-1.11098 0.61359,0 1.111,0.49741 1.111,1.11098 z"
       style="fill:#000000;fill-opacity:1;fill-rule:nonzero;stroke:#000000;stroke-width:0.3985;stroke-linecap:butt;stroke-linejoin:miter;stroke-miterlimit:10;stroke-dasharray:none;stroke-opacity:1"
       transform="matrix(1.3333333,0,0,-1.3333333,3644.4347,297.61867)" />
    <path
       id="path529"
       d="m 0,59.52802 9.92166,0.0022 m 0,0 9.92101,-0.0022 9.92241,0.0022 m 0,0 9.92027,-0.0022 0.0014,-4.95867 m 0,0 -0.0014,-4.96268 -4.95941,0.0018 m 0,0 -4.96194,-0.0018 0.0011,-8.7293 m 0,-22.2246 -0.0011,-8.73144 4.96194,3.2e-4 m 0,0 4.95941,-3.2e-4 0.0014,-4.96053 m 0,0 L 39.68535,0"
       style="fill:none;stroke:#000000;stroke-width:0.3985;stroke-linecap:butt;stroke-linejoin:miter;stroke-miterlimit:10;stroke-dasharray:none;stroke-opacity:1"
       transform="matrix(1.3333333,0,0,-1.3333333,3644.4347,297.61867)" />
    <path
       id="path530"
       d="M 1.11098,59.52802 C 1.11098,60.1416 0.61357,60.639 0,60.639 c -0.61357,0 -1.11098,-0.4974 -1.11098,-1.11098 0,-0.61358 0.49741,-1.111 1.11098,-1.111 0.61357,0 1.11098,0.49742 1.11098,1.111 z"
       style="fill:#000000;fill-opacity:1;fill-rule:nonzero;stroke:#000000;stroke-width:0.3985;stroke-linecap:butt;stroke-linejoin:miter;stroke-miterlimit:10;stroke-dasharray:none;stroke-opacity:1"
       transform="matrix(1.3333333,0,0,-1.3333333,3644.4347,297.61867)" />
    <path
       id="path531"
       d="m 8.70633,59.53018 v -1.38896 l 2.95155,1.38896 -2.95155,1.38896 z"
       style="fill:#000000;fill-opacity:1;fill-rule:nonzero;stroke:#000000;stroke-width:0.3985;stroke-linecap:butt;stroke-linejoin:miter;stroke-miterlimit:10;stroke-dasharray:none;stroke-opacity:1"
       transform="matrix(1.3333333,0,0,-1.3333333,3644.4347,297.61867)" />
    <g
       id="g531"
       aria-label="I&#10;1"
       transform="matrix(0.93333333,0,0,0.93333333,3652.84,213.56533)">
      <path
         id="path532"
         d="m 4.3859933,-6.1595647 c 0.050223,-0.1674107 0.050223,-0.1674107 0.2511161,-0.2008929 0.1506696,0 0.2845982,0 0.4352678,0 h 0.2008929 c 0.2176339,0 0.2176339,-0.016741 0.2678571,-0.050223 0.066964,-0.050223 0.1004465,-0.1841518 0.1004465,-0.234375 0,-0.1339286 -0.1004465,-0.1841518 -0.217634,-0.1841518 -0.251116,0 -0.5189732,0.016741 -0.7700893,0.016741 -0.251116,0 -0.5189732,0.016741 -0.7868303,0.016741 -0.2845982,0 -0.5524554,-0.016741 -0.8370536,-0.016741 -0.2511161,0 -0.5189732,-0.016741 -0.7700893,-0.016741 -0.1004464,0 -0.2845982,0 -0.2845982,0.2845982 0,0.1841518 0.1506697,0.1841518 0.3348214,0.1841518 h 0.217634 c 0.083705,0 0.3180803,0 0.5189732,0.016741 l -1.4229911,5.6752232 c -0.033482,0.16741071 -0.050223,0.16741071 -0.234375,0.18415178 -0.1171875,0.0167411 -0.3013393,0.0167411 -0.43526784,0.0167411 H 0.7531808 c -0.20089285,0 -0.36830357,0 -0.36830357,0.28459822 0,0.13392857 0.10044643,0.18415178 0.21763393,0.18415178 0.25111607,0 0.50223214,-0.01674107 0.75334824,-0.01674107 0.2678571,0 0.5357143,-0.01674107 0.8035714,-0.01674107 0.2845982,0 0.5524554,0.01674107 0.8370536,0.01674107 0.251116,0 0.5022321,0.01674107 0.7533482,0.01674107 0.1004464,0 0.3013393,0 0.3013393,-0.28459821 0,-0.18415179 -0.1674107,-0.18415179 -0.3348215,-0.18415179 H 3.4987165 c -0.066964,0 -0.3850446,-0.0167411 -0.5189732,-0.0167411 z m 0,0"
         style="fill:#000000;fill-opacity:1;fill-rule:nonzero;stroke:none" />
      <path
         id="path533"
         d="m 8.2113281,-2.9410937 c 0,-0.1841518 -0.016741,-0.2008929 -0.2176339,-0.2008929 -0.4520089,0.4352679 -1.0714286,0.4520089 -1.3727679,0.4520089 v 0.2511161 c 0.1674108,0 0.6361608,0 1.0212054,-0.2008929 v 3.56584825 c 0,0.23437505 0,0.31808035 -0.703125,0.31808035 H 6.6711496 v 0.2511161 c 0.1339285,0 0.9877232,-0.033482 1.2555803,-0.033482 0.2176339,0 1.0881697,0.033482 1.2388393,0.033482 V 1.2441741 H 8.8977121 c -0.686384,0 -0.686384,-0.083705 -0.686384,-0.31808035 z m 0,0"
         style="fill:#000000;fill-opacity:1;fill-rule:nonzero;stroke:none" />
    </g>
    <path
       id="path534"
       d="m 39.68678,55.78468 h -1.38896 l 1.38896,-2.95155 1.38896,2.95155 z"
       style="fill:#000000;fill-opacity:1;fill-rule:nonzero;stroke:#000000;stroke-width:0.3985;stroke-linecap:butt;stroke-linejoin:miter;stroke-miterlimit:10;stroke-dasharray:none;stroke-opacity:1"
       transform="matrix(1.3333333,0,0,-1.3333333,3644.4347,297.61867)" />
    <g
       id="g534"
       aria-label="I&#10;e"
       transform="matrix(0.93333333,0,0,0.93333333,3700.636,227.352)">
      <path
         id="path535"
         d="m 4.3869308,-6.161183 c 0.050223,-0.1674107 0.050223,-0.1674107 0.2511161,-0.2008929 0.1506696,0 0.2845982,0 0.4352678,0 h 0.2008929 c 0.2176339,0 0.2176339,-0.016741 0.2678571,-0.050223 0.066964,-0.050223 0.1004465,-0.1841518 0.1004465,-0.234375 0,-0.1339286 -0.1004465,-0.1841518 -0.217634,-0.1841518 -0.251116,0 -0.5189732,0.016741 -0.7700893,0.016741 -0.251116,0 -0.5189732,0.016741 -0.7868303,0.016741 -0.2845982,0 -0.5524554,-0.016741 -0.8370536,-0.016741 -0.2511161,0 -0.5189732,-0.016741 -0.7700893,-0.016741 -0.1004464,0 -0.2845982,0 -0.2845982,0.2845982 0,0.1841518 0.1506697,0.1841518 0.3348214,0.1841518 h 0.217634 c 0.083705,0 0.3180803,0 0.5189732,0.016741 L 1.624654,-0.67011161 c -0.033482,0.16741072 -0.050223,0.16741072 -0.234375,0.18415179 -0.1171875,0.0167411 -0.3013393,0.0167411 -0.43526784,0.0167411 H 0.7541183 c -0.20089285,0 -0.36830357,0 -0.36830357,0.28459821 0,0.13392858 0.10044643,0.18415179 0.21763393,0.18415179 0.25111607,0 0.50223214,-0.01674107 0.75334824,-0.01674107 0.2678571,0 0.5357143,-0.01674107 0.8035714,-0.01674107 0.2845982,0 0.5524554,0.01674107 0.8370536,0.01674107 0.251116,0 0.5022321,0.01674107 0.7533482,0.01674107 0.1004464,0 0.3013393,0 0.3013393,-0.28459821 0,-0.18415179 -0.1674107,-0.18415179 -0.3348215,-0.18415179 H 3.499654 c -0.066964,0 -0.3850446,-0.0167411 -0.5189732,-0.0167411 z m 0,0"
         style="fill:#000000;fill-opacity:1;fill-rule:nonzero;stroke:none" />
      <path
         id="path536"
         d="m 7.4254353,-0.09672991 c 0.2008928,0 0.7533482,-0.01674107 1.1383928,-0.15066964 0.5022322,-0.18415179 0.6026786,-0.51897322 0.6026786,-0.71986607 0,-0.38504468 -0.3850446,-0.61941968 -0.8537946,-0.61941968 -0.8537947,0 -1.9754465,0.63616075 -1.9754465,1.84151789 0,0.703125 0.4352679,1.30580361 1.2555804,1.30580361 1.171875,0 1.7243303,-0.68638397 1.7243303,-0.7868304 0,-0.0334821 -0.050223,-0.1171875 -0.1171875,-0.1171875 -0.033482,0 -0.050223,0.0167411 -0.1004464,0.0669643 -0.5524553,0.6361607 -1.3727678,0.6361607 -1.4899553,0.6361607 -0.4185268,0 -0.703125,-0.2678571 -0.703125,-0.83705357 0,-0.10044643 0,-0.234375 0.083705,-0.61941964 z M 7.0403906,-0.29762277 C 7.3417299,-1.3020871 8.1118192,-1.3857924 8.3127121,-1.3857924 c 0.3013392,0 0.5524553,0.1506696 0.5524553,0.41852678 0,0.66964285 -1.171875,0.66964285 -1.4732143,0.66964285 z m 0,0"
         style="fill:#000000;fill-opacity:1;fill-rule:nonzero;stroke:none" />
    </g>
    <path
       id="path537"
       d="m 29.764,41.27438 4.16697,-2.2837 -8.33394,-3.77036 8.33394,-3.77038 -8.33394,-3.77037 8.33394,-3.77037 -8.33394,-3.77038 4.16697,-1.88519"
       style="fill:none;stroke:#000000;stroke-width:0.797;stroke-linecap:butt;stroke-linejoin:bevel;stroke-miterlimit:10;stroke-dasharray:none;stroke-opacity:1"
       transform="matrix(1.3333333,0,0,-1.3333333,3644.4347,297.61867)" />
    <g
       id="g537"
       aria-label="G&#10;c"
       transform="matrix(0.93333333,0,0,0.93333333,3664.7653,259.93467)">
      <path
         id="path538"
         d="m 7.5672768,-6.9319531 c 0,-0.016741 -0.016741,-0.083705 -0.1004464,-0.083705 -0.033482,0 -0.050223,0 -0.1506697,0.1171875 l -0.703125,0.7533482 c -0.083705,-0.1339285 -0.5524553,-0.8705357 -1.6573661,-0.8705357 -2.2098214,0 -4.45312496,2.1930804 -4.45312496,4.5033482 0,1.59040182 1.10491076,2.72879467 2.71205356,2.72879467 0.4352679,0 0.8872768,-0.0837054 1.2555804,-0.234375 0.485491,-0.20089285 0.6863839,-0.41852678 0.8537946,-0.60267857 0.1004464,0.234375 0.3515625,0.60267857 0.4520089,0.60267857 0.050223,0 0.066964,-0.01674107 0.066964,-0.03348214 0.016741,-0.01674107 0.1171875,-0.40178571 0.1674107,-0.60267857 L 6.21125,-1.4241406 c 0.033482,-0.1674107 0.083705,-0.3348215 0.1171875,-0.5022322 0.1171875,-0.4520089 0.1339286,-0.46875 0.6863839,-0.485491 0.050223,0 0.1674107,-0.016741 0.1674107,-0.2008929 0,-0.066964 -0.050223,-0.1004464 -0.1339285,-0.1004464 -0.217634,0 -0.8203125,0.016741 -1.0379465,0.016741 -0.3180803,0 -1.0881696,-0.016741 -1.40625,-0.016741 -0.083705,0 -0.2008928,0 -0.2008928,0.1841518 0,0.1171875 0.083705,0.1171875 0.3013393,0.1171875 0,0 0.3013393,0 0.5189732,0.016741 0.2678571,0.033482 0.3180803,0.066964 0.3180803,0.2008929 0,0.083705 -0.1171875,0.5357143 -0.2176339,0.9040178 -0.2678571,1.08816969 -1.5736607,1.20535719 -1.9252232,1.20535719 -0.9542411,0 -1.9921875,-0.56919643 -1.9921875,-2.09263389 0,-0.3180804 0.1004464,-1.9587054 1.1383929,-3.2477679 0.5357142,-0.6863839 1.5066964,-1.2890625 2.4944196,-1.2890625 1.0212054,0 1.6071429,0.7700893 1.6071429,1.9252232 0,0.4017857 -0.033482,0.4017857 -0.033482,0.5022322 0,0.1004464 0.1171875,0.1004464 0.1506697,0.1004464 0.1339285,0 0.1339285,-0.016741 0.1841517,-0.2008929 z m 0,0"
         style="fill:#000000;fill-opacity:1;fill-rule:nonzero;stroke:none" />
      <path
         id="path539"
         d="m 10.894565,-1.1855804 c -0.251116,0.050223 -0.368304,0.23437504 -0.368304,0.40178576 0,0.18415178 0.15067,0.25111607 0.284598,0.25111607 0.15067,0 0.385045,-0.1171875 0.385045,-0.45200893 0,-0.46875 -0.535714,-0.6026786 -0.920759,-0.6026786 -1.0379463,0 -2.0089285,0.97098217 -2.0089285,1.94196431 0,0.5859375 0.4185268,1.20535719 1.2890625,1.20535719 1.171875,0 1.72433,-0.68638397 1.72433,-0.7868304 0,-0.0334821 -0.05022,-0.1171875 -0.117187,-0.1171875 -0.03348,0 -0.05022,0.0167411 -0.100447,0.0669643 -0.552455,0.6361607 -1.3727674,0.6361607 -1.4899549,0.6361607 -0.5022322,0 -0.7366072,-0.3348214 -0.7366072,-0.77008929 0,-0.20089285 0.1004465,-0.95424107 0.46875,-1.43973214 0.2678572,-0.35156247 0.6361608,-0.53571427 0.9709821,-0.53571427 0.100447,0 0.435268,0.016741 0.61942,0.2008928 z m 0,0"
         style="fill:#000000;fill-opacity:1;fill-rule:nonzero;stroke:none" />
    </g>
    <path
       id="path540"
       d="m 29.76561,46.459 h -1.38896 l 1.38896,-2.95155 1.38895,2.95155 z"
       style="fill:#000000;fill-opacity:1;fill-rule:nonzero;stroke:#000000;stroke-width:0.3985;stroke-linecap:butt;stroke-linejoin:miter;stroke-miterlimit:10;stroke-dasharray:none;stroke-opacity:1"
       transform="matrix(1.3333333,0,0,-1.3333333,3644.4347,297.61867)" />
    <g
       id="g540"
       aria-label="I&#10;c"
       transform="matrix(0.93333333,0,0,0.93333333,3671.5733,239.78667)">
      <path
         id="path541"
         d="m 4.3871094,-6.1623326 c 0.050223,-0.1674107 0.050223,-0.1674107 0.251116,-0.2008928 0.1506697,0 0.2845983,0 0.4352679,0 h 0.2008929 c 0.2176339,0 0.2176339,-0.016741 0.2678571,-0.050223 0.066964,-0.050223 0.1004464,-0.1841517 0.1004464,-0.234375 0,-0.1339285 -0.1004464,-0.1841517 -0.2176339,-0.1841517 -0.2511161,0 -0.5189732,0.016741 -0.7700893,0.016741 -0.2511161,0 -0.5189732,0.016741 -0.7868303,0.016741 -0.2845983,0 -0.5524554,-0.016741 -0.8370536,-0.016741 -0.2511161,0 -0.5189732,-0.016741 -0.7700893,-0.016741 -0.1004464,0 -0.2845982,0 -0.2845982,0.2845982 0,0.1841518 0.1506696,0.1841518 0.3348214,0.1841518 h 0.2176339 c 0.083705,0 0.3180804,0 0.5189733,0.016741 l -1.4229911,5.67522324 c -0.033482,0.16741071 -0.050223,0.16741071 -0.234375,0.18415179 -0.1171875,0.0167411 -0.3013393,0.0167411 -0.43526787,0.0167411 H 0.75429688 c -0.20089286,0 -0.36830358,0 -0.36830358,0.28459821 0,0.13392857 0.10044643,0.18415179 0.21763393,0.18415179 0.25111607,0 0.50223217,-0.01674107 0.75334817,-0.01674107 0.2678572,0 0.5357143,-0.01674108 0.8035715,-0.01674108 0.2845982,0 0.5524553,0.01674108 0.8370535,0.01674108 0.2511161,0 0.5022322,0.01674107 0.7533483,0.01674107 0.1004464,0 0.3013392,0 0.3013392,-0.28459822 0,-0.18415178 -0.1674107,-0.18415178 -0.3348214,-0.18415178 H 3.4998326 c -0.066964,0 -0.3850447,-0.0167411 -0.5189732,-0.0167411 z m 0,0"
         style="fill:#000000;fill-opacity:1;fill-rule:nonzero;stroke:none" />
      <path
         id="path542"
         d="m 8.9323103,-1.1860491 c -0.2511161,0.050223 -0.3683036,0.23437499 -0.3683036,0.40178571 0,0.18415178 0.1506696,0.25111607 0.2845982,0.25111607 0.1506697,0 0.3850447,-0.1171875 0.3850447,-0.45200893 0,-0.46874995 -0.5357143,-0.60267855 -0.920759,-0.60267855 -1.0379464,0 -2.0089285,0.97098212 -2.0089285,1.94196426 0,0.5859375 0.4185267,1.20535714 1.2890625,1.20535714 1.171875,0 1.7243303,-0.68638392 1.7243303,-0.78683035 0,-0.0334821 -0.050223,-0.1171875 -0.1171875,-0.1171875 -0.033482,0 -0.050223,0.0167411 -0.1004464,0.0669643 C 8.5472656,1.3585938 7.7269531,1.3585938 7.6097656,1.3585938 c -0.5022321,0 -0.7366071,-0.3348215 -0.7366071,-0.77008934 0,-0.20089285 0.1004464,-0.95424107 0.46875,-1.43973214 C 7.6097656,-1.2027902 7.9780692,-1.386942 8.3128906,-1.386942 c 0.1004465,0 0.4352679,0.016741 0.6194197,0.2008929 z m 0,0"
         style="fill:#000000;fill-opacity:1;fill-rule:nonzero;stroke:none" />
    </g>
    <path
       id="path543"
       d="m 0,59.52802 19.84337,0.0022 m 0,0 19.84198,-0.0022 0.0014,-4.95867 m 0,0 -0.0014,-4.96268 4.96229,0.0018 m 0,0 4.95903,-0.0018 0.0018,-8.7293 m 0,-22.2246 -0.0018,-8.73144 -4.95903,3.2e-4 m 0,0 -4.96229,-3.2e-4 0.0014,-4.96053 m 0,0 L 39.68535,0"
       style="fill:none;stroke:#000000;stroke-width:0.3985;stroke-linecap:butt;stroke-linejoin:miter;stroke-miterlimit:10;stroke-dasharray:none;stroke-opacity:1"
       transform="matrix(1.3333333,0,0,-1.3333333,3644.4347,297.61867)" />
    <path
       id="path544"
       d="M 1.11098,59.52802 C 1.11098,60.1416 0.61357,60.639 0,60.639 c -0.61357,0 -1.11098,-0.4974 -1.11098,-1.11098 0,-0.61358 0.49741,-1.111 1.11098,-1.111 0.61357,0 1.11098,0.49742 1.11098,1.111 z"
       style="fill:#000000;fill-opacity:1;fill-rule:nonzero;stroke:#000000;stroke-width:0.3985;stroke-linecap:butt;stroke-linejoin:miter;stroke-miterlimit:10;stroke-dasharray:none;stroke-opacity:1"
       transform="matrix(1.3333333,0,0,-1.3333333,3644.4347,297.61867)" />
    <path
       id="path545"
       d="m 49.44727,41.27438 c 2.30127,0 4.16677,-1.28834 4.16677,-2.87759 0,-1.58926 -1.8655,-2.87761 -4.16677,-2.87761 2.30127,0 4.16677,-1.28833 4.16677,-2.87759 0,-1.58927 -1.8655,-2.8776 -4.16677,-2.8776 2.30127,0 4.16677,-1.28834 4.16677,-2.87759 0,-1.58927 -1.8655,-2.87761 -4.16677,-2.87761 2.30127,0 4.16677,-1.28833 4.16677,-2.87759 0,-1.58927 -1.8655,-2.8776 -4.16677,-2.8776"
       style="fill:none;stroke:#000000;stroke-width:0.797;stroke-linecap:butt;stroke-linejoin:bevel;stroke-miterlimit:10;stroke-dasharray:none;stroke-opacity:1"
       transform="matrix(1.3333333,0,0,-1.3333333,3644.4347,297.61867)" />
    <g
       id="g545"
       aria-label="B&#10;m"
       transform="matrix(0.93333333,0,0,0.93333333,3718.8347,259.93467)">
      <path
         id="path546"
         d="m 1.5917634,-0.77123884 c -0.1004464,0.38504464 -0.1171875,0.46875 -0.90401786,0.46875 -0.16741072,0 -0.26785715,0 -0.26785715,0.18415179 0,0.1171875 0.0837054,0.1171875 0.26785715,0.1171875 H 4.2368527 c 1.5736607,0 2.7622768,-1.17187505 2.7622768,-2.15959825 0,-0.703125 -0.5859375,-1.2890625 -1.5569197,-1.3895089 1.0379465,-0.2008929 2.092634,-0.9375 2.092634,-1.875 0,-0.7366071 -0.6529018,-1.3727679 -1.858259,-1.3727679 H 2.3283705 c -0.1841517,0 -0.2845982,0 -0.2845982,0.2008929 0,0.1004464 0.083705,0.1004464 0.2845982,0.1004464 0.016741,0 0.2008929,0 0.3683036,0.016741 0.1841518,0.016741 0.2678572,0.033482 0.2678572,0.1674107 0,0.033482 0,0.066964 -0.033482,0.1841518 z M 3.0984598,-3.6507031 3.7178795,-6.1116406 c 0.083705,-0.3515625 0.1004464,-0.3850447 0.5357143,-0.3850447 h 1.2890625 c 0.8705357,0 1.0881696,0.5859375 1.0881696,1.0212054 0,0.8872768 -0.8537946,1.8247768 -2.0758929,1.8247768 z m -0.4520089,3.34821426 c -0.1339286,0 -0.1506696,0 -0.2176339,-0.0167411 -0.1004465,-0.0167411 -0.1339286,-0.0167411 -0.1339286,-0.10044643 0,-0.0334821 0,-0.0502232 0.050223,-0.234375 L 3.0314955,-3.4330692 h 1.8917411 c 0.9542411,0 1.1383929,0.7366071 1.1383929,1.171875 0,0.9877232 -0.8872768,1.95870536 -2.0591518,1.95870536 z m 0,0"
         style="fill:#000000;fill-opacity:1;fill-rule:nonzero;stroke:none" />
      <path
         id="path547"
         d="m 10.585904,0.92379464 c -0.03348,0.15066966 -0.100446,0.38504466 -0.100446,0.41852676 0,0.1506697 0.133928,0.217634 0.234375,0.217634 0.133928,0 0.234375,-0.083705 0.284598,-0.1506697 0.03348,-0.066964 0.08371,-0.2845982 0.117187,-0.43526784 0.03348,-0.13392857 0.117188,-0.45200893 0.15067,-0.61941965 0.05022,-0.16741071 0.08371,-0.31808035 0.117187,-0.46875 0.08371,-0.30133928 0.08371,-0.31808035 0.217634,-0.53571428 0.234375,-0.33482143 0.569197,-0.73660713 1.121652,-0.73660713 0.385045,0 0.418527,0.3180803 0.418527,0.48549106 0,0.41852678 -0.301339,1.18861607 -0.418527,1.48995535 -0.08371,0.18415179 -0.100446,0.25111608 -0.100446,0.36830358 0,0.36830361 0.301339,0.60267861 0.652902,0.60267861 0.703125,0 1.004464,-0.95424111 1.004464,-1.07142861 0,-0.0837054 -0.08371,-0.0837054 -0.100447,-0.0837054 -0.100446,0 -0.117187,0.0334821 -0.133928,0.1171875 -0.167411,0.55245541 -0.46875,0.83705361 -0.736607,0.83705361 -0.15067,0 -0.184152,-0.083705 -0.184152,-0.234375 0,-0.16741075 0.03348,-0.25111611 0.167411,-0.56919647 0.08371,-0.21763393 0.368303,-0.95424107 0.368303,-1.33928571 0,-0.1171875 0,-0.41852672 -0.267857,-0.61941962 -0.117187,-0.083705 -0.31808,-0.1841518 -0.636161,-0.1841518 -0.63616,0 -1.021205,0.4185268 -1.238839,0.70312499 -0.05022,-0.58593749 -0.552455,-0.70312499 -0.904018,-0.70312499 -0.585937,0 -0.970982,0.3515625 -1.1886159,0.6361607 -0.050223,-0.485491 -0.4520089,-0.6361607 -0.7366072,-0.6361607 -0.3013392,0 -0.46875,0.217634 -0.5524553,0.3850447 -0.1674107,0.25111604 -0.2511161,0.65290176 -0.2511161,0.6863839 0,0.0837054 0.083705,0.0837054 0.1171875,0.0837054 0.1004464,0 0.1004464,-0.0167411 0.1506697,-0.20089286 0.1004464,-0.41852684 0.234375,-0.75334824 0.5022321,-0.75334824 0.1841518,0 0.234375,0.1506696 0.234375,0.3348214 0,0.13392863 -0.066964,0.40178577 -0.1171875,0.58593755 -0.050223,0.18415179 -0.1171875,0.46875 -0.1506696,0.61941965 l -0.217634,0.9040178 c -0.033482,0.083705 -0.066964,0.2678572 -0.066964,0.2845982 0,0.1506697 0.1171875,0.217634 0.234375,0.217634 0.1171875,0 0.234375,-0.083705 0.2678572,-0.1506697 0.033482,-0.066964 0.1004464,-0.2845982 0.1339286,-0.43526784 0.033482,-0.13392857 0.1004464,-0.45200893 0.1506696,-0.61941965 0.033482,-0.16741071 0.083705,-0.31808035 0.1171875,-0.46875 0.083705,-0.28459821 0.083705,-0.3515625 0.2845982,-0.63616071 0.2008929,-0.2845982 0.5357142,-0.6361607 1.0546872,-0.6361607 0.401786,0 0.418527,0.3515625 0.418527,0.48549106 0,0.16741071 -0.03348,0.26785714 -0.133929,0.65290178 z m 0,0"
         style="fill:#000000;fill-opacity:1;fill-rule:nonzero;stroke:none" />
    </g>
    <path
       id="path548"
       d="m 49.60938,46.459 h -1.38897 l 1.38897,-2.95155 1.38894,2.95155 z"
       style="fill:#000000;fill-opacity:1;fill-rule:nonzero;stroke:#000000;stroke-width:0.3985;stroke-linecap:butt;stroke-linejoin:miter;stroke-miterlimit:10;stroke-dasharray:none;stroke-opacity:1"
       transform="matrix(1.3333333,0,0,-1.3333333,3644.4347,297.61867)" />
    <g
       id="g548"
       aria-label="I&#10;m"
       transform="matrix(0.93333333,0,0,0.93333333,3713.8667,239.78667)">
      <path
         id="path549"
         d="m 4.3867187,-6.1623326 c 0.050223,-0.1674107 0.050223,-0.1674107 0.2511161,-0.2008928 0.1506697,0 0.2845982,0 0.4352679,0 h 0.2008928 c 0.217634,0 0.217634,-0.016741 0.2678572,-0.050223 0.066964,-0.050223 0.1004464,-0.1841517 0.1004464,-0.234375 0,-0.1339285 -0.1004464,-0.1841517 -0.2176339,-0.1841517 -0.2511161,0 -0.5189732,0.016741 -0.7700893,0.016741 -0.2511161,0 -0.5189732,0.016741 -0.7868304,0.016741 -0.2845982,0 -0.5524553,-0.016741 -0.8370535,-0.016741 -0.2511161,0 -0.5189732,-0.016741 -0.7700893,-0.016741 -0.1004464,0 -0.2845982,0 -0.2845982,0.2845982 0,0.1841518 0.1506696,0.1841518 0.3348214,0.1841518 h 0.2176339 c 0.083705,0 0.3180804,0 0.5189732,0.016741 l -1.422991,5.67522324 c -0.033482,0.16741071 -0.050223,0.16741071 -0.234375,0.18415179 -0.1171875,0.0167411 -0.3013393,0.0167411 -0.43526789,0.0167411 H 0.75390625 c -0.20089286,0 -0.36830357,0 -0.36830357,0.28459821 0,0.13392857 0.10044643,0.18415179 0.21763393,0.18415179 0.25111607,0 0.50223209,-0.01674107 0.75334819,-0.01674107 0.2678572,0 0.5357143,-0.01674108 0.8035715,-0.01674108 0.2845982,0 0.5524553,0.01674108 0.8370535,0.01674108 0.2511161,0 0.5022322,0.01674107 0.7533482,0.01674107 0.1004465,0 0.3013393,0 0.3013393,-0.28459822 0,-0.18415178 -0.1674107,-0.18415178 -0.3348214,-0.18415178 H 3.499442 c -0.066964,0 -0.3850447,-0.0167411 -0.5189732,-0.0167411 z m 0,0"
         style="fill:#000000;fill-opacity:1;fill-rule:nonzero;stroke:none" />
      <path
         id="path550"
         d="M 8.8942522,0.92332589 C 8.8607701,1.0739955 8.7938058,1.3083705 8.7938058,1.3418527 c 0,0.1506696 0.1339286,0.2176339 0.234375,0.2176339 0.1339286,0 0.234375,-0.083705 0.2845982,-0.1506696 C 9.346261,1.341853 9.396484,1.1242188 9.4299665,0.97354911 9.4634485,0.83962054 9.547154,0.52154018 9.5806362,0.35412946 c 0.050223,-0.16741071 0.083705,-0.31808035 0.1171875,-0.46875 0.083705,-0.30133928 0.083705,-0.31808035 0.2176339,-0.53571428 0.2343754,-0.33482143 0.5691964,-0.73660718 1.1216514,-0.73660718 0.385045,0 0.418527,0.3180804 0.418527,0.48549111 0,0.41852678 -0.301339,1.18861607 -0.418527,1.48995535 -0.0837,0.18415179 -0.100446,0.25111608 -0.100446,0.36830358 0,0.36830356 0.301339,0.60267856 0.652902,0.60267856 0.703125,0 1.004464,-0.95424106 1.004464,-1.07142856 0,-0.0837054 -0.08371,-0.0837054 -0.100446,-0.0837054 -0.100447,0 -0.117188,0.0334821 -0.133929,0.1171875 -0.167411,0.55245536 -0.46875,0.83705366 -0.736607,0.83705366 -0.15067,0 -0.184152,-0.083705 -0.184152,-0.234375 0,-0.1674108 0.03348,-0.25111616 0.167411,-0.56919652 0.08371,-0.21763393 0.368303,-0.95424107 0.368303,-1.33928571 0,-0.1171875 0,-0.41852677 -0.267857,-0.61941957 -0.117187,-0.083705 -0.31808,-0.1841518 -0.63616,-0.1841518 -0.636161,0 -1.021206,0.4185268 -1.2388398,0.70312494 C 9.781529,-1.4706473 9.2792969,-1.5878348 8.9277344,-1.5878348 c -0.5859375,0 -0.9709822,0.3515625 -1.1886161,0.63616069 C 7.6888951,-1.4371652 7.2871094,-1.5878348 7.0025112,-1.5878348 c -0.3013393,0 -0.46875,0.2176339 -0.5524554,0.3850446 -0.1674107,0.25111609 -0.2511161,0.65290181 -0.2511161,0.68638395 0,0.0837054 0.083705,0.0837054 0.1171875,0.0837054 0.1004465,0 0.1004465,-0.0167411 0.1506697,-0.20089286 C 6.5672433,-1.0521205 6.7011719,-1.386942 6.969029,-1.386942 c 0.1841518,0 0.234375,0.1506697 0.234375,0.3348215 0,0.13392854 -0.066964,0.40178568 -0.1171875,0.58593746 -0.050223,0.18415179 -0.1171875,0.46875 -0.1506696,0.61941965 L 6.7179129,1.0572545 c -0.033482,0.083705 -0.066964,0.2678571 -0.066964,0.2845982 0,0.1506696 0.1171875,0.2176339 0.234375,0.2176339 0.1171875,0 0.234375,-0.083705 0.2678571,-0.1506696 C 7.186663,1.341853 7.2536274,1.1242188 7.2871096,0.97354911 7.3205916,0.83962054 7.387556,0.52154018 7.4377792,0.35412946 c 0.033482,-0.16741071 0.083705,-0.31808035 0.1171875,-0.46875 0.083705,-0.28459821 0.083705,-0.3515625 0.2845982,-0.63616071 C 8.0404576,-1.0353795 8.375279,-1.386942 8.8942522,-1.386942 c 0.4017857,0 0.4185268,0.3515625 0.4185268,0.48549111 0,0.16741071 -0.033482,0.26785714 -0.1339286,0.65290178 z m 0,0"
         style="fill:#000000;fill-opacity:1;fill-rule:nonzero;stroke:none" />
    </g>
    <path
       id="path551"
       d="m 39.68535,59.52802 4.96229,0.0022 m 0,0 4.95903,-0.0022 13.69381,0.0022 m 22.22456,0 13.68836,-0.0022 3.77389,0.0022 m 22.22461,0 3.7655,-0.0022 4.9656,0.0022 m 0,0 4.95576,-0.0022 9.9268,0.0022 m 0,0 9.91586,-0.0022"
       style="fill:none;stroke:#000000;stroke-width:0.3985;stroke-linecap:butt;stroke-linejoin:miter;stroke-miterlimit:10;stroke-dasharray:none;stroke-opacity:1"
       transform="matrix(1.3333333,0,0,-1.3333333,3644.4347,297.61867)" />
    <path
       id="path552"
       d="m 62.89964,59.52802 2.28369,4.16697 3.77037,-8.33394 3.77039,8.33394 3.77036,-8.33394 3.77038,8.33394 3.77036,-8.33394 1.88521,4.16697"
       style="fill:none;stroke:#000000;stroke-width:0.797;stroke-linecap:butt;stroke-linejoin:bevel;stroke-miterlimit:10;stroke-dasharray:none;stroke-opacity:1"
       transform="matrix(1.3333333,0,0,-1.3333333,3644.4347,297.61867)" />
    <g
       id="g552"
       aria-label="R&#10;eq"
       transform="matrix(0.93333333,0,0,0.93333333,3736.3053,207.844)">
      <path
         id="path553"
         d="m 3.732567,-6.1107589 c 0.066964,-0.2511161 0.083705,-0.3515625 0.2845982,-0.3683036 0.083705,-0.016741 0.4017857,-0.016741 0.6026785,-0.016741 0.703125,0 1.8080358,0 1.8080358,0.9877232 0,0.3348215 -0.1506697,1.0212054 -0.5357143,1.40625 C 5.624308,-3.8339732 5.1053348,-3.5158929 4.201317,-3.5158929 H 3.0796652 Z m 1.4397321,2.7287946 c 1.0044643,-0.2176339 2.1930804,-0.9207589 2.1930804,-1.9252232 0,-0.8537946 -0.9040179,-1.4899554 -2.2098215,-1.4899554 H 2.326317 c -0.2008929,0 -0.3013393,0 -0.3013393,0.2008929 0,0.1004464 0.1004464,0.1004464 0.2845982,0.1004464 0.016741,0 0.2176339,0 0.3850446,0.016741 0.1674107,0.016741 0.2678572,0.033482 0.2678572,0.1674107 0,0.033482 -0.016741,0.066964 -0.050223,0.1841518 L 1.58971,-0.77035724 c -0.1004464,0.38504464 -0.1339286,0.46875 -0.92075891,0.46875 -0.16741071,0 -0.26785714,0 -0.26785714,0.18415178 0,0.11718750286 0.13392857,0.11718750286 0.15066964,0.11718750286 0.26785715,0 0.97098211,-0.0334821429 1.25558031,-0.0334821429 0.2678572,0 0.9877233,0.0334821429 1.2555804,0.0334821429 0.083705,0 0.2008929,0 0.2008929,-0.20089285286 0,-0.10044643 -0.083705,-0.10044643 -0.2678572,-0.10044643 -0.3850446,0 -0.6529018,0 -0.6529018,-0.18415179 0,-0.0669643 0.016741,-0.1171875 0.033482,-0.16741071 L 3.029442,-3.2982589 h 1.188616 c 0.9040179,0 1.0881697,0.5524553 1.0881697,0.9040178 0,0.1506697 -0.083705,0.46875 -0.1506697,0.686384 -0.066964,0.2845982 -0.1506696,0.6529017 -0.1506696,0.8537946 0,1.07142857 1.1886161,1.07142857 1.3225446,1.07142857 0.8370536,0 1.1886161,-1.00446428 1.1886161,-1.13839286 0,-0.11718751 -0.1004464,-0.11718751 -0.1171875,-0.11718751 -0.083705,0 -0.1004464,0.0669643 -0.1339286,0.13392859 -0.251116,0.73660714 -0.6696428,0.90401785286 -0.9040178,0.90401785286 -0.3180804,0 -0.4017857,-0.21763393286 -0.4017857,-0.60267857286 0,-0.31808036 0.066964,-0.82031247 0.1004464,-1.13839287 0.033482,-0.1339286 0.050223,-0.3348214 0.050223,-0.46875 0,-0.7700893 -0.6696429,-1.0714286 -0.9374998,-1.171875 z m 0,0"
         style="fill:#000000;fill-opacity:1;fill-rule:nonzero;stroke:none" />
      <path
         id="path554"
         d="m 9.1190067,-0.09652902 c 0.2008929,0 0.7533482,-0.01674107 1.1383933,-0.15066964 0.502232,-0.18415179 0.602678,-0.51897321 0.602678,-0.71986607 0,-0.38504467 -0.385045,-0.61941967 -0.853795,-0.61941967 -0.8537942,0 -1.9754459,0.63616074 -1.9754459,1.84151788 0,0.703125 0.4352678,1.30580362 1.2555803,1.30580362 1.1718746,0 1.7243306,-0.68638397 1.7243306,-0.7868304 0,-0.0334822 -0.05022,-0.1171875 -0.117188,-0.1171875 -0.03348,0 -0.05022,0.0167411 -0.100446,0.0669643 -0.552456,0.6361607 -1.372768,0.6361607 -1.4899555,0.6361607 -0.4185268,0 -0.703125,-0.2678571 -0.703125,-0.83705357 0,-0.10044643 0,-0.234375 0.083705,-0.61941965 z M 8.7339621,-0.29742187 C 9.0353013,-1.3018862 9.8053906,-1.3855915 10.006283,-1.3855915 c 0.30134,0 0.552456,0.1506696 0.552456,0.41852677 0,0.66964286 -1.1718752,0.66964286 -1.4732144,0.66964286 z M 14.894676,-1.3855915 c 0.01674,-0.016741 0.01674,-0.066964 0.01674,-0.1004464 0,-0.050223 -0.03348,-0.1004465 -0.08371,-0.1004465 -0.08371,0 -0.368304,0.234375 -0.502232,0.46875 -0.08371,-0.1506696 -0.301339,-0.46875 -0.753348,-0.46875 -0.887277,0 -1.808036,0.98772324 -1.808036,1.99218753 0,0.66964287 0.46875,1.15513397 1.054687,1.15513397 0.401786,0 0.736608,-0.2511161 0.887277,-0.3850447 0,0.016741 -0.217634,0.9040179 -0.251116,1.0212054 -0.100446,0.3850446 -0.100446,0.3850446 -0.535714,0.4017857 -0.08371,0 -0.184152,0 -0.184152,0.1506696 0,0.050223 0.03348,0.1004465 0.100447,0.1004465 0.234375,0 0.485491,-0.033482 0.736607,-0.033482 0.234375,0 0.518973,0.033482 0.736607,0.033482 0.06696,0 0.150669,-0.016741 0.150669,-0.1506697 0,-0.1004464 -0.100446,-0.1004464 -0.184151,-0.1004464 -0.15067,0 -0.351563,0 -0.351563,-0.083705 0,-0.016741 0,-0.033482 0.03348,-0.1506696 z m -1.054687,1.99218748 c -0.03348,0.13392857 -0.03348,0.13392857 -0.117188,0.25111607 -0.267857,0.31808035 -0.602678,0.50223215 -0.870535,0.50223215 -0.267858,0 -0.518974,-0.1674107 -0.518974,-0.66964286 0,-0.36830357 0.200893,-1.13839286 0.368304,-1.42299107 0.31808,-0.55245537 0.669643,-0.65290177 0.870536,-0.65290177 0.485491,0 0.619419,0.53571427 0.619419,0.60267855 0,0.0334822 -0.01674,0.0837054 -0.01674,0.10044643 z m 0,0"
         style="fill:#000000;fill-opacity:1;fill-rule:nonzero;stroke:none" />
    </g>
    <path
       id="path555"
       d="m 102.58499,59.36862 c 0,2.30127 1.28835,4.16678 2.8776,4.16678 1.58926,0 2.87761,-1.86551 2.87761,-4.16678 0,2.30127 1.28832,4.16678 2.87759,4.16678 1.58926,0 2.87759,-1.86551 2.87759,-4.16678 0,2.30127 1.28835,4.16678 2.8776,4.16678 1.58926,0 2.87761,-1.86551 2.87761,-4.16678 0,2.30127 1.28833,4.16678 2.87759,4.16678 1.58926,0 2.87759,-1.86551 2.87759,-4.16678"
       style="fill:none;stroke:#000000;stroke-width:0.797;stroke-linecap:butt;stroke-linejoin:bevel;stroke-miterlimit:10;stroke-dasharray:none;stroke-opacity:1"
       transform="matrix(1.3333333,0,0,-1.3333333,3644.4347,297.61867)" />
    <g
       id="g555"
       aria-label="X&#10;eq"
       transform="matrix(0.93333333,0,0,0.93333333,3788.9,207.844)">
      <path
         id="path556"
         d="M 4.8364955,-4.1018304 3.999442,-6.0772768 C 3.96596,-6.1609818 3.949219,-6.1944643 3.949219,-6.2112054 c 0,-0.050223 0.1674107,-0.251116 0.5859374,-0.2845982 0.1004465,-0.016741 0.2008929,-0.016741 0.2008929,-0.1841518 0,-0.1171875 -0.1339286,-0.1171875 -0.1506696,-0.1171875 -0.4185268,0 -0.8370536,0.016741 -1.2555804,0.016741 -0.2511161,0 -0.8705357,-0.016741 -1.1216518,-0.016741 -0.050223,0 -0.1841518,0 -0.1841518,0.2008929 0,0.1004464 0.1004465,0.1004464 0.234375,0.1004464 0.6026786,0 0.6529018,0.1004465 0.7533483,0.3180804 l 1.1718749,2.7790178 -2.1093749,2.2600447 -0.1171876,0.1171875 c -0.5022321,0.5189732 -0.954241,0.68638391 -1.47321424,0.71986606 -0.13392857,0 -0.21763392,0 -0.21763392,0.18415178 0,0.0167411 0,0.11718750286 0.13392857,0.11718750286 0.30133928,0 0.61941959,-0.0334821429 0.93749999,-0.0334821429 0.3683036,0 0.7533482,0.0334821429 1.1049107,0.0334821429 0.066964,0 0.1841518,0 0.1841518,-0.20089285286 0,-0.10044643 -0.1004464,-0.10044643 -0.1171875,-0.10044643 -0.083705,-0.0167411 -0.4017857,-0.0334821 -0.4017857,-0.31808036 0,-0.15066964 0.1506696,-0.31808036 0.2678571,-0.4520089 L 3.3967634,-2.143125 4.2840402,-3.1141071 5.3052455,-0.736875 c 0.033482,0.1171875 0.050223,0.1171875 0.050223,0.13392857 0,0.0837054 -0.2008928,0.25111607 -0.5859375,0.30133929 -0.1171875,0 -0.2008928,0.0167411 -0.2008928,0.18415178 0,0.11718750286 0.1171875,0.11718750286 0.1506696,0.11718750286 0.2845982,0 0.9709822,-0.0334821429 1.2555804,-0.0334821429 0.2511161,0 0.8537946,0.0334821429 1.1049107,0.0334821429 0.066964,0 0.1841518,0 0.1841518,-0.18415178286 0,-0.1171875 -0.1004464,-0.1171875 -0.1674107,-0.1171875 C 6.4268973,-0.31834821 6.4101562,-0.35183036 6.2260045,-0.75361607 5.8409598,-1.674375 5.171317,-3.2312946 4.953683,-3.8172321 c 0.6696429,-0.703125 1.7243304,-1.8917411 2.0424107,-2.1763393 0.2845983,-0.234375 0.6696429,-0.46875 1.2555804,-0.5022322 0.1339286,-0.016741 0.2176339,-0.016741 0.2176339,-0.2008928 0,0 0,-0.1004465 -0.1171875,-0.1004465 -0.3013392,0 -0.6361607,0.016741 -0.9375,0.016741 -0.3683035,0 -0.7533482,-0.016741 -1.1049107,-0.016741 -0.066964,0 -0.2008928,0 -0.2008928,0.2008929 0,0.066964 0.050223,0.083705 0.1171875,0.1004464 0.1004464,0.016741 0.4017857,0.033482 0.4017857,0.3180804 0,0.1339286 -0.1004465,0.2678571 -0.1841518,0.3515625 z m 0,0"
         style="fill:#000000;fill-opacity:1;fill-rule:nonzero;stroke:none" />
      <path
         id="path557"
         d="m 9.8085938,-0.09652902 c 0.2008932,0 0.7533482,-0.01674107 1.1383932,-0.15066964 0.502232,-0.18415179 0.602678,-0.51897321 0.602678,-0.71986607 0,-0.38504467 -0.385044,-0.61941967 -0.853794,-0.61941967 -0.8537951,0 -1.9754469,0.63616074 -1.9754469,1.84151788 0,0.703125 0.4352679,1.30580362 1.2555804,1.30580362 1.1718745,0 1.7243305,-0.68638397 1.7243305,-0.7868304 0,-0.0334822 -0.05022,-0.1171875 -0.117188,-0.1171875 -0.03348,0 -0.05022,0.0167411 -0.100446,0.0669643 -0.552455,0.6361607 -1.372768,0.6361607 -1.4899555,0.6361607 -0.4185267,0 -0.703125,-0.2678571 -0.703125,-0.83705355 0,-0.10044643 0,-0.234375 0.083705,-0.61941965 z M 9.4235491,-0.29742187 C 9.7248884,-1.3018862 10.494978,-1.3855915 10.695871,-1.3855915 c 0.301339,0 0.552455,0.1506696 0.552455,0.41852677 0,0.66964286 -1.171875,0.66964286 -1.4732144,0.66964286 z M 15.580078,-1.3855915 c 0.01674,-0.016741 0.01674,-0.066964 0.01674,-0.1004464 0,-0.050223 -0.03348,-0.1004465 -0.08371,-0.1004465 -0.08371,0 -0.368304,0.234375 -0.502232,0.46875 -0.08371,-0.1506696 -0.30134,-0.46875 -0.753349,-0.46875 -0.887276,0 -1.808035,0.98772324 -1.808035,1.99218753 0,0.66964287 0.46875,1.15513397 1.054687,1.15513397 0.401786,0 0.736607,-0.2511161 0.887277,-0.3850447 0,0.016741 -0.217634,0.9040179 -0.251116,1.0212054 -0.100446,0.3850446 -0.100446,0.3850446 -0.535714,0.4017857 -0.08371,0 -0.184152,0 -0.184152,0.1506696 0,0.050223 0.03348,0.1004465 0.100446,0.1004465 0.234375,0 0.485491,-0.033482 0.736607,-0.033482 0.234375,0 0.518974,0.033482 0.736608,0.033482 0.06696,0 0.150669,-0.016741 0.150669,-0.1506697 0,-0.1004464 -0.100446,-0.1004464 -0.184152,-0.1004464 -0.150669,0 -0.351562,0 -0.351562,-0.083705 0,-0.016741 0,-0.033482 0.03348,-0.1506696 z m -1.054687,1.99218748 c -0.03348,0.13392857 -0.03348,0.13392857 -0.117188,0.25111607 -0.267857,0.31808035 -0.602678,0.50223215 -0.870536,0.50223215 -0.267857,0 -0.518973,-0.1674107 -0.518973,-0.66964286 0,-0.36830357 0.200893,-1.13839286 0.368304,-1.42299107 0.31808,-0.55245537 0.669643,-0.65290177 0.870535,-0.65290177 0.485492,0 0.61942,0.53571427 0.61942,0.60267855 0,0.0334822 -0.01674,0.0837054 -0.01674,0.10044643 z m 0,0"
         style="fill:#000000;fill-opacity:1;fill-rule:nonzero;stroke:none" />
    </g>
    <path
       id="path558"
       d="m 159.85242,59.52802 c 0,0.61358 -0.49741,1.11098 -1.111,1.11098 -0.61358,0 -1.11099,-0.4974 -1.11099,-1.11098 0,-0.61358 0.49741,-1.111 1.11099,-1.111 0.61359,0 1.111,0.49742 1.111,1.111 z"
       style="fill:#000000;fill-opacity:1;fill-rule:nonzero;stroke:#000000;stroke-width:0.3985;stroke-linecap:butt;stroke-linejoin:miter;stroke-miterlimit:10;stroke-dasharray:none;stroke-opacity:1"
       transform="matrix(1.3333333,0,0,-1.3333333,3644.4347,297.61867)" />
    <path
       id="path559"
       d="m 147.61023,59.53018 v -1.38896 l 2.95155,1.38896 -2.95155,1.38896 z"
       style="fill:#000000;fill-opacity:1;fill-rule:nonzero;stroke:#000000;stroke-width:0.3985;stroke-linecap:butt;stroke-linejoin:miter;stroke-miterlimit:10;stroke-dasharray:none;stroke-opacity:1"
       transform="matrix(1.3333333,0,0,-1.3333333,3644.4347,297.61867)" />
    <g
       id="g559"
       aria-label="I&#10;2&#10;/a"
       transform="matrix(0.93333333,0,0,0.93333333,3833.264,212.63467)">
      <path
         id="path560"
         d="m 4.3879018,-6.1627009 c 0.050223,-0.1674107 0.050223,-0.1674107 0.2511161,-0.2008928 0.1506696,0 0.2845982,0 0.4352678,0 h 0.2008929 c 0.2176339,0 0.2176339,-0.016741 0.2678571,-0.050223 0.066964,-0.050223 0.1004464,-0.1841517 0.1004464,-0.234375 0,-0.1339285 -0.1004464,-0.1841517 -0.2176339,-0.1841517 -0.2511161,0 -0.5189732,0.016741 -0.7700893,0.016741 -0.251116,0 -0.5189732,0.016741 -0.7868303,0.016741 -0.2845982,0 -0.5524554,-0.016741 -0.8370536,-0.016741 -0.2511161,0 -0.5189732,-0.016741 -0.7700893,-0.016741 -0.1004464,0 -0.2845982,0 -0.2845982,0.2845982 0,0.1841518 0.1506696,0.1841518 0.3348214,0.1841518 h 0.217634 c 0.083705,0 0.3180803,0 0.5189732,0.016741 L 1.625625,-0.67162946 c -0.033482,0.16741071 -0.050223,0.16741071 -0.234375,0.18415178 -0.1171875,0.0167411 -0.3013393,0.0167411 -0.43526786,0.0167411 H 0.75508929 c -0.20089286,0 -0.36830358,0 -0.36830358,0.28459822 0,0.13392857 0.10044643,0.18415178 0.21763393,0.18415178 0.25111607,0 0.50223216,-0.01674107 0.75334826,-0.01674107 0.2678571,0 0.5357142,-0.01674107 0.8035714,-0.01674107 0.2845982,0 0.5524553,0.01674107 0.8370536,0.01674107 0.251116,0 0.5022321,0.01674107 0.7533482,0.01674107 0.1004464,0 0.3013393,0 0.3013393,-0.28459821 0,-0.18415179 -0.1674108,-0.18415179 -0.3348215,-0.18415179 H 3.500625 c -0.066964,0 -0.3850446,-0.0167411 -0.5189732,-0.0167411 z m 0,0"
         style="fill:#000000;fill-opacity:1;fill-rule:nonzero;stroke:none" />
      <path
         id="path561"
         d="M 9.3976674,0.22401786 H 9.1465513 C 9.1298103,0.3746875 9.062846,0.79321429 8.9791406,0.86017857 8.9121763,0.91040179 8.3764621,0.91040179 8.2760156,0.91040179 H 7.0036942 C 7.7235603,0.2575 7.9746763,0.05660714 8.3932031,-0.27821429 8.9121763,-0.68 9.3976674,-1.1152679 9.3976674,-1.7849107 c 0,-0.8370536 -0.7533482,-1.3560268 -1.640625,-1.3560268 -0.8705357,0 -1.4564732,0.6026786 -1.4564732,1.2555804 0,0.3515625 0.3013393,0.3850446 0.3683036,0.3850446 0.1674107,0 0.3683035,-0.1171875 0.3683035,-0.3683036 0,-0.1339285 -0.033482,-0.3683035 -0.4017857,-0.3683035 0.217634,-0.5022322 0.686384,-0.6529018 1.0212054,-0.6529018 0.6863839,0 1.0546875,0.5524553 1.0546875,1.1049107 0,0.6194196 -0.4352679,1.08816963 -0.6529018,1.3392857 L 6.3675335,1.2284821 c -0.066964,0.050223 -0.066964,0.066964 -0.066964,0.2678572 h 2.8794643 z m 0,0"
         style="fill:#000000;fill-opacity:1;fill-rule:nonzero;stroke:none" />
      <path
         id="path562"
         d="m 14.704587,-7.1002009 c 0.05022,-0.1171875 0.05022,-0.1674107 0.05022,-0.1674107 0,-0.1171875 -0.08371,-0.2008929 -0.200893,-0.2008929 -0.06696,0 -0.133928,0.033482 -0.16741,0.083705 L 10.937843,2.107388 c -0.05022,0.1339286 -0.05022,0.1674107 -0.05022,0.1841518 0,0.1004464 0.08371,0.2008928 0.200893,0.2008928 0.117187,0 0.150669,-0.066964 0.217634,-0.251116 z m 4.327567,3.3314732 c -0.184152,-0.3683035 -0.46875,-0.6361607 -0.920759,-0.6361607 -1.155134,0 -2.393973,1.4564732 -2.393973,2.9129464 0,0.93750004 0.552455,1.60714289 1.322545,1.60714289 0.200892,0 0.703125,-0.05022321 1.289062,-0.75334821 0.08371,0.41852678 0.435268,0.75334821 0.904018,0.75334821 0.351562,0 0.585937,-0.234375 0.736607,-0.55245535 0.184152,-0.36830358 0.301339,-0.97098214 0.301339,-0.98772324 0,-0.1004464 -0.08371,-0.1004464 -0.117187,-0.1004464 -0.100447,0 -0.100447,0.033482 -0.133929,0.1841518 -0.16741,0.63616069 -0.351562,1.22209819 -0.753348,1.22209819 -0.267857,0 -0.301339,-0.25111607 -0.301339,-0.45200893 0,-0.21763392 0.01674,-0.30133928 0.133928,-0.73660716 0.100447,-0.4185268 0.117188,-0.5189732 0.217634,-0.8872768 l 0.351563,-1.40625 c 0.06696,-0.2678571 0.06696,-0.3013392 0.06696,-0.3348214 0,-0.1674107 -0.117187,-0.2678571 -0.284598,-0.2678571 -0.234375,0 -0.385045,0.2176339 -0.418527,0.4352678 z m -0.652902,2.578125 c -0.05022,0.1841518 -0.05022,0.20089288 -0.200893,0.36830359 -0.435267,0.55245536 -0.837053,0.703125 -1.121651,0.703125 -0.502233,0 -0.636161,-0.53571428 -0.636161,-0.92075889 0,-0.5022322 0.31808,-1.7243304 0.552455,-2.1930804 0.30134,-0.5859375 0.753348,-0.9542411 1.155134,-0.9542411 0.636161,0 0.786831,0.8203125 0.786831,0.8705358 0,0.066964 -0.01674,0.1339285 -0.03348,0.1841517 z m 0,0"
         style="fill:#000000;fill-opacity:1;fill-rule:nonzero;stroke:none" />
    </g>
    <path
       id="path563"
       d="m 4.0698438,-2.2917188 h 2.7790178 c 0.1506697,0 0.3348214,0 0.3348214,-0.2008928 0,-0.2008929 -0.1841517,-0.2008929 -0.3348214,-0.2008929 H 4.0698438 v -2.7790178 c 0,-0.1506697 0,-0.3348215 -0.2008929,-0.3348215 -0.1841518,0 -0.1841518,0.1841518 -0.1841518,0.3348215 v 2.7790178 H 0.88904018 c -0.13392857,0 -0.33482143,0 -0.33482143,0.2008929 0,0.2008928 0.20089286,0.2008928 0.33482143,0.2008928 H 3.6847991 v 2.79575898 c 0,0.13392857 0,0.31808036 0.1841518,0.31808036 0.2008929,0 0.2008929,-0.18415179 0.2008929,-0.31808036 z m 0,0"
       style="fill:#000000;fill-opacity:1;fill-rule:nonzero;stroke:none"
       aria-label="+"
       transform="matrix(0.93333333,0,0,0.93333333,3640.8187,232.428)" />
    <path
       id="path564"
       d="m 6.5642634,-2.2914509 c 0.1674107,0 0.3515625,0 0.3515625,-0.2008928 0,-0.2008929 -0.1841518,-0.2008929 -0.3515625,-0.2008929 h -5.390625 c -0.1674107,0 -0.35156251,0 -0.35156251,0.2008929 0,0.2008928 0.18415181,0.2008928 0.35156251,0.2008928 z m 0,0"
       style="fill:#000000;fill-opacity:1;fill-rule:nonzero;stroke:none"
       aria-label="−"
       transform="matrix(0.93333333,0,0,0.93333333,3640.8187,288.084)" />
    <g
       id="g564"
       aria-label="V&#10;1"
       transform="matrix(0.93333333,0,0,0.93333333,3638.0093,260.424)">
      <path
         id="path565"
         d="m 7.5653348,-5.9579129 c 0.1506697,-0.217634 0.2678572,-0.4017858 0.9542411,-0.4017858 0.1171875,0 0.3013393,0 0.3013393,-0.2845982 0,-0.066964 -0.050223,-0.1841518 -0.1841518,-0.1841518 -0.2845982,0 -0.6026786,0.033482 -0.9040179,0.033482 -0.3683035,0 -0.7533482,-0.033482 -1.1049107,-0.033482 -0.066964,0 -0.2678571,0 -0.2678571,0.2845983 0,0.1841517 0.1674107,0.1841517 0.2678571,0.1841517 0.050223,0 0.3348215,0 0.5524554,0.1004465 l -3.28125,4.7712053 -0.8872768,-4.6540178 c 0,-0.033482 -0.016741,-0.1171875 -0.016741,-0.1339286 0,-0.083705 0.5357143,-0.083705 0.6026786,-0.083705 0.2176339,0 0.3850446,0 0.3850446,-0.2845982 0,-0.1339285 -0.1004464,-0.1841518 -0.2176339,-0.1841518 -0.2511161,0 -0.5022321,0.016741 -0.7533482,0.016741 -0.2511161,0 -0.4854911,0.016741 -0.7366071,0.016741 -0.217634,0 -0.452009,-0.016741 -0.686384,-0.016741 -0.2176339,0 -0.4520089,-0.016741 -0.65290176,-0.016741 -0.0837054,0 -0.28459822,0 -0.28459822,0.2845983 0,0.1841517 0.16741072,0.1841517 0.36830358,0.1841517 0.1339286,0 0.2511161,0 0.3850446,0 0.1171875,0.016741 0.1339286,0.033482 0.1506697,0.2008929 l 1.1383928,6.04352678 c 0.050223,0.28459822 0.1674108,0.28459822 0.3515625,0.28459822 0.2845983,0 0.3348215,-0.0669643 0.452009,-0.25111607 z m 0,0"
         style="fill:#000000;fill-opacity:1;fill-rule:nonzero;stroke:none" />
      <path
         id="path566"
         d="m 11.641786,-2.9403348 c 0,-0.1841518 -0.01674,-0.2008929 -0.217634,-0.2008929 -0.452009,0.4352679 -1.071429,0.452009 -1.372768,0.452009 v 0.251116 c 0.167411,0 0.636161,0 1.021205,-0.2008928 v 3.56584818 c 0,0.23437502 0,0.31808032 -0.703125,0.31808032 h -0.267857 v 0.2511161 c 0.133929,0 0.987723,-0.033482 1.255581,-0.033482 0.217633,0 1.088169,0.033482 1.238839,0.033482 V 1.244933 H 12.32817 c -0.686384,0 -0.686384,-0.083705 -0.686384,-0.31808032 z m 0,0"
         style="fill:#000000;fill-opacity:1;fill-rule:nonzero;stroke:none" />
    </g>
    <path
       id="path567"
       d="m 4.0683817,-2.2917188 h 2.7790179 c 0.1506696,0 0.3348214,0 0.3348214,-0.2008928 0,-0.2008929 -0.1841518,-0.2008929 -0.3348214,-0.2008929 H 4.0683817 v -2.7790178 c 0,-0.1506697 0,-0.3348215 -0.2008929,-0.3348215 -0.1841517,0 -0.1841517,0.1841518 -0.1841517,0.3348215 v 2.7790178 H 0.88757813 c -0.13392858,0 -0.33482143,0 -0.33482143,0.2008929 0,0.2008928 0.20089285,0.2008928 0.33482143,0.2008928 H 3.6833371 v 2.79575898 c 0,0.13392857 0,0.31808036 0.1841517,0.31808036 0.2008929,0 0.2008929,-0.18415179 0.2008929,-0.31808036 z m 0,0"
       style="fill:#000000;fill-opacity:1;fill-rule:nonzero;stroke:none"
       aria-label="+"
       transform="matrix(0.93333333,0,0,0.93333333,3852.488,232.428)" />
    <path
       id="path568"
       d="m 6.5628013,-2.2914509 c 0.1674108,0 0.3515625,0 0.3515625,-0.2008928 0,-0.2008929 -0.1841517,-0.2008929 -0.3515625,-0.2008929 h -5.390625 c -0.1674107,0 -0.35156246,0 -0.35156246,0.2008929 0,0.2008928 0.18415176,0.2008928 0.35156246,0.2008928 z m 0,0"
       style="fill:#000000;fill-opacity:1;fill-rule:nonzero;stroke:none"
       aria-label="−"
       transform="matrix(0.93333333,0,0,0.93333333,3852.488,288.084)" />
    <g
       id="g568"
       aria-label="aV&#10;2"
       transform="matrix(0.93333333,0,0,0.93333333,3847.2213,260.424)">
      <path
         id="path569"
         d="m 3.7179353,-3.7648326 c -0.1841518,-0.3683036 -0.46875,-0.6361607 -0.920759,-0.6361607 -1.1551339,0 -2.39397317,1.4564732 -2.39397317,2.9129464 0,0.93750003 0.55245535,1.60714288 1.32254467,1.60714288 0.2008928,0 0.703125,-0.05022321 1.2890625,-0.75334821 0.083705,0.41852678 0.4352678,0.75334821 0.9040178,0.75334821 0.3515625,0 0.5859375,-0.234375 0.7366072,-0.55245535 0.1841518,-0.36830358 0.3013393,-0.97098213 0.3013393,-0.98772323 0,-0.1004464 -0.083705,-0.1004464 -0.1171875,-0.1004464 -0.1004465,0 -0.1004465,0.033482 -0.1339286,0.1841518 -0.1674107,0.63616068 -0.3515625,1.22209818 -0.7533482,1.22209818 -0.2678572,0 -0.3013393,-0.25111607 -0.3013393,-0.45200893 0,-0.21763392 0.016741,-0.30133928 0.1339286,-0.73660715 0.1004464,-0.4185268 0.1171875,-0.5189732 0.2176339,-0.8872768 l 0.3515625,-1.40625 C 4.42106,-3.865279 4.42106,-3.8987612 4.42106,-3.9322433 c 0,-0.1674107 -0.1171875,-0.2678571 -0.2845982,-0.2678571 -0.234375,0 -0.3850447,0.2176339 -0.4185265,0.4352678 z m -0.6529018,2.578125 c -0.050223,0.1841518 -0.050223,0.20089287 -0.2008929,0.36830358 -0.4352678,0.55245536 -0.8370535,0.703125 -1.1216518,0.703125 -0.5022321,0 -0.6361607,-0.53571428 -0.6361607,-0.92075888 0,-0.5022322 0.3180804,-1.7243304 0.5524554,-2.1930804 0.3013393,-0.5859375 0.7533482,-0.9542411 1.1551339,-0.9542411 0.6361607,0 0.7868304,0.8203125 0.7868304,0.8705357 0,0.066964 -0.016741,0.1339286 -0.033482,0.1841518 z m 0,0"
         style="fill:#000000;fill-opacity:1;fill-rule:nonzero;stroke:none" />
      <path
         id="path570"
         d="m 12.833449,-5.9579129 c 0.150669,-0.217634 0.267857,-0.4017858 0.954241,-0.4017858 0.117187,0 0.301339,0 0.301339,-0.2845982 0,-0.066964 -0.05022,-0.1841518 -0.184152,-0.1841518 -0.284598,0 -0.602678,0.033482 -0.904018,0.033482 -0.368303,0 -0.753348,-0.033482 -1.10491,-0.033482 -0.06696,0 -0.267857,0 -0.267857,0.2845983 0,0.1841517 0.16741,0.1841517 0.267857,0.1841517 0.05022,0 0.334821,0 0.552455,0.1004465 l -3.28125,4.7712053 -0.8872768,-4.6540178 c 0,-0.033482 -0.016741,-0.1171875 -0.016741,-0.1339286 0,-0.083705 0.5357142,-0.083705 0.6026785,-0.083705 0.217634,0 0.3850447,0 0.3850447,-0.2845982 0,-0.1339285 -0.1004465,-0.1841518 -0.217634,-0.1841518 -0.251116,0 -0.5022321,0.016741 -0.7533482,0.016741 -0.251116,0 -0.485491,0.016741 -0.7366071,0.016741 -0.2176339,0 -0.4520089,-0.016741 -0.6863839,-0.016741 -0.217634,0 -0.452009,-0.016741 -0.6529018,-0.016741 -0.083705,0 -0.2845982,0 -0.2845982,0.2845983 0,0.1841517 0.1674107,0.1841517 0.3683035,0.1841517 0.1339286,0 0.2511161,0 0.3850447,0 0.1171875,0.016741 0.1339285,0.033482 0.1506696,0.2008929 l 1.1383929,6.04352678 c 0.050223,0.28459822 0.1674107,0.28459822 0.3515625,0.28459822 0.2845982,0 0.3348214,-0.0669643 0.4520089,-0.25111607 z m 0,0"
         style="fill:#000000;fill-opacity:1;fill-rule:nonzero;stroke:none" />
      <path
         id="path571"
         d="M 18.098516,0.22372768 H 17.8474 c -0.01674,0.15066964 -0.08371,0.56919643 -0.167411,0.63616071 -0.06696,0.0502232 -0.602679,0.0502232 -0.703125,0.0502232 h -1.272322 c 0.719866,-0.65290179 0.970983,-0.85379465 1.389509,-1.18861607 0.518974,-0.40178572 1.004465,-0.83705352 1.004465,-1.50669642 0,-0.8370536 -0.753349,-1.3560268 -1.640625,-1.3560268 -0.870536,0 -1.456474,0.6026786 -1.456474,1.2555804 0,0.3515625 0.30134,0.3850446 0.368304,0.3850446 0.167411,0 0.368304,-0.1171875 0.368304,-0.3683035 0,-0.1339286 -0.03348,-0.3683036 -0.401786,-0.3683036 0.217634,-0.5022322 0.686384,-0.6529018 1.021205,-0.6529018 0.686384,0 1.054688,0.5524554 1.054688,1.1049107 0,0.6194197 -0.435268,1.08816963 -0.652902,1.3392857 L 15.068382,1.228192 c -0.06696,0.050223 -0.06696,0.066964 -0.06696,0.2678571 h 2.879465 z m 0,0"
         style="fill:#000000;fill-opacity:1;fill-rule:nonzero;stroke:none" />
    </g>
  </g>
</svg>
