<?xml version="1.0" encoding="UTF-8" standalone="no"?>
<!-- Created with Inkscape (http://www.inkscape.org/) -->

<svg
   version="1.1"
   id="svg1"
   width="193.69922"
   height="98.53949"
   viewBox="0 0 193.69922 98.53949"
   sodipodi:docname="CircuiTikz (46).pdf"
   xmlns:inkscape="http://www.inkscape.org/namespaces/inkscape"
   xmlns:sodipodi="http://sodipodi.sourceforge.net/DTD/sodipodi-0.dtd"
   xmlns="http://www.w3.org/2000/svg"
   xmlns:svg="http://www.w3.org/2000/svg">
  <defs
     id="defs1" />
  <sodipodi:namedview
     id="namedview1"
     pagecolor="#ffffff"
     bordercolor="#000000"
     borderopacity="0.25"
     inkscape:showpageshadow="2"
     inkscape:pageopacity="0.0"
     inkscape:pagecheckerboard="0"
     inkscape:deskcolor="#d1d1d1">
    <inkscape:page
       x="-2.0028688e-06"
       y="-1.8445415e-06"
       width="193.69922"
       height="98.53949"
       id="page2"
       margin="0"
       bleed="0" />
  </sodipodi:namedview>
  <g
     id="g669"
     inkscape:groupmode="layer"
     inkscape:label="6"
     transform="translate(-4490.3633,-715.85547)">
    <path
       id="path850"
       d="M 79.37071,0 H 39.68678 m 0,0 H 0 v 21.43082 m 0,16.66853 v 21.42867 l 28.5745,0.0022 m 22.22459,0 28.57162,-0.0022"
       style="fill:none;stroke:#000000;stroke-width:0.3985;stroke-linecap:butt;stroke-linejoin:miter;stroke-miterlimit:10;stroke-dasharray:none;stroke-opacity:1"
       transform="matrix(1.3333333,0,0,-1.3333333,4555.2573,812.648)" />
    <path
       id="path851"
       d="m 80.4817,0 c 0,0.61357 -0.49742,1.11098 -1.11099,1.11098 -0.61358,0 -1.11099,-0.49741 -1.11099,-1.11098 0,-0.61357 0.49741,-1.11098 1.11099,-1.11098 0.61357,0 1.11099,0.49741 1.11099,1.11098 z"
       style="fill:#000000;fill-opacity:1;fill-rule:nonzero;stroke:#000000;stroke-width:0.3985;stroke-linecap:butt;stroke-linejoin:miter;stroke-miterlimit:10;stroke-dasharray:none;stroke-opacity:1"
       transform="matrix(1.3333333,0,0,-1.3333333,4555.2573,812.648)" />
    <path
       id="path852"
       d="m -8.33394,29.764 c 0,-4.60276 3.73119,-8.33395 8.33394,-8.33395 4.60275,0 8.33394,3.73119 8.33394,8.33395 0,4.60278 -3.73119,8.33396 -8.33394,8.33396 -4.60275,0 -8.33394,-3.73118 -8.33394,-8.33396 z"
       style="fill:none;stroke:#000000;stroke-width:0.797;stroke-linecap:butt;stroke-linejoin:miter;stroke-miterlimit:10;stroke-dasharray:none;stroke-opacity:1"
       transform="matrix(1.3333333,0,0,-1.3333333,4555.2573,812.648)" />
    <path
       id="path853"
       d="M 4.16696,29.764 C 3.48775,28.69728 2.8377,27.68053 2.08348,27.68053 1.32928,27.68053 0.67923,28.69727 0,29.764 c -0.67918,1.06673 -1.32924,2.08349 -2.08345,2.08349 -0.75421,0 -1.40425,-1.01674 -2.08348,-2.08349"
       style="fill:none;stroke:#000000;stroke-width:0.797;stroke-linecap:butt;stroke-linejoin:miter;stroke-miterlimit:10;stroke-dasharray:none;stroke-opacity:1"
       transform="matrix(1.3333333,0,0,-1.3333333,4555.2573,812.648)" />
    <path
       id="path854"
       d="m 6.5617746,-2.2943415 c 0.1674107,0 0.3515625,0 0.3515625,-0.2008929 0,-0.2008928 -0.1841518,-0.2008928 -0.3515625,-0.2008928 h -5.390625 c -0.1674108,0 -0.35156255,0 -0.35156255,0.2008928 0,0.2008929 0.18415175,0.2008929 0.35156255,0.2008929 z m 0,0"
       style="fill:#000000;fill-opacity:1;fill-rule:nonzero;stroke:none"
       aria-label="−"
       transform="matrix(0.93333333,0,0,0.93333333,4536.9733,783.75467)" />
    <path
       id="path855"
       d="m 4.0673549,-2.2930915 h 2.7790179 c 0.1506696,0 0.3348214,0 0.3348214,-0.2008929 0,-0.2008928 -0.1841518,-0.2008928 -0.3348214,-0.2008928 H 4.0673549 v -2.7790179 c 0,-0.1506696 0,-0.3348214 -0.2008928,-0.3348214 -0.1841518,0 -0.1841518,0.1841518 -0.1841518,0.3348214 v 2.7790179 H 0.88655134 c -0.13392857,0 -0.33482143,0 -0.33482143,0.2008928 0,0.2008929 0.20089286,0.2008929 0.33482143,0.2008929 H 3.6823103 v 2.79575891 c 0,0.13392857 0,0.31808036 0.1841518,0.31808036 0.2008928,0 0.2008928,-0.18415179 0.2008928,-0.31808036 z m 0,0"
       style="fill:#000000;fill-opacity:1;fill-rule:nonzero;stroke:none"
       aria-label="+"
       transform="matrix(0.93333333,0,0,0.93333333,4536.9733,766.816)" />
    <g
       id="g855"
       aria-label="E&#10;g&#10;=E&#10;g&#10;̸"
       transform="matrix(0.93333333,0,0,0.93333333,4489.956,774.85733)">
      <path
         id="path856"
         d="m 7.7857031,-2.3792299 c 0.050223,-0.1171875 0.050223,-0.1674107 0.050223,-0.1674107 0,-0.1841518 -0.1841517,-0.1841518 -0.234375,-0.1841518 -0.1674107,0 -0.1674107,0.016741 -0.2845982,0.2845982 -0.6026785,1.3225446 -1.1216518,1.97544643 -2.7957589,1.97544643 H 3.2153906 c -0.1506696,0 -0.1674107,0 -0.234375,-0.0167411 l 0.703125,-2.79575893 h 0.686384 c 0.5859375,0 0.7868303,0.1004465 0.7868303,0.4352679 0,0.1506696 -0.083705,0.4185268 -0.083705,0.4520089 l -0.016741,0.1004464 c 0,0.1506697 0.1339286,0.1841518 0.234375,0.1841518 0.1841518,0 0.2008928,-0.066964 0.2511161,-0.234375 l 0.5524553,-2.2265625 c 0.050223,-0.1339285 0.050223,-0.1506696 0.050223,-0.1674107 0,-0.1674107 -0.2008928,-0.1674107 -0.251116,-0.1674107 -0.1841518,0 -0.2008929,0.066964 -0.2511161,0.2511161 -0.2008929,0.7533482 -0.5022322,0.9040178 -1.2555804,0.9040178 H 3.8013281 l 0.6194197,-2.5279018 c 0.1339285,-0.033482 0.234375,-0.033482 0.3348214,-0.033482 h 1.3058036 c 1.0881696,0 1.5234375,0.2511161 1.5234375,1.1886161 0,0.1841518 -0.033482,0.4017857 -0.033482,0.5524553 0,0.2008929 0.1841518,0.2008929 0.234375,0.2008929 0.217634,0 0.217634,-0.1004464 0.2511161,-0.2845982 l 0.1674107,-1.7745536 0.016741,-0.1674107 c 0,-0.1841518 -0.1674107,-0.1841518 -0.3348214,-0.1841518 H 2.3783371 c -0.217634,0 -0.217634,0.016741 -0.2678572,0.050223 -0.083705,0.050223 -0.1004464,0.234375 -0.1004464,0.2511161 0,0.1674107 0.1506696,0.1674107 0.4185268,0.1674107 0.2008928,0 0.3850446,0.016741 0.6026785,0.033482 l -1.40625,5.60825894 c -0.033482,0.16741072 -0.050223,0.16741072 -0.234375,0.18415179 -0.1674107,0.0167411 -0.3683035,0.0167411 -0.51897317,0.0167411 -0.26785715,0 -0.28459822,0 -0.31808036,0.0167411 -0.1171875,0.0669643 -0.1171875,0.234375 -0.1171875,0.26785715 0,0.18415178 0.16741071,0.18415178 0.33482143,0.18415178 h 5.6919643 c 0.234375,0 0.2678571,0 0.3683036,-0.20089286 z m 0,0"
         style="fill:#000000;fill-opacity:1;fill-rule:nonzero;stroke:none" />
      <path
         id="path857"
         d="m 12.330904,-1.0817969 c 0.03348,-0.1004464 0.03348,-0.1339285 0.03348,-0.1506696 0,-0.1506697 -0.133928,-0.2176339 -0.251116,-0.2176339 -0.15067,0 -0.284598,0.1339285 -0.31808,0.2678571 C 11.678,-1.3663951 11.443625,-1.584029 11.075322,-1.584029 c -0.870536,0 -1.791295,0.93749998 -1.791295,1.94196427 0,0.71986603 0.5022322,1.13839283 1.071429,1.13839283 0.31808,0 0.619419,-0.1674107 0.870535,-0.3850446 l -0.150669,0.6361607 c -0.08371,0.3013393 -0.133929,0.4854911 -0.401786,0.7198661 -0.301339,0.251116 -0.602679,0.251116 -0.7700893,0.251116 -0.3180804,0 -0.4185268,-0.016741 -0.5357143,-0.050223 0.1674107,-0.083705 0.2176339,-0.251116 0.2176339,-0.3348214 0,-0.1674107 -0.1339286,-0.2678571 -0.2678571,-0.2678571 -0.2008929,0 -0.4017858,0.1674107 -0.4017858,0.4352678 0,0.4185268 0.6026786,0.4185268 0.9877233,0.4185268 1.1049103,0 1.5736603,-0.5524554 1.6573663,-0.9542411 z m -0.970982,1.6573661 c -0.01674,0.10044642 -0.01674,0.1171875 -0.133929,0.25111607 -0.251116,0.28459823 -0.585937,0.46875003 -0.853794,0.46875003 -0.351563,0 -0.5189736,-0.30133932 -0.5189736,-0.65290182 0,-0.31808036 0.1841516,-1.08816964 0.3683036,-1.40625 0.284598,-0.48549108 0.61942,-0.61941968 0.853795,-0.61941968 0.485491,0 0.619419,0.51897325 0.619419,0.58593754 0,0.0167411 0,0.0334821 -0.01674,0.10044643 z m 0,0"
         style="fill:#000000;fill-opacity:1;fill-rule:nonzero;stroke:none" />
      <path
         id="path858"
         d="m 22.861038,-3.2665067 c 0.15067,0 0.334821,0 0.334821,-0.1841518 0,-0.2008928 -0.184151,-0.2008928 -0.334821,-0.2008928 h -5.959821 c -0.133929,0 -0.334822,0 -0.334822,0.2008928 0,0.1841518 0.200893,0.1841518 0.351563,0.1841518 z m 0,1.9419643 c 0.15067,0 0.334821,0 0.334821,-0.2008929 0,-0.2008928 -0.184151,-0.2008928 -0.334821,-0.2008928 h -5.94308 c -0.15067,0 -0.351563,0 -0.351563,0.2008928 0,0.2008929 0.200893,0.2008929 0.334822,0.2008929 z m 0,0"
         style="fill:#000000;fill-opacity:1;fill-rule:nonzero;stroke:none" />
      <path
         id="path859"
         d="m 33.579509,-2.3290067 c 0.01674,-0.050223 0.05022,-0.1171875 0.05022,-0.1339286 0,-0.016741 0,-0.1171875 -0.117187,-0.1171875 -0.08371,0 -0.100447,0.066964 -0.133929,0.1339286 -0.636161,1.47321429 -1.004464,2.14285715 -2.712053,2.14285715 h -1.456474 c -0.133928,0 -0.150669,0 -0.217634,-0.0167411 -0.100446,-0.0167411 -0.133928,-0.0167411 -0.133928,-0.10044642 0,-0.0334821 0,-0.0502232 0.05022,-0.234375 l 0.686384,-2.71205353 h 0.987723 c 0.837054,0 0.837054,0.2008928 0.837054,0.4520089 0,0.066964 0,0.2008929 -0.06696,0.4854911 -0.01674,0.050223 -0.03348,0.083705 -0.03348,0.1171875 0,0.050223 0.05022,0.1171875 0.133929,0.1171875 0.08371,0 0.100446,-0.050223 0.15067,-0.2008929 l 0.569196,-2.34375 c 0,-0.050223 -0.05022,-0.1004464 -0.117188,-0.1004464 -0.100446,0 -0.117187,0.050223 -0.150669,0.1841518 -0.200893,0.7533482 -0.385045,0.9709821 -1.305804,0.9709821 h -0.9375 l 0.602679,-2.3939732 c 0.08371,-0.3515625 0.100446,-0.3850446 0.535714,-0.3850446 h 1.40625 c 1.222098,0 1.523438,0.2845982 1.523438,1.1049107 0,0.234375 0,0.251116 -0.05022,0.5189732 0,0.066964 0,0.1339286 0,0.1841518 0,0.050223 0.01674,0.1171875 0.117188,0.1171875 0.100446,0 0.117187,-0.050223 0.133928,-0.2511161 l 0.200893,-1.7243304 c 0.03348,-0.2678571 -0.01674,-0.2678571 -0.267857,-0.2678571 H 28.82505 c -0.184152,0 -0.284599,0 -0.284599,0.2008929 0,0.1171875 0.08371,0.1171875 0.267858,0.1171875 0.368303,0 0.652901,0 0.652901,0.1841517 0,0.033482 0,0.050223 -0.05022,0.234375 l -1.322544,5.27343753 c -0.100447,0.38504464 -0.117188,0.46875 -0.904018,0.46875 -0.167411,0 -0.267857,0 -0.267857,0.18415178 0,0.1171875 0.0837,0.1171875 0.267857,0.1171875 h 5.172991 c 0.234375,0 0.234375,-0.01674107 0.31808,-0.16741071 z m 0,0"
         style="fill:#000000;fill-opacity:1;fill-rule:nonzero;stroke:none" />
      <path
         id="path860"
         d="m 37.601551,-1.0817969 c 0.03348,-0.1004464 0.03348,-0.1339285 0.03348,-0.1506696 0,-0.1506697 -0.133928,-0.2176339 -0.251116,-0.2176339 -0.150669,0 -0.284598,0.1339285 -0.31808,0.2678571 -0.117187,-0.1841518 -0.351562,-0.4017857 -0.719866,-0.4017857 -0.870536,0 -1.791295,0.93749998 -1.791295,1.94196427 0,0.71986603 0.502232,1.13839283 1.071429,1.13839283 0.31808,0 0.61942,-0.1674107 0.870536,-0.3850446 l -0.15067,0.6361607 c -0.08371,0.3013393 -0.133929,0.4854911 -0.401786,0.7198661 -0.301339,0.251116 -0.602678,0.251116 -0.770089,0.251116 -0.31808,0 -0.418527,-0.016741 -0.535714,-0.050223 0.16741,-0.083705 0.217634,-0.251116 0.217634,-0.3348214 0,-0.1674107 -0.133929,-0.2678571 -0.267858,-0.2678571 -0.200892,0 -0.401785,0.1674107 -0.401785,0.4352678 0,0.4185268 0.602678,0.4185268 0.987723,0.4185268 1.104911,0 1.573661,-0.5524554 1.657366,-0.9542411 z m -0.970982,1.6573661 c -0.01674,0.10044642 -0.01674,0.1171875 -0.133928,0.25111607 -0.251116,0.28459823 -0.585938,0.46875003 -0.853795,0.46875003 -0.351563,0 -0.518973,-0.30133932 -0.518973,-0.65290182 0,-0.31808036 0.184152,-1.08816964 0.368303,-1.40625 0.284599,-0.48549108 0.61942,-0.61941968 0.853795,-0.61941968 0.485491,0 0.61942,0.51897325 0.61942,0.58593754 0,0.0167411 0,0.0334821 -0.01674,0.10044643 z m 0,0"
         style="fill:#000000;fill-opacity:1;fill-rule:nonzero;stroke:none" />
      <path
         id="path861"
         d="m 43.51115,-6.3636049 c 0.05022,-0.083705 0.05022,-0.1004464 0.05022,-0.1339286 0,-0.1004464 -0.06697,-0.1841518 -0.167411,-0.1841518 -0.100446,0 -0.15067,0.066964 -0.184152,0.1339286 l -3.44866,6.02678572 c -0.05022,0.0837053 -0.05022,0.10044643 -0.05022,0.13392857 0,0.10044643 0.06696,0.18415178 0.167411,0.18415178 0.100446,0 0.15067,-0.0669643 0.184152,-0.13392857 z m 0,0"
         style="fill:#000000;fill-opacity:1;fill-rule:nonzero;stroke:none" />
    </g>
    <path
       id="path862"
       d="M 0,0 H 4.082"
       style="fill:none;stroke:#000000;stroke-width:0.339;stroke-linecap:butt;stroke-linejoin:miter;stroke-miterlimit:10;stroke-dasharray:none;stroke-opacity:1"
       transform="matrix(0.93333333,0,0,-0.93333333,4526.9683,774.6996)" />
    <path
       id="path863"
       d="m 2.6287098,-4.3546763 c -1.2388393,0.3013392 -2.20982141,1.5904017 -2.20982141,2.7957589 0,0.95424106 0.63616071,1.67410713 1.57366071,1.67410713 1.171875,0 1.9921875,-1.55691963 1.9921875,-2.92968753 0,-0.9207589 -0.4017857,-1.40625 -0.7366071,-1.8582589 -0.3515625,-0.4520089 -0.9542411,-1.1886161 -0.9542411,-1.640625 0,-0.2176339 0.2008929,-0.4520089 0.5524554,-0.4520089 0.3013392,0 0.5022321,0.1339285 0.703125,0.2678571 0.2008928,0.1171875 0.4017857,0.2511161 0.5524553,0.2511161 0.2511161,0 0.4017857,-0.234375 0.4017857,-0.4017857 0,-0.217634 -0.1674107,-0.2511161 -0.5189732,-0.3348215 C 3.4657634,-7.083471 3.3318348,-7.083471 3.1644241,-7.083471 c -0.7700893,0 -1.1383928,0.4352679 -1.1383928,1.0212054 0,0.5357143 0.3013392,1.1049107 0.6026785,1.7075893 z m 0.1171875,0.2176339 c 0.2511161,0.4520089 0.5524554,1.0044643 0.5524554,1.7075893 0,0.6696428 -0.3850447,2.3270089 -1.3058036,2.3270089 -0.5524553,0 -0.9542411,-0.41852678 -0.9542411,-1.171875 0,-0.6361607 0.3683036,-2.5111607 1.7075893,-2.8627232 z m 0,0"
       style="fill:#000000;fill-opacity:1;fill-rule:nonzero;stroke:none"
       aria-label="δ"
       transform="matrix(0.93333333,0,0,0.93333333,4531.8356,774.85733)" />
    <path
       id="path864"
       d="m 28.17496,59.36862 c 0,2.30127 1.28834,4.16678 2.87759,4.16678 1.58927,0 2.87761,-1.86551 2.87761,-4.16678 0,2.30127 1.28833,4.16678 2.87759,4.16678 1.58927,0 2.8776,-1.86551 2.8776,-4.16678 0,2.30127 1.28835,4.16678 2.87759,4.16678 1.58926,0 2.87761,-1.86551 2.87761,-4.16678 0,2.30127 1.28833,4.16678 2.8776,4.16678 1.58926,0 2.87759,-1.86551 2.87759,-4.16678"
       style="fill:none;stroke:#000000;stroke-width:0.797;stroke-linecap:butt;stroke-linejoin:bevel;stroke-miterlimit:10;stroke-dasharray:none;stroke-opacity:1"
       transform="matrix(1.3333333,0,0,-1.3333333,4555.2573,812.648)" />
    <path
       id="path865"
       d="m 80.4817,59.52802 c 0,0.61358 -0.49742,1.11098 -1.11099,1.11098 -0.61358,0 -1.11099,-0.4974 -1.11099,-1.11098 0,-0.61358 0.49741,-1.111 1.11099,-1.111 0.61357,0 1.11099,0.49742 1.11099,1.111 z"
       style="fill:#000000;fill-opacity:1;fill-rule:nonzero;stroke:#000000;stroke-width:0.3985;stroke-linecap:butt;stroke-linejoin:miter;stroke-miterlimit:10;stroke-dasharray:none;stroke-opacity:1"
       transform="matrix(1.3333333,0,0,-1.3333333,4555.2573,812.648)" />
    <g
       id="g865"
       aria-label="jX&#10;′&#10;d"
       transform="matrix(0.93333333,0,0,0.93333333,4599.9733,722.872)">
      <path
         id="path866"
         d="m 3.9501674,-6.2286496 c 0,-0.1841517 -0.1339286,-0.3515625 -0.3683036,-0.3515625 -0.234375,0 -0.5357142,0.217634 -0.5357142,0.5189733 0,0.2008928 0.1339285,0.3683035 0.3683035,0.3683035 0.2678572,0 0.5357143,-0.2678571 0.5357143,-0.5357143 z M 1.9579799,0.50126116 C 1.7570871,1.2546094 1.2883371,1.8238058 0.71914063,1.8238058 c -0.0502232,0 -0.20089286,0 -0.38504465,-0.083705 0.30133929,-0.083705 0.45200893,-0.3348214 0.45200893,-0.5357142 0,-0.1674108 -0.1171875,-0.35156254 -0.38504464,-0.35156254 -0.234375,0 -0.53571429,0.21763394 -0.53571429,0.56919644 0,0.4017857 0.40178572,0.6194196 0.88727679,0.6194196 0.68638393,0 1.62388393,-0.5357143 1.85825893,-1.5066964 l 0.9207589,-3.6495536 c 0.050223,-0.2008928 0.050223,-0.3348214 0.050223,-0.3683035 0,-0.5691965 -0.4185267,-0.920759 -0.9207589,-0.920759 -1.0044643,0 -1.5736607,1.4397322 -1.5736607,1.5401786 0,0.1004464 0.1004464,0.1004464 0.1171875,0.1004464 0.083705,0 0.1004464,-0.016741 0.1841518,-0.2008928 0.2511161,-0.6194197 0.703125,-1.2220982 1.2555803,-1.2220982 0.1339286,0 0.3180804,0.033482 0.3180804,0.4520089 0,0.234375 -0.033482,0.3515625 -0.066964,0.5189732 z M 9.5082031,-4.1025335 8.6711496,-6.0779799 c -0.033482,-0.083705 -0.050223,-0.1171875 -0.050223,-0.1339286 0,-0.050223 0.1674108,-0.2511161 0.5859375,-0.2845982 0.1004465,-0.016741 0.2008929,-0.016741 0.2008929,-0.1841518 0,-0.1171875 -0.1339286,-0.1171875 -0.1506696,-0.1171875 -0.4185268,0 -0.8370536,0.016741 -1.2555804,0.016741 -0.2511161,0 -0.8705357,-0.016741 -1.1216518,-0.016741 -0.050223,0 -0.1841518,0 -0.1841518,0.2008929 0,0.1004464 0.1004465,0.1004464 0.234375,0.1004464 0.6026786,0 0.6529018,0.1004464 0.7533482,0.3180804 l 1.171875,2.7790178 -2.109375,2.2600447 -0.1171875,0.1171875 c -0.5022321,0.51897317 -0.954241,0.68638389 -1.4732142,0.71986603 -0.1339286,0 -0.217634,0 -0.217634,0.18415179 0,0.0167411 0,0.11718749786 0.1339286,0.11718749786 0.3013393,0 0.6194196,-0.0334821479 0.9375,-0.0334821479 0.3683036,0 0.7533482,0.0334821479 1.1049107,0.0334821479 0.066964,0 0.1841518,0 0.1841518,-0.20089285786 0,-0.10044643 -0.1004464,-0.10044643 -0.1171875,-0.10044643 -0.083705,-0.0167411 -0.4017857,-0.0334821 -0.4017857,-0.31808036 0,-0.15066964 0.1506696,-0.31808035 0.2678571,-0.45200897 l 1.0212054,-1.0714285 0.8872768,-0.9709822 1.0212053,2.37723217 c 0.033482,0.1171875 0.050223,0.1171875 0.050223,0.13392858 0,0.0837054 -0.2008873,0.25111607 -0.585932,0.30133928 -0.1171875,0 -0.2008928,0.0167411 -0.2008928,0.18415179 0,0.11718749786 0.1171875,0.11718749786 0.1506696,0.11718749786 0.2845982,0 0.9709772,-0.0334821479 1.2555752,-0.0334821479 0.251116,0 0.853795,0.0334821479 1.104911,0.0334821479 0.06696,0 0.184151,0 0.184151,-0.18415178786 0,-0.1171875 -0.100446,-0.1171875 -0.16741,-0.1171875 -0.669643,-0.0167411 -0.686384,-0.0502232 -0.870536,-0.45200893 -0.385045,-0.9207589 -1.0546822,-2.4776786 -1.2723162,-3.0636161 0.6696372,-0.703125 1.7243252,-1.891741 2.0424052,-2.1763393 0.284599,-0.234375 0.669643,-0.46875 1.255581,-0.5022321 0.133928,-0.016741 0.217634,-0.016741 0.217634,-0.2008929 0,0 0,-0.1004464 -0.117188,-0.1004464 -0.301339,0 -0.636161,0.016741 -0.9375,0.016741 -0.368303,0 -0.753348,-0.016741 -1.104911,-0.016741 -0.06696,0 -0.200892,0 -0.200892,0.2008929 0,0.066964 0.05022,0.083705 0.117187,0.1004464 0.100446,0.016741 0.401786,0.033482 0.401786,0.3180804 0,0.1339285 -0.100447,0.2678571 -0.184152,0.3515625 z m 0,0"
         style="fill:#000000;fill-opacity:1;fill-rule:nonzero;stroke:none" />
      <path
         id="path867"
         d="m 15.731696,-6.9150335 c 0.05022,-0.1171875 0.06696,-0.1674107 0.06696,-0.2176339 0,-0.2176339 -0.200893,-0.3850447 -0.418527,-0.3850447 -0.267857,0 -0.351563,0.217634 -0.385045,0.3180804 l -0.920759,3.0301339 c 0,0.016741 -0.03348,0.1004465 -0.03348,0.1171875 0,0.083705 0.217634,0.1506697 0.267857,0.1506697 0.05022,0 0.06696,-0.016741 0.117188,-0.1171875 z m 0,0"
         style="fill:#000000;fill-opacity:1;fill-rule:nonzero;stroke:none" />
      <path
         id="path868"
         d="m 16.911942,-1.813192 c 0.01674,-0.016741 0.03348,-0.1004464 0.03348,-0.1171875 0,-0.033482 -0.03348,-0.083705 -0.117187,-0.083705 -0.133929,0 -0.719866,0.050223 -0.887277,0.066964 -0.06696,0 -0.15067,0.016741 -0.15067,0.1506696 0,0.1004464 0.08371,0.1004464 0.167411,0.1004464 0.334821,0 0.334821,0.050223 0.334821,0.1004465 0,0.050223 0,0.1004464 -0.01674,0.1674107 l -0.401785,1.59040176 c -0.15067,-0.234375 -0.385045,-0.41852678 -0.719867,-0.41852678 -0.887276,0 -1.808035,0.98772321 -1.808035,1.99218752 0,0.6696428 0.46875,1.1551339 1.054687,1.1551339 0.385045,0 0.719866,-0.2176339 1.004465,-0.4854911 0.133928,0.4185268 0.535714,0.4854911 0.719866,0.4854911 0.251116,0 0.418526,-0.1506696 0.552455,-0.3683036 0.15067,-0.2678571 0.234375,-0.6696428 0.234375,-0.703125 0,-0.083705 -0.0837,-0.083705 -0.117188,-0.083705 -0.08371,0 -0.100446,0.033482 -0.150669,0.2176339 -0.08371,0.3348214 -0.217634,0.7366071 -0.502232,0.7366071 -0.184152,0 -0.234375,-0.1506696 -0.234375,-0.3348214 0,-0.1339286 0.01674,-0.2008928 0.03348,-0.2845982 z m -1.489955,3.7667411 c -0.05022,0.2008929 -0.200893,0.3348214 -0.351563,0.46875 -0.06696,0.050223 -0.334821,0.2678571 -0.636161,0.2678571 -0.267857,0 -0.518973,-0.1674107 -0.518973,-0.6696428 0,-0.3683036 0.200893,-1.13839286 0.368304,-1.42299108 0.31808,-0.55245536 0.669643,-0.65290178 0.870535,-0.65290178 0.485492,0 0.61942,0.51897321 0.61942,0.60267857 0,0.0334821 -0.01674,0.0837054 -0.01674,0.10044643 z m 0,0"
         style="fill:#000000;fill-opacity:1;fill-rule:nonzero;stroke:none" />
    </g>
    <path
       id="path869"
       d="m 63.87195,59.5313 v -1.38897 l 2.95155,1.38897 -2.95155,1.38894 z"
       style="fill:#000000;fill-opacity:1;fill-rule:nonzero;stroke:#000000;stroke-width:0.3985;stroke-linecap:butt;stroke-linejoin:miter;stroke-miterlimit:10;stroke-dasharray:none;stroke-opacity:1"
       transform="matrix(1.3333333,0,0,-1.3333333,4555.2573,812.648)" />
    <path
       id="path870"
       d="m 4.3841406,-6.1589844 c 0.050223,-0.1674107 0.050223,-0.1674107 0.2511161,-0.2008928 0.1506696,0 0.2845982,0 0.4352679,0 h 0.2008928 c 0.2176339,0 0.2176339,-0.016741 0.2678572,-0.050223 0.066964,-0.050223 0.1004464,-0.1841518 0.1004464,-0.234375 0,-0.1339286 -0.1004464,-0.1841518 -0.2176339,-0.1841518 -0.2511161,0 -0.5189733,0.016741 -0.7700893,0.016741 -0.2511161,0 -0.5189732,0.016741 -0.7868304,0.016741 -0.2845982,0 -0.5524553,-0.016741 -0.8370536,-0.016741 -0.251116,0 -0.5189732,-0.016741 -0.7700892,-0.016741 -0.1004465,0 -0.2845983,0 -0.2845983,0.2845982 0,0.1841518 0.1506697,0.1841518 0.3348215,0.1841518 h 0.2176339 c 0.083705,0 0.3180804,0 0.5189732,0.016741 l -1.4229911,5.67522325 c -0.033482,0.16741072 -0.050223,0.16741072 -0.234375,0.18415179 -0.1171875,0.0167411 -0.3013392,0.0167411 -0.43526782,0.0167411 H 0.75132813 c -0.20089286,0 -0.36830358,0 -0.36830358,0.28459822 0,0.13392857 0.10044643,0.18415178 0.21763393,0.18415178 0.25111607,0 0.50223212,-0.01674107 0.75334822,-0.01674107 0.2678571,0 0.5357143,-0.01674107 0.8035714,-0.01674107 0.2845982,0 0.5524554,0.01674107 0.8370536,0.01674107 0.2511161,0 0.5022321,0.01674107 0.7533482,0.01674107 0.1004464,0 0.3013393,0 0.3013393,-0.28459821 0,-0.18415179 -0.1674107,-0.18415179 -0.3348214,-0.18415179 h -0.217634 c -0.066964,0 -0.3850446,-0.0167411 -0.5189732,-0.0167411 z m 0,0"
       style="fill:#000000;fill-opacity:1;fill-rule:nonzero;stroke:none"
       aria-label="I"
       transform="matrix(0.93333333,0,0,0.93333333,4639.3027,729.98667)" />
    <path
       id="path871"
       d="m 4.068683,-2.2924219 h 2.7790179 c 0.1506696,0 0.3348214,0 0.3348214,-0.2008928 0,-0.2008929 -0.1841518,-0.2008929 -0.3348214,-0.2008929 H 4.068683 v -2.7790178 c 0,-0.1506697 0,-0.3348215 -0.2008928,-0.3348215 -0.1841518,0 -0.1841518,0.1841518 -0.1841518,0.3348215 v 2.7790178 H 0.88787946 c -0.13392857,0 -0.33482142,0 -0.33482142,0.2008929 0,0.2008928 0.20089285,0.2008928 0.33482142,0.2008928 H 3.6836384 v 2.79575895 c 0,0.13392857 0,0.31808036 0.1841518,0.31808036 0.2008928,0 0.2008928,-0.18415179 0.2008928,-0.31808036 z m 0,0"
       style="fill:#000000;fill-opacity:1;fill-rule:nonzero;stroke:none"
       aria-label="+"
       transform="matrix(0.93333333,0,0,0.93333333,4657.476,747.456)" />
    <path
       id="path872"
       d="m 6.5631027,-2.292154 c 0.1674107,0 0.3515625,0 0.3515625,-0.2008929 0,-0.2008928 -0.1841518,-0.2008928 -0.3515625,-0.2008928 h -5.390625 c -0.1674107,0 -0.35156252,0 -0.35156252,0.2008928 0,0.2008929 0.18415182,0.2008929 0.35156252,0.2008929 z m 0,0"
       style="fill:#000000;fill-opacity:1;fill-rule:nonzero;stroke:none"
       aria-label="−"
       transform="matrix(0.93333333,0,0,0.93333333,4657.476,803.112)" />
    <g
       id="g872"
       aria-label="V&#10;t&#10;=V&#10;t&#10;̸"
       transform="matrix(0.93333333,0,0,0.93333333,4637.1427,775.464)">
      <path
         id="path873"
         d="m 7.5689621,-5.9589174 c 0.1506696,-0.2176339 0.2678571,-0.4017857 0.954241,-0.4017857 0.1171875,0 0.3013393,0 0.3013393,-0.2845982 0,-0.066964 -0.050223,-0.1841518 -0.1841518,-0.1841518 -0.2845982,0 -0.6026785,0.033482 -0.9040178,0.033482 -0.3683036,0 -0.7533482,-0.033482 -1.1049107,-0.033482 -0.066964,0 -0.2678572,0 -0.2678572,0.2845982 0,0.1841518 0.1674107,0.1841518 0.2678572,0.1841518 0.050223,0 0.3348214,0 0.5524553,0.1004464 l -3.28125,4.7712054 -0.8872768,-4.6540179 c 0,-0.033482 -0.016741,-0.1171875 -0.016741,-0.1339286 0,-0.083705 0.5357142,-0.083705 0.6026785,-0.083705 0.217634,0 0.3850447,0 0.3850447,-0.2845982 0,-0.1339286 -0.1004465,-0.1841518 -0.217634,-0.1841518 -0.251116,0 -0.5022321,0.016741 -0.7533482,0.016741 -0.251116,0 -0.485491,0.016741 -0.7366071,0.016741 -0.2176339,0 -0.4520089,-0.016741 -0.6863839,-0.016741 -0.217634,0 -0.452009,-0.016741 -0.65290183,-0.016741 -0.0837054,0 -0.28459822,0 -0.28459822,0.2845982 0,0.1841518 0.16741072,0.1841518 0.36830355,0.1841518 0.1339286,0 0.2511161,0 0.3850447,0 0.1171875,0.016741 0.1339285,0.033482 0.1506696,0.2008928 l 1.1383929,6.04352682 c 0.050223,0.28459821 0.1674107,0.28459821 0.3515625,0.28459821 0.2845982,0 0.3348214,-0.0669643 0.4520089,-0.25111607 z m 0,0"
         style="fill:#000000;fill-opacity:1;fill-rule:nonzero;stroke:none" />
      <path
         id="path874"
         d="m 11.021808,-1.2672321 h 0.703125 c 0.133929,0 0.217634,0 0.217634,-0.1506697 0,-0.1004464 -0.08371,-0.1004464 -0.200893,-0.1004464 h -0.669643 l 0.267857,-1.0212054 c 0,-0.050223 0.01674,-0.083705 0.01674,-0.1004464 0,-0.1339286 -0.100446,-0.234375 -0.234375,-0.234375 -0.184151,0 -0.284598,0.1171875 -0.334821,0.3013393 -0.05022,0.1841518 0.05022,-0.1506697 -0.267857,1.0546875 H 9.8164509 c -0.1339286,0 -0.2176339,0 -0.2176339,0.1506696 0,0.1004465 0.083705,0.1004465 0.2008928,0.1004465 h 0.6696432 l -0.418527,1.65736603 c -0.03348,0.16741071 -0.1004465,0.41852678 -0.1004465,0.51897321 0,0.40178576 0.3515625,0.65290176 0.7366075,0.65290176 0.78683,0 1.222098,-0.97098211 1.222098,-1.07142854 0,-0.0837054 -0.08371,-0.0837054 -0.117188,-0.0837054 -0.08371,0 -0.08371,0.0167411 -0.133928,0.13392857 -0.200893,0.43526786 -0.552456,0.82031257 -0.9375,0.82031257 -0.15067,0 -0.251116,-0.083705 -0.251116,-0.3348215 0,-0.0669642 0.03348,-0.21763393 0.05022,-0.28459821 z m 0,0"
         style="fill:#000000;fill-opacity:1;fill-rule:nonzero;stroke:none" />
      <path
         id="path875"
         d="m 22.422478,-3.2636049 c 0.150669,0 0.334821,0 0.334821,-0.1841518 0,-0.2008929 -0.184152,-0.2008929 -0.334821,-0.2008929 h -5.959822 c -0.133928,0 -0.334821,0 -0.334821,0.2008929 0,0.1841518 0.200893,0.1841518 0.351562,0.1841518 z m 0,1.9419643 c 0.150669,0 0.334821,0 0.334821,-0.2008929 0,-0.2008928 -0.184152,-0.2008928 -0.334821,-0.2008928 h -5.943081 c -0.150669,0 -0.351562,0 -0.351562,0.2008928 0,0.2008929 0.200893,0.2008929 0.334821,0.2008929 z m 0,0"
         style="fill:#000000;fill-opacity:1;fill-rule:nonzero;stroke:none" />
      <path
         id="path876"
         d="m 32.349933,-5.6743192 c 0.485491,-0.7700893 0.904018,-0.8035714 1.272321,-0.8203125 0.117188,-0.016741 0.133929,-0.1841518 0.133929,-0.1841518 0,-0.083705 -0.05022,-0.1171875 -0.133929,-0.1171875 -0.267857,0 -0.552455,0.016741 -0.820312,0.016741 -0.334821,0 -0.669643,-0.016741 -0.987723,-0.016741 -0.05022,0 -0.184152,0 -0.184152,0.1841518 0,0.1004464 0.0837,0.1171875 0.15067,0.1171875 0.267857,0.016741 0.46875,0.1171875 0.46875,0.3348214 0,0.1506697 -0.15067,0.3683036 -0.15067,0.3683036 l -3.063616,4.87165179 -0.669643,-5.27343749 c 0,-0.1674107 0.217634,-0.3013393 0.686384,-0.3013393 0.133929,0 0.251116,0 0.251116,-0.2008929 0,-0.083705 -0.0837,-0.1004464 -0.15067,-0.1004464 -0.401785,0 -0.820312,0.016741 -1.238839,0.016741 -0.167411,0 -0.368303,0 -0.535714,0 -0.184152,0 -0.368304,-0.016741 -0.535714,-0.016741 -0.08371,0 -0.200893,0 -0.200893,0.1841518 0,0.1171875 0.100446,0.1171875 0.251116,0.1171875 0.569196,0 0.569196,0.083705 0.602678,0.3348214 l 0.786831,6.14397325 c 0.03348,0.20089285 0.06696,0.234375 0.200893,0.234375 0.150669,0 0.200892,-0.0502232 0.267857,-0.18415179 z m 0,0"
         style="fill:#000000;fill-opacity:1;fill-rule:nonzero;stroke:none" />
      <path
         id="path877"
         d="m 33.62644,-1.2672321 h 0.703125 c 0.133928,0 0.217634,0 0.217634,-0.1506697 0,-0.1004464 -0.08371,-0.1004464 -0.200893,-0.1004464 h -0.669643 l 0.267857,-1.0212054 c 0,-0.050223 0.01674,-0.083705 0.01674,-0.1004464 0,-0.1339286 -0.100446,-0.234375 -0.234375,-0.234375 -0.184152,0 -0.284598,0.1171875 -0.334821,0.3013393 -0.05022,0.1841518 0.05022,-0.1506697 -0.267857,1.0546875 h -0.703125 c -0.133929,0 -0.217634,0 -0.217634,0.1506696 0,0.1004465 0.08371,0.1004465 0.200893,0.1004465 h 0.669642 l -0.418526,1.65736603 c -0.03348,0.16741071 -0.100447,0.41852678 -0.100447,0.51897321 0,0.40178576 0.351563,0.65290176 0.736607,0.65290176 0.786831,0 1.222099,-0.97098211 1.222099,-1.07142854 0,-0.0837054 -0.08371,-0.0837054 -0.117188,-0.0837054 -0.08371,0 -0.08371,0.0167411 -0.133929,0.13392857 -0.200892,0.43526786 -0.552455,0.82031257 -0.9375,0.82031257 -0.150669,0 -0.251116,-0.083705 -0.251116,-0.3348215 0,-0.0669642 0.03348,-0.21763393 0.05022,-0.28459821 z m 0,0"
         style="fill:#000000;fill-opacity:1;fill-rule:nonzero;stroke:none" />
      <path
         id="path878"
         d="m 40.398203,-6.3648884 c 0.05022,-0.083705 0.05022,-0.1004464 0.05022,-0.1339286 0,-0.1004464 -0.06696,-0.1841518 -0.16741,-0.1841518 -0.100447,0 -0.15067,0.066964 -0.184152,0.1339286 L 36.6482,-0.52225446 c -0.05022,0.0837053 -0.05022,0.10044642 -0.05022,0.13392857 0,0.10044643 0.06696,0.18415178 0.167411,0.18415178 0.100446,0 0.150669,-0.0669643 0.184151,-0.13392857 z m 0,0"
         style="fill:#000000;fill-opacity:1;fill-rule:nonzero;stroke:none" />
    </g>
    <path
       id="path879"
       d="M 0,0 H 4.082"
       style="fill:none;stroke:#000000;stroke-width:0.339;stroke-linecap:butt;stroke-linejoin:miter;stroke-miterlimit:10;stroke-dasharray:none;stroke-opacity:1"
       transform="matrix(0.93333333,0,0,-0.93333333,4671.2495,775.30533)" />
    <g
       id="g879"
       aria-label="0&#10;◦"
       transform="matrix(0.93333333,0,0,0.93333333,4676.1177,775.464)">
      <path
         id="path880"
         d="m 4.5864687,-3.1798996 c 0,-0.8035714 -0.050223,-1.6071428 -0.4017857,-2.34375 -0.4520089,-0.954241 -1.2723214,-1.1049107 -1.6908482,-1.1049107 -0.6026786,0 -1.3225446,0.2511161 -1.74107141,1.1886161 -0.31808035,0.6863839 -0.36830357,1.4564732 -0.36830357,2.2600446 0,0.7366072 0.0502232,1.640625 0.45200893,2.39397326 0.43526785,0.80357143 1.15513395,1.00446429 1.64062495,1.00446429 0.5357143,0 1.3058036,-0.20089286 1.7410715,-1.15513393 C 4.5362455,-1.6229799 4.5864687,-2.3930692 4.5864687,-3.1798996 Z M 2.4770937,9.0401786e-4 c -0.3850446,0 -0.9709821,-0.25111606786 -1.1551339,-1.20535711786 -0.1004464,-0.6026786 -0.1004464,-1.5066965 -0.1004464,-2.109375 0,-0.6361607 0,-1.2890625 0.066964,-1.8247768 0.2008928,-1.1886161 0.9375,-1.2723214 1.188616,-1.2723214 0.3348215,0 0.9877233,0.1841517 1.171875,1.1551339 0.1004465,0.5691964 0.1004465,1.3225446 0.1004465,1.9419643 0,0.7533482 0,1.4397321 -0.1004465,2.0758928 C 3.4982988,-0.30043527 2.9291024,9.0401786e-4 2.4770937,9.0401786e-4 Z m 0,0"
         style="fill:#000000;fill-opacity:1;fill-rule:nonzero;stroke:none" />
      <path
         id="path881"
         d="m 8.51225,-5.3562388 c 0,-0.8537947 -0.6696429,-1.5066965 -1.4899554,-1.5066965 -0.8370535,0 -1.5066964,0.686384 -1.5066964,1.4899554 0,0.8537946 0.6863839,1.5066964 1.5066964,1.5066964 0.8370536,0 1.4899554,-0.6696428 1.4899554,-1.4899553 z m -1.4899554,1.1551339 c -0.6529017,0 -1.1551339,-0.5357143 -1.1551339,-1.1551339 0,-0.6529018 0.5022322,-1.155134 1.1551339,-1.155134 0.6529018,0 1.155134,0.5189732 1.155134,1.1383929 0,0.6529018 -0.5189732,1.171875 -1.155134,1.171875 z m 0,0"
         style="fill:#000000;fill-opacity:1;fill-rule:nonzero;stroke:none" />
    </g>
  </g>
</svg>
