<?xml version="1.0" encoding="UTF-8" standalone="no"?>
<!-- Created with Inkscape (http://www.inkscape.org/) -->

<svg
   version="1.1"
   id="svg1"
   width="242.11719"
   height="97.97467"
   viewBox="0 0 242.11719 97.97467"
   sodipodi:docname="CircuiTikz (19).pdf"
   xmlns:inkscape="http://www.inkscape.org/namespaces/inkscape"
   xmlns:sodipodi="http://sodipodi.sourceforge.net/DTD/sodipodi-0.dtd"
   xmlns="http://www.w3.org/2000/svg"
   xmlns:svg="http://www.w3.org/2000/svg">
  <defs
     id="defs1" />
  <sodipodi:namedview
     id="namedview1"
     pagecolor="#ffffff"
     bordercolor="#000000"
     borderopacity="0.25"
     inkscape:showpageshadow="2"
     inkscape:pageopacity="0.0"
     inkscape:pagecheckerboard="0"
     inkscape:deskcolor="#d1d1d1">
    <inkscape:page
       x="-2.9560194e-06"
       y="2.1812682e-06"
       width="242.11719"
       height="97.97467"
       id="page2"
       margin="0"
       bleed="0" />
  </sodipodi:namedview>
  <g
     id="g323"
     inkscape:groupmode="layer"
     inkscape:label="4"
     transform="translate(-2794.2813,-521.04297)">
    <path
       id="path409"
       d="m 0,0 h 79.37363 m 0,0 h 79.36779"
       style="fill:none;stroke:#000000;stroke-width:0.3985;stroke-linecap:butt;stroke-linejoin:miter;stroke-miterlimit:10;stroke-dasharray:none;stroke-opacity:1"
       transform="matrix(1.3333333,0,0,-1.3333333,2804.284,617.27067)" />
    <path
       id="path410"
       d="M 1.11098,0 C 1.11098,0.61357 0.61357,1.11098 0,1.11098 -0.61357,1.11098 -1.11098,0.61357 -1.11098,0 c 0,-0.61357 0.49741,-1.11098 1.11098,-1.11098 0.61357,0 1.11098,0.49741 1.11098,1.11098 z"
       style="fill:#000000;fill-opacity:1;fill-rule:nonzero;stroke:#000000;stroke-width:0.3985;stroke-linecap:butt;stroke-linejoin:miter;stroke-miterlimit:10;stroke-dasharray:none;stroke-opacity:1"
       transform="matrix(1.3333333,0,0,-1.3333333,2804.284,617.27067)" />
    <path
       id="path411"
       d="m 159.85242,0 c 0,0.61357 -0.49741,1.11098 -1.111,1.11098 -0.61358,0 -1.11099,-0.49741 -1.11099,-1.11098 0,-0.61357 0.49741,-1.11098 1.11099,-1.11098 0.61359,0 1.111,0.49741 1.111,1.11098 z"
       style="fill:#000000;fill-opacity:1;fill-rule:nonzero;stroke:#000000;stroke-width:0.3985;stroke-linecap:butt;stroke-linejoin:miter;stroke-miterlimit:10;stroke-dasharray:none;stroke-opacity:1"
       transform="matrix(1.3333333,0,0,-1.3333333,2804.284,617.27067)" />
    <path
       id="path412"
       d="m 0,59.52802 14.88254,0.0022 m 0,0 14.88146,-0.0022 3.77134,0.0022 m 22.22459,0 3.76809,-0.0022 3.77246,0.0022 m 22.22456,0 3.767,-0.0022 19.84668,0.0022 m 0,0 19.83868,-0.0022 14.88733,0.0022 m 0,0 14.87669,-0.0022"
       style="fill:none;stroke:#000000;stroke-width:0.3985;stroke-linecap:butt;stroke-linejoin:miter;stroke-miterlimit:10;stroke-dasharray:none;stroke-opacity:1"
       transform="matrix(1.3333333,0,0,-1.3333333,2804.284,617.27067)" />
    <path
       id="path413"
       d="M 1.11098,59.52802 C 1.11098,60.1416 0.61357,60.639 0,60.639 c -0.61357,0 -1.11098,-0.4974 -1.11098,-1.11098 0,-0.61358 0.49741,-1.111 1.11098,-1.111 0.61357,0 1.11098,0.49742 1.11098,1.111 z"
       style="fill:#000000;fill-opacity:1;fill-rule:nonzero;stroke:#000000;stroke-width:0.3985;stroke-linecap:butt;stroke-linejoin:miter;stroke-miterlimit:10;stroke-dasharray:none;stroke-opacity:1"
       transform="matrix(1.3333333,0,0,-1.3333333,2804.284,617.27067)" />
    <path
       id="path414"
       d="m 13.66719,59.53018 v -1.38896 l 2.95155,1.38896 -2.95155,1.38896 z"
       style="fill:#000000;fill-opacity:1;fill-rule:nonzero;stroke:#000000;stroke-width:0.3985;stroke-linecap:butt;stroke-linejoin:miter;stroke-miterlimit:10;stroke-dasharray:none;stroke-opacity:1"
       transform="matrix(1.3333333,0,0,-1.3333333,2804.284,617.27067)" />
    <g
       id="g414"
       aria-label="I(x)"
       transform="matrix(0.93333333,0,0,0.93333333,2815.116,532.28667)">
      <path
         id="path415"
         d="m 4.387433,-6.1623326 c 0.050223,-0.1674107 0.050223,-0.1674107 0.2511161,-0.2008928 0.1506697,0 0.2845982,0 0.4352679,0 h 0.2008928 c 0.217634,0 0.217634,-0.016741 0.2678572,-0.050223 0.066964,-0.050223 0.1004464,-0.1841517 0.1004464,-0.234375 0,-0.1339285 -0.1004464,-0.1841517 -0.2176339,-0.1841517 -0.2511161,0 -0.5189732,0.016741 -0.7700893,0.016741 -0.2511161,0 -0.5189732,0.016741 -0.7868304,0.016741 -0.2845982,0 -0.5524553,-0.016741 -0.8370535,-0.016741 -0.2511161,0 -0.5189733,-0.016741 -0.7700893,-0.016741 -0.1004465,0 -0.2845982,0 -0.2845982,0.2845982 0,0.1841518 0.1506696,0.1841518 0.3348214,0.1841518 h 0.2176339 c 0.083705,0 0.3180804,0 0.5189732,0.016741 l -1.422991,5.67522324 c -0.033482,0.16741071 -0.050223,0.16741071 -0.234375,0.18415179 -0.1171875,0.0167411 -0.3013393,0.0167411 -0.43526791,0.0167411 H 0.75462054 c -0.20089286,0 -0.36830358,0 -0.36830358,0.28459821 0,0.13392857 0.10044643,0.18415179 0.21763393,0.18415179 0.25111607,0 0.50223211,-0.01674107 0.75334821,-0.01674107 0.2678572,0 0.5357143,-0.01674108 0.8035714,-0.01674108 0.2845983,0 0.5524554,0.01674108 0.8370536,0.01674108 0.2511161,0 0.5022322,0.01674107 0.7533482,0.01674107 0.1004465,0 0.3013393,0 0.3013393,-0.28459822 0,-0.18415178 -0.1674107,-0.18415178 -0.3348214,-0.18415178 H 3.5001563 c -0.066964,0 -0.3850447,-0.0167411 -0.5189733,-0.0167411 z m 0,0"
         style="fill:#000000;fill-opacity:1;fill-rule:nonzero;stroke:none" />
      <path
         id="path416"
         d="m 9.1670089,2.3923549 c 0,-0.033482 0,-0.050223 -0.1674107,-0.2176339 -1.2555803,-1.25558037 -1.5736607,-3.14732145 -1.5736607,-4.6707589 0,-1.7243304 0.3850446,-3.4654018 1.6071429,-4.7042411 0.1339285,-0.1171875 0.1339285,-0.1506697 0.1339285,-0.1674107 0,-0.066964 -0.033482,-0.1004465 -0.1004464,-0.1004465 -0.1004464,0 -1.0044643,0.6696429 -1.5904018,1.9419643 -0.5022321,1.0881697 -0.6194196,2.1930804 -0.6194196,3.030134 0,0.7868303 0.1004464,1.99218745 0.6529018,3.11383924 0.6026785,1.22209826 1.4564732,1.87499996 1.5569196,1.87499996 0.066964,0 0.1004464,-0.033482 0.1004464,-0.1004464 z m 0,0"
         style="fill:#000000;fill-opacity:1;fill-rule:nonzero;stroke:none" />
      <path
         id="path417"
         d="m 13.071864,-3.0150112 c 0.05022,-0.251116 0.284598,-1.171875 0.987723,-1.171875 0.05022,0 0.284598,0 0.485491,0.1339286 -0.267857,0.050223 -0.46875,0.3013393 -0.46875,0.5357143 0,0.1506696 0.100447,0.3515625 0.368304,0.3515625 0.234375,0 0.552455,-0.1841518 0.552455,-0.5859375 0,-0.5189732 -0.602679,-0.6529018 -0.9375,-0.6529018 -0.569196,0 -0.920759,0.5357143 -1.037946,0.7533482 -0.251116,-0.6529018 -0.786831,-0.7533482 -1.08817,-0.7533482 -1.021205,0 -1.590402,1.2890625 -1.590402,1.5401786 0,0.1004464 0.100447,0.1004464 0.117188,0.1004464 0.08371,0 0.100446,-0.033482 0.133928,-0.1171875 0.334822,-1.0546875 0.987723,-1.3058036 1.322545,-1.3058036 0.200893,0 0.535714,0.083705 0.535714,0.6696429 0,0.3013393 -0.167411,0.9709821 -0.535714,2.3772321 -0.15067,0.60267861 -0.502232,1.0212054 -0.9375,1.0212054 -0.06696,0 -0.284598,0 -0.502232,-0.1171875 0.251116,-0.0502232 0.46875,-0.26785715 0.46875,-0.53571429 0,-0.26785711 -0.217634,-0.35156251 -0.368304,-0.35156251 -0.301339,0 -0.552455,0.25111608 -0.552455,0.56919644 0,0.46875 0.502232,0.66964286 0.9375,0.66964286 0.652902,0 1.021205,-0.703125 1.054687,-0.77008929 0.117188,0.36830357 0.46875,0.77008929 1.071429,0.77008929 1.021205,0 1.590402,-1.2890625 1.590402,-1.5401786 0,-0.1004464 -0.08371,-0.1004464 -0.117188,-0.1004464 -0.08371,0 -0.117187,0.033482 -0.133928,0.1171875 -0.318081,1.0546875 -1.004465,1.2890625 -1.322545,1.2890625 -0.385045,0 -0.552455,-0.31808036 -0.552455,-0.65290179 0,-0.21763393 0.06696,-0.43526781 0.184151,-0.87053571 z m 0,0"
         style="fill:#000000;fill-opacity:1;fill-rule:nonzero;stroke:none" />
      <path
         id="path418"
         d="m 18.316004,-2.4960379 c 0,-0.7700893 -0.117187,-1.9754465 -0.652901,-3.0970983 -0.602679,-1.2388392 -1.456474,-1.875 -1.55692,-1.875 -0.06696,0 -0.100446,0.033482 -0.100446,0.1004465 0,0.016741 0,0.050223 0.184151,0.2176339 0.987724,0.9877232 1.540179,2.578125 1.540179,4.6540179 0,1.70758924 -0.368304,3.46540174 -1.590402,4.7209821 -0.133928,0.1171875 -0.133928,0.1339286 -0.133928,0.1674107 0,0.050223 0.03348,0.1004464 0.100446,0.1004464 0.100446,0 0.987723,-0.6863839 1.573661,-1.94196425 0.518973,-1.10491071 0.63616,-2.20982145 0.63616,-3.04687495 z m 0,0"
         style="fill:#000000;fill-opacity:1;fill-rule:nonzero;stroke:none" />
    </g>
    <path
       id="path419"
       d="m 33.13562,59.52802 2.28371,4.16697 3.77035,-8.33394 3.77039,8.33394 3.77037,-8.33394 3.77037,8.33394 3.77037,-8.33394 1.88519,4.16697"
       style="fill:none;stroke:#000000;stroke-width:0.797;stroke-linecap:butt;stroke-linejoin:bevel;stroke-miterlimit:10;stroke-dasharray:none;stroke-opacity:1"
       transform="matrix(1.3333333,0,0,-1.3333333,2804.284,617.27067)" />
    <path
       id="path420"
       d="m 3.733125,-6.1103906 c 0.066964,-0.2511161 0.083705,-0.3515625 0.2845982,-0.3683036 0.083705,-0.016741 0.4017857,-0.016741 0.6026786,-0.016741 0.703125,0 1.8080357,0 1.8080357,0.9877232 0,0.3348215 -0.1506696,1.0212054 -0.5357143,1.40625 -0.2678571,0.2678572 -0.7868303,0.5859375 -1.6908482,0.5859375 H 3.0802232 Z m 1.4397321,2.7287946 c 1.0044643,-0.2176339 2.1930804,-0.9207589 2.1930804,-1.9252232 0,-0.8537946 -0.9040179,-1.4899554 -2.2098214,-1.4899554 H 2.326875 c -0.2008929,0 -0.3013393,0 -0.3013393,0.2008929 0,0.1004464 0.1004464,0.1004464 0.2845982,0.1004464 0.016741,0 0.217634,0 0.3850447,0.016741 0.1674107,0.016741 0.2678571,0.033482 0.2678571,0.1674107 0,0.033482 -0.016741,0.066964 -0.050223,0.1841518 l -1.3225446,5.35714286 c -0.1004465,0.38504464 -0.1339286,0.46875 -0.92075897,0.46875 -0.16741072,0 -0.26785714,0 -0.26785714,0.18415179 0,0.11718749643 0.13392857,0.11718749643 0.15066964,0.11718749643 0.26785714,0 0.97098217,-0.0334821464 1.25558037,-0.0334821464 0.2678571,0 0.9877232,0.0334821464 1.2555803,0.0334821464 0.083705,0 0.2008929,0 0.2008929,-0.20089285643 0,-0.10044643 -0.083705,-0.10044643 -0.2678571,-0.10044643 -0.3850447,0 -0.6529018,0 -0.6529018,-0.18415178 0,-0.0669643 0.016741,-0.1171875 0.033482,-0.16741072 L 3.03,-3.2978906 h 1.1886161 c 0.9040178,0 1.0881696,0.5524553 1.0881696,0.9040178 0,0.1506697 -0.083705,0.46875 -0.1506696,0.686384 -0.066964,0.2845982 -0.1506697,0.6529017 -0.1506697,0.8537946 0,1.07142858 1.1886161,1.07142858 1.3225447,1.07142858 0.8370535,0 1.188616,-1.00446429 1.188616,-1.13839286 0,-0.11718752 -0.1004464,-0.11718752 -0.1171875,-0.11718752 -0.083705,0 -0.1004464,0.0669643 -0.1339285,0.13392859 C 7.014375,-0.16731027 6.5958482,1.0044643e-4 6.3614732,1.0044643e-4 c -0.3180803,0 -0.4017857,-0.21763392643 -0.4017857,-0.60267856643 0,-0.31808036 0.066964,-0.82031248 0.1004464,-1.13839288 0.033482,-0.1339286 0.050223,-0.3348214 0.050223,-0.46875 0,-0.7700893 -0.6696428,-1.0714286 -0.9374998,-1.171875 z m 7.6130019,-3.4151786 c 0,-0.016741 0,-0.1171875 -0.133928,-0.1171875 -0.15067,0 -1.08817,0.083705 -1.255581,0.1171875 -0.08371,0 -0.150669,0.050223 -0.150669,0.1841518 0,0.1171875 0.100446,0.1171875 0.251116,0.1171875 0.46875,0 0.485491,0.066964 0.485491,0.1674107 l -0.01674,0.2008929 -0.602679,2.3604911 c -0.184151,-0.3683036 -0.46875,-0.6361607 -0.920759,-0.6361607 -1.1551336,0 -2.3939728,1.4564732 -2.3939728,2.9129464 0,0.93749999 0.5524553,1.60714285 1.3225446,1.60714285 0.2008929,0 0.7031252,-0.05022322 1.2890622,-0.75334822 0.08371,0.41852679 0.435268,0.75334822 0.904018,0.75334822 0.351563,0 0.585938,-0.234375 0.736607,-0.55245536 0.184152,-0.36830357 0.30134,-0.97098219 0.30134,-0.98772319 0,-0.1004465 -0.08371,-0.1004465 -0.117188,-0.1004465 -0.100446,0 -0.100446,0.033482 -0.133928,0.1841518 -0.167411,0.63616075 -0.351563,1.22209825 -0.753349,1.22209825 -0.267857,0 -0.301339,-0.25111607 -0.301339,-0.45200893 0,-0.234375 0.01674,-0.30133929 0.05022,-0.46875002 z m -2.075892,5.608259 c -0.05022,0.1841518 -0.05022,0.20089283 -0.200893,0.36830355 -0.435268,0.55245535 -0.8370539,0.703125 -1.1216521,0.703125 -0.5022322,0 -0.6361607,-0.53571429 -0.6361607,-0.92075895 0,-0.5022321 0.3180803,-1.7243303 0.5524553,-2.1930803 0.3013393,-0.5859375 0.7533485,-0.9542411 1.1551335,-0.9542411 0.636161,0 0.786831,0.8203125 0.786831,0.8705357 0,0.066964 -0.01674,0.1339286 -0.03348,0.1841518 z m 5.453404,-1.8247768 c 0.05022,-0.2511161 0.284598,-1.171875 0.987723,-1.171875 0.05022,0 0.284598,0 0.485491,0.1339286 -0.267857,0.050223 -0.46875,0.3013392 -0.46875,0.5357142 0,0.1506697 0.100446,0.3515625 0.368303,0.3515625 0.234375,0 0.552456,-0.1841517 0.552456,-0.5859375 0,-0.5189732 -0.602679,-0.6529017 -0.9375,-0.6529017 -0.569197,0 -0.920759,0.5357142 -1.037947,0.7533482 -0.251116,-0.6529018 -0.78683,-0.7533482 -1.088169,-0.7533482 -1.021206,0 -1.590402,1.2890625 -1.590402,1.5401785 0,0.1004465 0.100446,0.1004465 0.117187,0.1004465 0.08371,0 0.100447,-0.033482 0.133929,-0.1171875 0.334821,-1.0546875 0.987723,-1.3058036 1.322545,-1.3058036 0.200892,0 0.535714,0.083705 0.535714,0.6696428 0,0.3013393 -0.167411,0.9709822 -0.535714,2.3772322 -0.15067,0.60267856 -0.502233,1.02120535 -0.9375,1.02120535 -0.06696,0 -0.284599,0 -0.502233,-0.1171875 0.251117,-0.0502232 0.46875,-0.26785715 0.46875,-0.53571429 0,-0.26785716 -0.217633,-0.35156246 -0.368303,-0.35156246 -0.301339,0 -0.552455,0.25111603 -0.552455,0.56919639 0,0.46875 0.502232,0.66964286 0.9375,0.66964286 0.652901,0 1.021205,-0.703125 1.054687,-0.77008929 0.117188,0.36830357 0.46875,0.77008929 1.071429,0.77008929 1.021205,0 1.590401,-1.28906255 1.590401,-1.54017855 0,-0.1004465 -0.08371,-0.1004465 -0.117187,-0.1004465 -0.0837,0 -0.117188,0.033482 -0.133929,0.1171875 -0.31808,1.05468755 -1.004464,1.28906255 -1.322544,1.28906255 -0.385045,0 -0.552456,-0.31808036 -0.552456,-0.65290179 0,-0.21763393 0.06696,-0.43526786 0.184152,-0.87053576 z m 0,0"
       style="fill:#000000;fill-opacity:1;fill-rule:nonzero;stroke:none"
       aria-label="Rdx"
       transform="matrix(0.93333333,0,0,0.93333333,2855.172,527.496)" />
    <path
       id="path421"
       d="m 62.89964,59.36862 c 0,2.30127 1.28833,4.16678 2.8776,4.16678 1.58926,0 2.87759,-1.86551 2.87759,-4.16678 0,2.30127 1.28835,4.16678 2.87759,4.16678 1.58927,0 2.87761,-1.86551 2.87761,-4.16678 0,2.30127 1.28833,4.16678 2.8776,4.16678 1.58926,0 2.87759,-1.86551 2.87759,-4.16678 0,2.30127 1.28835,4.16678 2.8776,4.16678 1.58926,0 2.87761,-1.86551 2.87761,-4.16678"
       style="fill:none;stroke:#000000;stroke-width:0.797;stroke-linecap:butt;stroke-linejoin:bevel;stroke-miterlimit:10;stroke-dasharray:none;stroke-opacity:1"
       transform="matrix(1.3333333,0,0,-1.3333333,2804.284,617.27067)" />
    <path
       id="path422"
       d="m 3.7351004,-6.0266853 c 0.083705,-0.3515625 0.1171875,-0.46875 1.0546875,-0.46875 0.2845983,0 0.3683036,0 0.3683036,-0.1841518 0,-0.1171875 -0.1004464,-0.1171875 -0.1506696,-0.1171875 -0.3348215,0 -1.155134,0.016741 -1.4732143,0.016741 -0.3013393,0 -1.0379464,-0.016741 -1.3392857,-0.016741 -0.066964,0 -0.1841518,0 -0.1841518,0.2008929 0,0.1004464 0.1004464,0.1004464 0.2845982,0.1004464 0.016741,0 0.2008929,0 0.3683036,0.016741 0.1841518,0.016741 0.2845982,0.033482 0.2845982,0.1674107 0,0.033482 -0.016741,0.066964 -0.050223,0.1841518 l -1.3392857,5.35714286 c -0.1004465,0.38504464 -0.1171875,0.46875 -0.9040179,0.46875 -0.16741071,0 -0.26785714,0 -0.26785714,0.18415179 0,0.11718749643 0.10044643,0.11718749643 0.26785714,0.11718749643 H 5.275279 c 0.234375,0 0.2511161,0 0.3013393,-0.16741071643 L 6.3634487,-2.3269085 c 0.050223,-0.1004464 0.050223,-0.1171875 0.050223,-0.1339286 0,-0.033482 -0.033482,-0.1171875 -0.1339286,-0.1171875 -0.083705,0 -0.1004464,0.050223 -0.1674107,0.217634 -0.3348214,0.9207589 -0.7700893,2.05915176 -2.4944197,2.05915176 h -0.9375 c -0.1339285,0 -0.1506696,0 -0.2176339,-0.0167411 -0.1004464,-0.0167411 -0.1339286,-0.0167411 -0.1339286,-0.10044643 0,-0.0334821 0,-0.0502232 0.050223,-0.234375 z m 8.1863836,-0.7700893 c 0,-0.016741 0,-0.1171875 -0.133928,-0.1171875 -0.15067,0 -1.08817,0.083705 -1.255581,0.1171875 -0.0837,0 -0.150669,0.050223 -0.150669,0.1841518 0,0.1171875 0.100446,0.1171875 0.251116,0.1171875 0.46875,0 0.485491,0.066964 0.485491,0.1674107 l -0.01674,0.2008929 -0.602679,2.3604911 c -0.184151,-0.3683036 -0.46875,-0.6361607 -0.9207586,-0.6361607 -1.155134,0 -2.3939732,1.4564732 -2.3939732,2.9129464 0,0.93749999 0.5524553,1.60714285 1.3225446,1.60714285 0.2008929,0 0.703125,-0.05022322 1.2890625,-0.75334822 0.083705,0.41852679 0.4352677,0.75334822 0.9040177,0.75334822 0.351563,0 0.585938,-0.234375 0.736607,-0.55245536 0.184152,-0.36830357 0.30134,-0.97098219 0.30134,-0.98772319 0,-0.1004465 -0.08371,-0.1004465 -0.117188,-0.1004465 -0.100446,0 -0.100446,0.033482 -0.133928,0.1841518 -0.167411,0.63616075 -0.351563,1.22209825 -0.753349,1.22209825 -0.267857,0 -0.301339,-0.25111607 -0.301339,-0.45200893 0,-0.234375 0.01674,-0.30133929 0.05022,-0.46875002 z m -2.0758925,5.608259 c -0.050223,0.1841518 -0.050223,0.20089283 -0.2008928,0.36830355 -0.4352679,0.55245535 -0.8370536,0.703125 -1.1216518,0.703125 -0.5022322,0 -0.6361607,-0.53571429 -0.6361607,-0.92075895 0,-0.5022321 0.3180803,-1.7243303 0.5524553,-2.1930803 0.3013393,-0.5859375 0.7533482,-0.9542411 1.1551339,-0.9542411 0.6361606,0 0.7868306,0.8203125 0.7868306,0.8705357 0,0.066964 -0.01674,0.1339286 -0.03348,0.1841518 z m 5.4534045,-1.8247768 c 0.05022,-0.2511161 0.284598,-1.171875 0.987723,-1.171875 0.05022,0 0.284598,0 0.485491,0.1339286 -0.267857,0.050223 -0.46875,0.3013392 -0.46875,0.5357142 0,0.1506697 0.100446,0.3515625 0.368303,0.3515625 0.234375,0 0.552456,-0.1841517 0.552456,-0.5859375 0,-0.5189732 -0.602679,-0.6529017 -0.9375,-0.6529017 -0.569197,0 -0.920759,0.5357142 -1.037947,0.7533482 -0.251116,-0.6529018 -0.78683,-0.7533482 -1.088169,-0.7533482 -1.021206,0 -1.590402,1.2890625 -1.590402,1.5401785 0,0.1004465 0.100446,0.1004465 0.117187,0.1004465 0.08371,0 0.100447,-0.033482 0.133929,-0.1171875 0.334821,-1.0546875 0.987723,-1.3058036 1.322545,-1.3058036 0.200892,0 0.535714,0.083705 0.535714,0.6696428 0,0.3013393 -0.167411,0.9709822 -0.535714,2.3772322 -0.15067,0.60267856 -0.502233,1.02120535 -0.9375,1.02120535 -0.06696,0 -0.284599,0 -0.502233,-0.1171875 0.251117,-0.0502232 0.46875,-0.26785715 0.46875,-0.53571429 0,-0.26785716 -0.217633,-0.35156246 -0.368303,-0.35156246 -0.301339,0 -0.552455,0.25111603 -0.552455,0.56919639 0,0.46875 0.502232,0.66964286 0.9375,0.66964286 0.652901,0 1.021205,-0.703125 1.054687,-0.77008929 0.117188,0.36830357 0.46875,0.77008929 1.071429,0.77008929 1.021205,0 1.590401,-1.28906255 1.590401,-1.54017855 0,-0.1004465 -0.0837,-0.1004465 -0.117187,-0.1004465 -0.08371,0 -0.117188,0.033482 -0.133929,0.1171875 -0.31808,1.05468755 -1.004464,1.28906255 -1.322544,1.28906255 -0.385045,0 -0.552456,-0.31808036 -0.552456,-0.65290179 0,-0.21763393 0.06696,-0.43526786 0.184152,-0.87053576 z m 0,0"
       style="fill:#000000;fill-opacity:1;fill-rule:nonzero;stroke:none"
       aria-label="Ldx"
       transform="matrix(0.93333333,0,0,0.93333333,2895.26,527.496)" />
    <path
       id="path423"
       d="m 159.85242,59.52802 c 0,0.61358 -0.49741,1.11098 -1.111,1.11098 -0.61358,0 -1.11099,-0.4974 -1.11099,-1.11098 0,-0.61358 0.49741,-1.111 1.11099,-1.111 0.61359,0 1.111,0.49742 1.111,1.111 z"
       style="fill:#000000;fill-opacity:1;fill-rule:nonzero;stroke:#000000;stroke-width:0.3985;stroke-linecap:butt;stroke-linejoin:miter;stroke-miterlimit:10;stroke-dasharray:none;stroke-opacity:1"
       transform="matrix(1.3333333,0,0,-1.3333333,2804.284,617.27067)" />
    <path
       id="path424"
       d="m 142.64937,59.53018 v -1.38896 l 2.95155,1.38896 -2.95155,1.38896 z"
       style="fill:#000000;fill-opacity:1;fill-rule:nonzero;stroke:#000000;stroke-width:0.3985;stroke-linecap:butt;stroke-linejoin:miter;stroke-miterlimit:10;stroke-dasharray:none;stroke-opacity:1"
       transform="matrix(1.3333333,0,0,-1.3333333,2804.284,617.27067)" />
    <g
       id="g424"
       aria-label="I(x+dx)"
       transform="matrix(0.93333333,0,0,0.93333333,2976.3347,532.28667)">
      <path
         id="path425"
         d="m 4.3875223,-6.1623326 c 0.050223,-0.1674107 0.050223,-0.1674107 0.2511161,-0.2008928 0.1506696,0 0.2845982,0 0.4352679,0 h 0.2008928 c 0.2176339,0 0.2176339,-0.016741 0.2678572,-0.050223 0.066964,-0.050223 0.1004464,-0.1841517 0.1004464,-0.234375 0,-0.1339285 -0.1004464,-0.1841517 -0.2176339,-0.1841517 -0.2511161,0 -0.5189733,0.016741 -0.7700893,0.016741 -0.2511161,0 -0.5189732,0.016741 -0.7868304,0.016741 -0.2845982,0 -0.5524553,-0.016741 -0.8370536,-0.016741 -0.251116,0 -0.5189732,-0.016741 -0.7700892,-0.016741 -0.1004465,0 -0.2845983,0 -0.2845983,0.2845982 0,0.1841518 0.1506697,0.1841518 0.3348215,0.1841518 h 0.2176339 c 0.083705,0 0.3180804,0 0.5189732,0.016741 l -1.4229911,5.67522324 c -0.033482,0.16741071 -0.050223,0.16741071 -0.234375,0.18415179 -0.1171875,0.0167411 -0.3013392,0.0167411 -0.43526782,0.0167411 H 0.75470982 c -0.20089286,0 -0.36830357,0 -0.36830357,0.28459821 0,0.13392857 0.10044643,0.18415179 0.21763393,0.18415179 0.25111607,0 0.50223212,-0.01674107 0.75334822,-0.01674107 0.2678571,0 0.5357143,-0.01674108 0.8035714,-0.01674108 0.2845982,0 0.5524554,0.01674108 0.8370536,0.01674108 0.2511161,0 0.5022321,0.01674107 0.7533482,0.01674107 0.1004464,0 0.3013393,0 0.3013393,-0.28459822 0,-0.18415178 -0.1674107,-0.18415178 -0.3348214,-0.18415178 h -0.217634 c -0.066964,0 -0.3850446,-0.0167411 -0.5189732,-0.0167411 z m 0,0"
         style="fill:#000000;fill-opacity:1;fill-rule:nonzero;stroke:none" />
      <path
         id="path426"
         d="m 9.1629129,2.3923549 c 0,-0.033482 0,-0.050223 -0.1674107,-0.2176339 -1.2555803,-1.25558037 -1.5736607,-3.14732145 -1.5736607,-4.6707589 0,-1.7243304 0.3850447,-3.4654018 1.6071429,-4.7042411 0.1339285,-0.1171875 0.1339285,-0.1506697 0.1339285,-0.1674107 0,-0.066964 -0.033482,-0.1004465 -0.1004464,-0.1004465 -0.1004464,0 -1.0044643,0.6696429 -1.5904018,1.9419643 -0.5022321,1.0881697 -0.6194196,2.1930804 -0.6194196,3.030134 0,0.7868303 0.1004464,1.99218745 0.6529018,3.11383924 0.6026785,1.22209826 1.4564732,1.87499996 1.5569196,1.87499996 0.066964,0 0.1004464,-0.033482 0.1004464,-0.1004464 z m 0,0"
         style="fill:#000000;fill-opacity:1;fill-rule:nonzero;stroke:none" />
      <path
         id="path427"
         d="m 13.071953,-3.0150112 c 0.05022,-0.251116 0.284598,-1.171875 0.987723,-1.171875 0.05022,0 0.284599,0 0.485491,0.1339286 -0.267857,0.050223 -0.46875,0.3013393 -0.46875,0.5357143 0,0.1506696 0.100447,0.3515625 0.368304,0.3515625 0.234375,0 0.552455,-0.1841518 0.552455,-0.5859375 0,-0.5189732 -0.602678,-0.6529018 -0.9375,-0.6529018 -0.569196,0 -0.920759,0.5357143 -1.037946,0.7533482 -0.251116,-0.6529018 -0.78683,-0.7533482 -1.08817,-0.7533482 -1.021205,0 -1.590402,1.2890625 -1.590402,1.5401786 0,0.1004464 0.100447,0.1004464 0.117188,0.1004464 0.08371,0 0.100446,-0.033482 0.133929,-0.1171875 0.334821,-1.0546875 0.987723,-1.3058036 1.322544,-1.3058036 0.200893,0 0.535714,0.083705 0.535714,0.6696429 0,0.3013393 -0.16741,0.9709821 -0.535714,2.3772321 -0.150669,0.60267861 -0.502232,1.0212054 -0.9375,1.0212054 -0.06696,0 -0.284598,0 -0.502232,-0.1171875 0.251116,-0.0502232 0.46875,-0.26785715 0.46875,-0.53571429 0,-0.26785711 -0.217634,-0.35156251 -0.368304,-0.35156251 -0.301339,0 -0.552455,0.25111608 -0.552455,0.56919644 0,0.46875 0.502232,0.66964286 0.9375,0.66964286 0.652902,0 1.021205,-0.703125 1.054688,-0.77008929 0.117187,0.36830357 0.46875,0.77008929 1.071428,0.77008929 1.021206,0 1.590402,-1.2890625 1.590402,-1.5401786 0,-0.1004464 -0.08371,-0.1004464 -0.117188,-0.1004464 -0.08371,0 -0.117187,0.033482 -0.133928,0.1171875 -0.31808,1.0546875 -1.004464,1.2890625 -1.322545,1.2890625 -0.385044,0 -0.552455,-0.31808036 -0.552455,-0.65290179 0,-0.21763393 0.06696,-0.43526781 0.184152,-0.87053571 z m 0,0"
         style="fill:#000000;fill-opacity:1;fill-rule:nonzero;stroke:none" />
      <path
         id="path428"
         d="m 21.718717,-2.2951451 h 2.779017 c 0.15067,0 0.334822,0 0.334822,-0.2008928 0,-0.2008929 -0.184152,-0.2008929 -0.334822,-0.2008929 h -2.779017 v -2.7790179 c 0,-0.1506696 0,-0.3348214 -0.200893,-0.3348214 -0.184152,0 -0.184152,0.1841518 -0.184152,0.3348214 v 2.7790179 h -2.795759 c -0.133929,0 -0.334821,0 -0.334821,0.2008929 0,0.2008928 0.200892,0.2008928 0.334821,0.2008928 h 2.795759 v 2.79575894 c 0,0.13392857 0,0.31808036 0.184152,0.31808036 0.200893,0 0.200893,-0.18415179 0.200893,-0.31808036 z m 0,0"
         style="fill:#000000;fill-opacity:1;fill-rule:nonzero;stroke:none" />
      <path
         id="path429"
         d="m 32.751083,-6.7984933 c 0,-0.016741 0,-0.1171875 -0.133929,-0.1171875 -0.15067,0 -1.08817,0.083705 -1.25558,0.1171875 -0.08371,0 -0.15067,0.050223 -0.15067,0.1841518 0,0.1171875 0.100446,0.1171875 0.251116,0.1171875 0.46875,0 0.485491,0.066964 0.485491,0.1674107 l -0.01674,0.2008929 -0.602678,2.360491 c -0.184152,-0.3683035 -0.46875,-0.6361607 -0.920759,-0.6361607 -1.155134,0 -2.393974,1.4564732 -2.393974,2.9129464 0,0.93750004 0.552456,1.6071429 1.322545,1.6071429 0.200893,0 0.703125,-0.05022322 1.289063,-0.75334822 0.0837,0.41852679 0.435267,0.75334822 0.904017,0.75334822 0.351563,0 0.585938,-0.234375 0.736608,-0.55245536 0.184151,-0.36830357 0.301339,-0.97098214 0.301339,-0.98772324 0,-0.1004464 -0.08371,-0.1004464 -0.117188,-0.1004464 -0.100446,0 -0.100446,0.033482 -0.133928,0.1841518 -0.167411,0.6361607 -0.351563,1.2220982 -0.753348,1.2220982 -0.267858,0 -0.30134,-0.25111607 -0.30134,-0.45200893 0,-0.234375 0.01674,-0.30133929 0.05022,-0.46874997 z m -2.075893,5.6082589 c -0.05022,0.1841518 -0.05022,0.20089288 -0.200893,0.3683036 -0.435268,0.55245535 -0.837054,0.703125 -1.121652,0.703125 -0.502232,0 -0.636161,-0.53571429 -0.636161,-0.9207589 0,-0.5022322 0.318081,-1.7243304 0.552456,-2.1930804 0.301339,-0.5859375 0.753348,-0.9542411 1.155134,-0.9542411 0.63616,0 0.78683,0.8203125 0.78683,0.8705358 0,0.066964 -0.01674,0.1339285 -0.03348,0.1841517 z m 5.453404,-1.8247768 c 0.05022,-0.251116 0.284598,-1.171875 0.987723,-1.171875 0.05022,0 0.284598,0 0.485491,0.1339286 -0.267857,0.050223 -0.46875,0.3013393 -0.46875,0.5357143 0,0.1506696 0.100446,0.3515625 0.368304,0.3515625 0.234375,0 0.552455,-0.1841518 0.552455,-0.5859375 0,-0.5189732 -0.602679,-0.6529018 -0.9375,-0.6529018 -0.569196,0 -0.920759,0.5357143 -1.037946,0.7533482 -0.251117,-0.6529018 -0.786831,-0.7533482 -1.08817,-0.7533482 -1.021205,0 -1.590402,1.2890625 -1.590402,1.5401786 0,0.1004464 0.100447,0.1004464 0.117188,0.1004464 0.08371,0 0.100446,-0.033482 0.133928,-0.1171875 0.334822,-1.0546875 0.987723,-1.3058036 1.322545,-1.3058036 0.200893,0 0.535714,0.083705 0.535714,0.6696429 0,0.3013393 -0.167411,0.9709821 -0.535714,2.3772321 -0.15067,0.60267861 -0.502232,1.0212054 -0.9375,1.0212054 -0.06696,0 -0.284598,0 -0.502232,-0.1171875 0.251116,-0.0502232 0.46875,-0.26785715 0.46875,-0.53571429 0,-0.26785711 -0.217634,-0.35156251 -0.368304,-0.35156251 -0.301339,0 -0.552455,0.25111608 -0.552455,0.56919644 0,0.46875 0.502232,0.66964286 0.9375,0.66964286 0.652902,0 1.021205,-0.703125 1.054687,-0.77008929 0.117188,0.36830357 0.46875,0.77008929 1.071429,0.77008929 1.021205,0 1.590402,-1.2890625 1.590402,-1.5401786 0,-0.1004464 -0.08371,-0.1004464 -0.117188,-0.1004464 -0.08371,0 -0.117187,0.033482 -0.133928,0.1171875 -0.318081,1.0546875 -1.004465,1.2890625 -1.322545,1.2890625 -0.385045,0 -0.552455,-0.31808036 -0.552455,-0.65290179 0,-0.21763393 0.06696,-0.43526781 0.184151,-0.87053571 z m 0,0"
         style="fill:#000000;fill-opacity:1;fill-rule:nonzero;stroke:none" />
      <path
         id="path430"
         d="m 41.368549,-2.4960379 c 0,-0.7700893 -0.117187,-1.9754465 -0.652902,-3.0970983 -0.602678,-1.2388392 -1.456473,-1.875 -1.556919,-1.875 -0.06697,0 -0.100447,0.033482 -0.100447,0.1004465 0,0.016741 0,0.050223 0.184152,0.2176339 0.987723,0.9877232 1.540179,2.578125 1.540179,4.6540179 0,1.70758924 -0.368304,3.46540174 -1.590402,4.7209821 -0.133929,0.1171875 -0.133929,0.1339286 -0.133929,0.1674107 0,0.050223 0.03348,0.1004464 0.100447,0.1004464 0.100446,0 0.987723,-0.6863839 1.57366,-1.94196425 0.518974,-1.10491071 0.636161,-2.20982145 0.636161,-3.04687495 z m 0,0"
         style="fill:#000000;fill-opacity:1;fill-rule:nonzero;stroke:none" />
    </g>
    <path
       id="path431"
       d="M 99.2134,59.52802 99.217,40.87738 m 0,-22.22459 L 99.2134,0"
       style="fill:none;stroke:#000000;stroke-width:0.3985;stroke-linecap:butt;stroke-linejoin:miter;stroke-miterlimit:10;stroke-dasharray:none;stroke-opacity:1"
       transform="matrix(1.3333333,0,0,-1.3333333,2804.284,617.27067)" />
    <path
       id="path432"
       d="m 99.21338,41.2744 4.16696,-2.28371 -8.33392,-3.77035 8.33392,-3.77039 -8.33392,-3.77037 8.33392,-3.77037 -8.33392,-3.77037 4.16696,-1.88519"
       style="fill:none;stroke:#000000;stroke-width:0.797;stroke-linecap:butt;stroke-linejoin:bevel;stroke-miterlimit:10;stroke-dasharray:none;stroke-opacity:1"
       transform="matrix(1.3333333,0,0,-1.3333333,2804.284,617.27067)" />
    <path
       id="path433"
       d="m 7.5679241,-6.9315848 c 0,-0.016741 -0.016741,-0.083705 -0.1004464,-0.083705 -0.033482,0 -0.050223,0 -0.1506697,0.1171875 L 6.613683,-6.1447545 C 6.5299777,-6.278683 6.0612277,-7.0152902 4.956317,-7.0152902 c -2.2098215,0 -4.45312504,2.1930804 -4.45312504,4.5033482 0,1.59040182 1.10491074,2.72879468 2.71205354,2.72879468 0.4352679,0 0.8872768,-0.0837054 1.2555804,-0.234375 0.4854911,-0.20089286 0.6863839,-0.41852679 0.8537946,-0.60267857 0.1004465,0.234375 0.3515625,0.60267857 0.452009,0.60267857 0.050223,0 0.066964,-0.01674107 0.066964,-0.03348214 0.016741,-0.01674108 0.1171875,-0.40178572 0.1674107,-0.60267858 L 6.2118973,-1.4237723 c 0.033482,-0.1674107 0.083705,-0.3348215 0.1171875,-0.5022322 0.1171875,-0.4520089 0.1339286,-0.46875 0.686384,-0.485491 0.050223,0 0.1674107,-0.016741 0.1674107,-0.2008929 0,-0.066964 -0.050223,-0.1004464 -0.1339286,-0.1004464 -0.2176339,0 -0.8203125,0.016741 -1.0379464,0.016741 -0.3180804,0 -1.0881697,-0.016741 -1.40625,-0.016741 -0.083705,0 -0.2008929,0 -0.2008929,0.1841518 0,0.1171875 0.083705,0.1171875 0.3013393,0.1171875 0,0 0.3013393,0 0.5189732,0.016741 0.2678572,0.033482 0.3180804,0.066964 0.3180804,0.2008929 0,0.083705 -0.1171875,0.5357143 -0.217634,0.9040178 -0.2678571,1.08816969 -1.5736607,1.20535719 -1.9252232,1.20535719 -0.954241,0 -1.9921875,-0.56919643 -1.9921875,-2.09263389 0,-0.3180804 0.1004465,-1.9587054 1.1383929,-3.2477679 0.5357143,-0.6863839 1.5066964,-1.2890625 2.4944196,-1.2890625 1.0212054,0 1.6071429,0.7700893 1.6071429,1.9252232 0,0.4017857 -0.033482,0.4017857 -0.033482,0.5022322 0,0.1004464 0.1171875,0.1004464 0.1506697,0.1004464 0.1339286,0 0.1339286,-0.016741 0.1841518,-0.2008929 z m 5.4031809,0.1339285 c 0,-0.016741 0,-0.1171875 -0.133929,-0.1171875 -0.150669,0 -1.088169,0.083705 -1.25558,0.1171875 -0.08371,0 -0.15067,0.050223 -0.15067,0.1841518 0,0.1171875 0.100447,0.1171875 0.251116,0.1171875 0.46875,0 0.485491,0.066964 0.485491,0.1674107 l -0.01674,0.2008929 -0.602678,2.3604911 c -0.184152,-0.3683036 -0.46875,-0.6361607 -0.920759,-0.6361607 -1.155134,0 -2.3939733,1.4564732 -2.3939733,2.9129464 0,0.93749999 0.5524554,1.60714285 1.3225446,1.60714285 0.2008929,0 0.7031247,-0.05022321 1.2890627,-0.75334821 0.08371,0.41852678 0.435268,0.75334821 0.904018,0.75334821 0.351562,0 0.585937,-0.234375 0.736607,-0.55245536 0.184152,-0.36830357 0.301339,-0.97098219 0.301339,-0.98772319 0,-0.1004465 -0.08371,-0.1004465 -0.117187,-0.1004465 -0.100447,0 -0.100447,0.033482 -0.133929,0.1841518 -0.167411,0.63616075 -0.351562,1.22209825 -0.753348,1.22209825 -0.267857,0 -0.301339,-0.25111607 -0.301339,-0.45200893 0,-0.234375 0.01674,-0.30133928 0.05022,-0.46875002 z m -2.075893,5.608259 c -0.05022,0.1841518 -0.05022,0.20089284 -0.200893,0.36830355 -0.435268,0.55245536 -0.8370534,0.703125 -1.1216516,0.703125 -0.5022321,0 -0.6361607,-0.53571429 -0.6361607,-0.92075895 0,-0.5022321 0.3180804,-1.7243303 0.5524554,-2.1930803 0.3013392,-0.5859375 0.7533479,-0.9542411 1.1551339,-0.9542411 0.636161,0 0.78683,0.8203125 0.78683,0.8705357 0,0.066964 -0.01674,0.1339286 -0.03348,0.1841518 z m 5.453404,-1.8247768 c 0.05022,-0.2511161 0.284598,-1.171875 0.987723,-1.171875 0.05022,0 0.284599,0 0.485491,0.1339286 -0.267857,0.050223 -0.46875,0.3013392 -0.46875,0.5357142 0,0.1506697 0.100447,0.3515625 0.368304,0.3515625 0.234375,0 0.552455,-0.1841517 0.552455,-0.5859375 0,-0.5189732 -0.602678,-0.6529017 -0.9375,-0.6529017 -0.569196,0 -0.920759,0.5357142 -1.037946,0.7533482 -0.251116,-0.6529018 -0.78683,-0.7533482 -1.08817,-0.7533482 -1.021205,0 -1.590402,1.2890625 -1.590402,1.5401785 0,0.1004465 0.100447,0.1004465 0.117188,0.1004465 0.08371,0 0.100446,-0.033482 0.133929,-0.1171875 0.334821,-1.0546875 0.987723,-1.3058036 1.322544,-1.3058036 0.200893,0 0.535714,0.083705 0.535714,0.6696428 0,0.3013393 -0.16741,0.9709822 -0.535714,2.3772322 -0.150669,0.60267856 -0.502232,1.02120535 -0.9375,1.02120535 -0.06696,0 -0.284598,0 -0.502232,-0.1171875 0.251116,-0.0502232 0.46875,-0.26785714 0.46875,-0.53571429 0,-0.26785716 -0.217634,-0.35156246 -0.368304,-0.35156246 -0.301339,0 -0.552455,0.25111604 -0.552455,0.56919639 0,0.46875 0.502232,0.66964286 0.9375,0.66964286 0.652902,0 1.021205,-0.703125 1.054688,-0.77008929 0.117187,0.36830358 0.46875,0.77008929 1.071428,0.77008929 1.021206,0 1.590402,-1.28906255 1.590402,-1.54017855 0,-0.1004465 -0.08371,-0.1004465 -0.117188,-0.1004465 -0.08371,0 -0.117187,0.033482 -0.133928,0.1171875 -0.31808,1.05468755 -1.004464,1.28906255 -1.322545,1.28906255 -0.385044,0 -0.552455,-0.31808036 -0.552455,-0.65290179 0,-0.21763392 0.06696,-0.43526786 0.184152,-0.87053576 z m 0,0"
       style="fill:#000000;fill-opacity:1;fill-rule:nonzero;stroke:none"
       aria-label="Gdx"
       transform="matrix(0.93333333,0,0,0.93333333,2910.8507,579.58667)" />
    <path
       id="path434"
       d="m 128.9774,59.52802 0.005,-26.98493 m 0,-5.55603 L 128.9774,0"
       style="fill:none;stroke:#000000;stroke-width:0.3985;stroke-linecap:butt;stroke-linejoin:miter;stroke-miterlimit:10;stroke-dasharray:none;stroke-opacity:1"
       transform="matrix(1.3333333,0,0,-1.3333333,2804.284,617.27067)" />
    <path
       id="path435"
       d="m 137.31134,32.54193 h -16.66791 m 16.66791,-5.55585 h -16.66791"
       style="fill:none;stroke:#000000;stroke-width:0.797;stroke-linecap:butt;stroke-linejoin:miter;stroke-miterlimit:10;stroke-dasharray:none;stroke-opacity:1"
       transform="matrix(1.3333333,0,0,-1.3333333,2804.284,617.27067)" />
    <path
       id="path436"
       d="m 7.5674442,-6.9315848 c 0,-0.016741 -0.016741,-0.083705 -0.1004464,-0.083705 -0.033482,0 -0.050223,0 -0.1506697,0.1171875 l -0.703125,0.7533482 c -0.083705,-0.1339285 -0.5524553,-0.8705357 -1.657366,-0.8705357 -2.2098215,0 -4.45312505,2.1930804 -4.45312505,4.5033482 0,1.64062504 1.17187505,2.72879468 2.69531255,2.72879468 0.8705357,0 1.6238839,-0.40178572 2.1595982,-0.85379464 0.9207589,-0.82031254 1.0881696,-1.72433034 1.0881696,-1.75781254 0,-0.1004464 -0.1004464,-0.1004464 -0.1171875,-0.1004464 -0.066964,0 -0.1171875,0.016741 -0.1339286,0.1004464 -0.083705,0.2845982 -0.3180803,1.0044643 -1.0044642,1.57366075 -0.686384,0.56919643 -1.3225447,0.73660714 -1.8247768,0.73660714 -0.9040179,0 -1.9587054,-0.51897321 -1.9587054,-2.07589289 0,-0.5691964 0.2008929,-2.1763393 1.2053572,-3.3482143 0.6026785,-0.703125 1.5401785,-1.2053571 2.4274553,-1.2053571 1.0212054,0 1.6071429,0.7700893 1.6071429,1.9252232 0,0.4017857 -0.033482,0.4017857 -0.033482,0.5022322 0,0.1004464 0.1171875,0.1004464 0.1506697,0.1004464 0.1339285,0 0.1339285,-0.016741 0.1841518,-0.2008929 z m 5.4115518,0.1339285 c 0,-0.016741 0,-0.1171875 -0.133929,-0.1171875 -0.15067,0 -1.08817,0.083705 -1.25558,0.1171875 -0.08371,0 -0.15067,0.050223 -0.15067,0.1841518 0,0.1171875 0.100446,0.1171875 0.251116,0.1171875 0.46875,0 0.485491,0.066964 0.485491,0.1674107 l -0.01674,0.2008929 -0.602679,2.3604911 c -0.184151,-0.3683036 -0.46875,-0.6361607 -0.920758,-0.6361607 -1.1551344,0 -2.3939737,1.4564732 -2.3939737,2.9129464 0,0.93749999 0.5524554,1.60714285 1.3225447,1.60714285 0.2008928,0 0.703125,-0.05022321 1.289062,-0.75334821 0.08371,0.41852678 0.435268,0.75334821 0.904018,0.75334821 0.351563,0 0.585938,-0.234375 0.736607,-0.55245536 0.184152,-0.36830357 0.30134,-0.97098219 0.30134,-0.98772319 0,-0.1004465 -0.08371,-0.1004465 -0.117188,-0.1004465 -0.100446,0 -0.100446,0.033482 -0.133928,0.1841518 -0.167411,0.63616075 -0.351563,1.22209825 -0.753349,1.22209825 -0.267857,0 -0.301339,-0.25111607 -0.301339,-0.45200893 0,-0.234375 0.01674,-0.30133928 0.05022,-0.46875002 z m -2.075893,5.608259 c -0.05022,0.1841518 -0.05022,0.20089284 -0.200893,0.36830355 -0.435268,0.55245536 -0.8370537,0.703125 -1.121652,0.703125 -0.5022321,0 -0.6361607,-0.53571429 -0.6361607,-0.92075895 0,-0.5022321 0.3180804,-1.7243303 0.5524554,-2.1930803 0.3013393,-0.5859375 0.7533483,-0.9542411 1.1551343,-0.9542411 0.63616,0 0.78683,0.8203125 0.78683,0.8705357 0,0.066964 -0.01674,0.1339286 -0.03348,0.1841518 z m 5.453404,-1.8247768 c 0.05022,-0.2511161 0.284598,-1.171875 0.987723,-1.171875 0.05022,0 0.284598,0 0.485491,0.1339286 -0.267857,0.050223 -0.46875,0.3013392 -0.46875,0.5357142 0,0.1506697 0.100446,0.3515625 0.368304,0.3515625 0.234375,0 0.552455,-0.1841517 0.552455,-0.5859375 0,-0.5189732 -0.602679,-0.6529017 -0.9375,-0.6529017 -0.569197,0 -0.920759,0.5357142 -1.037947,0.7533482 -0.251116,-0.6529018 -0.78683,-0.7533482 -1.088169,-0.7533482 -1.021206,0 -1.590402,1.2890625 -1.590402,1.5401785 0,0.1004465 0.100446,0.1004465 0.117188,0.1004465 0.08371,0 0.100446,-0.033482 0.133928,-0.1171875 0.334822,-1.0546875 0.987723,-1.3058036 1.322545,-1.3058036 0.200893,0 0.535714,0.083705 0.535714,0.6696428 0,0.3013393 -0.167411,0.9709822 -0.535714,2.3772322 -0.15067,0.60267856 -0.502232,1.02120535 -0.9375,1.02120535 -0.06696,0 -0.284598,0 -0.502232,-0.1171875 0.251116,-0.0502232 0.46875,-0.26785714 0.46875,-0.53571429 0,-0.26785716 -0.217634,-0.35156246 -0.368304,-0.35156246 -0.301339,0 -0.552455,0.25111604 -0.552455,0.56919639 0,0.46875 0.502232,0.66964286 0.9375,0.66964286 0.652901,0 1.021205,-0.703125 1.054687,-0.77008929 0.117188,0.36830358 0.46875,0.77008929 1.071429,0.77008929 1.021205,0 1.590402,-1.28906255 1.590402,-1.54017855 0,-0.1004465 -0.08371,-0.1004465 -0.117188,-0.1004465 -0.0837,0 -0.117187,0.033482 -0.133929,0.1171875 -0.31808,1.05468755 -1.004464,1.28906255 -1.322544,1.28906255 -0.385045,0 -0.552456,-0.31808036 -0.552456,-0.65290179 0,-0.21763392 0.06696,-0.43526786 0.184152,-0.87053576 z m 0,0"
       style="fill:#000000;fill-opacity:1;fill-rule:nonzero;stroke:none"
       aria-label="Cdx"
       transform="matrix(0.93333333,0,0,0.93333333,2944.4253,579.58667)" />
    <path
       id="path437"
       d="m 4.0680469,-2.2955357 h 2.7790178 c 0.1506697,0 0.3348215,0 0.3348215,-0.2008929 0,-0.2008928 -0.1841518,-0.2008928 -0.3348215,-0.2008928 H 4.0680469 v -2.7790179 c 0,-0.1506696 0,-0.3348214 -0.2008929,-0.3348214 -0.1841518,0 -0.1841518,0.1841518 -0.1841518,0.3348214 v 2.7790179 H 0.8872433 c -0.13392857,0 -0.33482142,0 -0.33482142,0.2008928 0,0.2008929 0.20089285,0.2008929 0.33482142,0.2008929 h 2.7957589 v 2.79575891 c 0,0.13392858 0,0.31808036 0.1841518,0.31808036 0.2008929,0 0.2008929,-0.18415178 0.2008929,-0.31808036 z m 0,0"
       style="fill:#000000;fill-opacity:1;fill-rule:nonzero;stroke:none"
       aria-label="+"
       transform="matrix(0.93333333,0,0,0.93333333,2800.668,552.08)" />
    <path
       id="path438"
       d="m 6.5624665,-2.2938393 c 0.1674107,0 0.3515625,0 0.3515625,-0.2008928 0,-0.2008929 -0.1841518,-0.2008929 -0.3515625,-0.2008929 h -5.390625 c -0.1674107,0 -0.35156248,0 -0.35156248,0.2008929 0,0.2008928 0.18415178,0.2008928 0.35156248,0.2008928 z m 0,0"
       style="fill:#000000;fill-opacity:1;fill-rule:nonzero;stroke:none"
       aria-label="−"
       transform="matrix(0.93333333,0,0,0.93333333,2800.668,607.73467)" />
    <g
       id="g438"
       aria-label="V(x)"
       transform="matrix(0.93333333,0,0,0.93333333,2793.672,579.908)">
      <path
         id="path439"
         d="m 7.5668304,-5.9616964 c 0.1506696,-0.217634 0.2678571,-0.4017857 0.954241,-0.4017857 0.1171875,0 0.3013393,0 0.3013393,-0.2845983 0,-0.066964 -0.050223,-0.1841517 -0.1841518,-0.1841517 -0.2845982,0 -0.6026785,0.033482 -0.9040178,0.033482 -0.3683036,0 -0.7533482,-0.033482 -1.1049107,-0.033482 -0.066964,0 -0.2678572,0 -0.2678572,0.2845982 0,0.1841518 0.1674107,0.1841518 0.2678572,0.1841518 0.050223,0 0.3348214,0 0.5524553,0.1004464 l -3.28125,4.7712053 -0.8872768,-4.6540178 c 0,-0.033482 -0.016741,-0.1171875 -0.016741,-0.1339286 0,-0.083705 0.5357142,-0.083705 0.6026785,-0.083705 0.217634,0 0.3850447,0 0.3850447,-0.2845983 0,-0.1339285 -0.1004465,-0.1841517 -0.217634,-0.1841517 -0.251116,0 -0.5022321,0.016741 -0.7533482,0.016741 -0.251116,0 -0.485491,0.016741 -0.7366071,0.016741 -0.2176339,0 -0.4520089,-0.016741 -0.6863839,-0.016741 -0.217634,0 -0.452009,-0.016741 -0.65290183,-0.016741 -0.0837054,0 -0.28459821,0 -0.28459821,0.2845982 0,0.1841518 0.16741071,0.1841518 0.36830354,0.1841518 0.1339286,0 0.2511161,0 0.3850447,0 0.1171875,0.016741 0.1339285,0.033482 0.1506696,0.2008928 l 1.1383929,6.0435268 c 0.050223,0.28459821 0.1674107,0.28459821 0.3515625,0.28459821 0.2845982,0 0.3348214,-0.06696428 0.4520089,-0.25111607 z m 0,0"
         style="fill:#000000;fill-opacity:1;fill-rule:nonzero;stroke:none" />
      <path
         id="path440"
         d="m 12.597522,2.3920982 c 0,-0.033482 0,-0.050223 -0.16741,-0.2176339 -1.255581,-1.25558037 -1.573661,-3.14732144 -1.573661,-4.6707589 0,-1.7243304 0.385045,-3.4654018 1.607143,-4.7042411 0.133928,-0.1171875 0.133928,-0.1506697 0.133928,-0.1674107 0,-0.066964 -0.03348,-0.1004465 -0.100446,-0.1004465 -0.100447,0 -1.004464,0.6696429 -1.590402,1.9419643 -0.502232,1.0881697 -0.61942,2.1930804 -0.61942,3.030134 0,0.7868303 0.100447,1.99218746 0.652902,3.11383924 0.602679,1.22209826 1.456473,1.87499996 1.55692,1.87499996 0.06696,0 0.100446,-0.033482 0.100446,-0.1004464 z m 0,0"
         style="fill:#000000;fill-opacity:1;fill-rule:nonzero;stroke:none" />
      <path
         id="path441"
         d="m 16.502377,-3.0152679 c 0.05022,-0.251116 0.284598,-1.171875 0.987723,-1.171875 0.05022,0 0.284599,0 0.485492,0.1339286 -0.267858,0.050223 -0.46875,0.3013393 -0.46875,0.5357143 0,0.1506696 0.100446,0.3515625 0.368303,0.3515625 0.234375,0 0.552455,-0.1841518 0.552455,-0.5859375 0,-0.5189732 -0.602678,-0.6529018 -0.9375,-0.6529018 -0.569196,0 -0.920758,0.5357143 -1.037946,0.7533482 -0.251116,-0.6529018 -0.78683,-0.7533482 -1.08817,-0.7533482 -1.021205,0 -1.590401,1.2890625 -1.590401,1.5401786 0,0.1004464 0.100446,0.1004464 0.117187,0.1004464 0.08371,0 0.100447,-0.033482 0.133929,-0.1171875 0.334821,-1.0546875 0.987723,-1.3058036 1.322544,-1.3058036 0.200893,0 0.535715,0.083705 0.535715,0.6696429 0,0.3013393 -0.167411,0.9709821 -0.535715,2.3772321 -0.150669,0.60267861 -0.502232,1.0212054 -0.9375,1.0212054 -0.06696,0 -0.284598,0 -0.502232,-0.1171875 0.251116,-0.0502232 0.46875,-0.26785714 0.46875,-0.53571429 0,-0.26785711 -0.217634,-0.35156251 -0.368303,-0.35156251 -0.30134,0 -0.552456,0.25111609 -0.552456,0.56919644 0,0.46875 0.502232,0.66964286 0.9375,0.66964286 0.652902,0 1.021206,-0.703125 1.054688,-0.77008929 0.117187,0.36830358 0.46875,0.77008929 1.071428,0.77008929 1.021206,0 1.590402,-1.2890625 1.590402,-1.5401786 0,-0.1004464 -0.0837,-0.1004464 -0.117187,-0.1004464 -0.08371,0 -0.117188,0.033482 -0.133929,0.1171875 -0.31808,1.0546875 -1.004464,1.2890625 -1.322545,1.2890625 -0.385044,0 -0.552455,-0.31808036 -0.552455,-0.65290179 0,-0.21763392 0.06696,-0.43526781 0.184152,-0.87053571 z m 0,0"
         style="fill:#000000;fill-opacity:1;fill-rule:nonzero;stroke:none" />
      <path
         id="path442"
         d="m 21.746518,-2.4962946 c 0,-0.7700893 -0.117188,-1.9754465 -0.652902,-3.0970983 -0.602678,-1.2388392 -1.456473,-1.875 -1.55692,-1.875 -0.06696,0 -0.100446,0.033482 -0.100446,0.1004465 0,0.016741 0,0.050223 0.184152,0.2176339 0.987723,0.9877232 1.540178,2.578125 1.540178,4.6540179 0,1.70758924 -0.368303,3.46540174 -1.590401,4.7209821 -0.133929,0.1171875 -0.133929,0.1339286 -0.133929,0.1674107 0,0.050223 0.03348,0.1004464 0.100446,0.1004464 0.100447,0 0.987724,-0.6863839 1.573661,-1.94196424 0.518973,-1.10491072 0.636161,-2.20982146 0.636161,-3.04687496 z m 0,0"
         style="fill:#000000;fill-opacity:1;fill-rule:nonzero;stroke:none" />
    </g>
    <path
       id="path443"
       d="m 4.0665848,-2.2955357 h 2.7790179 c 0.1506696,0 0.3348214,0 0.3348214,-0.2008929 0,-0.2008928 -0.1841518,-0.2008928 -0.3348214,-0.2008928 H 4.0665848 v -2.7790179 c 0,-0.1506696 0,-0.3348214 -0.2008928,-0.3348214 -0.1841518,0 -0.1841518,0.1841518 -0.1841518,0.3348214 v 2.7790179 H 0.88578125 c -0.13392857,0 -0.33482143,0 -0.33482143,0.2008928 0,0.2008929 0.20089286,0.2008929 0.33482143,0.2008929 H 3.6815402 v 2.79575891 c 0,0.13392858 0,0.31808036 0.1841518,0.31808036 0.2008928,0 0.2008928,-0.18415178 0.2008928,-0.31808036 z m 0,0"
       style="fill:#000000;fill-opacity:1;fill-rule:nonzero;stroke:none"
       aria-label="+"
       transform="matrix(0.93333333,0,0,0.93333333,3012.3373,552.08)" />
    <path
       id="path444"
       d="m 6.5610045,-2.2938393 c 0.1674107,0 0.3515625,0 0.3515625,-0.2008928 0,-0.2008929 -0.1841518,-0.2008929 -0.3515625,-0.2008929 h -5.390625 c -0.1674107,0 -0.35156254,0 -0.35156254,0.2008929 0,0.2008928 0.18415184,0.2008928 0.35156254,0.2008928 z m 0,0"
       style="fill:#000000;fill-opacity:1;fill-rule:nonzero;stroke:none"
       aria-label="−"
       transform="matrix(0.93333333,0,0,0.93333333,3012.3373,607.73467)" />
    <g
       id="g444"
       aria-label="V(x+dx)"
       transform="matrix(0.93333333,0,0,0.93333333,2994.5813,579.908)">
      <path
         id="path445"
         d="m 7.5677121,-5.9616964 c 0.1506696,-0.217634 0.2678571,-0.4017857 0.954241,-0.4017857 0.1171875,0 0.3013393,0 0.3013393,-0.2845983 0,-0.066964 -0.050223,-0.1841517 -0.1841518,-0.1841517 -0.2845982,0 -0.6026785,0.033482 -0.9040178,0.033482 -0.3683036,0 -0.7533482,-0.033482 -1.1049107,-0.033482 -0.066964,0 -0.2678572,0 -0.2678572,0.2845982 0,0.1841518 0.1674107,0.1841518 0.2678572,0.1841518 0.050223,0 0.3348214,0 0.5524553,0.1004464 l -3.28125,4.7712053 -0.8872768,-4.6540178 c 0,-0.033482 -0.016741,-0.1171875 -0.016741,-0.1339286 0,-0.083705 0.5357142,-0.083705 0.6026785,-0.083705 0.217634,0 0.3850447,0 0.3850447,-0.2845983 0,-0.1339285 -0.1004465,-0.1841517 -0.217634,-0.1841517 -0.251116,0 -0.5022321,0.016741 -0.7533482,0.016741 -0.251116,0 -0.485491,0.016741 -0.7366071,0.016741 -0.2176339,0 -0.4520089,-0.016741 -0.6863839,-0.016741 -0.217634,0 -0.452009,-0.016741 -0.65290183,-0.016741 -0.0837054,0 -0.28459822,0 -0.28459822,0.2845982 0,0.1841518 0.16741072,0.1841518 0.36830355,0.1841518 0.1339286,0 0.2511161,0 0.3850447,0 0.1171875,0.016741 0.1339285,0.033482 0.1506696,0.2008928 l 1.1383929,6.0435268 c 0.050223,0.28459821 0.1674107,0.28459821 0.3515625,0.28459821 0.2845982,0 0.3348214,-0.06696428 0.4520089,-0.25111607 z m 0,0"
         style="fill:#000000;fill-opacity:1;fill-rule:nonzero;stroke:none" />
      <path
         id="path446"
         d="m 12.598404,2.3920982 c 0,-0.033482 0,-0.050223 -0.167411,-0.2176339 -1.25558,-1.25558037 -1.57366,-3.14732144 -1.57366,-4.6707589 0,-1.7243304 0.385044,-3.4654018 1.607142,-4.7042411 0.133929,-0.1171875 0.133929,-0.1506697 0.133929,-0.1674107 0,-0.066964 -0.03348,-0.1004465 -0.100446,-0.1004465 -0.100447,0 -1.004465,0.6696429 -1.590402,1.9419643 -0.502232,1.0881697 -0.61942,2.1930804 -0.61942,3.030134 0,0.7868303 0.100447,1.99218746 0.652902,3.11383924 0.602679,1.22209826 1.456473,1.87499996 1.55692,1.87499996 0.06696,0 0.100446,-0.033482 0.100446,-0.1004464 z m 0,0"
         style="fill:#000000;fill-opacity:1;fill-rule:nonzero;stroke:none" />
      <path
         id="path447"
         d="m 16.503259,-3.0152679 c 0.05022,-0.251116 0.284598,-1.171875 0.987723,-1.171875 0.05022,0 0.284598,0 0.485491,0.1339286 -0.267857,0.050223 -0.46875,0.3013393 -0.46875,0.5357143 0,0.1506696 0.100447,0.3515625 0.368304,0.3515625 0.234375,0 0.552455,-0.1841518 0.552455,-0.5859375 0,-0.5189732 -0.602678,-0.6529018 -0.9375,-0.6529018 -0.569196,0 -0.920759,0.5357143 -1.037946,0.7533482 -0.251116,-0.6529018 -0.786831,-0.7533482 -1.08817,-0.7533482 -1.021205,0 -1.590402,1.2890625 -1.590402,1.5401786 0,0.1004464 0.100447,0.1004464 0.117188,0.1004464 0.08371,0 0.100446,-0.033482 0.133928,-0.1171875 0.334822,-1.0546875 0.987724,-1.3058036 1.322545,-1.3058036 0.200893,0 0.535714,0.083705 0.535714,0.6696429 0,0.3013393 -0.16741,0.9709821 -0.535714,2.3772321 -0.15067,0.60267861 -0.502232,1.0212054 -0.9375,1.0212054 -0.06696,0 -0.284598,0 -0.502232,-0.1171875 0.251116,-0.0502232 0.46875,-0.26785714 0.46875,-0.53571429 0,-0.26785711 -0.217634,-0.35156251 -0.368304,-0.35156251 -0.301339,0 -0.552455,0.25111609 -0.552455,0.56919644 0,0.46875 0.502232,0.66964286 0.9375,0.66964286 0.652902,0 1.021205,-0.703125 1.054687,-0.77008929 0.117188,0.36830358 0.46875,0.77008929 1.071429,0.77008929 1.021205,0 1.590402,-1.2890625 1.590402,-1.5401786 0,-0.1004464 -0.08371,-0.1004464 -0.117188,-0.1004464 -0.0837,0 -0.117187,0.033482 -0.133928,0.1171875 -0.318081,1.0546875 -1.004465,1.2890625 -1.322545,1.2890625 -0.385045,0 -0.552455,-0.31808036 -0.552455,-0.65290179 0,-0.21763392 0.06696,-0.43526781 0.184152,-0.87053571 z m 0,0"
         style="fill:#000000;fill-opacity:1;fill-rule:nonzero;stroke:none" />
      <path
         id="path448"
         d="m 25.150022,-2.2954018 h 2.779018 c 0.15067,0 0.334822,0 0.334822,-0.2008928 0,-0.2008929 -0.184152,-0.2008929 -0.334822,-0.2008929 h -2.779018 v -2.7790179 c 0,-0.1506696 0,-0.3348214 -0.200893,-0.3348214 -0.184151,0 -0.184151,0.1841518 -0.184151,0.3348214 v 2.7790179 h -2.795759 c -0.133929,0 -0.334822,0 -0.334822,0.2008929 0,0.2008928 0.200893,0.2008928 0.334822,0.2008928 h 2.795759 v 2.79575894 c 0,0.13392857 0,0.31808036 0.184151,0.31808036 0.200893,0 0.200893,-0.18415179 0.200893,-0.31808036 z m 0,0"
         style="fill:#000000;fill-opacity:1;fill-rule:nonzero;stroke:none" />
      <path
         id="path449"
         d="m 36.182388,-6.79875 c 0,-0.016741 0,-0.1171875 -0.133928,-0.1171875 -0.15067,0 -1.08817,0.083705 -1.255581,0.1171875 -0.08371,0 -0.150669,0.050223 -0.150669,0.1841518 0,0.1171875 0.100446,0.1171875 0.251116,0.1171875 0.46875,0 0.485491,0.066964 0.485491,0.1674107 l -0.01674,0.2008929 -0.602679,2.360491 c -0.184151,-0.3683035 -0.46875,-0.6361607 -0.920759,-0.6361607 -1.155134,0 -2.393973,1.4564732 -2.393973,2.9129464 0,0.93750004 0.552456,1.6071429 1.322545,1.6071429 0.200893,0 0.703125,-0.05022321 1.289062,-0.75334821 0.08371,0.41852678 0.435268,0.75334821 0.904018,0.75334821 0.351563,0 0.585938,-0.234375 0.736607,-0.55245536 0.184152,-0.36830357 0.30134,-0.97098214 0.30134,-0.98772324 0,-0.1004464 -0.08371,-0.1004464 -0.117188,-0.1004464 -0.100446,0 -0.100446,0.033482 -0.133928,0.1841518 -0.167411,0.6361607 -0.351563,1.2220982 -0.753349,1.2220982 -0.267857,0 -0.301339,-0.25111607 -0.301339,-0.45200893 0,-0.234375 0.01674,-0.30133928 0.05022,-0.46874997 z m -2.075892,5.6082589 c -0.05022,0.1841518 -0.05022,0.20089289 -0.200893,0.3683036 -0.435268,0.55245536 -0.837054,0.703125 -1.121652,0.703125 -0.502232,0 -0.636161,-0.53571429 -0.636161,-0.9207589 0,-0.5022322 0.318081,-1.7243304 0.552456,-2.1930804 0.301339,-0.5859375 0.753348,-0.9542411 1.155133,-0.9542411 0.636161,0 0.786831,0.8203125 0.786831,0.8705358 0,0.066964 -0.01674,0.1339285 -0.03348,0.1841517 z M 39.5599,-3.0152679 c 0.05022,-0.251116 0.284598,-1.171875 0.987723,-1.171875 0.05022,0 0.284598,0 0.485491,0.1339286 -0.267857,0.050223 -0.46875,0.3013393 -0.46875,0.5357143 0,0.1506696 0.100446,0.3515625 0.368303,0.3515625 0.234375,0 0.552456,-0.1841518 0.552456,-0.5859375 0,-0.5189732 -0.602679,-0.6529018 -0.9375,-0.6529018 -0.569197,0 -0.920759,0.5357143 -1.037947,0.7533482 -0.251116,-0.6529018 -0.78683,-0.7533482 -1.088169,-0.7533482 -1.021206,0 -1.590402,1.2890625 -1.590402,1.5401786 0,0.1004464 0.100446,0.1004464 0.117187,0.1004464 0.08371,0 0.100447,-0.033482 0.133929,-0.1171875 0.334821,-1.0546875 0.987723,-1.3058036 1.322545,-1.3058036 0.200892,0 0.535714,0.083705 0.535714,0.6696429 0,0.3013393 -0.167411,0.9709821 -0.535714,2.3772321 -0.15067,0.60267861 -0.502233,1.0212054 -0.9375,1.0212054 -0.06697,0 -0.284599,0 -0.502233,-0.1171875 0.251117,-0.0502232 0.46875,-0.26785714 0.46875,-0.53571429 0,-0.26785711 -0.217633,-0.35156251 -0.368303,-0.35156251 -0.301339,0 -0.552455,0.25111609 -0.552455,0.56919644 0,0.46875 0.502232,0.66964286 0.9375,0.66964286 0.652901,0 1.021205,-0.703125 1.054687,-0.77008929 0.117188,0.36830358 0.46875,0.77008929 1.071429,0.77008929 1.021205,0 1.590401,-1.2890625 1.590401,-1.5401786 0,-0.1004464 -0.08371,-0.1004464 -0.117187,-0.1004464 -0.08371,0 -0.117188,0.033482 -0.133929,0.1171875 -0.31808,1.0546875 -1.004464,1.2890625 -1.322544,1.2890625 -0.385045,0 -0.552456,-0.31808036 -0.552456,-0.65290179 0,-0.21763392 0.06697,-0.43526781 0.184152,-0.87053571 z m 0,0"
         style="fill:#000000;fill-opacity:1;fill-rule:nonzero;stroke:none" />
      <path
         id="path450"
         d="m 44.80404,-2.4962946 c 0,-0.7700893 -0.117187,-1.9754465 -0.652902,-3.0970983 -0.602678,-1.2388392 -1.456473,-1.875 -1.556919,-1.875 -0.06697,0 -0.100447,0.033482 -0.100447,0.1004465 0,0.016741 0,0.050223 0.184152,0.2176339 0.987723,0.9877232 1.540179,2.578125 1.540179,4.6540179 0,1.70758924 -0.368304,3.46540174 -1.590402,4.7209821 -0.133929,0.1171875 -0.133929,0.1339286 -0.133929,0.1674107 0,0.050223 0.03348,0.1004464 0.100447,0.1004464 0.100446,0 0.987723,-0.6863839 1.57366,-1.94196424 0.518974,-1.10491072 0.636161,-2.20982146 0.636161,-3.04687496 z m 0,0"
         style="fill:#000000;fill-opacity:1;fill-rule:nonzero;stroke:none" />
    </g>
  </g>
</svg>
